<svg xmlns="http://www.w3.org/2000/svg" width="49.944" height="50.979" viewBox="0 0 49.944 50.979"><g transform="translate(-2832.046 -206.373)"><path d="M-23.958,0h-1V-8h1Zm6.648,0h-.9V-3.792a1.353,1.353,0,0,0-.336-1.038,1.377,1.377,0,0,0-.96-.306,1.985,1.985,0,0,0-.978.264,2.191,2.191,0,0,0-.738.636V0h-.9V-5.8h.9v.84a2.947,2.947,0,0,1,.9-.69,2.489,2.489,0,0,1,1.164-.294A1.644,1.644,0,0,1-17.31-4.068Zm3.636.144a3.07,3.07,0,0,1-2.34-.912l.468-.648a2.373,2.373,0,0,0,.822.588,2.571,2.571,0,0,0,1.086.24A1.624,1.624,0,0,0-12.63-.864a.865.865,0,0,0,.36-.72.679.679,0,0,0-.372-.606,2.975,2.975,0,0,0-.894-.336q-.522-.114-1.05-.264a2.064,2.064,0,0,1-.9-.516,1.294,1.294,0,0,1-.372-.966,1.482,1.482,0,0,1,.582-1.188A2.406,2.406,0,0,1-13.7-5.94a2.909,2.909,0,0,1,2.148.84l-.42.624A2.127,2.127,0,0,0-13.7-5.208a1.537,1.537,0,0,0-.936.258.784.784,0,0,0-.348.654.6.6,0,0,0,.372.546,3.486,3.486,0,0,0,.894.312q.522.114,1.05.27a2.007,2.007,0,0,1,.9.546,1.408,1.408,0,0,1,.372,1.014,1.557,1.557,0,0,1-.6,1.26A2.58,2.58,0,0,1-13.674.144Zm5.208,0A1.249,1.249,0,0,1-9.426-.2,1.427,1.427,0,0,1-9.75-1.212V-5h-.96V-5.8h.96V-7.38h.9V-5.8h1.176V-5H-8.85v3.6a.891.891,0,0,0,.15.54.51.51,0,0,0,.438.2A.781.781,0,0,0-7.65-.9l.264.672A1.514,1.514,0,0,1-8.466.144ZM-1.878,0h-.9V-.66a2.474,2.474,0,0,1-1.92.8A2.132,2.132,0,0,1-6.114-.372a1.74,1.74,0,0,1-.612-1.4,1.722,1.722,0,0,1,.606-1.41,2.171,2.171,0,0,1,1.422-.5,2.4,2.4,0,0,1,1.92.792V-3.936a1.085,1.085,0,0,0-.408-.9A1.647,1.647,0,0,0-4.242-5.16a2.363,2.363,0,0,0-1.776.8l-.42-.624a3.081,3.081,0,0,1,2.316-.96,2.583,2.583,0,0,1,1.62.48,1.745,1.745,0,0,1,.624,1.476Zm-2.5-.5a1.831,1.831,0,0,0,1.6-.72V-2.316a1.831,1.831,0,0,0-1.6-.72A1.5,1.5,0,0,0-5.4-2.682a1.166,1.166,0,0,0-.4.918,1.153,1.153,0,0,0,.4.906A1.5,1.5,0,0,0-4.374-.5ZM2.25,2.352A4.04,4.04,0,0,1,.942,2.166,2.731,2.731,0,0,1-.09,1.488L.366.816a2.315,2.315,0,0,0,1.884.792,2.053,2.053,0,0,0,1.332-.426A1.588,1.588,0,0,0,4.11-.132V-.96a2.519,2.519,0,0,1-.84.744,2.23,2.23,0,0,1-1.1.288A2.369,2.369,0,0,1,.3-.738a3.194,3.194,0,0,1-.714-2.19A3.217,3.217,0,0,1,.3-5.124,2.361,2.361,0,0,1,2.166-5.94,2.32,2.32,0,0,1,4.11-4.92V-5.8h.9V-.168a2.267,2.267,0,0,1-.78,1.926A3.175,3.175,0,0,1,2.25,2.352ZM2.382-.72a2,2,0,0,0,1-.276,1.945,1.945,0,0,0,.726-.672V-4.2a1.911,1.911,0,0,0-.72-.666,2.027,2.027,0,0,0-1.008-.27,1.661,1.661,0,0,0-1.362.612,2.449,2.449,0,0,0-.5,1.6,2.435,2.435,0,0,0,.5,1.59A1.659,1.659,0,0,0,2.382-.72ZM7.71,0h-.9V-5.8h.9v.936A2.37,2.37,0,0,1,9.642-5.916v.924a1.716,1.716,0,0,0-.36-.036,1.751,1.751,0,0,0-.888.288A1.9,1.9,0,0,0,7.71-4.1Zm7.584,0h-.9V-.66a2.474,2.474,0,0,1-1.92.8,2.132,2.132,0,0,1-1.416-.516,1.74,1.74,0,0,1-.612-1.4,1.722,1.722,0,0,1,.606-1.41,2.171,2.171,0,0,1,1.422-.5,2.4,2.4,0,0,1,1.92.792V-3.936a1.085,1.085,0,0,0-.408-.9A1.647,1.647,0,0,0,12.93-5.16a2.363,2.363,0,0,0-1.776.8l-.42-.624a3.081,3.081,0,0,1,2.316-.96,2.583,2.583,0,0,1,1.62.48,1.745,1.745,0,0,1,.624,1.476ZM12.8-.5a1.831,1.831,0,0,0,1.6-.72V-2.316a1.831,1.831,0,0,0-1.6-.72,1.5,1.5,0,0,0-1.026.354,1.166,1.166,0,0,0-.4.918,1.153,1.153,0,0,0,.4.906A1.5,1.5,0,0,0,12.8-.5ZM24.99,0h-.9V-3.936q0-1.2-1.068-1.2a1.645,1.645,0,0,0-.864.264,2.114,2.114,0,0,0-.672.624V0h-.9V-3.936q0-1.2-1.068-1.2a1.6,1.6,0,0,0-.846.264,2.207,2.207,0,0,0-.678.636V0h-.9V-5.8h.9v.84a2.264,2.264,0,0,1,.756-.66,2.141,2.141,0,0,1,1.116-.324,1.664,1.664,0,0,1,1.032.3,1.428,1.428,0,0,1,.528.78,2.3,2.3,0,0,1,.8-.756,2.181,2.181,0,0,1,1.14-.324q1.62,0,1.62,1.752Z" transform="translate(2857 255)" fill="#ff3d00"/><path d="M708.129,43.4H689.752A6.912,6.912,0,0,0,682.86,50.3V68.673a6.912,6.912,0,0,0,6.892,6.892h18.377a6.912,6.912,0,0,0,6.892-6.892V50.3A6.912,6.912,0,0,0,708.129,43.4Zm-9.189,24.12a8.04,8.04,0,1,1,8.04-8.04A8.04,8.04,0,0,1,698.94,67.524Zm9.645-16.249a1.436,1.436,0,1,1,1.436-1.436A1.436,1.436,0,0,1,708.585,51.275Z" transform="translate(2158.087 163.469)" fill="none" stroke="#ff3f00" stroke-miterlimit="10" stroke-width="1"/></g></svg>