<svg xmlns="http://www.w3.org/2000/svg" width="50.124" height="48.912" viewBox="0 0 50.124 48.912"><g transform="translate(-2746.656 -206.232)"><path d="M-22.3.144A3.612,3.612,0,0,1-25.344-1.44l.852-.468a2.552,2.552,0,0,0,.936.846,2.608,2.608,0,0,0,1.26.318,2.937,2.937,0,0,0,2.094-.81,3.131,3.131,0,0,0,.966-2.094h-4.392v-.888h4.368A3.107,3.107,0,0,0-20.268-6.5a2.939,2.939,0,0,0-2.028-.75,2.57,2.57,0,0,0-1.26.324,2.645,2.645,0,0,0-.936.84l-.84-.468A3.523,3.523,0,0,1-22.3-8.136a4.027,4.027,0,0,1,2.934,1.158A3.992,3.992,0,0,1-18.18-4a3.992,3.992,0,0,1-1.182,2.982A4.027,4.027,0,0,1-22.3.144Zm4.584,0V-.6q.408,0,.672-.54a6.37,6.37,0,0,0,.432-1.8l.372-2.856H-12.2V0h-.9V-5h-2.34l-.264,2.172A5.262,5.262,0,0,1-16.38-.546,1.534,1.534,0,0,1-17.712.144Zm8.256-.216A.637.637,0,0,1-9.924.12a.637.637,0,0,1-.468-.192.637.637,0,0,1-.192-.468.637.637,0,0,1,.192-.468A.637.637,0,0,1-9.924-1.2a.637.637,0,0,1,.468.192.637.637,0,0,1,.192.468A.637.637,0,0,1-9.456-.072ZM.276,0h-.9V-5H-3.648V0h-.9V-5.8H.276ZM6.684-.732A2.643,2.643,0,0,1,4.608.144,2.662,2.662,0,0,1,2.526-.732,3.133,3.133,0,0,1,1.74-2.9,3.111,3.111,0,0,1,2.526-5.07a2.67,2.67,0,0,1,2.082-.87,2.67,2.67,0,0,1,2.082.87A3.111,3.111,0,0,1,7.476-2.9,3.119,3.119,0,0,1,6.684-.732ZM3.192-1.308A1.732,1.732,0,0,0,4.608-.66a1.693,1.693,0,0,0,1.4-.654A2.488,2.488,0,0,0,6.528-2.9a2.463,2.463,0,0,0-.516-1.584,1.7,1.7,0,0,0-1.4-.648,1.709,1.709,0,0,0-1.41.654A2.451,2.451,0,0,0,2.676-2.9,2.513,2.513,0,0,0,3.192-1.308ZM8.82-5.8h.9v1.632a1.348,1.348,0,0,0,.36,1.08,1.722,1.722,0,0,0,1.116.3A3.32,3.32,0,0,0,12.732-3.1V-5.8h.9V0h-.9V-2.364a3.893,3.893,0,0,1-1.764.384A2.421,2.421,0,0,1,9.33-2.436a1.856,1.856,0,0,1-.51-1.452ZM17.388,0h-.9V-5h-1.68V-5.8H19.08V-5H17.388ZM24.78,0h-.9V-.66a2.474,2.474,0,0,1-1.92.8,2.132,2.132,0,0,1-1.416-.516,1.74,1.74,0,0,1-.612-1.4,1.722,1.722,0,0,1,.606-1.41,2.171,2.171,0,0,1,1.422-.5,2.4,2.4,0,0,1,1.92.792V-3.936a1.085,1.085,0,0,0-.408-.9,1.647,1.647,0,0,0-1.056-.324,2.363,2.363,0,0,0-1.776.8l-.42-.624a3.081,3.081,0,0,1,2.316-.96,2.583,2.583,0,0,1,1.62.48,1.745,1.745,0,0,1,.624,1.476Zm-2.5-.5a1.831,1.831,0,0,0,1.6-.72V-2.316a1.831,1.831,0,0,0-1.6-.72,1.5,1.5,0,0,0-1.026.354,1.166,1.166,0,0,0-.4.918,1.153,1.153,0,0,0,.4.906A1.5,1.5,0,0,0,22.284-.5Z" transform="translate(2772 255)" fill="#ff3d00"/><g transform="translate(2755.513 206.232)" fill="none" stroke="#ff3f00" stroke-width="1"><rect width="32.161" height="32.16" rx="5" stroke="none"/><rect x="0.5" y="0.5" width="31.161" height="31.16" rx="4.5" fill="none"/></g><g transform="translate(1896.161 680.711)"><path d="M885.285-451.465H865.393a1.052,1.052,0,0,1-1.054-1.051v-11.9a1.054,1.054,0,0,1,1.631-.88l8.012,6.667a2.124,2.124,0,0,0,2.715,0l8.012-6.667a1.054,1.054,0,0,1,1.631.88v11.9A1.053,1.053,0,0,1,885.285-451.465Z" transform="translate(0 0)" fill="none" stroke="#ff3d00" stroke-linecap="round" stroke-linejoin="round" stroke-width="1"/><line x2="19.682" transform="translate(865.498 -465.465)" stroke-width="1" stroke="#ff3d00" stroke-linecap="round" stroke-linejoin="round" fill="none"/></g></g></svg>