<svg id="BG_text" data-name="BG text" xmlns="http://www.w3.org/2000/svg" width="375" height="650" viewBox="0 0 375 650">
  <g id="Group_612" data-name="Group 612" opacity="0.05">
    <path id="Path_50" data-name="Path 50" d="M-382.4,448.111-279.194,465.8a3.128,3.128,0,0,0,3.656-3.083V450.268a3.129,3.129,0,0,0-2.689-3.1l-11.335-1.6a1.876,1.876,0,0,1-1.613-1.858V426.6a1.876,1.876,0,0,1,1.613-1.858l11.335-1.6a3.127,3.127,0,0,0,2.689-3.1V407.59a3.127,3.127,0,0,0-3.656-3.082L-382.4,422.2a3.128,3.128,0,0,0-2.6,3.083v19.746A3.127,3.127,0,0,0-382.4,448.111Zm70.321-5.732-51.028-6.6a.626.626,0,0,1,0-1.239l51.028-6.6a1.877,1.877,0,0,1,2.14,1.858v10.731A1.877,1.877,0,0,1-312.08,442.379Z" transform="translate(397 -50.886)" fill="#fff"/>
    <path id="Path_51" data-name="Path 51" d="M-363.108,227.038A21.892,21.892,0,0,0-385,248.93V280.2a3.128,3.128,0,0,0,3.127,3.128h79.751a1.563,1.563,0,0,1,1.564,1.563h0a1.564,1.564,0,0,0,1.564,1.564h20.329a3.127,3.127,0,0,0,3.127-3.127v-12.51a3.127,3.127,0,0,0-3.127-3.128h-3.128v-25.02h3.128a3.127,3.127,0,0,0,3.127-3.127v-12.51a3.128,3.128,0,0,0-3.127-3.128h-20.329a1.564,1.564,0,0,0-1.564,1.564h0a1.564,1.564,0,0,1-1.564,1.564Zm62.55,20.641v15.012a1.876,1.876,0,0,1-1.876,1.877h-61.925a1.876,1.876,0,0,1-1.876-1.877V248.93a3.127,3.127,0,0,1,3.127-3.127h60.674A1.876,1.876,0,0,1-300.558,247.679Z" transform="translate(397 -50.886)" fill="#fff"/>
    <path id="Path_52" data-name="Path 52" d="M-260.538,458.759V496.07a3.109,3.109,0,0,0,3.109,3.109h102.6a3.109,3.109,0,0,0,3.11-3.109V483.633a3.109,3.109,0,0,0-3.11-3.109h-38.554a1.866,1.866,0,0,1-1.866-1.866v-19.9a21.765,21.765,0,0,0-21.764-21.765h-21.765A21.766,21.766,0,0,0-260.538,458.759Zm43.53-3.109a3.109,3.109,0,0,1,3.109,3.109v19.9a1.865,1.865,0,0,1-1.866,1.866h-24.252a1.865,1.865,0,0,1-1.865-1.866v-19.9a3.109,3.109,0,0,1,3.109-3.109Z" transform="translate(394 -50)" fill="#fff"/>
    <path id="Path_53" data-name="Path 53" d="M-220.118,108.529h65.294a3.109,3.109,0,0,0,3.11-3.109V68.109A3.109,3.109,0,0,0-154.824,65H-167.26a3.109,3.109,0,0,0-3.11,3.109v19.9a1.865,1.865,0,0,1-1.865,1.866H-199.6a1.865,1.865,0,0,1-1.865-1.866V80.546a3.109,3.109,0,0,0-3.109-3.109h-12.437a3.109,3.109,0,0,0-3.11,3.109v7.462a1.865,1.865,0,0,1-1.865,1.866h-18.034a1.865,1.865,0,0,1-1.865-1.866V70.743a3.109,3.109,0,0,0-2.6-3.067L-256.917,65.6a3.11,3.11,0,0,0-3.621,3.067v36.75a3.109,3.109,0,0,0,3.109,3.109Z" transform="translate(394 -50)" fill="#fff"/>
    <path id="Path_54" data-name="Path 54" d="M-220.118,291.439h65.294a3.109,3.109,0,0,0,3.11-3.109V251.019a3.109,3.109,0,0,0-3.11-3.109H-167.26a3.109,3.109,0,0,0-3.11,3.109v19.9a1.865,1.865,0,0,1-1.865,1.866H-199.6a1.865,1.865,0,0,1-1.865-1.866v-7.462a3.109,3.109,0,0,0-3.109-3.109h-12.437a3.109,3.109,0,0,0-3.11,3.109v7.462a1.865,1.865,0,0,1-1.865,1.866h-18.034a1.865,1.865,0,0,1-1.865-1.866V253.653a3.109,3.109,0,0,0-2.6-3.067l-12.437-2.073a3.11,3.11,0,0,0-3.621,3.067v36.75a3.109,3.109,0,0,0,3.109,3.109Z" transform="translate(394 -50)" fill="#fff"/>
    <path id="Path_55" data-name="Path 55" d="M-220.132,429.918h65.271a3.109,3.109,0,0,0,3.108-3.108v-37.3a3.109,3.109,0,0,0-3.108-3.108h-12.433a3.109,3.109,0,0,0-3.108,3.108V409.4a1.865,1.865,0,0,1-1.865,1.865h-27.351a1.865,1.865,0,0,1-1.865-1.865v-7.459a3.108,3.108,0,0,0-3.108-3.108h-12.433a3.108,3.108,0,0,0-3.108,3.108V409.4A1.865,1.865,0,0,1-222,411.269h-18.027a1.865,1.865,0,0,1-1.865-1.865V392.145a3.108,3.108,0,0,0-2.6-3.066l-12.433-2.072a3.108,3.108,0,0,0-3.619,3.066V426.81a3.109,3.109,0,0,0,3.108,3.108Z" transform="translate(394 -50)" fill="#fff"/>
    <path id="Path_56" data-name="Path 56" d="M-204.99,159.135h-52.439a3.109,3.109,0,0,0-3.109,3.11v12.437a3.109,3.109,0,0,0,3.109,3.109h102.6a3.109,3.109,0,0,0,3.11-3.109V160.544a3.11,3.11,0,0,0-1.984-2.9l-54.015-20.982a1.244,1.244,0,0,1,.45-2.4h52.439a3.109,3.109,0,0,0,3.11-3.109V118.715a3.109,3.109,0,0,0-3.11-3.109h-102.6a3.109,3.109,0,0,0-3.109,3.109v14.137a3.108,3.108,0,0,0,1.984,2.9l54.015,20.982A1.244,1.244,0,0,1-204.99,159.135Z" transform="translate(394 -50)" fill="#fff"/>
    <path id="Path_57" data-name="Path 57" d="M-329.126,198.065h-52.747A3.127,3.127,0,0,0-385,201.193V213.7a3.127,3.127,0,0,0,3.127,3.127h103.208a3.127,3.127,0,0,0,3.127-3.127v-14.22a3.128,3.128,0,0,0-1.995-2.916l-54.332-21.1a1.251,1.251,0,0,1,.453-2.417h52.747a3.127,3.127,0,0,0,3.127-3.127v-12.51a3.128,3.128,0,0,0-3.127-3.128H-381.873A3.128,3.128,0,0,0-385,157.408v14.22a3.127,3.127,0,0,0,1.995,2.915l54.332,21.1A1.251,1.251,0,0,1-329.126,198.065Z" transform="translate(397 -50.886)" fill="#fff"/>
    <path id="Path_58" data-name="Path 58" d="M-385,84.65v3.258a3.127,3.127,0,0,0,2.471,3.058l66.889,14.354a1.251,1.251,0,0,1,0,2.446l-66.889,14.354A3.127,3.127,0,0,0-385,125.178v18.895a3.127,3.127,0,0,0,3.127,3.127h103.208a3.127,3.127,0,0,0,3.127-3.127v-12.51a3.128,3.128,0,0,0-3.127-3.128h-44.07a.625.625,0,0,1-.13-1.237l44.848-9.5a3.129,3.129,0,0,0,2.479-3.06V98.45a3.127,3.127,0,0,0-2.479-3.06l-44.848-9.5a.626.626,0,0,1,.13-1.238h44.07a3.127,3.127,0,0,0,3.127-3.127V69.013a3.127,3.127,0,0,0-3.127-3.127H-381.873A3.127,3.127,0,0,0-385,69.013V84.65Z" transform="translate(397 -50.886)" fill="#fff"/>
    <path id="Path_59" data-name="Path 59" d="M-213.9,205.388v14.925a1.865,1.865,0,0,1-1.866,1.865h-41.664a3.109,3.109,0,0,0-3.109,3.109v12.437a3.109,3.109,0,0,0,3.109,3.11h102.6a3.109,3.109,0,0,0,3.11-3.11V225.287a3.109,3.109,0,0,0-3.11-3.109h-38.554a1.866,1.866,0,0,1-1.866-1.865V205.388a1.866,1.866,0,0,1,1.866-1.865h38.554a3.109,3.109,0,0,0,3.11-3.11V187.976a3.109,3.109,0,0,0-3.11-3.109h-102.6a3.109,3.109,0,0,0-3.109,3.109v12.437a3.109,3.109,0,0,0,3.109,3.11h41.664A1.865,1.865,0,0,1-213.9,205.388Z" transform="translate(394 -50)" fill="#fff"/>
    <path id="Path_60" data-name="Path 60" d="M-338.181,493.53v14.982a1.873,1.873,0,0,1-1.873,1.873h-41.825A3.121,3.121,0,0,0-385,513.506v12.485a3.121,3.121,0,0,0,3.121,3.122h103a3.121,3.121,0,0,0,3.121-3.122V513.506a3.121,3.121,0,0,0-3.121-3.121h-38.7a1.872,1.872,0,0,1-1.872-1.873V493.53a1.873,1.873,0,0,1,1.872-1.873h38.7a3.121,3.121,0,0,0,3.121-3.121V476.051a3.121,3.121,0,0,0-3.121-3.121h-103A3.121,3.121,0,0,0-385,476.051v12.485a3.121,3.121,0,0,0,3.121,3.121h41.825A1.874,1.874,0,0,1-338.181,493.53Z" transform="translate(397 -50.886)" fill="#fff"/>
    <path id="Path_61" data-name="Path 61" d="M-385,316.946V323.3a23.433,23.433,0,0,0,23.406,23.406h62.65A23.433,23.433,0,0,0-275.538,323.3v-6.356a23.433,23.433,0,0,0-23.406-23.406h-62.65A23.433,23.433,0,0,0-385,316.946Zm86.056-4.641a4.7,4.7,0,0,1,4.641,4.641V323.3a4.7,4.7,0,0,1-4.641,4.641h-62.65a4.7,4.7,0,0,1-4.641-4.641v-6.356a4.7,4.7,0,0,1,4.641-4.641Z" transform="translate(397 -50.886)" fill="#fff"/>
    <path id="Path_62" data-name="Path 62" d="M-383.425,368.187l25.858,4.206a.625.625,0,0,1,0,1.235l-24.794,3.936A3.127,3.127,0,0,0-385,380.653v14.836a1.877,1.877,0,0,0,2.392,1.8l50.868-14.534a3.13,3.13,0,0,1,1.7-.005l52.12,14.557a1.876,1.876,0,0,0,2.381-1.807V378.868a1.876,1.876,0,0,0-1.646-1.862l-23.374-3.429a.625.625,0,0,1,0-1.241l23.374-3.429a1.876,1.876,0,0,0,1.646-1.862V350.41a1.877,1.877,0,0,0-2.382-1.807l-52.066,14.57a3.124,3.124,0,0,1-1.7,0l-50.92-14.549a1.877,1.877,0,0,0-2.392,1.8v15.911A1.877,1.877,0,0,0-383.425,368.187Z" transform="translate(397 -50.886)" fill="#fff"/>
    <path id="Path_63" data-name="Path 63" d="M-170.4,319.03v8.7a1.865,1.865,0,0,1-1.865,1.865H-257.43a3.109,3.109,0,0,0-3.108,3.108v12.433a3.108,3.108,0,0,0,3.108,3.108h85.163a1.865,1.865,0,0,1,1.865,1.865v8.7a1.865,1.865,0,0,1-1.865,1.865H-257.43a3.108,3.108,0,0,0-3.108,3.108v12.432a3.109,3.109,0,0,0,3.108,3.109h102.569a3.109,3.109,0,0,0,3.108-3.109v-74.6a3.108,3.108,0,0,0-3.108-3.108H-257.43a3.108,3.108,0,0,0-3.108,3.108v12.433a3.109,3.109,0,0,0,3.108,3.108h85.163A1.865,1.865,0,0,1-170.4,319.03Z" transform="translate(394 -50)" fill="#fff"/>
  </g>
  <rect id="Rectangle_167" data-name="Rectangle 167" width="375" height="650" fill="none"/>
</svg>
