<svg xmlns="http://www.w3.org/2000/svg" width="1920" height="1080" viewBox="0 0 1920 1080"><g transform="translate(-5515.824 2039.907)"><path d="M6461.517-1407.017c46.5-4.716,90.555-14.762,123.431-33.744l2.275-1.314c51.712-29.856,71.2-79.978,70.266-122.061-.826-37.142,22.944-74.512,71.263-103.272" transform="translate(99.644 35.935)" fill="none" stroke="#666668" stroke-linecap="round" stroke-linejoin="round" stroke-width="2"/><path d="M6401.714-1431.914q10.613-.1,21.313-.47" transform="translate(92.548 64.329)" fill="none" stroke="#666668" stroke-linecap="round" stroke-linejoin="round" stroke-width="2"/><path d="M6202.98-1461.731c46.619,24.519,113.5,32.513,178.012,33.37" transform="translate(68.62 60.784)" fill="none" stroke="#666668" stroke-linecap="round" stroke-linejoin="round" stroke-width="2"/><path d="M6100.087-1645.427c26.446,24.186,39.2,51.958,38.284,79.653a134.5,134.5,0,0,0,5.943,43.943" transform="translate(56.286 38.592)" fill="none" stroke="#666668" stroke-linecap="round" stroke-linejoin="round" stroke-width="3"/><path d="M5946.409-1703.684c37.137,3.331,73.174,11.486,105.055,24.471" transform="translate(37.806 31.556)" fill="none" stroke="#666668" stroke-linecap="round" stroke-linejoin="round" stroke-width="2"/><path d="M5775.585-1675.574c39.154-17.224,85.048-26.961,131.755-29.2" transform="translate(17.37 31.424)" fill="none" stroke="#666668" stroke-linecap="round" stroke-linejoin="round" stroke-width="2"/><path d="M7252.039-1566.5c-.091,37.158-24.774,74.38-74,102.82-49.909,28.831-115.441,43.087-180.644,42.742-73.173-.388-153.32,6.537-205.229,36.523l-3.556,2.054c-51.681,29.856-71.162,79.978-70.227,122.06.842,37.843-23.832,75.921-73.977,104.888-98.107,56.676-257.152,56.963-354.646.641-49.832-28.787-74.092-66.777-72.841-104.622,1.393-42.087-17.648-92.105-69.008-121.774l-3.534-2.042c-51.584-29.8-131.554-36.47-204.733-35.817-65.206.582-130.586-13.437-180.183-42.088-97.552-56.354-97.129-147.982.887-204.742q9.949-5.76,20.7-10.748" transform="translate(6.613 34.812)" fill="none" stroke="#666668" stroke-linecap="round" stroke-linejoin="round" stroke-width="2"/><path d="M6409.079-1432.715c-40.607-1.738-82.342,6.4-113.5,24.391-25.439,14.687-39.5,33.441-42.175,52.589" transform="translate(74.685 64.26)" fill="none" stroke="#666668" stroke-linecap="round" stroke-linejoin="round" stroke-width="2"/><path d="M6456.254-1420.6a217.5,217.5,0,0,0-54.526-11.533" transform="translate(92.54 64.359)" fill="none" stroke="#666668" stroke-linecap="round" stroke-linejoin="round" stroke-width="2"/><path d="M6418.224-1271.32c22.362-3.859,43.46-10.9,61.15-21.11,56.608-32.684,56.894-85.506.64-117.985a151.547,151.547,0,0,0-16.722-8.285" transform="translate(94.507 65.975)" fill="none" stroke="#666668" stroke-linecap="round" stroke-linejoin="round" stroke-width="2"/><path d="M6267.227-1324.042a105.213,105.213,0,0,0,26.038,20.544,169.5,169.5,0,0,0,39.995,16.292" transform="translate(76.37 77.413)" fill="none" stroke="#666668" stroke-linecap="round" stroke-linejoin="round" stroke-width="2"/><g transform="translate(6465.611 -1466.946)"><g transform="translate(25.251)"><path d="M6410.454-1498.379c.825,16.492,5.978,22.677,12.576,22.883s10.926-3.5,11.956-5.36" transform="translate(-6397.266 1523.301)" fill="none" stroke="#e78f62" stroke-linecap="round" stroke-linejoin="round" stroke-width="2"/><path d="M6410.454-1464.621c0,19.378,10.984,28.385,12.118,39.312" transform="translate(-6397.266 1527.38)" fill="none" stroke="#e78f62" stroke-linecap="round" stroke-linejoin="round" stroke-width="2"/><path d="M6398.688-1452.1c1.933-7.074,3.354-15.633,4.442-19.081,1.661-5.259,3.045-6.228,11.314-10.992" transform="translate(-6398.688 1525.259)" fill="none" stroke="#e78f62" stroke-linecap="round" stroke-linejoin="round" stroke-width="2"/><path d="M6401.7-1505.259c.744,9.184,10.976,7.912,15.955,3.955s17.176-3.791,17.506,1.319,0,9.889,2.637,8.9-.331-8.571,2.307-8.736,2.473,3.132,2.308,6.593,5.439.824,3.627-10.22-6.593-17.636-17.637-17.142-9.835,3.626-14.313,4.78S6400.71-1517.457,6401.7-1505.259Z" transform="translate(-6398.334 1520.614)" fill="none" stroke="#e78f62" stroke-linecap="round" stroke-linejoin="round" stroke-width="2"/><path d="M6438.2-1494.15c-.146,9.919,3.22,12.847,3.22,12.847s-2.475,10.4-8.612,11.841c-3.1,6.069-5.56,6.359-3.681,17.919" transform="translate(-6395.089 1523.812)" fill="none" stroke="#e78f62" stroke-linecap="round" stroke-linejoin="round" stroke-width="2"/><path d="M6419.709-1478.245c.129,4.637,7.128,5.205,8.024,7.555a28.987,28.987,0,0,0,2.85,5.137" transform="translate(-6396.148 1525.734)" fill="none" stroke="#e78f62" stroke-linecap="round" stroke-linejoin="round" stroke-width="2"/><path d="M6440.954-1481.976c.017-2.762-2.12-6.606-2.12-6.606,3.759,1.623,6.152,3.689,5.212,7.185s-2.649,9.9-7.434,15.629a20.154,20.154,0,0,1-4.271-4.366" transform="translate(-6394.622 1524.485)" fill="none" stroke="#e78f62" stroke-linecap="round" stroke-linejoin="round" stroke-width="2"/><path d="M6427.366-1471.4c-.8,4.216-1.31,5.938-1.31,5.938-6.238-5.4-7.982-7.684-8.177-13.5" transform="translate(-6396.37 1525.646)" fill="none" stroke="#e78f62" stroke-linecap="round" stroke-linejoin="round" stroke-width="2"/><path d="M6468.035-1438.376c.143-6.744-.549-18.347-.283-22.714.8-13.175.456-15.113-8.533-19.342a100.682,100.682,0,0,0-17.888-6.281" transform="translate(-6393.536 1524.711)" fill="none" stroke="#e78f62" stroke-linecap="round" stroke-linejoin="round" stroke-width="2"/><path d="M6450.133-1471.049c-1.411,8.281-.2,20.008-.557,27.408" transform="translate(-6392.558 1526.603)" fill="none" stroke="#e78f62" stroke-linecap="round" stroke-linejoin="round" stroke-width="2"/><path d="M6453.315-1414.242" transform="translate(-6392.087 1533.467)" fill="none" stroke="#e78f62" stroke-linecap="round" stroke-linejoin="round" stroke-width="2"/></g><path d="M6458.412-1403.439a15.768,15.768,0,0,1,4.13,8.568c.785,5.3-10.605,5.891-16.1,3.338-4.483-2.081-2.315-6.633,1.889-12.73,2.915-4.226,3.881-32.186,3.922-35.137" transform="translate(-6367.968 1530.427)" fill="none" stroke="#e78f62" stroke-linecap="round" stroke-linejoin="round" stroke-width="2"/><path d="M6468.519-1440.046c-.808-4.9-4.172-5.154-10.061-5.644s-8.59-2.03-9.649,1.176-.427,5.695,5.1,6.431S6469.01-1437.074,6468.519-1440.046Z" transform="translate(-6367.433 1529.57)" fill="none" stroke="#e78f62" stroke-linecap="round" stroke-linejoin="round" stroke-width="2"/><path d="M6462.854-1438.663c-3.124,13.464-4.667,22.628-4.823,27.372s.093,8.748.952,10.452" transform="translate(-6366.272 1530.516)" fill="none" stroke="#e78f62" stroke-linecap="round" stroke-linejoin="round" stroke-width="2"/><path d="M6385.852-1415.132c3.837-3.411,12.074-30.513,12.816-33.37" transform="translate(-6374.987 1529.327)" fill="none" stroke="#e78f62" stroke-linecap="round" stroke-linejoin="round" stroke-width="2"/><path d="M6411.719-1447.1c-6.239,12.335-11.667,20.172-12.947,24.741s-3.458,8.519-3.029,10.378" transform="translate(-6373.799 1529.497)" fill="none" stroke="#e78f62" stroke-linecap="round" stroke-linejoin="round" stroke-width="2"/><path d="M6389.433-1418.738c-10.879-.306-15.736,5.5-12.059,9.02s11.85,4.923,16.551,1.4,5.314-5.777,2.709-9.017" transform="translate(-6376.159 1532.922)" fill="none" stroke="#e78f62" stroke-linecap="round" stroke-linejoin="round" stroke-width="2"/><path d="M6415.633-1447.625c-.468,2.538-.6,3.284-2.4,2.162s-5.609-4.527-9.147-4.527-8.239,3.545-8.025,1.038.214-5.445,2.951-6.312,11.189-1.575,14.775,1.917" transform="translate(-6373.756 1528.425)" fill="none" stroke="#e78f62" stroke-linecap="round" stroke-linejoin="round" stroke-width="2"/></g><path d="M6773.654-1632.941a24.083,24.083,0,0,1-14.457-3.123" transform="translate(135.524 39.725)" fill="none" stroke="#666668" stroke-linecap="round" stroke-linejoin="round" stroke-width="3"/><path d="M6903.28-1649.528c-31.22-4.618-64.651-3.109-94.577,4.525" transform="translate(141.31 37.783)" fill="none" stroke="#666668" stroke-linecap="round" stroke-linejoin="round" stroke-width="2"/><path d="M7009.207-1744.968c-72.017-27.151-163.167-30.575-240.438-10.33" transform="translate(136.485 23.752)" fill="none" stroke="#666668" stroke-linecap="round" stroke-linejoin="round" stroke-width="2"/><path d="M7010.053-1653.186l67.892,39.2a9.557,9.557,0,0,0,14.244-6.929c3.761-26.832-5.362-54.109-27.393-78.479" transform="translate(165.64 32.073)" fill="none" stroke="#666668" stroke-linecap="round" stroke-linejoin="round" stroke-width="2"/><line x2="31.28" y2="18.06" transform="translate(7136.657 -1643.651)" stroke-width="3" stroke="#666668" stroke-linecap="round" stroke-linejoin="round" fill="none"/><path d="M6753.224-1699.328l6.694,3.865a23.819,23.819,0,0,0,22.088,1c40.442-19.18,94.525-23.851,141.406-14.008l.062-.008.137.05q5.689,1.2,11.227,2.684" transform="translate(134.607 30.373)" fill="none" stroke="#666668" stroke-linecap="round" stroke-linejoin="round" stroke-width="2"/><path d="M7007.6-1652.766l68.487,39.542a11.2,11.2,0,0,0,16.744-8.472q.183-1.7.294-3.4" transform="translate(165.343 37.707)" fill="none" stroke="#666668" stroke-linecap="round" stroke-linejoin="round" stroke-width="2"/><line x2="14.668" y2="8.469" transform="translate(7148.873 -1628.955)" stroke-width="3" stroke="#666668" stroke-linecap="round" stroke-linejoin="round" fill="none"/><path d="M6751.725-1693.479l4.094,2.364a33.565,33.565,0,0,0,30.342,1.652c39.967-17.65,92.072-21.714,137.434-12.19l.063-.007.137.05q3.792.8,7.519,1.725" transform="translate(134.427 31.196)" fill="none" stroke="#666668" stroke-linecap="round" stroke-linejoin="round" stroke-width="2"/><path d="M7014.663-1599.478l62.726,36.214a9.557,9.557,0,0,0,14.244-6.93,84.6,84.6,0,0,0,.824-11.961" transform="translate(166.196 44.144)" fill="none" stroke="#666668" stroke-linecap="round" stroke-linejoin="round" stroke-width="2"/><path d="M6804.538-1649.066c31.089-8.708,66.392-10.633,99.246-5.773" transform="translate(140.807 37.141)" fill="none" stroke="#666668" stroke-linecap="round" stroke-linejoin="round" stroke-width="2"/><path d="M6745.2-1649.456l15.685,9.056a23.858,23.858,0,0,0,21.021,1.472" transform="translate(133.833 38.107)" fill="none" stroke="#666668" stroke-linecap="round" stroke-linejoin="round" stroke-width="3"/><line y2="66.31" transform="translate(7258.652 -1597.988)" stroke-width="3" stroke="#666668" stroke-linecap="round" stroke-linejoin="round" fill="none"/><path d="M7092.1-1576.668a84.623,84.623,0,0,1-.819,11.533,9.566,9.566,0,0,1-14.252,6.977l-19.692-11.37-39.73-22.938" transform="translate(166.552 44.991)" fill="none" stroke="#666668" stroke-linecap="round" stroke-linejoin="round" stroke-width="2"/><line x1="16.678" y1="9.629" transform="translate(6878.052 -1605.969)" stroke-width="3" stroke="#666668" stroke-linecap="round" stroke-linejoin="round" fill="none"/><g transform="translate(7144.748 -1804.934)"><path d="M6985.55-1725.826l100.384,50.161a2.809,2.809,0,0,0,4.041-2.149l11.5-88.151a5.618,5.618,0,0,0-3.059-5.751l-100.385-50.16a2.808,2.808,0,0,0-4.041,2.15l-11.5,88.15A5.616,5.616,0,0,0,6985.55-1725.826Z" transform="translate(-6982.444 1822.175)" fill="none" stroke="#666668" stroke-linecap="round" stroke-linejoin="round" stroke-width="2"/><line x1="107.492" y1="53.711" transform="translate(1.364 80.499)" stroke-width="2" stroke="#666668" stroke-linecap="round" stroke-linejoin="round" fill="none"/><path d="M7036.431-1711.664l24.943,12.464-18.285,9.253a7.49,7.49,0,0,1-6.73.017l-18.243-9.116a1.872,1.872,0,0,1-.008-3.346Z" transform="translate(-6978.259 1835.529)" fill="none" stroke="#666668" stroke-linecap="round" stroke-linejoin="round" stroke-width="2"/></g><g transform="translate(7044.59 -1724.901)"><path d="M6901.422-1687.155a2.876,2.876,0,0,1,3.192-.2l4.749,2.743" transform="translate(-6892.077 1758.383)" fill="none" stroke="#666668" stroke-linecap="round" stroke-linejoin="round" stroke-width="2"/><path d="M6941.382-1665.968l8.189,4.729a14.464,14.464,0,0,1,7.234,12.529v36.739a2.859,2.859,0,0,1-1.172,2.327" transform="translate(-6887.247 1761.014)" fill="none" stroke="#666668" stroke-linecap="round" stroke-linejoin="round" stroke-width="2"/><line x1="45.673" y1="26.369" transform="translate(82.472 64.842)" stroke-width="2" stroke="#666668" stroke-linecap="round" stroke-linejoin="round" fill="none"/><path d="M6967.868-1698.548l16.506-9.529a2.894,2.894,0,0,1,2.893,0l65.877,38.033a1.448,1.448,0,0,1,0,2.506l-21.516,12.421a2.887,2.887,0,0,1-2.893,0l-10.144-5.856" transform="translate(-6884.047 1755.879)" fill="none" stroke="#666668" stroke-linecap="round" stroke-linejoin="round" stroke-width="2"/><path d="M7012.757-1664.038l9.667,5.582a4.667,4.667,0,0,0,4.668,0l20.628-11.91a1.433,1.433,0,0,0,.723-1.252v-1.467" transform="translate(-6878.624 1760.154)" fill="none" stroke="#666668" stroke-linecap="round" stroke-linejoin="round" stroke-width="2"/><line x2="43.123" y2="24.897" transform="translate(84.575 67.504)" stroke-width="2" stroke="#666668" stroke-linecap="round" stroke-linejoin="round" fill="none"/><path d="M6968.815-1747.826c6.215,3.861,15.242,10.6,11.487,17.673s-9.057,13.7-11.487,9.72-7.732,3.313-4.2,7.952,9.5,15.464,2.43,22.312-9.278,6.407-6.406,12.591-1.724,14.361-5.865,15.679-8.81,3.447-9.375,6.176c-10.826-5.459-14.441-1-26.68-9.094s-12.708-16.191-7.249-27.771,6.4-11.39,13.745-16.192,6.4-8.1,6.5-13.744.376-21.745,13.649-25.982S6965.066-1750.155,6968.815-1747.826Z" transform="translate(-6891.266 1750.767)" fill="none" stroke="#f1c354" stroke-linecap="round" stroke-linejoin="round" stroke-width="2"/><path d="M6972.512-1730.542c.275,4.616-3.192,8.629-3.283,10.454s1.578,6.465-6.1,15.366" transform="translate(-6884.621 1753.211)" fill="none" stroke="#f1c354" stroke-linecap="round" stroke-linejoin="round" stroke-width="2"/><path d="M6980.23-1645.532c7.268-5.151,8.462-15.9,8.462-16.923s-4.085-7.878-5.69-7.733,2.017,4.008-3.143,12.855-9.687,5.824-6.429,8.551S6978.838-1644.544,6980.23-1645.532Z" transform="translate(-6883.509 1760.503)" fill="none" stroke="#f1c354" stroke-linecap="round" stroke-linejoin="round" stroke-width="2"/><path d="M6974.54-1651.025c-5.711-1.6-9.3-4.12-11.281-7.148s-2.859-4.688-3.005-8.182" transform="translate(-6884.968 1760.967)" fill="none" stroke="#f1c354" stroke-linecap="round" stroke-linejoin="round" stroke-width="2"/><path d="M6961.579-1697.674c7.4,6.193,8.529,8.729,11.137,14.226s9.262,15.943,11.162,17.634" transform="translate(-6884.807 1757.183)" fill="none" stroke="#f1c354" stroke-linecap="round" stroke-linejoin="round" stroke-width="2"/><path d="M6986.708-1661.465c7.1,7.8,9.215,9.331,9.215,9.331" transform="translate(-6881.772 1761.558)" fill="none" stroke="#f1c354" stroke-linecap="round" stroke-linejoin="round" stroke-width="2"/><path d="M6995.341-1648.03c3.947-3.844,11.113-11.426,13.5-15.581s2.441-5.918,2.284-8.025-.562-15.87,6.535-11.6c5.754,3.458,6.97,6.549,3.379,11.994-3.93,5.958-3.2,5.62-4.917,10.147s-10.071,25.76-16.47,26.54-19.606-9.868-19.606-9.868" transform="translate(-6882.577 1758.828)" fill="none" stroke="#f1c354" stroke-linecap="round" stroke-linejoin="round" stroke-width="2"/><path d="M6962.617-1698.781c10.875.011,16.925-3.607,21.136-4.441s5.747.117,10.474,4.441,3.139,4.324,1.623,3.6-7.147-4.693-8.954-4.4-3.465,1.469-5.774,2.613,2.67,2.364,4.187,2.151,2.455,2.385.146,1.951-4.405-.505-9.314-.505-10.1.555-10.1.555" transform="translate(-6884.682 1756.479)" fill="none" stroke="#f1c354" stroke-linecap="round" stroke-linejoin="round" stroke-width="2"/><line x1="8.237" y2="4.94" transform="translate(60.147 151.368)" stroke-width="2" stroke="#666668" stroke-linecap="round" stroke-linejoin="round" fill="none"/><line x1="8.054" y2="4.81" transform="translate(1.291 71.228)" stroke-width="2" stroke="#666668" stroke-linecap="round" stroke-linejoin="round" fill="none"/><path d="M6905.123-1633.951l-.312.181c-6.505,3.756-7.212,9.438-1.578,12.691l47.621,27.432c5.634,3.253,15.477,2.845,21.982-.911l30.707-17.729c6.1-3.521,7.1-8.736,2.561-12.053" transform="translate(-6892.317 1764.882)" fill="none" stroke="#666668" stroke-linecap="round" stroke-linejoin="round" stroke-width="2"/><path d="M6899.469-1618.193c-.286,2.3.947,4.531,3.764,6.158l47.621,27.431c5.634,3.254,15.477,2.846,21.982-.911l30.707-17.728c3.585-2.07,5.409-4.724,5.383-7.236" transform="translate(-6892.318 1766.786)" fill="none" stroke="#666668" stroke-linecap="round" stroke-linejoin="round" stroke-width="2"/><line y1="10.69" transform="translate(116.608 145.618)" stroke-width="2" stroke="#666668" stroke-linecap="round" stroke-linejoin="round" fill="none"/><line y1="10.3" transform="translate(7.112 138.72)" stroke-width="2" stroke="#666668" stroke-linecap="round" stroke-linejoin="round" fill="none"/><path d="M6954.266-1579.424v10.093c0,1.678-2.352,3.037-5.256,3.037s-5.255-1.36-5.255-3.037v-10.093" transform="translate(-6886.962 1771.471)" fill="none" stroke="#666668" stroke-linecap="round" stroke-linejoin="round" stroke-width="2"/><ellipse cx="5.256" cy="3.037" rx="5.256" ry="3.037" transform="translate(56.792 189.01)" stroke-width="2" stroke="#666668" stroke-linecap="round" stroke-linejoin="round" fill="none"/><g transform="translate(60.126 183.257)"><path d="M6950.573-1586.388v7.1c0,.6-.861,1.087-1.923,1.087s-1.922-.488-1.922-1.087v-7.1c0-.361.309-.68.787-.878" transform="translate(-6946.728 1587.266)" fill="none" stroke="#666668" stroke-linecap="round" stroke-linejoin="round" stroke-width="2"/></g><path d="M7013.99-1570.713l-.351.045-45.451,5.816c-2.544.326-3.934,1.909-2.893,3.293l18.932,25.183c1.385,1.843-3.148,3.171-4.928,1.443l-24.319-23.6c-1.338-1.3-4.383-1.581-6.336-.591l-35.52,18.029c-2.6,1.319-6.214-.769-3.931-2.27l31.225-20.507c1.718-1.129,1.226-2.886-1.023-3.658l-40.885-14.041c-2.991-1.028-.691-3.645,2.5-2.845l43.616,10.93a6.415,6.415,0,0,0,4.762-.6" transform="translate(-6892.597 1770.849)" fill="none" stroke="#666668" stroke-linecap="round" stroke-linejoin="round" stroke-width="2"/><path d="M6955.441-1572.345l2.2-14.074-2.825,12.55c-.234,1.5,1.951,2.761,4.548,2.625l46.357-2.419" transform="translate(-6885.627 1770.625)" fill="none" stroke="#666668" stroke-linecap="round" stroke-linejoin="round" stroke-width="2"/><path d="M7009.015-1568.462c-.171.565-.851,1.076-2.12,1.239l-46.254,5.918a6.384,6.384,0,0,0-1.066.228" transform="translate(-6885.05 1772.796)" fill="none" stroke="#666668" stroke-linecap="round" stroke-linejoin="round" stroke-width="2"/><path d="M6983.261-1533.422c-.08,1.421-3.654,2.2-5.186.711l-24.318-23.6c-1.339-1.3-4.383-1.582-6.336-.591L6911.9-1538.88c-2.113,1.073-4.9-.1-4.64-1.389l-.017-5.1" transform="translate(-6891.373 1774.12)" fill="none" stroke="#666668" stroke-linecap="round" stroke-linejoin="round" stroke-width="2"/><path d="M6938.232-1562.621l-39.722-13.642c-1.122-.386-1.5-.994-1.364-1.562l-.026-5.256" transform="translate(-6892.597 1771.029)" fill="none" stroke="#666668" stroke-linecap="round" stroke-linejoin="round" stroke-width="2"/><line y2="5.524" transform="translate(91.887 235.174)" stroke-width="2" stroke="#666668" stroke-linecap="round" stroke-linejoin="round" fill="none"/><line y2="2.453" transform="translate(128.101 128.78)" stroke-width="2" stroke="#666668" stroke-linecap="round" stroke-linejoin="round" fill="none"/><line y2="2.453" transform="translate(78.695 149.943)" stroke-width="2" stroke="#666668" stroke-linecap="round" stroke-linejoin="round" fill="none"/><path d="M6908.77-1628.437c3.715,12.517,20.638,21.374,31.709,24.537s19.136,1.224,21.982-1.919,6.254-5.9,5.5-10.689-1.744-23.545,3.732-40.262" transform="translate(-6891.189 1762.125)" fill="none" stroke="#f1c354" stroke-linecap="round" stroke-linejoin="round" stroke-width="2"/><path d="M6984.964-1629.893l3.681-3.37" transform="translate(-6881.982 1764.966)" fill="none" stroke="#f1c354" stroke-linecap="round" stroke-linejoin="round" stroke-width="2"/><path d="M6909.054-1630.625c3.466,9.729,6.962,14.025,25.833,24.518s29.308,2.929,34.327-1.464c.739-.647,1.881-1.668,3.291-2.938" transform="translate(-6891.155 1765.284)" fill="none" stroke="#f1c354" stroke-linecap="round" stroke-linejoin="round" stroke-width="2"/><path d="M6977.218-1649.315c-6.123.059-15.549,8.994-15.549,8.994" transform="translate(-6884.797 1763.026)" fill="none" stroke="#f1c354" stroke-linecap="round" stroke-linejoin="round" stroke-width="2"/><path d="M6974.063-1648.16c-3.368-4.812-9.874-6.259-9.874-6.259" transform="translate(-6884.492 1762.409)" fill="none" stroke="#f1c354" stroke-linecap="round" stroke-linejoin="round" stroke-width="2"/><path d="M7003.128-1629.655c8.376,20.671,25.469,56.369,24.107,61.814s-5.122,10.015-12.015,9.849-10.552.81-15.287-15.166a216.571,216.571,0,0,0-9.964-27.179" transform="translate(-6881.377 1765.401)" fill="none" stroke="#f1c354" stroke-linecap="round" stroke-linejoin="round" stroke-width="2"/><path d="M6950.1-1602.453l-53.981-31.167a6.076,6.076,0,0,1-3.039-5.262v-41.583a2.893,2.893,0,0,1,4.339-2.506l53.983,31.167a6.076,6.076,0,0,1,3.037,5.261v41.584A2.893,2.893,0,0,1,6950.1-1602.453Z" transform="translate(-6893.084 1758.912)" fill="none" stroke="#666668" stroke-linecap="round" stroke-linejoin="round" stroke-width="2"/><path d="M7011.967-1634.177l-40.3,23.27a3.986,3.986,0,0,1-3.985,0l-3.648-2.106a1.468,1.468,0,0,1,0-2.544l40.3-23.269a3.983,3.983,0,0,1,3.986,0l3.648,2.106A1.468,1.468,0,0,1,7011.967-1634.177Z" transform="translate(-6884.6 1764.229)" fill="none" stroke="#666668" stroke-linecap="round" stroke-linejoin="round" stroke-width="2"/><path d="M7012.7-1633.682a1.457,1.457,0,0,1-.735,1.272l-40.3,23.268a3.987,3.987,0,0,1-3.985,0l-3.648-2.106a1.454,1.454,0,0,1-.735-1.272" transform="translate(-6884.6 1764.915)" fill="none" stroke="#666668" stroke-linecap="round" stroke-linejoin="round" stroke-width="2"/></g><g transform="translate(6814.91 -1837.935)"><path d="M6742.289-1610.207c-.588,3.9.28,4.328-2.687,5.605s-6.445,3.976-9.557,9.032-14.028,10.449-20.994,6.766-.5-10.464,3.955-14.361,6.04-6.008,8.052-7.57,4.674-3.7,4.674-3.7c-.549,2.406-1.018,4.824,4.285,4.667s8.86-2.187,10.386-5.131S6742.629-1612.463,6742.289-1610.207Z" transform="translate(-6685.809 1880.122)" fill="none" stroke="#edaf5a" stroke-linecap="round" stroke-linejoin="round" stroke-width="2"/><path d="M6760.011-1735.509c1.649,13.71,5.58,30.36,4.095,32.584s-13.838,10.313-25.91,6.622-10.586-15.339-6.726-49.814" transform="translate(-6683.066 1864.372)" fill="none" stroke="#edaf5a" stroke-linecap="round" stroke-linejoin="round" stroke-width="2"/><path d="M6757.52-1743.958c-1.9-4.174-23.16-12.209-30.677-15.668-.135,1.742-.777,4.842-4.087,8.527s-1.393,1.75-2.544-.4c0,0-2.527,2.78-.571,4.533s29.981,19.479,38.751,19.57,24.544-42,28.108-52.867-.439-10.453-5.078-16.008c-5.746-6.884-8.9-10.945-8.9-10.945" transform="translate(-6684.249 1856.989)" fill="none" stroke="#edaf5a" stroke-linecap="round" stroke-linejoin="round" stroke-width="2"/><path d="M6765.086-1788.841a51.569,51.569,0,0,0-3.533,8.987c-3.348,11.029-4.624,20-9.731,31.818" transform="translate(-6680.271 1859.209)" fill="none" stroke="#edaf5a" stroke-linecap="round" stroke-linejoin="round" stroke-width="2"/><path d="M6723.564-1753.3c-5.267-3.75-11.2-3.514-14.04-6.167s-2.975-11.967-4.479-15.656,2.71-5.889,4.415-1.192,5.695,12.088,8.037,11.727,2.169-3.336,1.835-5.892-6.235-8.659-4.538-9.976,6.887,3.493,8.511,7.087,2.264,3.7,1.894,7.086,3.093,5.129,3.093,5.129" transform="translate(-6685.962 1860.196)" fill="none" stroke="#edaf5a" stroke-linecap="round" stroke-linejoin="round" stroke-width="2"/><path d="M6751.465-1725.57c-5.365-.449-13.319.808-13.319.808.142-2.92,0-6.282,0-6.282" transform="translate(-6681.923 1866.193)" fill="none" stroke="#edaf5a" stroke-linecap="round" stroke-linejoin="round" stroke-width="2"/><path d="M6752.058-1787.855c2.195-.174,6.958,1.43,7.978-.1s10.64-18.594,10.64-18.594-1-2.12-3.475-6.259c-18.438,20.209-27.811,32.737-33.016,57.808" transform="translate(-6682.401 1856.314)" fill="none" stroke="#edaf5a" stroke-linecap="round" stroke-linejoin="round" stroke-width="2"/><path d="M6754.532-1790.354c1.813,3.678,2.945,5.184.512,7.359a65.868,65.868,0,0,0-19.329,26.017" transform="translate(-6682.216 1859.026)" fill="none" stroke="#edaf5a" stroke-linecap="round" stroke-linejoin="round" stroke-width="2"/><path d="M6765.349-1817.361c2.357-4.256,2.542-7.532-.135-6.162s-2.692,3.3-4.82,3.034-3.155-.059-2.337-4.393.669-8.563-1.809-8.762-6,1.521-12.59-.334-5.637-7.652-3.855-10.045,6.2-9.461,19.221-7.138,13.968,13.779,13.08,18.127A43.972,43.972,0,0,1,6765.349-1817.361Z" transform="translate(-6681.882 1851.623)" fill="none" stroke="#edaf5a" stroke-linecap="round" stroke-linejoin="round" stroke-width="2"/><path d="M6739.922-1838.01c-1.4,4.954-1.717,9.278-2.407,13.513-2.277,13.993-1.548,23.482,19.744,12.939" transform="translate(-6682.105 1853.268)" fill="none" stroke="#edaf5a" stroke-linecap="round" stroke-linejoin="round" stroke-width="2"/><path d="M6764.954-1821.055c-1.479,2.06-1.368,7.162-1.368,7.162s-6.175,7.138-12.846,9.973-8,2.2-8,2.2a12.008,12.008,0,0,1-.715-7.4" transform="translate(-6681.487 1855.317)" fill="none" stroke="#edaf5a" stroke-linecap="round" stroke-linejoin="round" stroke-width="2"/><path d="M6762.97-1811.514c.1-3.311-.428-3.4-1.737-3.142" transform="translate(-6679.133 1856.079)" fill="none" stroke="#edaf5a" stroke-linecap="round" stroke-linejoin="round" stroke-width="2"/><path d="M6732.008-1800.566c-2.413-3.666-3.841-3.459-2.737-4.515,1.146-1.1,8.8-9.289,8.8-9.289" transform="translate(-6683.041 1856.125)" fill="none" stroke="#edaf5a" stroke-linecap="round" stroke-linejoin="round" stroke-width="2"/><path d="M6741.109-1811.276c-8.63,13.212-15.842,29.89-18.1,46.106" transform="translate(-6683.751 1856.498)" fill="none" stroke="#edaf5a" stroke-linecap="round" stroke-linejoin="round" stroke-width="2"/><path d="M6731.714-1803.445c-3.736.985-4.367.439-4.736,3.366s-4.134,25.341-5.064,30.911" transform="translate(-6683.884 1857.445)" fill="none" stroke="#edaf5a" stroke-linecap="round" stroke-linejoin="round" stroke-width="2"/><path d="M6757.445-1700.809c-4.69,19.792-8.831,30.308-8.022,42.369s-5.711,37.548-8.462,49.16c-1.068,4.1-17.112,6.306-16.5,1.233,2.928-24.284,2.833-32.942,1.61-56.829-1.07-20.9-2.935-44.437-2.133-58.958" transform="translate(-6683.663 1867.064)" fill="none" stroke="#edaf5a" stroke-linecap="round" stroke-linejoin="round" stroke-width="2"/><path d="M6738.9-1607.2c-.507,3.815-.041,3.971-2.375,5.523s-4.152,2.878-5.193,2.651a6.258,6.258,0,0,1-1.875-.779" transform="translate(-6682.973 1881.158)" fill="none" stroke="#edaf5a" stroke-linecap="round" stroke-linejoin="round" stroke-width="2"/><line x1="1.108" y2="8.794" transform="translate(40.437 260.827)" stroke-width="2" stroke="#edaf5a" stroke-linecap="round" stroke-linejoin="round" fill="none"/><line x1="1.245" y2="6.693" transform="translate(53.407 260.204)" stroke-width="2" stroke="#edaf5a" stroke-linecap="round" stroke-linejoin="round" fill="none"/><path d="M6721.321-1752.768c-5.02,24.816-2.778,42.064-6.589,44.625s-9.831-4.278-9.748-8.75,3.331-8.2,7.312-21.487a204.883,204.883,0,0,0,5.293-20.861" transform="translate(-6685.93 1862.786)" fill="none" stroke="#edaf5a" stroke-linecap="round" stroke-linejoin="round" stroke-width="2"/><path d="M6728.279-1665.562c-12.114-13.076-16.323-15.258-20.969-15.843" transform="translate(-6685.649 1872.191)" fill="none" stroke="#edaf5a" stroke-linecap="round" stroke-linejoin="round" stroke-width="2"/><path d="M6712-1677.188c6.945-11.254,13.584-25.029,13.584-25.029" transform="translate(-6685.081 1869.676)" fill="none" stroke="#edaf5a" stroke-linecap="round" stroke-linejoin="round" stroke-width="2"/><path d="M6707.174-1719.266c-9.4,17.013-13.907,27.617-15.83,41.212s.416,11.779,5.35,14.511,11.867,6.351,18.046,10.928,14.2,12.978,14.2,12.978.584.965,1.929-1.261" transform="translate(-6687.659 1867.616)" fill="none" stroke="#edaf5a" stroke-linecap="round" stroke-linejoin="round" stroke-width="2"/><path d="M6725.955-1622.921c-5.305,1.788-7.925-.439-9.014-2.556-1.39-2.7.728-6.831,4.993-11.087a23.241,23.241,0,0,0,5.561-8.219" transform="translate(-6684.537 1876.616)" fill="none" stroke="#edaf5a" stroke-linecap="round" stroke-linejoin="round" stroke-width="2"/><path d="M6730.779-1730.606c-8.484-1.636-8.658-3.623-10.116-4.456a9.562,9.562,0,0,1-3.429-3.217" transform="translate(-6684.449 1865.319)" fill="none" stroke="#edaf5a" stroke-linecap="round" stroke-linejoin="round" stroke-width="2"/><path d="M6744.145-1803.568l2.515,2.4s-4.266,4.621-5.04,4.74-3.762-.365-4.06-1.379,1.26-5.644,1.89-6.348,3.411-.514,3.411-.514" transform="translate(-6681.998 1857.293)" fill="none" stroke="#edaf5a" stroke-linecap="round" stroke-linejoin="round" stroke-width="2"/><path d="M6742.46-1797.324s-8.557,11.271-11.887,38.74" transform="translate(-6682.838 1858.184)" fill="none" stroke="#edaf5a" stroke-linecap="round" stroke-linejoin="round" stroke-width="2"/><path d="M6740.212-1797.8c-9.043,16.173-12.288,22.067-16,37.372" transform="translate(-6683.607 1858.127)" fill="none" stroke="#edaf5a" stroke-linecap="round" stroke-linejoin="round" stroke-width="2"/><path d="M6729.708-1747.025c-.273,2.622.16,3.1-.8,3.967a34.3,34.3,0,0,1-5.27,3.841,1.132,1.132,0,0,1-1.531-.469c-1.527-2.878-2.391-4.461-2.02-6.529.409-2.275,1.156-6.13,1.156-6.13" transform="translate(-6684.115 1863.619)" fill="none" stroke="#edaf5a" stroke-linecap="round" stroke-linejoin="round" stroke-width="2"/><path d="M6724.6-1801.279c-3.515,5.261-4.546,20.965-4.937,27.52" transform="translate(-6684.157 1857.706)" fill="none" stroke="#edaf5a" stroke-linecap="round" stroke-linejoin="round" stroke-width="2"/><path d="M6740.2-1836.091l-9.782,11.747a2.839,2.839,0,0,0-.332,3.14l2.67,5.071a1.11,1.11,0,0,0,1.829.2l3.031-3.565" transform="translate(-6682.937 1853.5)" fill="none" stroke="#edaf5a" stroke-linecap="round" stroke-linejoin="round" stroke-width="2"/><path d="M6713.657-1798.362c11.849-12.328,14.425-15.221,15.068-18.036s-4.248-9.115-6.625-8.986-18.646,11.809-25.4,18.573-10.081,11.065-8.2,14.841,4.731,7.568,14.87,5.412,18.878-4.637,23.291-7.754" transform="translate(-6687.984 1854.794)" fill="none" stroke="#edaf5a" stroke-linecap="round" stroke-linejoin="round" stroke-width="2"/><path d="M6733.689-1818.041a24.291,24.291,0,0,0-9.981,2.57" transform="translate(-6683.667 1855.681)" fill="none" stroke="#edaf5a" stroke-linecap="round" stroke-linejoin="round" stroke-width="2"/><path d="M6736.958-1817.47a10.592,10.592,0,0,0-2.9-.55" transform="translate(-6682.417 1855.683)" fill="none" stroke="#edaf5a" stroke-linecap="round" stroke-linejoin="round" stroke-width="2"/><path d="M6724.476-1818.334c1.821-1.659,4.437-1.833,8.349-.852" transform="translate(-6683.575 1855.47)" fill="none" stroke="#edaf5a" stroke-linecap="round" stroke-linejoin="round" stroke-width="2"/><path d="M6739.005-1834.771c-7.529,1.317-9.025,1.789-11.329,4.8s-7.5,6.548-7.5,6.548" transform="translate(-6684.095 1853.66)" fill="none" stroke="#edaf5a" stroke-linecap="round" stroke-linejoin="round" stroke-width="2"/></g><g transform="translate(6855.306 -1615.733)"><path d="M6764.7-1599.311c-60.9,53.79-40.442,91.572-19.974,125.931s120.786,38.363,151.687-.8" transform="translate(-6724.205 1659.896)" fill="none" stroke="#666668" stroke-linecap="round" stroke-linejoin="round" stroke-width="2"/><path d="M6822.025-1493.306a66.489,66.489,0,0,0,15.831-2.743" transform="translate(-6712.386 1672.373)" fill="none" stroke="#666668" stroke-linecap="round" stroke-linejoin="round" stroke-width="2"/><path d="M6761.808-1576.074c-12.192,23.689-4.993,50.062,12.052,68.57" transform="translate(-6720.397 1662.704)" fill="none" stroke="#666668" stroke-linecap="round" stroke-linejoin="round" stroke-width="2"/><path d="M6853.947-1577.305l12.07-16.727a2.053,2.053,0,0,0-.63-2.974l-24.224-14.135a2.05,2.05,0,0,0-2.7.569l-17.912,24.755" transform="translate(-6712.563 1658.433)" fill="none" stroke="#666668" stroke-linecap="round" stroke-linejoin="round" stroke-width="2"/><path d="M6841.038-1566.855l-3.185,4.9a1.706,1.706,0,0,1-2.373.493l-3.364-2.223" transform="translate(-6711.166 1663.818)" fill="none" stroke="#666668" stroke-linecap="round" stroke-linejoin="round" stroke-width="2"/><g transform="translate(33.755)"><path d="M6804.625-1582.564c6.229,14.792,7.006,19.981,10.9,22.057s21-2.245,23.877-1.525,3.6-10.082,0-10.983-5.761-2.232-14.943,1.765" transform="translate(-6748.244 1661.92)" fill="none" stroke="#eeb658" stroke-linecap="round" stroke-linejoin="round" stroke-width="2"/><path d="M6809.933-1606.51c6.452,1.792,12.187,17.2,16.018,37.271" transform="translate(-6747.602 1659.026)" fill="none" stroke="#eeb658" stroke-linecap="round" stroke-linejoin="round" stroke-width="2"/><path d="M6777.8-1634.813c-.132-14.859,8.856-17.845,18.044-18.508,10.5-.757,16.719,8.645,16.719,8.645,1.972,2.958-.763,6.215-2.508,7.333a2.111,2.111,0,0,0-.989,1.654,17.069,17.069,0,0,1-.7,3.83.482.482,0,0,1-.9.059c-1.375-3.083-4.73-.152-4.46,3.5a7.486,7.486,0,0,0,.686,2.882,3.163,3.163,0,0,1-.333,3.528c-5.528,6.472-14.287,10.672-19.971,5.469" transform="translate(-6751.486 1653.365)" fill="none" stroke="#eeb658" stroke-linecap="round" stroke-linejoin="round" stroke-width="2"/><path d="M6784.7-1631.641c-7.934,3.471,3.06,12.89,5.033,20.316s-4.99,4.525-5.517,16.235c-.422,9.372-12.507,22.846-29.361,11.856a1.17,1.17,0,0,1,.416-2.13c4.291-.753,5.069-3.029,5.323-5.935.3-3.488,1.213-11.083,8.189-13.579s7.583-9.171,5.156-16.449-.678-17.37,10.277-15.282" transform="translate(-6754.321 1655.356)" fill="none" stroke="#eeb658" stroke-linecap="round" stroke-linejoin="round" stroke-width="2"/><path d="M6778.369-1630.458" transform="translate(-6751.416 1656.133)" fill="none" stroke="#eeb658" stroke-linecap="round" stroke-linejoin="round" stroke-width="2"/><path d="M6767.858-1582.014c9.02,11.978,24.409,11.046,33.114-6.83s11.665-16.95,14.044-16.68c2.3.261-5.495-12.387-13.578-8.346-6.8,3.4-13,15.237-18.89,15.6" transform="translate(-6752.685 1658.041)" fill="none" stroke="#eeb658" stroke-linecap="round" stroke-linejoin="round" stroke-width="2"/><path d="M6809.012-1639.621c2.4,5.842.362,31.782-15.914,22.59" transform="translate(-6749.636 1655.026)" fill="none" stroke="#eeb658" stroke-linecap="round" stroke-linejoin="round" stroke-width="2"/><path d="M6795.2-1618.561a35.422,35.422,0,0,0-2.382,9.591" transform="translate(-6749.67 1657.57)" fill="none" stroke="#eeb658" stroke-linecap="round" stroke-linejoin="round" stroke-width="2"/><path d="M6889.565-1485.3c6.3,4.935,20.505,7.731,21.935,3.193s-2.859-12.018-15.213-12.018-23.532-6.808-25.211,1.512,8.32,5.883,11.429,5.547S6886.455-1487.735,6889.565-1485.3Z" transform="translate(-6740.236 1672.289)" fill="none" stroke="#eeb658" stroke-linecap="round" stroke-linejoin="round" stroke-width="2"/><path d="M6908.553-1489.67c-14.782-10.461-18.515-14.7-21.945-10.965s-13.114-1.816-14.728,2.724a17.681,17.681,0,0,0-.955,8.241" transform="translate(-6740.248 1671.658)" fill="none" stroke="#eeb658" stroke-linecap="round" stroke-linejoin="round" stroke-width="2"/><path d="M6810.2-1580.383c.472,6.188-5.615,8.267-2.794,15.541s10.692,13.214,7.944,15.441-6.312,1.93-9.727,6.086-18.854,19.895-28.356,16.034-6.532-6.829-7.274-16.776,2.366-25.89-4.9-40.708" transform="translate(-6753.021 1661.654)" fill="none" stroke="#eeb658" stroke-linecap="round" stroke-linejoin="round" stroke-width="2"/><path d="M6867.459-1517.973a12.952,12.952,0,0,0,1.352,12.621c2.7,3.494,8.339,7.663,8.339,7.663,2.029-4.845,10.143-6.649,12.4-5.86-3.267-5.071-6.761-11.607-7.662-17.354s-5.072-6.423-13.185-8.9-40.2-14.3-50.107-14.769-12.36-6.745-12.36-6.745" transform="translate(-6748.049 1665.695)" fill="none" stroke="#eeb658" stroke-linecap="round" stroke-linejoin="round" stroke-width="2"/><path d="M6868.084-1518.876c-26.424,3.7-67.461,4.009-73.346-4.044" transform="translate(-6749.438 1669.126)" fill="none" stroke="#eeb658" stroke-linecap="round" stroke-linejoin="round" stroke-width="2"/><path d="M6778.4-1511.995c-4.312-4.719-6.265-12.093-3.481-21.987" transform="translate(-6751.988 1667.79)" fill="none" stroke="#eeb658" stroke-linecap="round" stroke-linejoin="round" stroke-width="2"/><path d="M6810.282-1518.043a23.865,23.865,0,0,1-12.543,9.209" transform="translate(-6749.076 1669.716)" fill="none" stroke="#eeb658" stroke-linecap="round" stroke-linejoin="round" stroke-width="2"/><path d="M6823.193-1543.445c-7.97-14.311-10.359-11.222-13.26-9.613" transform="translate(-6747.602 1665.311)" fill="none" stroke="#eeb658" stroke-linecap="round" stroke-linejoin="round" stroke-width="2"/><path d="M6878.913-1508.846a92.456,92.456,0,0,0,7.632,8.244" transform="translate(-6739.268 1670.827)" fill="none" stroke="#eeb658" stroke-linecap="round" stroke-linejoin="round" stroke-width="2"/><path d="M6870.014-1504.416a23.563,23.563,0,0,1,4.833,4.942" transform="translate(-6740.342 1671.362)" fill="none" stroke="#eeb658" stroke-linecap="round" stroke-linejoin="round" stroke-width="2"/><path d="M6873.834-1502.873c-.078,6.425-6.365,9.993-13.371,7.54s-13.088-5.443-18.961-4.516-7.833-1.468-7.833-4.083,1.649-6.222,8.862-3.542,14.942,1.236,18.961.618a23.712,23.712,0,0,1,7.742.2" transform="translate(-6744.733 1670.879)" fill="none" stroke="#eeb658" stroke-linecap="round" stroke-linejoin="round" stroke-width="2"/><path d="M6866.281-1508.694c-7.166.255-11.39-7.577-14.894-7.062s-2.062,4.74-5.977,4.637-5.667-4.534-8.759.309-2.929,6.924-2.929,6.924" transform="translate(-6744.728 1669.989)" fill="none" stroke="#eeb658" stroke-linecap="round" stroke-linejoin="round" stroke-width="2"/><path d="M6837.528-1517.259c-3.462,5.346-5.812,4.9-12.795.2" transform="translate(-6745.814 1669.811)" fill="none" stroke="#eeb658" stroke-linecap="round" stroke-linejoin="round" stroke-width="2"/><path d="M6849.148-1515.268a33.769,33.769,0,0,0-4.335-2.461" transform="translate(-6743.387 1669.754)" fill="none" stroke="#eeb658" stroke-linecap="round" stroke-linejoin="round" stroke-width="2"/><line x1="4.377" y1="2.439" transform="translate(90.602 154.486)" stroke-width="2" stroke="#eeb658" stroke-linecap="round" stroke-linejoin="round" fill="none"/><path d="M6820.094-1562.493c19.579,20.806,39.875,13.226,60.784,34.913,10.749,11.15,13.267,22.478,11.726,32.439" transform="translate(-6746.374 1664.345)" fill="none" stroke="#eeb658" stroke-linecap="round" stroke-linejoin="round" stroke-width="2"/><path d="M6837.867-1564.015c4.586-.262,13.272-10.178,13.976-15.092s-2.106,2.106-5.88,4.3-.614-2.72,1.4-4.826,1.316-3.247.351-3.774-3.948,5.617-5.879,6.318-4.633.922-4.3,7" transform="translate(-6744.271 1661.814)" fill="none" stroke="#eeb658" stroke-linecap="round" stroke-linejoin="round" stroke-width="2"/></g><path d="M6757.09-1514.38c36.074-3.582,64.526,9.026,78.87,31.44" transform="translate(-6720.232 1670.085)" fill="none" stroke="#666668" stroke-linecap="round" stroke-linejoin="round" stroke-width="2"/></g><line x1="3.466" transform="translate(6257.484 -1266.15)" stroke-width="2" stroke="#666668" stroke-linecap="round" stroke-linejoin="round" fill="none"/><path d="M6324.218-1273a161.126,161.126,0,0,1-28.867-12.9c-13.192-7.617-23.275-16.353-30.25-25.685" transform="translate(76.117 78.918)" fill="none" stroke="#666668" stroke-linecap="round" stroke-linejoin="round" stroke-width="3"/><path d="M6416.142-1269.39q-4.994.742-10.051,1.276" transform="translate(93.078 84.017)" fill="none" stroke="#666668" stroke-linecap="round" stroke-linejoin="round" stroke-width="3"/><path d="M6589.549-1341.462H6531.2a14.236,14.236,0,0,0-13.9,10.852c-4.147,17.52-17.917,34.456-41.3,47.956a152.515,152.515,0,0,1-14.681,7.423" transform="translate(99.676 75.308)" fill="none" stroke="#666668" stroke-linecap="round" stroke-linejoin="round" stroke-width="2"/><g transform="translate(6223.043 -1318.377)"><path d="M6495.1-1262.287c29.3-6.643,56.784-16.81,80.492-30.5,43.723-25.243,66.7-57.9,68.9-90.871a4.751,4.751,0,0,1,4.76-4.4h7.4a4.777,4.777,0,0,1,4.777,4.777v89.949c-.4,36.916-25.084,73.84-74.02,102.094-98.274,56.739-257.112,57.026-354.773.641-49.029-28.308-73.31-65.517-72.909-102.735v-89.949a4.777,4.777,0,0,1,4.777-4.777h7.3a4.753,4.753,0,0,1,4.767,4.5c1.544,33.215,24.18,66.1,67.956,91.37,55.56,32.077,132.334,44.5,204.587,37.313" transform="translate(-6159.724 1388.055)" fill="none" stroke="#666668" stroke-linecap="round" stroke-linejoin="round" stroke-width="2"/><path d="M6167.976-1362.9c8.778,28.408,31.173,55.519,67.21,77.456,95.709,58.261,251.37,57.964,347.681-.662,35.189-21.421,57.583-47.666,67.166-75.191" transform="translate(-6158.727 1391.095)" fill="none" stroke="#666668" stroke-linecap="round" stroke-linejoin="round" stroke-width="2"/></g><g transform="translate(6400.209 -1274.13)"><path d="M6361.5-1309.531c9.226,1.165,9.25-.562,11.633-4.042,4.656-6.8,11.666-20.265,6.2-27.206s-9.531-8.584-17.147-7.488-13.678,7.313-13.512,13.527,3.118,22.764,5.636,23.514A38.3,38.3,0,0,0,6361.5-1309.531Z" transform="translate(-6314.062 1348.578)" fill="none" stroke="#e78f62" stroke-linecap="round" stroke-linejoin="round" stroke-width="2"/><path d="M6348.908-1333.957c-1.115,12.4-1.527,21.8,2.2,22.345" transform="translate(-6314.127 1350.345)" fill="none" stroke="#e78f62" stroke-linecap="round" stroke-linejoin="round" stroke-width="2"/><path d="M6350.042-1304.7s-7.087.7-2.76,3.476,13.6.054,25.165-7.662c2.229,3.82,3.882,5.639,1.853,6.954-1.98,1.281-14.13,10.213-29.618,6.294a1.308,1.308,0,0,1-.966-1.543,22.258,22.258,0,0,1,2.369-6.182" transform="translate(-6314.664 1353.375)" fill="none" stroke="#e78f62" stroke-linecap="round" stroke-linejoin="round" stroke-width="2"/><path d="M6346.895-1300.563c3.657-2.421,3.907-5.882,3.485-13.763" transform="translate(-6314.276 1352.717)" fill="none" stroke="#e78f62" stroke-linecap="round" stroke-linejoin="round" stroke-width="2"/><path d="M6372.125-1319.239c-1.557,4.33-2.866,9.73-3.625,12.232" transform="translate(-6311.665 1352.124)" fill="none" stroke="#e78f62" stroke-linecap="round" stroke-linejoin="round" stroke-width="2"/><path d="M6428.178-1284.07c-8.475-1.635-26.011-14.766-32.657-16.462-2.792-1.657-8.281-2.786-13.91-1.244s-8.857-.465-9.933-1.6" transform="translate(-6311.281 1354.041)" fill="none" stroke="#e78f62" stroke-linecap="round" stroke-linejoin="round" stroke-width="2"/><path d="M6392.951-1300.838c1.339,2.163,1.11,7.617.728,9.153" transform="translate(-6308.711 1354.347)" fill="none" stroke="#e78f62" stroke-linecap="round" stroke-linejoin="round" stroke-width="2"/><path d="M6317.792-1271.253c.019-1.355.043-2.794.077-4.307.234-10.363,6.627-14.131,10.294-15.266s7.712-3.408,19.647-6.237" transform="translate(-6317.792 1354.803)" fill="none" stroke="#e78f62" stroke-linecap="round" stroke-linejoin="round" stroke-width="2"/><path d="M6418.438-1286.181a58.114,58.114,0,0,1,13.07,1,55.661,55.661,0,0,0,15.079.682c3.434-.117,6.983,3.069,5.747,11.281-.653,4.341-1.125,5.78-5.8,7.56-2.942,1.121-20.489-1.453-34.846-1.838" transform="translate(-6306.447 1356.112)" fill="none" stroke="#e78f62" stroke-linecap="round" stroke-linejoin="round" stroke-width="2"/><path d="M6445.978-1283.575a78.442,78.442,0,0,0,13.219.583c2.438-.194,5.2.849,10.613,4.886" transform="translate(-6302.304 1356.433)" fill="none" stroke="#e78f62" stroke-linecap="round" stroke-linejoin="round" stroke-width="2"/><path d="M6446.987-1269.887c3.552-.611,10.606-3.029,14.769-6.672,2.391-.694,6.5-1.929,7.683-2.3" transform="translate(-6302.182 1357.003)" fill="none" stroke="#e78f62" stroke-linecap="round" stroke-linejoin="round" stroke-width="2"/></g><g transform="translate(6186.75 -1614.379)"><path d="M6187.447-1539.166s22.662-21.21,23.173-26.147-6.127-33.869-7.829-39.825c-1.606-5.62-5.786-7.453-13.112-7.5a8.986,8.986,0,0,1-3.214-.594c-.166-.064-.317-.129-.439-.191-5.679,8.577-19.47,11.359-31.44,9.413-9.706,11.2-11.76,14.369-11.2,20.714s0,37.883-2.8,53.373c-.469,2.6-.994,4.952-1.528,7.077" transform="translate(-6125.784 1656.835)" fill="none" stroke="#e57b6a" stroke-linecap="round" stroke-linejoin="round" stroke-width="2"/><path d="M6193.445-1593.58c0,13.106-10.382,23.146-12.935,29.274s1.862,25.073,9.02,48.676c1.077,3.552-1.984,6.724-6.7,9.273" transform="translate(-6120.862 1659.233)" fill="none" stroke="#e57b6a" stroke-linecap="round" stroke-linejoin="round" stroke-width="2"/><path d="M6136.8-1496.37c.893,9.648,2.072,15.886,2.072,21.2,0,8.587,1.977,48.087,3.519,50.949,6.825,2.642,11.669,0,11.669,0a342.522,342.522,0,0,0,.665-61.518,64.567,64.567,0,0,1,.066-9.813" transform="translate(-6126.057 1670.979)" fill="none" stroke="#e57b6a" stroke-linecap="round" stroke-linejoin="round" stroke-width="2"/><path d="M6186.2-1518.269c6.758,29.672,9.181,41.779,9.526,49.736" transform="translate(-6120.087 1668.333)" fill="none" stroke="#e57b6a" stroke-linecap="round" stroke-linejoin="round" stroke-width="2"/><path d="M6168.317-1498.618c4.863,23.43,11.317,31.206,14.232,39.553,3.383,9.686,16.979,41.207,19.286,50.433,2.459,1.538,12.542.308,14.7-2.306-4.151-17.99-4.162-43.183-19.457-67.8" transform="translate(-6122.248 1670.707)" fill="none" stroke="#e57b6a" stroke-linecap="round" stroke-linejoin="round" stroke-width="2"/><path d="M6153.456-1647.028a2.919,2.919,0,0,0-.415,2.585c.779,2.684-.017,9.48,1.085,10.582,1.28,1.28,0,7.68,4.159,7.68s3.84,11.2,11.519,11.2,8.524.261,8.739-4.042,5.593-8.389,5.054-17.853-4.947-15.487-16.992-15.271C6158.5-1652,6154.923-1648.985,6153.456-1647.028Z" transform="translate(-6124.109 1652.155)" fill="none" stroke="#e57b6a" stroke-linecap="round" stroke-linejoin="round" stroke-width="2"/><path d="M6153.067-1643.473c-3.282,15.064-1.451,34.754,10.233,27.444" transform="translate(-6124.266 1653.204)" fill="none" stroke="#e57b6a" stroke-linecap="round" stroke-linejoin="round" stroke-width="2"/><path d="M6167.1-1537.869l4.738-.911a4.778,4.778,0,0,1,5.451,3.229l10.494,32.662a4.777,4.777,0,0,1-3.646,6.152l-18.414,3.542" transform="translate(-6122.562 1665.844)" fill="none" stroke="#e57b6a" stroke-linecap="round" stroke-linejoin="round" stroke-width="2"/><path d="M6156.692-1491.006l-13.3,2.559a4.777,4.777,0,0,1-5.451-3.23l-10.495-32.662a4.777,4.777,0,0,1,3.646-6.152l24.441-4.7" transform="translate(-6127.214 1666.288)" fill="none" stroke="#e57b6a" stroke-linecap="round" stroke-linejoin="round" stroke-width="2"/><path d="M6155.012-1509.828c-2.365,18.189-2.622,22.254,4.519,20.578s8.816-1.234,7.582-7.934a114.654,114.654,0,0,0-2.739-11.607" transform="translate(-6124.037 1669.353)" fill="none" stroke="#e57b6a" stroke-linecap="round" stroke-linejoin="round" stroke-width="2"/><path d="M6148.663-1558.826c5.033,10.545,5.033,57.06,5.033,57.06s4.074,3.337,11.266,2.139,4.314-3.356,4.553-10.546.24-46.5-7.669-75.5" transform="translate(-6124.623 1660.188)" fill="none" stroke="#e57b6a" stroke-linecap="round" stroke-linejoin="round" stroke-width="2"/><path d="M6187.669-1579.25a92.747,92.747,0,0,0,4.823,11.511" transform="translate(-6119.91 1660.964)" fill="none" stroke="#e57b6a" stroke-linecap="round" stroke-linejoin="round" stroke-width="2"/><path d="M6190.8-1574.115c-1.617,5.755-10.966,13.933-10.966,13.933" transform="translate(-6120.857 1661.585)" fill="none" stroke="#e57b6a" stroke-linecap="round" stroke-linejoin="round" stroke-width="2"/><path d="M6152.911-1603.635s2.825-4.167,10.832-6.539,11.862-3.559,15.717-5.783,4.891,2.91,4.891,2.91" transform="translate(-6124.109 1656.461)" fill="none" stroke="#e57b6a" stroke-linecap="round" stroke-linejoin="round" stroke-width="2"/><path d="M6159.667-1617.861a36.583,36.583,0,0,1,0,9.017" transform="translate(-6123.293 1656.299)" fill="none" stroke="#e57b6a" stroke-linecap="round" stroke-linejoin="round" stroke-width="2"/><path d="M6174.557-1619.433s.271,3.608,1.152,4.453" transform="translate(-6121.495 1656.109)" fill="none" stroke="#e57b6a" stroke-linecap="round" stroke-linejoin="round" stroke-width="2"/><path d="M6199.465-1407.752c-5.3,0-7.391,1.813-7.112,5.578s2.511,6.555,5.161,6.276,5.16-6.416,12.551-10.878,10.18-.837,8.646-5.578-2.214-6.416-5.081-3.766-9.283,3.626-10.817,3.347c1.254,3.626-4.323,3.766-6,8.228" transform="translate(-6119.347 1680.523)" fill="none" stroke="#e57b6a" stroke-linecap="round" stroke-linejoin="round" stroke-width="2"/><path d="M6205.591-1405.509s-.333,5.763,1.379,5.121,10.6-4.891,11.989-5.121c-.536-2.586-1.44-5.9-1.44-5.9" transform="translate(-6117.748 1681.244)" fill="none" stroke="#e57b6a" stroke-linecap="round" stroke-linejoin="round" stroke-width="2"/><line x2="2.227" y2="5.003" transform="translate(82.913 262.74)" stroke-width="2" stroke="#e57b6a" stroke-linecap="round" stroke-linejoin="round" fill="none"/><path d="M6156-1420.208c-8.664,1.625-15.7-2.166-15.522-6.858s3.092-5.889,2.19-6.25c-7.578-3.491-14.645-3.5-14.645,1.557s4.152,7.22,11.551,10.108-.306,7.331,10.066,8.927C6157.2-1411.56,6155.095-1416.958,6156-1420.208Z" transform="translate(-6127.118 1678.301)" fill="none" stroke="#e57b6a" stroke-linecap="round" stroke-linejoin="round" stroke-width="2"/><path d="M6151.4-1431.66s.663,7.95,0,10.769" transform="translate(-6124.292 1678.797)" fill="none" stroke="#e57b6a" stroke-linecap="round" stroke-linejoin="round" stroke-width="2"/><path d="M6142.775-1431.66c-.228,3.1.233,9.828.233,9.828" transform="translate(-6125.342 1678.797)" fill="none" stroke="#e57b6a" stroke-linecap="round" stroke-linejoin="round" stroke-width="2"/></g><g transform="translate(6004.632 -1746.307)"><g transform="translate(49.214 33.511)"><path d="M6107.883-1739.968c15.615,10.839,10.154,21.252,11.25,37.425,2.378,35.086,10.1,56.154-14.139,71.1s-46.055,24.642-62.64,18.638a96.668,96.668,0,0,1-14.459-6.338" transform="translate(-6006.217 1739.968)" fill="none" stroke="#666668" stroke-linecap="round" stroke-linejoin="round" stroke-width="2"/><path d="M6024.727-1668.071c5.883-5.562,12.864-9,19.245-12.085,7.611-3.673,11.281-12.632,15.473-24.438" transform="translate(-6006.6 1744.242)" fill="none" stroke="#666668" stroke-linecap="round" stroke-linejoin="round" stroke-width="2"/><path d="M6066.029-1627.558l-.547,76.376c-.02.911-3.776.923-3.813.012l-1.767-74.69" transform="translate(-6002.35 1753.551)" fill="none" stroke="#666668" stroke-linecap="round" stroke-linejoin="round" stroke-width="2"/><path d="M6089.587-1638.52l26.319,56c.673,1.4,3.982-.122,3.412-1.567l-23.742-57.986" transform="translate(-5998.762 1751.797)" fill="none" stroke="#666668" stroke-linecap="round" stroke-linejoin="round" stroke-width="2"/><path d="M6027.321-1632.5" transform="translate(-6006.286 1752.953)" fill="none" stroke="#666668" stroke-linecap="round" stroke-linejoin="round" stroke-width="2"/><path d="M6021.711-1604.2l-8.663,17.724c-1.014,2.021-5.262.606-4.373-1.473l9.1-20.649" transform="translate(-6008.554 1755.841)" fill="none" stroke="#666668" stroke-linecap="round" stroke-linejoin="round" stroke-width="2"/><line x1="1.943" y2="3.976" transform="translate(24.981 123.472)" stroke-width="2" stroke="#666668" stroke-linecap="round" stroke-linejoin="round" fill="none"/></g><path d="M6093.56-1724.541c11.038,8.584,15.268,15.675,12.509,28.246s-10.118,35.259-16.865,38.939-10.634,8.858-12.927,8.5-1.874-1.023-1.874-1.023,3.188-.5,3.356-1.343-1.427-11.411-6.8-10.824c1.678-2.182,8.475-5.706,16.027-9.062" transform="translate(-5951.798 1775.343)" fill="none" stroke="#e4716d" stroke-linecap="round" stroke-linejoin="round" stroke-width="2"/><path d="M6082.584-1746.549c.575,7.076,10.425,14.322,5.541,20.012s12.873.855,15.537-5.759-1.532-10.76-2.377-20.288-14.987-23.967-30.849-13.814-17.042,17.767-12.587,26.174c3.259,1.225,7.489,1.753,10.186-.243s-1.219-2.407,3.322-3.179S6075.906-1743.522,6082.584-1746.549Z" transform="translate(-5953.655 1769.866)" fill="none" stroke="#e4716d" stroke-linecap="round" stroke-linejoin="round" stroke-width="2"/><path d="M6062.453-1742.451c7.479,19.975,20.591,19.1,25.9,10.8" transform="translate(-5952.827 1773.179)" fill="none" stroke="#e4716d" stroke-linecap="round" stroke-linejoin="round" stroke-width="2"/><path d="M6062.5-1721.131c-.459,2.757-7.9,2.665-7.075,13.414s6.615,12.5,7.075,22.143-2.3,21.04-9.464,21.316c-.367,3.859,7.81,9.463,7.81,9.463" transform="translate(-5953.967 1775.755)" fill="none" stroke="#e4716d" stroke-linecap="round" stroke-linejoin="round" stroke-width="2"/><path d="M6091.881-1707.195c-4.043,7.167-7.534,34.454-7.534,34.454" transform="translate(-5950.181 1777.439)" fill="none" stroke="#e4716d" stroke-linecap="round" stroke-linejoin="round" stroke-width="2"/><path d="M6074.952-1668.779c-7.681,4.96-19.337,13.051-22.5,13.208s-17.532,1.15-13.917,4.855,7.681,5.512,11.386,3.163,2.8-1.988,8.495-2.62,19.977-6.438,19.977-6.438" transform="translate(-5955.787 1782.081)" fill="none" stroke="#e4716d" stroke-linecap="round" stroke-linejoin="round" stroke-width="2"/><path d="M6092.089-1666.506c1.844,10,2.528,10.456-1.954,12.756s-12.646,3.45-16.326,1.725a25.7,25.7,0,0,0-6.187-2.122" transform="translate(-5952.203 1782.356)" fill="none" stroke="#e4716d" stroke-linecap="round" stroke-linejoin="round" stroke-width="2"/><path d="M6097.609-1656.432c3.975,8.594,2.826,14.343-14.309,21.7s-43.808,6.555-43.808,6.555c-12.127-.629-14.261-2.405-14.261-2.405" transform="translate(-5957.324 1783.573)" fill="none" stroke="#e4716d" stroke-linecap="round" stroke-linejoin="round" stroke-width="2"/><path d="M6039.547-1627.323l-4.21-33.329a6.4,6.4,0,0,0-2.111-3.991l-34.257-30.235a1.044,1.044,0,0,0-1.722.944l5.388,34.711a5.957,5.957,0,0,0,1.93,3.536l33.093,29.361A1.141,1.141,0,0,0,6039.547-1627.323Z" transform="translate(-5960.708 1778.895)" fill="none" stroke="#e4716d" stroke-linecap="round" stroke-linejoin="round" stroke-width="2"/><line x1="7.471" y1="5.678" transform="translate(81.712 121.463)" stroke-width="2" stroke="#e4716d" stroke-linecap="round" stroke-linejoin="round" fill="none"/><path d="M6053.128-1651.282l13.53,10.283a1.2,1.2,0,0,1-.379,2.1l-28.561,8.636a4.013,4.013,0,0,1-3.829-.841l-.591-.523" transform="translate(-5956.35 1784.195)" fill="none" stroke="#e4716d" stroke-linecap="round" stroke-linejoin="round" stroke-width="2"/><path d="M6060.057-1742.715c3.26,7.517,6.284,10.65,4.259,13.47s.13,4.244,2.87,4,8.229-1.513,8.229-1.513c-7.563,10.512-.912,17.743,7.263,17.97s14.238-12.206,11.231-19.727" transform="translate(-5953.116 1773.147)" fill="none" stroke="#e4716d" stroke-linecap="round" stroke-linejoin="round" stroke-width="2"/><path d="M6064.459-1730.7c-5.375,6.987-5.6,9.445-5.59,13.542" transform="translate(-5953.261 1774.599)" fill="none" stroke="#e4716d" stroke-linecap="round" stroke-linejoin="round" stroke-width="2"/><path d="M6063.312-1686.637c-3.221,5.272-9.485,15.556-9.517,14.238s-1.352-7.515-7.152-7.647c2.24-3.954,3.559-6.547,8.833-10.722" transform="translate(-5954.738 1779.424)" fill="none" stroke="#e4716d" stroke-linecap="round" stroke-linejoin="round" stroke-width="2"/><path d="M6056.354-1704.49c-.331,7.776-3.33,16.772-3.33,16.772" transform="translate(-5953.967 1777.766)" fill="none" stroke="#e4716d" stroke-linecap="round" stroke-linejoin="round" stroke-width="2"/><path d="M6030.519-1665.166a27.129,27.129,0,0,1,8.335-2.673c3.275-3.711,9.736-13.363,9.736-13.363" transform="translate(-5956.686 1780.58)" fill="none" stroke="#e4716d" stroke-linecap="round" stroke-linejoin="round" stroke-width="2"/><path d="M6055.3-1675.809c-9.3,10.392-16.667,18.032-23.482,18.082" transform="translate(-5956.528 1781.231)" fill="none" stroke="#e4716d" stroke-linecap="round" stroke-linejoin="round" stroke-width="2"/><path d="M6032.025-1629.926c4.033,7.088,11.5,26.16,6.757,29.714s-7.463,8.529-16.7-.474-9.478-10.661-15.875-10.9-14.334-9.713-10.9-13.267,3.554-7.7,4.739-15.519,4.06-9.666,13.816-12.474" transform="translate(-5961.041 1784.006)" fill="none" stroke="#e4716d" stroke-linecap="round" stroke-linejoin="round" stroke-width="2"/><path d="M6008.388-1615.161c-12.188,13.48-26.01,36.774-26.01,36.774a2.27,2.27,0,0,1-.992,1.028c-1.748.862-4.831-1.011-4.978-2.97a2.236,2.236,0,0,1,.182-1.03l20.875-41.895" transform="translate(-5963.225 1787.582)" fill="none" stroke="#e4716d" stroke-linecap="round" stroke-linejoin="round" stroke-width="2"/><path d="M6035.807-1605.835q2.068,5.041,4.642,10.386a185.34,185.34,0,0,0,11.943,21.037c1.491,2.624-2.688,5.217-4.937,2.931a144.323,144.323,0,0,1-17.8-19.152,143.9,143.9,0,0,1-10.55-15.676" transform="translate(-5958.065 1789.629)" fill="none" stroke="#e4716d" stroke-linecap="round" stroke-linejoin="round" stroke-width="2"/><path d="M5984.731-1584.315c1.809,3.617.353,7.4-7.647,13.364s-15.843,7.23-10.9-1.985,9.623-13.781,12.442-14.044" transform="translate(-5964.645 1791.965)" fill="none" stroke="#e4716d" stroke-linecap="round" stroke-linejoin="round" stroke-width="2"/><path d="M6050.189-1577.851c4.584,3.178,8.194,4.153,7.413,6.689s-9.56,11.414-18.144,13.95,11.9-12.341,6.61-17.121" transform="translate(-5955.862 1793.068)" fill="none" stroke="#e4716d" stroke-linecap="round" stroke-linejoin="round" stroke-width="2"/></g><g transform="translate(5787.707 -1796.838)"><g transform="translate(132.216)"><g transform="translate(-5885.332 1814.95)" fill="none" stroke-linecap="round" stroke-linejoin="round"><path d="M5921.623-1788.149c6.22-.791,6.837,4.553,5.655,6.612s-2.8,1.929.309,3.811,14.117,3.6,20.19-8.378c7.938-15.651,3.443-24.807-7.638-27.856-10.021-2.757-20.239.186-21.766,9.606s4.277,7.326,3.764,11.766Z" stroke="none"/><path d="M 5933.4365234375 -1778.3896484375 C 5935.02001953125 -1778.3896484375 5937.4189453125 -1778.687255859375 5939.85595703125 -1780.105590820312 C 5942.3369140625 -1781.549560546875 5944.40185546875 -1783.872192382812 5945.99267578125 -1787.009033203125 C 5947.9853515625 -1790.938232421875 5949.20849609375 -1794.534301757812 5949.6279296875 -1797.697265625 C 5950.005859375 -1800.544189453125 5949.73046875 -1803.04248046875 5948.81005859375 -1805.123046875 C 5947.34716796875 -1808.43017578125 5944.2509765625 -1810.754760742188 5939.60791015625 -1812.0322265625 C 5937.39404296875 -1812.64111328125 5935.19482421875 -1812.949951171875 5933.0703125 -1812.949951171875 C 5929.6923828125 -1812.949951171875 5926.7373046875 -1812.166015625 5924.5244140625 -1810.682861328125 C 5922.216796875 -1809.13623046875 5920.81103515625 -1806.899536132812 5920.3466796875 -1804.034423828125 C 5920.00439453125 -1801.923950195312 5920.04345703125 -1800.3134765625 5920.462890625 -1799.247802734375 C 5920.77685546875 -1798.451049804688 5921.2744140625 -1798.007446289062 5921.90478515625 -1797.445678710938 C 5922.44677734375 -1796.963012695312 5923.060546875 -1796.415771484375 5923.5185546875 -1795.628540039062 C 5924.06982421875 -1794.679931640625 5924.267578125 -1793.6103515625 5924.123046875 -1792.358642578125 L 5923.86962890625 -1790.17041015625 C 5926.8251953125 -1789.836791992188 5928.25634765625 -1788.130859375 5928.8701171875 -1787.070678710938 C 5929.4560546875 -1786.05908203125 5929.76611328125 -1784.87109375 5929.767578125 -1783.635009765625 C 5929.76904296875 -1782.491455078125 5929.50048828125 -1781.392700195312 5929.01220703125 -1780.541870117188 C 5928.80078125 -1780.172973632812 5928.578125 -1779.857421875 5928.37109375 -1779.591064453125 C 5928.44775390625 -1779.543334960938 5928.53076171875 -1779.4921875 5928.62109375 -1779.437622070312 C 5929.2646484375 -1779.04833984375 5931.0029296875 -1778.3896484375 5933.4365234375 -1778.3896484375 M 5933.4365234375 -1776.3896484375 C 5930.85986328125 -1776.3896484375 5928.708984375 -1777.047119140625 5927.5859375 -1777.726318359375 C 5924.474609375 -1779.608032226562 5926.095703125 -1779.47705078125 5927.27734375 -1781.536987304688 C 5928.37890625 -1783.455932617188 5927.91845703125 -1788.22802734375 5922.8154296875 -1788.22802734375 C 5922.443359375 -1788.22802734375 5922.04541015625 -1788.20263671875 5921.62255859375 -1788.148803710938 L 5922.13623046875 -1792.588500976562 C 5922.64990234375 -1797.029174804688 5916.84423828125 -1794.935424804688 5918.37255859375 -1804.354736328125 C 5919.5361328125 -1811.533203125 5925.74560546875 -1814.949951171875 5933.0703125 -1814.949951171875 C 5935.35693359375 -1814.949951171875 5937.75390625 -1814.616455078125 5940.13818359375 -1813.960571289062 C 5951.2197265625 -1810.911865234375 5955.7138671875 -1801.755737304688 5947.7763671875 -1786.104370117188 C 5943.89501953125 -1778.451171875 5937.9990234375 -1776.3896484375 5933.4365234375 -1776.3896484375 Z" stroke="none" fill="#e3696f"/></g><path d="M5905.231-1706.554c.619-2.071,1.241-4.558,1.843-7.55,3.662-18.2,4.828-24.072,4.828-24.072" transform="translate(-5886.888 1824.226)" fill="none" stroke="#e3696f" stroke-linecap="round" stroke-linejoin="round" stroke-width="2"/><path d="M5956.81-1772.472c4.545,13.829-6.195,21.88-7.761,41.945s6.874,35.343.877,39.179-31.579,18.172-43.694,5.069c-6.814-7.37-7.341-4.738-5.458-6.2" transform="translate(-5887.54 1820.083)" fill="none" stroke="#e3696f" stroke-linecap="round" stroke-linejoin="round" stroke-width="2"/><path d="M5919.239-1799.2c-1.519,17.438-2.117,23.4,9.795,20.216" transform="translate(-5885.292 1816.853)" fill="none" stroke="#e3696f" stroke-linecap="round" stroke-linejoin="round" stroke-width="2"/><path d="M5938.876-1780.5c13.054-5.1,36.877,24.229,34.626,28.249s-11.053,24.047-28.664,38.368" transform="translate(-5882.822 1819.041)" fill="none" stroke="#e3696f" stroke-linecap="round" stroke-linejoin="round" stroke-width="2"/><path d="M5943.743-1732.572c9.838-17.153,8.792-19.051,15.2-22.976" transform="translate(-5882.234 1822.128)" fill="none" stroke="#e3696f" stroke-linecap="round" stroke-linejoin="round" stroke-width="2"/><path d="M5950.873-1760.819a7.7,7.7,0,0,0,4.3,7.993" transform="translate(-5881.377 1821.491)" fill="none" stroke="#e3696f" stroke-linecap="round" stroke-linejoin="round" stroke-width="2"/><path d="M5924.648-1753.734c-7.292,9.954-16.844,24.792-25.22,33.386" transform="translate(-5887.589 1822.347)" fill="none" stroke="#e3696f" stroke-linecap="round" stroke-linejoin="round" stroke-width="2"/><path d="M5904.884-1721.767c-2.951,3.651,2.54,18.138,2.468,23.024s-4.521,7.925-12.9,6.778c0,0-3-12.66-5.265-22.562s7.89-24.806,13.671-36.78,13.278-14.774,25.667-23.03c6.068,5.449,13.021,4.08,15.762.79a6.421,6.421,0,0,0,.628-7.013" transform="translate(-5888.865 1819.105)" fill="none" stroke="#e3696f" stroke-linecap="round" stroke-linejoin="round" stroke-width="2"/><path d="M5929.165-1612.287c1.264,9.463,2.272,18.083,2.11,20.469-.4,5.942,3.627,9.407,12.091,7.922s2.436-14.361,0-36.64c-2.879-26.333,9.371-55.274,1.016-78.468" transform="translate(-5883.996 1828.96)" fill="none" stroke="#e3696f" stroke-linecap="round" stroke-linejoin="round" stroke-width="2"/><path d="M5904.512-1673.16a95.222,95.222,0,0,1,2.144-21.54" transform="translate(-5886.976 1829.48)" fill="none" stroke="#e3696f" stroke-linecap="round" stroke-linejoin="round" stroke-width="2"/><path d="M5926.22-1609.864c.777,18.9,1.33,27.572-3.235,30a6.631,6.631,0,0,1-1.619.613" transform="translate(-5884.938 1839.73)" fill="none" stroke="#e3696f" stroke-linecap="round" stroke-linejoin="round" stroke-width="2"/><path d="M5925.771-1586.443c1.851,6.294,1.709,11.231-4.426,10.65" transform="translate(-5884.941 1842.561)" fill="none" stroke="#e3696f" stroke-linecap="round" stroke-linejoin="round" stroke-width="2"/><path d="M5946.124-1598.379c.9,4.779.31,7.656-5.031,6.728s-5.924-1.8-5.573-4.062" transform="translate(-5883.238 1841.118)" fill="none" stroke="#e3696f" stroke-linecap="round" stroke-linejoin="round" stroke-width="2"/><path d="M5935.018-1596.838c-4.743.772-7.248.486-8.911-2.18" transform="translate(-5884.365 1841.041)" fill="none" stroke="#e3696f" stroke-linecap="round" stroke-linejoin="round" stroke-width="2"/><path d="M5931.622-1605.422a11.187,11.187,0,0,0-5.785-1.052" transform="translate(-5884.398 1840.134)" fill="none" stroke="#e3696f" stroke-linecap="round" stroke-linejoin="round" stroke-width="2"/><path d="M5925.9-1781.9c1.781,3.3.4,8.94.4,8.94" transform="translate(-5884.39 1818.944)" fill="none" stroke="#e3696f" stroke-linecap="round" stroke-linejoin="round" stroke-width="2"/><path d="M5904.79-1703.949c5.439,2.323,9.24.79,8.85,2.97s-6.556,1.2-8.394.522-5.25.318-6.811-.522" transform="translate(-5887.709 1828.362)" fill="none" stroke="#e3696f" stroke-linecap="round" stroke-linejoin="round" stroke-width="2"/><path d="M5939.686-1783.079c-2.076,2.659-.528,8.454-.528,8.454" transform="translate(-5882.856 1818.801)" fill="none" stroke="#e3696f" stroke-linecap="round" stroke-linejoin="round" stroke-width="2"/></g><g transform="translate(0 143.61)"><g transform="translate(0 1.632)"><path d="M5874.886-1638.134c-4.646.527-7.313.965-10.046,3.608-5.2,5.026-21.663,27.382-19.063,34.661s5.892,18.023,17.331,18.369q.814-1.207,1.571-2.408" transform="translate(-5761.889 1691.073)" fill="none" stroke="#e26371" stroke-linecap="round" stroke-linejoin="round" stroke-width="2"/><path d="M5872.559-1644.13c-6.582-.758-6.894-8.51-4.864-27.758" transform="translate(-5759.34 1686.994)" fill="none" stroke="#e26371" stroke-linecap="round" stroke-linejoin="round" stroke-width="2"/><path d="M5863.325-1625.376c-9.43-14.669-13.042-17.077-24.328-8.951s-40.783,23.326-42.438,24.078a22.412,22.412,0,0,0,3.011,12.641c16.252-4.815,37.129-10.958,42.7-13.517" transform="translate(-5767.808 1690.976)" fill="none" stroke="#e26371" stroke-linecap="round" stroke-linejoin="round" stroke-width="2"/><path d="M5782.777-1609.8a23.162,23.162,0,0,0-3.48-8.413c-2.984-4.7-8.133.971-6.715,7.163s4.925,5.074,4.1,14.251,4.775,11.118,6.789,11.193,3.656-3.433,8.466-8.068c-7.2-1.093-5.884-11.031-2.614-15.392-4.135.105-7.344-.342-9.358-2.581" transform="translate(-5770.729 1693.271)" fill="none" stroke="#e26371" stroke-linecap="round" stroke-linejoin="round" stroke-width="2"/><path d="M5775.853-1619.752c-3.4.582-4.129,1.674-4.753,4.536s.208,7.754,2.914,11.917-.7,2.914-.636,9.471,3.654,10.617,7.61,10.617a4.752,4.752,0,0,0,4.759-3.515" transform="translate(-5770.903 1693.294)" fill="none" stroke="#e26371" stroke-linecap="round" stroke-linejoin="round" stroke-width="2"/><line x1="10.745" y2="3.436" transform="translate(17.971 81.719)" stroke-width="2" stroke="#e26371" stroke-linecap="round" stroke-linejoin="round" fill="none"/><line x1="11.208" y2="6.509" transform="translate(20.265 92.884)" stroke-width="2" stroke="#e26371" stroke-linecap="round" stroke-linejoin="round" fill="none"/><path d="M5846.815-1606.6c-11.741,18.439-14.12,24.979-9.164,28.248s13.946,2.015,13.946,2.015a32.379,32.379,0,0,0,12.8-6.144" transform="translate(-5763.132 1694.883)" fill="none" stroke="#e26371" stroke-linecap="round" stroke-linejoin="round" stroke-width="2"/><path d="M5837.8-1623.853c-1.325,11.481-.11,15.848,7.8,20.851" transform="translate(-5762.875 1692.798)" fill="none" stroke="#e26371" stroke-linecap="round" stroke-linejoin="round" stroke-width="2"/><path d="M5842.016-1597.183C5834.221-1612,5830-1611.438,5830-1611.438" transform="translate(-5763.762 1694.298)" fill="none" stroke="#e26371" stroke-linecap="round" stroke-linejoin="round" stroke-width="2"/><path d="M5815.741-1606.979c-3.112,15.454.393,24.266,14.448,42.892,12.835,17.01,15.019,18.568,20.42,20.9a10.478,10.478,0,0,0,9.755-.746" transform="translate(-5765.612 1694.837)" fill="none" stroke="#e26371" stroke-linecap="round" stroke-linejoin="round" stroke-width="2"/><path d="M5880.519-1657.655c.915-4.17.175-4.738-2.521-6.853-1-.787-2.36.292-2.613,1.324-.932,3.8-1.257,4.049-3.686,3.711s2.474-10.838-1.829-10.787-9.836-9.694,2.927-13.557c11.169-3.38,22.588-1.2,26.177,6.245a10.5,10.5,0,0,1,.635,8.883" transform="translate(-5759.545 1685.366)" fill="none" stroke="#e26371" stroke-linecap="round" stroke-linejoin="round" stroke-width="2"/><path d="M5855.768-1589.023a12.8,12.8,0,0,1-2.886,4.422" transform="translate(-5760.997 1697.007)" fill="none" stroke="#e26371" stroke-linecap="round" stroke-linejoin="round" stroke-width="2"/></g><g transform="translate(53.596)"><path d="M5905.82-1544.523l17.67-10.211a9.652,9.652,0,0,0,4.823-8.356v-5.1c0-37.354,18.465-54.274,18.465-106.725v-2.31a4.826,4.826,0,0,0-7.239-4.178l-52.571,30.384a9.65,9.65,0,0,0-4.822,8.356v5.1c0,52.452-18.466,69.372-18.466,106.724v2.311a4.826,4.826,0,0,0,7.241,4.177l25.537-14.758" transform="translate(-5813.288 1687.397)" fill="none" stroke="#666668" stroke-linecap="round" stroke-linejoin="round" stroke-width="2"/><path d="M5856.051-1562.225a108.367,108.367,0,0,0-.612,11.569v2.311a4.778,4.778,0,0,0,2.33,4.129" transform="translate(-5814.283 1701.877)" fill="none" stroke="#666668" stroke-linecap="round" stroke-linejoin="round" stroke-width="2"/><path d="M5935.77-1686.169a4.78,4.78,0,0,0-4.826,0l-52.572,30.383a9.651,9.651,0,0,0-4.821,8.356v5.1c0,40.105-10.073,59.172-15.154,82.75" transform="translate(-5813.927 1686.822)" fill="none" stroke="#666668" stroke-linecap="round" stroke-linejoin="round" stroke-width="2"/><line x1="9.843" y1="5.74" transform="translate(121.786 0.623)" stroke-width="2" stroke="#666668" stroke-linecap="round" stroke-linejoin="round" fill="none"/><line x1="9.302" y1="5.379" transform="translate(43.487 157.66)" stroke-width="2" stroke="#666668" stroke-linecap="round" stroke-linejoin="round" fill="none"/><path d="M5901.888-1542.813l-22.938,13.253a9.65,9.65,0,0,1-9.659,0l-46.226-26.716a2.9,2.9,0,0,0-4.344,2.507v.642a8.686,8.686,0,0,0,4.339,7.521l46.231,26.718a9.651,9.651,0,0,0,9.659,0l44.073-25.472,7.1-4.093a7.24,7.24,0,0,0,3.616-6.267v-8.333" transform="translate(-5818.721 1701.777)" fill="none" stroke="#666668" stroke-linecap="round" stroke-linejoin="round" stroke-width="2"/><path d="M5917.922-1567.917l4.173,2.412a3.377,3.377,0,0,1,0,5.849l-20.934,12.095" transform="translate(-5808.759 1701.189)" fill="none" stroke="#666668" stroke-linecap="round" stroke-linejoin="round" stroke-width="2"/><line y1="7.837" x2="13.561" transform="translate(1.448 137.662)" stroke-width="2" stroke="#666668" stroke-linecap="round" stroke-linejoin="round" fill="none"/><path d="M5826.875-1577.965a4.792,4.792,0,0,0-.512,2.179v15.3a14.477,14.477,0,0,0,7.232,12.533l27.352,15.871a4.825,4.825,0,0,0,7.239-4.177v-15.3a14.479,14.479,0,0,0-4.573-10.559" transform="translate(-5817.797 1699.975)" fill="none" stroke="#666668" stroke-linecap="round" stroke-linejoin="round" stroke-width="2"/><path d="M5916.115-1566.951a4.814,4.814,0,0,0,5.861-4.833v-4.131" transform="translate(-5806.952 1700.223)" fill="none" stroke="#666668" stroke-linecap="round" stroke-linejoin="round" stroke-width="2"/><path d="M5821.379-1582.886a3.348,3.348,0,0,0,1.687,2.966l33.593,19.414a5.787,5.787,0,0,0,5.795,0l4.167-2.407a1.436,1.436,0,0,0,.724-1.254v-3.86" transform="translate(-5818.399 1699.381)" fill="none" stroke="#666668" stroke-linecap="round" stroke-linejoin="round" stroke-width="2"/><path d="M5851.474-1578.088l15.146,9.681a1.448,1.448,0,0,1,0,2.507l-4.167,2.407a5.787,5.787,0,0,1-5.795,0l-33.593-19.414a3.378,3.378,0,0,1,0-5.849l.793-.458a6.76,6.76,0,0,1,6.761,0l6.265,3.62" transform="translate(-5818.399 1698.507)" fill="none" stroke="#666668" stroke-linecap="round" stroke-linejoin="round" stroke-width="2"/><line x1="0.027" y2="4.247" transform="translate(2.98 112.247)" stroke-width="2" stroke="#666668" stroke-linecap="round" stroke-linejoin="round" fill="none"/><g transform="translate(81.786 110.403)"><path d="M5902-1587.617a9.681,9.681,0,0,0-4.5,5.895,116.8,116.8,0,0,0-4.429,31.287v19.7a2.843,2.843,0,0,1-1.382,2.439h0l6.529-3.773,2.549-1.493a3.107,3.107,0,0,0,1.538-2.68v-14.2c0-12.862,2.188-23.3,5.059-33.6a3.376,3.376,0,0,0-4.945-3.821Z" transform="translate(-5891.689 1588.321)" fill="none" stroke="#666668" stroke-linecap="round" stroke-linejoin="round" stroke-width="2"/></g><path d="M5877.031-1516.964v8.866c0,1.474-2.067,2.668-4.618,2.668s-4.617-1.195-4.617-2.668v-8.866" transform="translate(-5812.791 1707.346)" fill="none" stroke="#666668" stroke-linecap="round" stroke-linejoin="round" stroke-width="2"/><ellipse cx="4.617" cy="2.668" rx="4.617" ry="2.668" transform="translate(55.007 187.714)" stroke-width="2" stroke="#666668" stroke-linecap="round" stroke-linejoin="round" fill="none"/><g transform="translate(57.935 182.477)"><path d="M5872.1-1515.871c-.933,0-1.688-.427-1.688-.954v-6.238c0-.528.756-.955,1.688-.955s1.689.427,1.689.955v6.238C5873.787-1516.3,5873.031-1515.871,5872.1-1515.871Z" transform="translate(-5870.41 1524.017)" fill="none" stroke="#666668" stroke-linecap="round" stroke-linejoin="round" stroke-width="2"/></g><line x1="1.927" y2="5.019" transform="translate(57.935 183.091)" stroke-width="2" stroke="#666668" stroke-linecap="round" stroke-linejoin="round" fill="none"/><path d="M5884.189-1510.189l2.017-12.882v-4.825l-2.565,16.39c-.207,1.317,1.713,2.424,3.995,2.306l41.48-2.164c3.035-.158,3.749,2.4.775,2.776l-40.631,5.2c-2.234.286-3.456,1.676-2.54,2.893l16.631,22.121c1.217,1.618-2.767,2.785-4.331,1.268l-21.362-20.735c-1.175-1.14-3.849-1.39-5.565-.519l-31.2,15.836c-2.284,1.159-5.46-.675-3.452-1.993l27.429-18.014c1.508-.991,1.077-2.535-.9-3.213l-35.913-12.334c-2.628-.9-.609-3.2,2.2-2.5l38.314,9.6a5.626,5.626,0,0,0,4.183-.529" transform="translate(-5817.74 1706.025)" fill="none" stroke="#666668" stroke-linecap="round" stroke-linejoin="round" stroke-width="2"/><path d="M5881.695-1500.848a5.532,5.532,0,0,1,.936-.2l40.631-5.2c1.115-.143,1.712-.592,1.862-1.088" transform="translate(-5811.111 1708.509)" fill="none" stroke="#666668" stroke-linecap="round" stroke-linejoin="round" stroke-width="2"/><path d="M5835.742-1482.568c-.226,1.128,2.22,2.161,4.074,1.219l31.2-15.835c1.716-.871,4.391-.622,5.565.518l21.362,20.735c1.347,1.307,4.486.624,4.557-.624" transform="translate(-5816.666 1709.673)" fill="none" stroke="#666668" stroke-linecap="round" stroke-linejoin="round" stroke-width="2"/><path d="M5826.855-1516.058c-.118.5.213,1.034,1.2,1.373l34.892,11.983" transform="translate(-5817.74 1707.455)" fill="none" stroke="#666668" stroke-linecap="round" stroke-linejoin="round" stroke-width="2"/><line y2="4.852" transform="translate(85.835 228.265)" stroke-width="2" stroke="#666668" stroke-linecap="round" stroke-linejoin="round" fill="none"/><line y2="4.765" transform="translate(114.051 196.297)" stroke-width="2" stroke="#666668" stroke-linecap="round" stroke-linejoin="round" fill="none"/><line y2="4.784" transform="translate(19.063 222.435)" stroke-width="2" stroke="#666668" stroke-linecap="round" stroke-linejoin="round" fill="none"/><line y1="4.515" transform="translate(9.109 186.919)" stroke-width="2" stroke="#666668" stroke-linecap="round" stroke-linejoin="round" fill="none"/></g></g></g><g transform="translate(6260.916 -1349.142)"><path d="M6256.322-1402.5a1.567,1.567,0,0,1-1.257,1.029c-2.726.346-7.4-2.783-6.805-.7.684,2.376.948,7.431-2.1,10.7s-2.486,8.292-3.622,8.3-1.826-.814-.343-5.225-3.132-6.111-6.119-3.386-8.178,11.438-12.307,10.343-4.616-1.7-4.478-4.765-1.875-16.838,3.657-23.017,10.816-7.066,17-5.781,13.2,5.708,14.988,8.919C6256.435-1403.41,6256.638-1403.372,6256.322-1402.5Z" transform="translate(-6190.338 1415.508)" fill="none" stroke="#e68268" stroke-linecap="round" stroke-linejoin="round" stroke-width="2"/><path d="M6230.2-1380.893c3.23,3.313,8.463,8.807,11.311,3.8,2.832-4.985,9.864-13.067,9.159-20.056s-2.382-6.944-2.382-6.944" transform="translate(-6188.99 1416.886)" fill="none" stroke="#e68268" stroke-linecap="round" stroke-linejoin="round" stroke-width="2"/><path d="M6302.52-1340.427l-21.545-22.884a5.732,5.732,0,0,1-.945-6.511L6295.4-1400.3a2.866,2.866,0,0,1,4.646-.674l22.524,23.923a5.731,5.731,0,0,1,.837,6.714l-16.3,29.332A2.866,2.866,0,0,1,6302.52-1340.427Z" transform="translate(-6183.044 1417.156)" fill="none" stroke="#e68268" stroke-linecap="round" stroke-linejoin="round" stroke-width="2"/><path d="M6218.559-1387.757c-.786.2-1.709.466-2.775.812-4.262,1.379-5.508,5.476,2.364,6.922s14.371,5.437,20.7,8.444,6.887,3.72,8.212,4.3,1.733,4.481,4.651,8.818c1.848,2.749,7.487,12.439,9.541,18.867" transform="translate(-6191.14 1418.861)" fill="none" stroke="#e68268" stroke-linecap="round" stroke-linejoin="round" stroke-width="2"/><path d="M6219.168-1383.75a7.963,7.963,0,0,1-1.638,3.242" transform="translate(-6190.522 1419.345)" fill="none" stroke="#e68268" stroke-linecap="round" stroke-linejoin="round" stroke-width="2"/><path d="M6248.463-1365.879c-.67-1-.987-.236-2.159.01s-4.092.682-8.74-1.75-8.714-3.21-15.185-1.838-10.993-1.838-11.857-4.543-.641-8.963.24-10.53,3.691-3.762,7.979-3.873" transform="translate(-6191.434 1418.783)" fill="none" stroke="#e68268" stroke-linecap="round" stroke-linejoin="round" stroke-width="2"/><path d="M6245-1359.487c3.134,2.9,3.539,3.486,4.651,5.438s1.679,2.859,1.684,4.468" transform="translate(-6187.203 1422.277)" fill="none" stroke="#e68268" stroke-linecap="round" stroke-linejoin="round" stroke-width="2"/><path d="M6210.728-1383.733c-3.478,6.275-5.44,8.724-2.865,15.954a21.348,21.348,0,0,0,8.577,10.64" transform="translate(-6191.833 1419.347)" fill="none" stroke="#e68268" stroke-linecap="round" stroke-linejoin="round" stroke-width="2"/><path d="M6275.853-1338.651c5.474-4.089,8.018-5.38,3.743-9.532s-8.442-1.368-11.409.395-5.282,3.265-3.712,6.819" transform="translate(-6184.911 1423.381)" fill="none" stroke="#e68268" stroke-linecap="round" stroke-linejoin="round" stroke-width="2"/><path d="M6234.495-1379.266a17.442,17.442,0,0,0-.75,5.421" transform="translate(-6188.563 1419.887)" fill="none" stroke="#e68268" stroke-linecap="round" stroke-linejoin="round" stroke-width="2"/><path d="M6241.343-1370c-3.872-5.487-5.889-8.773-5.889-8.773" transform="translate(-6188.355 1419.946)" fill="none" stroke="#e68268" stroke-linecap="round" stroke-linejoin="round" stroke-width="2"/><path d="M6226.73-1349.81c-.606,3.38,3.782,7.149,10.565,12.909,19.473,16.532,22.743,16.472,29.592,16.156s11.228-1.315,12.18-8.661l.953-7.347s2.155-5.9-4.051-7.157-6.7,2.307-7.177,3.755c-.693.606-.895,2.543-1.563,3.008s-.984.189-1.983-.355c.042-1.455-1.991-1.527-1.991-1.527a12.991,12.991,0,0,0-2.332-3.708c-1.805-2.151-2-.651-4.278-3.033.29-2.432-1.045-3.549-5.1-6.178" transform="translate(-6189.417 1423.188)" fill="none" stroke="#e68268" stroke-linecap="round" stroke-linejoin="round" stroke-width="2"/><path d="M6254.428-1348.813c6.926-2.854,9.632-8.588,4.847-10.258s-9.48-2.233-10.2.2" transform="translate(-6186.71 1422.153)" fill="none" stroke="#e68268" stroke-linecap="round" stroke-linejoin="round" stroke-width="2"/><path d="M6251.458-1360.165a19.28,19.28,0,0,1-4.58-2.4" transform="translate(-6186.975 1421.904)" fill="none" stroke="#e68268" stroke-linecap="round" stroke-linejoin="round" stroke-width="2"/><path d="M6277.33-1332.8l27.951-6.672a2.866,2.866,0,0,0,1.421-4.752l-21.415-22.744a5.735,5.735,0,0,0-5.3-1.691l-33.111,6.632" transform="translate(-6186.975 1421.155)" fill="none" stroke="#e68268" stroke-linecap="round" stroke-linejoin="round" stroke-width="2"/><path d="M6207.905-1374.429c-7.725,15.22-14.938,34.29-14.448,39.472" transform="translate(-6193.434 1420.471)" fill="none" stroke="#e68268" stroke-linecap="round" stroke-linejoin="round" stroke-width="2"/><path d="M6237.069-1338.523c-5.462,16.532,5.382,25.156-8.524,34.177" transform="translate(-6189.191 1424.81)" fill="none" stroke="#e68268" stroke-linecap="round" stroke-linejoin="round" stroke-width="2"/><line x2="9.036" y2="9.597" transform="translate(69.572 72.456)" stroke-width="2" stroke="#e68268" stroke-linecap="round" stroke-linejoin="round" fill="none"/><path d="M6242.088-1296.354a61.123,61.123,0,0,0,33.444-22.885" transform="translate(-6187.555 1427.14)" fill="none" stroke="#e68268" stroke-linecap="round" stroke-linejoin="round" stroke-width="2"/><path d="M6240.708-1319.93c2.752-3.615,11.124-7.41,11.124-7.41" transform="translate(-6187.722 1426.161)" fill="none" stroke="#e68268" stroke-linecap="round" stroke-linejoin="round" stroke-width="2"/></g><g transform="translate(5631.824 -1964.907)"><path d="M5913.879-1764.843a7.9,7.9,0,0,1,5.286.79h0c1.976,1.141,2.19,2.866.48,3.855l-279.512,160.68a7.413,7.413,0,0,1-6.674-.277h0c-1.975-1.14-2.19-2.866-.479-3.853l6.5-3.753" transform="translate(-5631.824 1989.062)" fill="none" stroke="#666668" stroke-linecap="round" stroke-linejoin="round" stroke-width="2"/><path d="M5919.645-1960.11l-279.512,160.681a7.416,7.416,0,0,1-6.674-.277h0c-1.975-1.14-2.19-2.866-.479-3.853l6.5-3.752L5912.49-1964.24a4.786,4.786,0,0,1,1.389-.514,7.9,7.9,0,0,1,5.286.79h0C5921.141-1962.822,5921.355-1961.1,5919.645-1960.11Z" transform="translate(-5631.824 1964.907)" fill="none" stroke="#666668" stroke-linecap="round" stroke-linejoin="round" stroke-width="3"/><path d="M5913.054-1957.657v219.122l-274.4,157.731V-1800" transform="translate(-5630.999 1965.783)" fill="none" stroke="#666668" stroke-linecap="round" stroke-linejoin="round" stroke-width="2"/><path d="M5674.871-1684.917l-17.007,9.819c-1.711.988-3.113-.071-3.113-2.353v-40.639a7.483,7.483,0,0,1,3.113-5.946l17.007-9.818c1.711-.989,3.111.071,3.111,2.353v40.638A7.479,7.479,0,0,1,5674.871-1684.917Z" transform="translate(-5629.053 1992.78)" fill="#666668"/><path d="M5700.3-1694l-13.475,7.78c-2.684,1.549-4.877-.111-4.877-3.688v-88.68c0-3.578,2.194-7.772,4.877-9.321l13.475-7.78c2.682-1.549,4.877.111,4.877,3.687v88.68C5705.181-1699.744,5702.985-1695.55,5700.3-1694Z" transform="translate(-5625.768 1985.283)" fill="#666668"/><path d="M5727.631-1710.445l-13.732,7.928c-2.613,1.509-4.75-.108-4.75-3.591v-82.773c0-3.484,2.137-7.567,4.75-9.075l13.732-7.928c2.61-1.509,4.748.108,4.748,3.59v82.774C5732.379-1716.037,5730.242-1711.954,5727.631-1710.445Z" transform="translate(-5622.481 1984.053)" fill="#666668"/><path d="M5754.149-1722.024l-12.373,7.143c-2.986,1.724-5.429-.123-5.429-4.1v-115.894c0-3.981,2.443-8.648,5.429-10.372l12.373-7.144c2.986-1.724,5.43.123,5.43,4.1V-1732.4C5759.579-1728.416,5757.136-1723.748,5754.149-1722.024Z" transform="translate(-5619.195 1978.424)" fill="#666668"/><path d="M5783.327-1746.345l-16.332,9.43c-1.9,1.1-3.449-.078-3.449-2.608v-50.928c0-2.53,1.553-5.5,3.449-6.59l16.332-9.43c1.9-1.1,3.449.077,3.449,2.607v50.929C5786.776-1750.406,5785.224-1747.44,5783.327-1746.345Z" transform="translate(-5615.909 1984.001)" fill="#666668"/><path d="M5808.955-1755.97l-13.189,7.615c-2.762,1.6-5.021-.113-5.021-3.8v-95.424c0-3.681,2.259-8,5.021-9.592l13.189-7.615c2.761-1.594,5.021.113,5.021,3.8v95.424C5813.976-1761.88,5811.716-1757.564,5808.955-1755.97Z" transform="translate(-5612.623 1976.933)" fill="#666668"/><path d="M5836.59-1774.193l-14.064,8.12c-2.521,1.455-4.583-.1-4.583-3.464v-75.354c0-3.36,2.063-7.3,4.583-8.756l14.064-8.121c2.521-1.455,4.583.1,4.583,3.465v75.352C5841.173-1779.589,5839.111-1775.649,5836.59-1774.193Z" transform="translate(-5609.335 1977.303)" fill="#666668"/><path d="M5864.642-1794.206l-15.769,9.1c-2.052,1.185-3.731-.085-3.731-2.82v-41.82c0-2.736,1.679-5.944,3.731-7.129l15.769-9.1c2.052-1.185,3.73.084,3.73,2.82v41.82C5868.372-1798.6,5866.694-1795.391,5864.642-1794.206Z" transform="translate(-5606.049 1979.224)" fill="#666668"/><path d="M5736.287-1704.231l-78.869,45.534c-1.473.851-2.667-.052-2.667-2.015h0a6.386,6.386,0,0,1,2.667-5.094l78.869-45.534c1.471-.851,2.665.052,2.665,2.015h0A6.39,6.39,0,0,1,5736.287-1704.231Z" transform="translate(-5629.053 1995.507)" fill="#666668"/><path d="M5817.882-1751.34l-78.868,45.534c-1.472.851-2.666-.052-2.666-2.015h0a6.388,6.388,0,0,1,2.666-5.094l78.868-45.534c1.473-.851,2.667.052,2.667,2.015h0A6.386,6.386,0,0,1,5817.882-1751.34Z" transform="translate(-5619.195 1989.814)" fill="#666668"/><path d="M5868.992-1782.746l-48.384,27.933c-1.472.851-2.666-.052-2.666-2.015h0a6.386,6.386,0,0,1,2.666-5.094l48.384-27.934c1.473-.85,2.666.053,2.666,2.016h0A6.385,6.385,0,0,1,5868.992-1782.746Z" transform="translate(-5609.335 1986.02)" fill="#666668"/><path d="M5776.265-1657.381v-38.692l-5.332,3.079v35.614" transform="translate(-5615.016 1997.39)" fill="none" stroke="#666668" stroke-linecap="round" stroke-linejoin="round" stroke-width="2"/><line x2="16.795" y2="0.315" transform="translate(166.565 340.343)" stroke-width="2" stroke="#666668" stroke-linecap="round" stroke-linejoin="round" fill="none"/><line x1="6.954" y1="25.941" transform="translate(160.133 345.977)" stroke-width="2" stroke="#666668" stroke-linecap="round" stroke-linejoin="round" fill="none"/><line x1="24.573" y2="6.841" transform="translate(126.199 342.368)" stroke-width="2" stroke="#666668" stroke-linecap="round" stroke-linejoin="round" fill="none"/><path d="M5776.8-1664.141a10.085,10.085,0,0,1,3,1.095c3.126,1.806,3.144,4.723.035,6.518a12.479,12.479,0,0,1-11.289-.021c-3.126-1.805-3.143-4.724-.035-6.517a9.9,9.9,0,0,1,3-1.086" transform="translate(-5615.588 2001.247)" fill="none" stroke="#666668" stroke-linecap="round" stroke-linejoin="round" stroke-width="2"/><path d="M5770.934-1661.515a1.365,1.365,0,0,0,.784,1.043,4.172,4.172,0,0,0,3.772.007,1.314,1.314,0,0,0,.775-1.087" transform="translate(-5615.016 2001.561)" fill="none" stroke="#666668" stroke-linecap="round" stroke-linejoin="round" stroke-width="2"/><ellipse cx="2.363" cy="4.092" rx="2.363" ry="4.092" transform="translate(163.401 375.096) rotate(-89.689)" stroke-width="3" stroke="#666668" stroke-linecap="round" stroke-linejoin="round" fill="none"/><ellipse cx="2.363" cy="4.092" rx="2.363" ry="4.092" transform="translate(179.916 343.26) rotate(-89.689)" stroke-width="2" stroke="#666668" stroke-linecap="round" stroke-linejoin="round" fill="none"/><ellipse cx="2.363" cy="4.092" rx="2.363" ry="4.092" transform="translate(122.094 351.549) rotate(-89.689)" stroke-width="2" stroke="#666668" stroke-linecap="round" stroke-linejoin="round" fill="none"/></g><rect width="1920" height="1080" transform="translate(5515.824 -2039.907)" fill="none"/></g></svg>