<svg xmlns="http://www.w3.org/2000/svg" viewBox="0 0 271 546"><g transform="translate(-60.5 -63.916)"><g transform="translate(61 64.416)"><path d="M3918.268-1512.94H3721.393a36.541,36.541,0,0,0-36.562,36.521v471.958a36.542,36.542,0,0,0,36.563,36.521h196.875a36.542,36.542,0,0,0,36.562-36.521v-471.958A36.541,36.541,0,0,0,3918.268-1512.94Zm19.688,508.479a19.676,19.676,0,0,1-19.687,19.665H3721.393a19.676,19.676,0,0,1-19.687-19.665v-471.958a19.676,19.676,0,0,1,19.688-19.665h27.563a3.373,3.373,0,0,1,3.375,3.371v2.247a14.055,14.055,0,0,0,14.062,14.047h106.875a14.056,14.056,0,0,0,14.063-14.047v-2.247a3.373,3.373,0,0,1,3.375-3.371h27.563a19.676,19.676,0,0,1,19.688,19.665Z" transform="translate(-3684.83 1512.94)" fill="none" stroke="#ae3e72" stroke-miterlimit="10" stroke-width="1"/></g></g></svg>
