<svg xmlns="http://www.w3.org/2000/svg" width="375" height="650" viewBox="0 0 375 650"><g transform="translate(2 -95)"><rect width="375" height="650" transform="translate(-2 95)" fill="none"/><path d="M263.634,628.6,366.97,646.314a3.131,3.131,0,0,0,3.66-3.086v-12.47a3.131,3.131,0,0,0-2.692-3.1l-11.349-1.607a1.878,1.878,0,0,1-1.615-1.86V607.065a1.879,1.879,0,0,1,1.615-1.861l11.349-1.606a3.131,3.131,0,0,0,2.692-3.1V588.028a3.131,3.131,0,0,0-3.66-3.087L263.634,602.656a3.131,3.131,0,0,0-2.6,3.087v19.771A3.132,3.132,0,0,0,263.634,628.6Zm70.409-5.74-51.092-6.612a.626.626,0,0,1,0-1.24l51.092-6.612a1.878,1.878,0,0,1,2.142,1.86V621A1.879,1.879,0,0,1,334.043,622.86Z" transform="translate(-8.631 0.488)" fill="#38383a" opacity="0.35"/><path d="M301.74,535.749V555.79a1.88,1.88,0,0,1-1.879,1.879H281.7a1.879,1.879,0,0,1-1.879-1.879V525.876a3.131,3.131,0,0,0-2.617-3.089L264.678,520.7a3.131,3.131,0,0,0-3.646,3.089v49.538a3.131,3.131,0,0,0,3.131,3.131H367.5a3.131,3.131,0,0,0,3.131-3.131V535.749a21.92,21.92,0,0,0-21.92-21.92H323.659A21.92,21.92,0,0,0,301.74,535.749Zm46.97-3.131a3.131,3.131,0,0,1,3.132,3.131V555.79a1.88,1.88,0,0,1-1.879,1.879H322.407a1.879,1.879,0,0,1-1.879-1.879V535.749a3.131,3.131,0,0,1,3.131-3.131Z" transform="translate(-8.631 0.077)" fill="#38383a" opacity="0.35"/><path d="M176.888,688.837v20.114A1.886,1.886,0,0,1,175,710.838H156.774a1.886,1.886,0,0,1-1.886-1.887V678.928a3.143,3.143,0,0,0-2.627-3.1l-12.571-2.1a3.143,3.143,0,0,0-3.66,3.1v49.718a3.143,3.143,0,0,0,3.143,3.143H242.889a3.143,3.143,0,0,0,3.142-3.143V688.837a22,22,0,0,0-22-22H198.888A22,22,0,0,0,176.888,688.837Zm47.143-3.143a3.143,3.143,0,0,1,3.143,3.143v20.114a1.887,1.887,0,0,1-1.886,1.887H197.631a1.886,1.886,0,0,1-1.886-1.887V688.837a3.143,3.143,0,0,1,3.142-3.143Z" transform="translate(-5.031 0.306)" fill="#38383a" opacity="0.35"/><path d="M298.608,199.4H282.951a21.92,21.92,0,0,0-21.919,21.92V255.76a3.131,3.131,0,0,0,3.131,3.132H367.5a3.132,3.132,0,0,0,3.131-3.132V218.184a21.919,21.919,0,0,0-21.92-21.92H323.659a21.829,21.829,0,0,0-14.743,5.714A21.773,21.773,0,0,0,298.608,199.4ZM279.82,238.224V221.315a3.131,3.131,0,0,1,3.131-3.131h15.657a3.132,3.132,0,0,1,3.132,3.131v16.909a1.879,1.879,0,0,1-1.879,1.879H281.7A1.878,1.878,0,0,1,279.82,238.224Zm68.89-23.172a3.132,3.132,0,0,1,3.132,3.132v20.04a1.879,1.879,0,0,1-1.879,1.879H322.407a1.878,1.878,0,0,1-1.879-1.879v-20.04a3.132,3.132,0,0,1,3.131-3.132Z" transform="translate(-8.631 -1.761)" fill="#38383a" opacity="0.35"/><path d="M173.745,559.168H158.031a22,22,0,0,0-22,22v6.285a22,22,0,0,0,22,22h.481a3.142,3.142,0,0,0,3.1-2.626l2.1-12.572a3.143,3.143,0,0,0-3.1-3.659h-2.576a3.143,3.143,0,0,1-3.142-3.143v-6.285a3.143,3.143,0,0,1,3.142-3.143h15.714a3.142,3.142,0,0,1,3.142,3.143v6.285h0a3.143,3.143,0,0,0,3.143,3.143H192.6a3.143,3.143,0,0,0,3.143-3.143h0v-6.285a6.286,6.286,0,0,1,6.286-6.286h18.857a6.286,6.286,0,0,1,6.286,6.286v6.285a6.286,6.286,0,0,1-6.286,6.286h-6.766a3.143,3.143,0,0,0-3.1,2.627l-2.095,12.571a3.143,3.143,0,0,0,3.1,3.66h8.861a25.143,25.143,0,0,0,25.143-25.144v-6.285a25.142,25.142,0,0,0-25.143-25.143H202.032a25.037,25.037,0,0,0-16.755,6.416A21.868,21.868,0,0,0,173.745,559.168Z" transform="translate(-5.031 -0.743)" fill="#38383a" opacity="0.35"/><path d="M176.888,661.022h66a3.143,3.143,0,0,0,3.142-3.142V620.165a3.143,3.143,0,0,0-3.142-3.142H230.317a3.143,3.143,0,0,0-3.142,3.142V640.28a1.886,1.886,0,0,1-1.886,1.886H197.631a1.885,1.885,0,0,1-1.886-1.886v-7.543a3.142,3.142,0,0,0-3.143-3.142H180.031a3.142,3.142,0,0,0-3.143,3.142v7.543A1.885,1.885,0,0,1,175,642.166H156.774a1.885,1.885,0,0,1-1.886-1.886V622.828a3.143,3.143,0,0,0-2.627-3.1l-12.571-2.1a3.143,3.143,0,0,0-3.66,3.1V657.88a3.143,3.143,0,0,0,3.143,3.142Z" transform="translate(-5.031 -0.166)" fill="#38383a" opacity="0.35"/><path d="M308,344.58v15.03a1.878,1.878,0,0,1-1.879,1.879h-41.96a3.131,3.131,0,0,0-3.131,3.132v12.525a3.131,3.131,0,0,0,3.131,3.132H367.5a3.132,3.132,0,0,0,3.131-3.132V364.621a3.132,3.132,0,0,0-3.131-3.132H328.67a1.878,1.878,0,0,1-1.879-1.879V344.58a1.878,1.878,0,0,1,1.879-1.879H367.5a3.131,3.131,0,0,0,3.131-3.131V327.044a3.131,3.131,0,0,0-3.131-3.131H264.163a3.131,3.131,0,0,0-3.131,3.131V339.57a3.131,3.131,0,0,0,3.131,3.131h41.96A1.878,1.878,0,0,1,308,344.58Z" transform="translate(-8.631 -1.022)" fill="#38383a" opacity="0.35"/><path d="M261.032,288.194v6.364a23.461,23.461,0,0,0,23.435,23.435h62.728a23.461,23.461,0,0,0,23.436-23.435v-6.364a23.461,23.461,0,0,0-23.436-23.435H284.467A23.461,23.461,0,0,0,261.032,288.194Zm86.163-4.647a4.709,4.709,0,0,1,4.648,4.647v6.364a4.71,4.71,0,0,1-4.648,4.647H284.467a4.709,4.709,0,0,1-4.647-4.647v-6.364a4.708,4.708,0,0,1,4.647-4.647Z" transform="translate(-8.631 -1.364)" fill="#38383a" opacity="0.35"/><path d="M261.032,409.616v6.364a23.461,23.461,0,0,0,23.435,23.435h62.728a23.461,23.461,0,0,0,23.436-23.435v-6.364a23.461,23.461,0,0,0-23.436-23.435H284.467A23.461,23.461,0,0,0,261.032,409.616Zm86.163-4.647a4.709,4.709,0,0,1,4.648,4.647v6.364a4.71,4.71,0,0,1-4.648,4.647H284.467a4.709,4.709,0,0,1-4.647-4.647v-6.364a4.708,4.708,0,0,1,4.647-4.647Z" transform="translate(-8.631 -0.662)" fill="#38383a" opacity="0.35"/><path d="M12.612,432.756l103.714,17.779a3.143,3.143,0,0,0,3.674-3.1V434.923a3.142,3.142,0,0,0-2.7-3.112l-11.39-1.612a1.886,1.886,0,0,1-1.621-1.867V411.141a1.886,1.886,0,0,1,1.621-1.867l11.39-1.612a3.142,3.142,0,0,0,2.7-3.112V392.035a3.143,3.143,0,0,0-3.674-3.1L12.612,406.717a3.143,3.143,0,0,0-2.612,3.1v19.843A3.143,3.143,0,0,0,12.612,432.756Zm70.666-5.761L32,420.359a.629.629,0,0,1,0-1.245l51.278-6.636a1.885,1.885,0,0,1,2.15,1.867v10.783A1.885,1.885,0,0,1,83.278,426.995Z" fill="#38383a" opacity="0.35"/><path d="M47.714,670.286H32a22,22,0,0,0-22,22v34.571A3.143,3.143,0,0,0,13.143,730H116.857A3.143,3.143,0,0,0,120,726.857V689.143a22,22,0,0,0-22-22H72.857a21.915,21.915,0,0,0-14.8,5.734A21.869,21.869,0,0,0,47.714,670.286ZM28.857,709.257V692.286A3.143,3.143,0,0,1,32,689.143H47.714a3.143,3.143,0,0,1,3.143,3.143v16.971a1.885,1.885,0,0,1-1.886,1.886H30.743A1.885,1.885,0,0,1,28.857,709.257ZM98,686a3.143,3.143,0,0,1,3.143,3.143v20.114a1.886,1.886,0,0,1-1.886,1.886H71.6a1.885,1.885,0,0,1-1.886-1.886V689.143A3.143,3.143,0,0,1,72.857,686Z" fill="#38383a" opacity="0.35"/><path d="M10,469.606V507.32a3.143,3.143,0,0,0,3.143,3.143H116.857A3.143,3.143,0,0,0,120,507.32V494.749a3.143,3.143,0,0,0-3.143-3.143H77.886A1.885,1.885,0,0,1,76,489.72V469.606a22,22,0,0,0-22-22H32A22,22,0,0,0,10,469.606Zm44-3.143a3.143,3.143,0,0,1,3.143,3.143V489.72a1.885,1.885,0,0,1-1.886,1.886H30.743a1.885,1.885,0,0,1-1.886-1.886V469.606A3.143,3.143,0,0,1,32,466.463Z" fill="#38383a" opacity="0.35"/><path d="M50.857,596.725h66A3.143,3.143,0,0,0,120,593.582V555.387a3.144,3.144,0,0,0-2.626-3.1L104.8,550.192a3.143,3.143,0,0,0-3.659,3.1v22.69a1.887,1.887,0,0,1-1.886,1.886H71.6a1.886,1.886,0,0,1-1.886-1.886v-7.543a3.143,3.143,0,0,0-3.143-3.143H54a3.143,3.143,0,0,0-3.143,3.143v7.543a1.886,1.886,0,0,1-1.886,1.886H30.743a1.886,1.886,0,0,1-1.886-1.886V552.725a3.143,3.143,0,0,0-3.143-3.143H13.143A3.143,3.143,0,0,0,10,552.725v40.857a3.143,3.143,0,0,0,3.143,3.143Z" fill="#38383a" opacity="0.35"/><path d="M11.653,191.131,46.511,209.9a1.886,1.886,0,0,1-.894,3.546H13.143A3.143,3.143,0,0,0,10,216.586v12.571a3.143,3.143,0,0,0,3.143,3.143H116.857A3.143,3.143,0,0,0,120,229.157V216.586a3.143,3.143,0,0,0-3.143-3.143h-27.3a6.3,6.3,0,0,1-3.092-.812l-7.028-3.97a1.885,1.885,0,0,1,.273-3.41L117.948,191.1A3.145,3.145,0,0,0,120,188.156v-14a3.144,3.144,0,0,0-4.352-2.9l-58.1,24.208a1.885,1.885,0,0,1-1.653-.1l-41.21-23.274A3.143,3.143,0,0,0,10,174.828v13.535A3.144,3.144,0,0,0,11.653,191.131Z" fill="#38383a" opacity="0.35"/><path d="M10,318.73V322a3.143,3.143,0,0,0,2.483,3.073L79.7,339.5a1.258,1.258,0,0,1,0,2.459L12.483,356.383A3.143,3.143,0,0,0,10,359.456v18.988a3.143,3.143,0,0,0,3.143,3.143H116.857A3.143,3.143,0,0,0,120,378.444V365.872a3.143,3.143,0,0,0-3.143-3.143H72.57a.628.628,0,0,1-.13-1.243l45.068-9.549A3.143,3.143,0,0,0,120,348.862V332.6a3.143,3.143,0,0,0-2.492-3.075L72.44,319.973a.628.628,0,0,1,.13-1.243h44.287A3.143,3.143,0,0,0,120,315.587V303.015a3.143,3.143,0,0,0-3.143-3.143H13.143A3.143,3.143,0,0,0,10,303.015V318.73Z" fill="#38383a" opacity="0.35"/><path d="M57.143,624.561v15.085a1.885,1.885,0,0,1-1.886,1.886H13.143A3.143,3.143,0,0,0,10,644.675v12.571a3.143,3.143,0,0,0,3.143,3.143H116.857A3.143,3.143,0,0,0,120,657.246V644.675a3.143,3.143,0,0,0-3.143-3.143H77.886A1.885,1.885,0,0,1,76,639.646V624.561a1.885,1.885,0,0,1,1.886-1.886h38.971A3.143,3.143,0,0,0,120,619.532V606.961a3.143,3.143,0,0,0-3.143-3.143H13.143A3.143,3.143,0,0,0,10,606.961v12.571a3.143,3.143,0,0,0,3.143,3.143H55.257A1.885,1.885,0,0,1,57.143,624.561Z" fill="#38383a" opacity="0.35"/><path d="M10,262.872v6.386a23.547,23.547,0,0,0,23.521,23.521H96.479A23.547,23.547,0,0,0,120,269.258v-6.386a23.547,23.547,0,0,0-23.521-23.521H33.521A23.547,23.547,0,0,0,10,262.872Zm86.479-4.664a4.726,4.726,0,0,1,4.664,4.664v6.386a4.726,4.726,0,0,1-4.664,4.664H33.521a4.726,4.726,0,0,1-4.664-4.664v-6.386a4.726,4.726,0,0,1,4.664-4.664Z" fill="#38383a" opacity="0.35"/><path d="M350.81,668.4v8.767a1.878,1.878,0,0,1-1.879,1.879h-85.8A3.132,3.132,0,0,0,260,682.178V694.7a3.131,3.131,0,0,0,3.131,3.131h85.8a1.879,1.879,0,0,1,1.879,1.879v8.768a1.878,1.878,0,0,1-1.879,1.879h-85.8A3.131,3.131,0,0,0,260,713.491v12.526a3.131,3.131,0,0,0,3.131,3.131H366.467a3.132,3.132,0,0,0,3.132-3.131V650.864a3.132,3.132,0,0,0-3.132-3.132H263.131A3.132,3.132,0,0,0,260,650.864v12.525a3.132,3.132,0,0,0,3.131,3.132h85.8A1.878,1.878,0,0,1,350.81,668.4Z" transform="translate(-7.599 0.852)" fill="#38383a" opacity="0.35"/><path d="M260.633,498.851a3.131,3.131,0,0,0,2.929,3.124l103.336,6.7a3.132,3.132,0,0,0,3.334-3.125v-12.5a3.132,3.132,0,0,0-2.945-3.126l-86.1-5.142a1.879,1.879,0,0,1-1.766-1.876V466.927a1.878,1.878,0,0,1,1.879-1.879h85.8a3.132,3.132,0,0,0,3.132-3.131V449.391a3.132,3.132,0,0,0-3.132-3.131H263.765a3.132,3.132,0,0,0-3.132,3.131v49.46Z" transform="translate(-8.633 -0.314)" fill="#38383a" opacity="0.35"/></g></svg>