<svg xmlns="http://www.w3.org/2000/svg" width="148" height="33" viewBox="0 0 148 33"><g transform="translate(-2824 -592)"><path d="M7.608,0h-1V-7.116H1.932V0h-1V-8H7.608ZM12.3.144a2.291,2.291,0,0,1-1.956-1.02V2.208h-.9v-8h.9v.864a2.4,2.4,0,0,1,.84-.732A2.33,2.33,0,0,1,12.3-5.94a2.354,2.354,0,0,1,1.866.822A3.259,3.259,0,0,1,14.88-2.9a3.283,3.283,0,0,1-.714,2.22A2.346,2.346,0,0,1,12.3.144Zm-.228-.8a1.646,1.646,0,0,0,1.356-.63,2.5,2.5,0,0,0,.5-1.614,2.478,2.478,0,0,0-.5-1.608,1.653,1.653,0,0,0-1.356-.624,2.038,2.038,0,0,0-1,.27,1.94,1.94,0,0,0-.726.654V-1.6a1.9,1.9,0,0,0,.726.666A2.038,2.038,0,0,0,12.072-.66Zm8.844-.072A2.643,2.643,0,0,1,18.84.144a2.662,2.662,0,0,1-2.082-.876A3.133,3.133,0,0,1,15.972-2.9a3.111,3.111,0,0,1,.786-2.166,2.67,2.67,0,0,1,2.082-.87,2.67,2.67,0,0,1,2.082.87A3.111,3.111,0,0,1,21.708-2.9,3.119,3.119,0,0,1,20.916-.732Zm-3.492-.576A1.732,1.732,0,0,0,18.84-.66a1.693,1.693,0,0,0,1.4-.654A2.488,2.488,0,0,0,20.76-2.9a2.463,2.463,0,0,0-.516-1.584,1.7,1.7,0,0,0-1.4-.648,1.709,1.709,0,0,0-1.41.654A2.451,2.451,0,0,0,16.908-2.9,2.513,2.513,0,0,0,17.424-1.308ZM22.488.144V-.6q.408,0,.672-.54a6.37,6.37,0,0,0,.432-1.8L23.964-5.8H28V0h-.9V-5h-2.34l-.264,2.172A5.262,5.262,0,0,1,23.82-.546,1.534,1.534,0,0,1,22.488.144ZM34.4-.732a2.643,2.643,0,0,1-2.076.876,2.662,2.662,0,0,1-2.082-.876A3.133,3.133,0,0,1,29.46-2.9a3.111,3.111,0,0,1,.786-2.166,2.67,2.67,0,0,1,2.082-.87,2.67,2.67,0,0,1,2.082.87A3.111,3.111,0,0,1,35.2-2.9,3.119,3.119,0,0,1,34.4-.732Zm-3.492-.576a1.732,1.732,0,0,0,1.416.648,1.693,1.693,0,0,0,1.4-.654,2.488,2.488,0,0,0,.516-1.59,2.463,2.463,0,0,0-.516-1.584,1.7,1.7,0,0,0-1.4-.648,1.709,1.709,0,0,0-1.41.654A2.451,2.451,0,0,0,30.4-2.9,2.513,2.513,0,0,0,30.912-1.308ZM36.636,0H35.484l2.58-3.168L35.5-5.8h1.14l2.5,2.556V-5.8h.9v2.544l2.5-2.544h1.14l-2.58,2.628L43.68,0H42.528L40.44-2.6l-.408.408V0h-.9V-2.2L38.724-2.6Zm8.976,0h-.864V-5.8h.9v4.428L48.684-5.8h.888V0h-.9V-4.512Zm7.716,0h-.9V-5h-1.68V-5.8H55.02V-5H53.328ZM56.2-5.8h.9v2.244h2.172a1.756,1.756,0,0,1,1.344.51,1.776,1.776,0,0,1,.48,1.266A1.764,1.764,0,0,1,60.606-.51,1.76,1.76,0,0,1,59.268,0H56.2ZM59.172-2.76H57.1V-.792h2.076a.973.973,0,0,0,.738-.27.99.99,0,0,0,.258-.714.99.99,0,0,0-.258-.714A.973.973,0,0,0,59.172-2.76ZM71.472,0h-.9V-4.548L68.688,0h-.336l-1.9-4.548V0h-.9V-5.8h1.188L68.52-1.5l1.752-4.3h1.2ZM77.8,0h-.9V-.66a2.474,2.474,0,0,1-1.92.8A2.132,2.132,0,0,1,73.56-.372a1.74,1.74,0,0,1-.612-1.4,1.722,1.722,0,0,1,.606-1.41,2.171,2.171,0,0,1,1.422-.5,2.4,2.4,0,0,1,1.92.792V-3.936a1.085,1.085,0,0,0-.408-.9,1.647,1.647,0,0,0-1.056-.324,2.363,2.363,0,0,0-1.776.8l-.42-.624a3.081,3.081,0,0,1,2.316-.96,2.583,2.583,0,0,1,1.62.48A1.745,1.745,0,0,1,77.8-3.984ZM75.3-.5a1.831,1.831,0,0,0,1.6-.72V-2.316a1.831,1.831,0,0,0-1.6-.72,1.5,1.5,0,0,0-1.026.354,1.166,1.166,0,0,0-.4.918,1.153,1.153,0,0,0,.4.906A1.5,1.5,0,0,0,75.3-.5Zm7.152.648A2.291,2.291,0,0,1,80.5-.876V2.208h-.9v-8h.9v.864a2.4,2.4,0,0,1,.84-.732,2.33,2.33,0,0,1,1.116-.276,2.354,2.354,0,0,1,1.866.822A3.259,3.259,0,0,1,85.032-2.9a3.283,3.283,0,0,1-.714,2.22A2.346,2.346,0,0,1,82.452.144Zm-.228-.8a1.646,1.646,0,0,0,1.356-.63,2.5,2.5,0,0,0,.5-1.614,2.478,2.478,0,0,0-.5-1.608,1.653,1.653,0,0,0-1.356-.624,2.038,2.038,0,0,0-1,.27,1.94,1.94,0,0,0-.726.654V-1.6a1.9,1.9,0,0,0,.726.666A2.038,2.038,0,0,0,82.224-.66ZM93.156-5.8h.9V0h-7.6V-5.8h.9v5h2.448v-5h.9v5h2.448ZM98.712.144a2.291,2.291,0,0,1-1.956-1.02V2.208h-.9v-8h.9v.864a2.4,2.4,0,0,1,.84-.732,2.33,2.33,0,0,1,1.116-.276,2.354,2.354,0,0,1,1.866.822,3.259,3.259,0,0,1,.714,2.214,3.283,3.283,0,0,1-.714,2.22A2.346,2.346,0,0,1,98.712.144Zm-.228-.8a1.646,1.646,0,0,0,1.356-.63,2.5,2.5,0,0,0,.5-1.614,2.478,2.478,0,0,0-.5-1.608,1.653,1.653,0,0,0-1.356-.624,2.038,2.038,0,0,0-1,.27,1.94,1.94,0,0,0-.726.654V-1.6a1.9,1.9,0,0,0,.726.666A2.038,2.038,0,0,0,98.484-.66ZM102.4,2.268l.144-.816a1.2,1.2,0,0,0,.492.1.932.932,0,0,0,.516-.132,1.011,1.011,0,0,0,.348-.48L104.28.06,101.856-5.8h.972l1.932,4.752L106.68-5.8h.984l-2.9,6.972a1.755,1.755,0,0,1-1.7,1.176A2.443,2.443,0,0,1,102.4,2.268ZM110.556,0h-.9V-5h-1.68V-5.8h4.272V-5h-1.692Z" transform="translate(2850 612)" fill="#ff3d00"/><g transform="translate(2824 592)" fill="none" stroke="#ff3d00" stroke-width="1"><rect width="148" height="33" rx="16.5" stroke="none"/><rect x="0.5" y="0.5" width="147" height="32" rx="16" fill="none"/></g><g transform="translate(1474.535 -1681.634)"><path d="M5.2,14.394a.491.491,0,0,1-.364-.188c-.383-.438-.691-.8-.968-1.156A25.958,25.958,0,0,1,1.2,9.068,10.231,10.231,0,0,1,.062,5.93,4.961,4.961,0,0,1,.69,2.623,5.206,5.206,0,0,1,5.207,0a5.233,5.233,0,0,1,4.881,3.391,5.131,5.131,0,0,1,.184,2.966,10.5,10.5,0,0,1-.979,2.555,27.514,27.514,0,0,1-3.6,5.166c-.038.043-.077.088-.118.131A.537.537,0,0,1,5.2,14.394Zm0-12.95A3.762,3.762,0,0,0,2.526,2.572,3.706,3.706,0,0,0,1.433,5.22,3.765,3.765,0,0,0,2.552,7.873,3.723,3.723,0,0,0,5.2,8.979h.025a3.768,3.768,0,0,0-.012-7.535Z" transform="translate(1359.635 2283.722)" fill="#ff3a00" stroke="rgba(0,0,0,0)" stroke-miterlimit="10" stroke-width="1"/></g></g></svg>