<svg xmlns="http://www.w3.org/2000/svg" xmlns:xlink="http://www.w3.org/1999/xlink" width="1064.458" height="111.65" viewBox="0 0 1064.458 111.65">
  <defs>
    <linearGradient id="linear-gradient" x1="4.946" y1="0.5" x2="27.598" y2="0.5" gradientUnits="objectBoundingBox">
      <stop offset="0" stop-color="#3360ff"/>
      <stop offset="1" stop-color="#b45084"/>
    </linearGradient>
    <linearGradient id="linear-gradient-2" x1="4.302" y1="0.5" x2="30.54" y2="0.5" xlink:href="#linear-gradient"/>
    <linearGradient id="linear-gradient-3" x1="3.752" y1="0.5" x2="35.071" y2="0.5" xlink:href="#linear-gradient"/>
    <linearGradient id="linear-gradient-4" x1="2.232" y1="0.5" x2="28.469" y2="0.5" xlink:href="#linear-gradient"/>
    <linearGradient id="linear-gradient-5" x1="1.036" y1="0.5" x2="27.273" y2="0.5" xlink:href="#linear-gradient"/>
    <linearGradient id="linear-gradient-6" x1="-0.213" y1="0.5" x2="28.561" y2="0.5" xlink:href="#linear-gradient"/>
    <linearGradient id="linear-gradient-7" x1="-1.296" y1="0.5" x2="22.856" y2="0.5" xlink:href="#linear-gradient"/>
    <linearGradient id="linear-gradient-8" x1="-3.302" y1="0.5" x2="22.935" y2="0.5" xlink:href="#linear-gradient"/>
    <linearGradient id="linear-gradient-9" x1="-4.877" y1="0.5" x2="23.56" y2="0.5" xlink:href="#linear-gradient"/>
    <linearGradient id="linear-gradient-10" x1="-4.019" y1="0.5" x2="14.755" y2="0.5" xlink:href="#linear-gradient"/>
    <linearGradient id="linear-gradient-11" x1="-7.873" y1="0.5" x2="20.563" y2="0.5" xlink:href="#linear-gradient"/>
    <linearGradient id="linear-gradient-12" x1="-9.247" y1="0.5" x2="19.64" y2="0.5" xlink:href="#linear-gradient"/>
    <linearGradient id="linear-gradient-13" x1="-10.518" y1="0.5" x2="18.255" y2="0.5" xlink:href="#linear-gradient"/>
    <linearGradient id="linear-gradient-14" x1="-11.654" y1="0.5" x2="16.782" y2="0.5" xlink:href="#linear-gradient"/>
  </defs>
  <g id="Group_260" data-name="Group 260" transform="translate(-1625.727 1732.971)" opacity="0.8">
    <path id="Path_1143" data-name="Path 1143" d="M1630.017-1647.061a4.164,4.164,0,0,1-3.08-1.21,4.164,4.164,0,0,1-1.21-3.08v-77.33a4.169,4.169,0,0,1,1.21-3.08,4.172,4.172,0,0,1,3.08-1.21,4.174,4.174,0,0,1,3.079,1.21,4.172,4.172,0,0,1,1.21,3.08v34.32h53.68v-34.32a4.172,4.172,0,0,1,1.21-3.08,4.173,4.173,0,0,1,3.08-1.21,4.176,4.176,0,0,1,3.08,1.21,4.172,4.172,0,0,1,1.21,3.08v77.33a4.168,4.168,0,0,1-1.21,3.08,4.169,4.169,0,0,1-3.08,1.21,4.165,4.165,0,0,1-3.08-1.21,4.168,4.168,0,0,1-1.21-3.08v-35.31h-53.68v35.31a4.168,4.168,0,0,1-1.21,3.08A4.166,4.166,0,0,1,1630.017-1647.061Z" fill="url(#linear-gradient)"/>
    <path id="Path_1144" data-name="Path 1144" d="M1742.656-1646.511a28.97,28.97,0,0,1-15.18-4.015,29.235,29.235,0,0,1-10.615-10.945,31.251,31.251,0,0,1-3.9-15.62,30.786,30.786,0,0,1,4.015-15.73,29.579,29.579,0,0,1,10.945-10.945,30.589,30.589,0,0,1,15.62-4.015,30.3,30.3,0,0,1,15.565,4.015,29.729,29.729,0,0,1,10.89,10.945,31.625,31.625,0,0,1,4.125,15.73l-3.41,2.64a27.776,27.776,0,0,1-3.685,14.245,27.3,27.3,0,0,1-10.01,10.01A27.979,27.979,0,0,1,1742.656-1646.511Zm.88-7.7a21.888,21.888,0,0,0,11.385-2.97,21.542,21.542,0,0,0,7.92-8.195,23.638,23.638,0,0,0,2.915-11.715,23.56,23.56,0,0,0-2.915-11.77,22.087,22.087,0,0,0-7.92-8.2,21.587,21.587,0,0,0-11.385-3.025,21.658,21.658,0,0,0-11.33,3.025,22.36,22.36,0,0,0-8.03,8.2,23.2,23.2,0,0,0-2.97,11.77,23.278,23.278,0,0,0,2.97,11.715,21.805,21.805,0,0,0,8.03,8.195A21.96,21.96,0,0,0,1743.536-1654.211Zm26.29,7.15a4.277,4.277,0,0,1-3.08-1.155,3.986,3.986,0,0,1-1.21-3.025v-18.81l2.09-8.69,6.49,1.65v25.85a3.993,3.993,0,0,1-1.21,3.025A4.284,4.284,0,0,1,1769.826-1647.061Z" fill="url(#linear-gradient-2)"/>
    <path id="Path_1145" data-name="Path 1145" d="M1787.754-1647.061a3.684,3.684,0,0,1-2.805-1.1,3.9,3.9,0,0,1-1.1-2.64,4.305,4.305,0,0,1,1.155-2.97l20.24-25.3,4.73,6.27-19.25,24.42A3.476,3.476,0,0,1,1787.754-1647.061Zm43.56,0a4.554,4.554,0,0,1-2.145-.44,5.777,5.777,0,0,1-1.7-1.541l-19.03-24.2-3.3-2.86-19.14-24.31a4.3,4.3,0,0,1-1.155-2.97,4.256,4.256,0,0,1,1.045-2.7,3.559,3.559,0,0,1,2.86-1.155,4.343,4.343,0,0,1,3.19,1.32l18.48,23.65,2.97,2.42,20.46,26.18a4.339,4.339,0,0,1,1.21,3.3,3.542,3.542,0,0,1-1.375,2.42A3.862,3.862,0,0,1,1831.314-1647.061Zm-17.82-28.6-5.39-5.5,19.03-24.09a4.454,4.454,0,0,1,1.7-1.541,4.5,4.5,0,0,1,1.925-.439,3.561,3.561,0,0,1,2.86,1.155,3.875,3.875,0,0,1,.935,2.75,5.2,5.2,0,0,1-1.155,3.025Z" fill="url(#linear-gradient-3)"/>
    <path id="Path_1146" data-name="Path 1146" d="M1870.145-1646.511a31.132,31.132,0,0,1-15.73-3.96,28.762,28.762,0,0,1-10.891-10.89,31.142,31.142,0,0,1-3.96-15.73,31.365,31.365,0,0,1,3.96-15.84,28.762,28.762,0,0,1,10.891-10.89,31.131,31.131,0,0,1,15.73-3.96,30.83,30.83,0,0,1,15.674,3.96,28.881,28.881,0,0,1,10.836,10.89,32.2,32.2,0,0,1,4.07,15.84,30.794,30.794,0,0,1-4.016,15.73,29.288,29.288,0,0,1-10.89,10.89A30.832,30.832,0,0,1,1870.145-1646.511Zm0-7.7a22.176,22.176,0,0,0,11.439-2.97,21.121,21.121,0,0,0,7.92-8.14,23.9,23.9,0,0,0,2.861-11.77,24.225,24.225,0,0,0-2.861-11.826,21.034,21.034,0,0,0-7.92-8.194,22.176,22.176,0,0,0-11.439-2.97,22.169,22.169,0,0,0-11.44,2.97,21.421,21.421,0,0,0-7.976,8.194,23.866,23.866,0,0,0-2.915,11.826,23.547,23.547,0,0,0,2.915,11.77,21.514,21.514,0,0,0,7.976,8.14A22.169,22.169,0,0,0,1870.145-1654.211Z" fill="url(#linear-gradient-4)"/>
    <path id="Path_1147" data-name="Path 1147" d="M1942.413-1646.511a30.031,30.031,0,0,1-15.4-3.906,27.623,27.623,0,0,1-10.5-10.834,32.437,32.437,0,0,1-3.8-15.84,31.587,31.587,0,0,1,3.96-15.951,28.373,28.373,0,0,1,10.89-10.834,31.491,31.491,0,0,1,15.73-3.905,31.413,31.413,0,0,1,15.785,3.905,28.106,28.106,0,0,1,10.78,10.834,32.8,32.8,0,0,1,4.015,15.951l-4.95,2.64a30.007,30.007,0,0,1-3.41,14.465,25.2,25.2,0,0,1-9.4,9.9A26.221,26.221,0,0,1,1942.413-1646.511Zm1.1,23.21a34.259,34.259,0,0,1-15.29-3.245,30.323,30.323,0,0,1-10.89-8.855,3.553,3.553,0,0,1-1.045-2.86,3.446,3.446,0,0,1,1.6-2.531,4.074,4.074,0,0,1,3.19-.659,4.288,4.288,0,0,1,2.75,1.65,23.414,23.414,0,0,0,8.195,6.38,26.378,26.378,0,0,0,11.605,2.42,21.177,21.177,0,0,0,11.11-2.97,21.378,21.378,0,0,0,7.865-8.36,26.216,26.216,0,0,0,2.915-12.65v-16.72l3.19-6.38,5.17.99v22.44a32.274,32.274,0,0,1-3.96,16.005,29.907,29.907,0,0,1-10.78,11.22A29.587,29.587,0,0,1,1943.513-1623.3Zm-.22-30.91a22.416,22.416,0,0,0,11.495-2.915,20.838,20.838,0,0,0,7.865-8.085,24.138,24.138,0,0,0,2.86-11.88,24.462,24.462,0,0,0-2.86-11.935,20.778,20.778,0,0,0-7.865-8.141,22.445,22.445,0,0,0-11.495-2.914,22.732,22.732,0,0,0-11.55,2.914,20.642,20.642,0,0,0-7.92,8.141,24.441,24.441,0,0,0-2.86,11.935,24.117,24.117,0,0,0,2.86,11.88,20.7,20.7,0,0,0,7.92,8.085A22.7,22.7,0,0,0,1943.293-1654.211Z" fill="url(#linear-gradient-5)"/>
    <path id="Path_1148" data-name="Path 1148" d="M2015.231-1646.4a29.509,29.509,0,0,1-13.97-3.245,23.819,23.819,0,0,1-9.735-9.515q-3.575-6.27-3.574-15.29v-28.6a4.037,4.037,0,0,1,1.21-2.97,4.038,4.038,0,0,1,2.969-1.21,4.176,4.176,0,0,1,3.08,1.21,4.041,4.041,0,0,1,1.21,2.97v28.6a21.9,21.9,0,0,0,2.585,11.22,16.5,16.5,0,0,0,7.04,6.6,22.429,22.429,0,0,0,10.065,2.2,22.163,22.163,0,0,0,9.735-2.09,17.337,17.337,0,0,0,6.875-5.72,14.078,14.078,0,0,0,2.53-8.25h6.051a24.825,24.825,0,0,1-3.8,12.375,24.634,24.634,0,0,1-9.295,8.58A26.965,26.965,0,0,1,2015.231-1646.4Zm24.2-.66a4.093,4.093,0,0,1-3.026-1.155,4.236,4.236,0,0,1-1.155-3.135v-51.7a4.092,4.092,0,0,1,1.155-3.025,4.093,4.093,0,0,1,3.026-1.155,4.28,4.28,0,0,1,3.079,1.155,3.991,3.991,0,0,1,1.21,3.025v51.7a4.128,4.128,0,0,1-1.21,3.135A4.28,4.28,0,0,1,2039.432-1647.061Z" fill="url(#linear-gradient-6)"/>
    <path id="Path_1149" data-name="Path 1149" d="M2066.49-1647.061a4.236,4.236,0,0,1-3.135-1.155,4.236,4.236,0,0,1-1.155-3.135v-51.59a4.236,4.236,0,0,1,1.155-3.135,4.236,4.236,0,0,1,3.135-1.155,5.34,5.34,0,0,1,4.62,2.64l24.31,35.2,24.31-35.2a5.335,5.335,0,0,1,4.62-2.64,4.237,4.237,0,0,1,3.135,1.155,4.237,4.237,0,0,1,1.155,3.135v51.59a4.237,4.237,0,0,1-1.155,3.135,4.237,4.237,0,0,1-3.135,1.155,4.049,4.049,0,0,1-3.08-1.155,4.355,4.355,0,0,1-1.1-3.135v-46.09l2.75.88-23.54,33.99q-1.761,2.532-4.07,2.529a4.717,4.717,0,0,1-3.96-2.529l-23.54-33.66,2.86-.88v45.76a4.364,4.364,0,0,1-1.1,3.135A4.052,4.052,0,0,1,2066.49-1647.061Z" fill="url(#linear-gradient-7)"/>
    <path id="Path_1150" data-name="Path 1150" d="M2182.32-1621.321a4.236,4.236,0,0,1-3.135-1.155,4.238,4.238,0,0,1-1.155-3.135v-51.92a30.86,30.86,0,0,1,4.125-15.455,29.405,29.405,0,0,1,10.89-10.835,30.4,30.4,0,0,1,15.455-3.96,30.808,30.808,0,0,1,15.73,4.015,29.593,29.593,0,0,1,10.945,10.945,30.805,30.805,0,0,1,4.015,15.73,31.271,31.271,0,0,1-3.905,15.62,29.264,29.264,0,0,1-10.615,10.945,28.979,28.979,0,0,1-15.18,4.015,28.4,28.4,0,0,1-13.365-3.135,26.54,26.54,0,0,1-9.625-8.305v32.34a4.238,4.238,0,0,1-1.155,3.135A4.092,4.092,0,0,1,2182.32-1621.321Zm26.18-32.89a22.179,22.179,0,0,0,11.44-2.97,21.421,21.421,0,0,0,7.975-8.195,23.639,23.639,0,0,0,2.915-11.715,23.562,23.562,0,0,0-2.915-11.77,21.957,21.957,0,0,0-7.975-8.2,21.873,21.873,0,0,0-11.44-3.025,21.659,21.659,0,0,0-11.33,3.025,21.518,21.518,0,0,0-7.92,8.2,23.893,23.893,0,0,0-2.86,11.77,23.971,23.971,0,0,0,2.86,11.715,21,21,0,0,0,7.92,8.195A21.961,21.961,0,0,0,2208.5-1654.211Z" fill="url(#linear-gradient-8)"/>
    <path id="Path_1151" data-name="Path 1151" d="M2281.758-1646.511a31.379,31.379,0,0,1-15.785-3.906,28.05,28.05,0,0,1-10.78-10.834,31.7,31.7,0,0,1-3.905-15.84,33.125,33.125,0,0,1,3.685-15.9,27.841,27.841,0,0,1,10.175-10.835,28.138,28.138,0,0,1,14.96-3.96,27.417,27.417,0,0,1,14.575,3.8,25.659,25.659,0,0,1,9.625,10.505,33.3,33.3,0,0,1,3.41,15.29,3.69,3.69,0,0,1-1.1,2.805,3.979,3.979,0,0,1-2.86,1.045h-46.75v-7.04h47.63l-4.73,3.41a25.2,25.2,0,0,0-2.31-11.44,18.843,18.843,0,0,0-6.875-7.92,19.231,19.231,0,0,0-10.615-2.86,20.244,20.244,0,0,0-11,2.97,19.831,19.831,0,0,0-7.315,8.195,26.567,26.567,0,0,0-2.585,11.935,23.758,23.758,0,0,0,2.915,11.88,21.5,21.5,0,0,0,7.975,8.14,22.6,22.6,0,0,0,11.66,2.97,24.466,24.466,0,0,0,7.975-1.375,19.335,19.335,0,0,0,6.435-3.465,4.493,4.493,0,0,1,2.75-1.045,3.866,3.866,0,0,1,2.64.825,4.089,4.089,0,0,1,1.485,2.86,3.17,3.17,0,0,1-1.265,2.64,29.883,29.883,0,0,1-9.24,5.115A31.541,31.541,0,0,1,2281.758-1646.511Z" fill="url(#linear-gradient-9)"/>
    <path id="Path_1152" data-name="Path 1152" d="M2341.708-1646.292a21.473,21.473,0,0,1-11.5-3.079,20.906,20.906,0,0,1-7.81-8.69,29.18,29.18,0,0,1-2.805-13.2v-31.68a4.236,4.236,0,0,1,1.155-3.135,4.089,4.089,0,0,1,3.025-1.155,4.283,4.283,0,0,1,3.08,1.155,4.131,4.131,0,0,1,1.21,3.135v31.68a20.584,20.584,0,0,0,1.815,8.965,13.484,13.484,0,0,0,5.115,5.83,14.152,14.152,0,0,0,7.59,2.035,14.819,14.819,0,0,0,11.165-4.51q4.344-4.509,4.235-11.99h4.51a30.1,30.1,0,0,1-2.8,12.815,21.5,21.5,0,0,1-7.37,8.69A18.623,18.623,0,0,1,2341.708-1646.292Zm38.39,0a21.472,21.472,0,0,1-11.495-3.079,20.906,20.906,0,0,1-7.81-8.69,29.183,29.183,0,0,1-2.8-13.2v-31.68a4.236,4.236,0,0,1,1.155-3.135,4.089,4.089,0,0,1,3.025-1.155,4.284,4.284,0,0,1,3.08,1.155,4.132,4.132,0,0,1,1.21,3.135v31.68a20.584,20.584,0,0,0,1.815,8.965,13.484,13.484,0,0,0,5.115,5.83,14.152,14.152,0,0,0,7.59,2.035,15.1,15.1,0,0,0,11.22-4.455,15.527,15.527,0,0,0,4.4-11.385l4.51.11a28.825,28.825,0,0,1-2.97,12.32,21.722,21.722,0,0,1-7.425,8.47A18.857,18.857,0,0,1,2380.1-1646.292Zm20.68-.769a4.089,4.089,0,0,1-3.025-1.155,4.236,4.236,0,0,1-1.155-3.135v-51.59a4.236,4.236,0,0,1,1.155-3.135,4.089,4.089,0,0,1,3.025-1.155,4.283,4.283,0,0,1,3.08,1.155,4.131,4.131,0,0,1,1.21,3.135v51.59a4.131,4.131,0,0,1-1.21,3.135A4.283,4.283,0,0,1,2400.778-1647.061Z" fill="url(#linear-gradient-10)"/>
    <path id="Path_1153" data-name="Path 1153" d="M2450.827-1646.511a31.378,31.378,0,0,1-15.785-3.906,28.053,28.053,0,0,1-10.78-10.834,31.7,31.7,0,0,1-3.905-15.84,33.125,33.125,0,0,1,3.685-15.9,27.839,27.839,0,0,1,10.175-10.835,28.137,28.137,0,0,1,14.96-3.96,27.416,27.416,0,0,1,14.575,3.8,25.656,25.656,0,0,1,9.625,10.505,33.3,33.3,0,0,1,3.41,15.29,3.691,3.691,0,0,1-1.1,2.805,3.98,3.98,0,0,1-2.86,1.045h-46.75v-7.04h47.63l-4.73,3.41a25.2,25.2,0,0,0-2.31-11.44,18.845,18.845,0,0,0-6.875-7.92,19.231,19.231,0,0,0-10.615-2.86,20.244,20.244,0,0,0-11,2.97,19.829,19.829,0,0,0-7.315,8.195,26.563,26.563,0,0,0-2.585,11.935,23.76,23.76,0,0,0,2.915,11.88,21.5,21.5,0,0,0,7.975,8.14,22.6,22.6,0,0,0,11.66,2.97,24.466,24.466,0,0,0,7.975-1.375,19.335,19.335,0,0,0,6.435-3.465,4.493,4.493,0,0,1,2.75-1.045,3.866,3.866,0,0,1,2.64.825,4.088,4.088,0,0,1,1.485,2.86,3.17,3.17,0,0,1-1.265,2.64,29.88,29.88,0,0,1-9.24,5.115A31.541,31.541,0,0,1,2450.827-1646.511Z" fill="url(#linear-gradient-11)"/>
    <path id="Path_1154" data-name="Path 1154" d="M2493.947-1647.061a4.092,4.092,0,0,1-3.026-1.155,4.236,4.236,0,0,1-1.154-3.135v-51.59a4.236,4.236,0,0,1,1.154-3.135,4.092,4.092,0,0,1,3.026-1.155,4.092,4.092,0,0,1,3.025,1.155,4.236,4.236,0,0,1,1.154,3.135v51.59a4.236,4.236,0,0,1-1.154,3.135A4.092,4.092,0,0,1,2493.947-1647.061Zm2.75-26.51v-7.59h43.23v7.59Zm44.55,26.51a4.277,4.277,0,0,1-3.08-1.155,4.124,4.124,0,0,1-1.21-3.135v-51.59a4.124,4.124,0,0,1,1.21-3.135,4.277,4.277,0,0,1,3.08-1.155,3.91,3.91,0,0,1,2.97,1.155,4.364,4.364,0,0,1,1.1,3.135v51.59a4.364,4.364,0,0,1-1.1,3.135A3.91,3.91,0,0,1,2541.247-1647.061Z" fill="url(#linear-gradient-12)"/>
    <path id="Path_1155" data-name="Path 1155" d="M2589.977-1646.4a29.507,29.507,0,0,1-13.971-3.245,23.807,23.807,0,0,1-9.735-9.515q-3.575-6.27-3.575-15.29v-28.6a4.041,4.041,0,0,1,1.21-2.97,4.039,4.039,0,0,1,2.97-1.21,4.18,4.18,0,0,1,3.081,1.21,4.045,4.045,0,0,1,1.21,2.97v28.6a21.894,21.894,0,0,0,2.584,11.22,16.493,16.493,0,0,0,7.041,6.6,22.416,22.416,0,0,0,10.064,2.2,22.166,22.166,0,0,0,9.735-2.09,17.352,17.352,0,0,0,6.875-5.72,14.086,14.086,0,0,0,2.531-8.25h6.049a24.814,24.814,0,0,1-3.795,12.375,24.654,24.654,0,0,1-9.294,8.58A26.973,26.973,0,0,1,2589.977-1646.4Zm24.2-.66a4.091,4.091,0,0,1-3.025-1.155,4.236,4.236,0,0,1-1.154-3.135v-51.7a4.092,4.092,0,0,1,1.154-3.025,4.091,4.091,0,0,1,3.025-1.155,4.282,4.282,0,0,1,3.08,1.155,3.991,3.991,0,0,1,1.21,3.025v51.7a4.128,4.128,0,0,1-1.21,3.135A4.282,4.282,0,0,1,2614.176-1647.061Z" fill="url(#linear-gradient-13)"/>
    <path id="Path_1156" data-name="Path 1156" d="M2664.225-1646.511a31.379,31.379,0,0,1-15.785-3.906,28.053,28.053,0,0,1-10.78-10.834,31.7,31.7,0,0,1-3.905-15.84,33.125,33.125,0,0,1,3.685-15.9,27.841,27.841,0,0,1,10.175-10.835,28.137,28.137,0,0,1,14.96-3.96,27.415,27.415,0,0,1,14.575,3.8,25.656,25.656,0,0,1,9.625,10.505,33.3,33.3,0,0,1,3.41,15.29,3.691,3.691,0,0,1-1.1,2.805,3.979,3.979,0,0,1-2.86,1.045h-46.75v-7.04h47.63l-4.73,3.41a25.2,25.2,0,0,0-2.31-11.44,18.845,18.845,0,0,0-6.875-7.92,19.231,19.231,0,0,0-10.615-2.86,20.244,20.244,0,0,0-11,2.97,19.829,19.829,0,0,0-7.315,8.195,26.563,26.563,0,0,0-2.585,11.935,23.758,23.758,0,0,0,2.915,11.88,21.5,21.5,0,0,0,7.975,8.14,22.6,22.6,0,0,0,11.66,2.97,24.466,24.466,0,0,0,7.975-1.375,19.335,19.335,0,0,0,6.435-3.465,4.493,4.493,0,0,1,2.75-1.045,3.866,3.866,0,0,1,2.64.825,4.088,4.088,0,0,1,1.485,2.86,3.171,3.171,0,0,1-1.265,2.64,29.881,29.881,0,0,1-9.24,5.115A31.54,31.54,0,0,1,2664.225-1646.511Z" fill="url(#linear-gradient-14)"/>
  </g>
</svg>
