<svg xmlns="http://www.w3.org/2000/svg" width="24" height="24" viewBox="0 0 24 24"><g transform="translate(0 0)"><path d="M1425.489,1201.911v-11.717c.039-.245.065-.493.119-.735a6.538,6.538,0,0,1,4.942-5.208c.35-.1.717-.132,1.076-.2h11.712c.076.014.151.033.227.041a5.888,5.888,0,0,1,1.892.5,6.466,6.466,0,0,1,4.005,6.114c.05,3.561.015,7.124.011,10.686a6.389,6.389,0,0,1-1.175,3.785,6.52,6.52,0,0,1-5.572,2.87q-5.247.014-10.494,0a6.383,6.383,0,0,1-1.349-.122,6.511,6.511,0,0,1-5.2-4.934C1425.588,1202.639,1425.553,1202.271,1425.489,1201.911Zm21.859-5.855q0-2.6,0-5.2a4.784,4.784,0,0,0-.24-1.613,4.489,4.489,0,0,0-4.394-3.06c-3.489,0-6.979-.011-10.468.009a5.072,5.072,0,0,0-1.561.24,4.439,4.439,0,0,0-3.068,4.38q-.008,5.237,0,10.473a4.665,4.665,0,0,0,.244,1.588,4.475,4.475,0,0,0,4.354,3.047q5.269.014,10.538,0a4.434,4.434,0,0,0,3.769-1.911,4.5,4.5,0,0,0,.827-2.73Q1447.345,1198.668,1447.348,1196.056Z" transform="translate(-1425.489 -1184.054)" fill="#666668"/><path d="M1561.327,1313.889a6.014,6.014,0,1,1-6.017-6.023A6.042,6.042,0,0,1,1561.327,1313.889Zm-6.018,3.94a3.943,3.943,0,1,0-3.935-3.947A3.946,3.946,0,0,0,1555.309,1317.828Z" transform="translate(-1543.32 -1301.887)" fill="#666668"/><path d="M1786.571,1269.614a1.6,1.6,0,1,1-1.641,1.573A1.607,1.607,0,0,1,1786.571,1269.614Z" transform="translate(-1768.13 -1265.612)" fill="#666668"/></g></svg>