<svg xmlns="http://www.w3.org/2000/svg" width="509.095" height="307.992" viewBox="0 0 509.095 307.992">
  <g id="Group_266" data-name="Group 266" transform="translate(1.032 1)">
    <g id="Group_264" data-name="Group 264">
      <path id="Path_1490" data-name="Path 1490" d="M3431.437,2232.044s269.084-155.393,296.3-169.878,36.341-34.68,11.588-49.163-116.969-67.85-131.138-76.1c-7.3-4.252-20.452-7.2-37.5,2.536-15.412,8.808-278.879,161.218-307.485,177.68s-14.033,36.7,0,44.8,103.09,59.3,122.521,70.128S3418.748,2239.369,3431.437,2232.044Z" transform="translate(-3246.769 -1932.921)" fill="none" stroke="#666668" stroke-linecap="round" stroke-linejoin="round" stroke-width="2"/>
      <path id="Path_1491" data-name="Path 1491" d="M3735.871,2015.361c11.583,7.393,10.6,14.357,4.766,17.647-10.048,5.668-300.027,173.627-310.693,179.741s-23.544,4.813-39.284-4.422-109.658-62.959-119.933-69.2-6.375-13.918.78-17.951,292.681-168.844,307.25-177.3,25.625-3.643,34.08.781a103.319,103.319,0,0,1,12.958,7.8c1.248.811,1.248,1.373-.874,3.245s-4.867,6.116-.936,8.426,64.47,37.259,71.023,41,10.5,2.4,13.6.873c5.2-2.549,4.648-3.952,10.3-.5C3722.986,2007.991,3733.552,2013.881,3735.871,2015.361Z" transform="translate(-3251.231 -1934.51)" fill="none" stroke="#666668" stroke-linecap="round" stroke-linejoin="round" stroke-width="2"/>
      <path id="Path_1492" data-name="Path 1492" d="M3349.186,2278.687c3.663,2.15,5.653-2.708,1.115-5.654s-8.441-5.335-12.263-7.485-5.177,3.106-.8,5.893S3349.186,2278.687,3349.186,2278.687Z" transform="translate(-3268.896 -2016.677)" fill="none" stroke="#666668" stroke-linecap="round" stroke-linejoin="round" stroke-width="2"/>
    </g>
    <g id="Group_265" data-name="Group 265" transform="translate(69.17 28.482)">
      <path id="Path_1493" data-name="Path 1493" d="M3543.975,2179.323l-158.368-91.434,155.378-89.677,158.145,91.305Z" transform="translate(-3350.951 -1977.868)" fill="none" stroke="#666668" stroke-linecap="round" stroke-linejoin="round" stroke-width="2"/>
      <ellipse id="Ellipse_36" data-name="Ellipse 36" cx="7.409" cy="12.833" rx="7.409" ry="12.833" transform="translate(222.723 14.818) rotate(-89.689)" fill="none" stroke="#666668" stroke-linecap="round" stroke-linejoin="round" stroke-width="2"/>
      <ellipse id="Ellipse_37" data-name="Ellipse 37" cx="4.271" cy="7.399" rx="4.271" ry="7.399" transform="translate(201.206 25.562) rotate(-89.689)" fill="none" stroke="#666668" stroke-linecap="round" stroke-linejoin="round" stroke-width="2"/>
      <ellipse id="Ellipse_38" data-name="Ellipse 38" cx="7.409" cy="12.833" rx="7.409" ry="12.833" transform="translate(249.649 30.364) rotate(-89.689)" fill="none" stroke="#666668" stroke-linecap="round" stroke-linejoin="round" stroke-width="2"/>
      <ellipse id="Ellipse_39" data-name="Ellipse 39" cx="7.409" cy="12.833" rx="7.409" ry="12.833" transform="translate(276.576 45.91) rotate(-89.689)" fill="none" stroke="#666668" stroke-linecap="round" stroke-linejoin="round" stroke-width="2"/>
      <ellipse id="Ellipse_40" data-name="Ellipse 40" cx="7.409" cy="12.833" rx="7.409" ry="12.833" transform="translate(303.502 61.455) rotate(-89.689)" fill="none" stroke="#666668" stroke-linecap="round" stroke-linejoin="round" stroke-width="2"/>
      <ellipse id="Ellipse_41" data-name="Ellipse 41" cx="7.409" cy="12.833" rx="7.409" ry="12.833" transform="translate(330.428 77.001) rotate(-89.689)" fill="none" stroke="#666668" stroke-linecap="round" stroke-linejoin="round" stroke-width="2"/>
      <ellipse id="Ellipse_42" data-name="Ellipse 42" cx="7.409" cy="12.833" rx="7.409" ry="12.833" transform="translate(357.354 92.547) rotate(-89.689)" fill="none" stroke="#666668" stroke-linecap="round" stroke-linejoin="round" stroke-width="2"/>
      <path id="Path_1494" data-name="Path 1494" d="M3656.912,2024.213l-28.431-16.415c-.695-.4-.608-1.1.2-1.566l.8-.46a3.012,3.012,0,0,1,2.712-.112l28.431,16.415c.695.4.607,1.1-.2,1.565l-.8.46A3.014,3.014,0,0,1,3656.912,2024.213Z" transform="translate(-3412.082 -1979.678)" fill="none" stroke="#666668" stroke-linecap="round" stroke-linejoin="round" stroke-width="2"/>
      <ellipse id="Ellipse_43" data-name="Ellipse 43" cx="4.271" cy="7.399" rx="4.271" ry="7.399" transform="translate(0 141.728) rotate(-89.689)" fill="none" stroke="#666668" stroke-linecap="round" stroke-linejoin="round" stroke-width="2"/>
      <path id="Path_1495" data-name="Path 1495" d="M3387.854,2179.553l-28.431-16.415c-.695-.4-.607-1.1.2-1.565l.8-.46a3.014,3.014,0,0,1,2.712-.113l28.431,16.415c.695.4.608,1.1-.195,1.566l-.8.46A3.011,3.011,0,0,1,3387.854,2179.553Z" transform="translate(-3344.23 -2018.852)" fill="none" stroke="#666668" stroke-linecap="round" stroke-linejoin="round" stroke-width="2"/>
      <g id="Path_1496" data-name="Path 1496" transform="translate(-3344.663 -2013.404)" fill="none" stroke-linecap="round" stroke-linejoin="round">
        <path d="M3504.875,2224.521l-143.736-82.986c-.7-.4-.608-1.1.194-1.566l.8-.46a3.014,3.014,0,0,1,2.711-.112l143.737,82.987c.7.4.608,1.1-.194,1.565l-.8.46A3.013,3.013,0,0,1,3504.875,2224.521Z" stroke="none"/>
        <path d="M 3506.052978515625 2224.7919921875 C 3505.611328125 2224.7919921875 3505.18994140625 2224.70263671875 3504.875 2224.520751953125 L 3361.138671875 2141.53466796875 C 3360.443115234375 2141.13330078125 3360.53076171875 2140.432373046875 3361.3330078125 2139.96875 L 3362.129638671875 2139.5087890625 C 3362.568603515625 2139.255615234375 3363.130859375 2139.125732421875 3363.663818359375 2139.125732421875 C 3364.105224609375 2139.125732421875 3364.5263671875 2139.21484375 3364.841064453125 2139.396728515625 L 3508.57763671875 2222.38330078125 C 3509.27294921875 2222.7841796875 3509.185546875 2223.48486328125 3508.38330078125 2223.94873046875 L 3507.5869140625 2224.408447265625 C 3507.14794921875 2224.662109375 3506.5859375 2224.7919921875 3506.052978515625 2224.7919921875 Z" stroke="none" fill="#666668"/>
      </g>
      <g id="Path_1497" data-name="Path 1497" transform="translate(-3342.786 -2014.487)" fill="none" stroke-linecap="round" stroke-linejoin="round">
        <path d="M3409.63,2178.121,3353.7,2145.83c-.695-.4-.608-1.1.2-1.565l.8-.461a3.017,3.017,0,0,1,2.711-.112l55.931,32.292c.7.4.608,1.1-.195,1.565l-.8.46A3.011,3.011,0,0,1,3409.63,2178.121Z" stroke="none"/>
        <path d="M 3410.8076171875 2178.392578125 C 3410.3662109375 2178.392578125 3409.945068359375 2178.30322265625 3409.630126953125 2178.121337890625 L 3353.69873046875 2145.829833984375 C 3353.00390625 2145.42822265625 3353.0908203125 2144.7275390625 3353.893798828125 2144.2646484375 L 3354.6904296875 2143.803955078125 C 3355.12939453125 2143.55078125 3355.691162109375 2143.421142578125 3356.223876953125 2143.421142578125 C 3356.665283203125 2143.421142578125 3357.086669921875 2143.510009765625 3357.40185546875 2143.691650390625 L 3413.332763671875 2175.984130859375 C 3414.028076171875 2176.384765625 3413.940673828125 2177.08544921875 3413.13818359375 2177.54931640625 L 3412.341064453125 2178.009033203125 C 3411.902099609375 2178.2626953125 3411.34033203125 2178.392578125 3410.8076171875 2178.392578125 Z" stroke="none" fill="#666668"/>
      </g>
    </g>
  </g>
</svg>
