<svg id="Group_880" data-name="Group 880" xmlns="http://www.w3.org/2000/svg" width="1920" height="1080" viewBox="0 0 1920 1080">
  <rect id="Rectangle_217" data-name="Rectangle 217" width="1920" height="1080" fill="none"/>
  <g id="Group_253" data-name="Group 253" transform="translate(384 2089.205)">
    <path id="Path_1" data-name="Path 1" d="M-90.714-2041.863l-49.978,291.536A8.835,8.835,0,0,0-131.984-1740h35.178a8.834,8.834,0,0,0,8.747-7.6l4.533-32.018a5.3,5.3,0,0,1,5.248-4.558h48.32a5.3,5.3,0,0,1,5.249,4.558l4.532,32.018a8.835,8.835,0,0,0,8.747,7.6H23.749a8.835,8.835,0,0,0,8.707-10.327l-49.978-291.536a8.835,8.835,0,0,0-8.707-7.342H-82.007A8.835,8.835,0,0,0-90.714-2041.863Zm16.192,198.641,18.655-144.142a1.767,1.767,0,0,1,3.5,0l18.655,144.142a5.3,5.3,0,0,1-5.249,6.043H-69.274A5.3,5.3,0,0,1-74.522-1843.222Z" fill="#1d1d1e"/>
    <path id="Path_2" data-name="Path 2" d="M533.767-1987.364a61.841,61.841,0,0,0-61.841-61.841H383.581a8.835,8.835,0,0,0-8.834,8.835v225.277a4.418,4.418,0,0,1-4.417,4.418h0a4.416,4.416,0,0,0-4.417,4.417v57.424a8.834,8.834,0,0,0,8.834,8.834h35.338a8.834,8.834,0,0,0,8.834-8.834v-8.835H489.6v8.835a8.834,8.834,0,0,0,8.834,8.834h35.338a8.834,8.834,0,0,0,8.834-8.834v-57.424a4.417,4.417,0,0,0-4.417-4.417h0a4.417,4.417,0,0,1-4.417-4.418Zm-58.308,176.689H433.054a5.3,5.3,0,0,1-5.3-5.3V-1990.9a5.3,5.3,0,0,1,5.3-5.3h38.872a8.834,8.834,0,0,1,8.834,8.834v171.388A5.3,5.3,0,0,1,475.459-1810.675Z" fill="#1d1d1e"/>
    <path id="Path_3" data-name="Path 3" d="M-205.761-1714.1H-311.212a8.787,8.787,0,0,0-8.788,8.787v289.991a8.788,8.788,0,0,0,8.788,8.788h35.15a8.789,8.789,0,0,0,8.788-8.788V-1524.29a5.272,5.272,0,0,1,5.272-5.273h56.241a61.513,61.513,0,0,0,61.513-61.513v-61.513A61.513,61.513,0,0,0-205.761-1714.1Zm8.787,123.026a8.788,8.788,0,0,1-8.787,8.788H-262a5.272,5.272,0,0,1-5.272-5.273V-1656.1a5.272,5.272,0,0,1,5.272-5.273h56.241a8.788,8.788,0,0,1,8.787,8.788Z" fill="#1d1d1e"/>
    <path id="Path_4" data-name="Path 4" d="M784.087-1599.864v184.54a8.788,8.788,0,0,0,8.787,8.788H898.326a8.788,8.788,0,0,0,8.787-8.788v-35.15a8.788,8.788,0,0,0-8.787-8.788H842.085a5.272,5.272,0,0,1-5.273-5.272v-77.331a5.273,5.273,0,0,1,5.273-5.273h21.09a8.788,8.788,0,0,0,8.788-8.787v-35.151a8.789,8.789,0,0,0-8.788-8.788h-21.09a5.272,5.272,0,0,1-5.273-5.272V-1656.1a5.273,5.273,0,0,1,5.273-5.273h48.8a8.787,8.787,0,0,0,8.668-7.343l5.859-35.15a8.788,8.788,0,0,0-8.668-10.232H792.874a8.787,8.787,0,0,0-8.787,8.787Z" fill="#1d1d1e"/>
    <path id="Path_5" data-name="Path 5" d="M267.131-1599.864v184.54a8.789,8.789,0,0,0,8.788,8.788H381.37a8.789,8.789,0,0,0,8.788-8.788v-35.15a8.789,8.789,0,0,0-8.788-8.788H325.129a5.272,5.272,0,0,1-5.272-5.272v-77.331a5.272,5.272,0,0,1,5.272-5.273H346.22a8.787,8.787,0,0,0,8.787-8.787v-35.151a8.788,8.788,0,0,0-8.787-8.788H325.129a5.272,5.272,0,0,1-5.272-5.272V-1656.1a5.272,5.272,0,0,1,5.272-5.273h48.8a8.787,8.787,0,0,0,8.668-7.343l5.858-35.15a8.788,8.788,0,0,0-8.668-10.232H275.919a8.788,8.788,0,0,0-8.788,8.787Z" fill="#1d1d1e"/>
    <path id="Path_6" data-name="Path 6" d="M-124.248-1599.9v184.474a8.784,8.784,0,0,0,8.784,8.784H-10.05a8.785,8.785,0,0,0,8.785-8.784v-35.138a8.784,8.784,0,0,0-8.785-8.784H-66.27a5.271,5.271,0,0,1-5.271-5.271v-77.3a5.271,5.271,0,0,1,5.271-5.27h21.082a8.785,8.785,0,0,0,8.785-8.785v-35.138a8.785,8.785,0,0,0-8.785-8.784H-66.27a5.271,5.271,0,0,1-5.271-5.271v-50.95a5.27,5.27,0,0,1,5.271-5.27h48.779a8.785,8.785,0,0,0,8.665-7.341l5.856-35.138a8.785,8.785,0,0,0-8.665-10.228H-115.464a8.784,8.784,0,0,0-8.784,8.784Z" fill="#1d1d1e"/>
    <path id="Path_7" data-name="Path 7" d="M641.06-1557.107v-148.208a8.787,8.787,0,0,0-8.787-8.787H597.122a8.787,8.787,0,0,0-8.787,8.787v289.991a8.788,8.788,0,0,0,8.787,8.788h39.956a8.789,8.789,0,0,0,8.191-5.606l59.3-152.662a3.515,3.515,0,0,1,6.792,1.273v148.207a8.788,8.788,0,0,0,8.788,8.788H755.3a8.789,8.789,0,0,0,8.788-8.788v-289.991a8.788,8.788,0,0,0-8.788-8.787H715.344a8.788,8.788,0,0,0-8.192,5.605l-59.3,152.663A3.515,3.515,0,0,1,641.06-1557.107Z" fill="#1d1d1e"/>
    <path id="Path_8" data-name="Path 8" d="M615.608-1891.373v-149a8.836,8.836,0,0,0-8.835-8.835H571.435a8.835,8.835,0,0,0-8.834,8.835v291.536a8.834,8.834,0,0,0,8.834,8.834H611.6a8.834,8.834,0,0,0,8.235-5.636l59.616-153.475a3.534,3.534,0,0,1,6.828,1.279v149a8.834,8.834,0,0,0,8.834,8.834h35.338a8.834,8.834,0,0,0,8.834-8.834V-2040.37a8.835,8.835,0,0,0-8.834-8.835H690.287a8.835,8.835,0,0,0-8.235,5.636l-59.617,153.475A3.533,3.533,0,0,1,615.608-1891.373Z" fill="#1d1d1e"/>
    <path id="Path_9" data-name="Path 9" d="M935.978-2049.205h-9.2a8.835,8.835,0,0,0-8.638,6.981L877.592-1853.28a3.533,3.533,0,0,1-6.91,0l-40.546-188.944a8.835,8.835,0,0,0-8.638-6.981H768.124a8.836,8.836,0,0,0-8.835,8.835v291.536a8.835,8.835,0,0,0,8.835,8.834h35.338a8.834,8.834,0,0,0,8.834-8.834v-124.488a1.767,1.767,0,0,1,3.495-.366L842.633-1747a8.834,8.834,0,0,0,8.643,7H897a8.835,8.835,0,0,0,8.643-7l26.842-126.685a1.767,1.767,0,0,1,3.5.366v124.488a8.834,8.834,0,0,0,8.834,8.834H980.15a8.834,8.834,0,0,0,8.834-8.834V-2040.37a8.835,8.835,0,0,0-8.834-8.835H935.978Z" fill="#1d1d1e"/>
    <path id="Path_10" data-name="Path 10" d="M510.336-1582.288h-42.18a5.273,5.273,0,0,1-5.273-5.273v-117.754a8.787,8.787,0,0,0-8.787-8.787H418.945a8.787,8.787,0,0,0-8.787,8.787v289.991a8.788,8.788,0,0,0,8.787,8.788H454.1a8.788,8.788,0,0,0,8.787-8.788V-1524.29a5.273,5.273,0,0,1,5.273-5.273h42.18a5.273,5.273,0,0,1,5.273,5.273v108.966a8.788,8.788,0,0,0,8.788,8.788h35.15a8.789,8.789,0,0,0,8.788-8.788v-289.991a8.788,8.788,0,0,0-8.788-8.787H524.4a8.787,8.787,0,0,0-8.788,8.787v117.754A5.273,5.273,0,0,1,510.336-1582.288Z" fill="#1d1d1e"/>
    <path id="Path_11" data-name="Path 11" d="M-219.012-1916.952h-42.321a5.29,5.29,0,0,1-5.29-5.29v-118.146a8.818,8.818,0,0,0-8.817-8.817h-35.267a8.817,8.817,0,0,0-8.817,8.817v290.956a8.817,8.817,0,0,0,8.817,8.817h35.267a8.818,8.818,0,0,0,8.817-8.817v-109.329a5.289,5.289,0,0,1,5.29-5.29h42.321a5.29,5.29,0,0,1,5.29,5.29v109.329a8.817,8.817,0,0,0,8.817,8.817h35.267a8.817,8.817,0,0,0,8.817-8.817v-290.956a8.817,8.817,0,0,0-8.817-8.817H-204.9a8.817,8.817,0,0,0-8.817,8.817v118.146A5.291,5.291,0,0,1-219.012-1916.952Z" fill="#1d1d1e"/>
    <path id="Path_12" data-name="Path 12" d="M279.8-2049.205H261.844a66.19,66.19,0,0,0-66.116,66.117v176.971A66.19,66.19,0,0,0,261.844-1740H279.8a66.191,66.191,0,0,0,66.117-66.117v-176.971A66.191,66.191,0,0,0,279.8-2049.205Zm13.11,243.088a13.284,13.284,0,0,1-13.11,13.11H261.844a13.284,13.284,0,0,1-13.11-13.11v-176.971a13.285,13.285,0,0,1,13.11-13.11H279.8a13.285,13.285,0,0,1,13.11,13.11Z" fill="#1d1d1e"/>
    <path id="Path_13" data-name="Path 13" d="M135.053-2044.755l-11.882,73.042a1.767,1.767,0,0,1-3.489-.007l-11.116-70.035a8.835,8.835,0,0,0-8.725-7.45H57.932a5.3,5.3,0,0,0-5.1,6.757L93.89-1898.757a8.829,8.829,0,0,1,.014,4.8l-41.12,147.226a5.3,5.3,0,0,0,5.1,6.727h46.992a5.3,5.3,0,0,0,5.261-4.65l9.685-66.025a1.767,1.767,0,0,1,3.507,0l9.685,66.025a5.3,5.3,0,0,0,5.26,4.65h46.989a5.3,5.3,0,0,0,5.1-6.729L149.216-1893.8a8.835,8.835,0,0,1,.013-4.808l41.1-143.836a5.3,5.3,0,0,0-5.1-6.757H140.285A5.3,5.3,0,0,0,135.053-2044.755Z" fill="#1d1d1e"/>
    <path id="Path_14" data-name="Path 14" d="M189.154-1459.352h-24.6a5.271,5.271,0,0,1-5.271-5.271v-240.695a8.784,8.784,0,0,0-8.784-8.784H115.364a8.784,8.784,0,0,0-8.784,8.784v240.695a5.271,5.271,0,0,1-5.271,5.271h-24.6a5.27,5.27,0,0,1-5.27-5.271v-240.695a8.785,8.785,0,0,0-8.785-8.784H27.519a8.784,8.784,0,0,0-8.784,8.784v289.888a8.784,8.784,0,0,0,8.784,8.784H238.347a8.784,8.784,0,0,0,8.784-8.784v-289.888a8.784,8.784,0,0,0-8.784-8.784H203.209a8.785,8.785,0,0,0-8.785,8.784v240.695A5.27,5.27,0,0,1,189.154-1459.352Z" fill="#1d1d1e"/>
  </g>
</svg>
