<svg xmlns="http://www.w3.org/2000/svg" width="1920" height="1080" viewBox="0 0 1920 1080">
  <g id="Team" transform="translate(-5421.824 2109.639)">
    <rect id="Rectangle_163" data-name="Rectangle 163" width="1920" height="1080" transform="translate(5421.824 -2109.639)" fill="#141416"/>
    <path id="Path_196" data-name="Path 196" d="M6461.516-1435.088c41.484-4.208,80.793-13.171,110.125-30.106l2.03-1.172c46.137-26.637,63.526-71.356,62.691-108.9-.737-33.138,20.47-66.479,63.581-92.139" fill="none" stroke="#666668" stroke-linecap="round" stroke-linejoin="round" stroke-width="3"/>
    <path id="Path_197" data-name="Path 197" d="M6401.714-1431.965q9.468-.093,19.015-.419" fill="none" stroke="#666668" stroke-linecap="round" stroke-linejoin="round" stroke-width="3"/>
    <path id="Path_198" data-name="Path 198" d="M6202.98-1461.731c41.593,21.876,101.269,29.008,158.822,29.773" fill="none" stroke="#666668" stroke-linecap="round" stroke-linejoin="round" stroke-width="3"/>
    <path id="Path_199" data-name="Path 199" d="M6100.087-1645.427c23.6,21.579,34.974,46.357,34.157,71.066a119.994,119.994,0,0,0,5.3,39.206" fill="none" stroke="#666668" stroke-linecap="round" stroke-linejoin="round" stroke-width="3"/>
    <path id="Path_200" data-name="Path 200" d="M5946.409-1703.684c33.134,2.972,65.286,10.248,93.729,21.833" fill="none" stroke="#666668" stroke-linecap="round" stroke-linejoin="round" stroke-width="3"/>
    <path id="Path_201" data-name="Path 201" d="M5775.585-1678.722c34.933-15.367,75.88-24.055,117.551-26.054" fill="none" stroke="#666668" stroke-linecap="round" stroke-linejoin="round" stroke-width="3"/>
    <path id="Path_202" data-name="Path 202" d="M7084.069-1578.372c-.081,33.152-22.116,66.362-66.065,91.736-44.554,25.723-103.055,38.442-161.261,38.134-65.322-.346-136.869,5.832-183.209,32.586l-3.174,1.833c-46.136,26.637-63.527,71.356-62.692,108.9.752,33.763-21.275,67.736-66.039,93.581-87.581,50.566-229.561,50.822-316.595.572-44.484-25.684-66.142-59.578-65.025-93.343,1.243-37.55-15.755-82.176-61.6-108.646l-3.155-1.822c-46.05-26.587-117.439-32.538-182.766-31.956-58.21.519-116.575-11.988-160.85-37.551-87.085-50.279-86.708-132.029.792-182.67q8.882-5.139,18.477-9.589" fill="none" stroke="#666668" stroke-linecap="round" stroke-linejoin="round" stroke-width="3"/>
    <path id="Path_203" data-name="Path 203" d="M6392.3-1432.74c-36.23-1.551-73.465,5.71-101.268,21.762-22.7,13.1-35.245,29.836-37.628,46.92" fill="none" stroke="#666668" stroke-linecap="round" stroke-linejoin="round" stroke-width="3"/>
    <path id="Path_204" data-name="Path 204" d="M6450.376-1421.845a194.062,194.062,0,0,0-48.648-10.29" fill="none" stroke="#666668" stroke-linecap="round" stroke-linejoin="round" stroke-width="3"/>
    <path id="Path_205" data-name="Path 205" d="M6418.224-1287.208c19.952-3.443,38.775-9.722,54.558-18.834,50.5-29.16,50.761-76.288.571-105.266a135.211,135.211,0,0,0-14.919-7.392" fill="none" stroke="#666668" stroke-linecap="round" stroke-linejoin="round" stroke-width="3"/>
    <path id="Path_206" data-name="Path 206" d="M6267.226-1324.042a93.88,93.88,0,0,0,23.231,18.329,151.225,151.225,0,0,0,35.683,14.536" fill="none" stroke="#666668" stroke-linecap="round" stroke-linejoin="round" stroke-width="3"/>
    <g id="Group_21" data-name="Group 21">
      <g id="Group_20" data-name="Group 20">
        <path id="Path_207" data-name="Path 207" d="M6410.454-1498.379c.736,14.714,5.334,20.232,11.22,20.416s9.748-3.127,10.667-4.782" fill="none" stroke="#e78f62" stroke-linecap="round" stroke-linejoin="round" stroke-width="3"/>
        <path id="Path_208" data-name="Path 208" d="M6410.454-1464.621c0,17.289,9.8,25.325,10.812,35.074" fill="none" stroke="#e78f62" stroke-linecap="round" stroke-linejoin="round" stroke-width="3"/>
        <path id="Path_209" data-name="Path 209" d="M6398.688-1455.341c1.724-6.311,2.992-13.948,3.963-17.024,1.482-4.692,2.717-5.557,10.094-9.807" fill="none" stroke="#e78f62" stroke-linecap="round" stroke-linejoin="round" stroke-width="3"/>
        <path id="Path_210" data-name="Path 210" d="M6401.691-1506.914c.664,8.194,9.793,7.059,14.235,3.529s15.324-3.382,15.619,1.177,0,8.823,2.353,7.941-.295-7.647,2.058-7.794,2.206,2.794,2.059,5.882,4.853.735,3.236-9.118-5.883-15.735-15.736-15.294-8.775,3.235-12.77,4.265S6400.808-1517.8,6401.691-1506.914Z" fill="none" stroke="#e78f62" stroke-linecap="round" stroke-linejoin="round" stroke-width="3"/>
        <path id="Path_211" data-name="Path 211" d="M6437.152-1494.15c-.13,8.85,2.873,11.462,2.873,11.462s-2.208,9.276-7.684,10.565c-2.768,5.415-4.96,5.673-3.284,15.987" fill="none" stroke="#e78f62" stroke-linecap="round" stroke-linejoin="round" stroke-width="3"/>
        <path id="Path_212" data-name="Path 212" d="M6419.709-1478.245c.115,4.137,6.36,4.644,7.159,6.741a25.882,25.882,0,0,0,2.543,4.583" fill="none" stroke="#e78f62" stroke-linecap="round" stroke-linejoin="round" stroke-width="3"/>
        <path id="Path_213" data-name="Path 213" d="M6440.025-1482.688c.015-2.464-1.891-5.894-1.891-5.894,3.354,1.448,5.489,3.291,4.65,6.41s-2.363,8.836-6.632,13.944a17.971,17.971,0,0,1-3.811-3.9" fill="none" stroke="#e78f62" stroke-linecap="round" stroke-linejoin="round" stroke-width="3"/>
        <path id="Path_214" data-name="Path 214" d="M6426.343-1472.219c-.711,3.762-1.169,5.3-1.169,5.3-5.565-4.814-7.122-6.856-7.3-12.048" fill="none" stroke="#e78f62" stroke-linecap="round" stroke-linejoin="round" stroke-width="3"/>
        <path id="Path_215" data-name="Path 215" d="M6465.156-1443.587c.127-6.017-.49-16.369-.253-20.265.714-11.755.407-13.484-7.613-17.257a89.816,89.816,0,0,0-15.96-5.6" fill="none" stroke="#e78f62" stroke-linecap="round" stroke-linejoin="round" stroke-width="3"/>
        <path id="Path_216" data-name="Path 216" d="M6450.056-1471.049c-1.258,7.388-.181,17.851-.5,24.453" fill="none" stroke="#e78f62" stroke-linecap="round" stroke-linejoin="round" stroke-width="3"/>
        <path id="Path_217" data-name="Path 217" d="M6453.315-1414.242" fill="none" stroke="#e78f62" stroke-linecap="round" stroke-linejoin="round" stroke-width="3"/>
      </g>
      <path id="Path_218" data-name="Path 218" d="M6456.853-1407.316a14.066,14.066,0,0,1,3.685,7.644c.7,4.73-9.462,5.256-14.368,2.978-4-1.857-2.066-5.918,1.685-11.358,2.6-3.77,3.463-28.716,3.5-31.349" fill="none" stroke="#e78f62" stroke-linecap="round" stroke-linejoin="round" stroke-width="3"/>
      <path id="Path_219" data-name="Path 219" d="M6466.348-1440.741c-.721-4.368-3.722-4.6-8.976-5.035s-7.664-1.811-8.609,1.049-.381,5.081,4.552,5.738S6466.786-1438.089,6466.348-1440.741Z" fill="none" stroke="#e78f62" stroke-linecap="round" stroke-linejoin="round" stroke-width="3"/>
      <path id="Path_220" data-name="Path 220" d="M6462.328-1438.663c-2.787,12.013-4.164,20.189-4.3,24.421s.083,7.8.849,9.325" fill="none" stroke="#e78f62" stroke-linecap="round" stroke-linejoin="round" stroke-width="3"/>
      <path id="Path_221" data-name="Path 221" d="M6385.852-1418.729c3.423-3.043,10.772-27.224,11.434-29.773" fill="none" stroke="#e78f62" stroke-linecap="round" stroke-linejoin="round" stroke-width="3"/>
      <path id="Path_222" data-name="Path 222" d="M6409.99-1447.1c-5.566,11.005-10.409,18-11.551,22.074s-3.085,7.6-2.7,9.259" fill="none" stroke="#e78f62" stroke-linecap="round" stroke-linejoin="round" stroke-width="3"/>
      <path id="Path_223" data-name="Path 223" d="M6388-1418.739c-9.706-.273-14.04,4.9-10.759,8.048s10.572,4.392,14.767,1.248,4.741-5.154,2.417-8.045" fill="none" stroke="#e78f62" stroke-linecap="round" stroke-linejoin="round" stroke-width="3"/>
      <path id="Path_224" data-name="Path 224" d="M6413.521-1448.525c-.417,2.264-.537,2.93-2.145,1.929s-5-4.039-8.161-4.039-7.351,3.163-7.16.926.191-4.858,2.633-5.632,9.983-1.405,13.182,1.71" fill="none" stroke="#e78f62" stroke-linecap="round" stroke-linejoin="round" stroke-width="3"/>
    </g>
    <path id="Path_225" data-name="Path 225" d="M6772.1-1633.278a21.488,21.488,0,0,1-12.9-2.786" fill="none" stroke="#666668" stroke-linecap="round" stroke-linejoin="round" stroke-width="3"/>
    <path id="Path_226" data-name="Path 226" d="M6893.084-1649.809a218.824,218.824,0,0,0-84.381,4.037" fill="none" stroke="#666668" stroke-linecap="round" stroke-linejoin="round" stroke-width="3"/>
    <path id="Path_227" data-name="Path 227" d="M6983.286-1747.481c-64.253-24.224-145.576-27.279-214.518-9.216" fill="none" stroke="#666668" stroke-linecap="round" stroke-linejoin="round" stroke-width="3"/>
    <path id="Path_228" data-name="Path 228" d="M7010.053-1658.168l60.573,34.971a8.526,8.526,0,0,0,12.708-6.182c3.356-23.939-4.784-48.276-24.44-70.019" fill="none" stroke="#666668" stroke-linecap="round" stroke-linejoin="round" stroke-width="3"/>
    <line id="Line_41" data-name="Line 41" x2="27.908" y2="16.113" transform="translate(6975.226 -1678.276)" fill="none" stroke="#666668" stroke-linecap="round" stroke-linejoin="round" stroke-width="3"/>
    <path id="Path_229" data-name="Path 229" d="M6753.224-1700.853l5.973,3.448a21.25,21.25,0,0,0,19.707.891c36.082-17.112,84.335-21.28,126.162-12.5l.055-.007.122.045q5.076,1.071,10.017,2.4" fill="none" stroke="#666668" stroke-linecap="round" stroke-linejoin="round" stroke-width="3"/>
    <path id="Path_230" data-name="Path 230" d="M7007.6-1652.766l61.1,35.279a9.994,9.994,0,0,0,14.938-7.559q.163-1.518.263-3.038" fill="none" stroke="#666668" stroke-linecap="round" stroke-linejoin="round" stroke-width="3"/>
    <line id="Line_42" data-name="Line 42" x2="13.087" y2="7.556" transform="translate(6986.124 -1665.164)" fill="none" stroke="#666668" stroke-linecap="round" stroke-linejoin="round" stroke-width="3"/>
    <path id="Path_231" data-name="Path 231" d="M6751.725-1694.9l3.652,2.109a29.948,29.948,0,0,0,27.071,1.474c35.658-15.747,82.146-19.373,122.618-10.876l.055-.006.122.045q3.384.713,6.708,1.539" fill="none" stroke="#666668" stroke-linecap="round" stroke-linejoin="round" stroke-width="3"/>
    <path id="Path_232" data-name="Path 232" d="M7014.662-1599.478l55.964,32.31a8.527,8.527,0,0,0,12.708-6.183,75.523,75.523,0,0,0,.735-10.672" fill="none" stroke="#666668" stroke-linecap="round" stroke-linejoin="round" stroke-width="3"/>
    <path id="Path_233" data-name="Path 233" d="M6804.537-1649.97c27.738-7.769,59.235-9.487,88.547-5.151" fill="none" stroke="#666668" stroke-linecap="round" stroke-linejoin="round" stroke-width="3"/>
    <path id="Path_234" data-name="Path 234" d="M6745.2-1649.456l13.994,8.08a21.286,21.286,0,0,0,18.754,1.313" fill="none" stroke="#666668" stroke-linecap="round" stroke-linejoin="round" stroke-width="3"/>
    <line id="Line_43" data-name="Line 43" y2="59.162" transform="translate(7084.069 -1637.534)" fill="none" stroke="#666668" stroke-linecap="round" stroke-linejoin="round" stroke-width="3"/>
    <path id="Path_235" data-name="Path 235" d="M7084.069-1578.371a75.613,75.613,0,0,1-.731,10.29,8.535,8.535,0,0,1-12.716,6.225L7053.053-1572l-35.447-20.465" fill="none" stroke="#666668" stroke-linecap="round" stroke-linejoin="round" stroke-width="3"/>
    <line id="Line_44" data-name="Line 44" x1="14.88" y1="8.591" transform="translate(6744.317 -1644.655)" fill="none" stroke="#666668" stroke-linecap="round" stroke-linejoin="round" stroke-width="3"/>
    <g id="Group_22" data-name="Group 22">
      <path id="Path_236" data-name="Path 236" d="M6985.215-1736.213l89.563,44.753a2.506,2.506,0,0,0,3.6-1.917l10.258-78.648a5.012,5.012,0,0,0-2.729-5.131l-89.563-44.753a2.506,2.506,0,0,0-3.6,1.918l-10.258,78.647A5.01,5.01,0,0,0,6985.215-1736.213Z" fill="none" stroke="#666668" stroke-linecap="round" stroke-linejoin="round" stroke-width="3"/>
      <line id="Line_45" data-name="Line 45" x1="95.904" y1="47.921" transform="translate(6983.661 -1750.354)" fill="none" stroke="#666668" stroke-linecap="round" stroke-linejoin="round" stroke-width="3"/>
      <path id="Path_237" data-name="Path 237" d="M7034.344-1711.664l22.254,11.12-16.314,8.256a6.682,6.682,0,0,1-6,.015L7018-1700.406a1.671,1.671,0,0,1-.007-2.985Z" fill="none" stroke="#666668" stroke-linecap="round" stroke-linejoin="round" stroke-width="3"/>
    </g>
    <g id="Group_24" data-name="Group 24">
      <path id="Path_238" data-name="Path 238" d="M6901.422-1687.218a2.566,2.566,0,0,1,2.848-.177l4.237,2.447" fill="none" stroke="#666668" stroke-linecap="round" stroke-linejoin="round" stroke-width="3"/>
      <path id="Path_239" data-name="Path 239" d="M6941.383-1665.968l7.306,4.219a12.9,12.9,0,0,1,6.454,11.178v32.778a2.55,2.55,0,0,1-1.046,2.076" fill="none" stroke="#666668" stroke-linecap="round" stroke-linejoin="round" stroke-width="3"/>
      <line id="Line_46" data-name="Line 46" x1="40.749" y1="23.526" transform="translate(6966.666 -1692.915)" fill="none" stroke="#666668" stroke-linecap="round" stroke-linejoin="round" stroke-width="3"/>
      <path id="Path_240" data-name="Path 240" d="M6967.868-1699.617l14.726-8.5a2.583,2.583,0,0,1,2.582,0l58.775,33.933a1.292,1.292,0,0,1,0,2.236l-19.2,11.082a2.576,2.576,0,0,1-2.581,0l-9.051-5.225" fill="none" stroke="#666668" stroke-linecap="round" stroke-linejoin="round" stroke-width="3"/>
      <path id="Path_241" data-name="Path 241" d="M7012.757-1665.013l8.625,4.98a4.165,4.165,0,0,0,4.165,0l18.4-10.626a1.278,1.278,0,0,0,.645-1.117v-1.309" fill="none" stroke="#666668" stroke-linecap="round" stroke-linejoin="round" stroke-width="3"/>
      <line id="Line_47" data-name="Line 47" x2="38.475" y2="22.213" transform="translate(6968.542 -1690.541)" fill="none" stroke="#666668" stroke-linecap="round" stroke-linejoin="round" stroke-width="3"/>
      <path id="Path_242" data-name="Path 242" d="M6962.273-1748.143c5.545,3.445,13.6,9.46,10.249,15.768s-8.081,12.219-10.249,8.672-6.9,2.956-3.745,7.095,8.475,13.8,2.168,19.907-8.278,5.716-5.716,11.234-1.538,12.813-5.233,13.989-7.86,3.075-8.364,5.51c-9.659-4.871-12.885-.891-23.8-8.114s-11.338-14.446-6.467-24.777,5.711-10.162,12.263-14.446,5.711-7.223,5.795-12.262.336-19.4,12.178-23.181S6958.928-1750.221,6962.273-1748.143Z" fill="none" stroke="#f1c354" stroke-linecap="round" stroke-linejoin="round" stroke-width="3"/>
      <path id="Path_243" data-name="Path 243" d="M6971.5-1730.542c.245,4.118-2.848,7.7-2.929,9.327s1.407,5.768-5.442,13.709" fill="none" stroke="#f1c354" stroke-linecap="round" stroke-linejoin="round" stroke-width="3"/>
      <path id="Path_244" data-name="Path 244" d="M6979.378-1648.19c6.484-4.6,7.55-14.188,7.55-15.1s-3.645-7.029-5.077-6.9,1.8,3.576-2.8,11.469-8.642,5.2-5.736,7.629S6978.136-1647.309,6979.378-1648.19Z" fill="none" stroke="#f1c354" stroke-linecap="round" stroke-linejoin="round" stroke-width="3"/>
      <path id="Path_245" data-name="Path 245" d="M6973-1652.678c-5.1-1.426-8.3-3.676-10.065-6.377s-2.55-4.183-2.681-7.3" fill="none" stroke="#f1c354" stroke-linecap="round" stroke-linejoin="round" stroke-width="3"/>
      <path id="Path_246" data-name="Path 246" d="M6961.579-1697.674c6.6,5.525,7.609,7.788,9.936,12.692s8.264,14.224,9.959,15.733" fill="none" stroke="#f1c354" stroke-linecap="round" stroke-linejoin="round" stroke-width="3"/>
      <path id="Path_247" data-name="Path 247" d="M6986.708-1661.465c6.335,6.956,8.222,8.325,8.222,8.325" fill="none" stroke="#f1c354" stroke-linecap="round" stroke-linejoin="round" stroke-width="3"/>
      <path id="Path_248" data-name="Path 248" d="M6993.692-1651.914c3.521-3.429,9.915-10.194,12.047-13.9s2.178-5.28,2.038-7.16-.5-14.159,5.83-10.353c5.134,3.085,6.219,5.843,3.015,10.7-3.506,5.316-2.855,5.014-4.387,9.053s-8.985,22.983-14.695,23.679-17.492-8.8-17.492-8.8" fill="none" stroke="#f1c354" stroke-linecap="round" stroke-linejoin="round" stroke-width="3"/>
      <path id="Path_249" data-name="Path 249" d="M6962.617-1699.289c9.7.01,15.1-3.218,18.857-3.962s5.127.1,9.345,3.962,2.8,3.858,1.448,3.214-6.377-4.187-7.988-3.93-3.092,1.311-5.153,2.331,2.383,2.109,3.736,1.919,2.19,2.128.129,1.741a43.353,43.353,0,0,0-8.31-.451c-4.381,0-9.012.495-9.012.495" fill="none" stroke="#f1c354" stroke-linecap="round" stroke-linejoin="round" stroke-width="3"/>
      <line id="Line_48" data-name="Line 48" x1="7.349" y2="4.407" transform="translate(6946.747 -1615.718)" fill="none" stroke="#666668" stroke-linecap="round" stroke-linejoin="round" stroke-width="3"/>
      <line id="Line_49" data-name="Line 49" x1="7.186" y2="4.291" transform="translate(6894.236 -1687.218)" fill="none" stroke="#666668" stroke-linecap="round" stroke-linejoin="round" stroke-width="3"/>
      <path id="Path_250" data-name="Path 250" d="M6904.509-1633.951l-.278.161c-5.8,3.351-6.435,8.421-1.408,11.323l42.487,24.475c5.027,2.9,13.808,2.538,19.613-.813l27.4-15.818c5.442-3.141,6.336-7.794,2.285-10.754" fill="none" stroke="#666668" stroke-linecap="round" stroke-linejoin="round" stroke-width="3"/>
      <path id="Path_251" data-name="Path 251" d="M6899.465-1618.193c-.255,2.05.845,4.043,3.358,5.494l42.487,24.474c5.027,2.9,13.808,2.539,19.613-.813l27.4-15.817c3.2-1.847,4.826-4.215,4.8-6.456" fill="none" stroke="#666668" stroke-linecap="round" stroke-linejoin="round" stroke-width="3"/>
      <line id="Line_50" data-name="Line 50" y1="9.537" transform="translate(6997.121 -1620.848)" fill="none" stroke="#666668" stroke-linecap="round" stroke-linejoin="round" stroke-width="3"/>
      <line id="Line_51" data-name="Line 51" y1="9.19" transform="translate(6899.429 -1627.002)" fill="none" stroke="#666668" stroke-linecap="round" stroke-linejoin="round" stroke-width="3"/>
      <path id="Path_252" data-name="Path 252" d="M6953.132-1579.424v9.005c0,1.5-2.1,2.71-4.689,2.71s-4.689-1.213-4.689-2.71v-9.005" fill="none" stroke="#666668" stroke-linecap="round" stroke-linejoin="round" stroke-width="3"/>
      <ellipse id="Ellipse_2" data-name="Ellipse 2" cx="4.689" cy="2.71" rx="4.689" ry="2.71" transform="translate(6943.754 -1582.134)" fill="none" stroke="#666668" stroke-linecap="round" stroke-linejoin="round" stroke-width="3"/>
      <g id="Group_23" data-name="Group 23">
        <path id="Path_253" data-name="Path 253" d="M6950.158-1586.483v6.335c0,.535-.768.97-1.715.97s-1.715-.435-1.715-.97v-6.335c0-.322.276-.607.7-.783" fill="none" stroke="#666668" stroke-linecap="round" stroke-linejoin="round" stroke-width="3"/>
      </g>
      <path id="Path_254" data-name="Path 254" d="M7001.39-1572.207l-.313.04-40.551,5.189c-2.27.291-3.51,1.7-2.581,2.938l16.891,22.468c1.236,1.644-2.809,2.829-4.4,1.287l-21.7-21.06c-1.194-1.158-3.91-1.411-5.653-.527l-31.69,16.085c-2.32,1.177-5.545-.686-3.507-2.025l27.859-18.3c1.532-1.007,1.093-2.575-.913-3.264l-36.477-12.527c-2.669-.917-.617-3.252,2.231-2.538l38.914,9.752a5.724,5.724,0,0,0,4.249-.538" fill="none" stroke="#666668" stroke-linecap="round" stroke-linejoin="round" stroke-width="3"/>
      <path id="Path_255" data-name="Path 255" d="M6955.372-1573.862l1.966-12.557-2.52,11.2c-.209,1.337,1.74,2.463,4.057,2.342l41.361-2.158" fill="none" stroke="#666668" stroke-linecap="round" stroke-linejoin="round" stroke-width="3"/>
      <path id="Path_256" data-name="Path 256" d="M7003.685-1568.462c-.153.5-.759.96-1.891,1.1l-41.268,5.28a5.682,5.682,0,0,0-.951.2" fill="none" stroke="#666668" stroke-linecap="round" stroke-linejoin="round" stroke-width="3"/>
      <path id="Path_257" data-name="Path 257" d="M6975.066-1536.018c-.071,1.268-3.26,1.961-4.627.634l-21.7-21.06c-1.194-1.158-3.91-1.411-5.653-.527l-31.69,16.084c-1.885.957-4.368-.093-4.139-1.239l-.015-4.551" fill="none" stroke="#666668" stroke-linecap="round" stroke-linejoin="round" stroke-width="3"/>
      <path id="Path_258" data-name="Path 258" d="M6933.8-1564.827,6898.361-1577c-1-.344-1.338-.887-1.218-1.394l-.023-4.689" fill="none" stroke="#666668" stroke-linecap="round" stroke-linejoin="round" stroke-width="3"/>
      <line id="Line_52" data-name="Line 52" y2="4.928" transform="translate(6975.065 -1540.947)" fill="none" stroke="#666668" stroke-linecap="round" stroke-linejoin="round" stroke-width="3"/>
      <line id="Line_53" data-name="Line 53" y2="2.188" transform="translate(7007.375 -1635.87)" fill="none" stroke="#666668" stroke-linecap="round" stroke-linejoin="round" stroke-width="3"/>
      <line id="Line_54" data-name="Line 54" y2="2.188" transform="translate(6963.295 -1616.989)" fill="none" stroke="#666668" stroke-linecap="round" stroke-linejoin="round" stroke-width="3"/>
      <path id="Path_259" data-name="Path 259" d="M6908.769-1631.491c3.315,11.168,18.413,19.07,28.291,21.892s17.073,1.092,19.613-1.712,5.579-5.265,4.906-9.537-1.556-21.007,3.33-35.922" fill="none" stroke="#f1c354" stroke-linecap="round" stroke-linejoin="round" stroke-width="3"/>
      <path id="Path_260" data-name="Path 260" d="M6984.964-1630.256l3.284-3.007" fill="none" stroke="#f1c354" stroke-linecap="round" stroke-linejoin="round" stroke-width="3"/>
      <path id="Path_261" data-name="Path 261" d="M6909.053-1630.625c3.093,8.68,6.212,12.513,23.049,21.875s26.148,2.613,30.626-1.306c.659-.577,1.678-1.488,2.936-2.621" fill="none" stroke="#f1c354" stroke-linecap="round" stroke-linejoin="round" stroke-width="3"/>
      <path id="Path_262" data-name="Path 262" d="M6975.542-1649.315c-5.463.053-13.873,8.024-13.873,8.024" fill="none" stroke="#f1c354" stroke-linecap="round" stroke-linejoin="round" stroke-width="3"/>
      <path id="Path_263" data-name="Path 263" d="M6973-1648.835c-3-4.293-8.809-5.584-8.809-5.584" fill="none" stroke="#f1c354" stroke-linecap="round" stroke-linejoin="round" stroke-width="3"/>
      <path id="Path_264" data-name="Path 264" d="M7001.71-1629.655c7.473,18.442,22.723,50.292,21.508,55.15s-4.57,8.935-10.72,8.787-9.414.723-13.639-13.531a193.218,193.218,0,0,0-8.89-24.249" fill="none" stroke="#f1c354" stroke-linecap="round" stroke-linejoin="round" stroke-width="3"/>
      <path id="Path_265" data-name="Path 265" d="M6943.957-1611.175l-48.162-27.807a5.422,5.422,0,0,1-2.711-4.695v-37.1a2.581,2.581,0,0,1,3.872-2.236l48.163,27.807a5.421,5.421,0,0,1,2.71,4.694v37.1A2.582,2.582,0,0,1,6943.957-1611.175Z" fill="none" stroke="#666668" stroke-linecap="round" stroke-linejoin="round" stroke-width="3"/>
      <path id="Path_266" data-name="Path 266" d="M7006.72-1634.736l-35.958,20.761a3.557,3.557,0,0,1-3.556,0l-3.255-1.879a1.31,1.31,0,0,1,0-2.27l35.958-20.76a3.553,3.553,0,0,1,3.557,0l3.254,1.879A1.31,1.31,0,0,1,7006.72-1634.736Z" fill="none" stroke="#666668" stroke-linecap="round" stroke-linejoin="round" stroke-width="3"/>
      <path id="Path_267" data-name="Path 267" d="M7007.376-1633.682a1.3,1.3,0,0,1-.656,1.135l-35.958,20.76a3.557,3.557,0,0,1-3.556,0l-3.255-1.879a1.3,1.3,0,0,1-.655-1.135" fill="none" stroke="#666668" stroke-linecap="round" stroke-linejoin="round" stroke-width="3"/>
    </g>
    <g id="Group_25" data-name="Group 25">
      <path id="Path_268" data-name="Path 268" d="M6738.374-1610.806c-.525,3.48.25,3.861-2.4,5s-5.75,3.547-8.527,8.058-12.516,9.323-18.731,6.037-.444-9.336,3.529-12.813,5.389-5.36,7.184-6.754,4.17-3.3,4.17-3.3c-.489,2.147-.908,4.3,3.823,4.164s7.905-1.951,9.267-4.578S6738.678-1612.819,6738.374-1610.806Z" fill="none" stroke="#edaf5a" stroke-linecap="round" stroke-linejoin="round" stroke-width="3"/>
      <path id="Path_269" data-name="Path 269" d="M6756.634-1736.653c1.471,12.232,4.978,27.087,3.653,29.071s-12.346,9.2-23.117,5.908-9.445-13.685-6-44.444" fill="none" stroke="#edaf5a" stroke-linecap="round" stroke-linejoin="round" stroke-width="3"/>
      <path id="Path_270" data-name="Path 270" d="M6753.356-1750.778c-1.7-3.724-20.663-10.893-27.37-13.979-.121,1.554-.694,4.32-3.647,7.608s-1.243,1.561-2.27-.361c0,0-2.255,2.48-.51,4.044s26.749,17.379,34.574,17.46,21.9-37.473,25.078-47.168-.392-9.326-4.53-14.282c-5.127-6.142-7.94-9.765-7.94-9.765" fill="none" stroke="#edaf5a" stroke-linecap="round" stroke-linejoin="round" stroke-width="3"/>
      <path id="Path_271" data-name="Path 271" d="M6763.656-1788.841a45.976,45.976,0,0,0-3.152,8.018c-2.987,9.84-4.126,17.845-8.682,28.388" fill="none" stroke="#edaf5a" stroke-linecap="round" stroke-linejoin="round" stroke-width="3"/>
      <path id="Path_272" data-name="Path 272" d="M6721.533-1756.25c-4.7-3.346-10-3.135-12.526-5.5s-2.655-10.677-4-13.968,2.418-5.254,3.939-1.063,5.081,10.785,7.17,10.463,1.936-2.976,1.638-5.257-5.563-7.726-4.049-8.9,6.145,3.116,7.594,6.323,2.02,3.3,1.69,6.322,2.76,4.576,2.76,4.576" fill="none" stroke="#edaf5a" stroke-linecap="round" stroke-linejoin="round" stroke-width="3"/>
      <path id="Path_273" data-name="Path 273" d="M6750.029-1726.16a62.462,62.462,0,0,0-11.883.721c.127-2.6,0-5.6,0-5.6" fill="none" stroke="#edaf5a" stroke-linecap="round" stroke-linejoin="round" stroke-width="3"/>
      <path id="Path_274" data-name="Path 274" d="M6750.131-1790.545c1.958-.155,6.208,1.276,7.117-.086s9.493-16.59,9.493-16.59-.889-1.891-3.1-5.584c-16.45,18.03-24.812,29.208-29.456,51.576" fill="none" stroke="#edaf5a" stroke-linecap="round" stroke-linejoin="round" stroke-width="3"/>
      <path id="Path_275" data-name="Path 275" d="M6752.5-1790.354c1.617,3.282,2.628,4.625.457,6.566a58.765,58.765,0,0,0-17.245,23.212" fill="none" stroke="#edaf5a" stroke-linecap="round" stroke-linejoin="round" stroke-width="3"/>
      <path id="Path_276" data-name="Path 276" d="M6762.453-1821.055c2.1-3.8,2.268-6.72-.12-5.5s-2.4,2.947-4.3,2.707-2.815-.053-2.085-3.919.6-7.64-1.614-7.817-5.35,1.357-11.233-.3-5.029-6.827-3.44-8.962,5.531-8.441,17.149-6.369,12.463,12.294,11.67,16.173A39.229,39.229,0,0,1,6762.453-1821.055Z" fill="none" stroke="#edaf5a" stroke-linecap="round" stroke-linejoin="round" stroke-width="3"/>
      <path id="Path_277" data-name="Path 277" d="M6739.567-1838.01c-1.247,4.42-1.532,8.278-2.147,12.056-2.032,12.484-1.382,20.95,17.615,11.544" fill="none" stroke="#edaf5a" stroke-linecap="round" stroke-linejoin="round" stroke-width="3"/>
      <path id="Path_278" data-name="Path 278" d="M6762.453-1821.055c-1.319,1.838-1.22,6.39-1.22,6.39s-5.51,6.368-11.461,8.9-7.141,1.959-7.141,1.959a10.714,10.714,0,0,1-.638-6.606" fill="none" stroke="#edaf5a" stroke-linecap="round" stroke-linejoin="round" stroke-width="3"/>
      <path id="Path_279" data-name="Path 279" d="M6762.782-1811.862c.088-2.954-.381-3.033-1.549-2.8" fill="none" stroke="#edaf5a" stroke-linecap="round" stroke-linejoin="round" stroke-width="3"/>
      <path id="Path_280" data-name="Path 280" d="M6731.672-1802.054c-2.153-3.271-3.427-3.086-2.442-4.028,1.022-.978,7.852-8.288,7.852-8.288" fill="none" stroke="#edaf5a" stroke-linecap="round" stroke-linejoin="round" stroke-width="3"/>
      <path id="Path_281" data-name="Path 281" d="M6739.158-1811.276c-7.7,11.788-14.134,26.668-16.145,41.136" fill="none" stroke="#edaf5a" stroke-linecap="round" stroke-linejoin="round" stroke-width="3"/>
      <path id="Path_282" data-name="Path 282" d="M6730.657-1803.445c-3.333.879-3.9.392-4.225,3s-3.688,22.609-4.518,27.579" fill="none" stroke="#edaf5a" stroke-linecap="round" stroke-linejoin="round" stroke-width="3"/>
      <path id="Path_283" data-name="Path 283" d="M6753.812-1703.291c-4.184,17.658-7.879,27.041-7.157,37.8s-5.1,33.5-7.55,43.86c-.953,3.655-15.268,5.626-14.722,1.1,2.612-21.666,2.527-29.391,1.437-50.7-.955-18.648-2.619-39.647-1.9-52.6" fill="none" stroke="#edaf5a" stroke-linecap="round" stroke-linejoin="round" stroke-width="3"/>
      <path id="Path_284" data-name="Path 284" d="M6737.884-1607.195c-.453,3.4-.037,3.543-2.119,4.928s-3.705,2.568-4.633,2.365a5.591,5.591,0,0,1-1.673-.7" fill="none" stroke="#edaf5a" stroke-linecap="round" stroke-linejoin="round" stroke-width="3"/>
      <line id="Line_55" data-name="Line 55" x1="0.988" y2="7.846" transform="translate(6724.062 -1618.914)" fill="none" stroke="#edaf5a" stroke-linecap="round" stroke-linejoin="round" stroke-width="3"/>
      <line id="Line_56" data-name="Line 56" x1="1.111" y2="5.971" transform="translate(6735.633 -1619.47)" fill="none" stroke="#edaf5a" stroke-linecap="round" stroke-linejoin="round" stroke-width="3"/>
      <path id="Path_285" data-name="Path 285" d="M6719.559-1753.466c-4.478,22.141-2.478,37.529-5.878,39.814s-8.771-3.817-8.7-7.807,2.972-7.313,6.524-19.171a182.983,182.983,0,0,0,4.722-18.612" fill="none" stroke="#edaf5a" stroke-linecap="round" stroke-linejoin="round" stroke-width="3"/>
      <path id="Path_286" data-name="Path 286" d="M6726.018-1667.27c-10.808-11.666-14.563-13.613-18.708-14.135" fill="none" stroke="#edaf5a" stroke-linecap="round" stroke-linejoin="round" stroke-width="3"/>
      <path id="Path_287" data-name="Path 287" d="M6712-1679.886c6.2-10.041,12.119-22.331,12.119-22.331" fill="none" stroke="#edaf5a" stroke-linecap="round" stroke-linejoin="round" stroke-width="3"/>
      <path id="Path_288" data-name="Path 288" d="M6705.4-1719.266c-8.39,15.179-12.407,24.64-14.123,36.769s.371,10.509,4.773,12.947a141.32,141.32,0,0,1,16.1,9.75,127.158,127.158,0,0,1,12.668,11.579s.521.861,1.721-1.125" fill="none" stroke="#edaf5a" stroke-linecap="round" stroke-linejoin="round" stroke-width="3"/>
      <path id="Path_289" data-name="Path 289" d="M6724.937-1625.278c-4.733,1.595-7.071-.392-8.042-2.28-1.24-2.413.649-6.095,4.454-9.892a20.74,20.74,0,0,0,4.962-7.333" fill="none" stroke="#edaf5a" stroke-linecap="round" stroke-linejoin="round" stroke-width="3"/>
      <path id="Path_290" data-name="Path 290" d="M6729.319-1731.433c-7.569-1.46-7.725-3.232-9.025-3.976a8.532,8.532,0,0,1-3.059-2.87" fill="none" stroke="#edaf5a" stroke-linecap="round" stroke-linejoin="round" stroke-width="3"/>
      <path id="Path_291" data-name="Path 291" d="M6743.43-1803.69l2.245,2.137s-3.807,4.123-4.5,4.229-3.356-.326-3.622-1.23,1.124-5.036,1.686-5.664,3.043-.459,3.043-.459" fill="none" stroke="#edaf5a" stroke-linecap="round" stroke-linejoin="round" stroke-width="3"/>
      <path id="Path_292" data-name="Path 292" d="M6741.178-1797.324s-7.634,10.056-10.6,34.564" fill="none" stroke="#edaf5a" stroke-linecap="round" stroke-linejoin="round" stroke-width="3"/>
      <path id="Path_293" data-name="Path 293" d="M6738.487-1797.8c-8.069,14.429-10.963,19.688-14.278,33.343" fill="none" stroke="#edaf5a" stroke-linecap="round" stroke-linejoin="round" stroke-width="3"/>
      <path id="Path_294" data-name="Path 294" d="M6728.662-1747.6c-.244,2.339.142,2.765-.71,3.539a30.576,30.576,0,0,1-4.7,3.427,1.01,1.01,0,0,1-1.366-.418c-1.362-2.568-2.133-3.98-1.8-5.825.364-2.03,1.031-5.469,1.031-5.469" fill="none" stroke="#edaf5a" stroke-linecap="round" stroke-linejoin="round" stroke-width="3"/>
      <path id="Path_295" data-name="Path 295" d="M6724.07-1801.279c-3.136,4.694-4.056,18.705-4.4,24.553" fill="none" stroke="#edaf5a" stroke-linecap="round" stroke-linejoin="round" stroke-width="3"/>
      <path id="Path_296" data-name="Path 296" d="M6739.075-1836.091l-8.728,10.481a2.533,2.533,0,0,0-.3,2.8l2.382,4.524a.99.99,0,0,0,1.632.18l2.7-3.181" fill="none" stroke="#edaf5a" stroke-linecap="round" stroke-linejoin="round" stroke-width="3"/>
      <path id="Path_297" data-name="Path 297" d="M6710.889-1801.275c10.572-11,12.87-13.58,13.444-16.092s-3.79-8.132-5.91-8.017-16.637,10.536-22.66,16.571-9,9.872-7.314,13.241,4.221,6.752,13.267,4.829,16.843-4.137,20.78-6.918" fill="none" stroke="#edaf5a" stroke-linecap="round" stroke-linejoin="round" stroke-width="3"/>
      <path id="Path_298" data-name="Path 298" d="M6732.613-1818.041a21.673,21.673,0,0,0-8.9,2.293" fill="none" stroke="#edaf5a" stroke-linecap="round" stroke-linejoin="round" stroke-width="3"/>
      <path id="Path_299" data-name="Path 299" d="M6736.645-1817.529a9.447,9.447,0,0,0-2.585-.491" fill="none" stroke="#edaf5a" stroke-linecap="round" stroke-linejoin="round" stroke-width="3"/>
      <path id="Path_300" data-name="Path 300" d="M6724.475-1818.491c1.625-1.48,3.958-1.635,7.449-.76" fill="none" stroke="#edaf5a" stroke-linecap="round" stroke-linejoin="round" stroke-width="3"/>
      <path id="Path_301" data-name="Path 301" d="M6736.975-1834.771c-6.717,1.175-8.052,1.6-10.108,4.285s-6.694,5.842-6.694,5.842" fill="none" stroke="#edaf5a" stroke-linecap="round" stroke-linejoin="round" stroke-width="3"/>
    </g>
    <g id="Group_27" data-name="Group 27">
      <path id="Path_302" data-name="Path 302" d="M6760.338-1599.311c-54.332,47.991-36.082,81.7-17.82,112.355s107.764,34.227,135.334-.71" fill="none" stroke="#666668" stroke-linecap="round" stroke-linejoin="round" stroke-width="3"/>
      <path id="Path_303" data-name="Path 303" d="M6822.025-1493.6a59.323,59.323,0,0,0,14.124-2.447" fill="none" stroke="#666668" stroke-linecap="round" stroke-linejoin="round" stroke-width="3"/>
      <path id="Path_304" data-name="Path 304" d="M6761.152-1576.074c-10.878,21.135-4.455,44.665,10.753,61.178" fill="none" stroke="#666668" stroke-linecap="round" stroke-linejoin="round" stroke-width="3"/>
      <path id="Path_305" data-name="Path 305" d="M6850.347-1580.983l10.769-14.924a1.832,1.832,0,0,0-.562-2.653l-21.612-12.611a1.83,1.83,0,0,0-2.406.508l-15.981,22.086" fill="none" stroke="#666668" stroke-linecap="round" stroke-linejoin="round" stroke-width="3"/>
      <path id="Path_306" data-name="Path 306" d="M6840.076-1566.855l-2.841,4.372a1.522,1.522,0,0,1-2.117.44l-3-1.983" fill="none" stroke="#666668" stroke-linecap="round" stroke-linejoin="round" stroke-width="3"/>
      <g id="Group_26" data-name="Group 26">
        <path id="Path_307" data-name="Path 307" d="M6804.625-1582.564c5.557,13.2,6.251,17.827,9.724,19.679s18.734-2,21.3-1.361,3.213-8.995,0-9.8-5.141-1.991-13.333,1.575" fill="none" stroke="#eeb658" stroke-linecap="round" stroke-linejoin="round" stroke-width="3"/>
        <path id="Path_308" data-name="Path 308" d="M6809.933-1606.51c5.757,1.6,10.873,15.35,14.291,33.253" fill="none" stroke="#eeb658" stroke-linecap="round" stroke-linejoin="round" stroke-width="3"/>
        <path id="Path_309" data-name="Path 309" d="M6777.8-1636.813c-.118-13.257,7.9-15.921,16.1-16.513,9.369-.676,14.917,7.713,14.917,7.713,1.759,2.639-.68,5.545-2.238,6.542a1.883,1.883,0,0,0-.882,1.476,15.186,15.186,0,0,1-.623,3.417.43.43,0,0,1-.8.053c-1.226-2.751-4.22-.136-3.979,3.125a6.678,6.678,0,0,0,.612,2.571,2.823,2.823,0,0,1-.3,3.148c-4.932,5.774-12.746,9.521-17.818,4.879" fill="none" stroke="#eeb658" stroke-linecap="round" stroke-linejoin="round" stroke-width="3"/>
        <path id="Path_310" data-name="Path 310" d="M6781.424-1632.206c-7.079,3.1,2.73,11.5,4.49,18.126s-4.452,4.037-4.922,14.485c-.377,8.362-11.159,20.383-26.2,10.578a1.044,1.044,0,0,1,.371-1.9c3.828-.672,4.523-2.7,4.749-5.3.27-3.112,1.082-9.888,7.306-12.115s6.766-8.182,4.6-14.676-.605-15.5,9.169-13.635" fill="none" stroke="#eeb658" stroke-linecap="round" stroke-linejoin="round" stroke-width="3"/>
        <path id="Path_311" data-name="Path 311" d="M6778.369-1630.458" fill="none" stroke="#eeb658" stroke-linecap="round" stroke-linejoin="round" stroke-width="3"/>
        <path id="Path_312" data-name="Path 312" d="M6767.859-1585.534c8.047,10.687,21.777,9.855,29.544-6.094s10.407-15.123,12.53-14.882c2.053.233-4.9-11.052-12.114-7.446-6.066,3.032-11.6,13.594-16.854,13.915" fill="none" stroke="#eeb658" stroke-linecap="round" stroke-linejoin="round" stroke-width="3"/>
        <path id="Path_313" data-name="Path 313" d="M6807.3-1639.621c2.143,5.212.323,28.356-14.2,20.155" fill="none" stroke="#eeb658" stroke-linecap="round" stroke-linejoin="round" stroke-width="3"/>
        <path id="Path_314" data-name="Path 314" d="M6794.946-1618.561a31.593,31.593,0,0,0-2.125,8.557" fill="none" stroke="#eeb658" stroke-linecap="round" stroke-linejoin="round" stroke-width="3"/>
        <path id="Path_315" data-name="Path 315" d="M6887.551-1486.531c5.618,4.4,18.3,6.9,19.57,2.849s-2.55-10.722-13.572-10.722-20.995-6.074-22.494,1.349,7.423,5.249,10.2,4.949S6884.776-1488.706,6887.551-1486.531Z" fill="none" stroke="#eeb658" stroke-linecap="round" stroke-linejoin="round" stroke-width="3"/>
        <path id="Path_316" data-name="Path 316" d="M6904.482-1491c-13.189-9.333-16.519-13.113-19.579-9.783s-11.7-1.62-13.141,2.43a15.773,15.773,0,0,0-.851,7.353" fill="none" stroke="#eeb658" stroke-linecap="round" stroke-linejoin="round" stroke-width="3"/>
        <path id="Path_317" data-name="Path 317" d="M6805.338-1580.855c.421,5.521-5.01,7.376-2.493,13.866s9.54,11.789,7.088,13.776-5.631,1.722-8.678,5.43-16.822,17.75-25.3,14.306-5.828-6.093-6.49-14.968,2.11-23.1-4.376-36.319" fill="none" stroke="#eeb658" stroke-linecap="round" stroke-linejoin="round" stroke-width="3"/>
        <path id="Path_318" data-name="Path 318" d="M6860.858-1521.568a11.557,11.557,0,0,0,1.206,11.26c2.413,3.117,7.44,6.837,7.44,6.837,1.81-4.323,9.049-5.932,11.059-5.228-2.915-4.524-6.032-10.356-6.836-15.483s-4.525-5.731-11.763-7.943-35.863-12.762-44.705-13.177-11.028-6.018-11.028-6.018" fill="none" stroke="#eeb658" stroke-linecap="round" stroke-linejoin="round" stroke-width="3"/>
        <path id="Path_319" data-name="Path 319" d="M6860.177-1519.312c-23.576,3.3-60.189,3.577-65.439-3.608" fill="none" stroke="#eeb658" stroke-linecap="round" stroke-linejoin="round" stroke-width="3"/>
        <path id="Path_320" data-name="Path 320" d="M6777.889-1514.365c-3.847-4.21-5.589-10.789-3.106-19.617" fill="none" stroke="#eeb658" stroke-linecap="round" stroke-linejoin="round" stroke-width="3"/>
        <path id="Path_321" data-name="Path 321" d="M6808.929-1518.043a21.29,21.29,0,0,1-11.19,8.216" fill="none" stroke="#eeb658" stroke-linecap="round" stroke-linejoin="round" stroke-width="3"/>
        <path id="Path_322" data-name="Path 322" d="M6821.763-1544.636c-7.11-12.768-9.242-10.012-11.83-8.577" fill="none" stroke="#eeb658" stroke-linecap="round" stroke-linejoin="round" stroke-width="3"/>
        <path id="Path_323" data-name="Path 323" d="M6878.912-1508.846a82.5,82.5,0,0,0,6.81,7.355" fill="none" stroke="#eeb658" stroke-linecap="round" stroke-linejoin="round" stroke-width="3"/>
        <path id="Path_324" data-name="Path 324" d="M6870.014-1504.416a21.019,21.019,0,0,1,4.311,4.409" fill="none" stroke="#eeb658" stroke-linecap="round" stroke-linejoin="round" stroke-width="3"/>
        <path id="Path_325" data-name="Path 325" d="M6869.5-1503.471c-.07,5.732-5.679,8.916-11.93,6.727s-11.676-4.856-16.917-4.029-6.987-1.31-6.987-3.643,1.471-5.551,7.906-3.16,13.331,1.1,16.917.551a21.158,21.158,0,0,1,6.908.18" fill="none" stroke="#eeb658" stroke-linecap="round" stroke-linejoin="round" stroke-width="3"/>
        <path id="Path_326" data-name="Path 326" d="M6862.771-1509.458c-6.393.227-10.162-6.76-13.288-6.3s-1.839,4.229-5.332,4.137-5.057-4.045-7.815.276-2.613,6.178-2.613,6.178" fill="none" stroke="#eeb658" stroke-linecap="round" stroke-linejoin="round" stroke-width="3"/>
        <path id="Path_327" data-name="Path 327" d="M6836.149-1517.259c-3.089,4.77-5.185,4.375-11.416.177" fill="none" stroke="#eeb658" stroke-linecap="round" stroke-linejoin="round" stroke-width="3"/>
        <path id="Path_328" data-name="Path 328" d="M6848.681-1515.533a30.153,30.153,0,0,0-3.868-2.2" fill="none" stroke="#eeb658" stroke-linecap="round" stroke-linejoin="round" stroke-width="3"/>
        <line id="Line_57" data-name="Line 57" x1="3.906" y1="2.176" transform="translate(6835.156 -1515.533)" fill="none" stroke="#eeb658" stroke-linecap="round" stroke-linejoin="round" stroke-width="3"/>
        <path id="Path_329" data-name="Path 329" d="M6820.094-1562.493c17.468,18.563,35.576,11.8,54.231,31.149,9.59,9.948,11.837,20.055,10.462,28.942" fill="none" stroke="#eeb658" stroke-linecap="round" stroke-linejoin="round" stroke-width="3"/>
        <path id="Path_330" data-name="Path 330" d="M6837.828-1566.109c4.092-.234,11.842-9.081,12.469-13.465s-1.879,1.879-5.246,3.836-.548-2.427,1.253-4.306,1.174-2.9.313-3.367-3.523,5.011-5.245,5.637-4.134.823-3.839,6.244" fill="none" stroke="#eeb658" stroke-linecap="round" stroke-linejoin="round" stroke-width="3"/>
      </g>
      <path id="Path_331" data-name="Path 331" d="M6757.09-1514.445c32.185-3.2,57.57,8.053,70.367,28.051" fill="none" stroke="#666668" stroke-linecap="round" stroke-linejoin="round" stroke-width="3"/>
    </g>
    <line id="Line_58" data-name="Line 58" x1="3.092" transform="translate(6190.341 -1341.462)" fill="none" stroke="#666668" stroke-linecap="round" stroke-linejoin="round" stroke-width="3"/>
    <path id="Path_332" data-name="Path 332" d="M6317.845-1277.159a143.785,143.785,0,0,1-25.755-11.506c-11.77-6.8-20.766-14.59-26.989-22.916" fill="none" stroke="#666668" stroke-linecap="round" stroke-linejoin="round" stroke-width="3"/>
    <path id="Path_333" data-name="Path 333" d="M6415.058-1269.39q-4.455.662-8.967,1.138" fill="none" stroke="#666668" stroke-linecap="round" stroke-linejoin="round" stroke-width="3"/>
    <path id="Path_334" data-name="Path 334" d="M6575.725-1341.462h-52.063a12.7,12.7,0,0,0-12.4,9.682c-3.7,15.631-15.985,30.741-36.847,42.786a136.059,136.059,0,0,1-13.1,6.623" fill="none" stroke="#666668" stroke-linecap="round" stroke-linejoin="round" stroke-width="3"/>
    <g id="Group_28" data-name="Group 28">
      <path id="Path_335" data-name="Path 335" d="M6458.947-1275.845c26.141-5.927,50.662-15,71.814-27.21,39.009-22.522,59.508-51.661,61.474-81.075a4.24,4.24,0,0,1,4.247-3.925h6.6a4.262,4.262,0,0,1,4.262,4.262v80.252c-.357,32.936-22.379,65.88-66.04,91.088-87.68,50.622-229.394,50.878-316.527.572-43.744-25.256-65.407-58.454-65.049-91.66v-80.252a4.262,4.262,0,0,1,4.262-4.262h6.513a4.241,4.241,0,0,1,4.253,4.014c1.378,29.634,21.573,58.97,60.63,81.52,49.57,28.619,118.068,39.7,182.532,33.29" fill="none" stroke="#666668" stroke-linecap="round" stroke-linejoin="round" stroke-width="3"/>
      <path id="Path_336" data-name="Path 336" d="M6167.976-1362.9c7.832,25.346,27.812,49.534,59.965,69.106,85.391,51.98,224.271,51.715,310.2-.591,31.4-19.112,51.375-42.527,59.926-67.085" fill="none" stroke="#666668" stroke-linecap="round" stroke-linejoin="round" stroke-width="3"/>
    </g>
    <g id="Group_29" data-name="Group 29">
      <path id="Path_337" data-name="Path 337" d="M6360.119-1313.741c8.231,1.039,8.252-.5,10.379-3.606,4.154-6.068,10.408-18.08,5.53-24.273s-8.5-7.659-15.3-6.681-12.2,6.525-12.055,12.069,2.782,20.31,5.028,20.979A34.18,34.18,0,0,0,6360.119-1313.741Z" fill="none" stroke="#e78f62" stroke-linecap="round" stroke-linejoin="round" stroke-width="3"/>
      <path id="Path_338" data-name="Path 338" d="M6348.823-1333.957c-1,11.063-1.362,19.449,1.963,19.936" fill="none" stroke="#e78f62" stroke-linecap="round" stroke-linejoin="round" stroke-width="3"/>
      <path id="Path_339" data-name="Path 339" d="M6349.357-1305.148s-6.323.628-2.463,3.1,12.133.048,22.452-6.836c1.988,3.408,3.464,5.031,1.653,6.2-1.766,1.143-12.607,9.112-26.425,5.616a1.166,1.166,0,0,1-.862-1.377,19.849,19.849,0,0,1,2.113-5.516" fill="none" stroke="#e78f62" stroke-linecap="round" stroke-linejoin="round" stroke-width="3"/>
      <path id="Path_340" data-name="Path 340" d="M6346.894-1302.047c3.263-2.16,3.486-5.248,3.11-12.279" fill="none" stroke="#e78f62" stroke-linecap="round" stroke-linejoin="round" stroke-width="3"/>
      <path id="Path_341" data-name="Path 341" d="M6371.734-1319.239c-1.389,3.863-2.557,8.681-3.234,10.913" fill="none" stroke="#e78f62" stroke-linecap="round" stroke-linejoin="round" stroke-width="3"/>
      <path id="Path_342" data-name="Path 342" d="M6422.087-1286.151c-7.561-1.459-23.207-13.174-29.137-14.687-2.491-1.478-7.388-2.486-12.41-1.11s-7.9-.415-8.862-1.428" fill="none" stroke="#e78f62" stroke-linecap="round" stroke-linejoin="round" stroke-width="3"/>
      <path id="Path_343" data-name="Path 343" d="M6392.95-1300.838c1.195,1.93.991,6.8.649,8.166" fill="none" stroke="#e78f62" stroke-linecap="round" stroke-linejoin="round" stroke-width="3"/>
      <path id="Path_344" data-name="Path 344" d="M6317.792-1274.035c.016-1.209.038-2.493.069-3.843.209-9.246,5.912-12.608,9.184-13.62s6.881-3.041,17.529-5.565" fill="none" stroke="#e78f62" stroke-linecap="round" stroke-linejoin="round" stroke-width="3"/>
      <path id="Path_345" data-name="Path 345" d="M6417.711-1286.187a51.849,51.849,0,0,1,11.661.889,49.664,49.664,0,0,0,13.453.608c3.063-.1,6.23,2.738,5.127,10.065-.583,3.873-1,5.157-5.173,6.745-2.625,1-18.28-1.3-31.09-1.64" fill="none" stroke="#e78f62" stroke-linecap="round" stroke-linejoin="round" stroke-width="3"/>
      <path id="Path_346" data-name="Path 346" d="M6445.977-1283.575a69.988,69.988,0,0,0,11.794.52c2.175-.173,4.636.757,9.469,4.359" fill="none" stroke="#e78f62" stroke-linecap="round" stroke-linejoin="round" stroke-width="3"/>
      <path id="Path_347" data-name="Path 347" d="M6446.987-1270.854c3.169-.545,9.463-2.7,13.176-5.953,2.134-.619,5.8-1.721,6.855-2.053" fill="none" stroke="#e78f62" stroke-linecap="round" stroke-linejoin="round" stroke-width="3"/>
    </g>
    <g id="Group_30" data-name="Group 30">
      <path id="Path_348" data-name="Path 348" d="M6182.23-1547.171s20.219-18.924,20.675-23.328-5.467-30.218-6.985-35.532c-1.433-5.014-5.162-6.649-11.7-6.691a8.02,8.02,0,0,1-2.867-.53c-.148-.057-.283-.115-.392-.17-5.067,7.652-17.371,10.134-28.051,8.4-8.66,9.99-10.492,12.82-9.992,18.481s0,33.8-2.5,47.619c-.419,2.321-.887,4.418-1.364,6.314" fill="none" stroke="#e57b6a" stroke-linecap="round" stroke-linejoin="round" stroke-width="3"/>
      <path id="Path_349" data-name="Path 349" d="M6191.972-1593.58c0,11.693-9.263,20.651-11.541,26.118s1.662,22.37,8.048,43.428c.961,3.169-1.77,6-5.978,8.273" fill="none" stroke="#e57b6a" stroke-linecap="round" stroke-linejoin="round" stroke-width="3"/>
      <path id="Path_350" data-name="Path 350" d="M6136.8-1496.37c.8,8.608,1.849,14.173,1.849,18.912,0,7.661,1.764,42.9,3.139,45.457,6.09,2.357,10.411,0,10.411,0a305.626,305.626,0,0,0,.594-54.886,57.585,57.585,0,0,1,.059-8.755" fill="none" stroke="#e57b6a" stroke-linecap="round" stroke-linejoin="round" stroke-width="3"/>
      <path id="Path_351" data-name="Path 351" d="M6186.2-1518.269c6.03,26.473,8.191,37.275,8.5,44.374" fill="none" stroke="#e57b6a" stroke-linecap="round" stroke-linejoin="round" stroke-width="3"/>
      <path id="Path_352" data-name="Path 352" d="M6168.317-1498.618c4.339,20.9,10.1,27.842,12.7,35.289,3.018,8.642,15.149,36.765,17.207,45,2.194,1.372,11.19.275,13.111-2.057-3.7-16.051-3.713-38.528-17.359-60.488" fill="none" stroke="#e57b6a" stroke-linecap="round" stroke-linejoin="round" stroke-width="3"/>
      <path id="Path_353" data-name="Path 353" d="M6153.4-1647.581a2.605,2.605,0,0,0-.37,2.306c.7,2.4-.015,8.458.968,9.441,1.142,1.142,0,6.852,3.711,6.852s3.426,9.991,10.277,9.991,7.6.233,7.8-3.606,4.989-7.484,4.509-15.928-4.414-13.817-15.16-13.625C6157.893-1652.02,6154.706-1649.327,6153.4-1647.581Z" fill="none" stroke="#e57b6a" stroke-linecap="round" stroke-linejoin="round" stroke-width="3"/>
      <path id="Path_354" data-name="Path 354" d="M6152.911-1643.473c-2.928,13.44-1.295,31.007,9.13,24.485" fill="none" stroke="#e57b6a" stroke-linecap="round" stroke-linejoin="round" stroke-width="3"/>
      <path id="Path_355" data-name="Path 355" d="M6166.953-1537.976l4.227-.813a4.262,4.262,0,0,1,4.863,2.881l9.363,29.141a4.262,4.262,0,0,1-3.253,5.489l-16.429,3.16" fill="none" stroke="#e57b6a" stroke-linecap="round" stroke-linejoin="round" stroke-width="3"/>
      <path id="Path_356" data-name="Path 356" d="M6153.514-1495.769l-11.868,2.283a4.262,4.262,0,0,1-4.863-2.882l-9.363-29.141a4.262,4.262,0,0,1,3.253-5.489l21.806-4.194" fill="none" stroke="#e57b6a" stroke-linecap="round" stroke-linejoin="round" stroke-width="3"/>
      <path id="Path_357" data-name="Path 357" d="M6154.851-1509.828c-2.11,16.228-2.339,19.855,4.032,18.36s7.866-1.1,6.765-7.079a102.376,102.376,0,0,0-2.444-10.356" fill="none" stroke="#e57b6a" stroke-linecap="round" stroke-linejoin="round" stroke-width="3"/>
      <path id="Path_358" data-name="Path 358" d="M6148.663-1561.72c4.49,9.408,4.49,50.909,4.49,50.909s3.635,2.977,10.051,1.908,3.849-2.994,4.062-9.409.214-41.484-6.842-67.358" fill="none" stroke="#e57b6a" stroke-linecap="round" stroke-linejoin="round" stroke-width="3"/>
      <path id="Path_359" data-name="Path 359" d="M6187.669-1579.25a82.834,82.834,0,0,0,4.3,10.27" fill="none" stroke="#e57b6a" stroke-linecap="round" stroke-linejoin="round" stroke-width="3"/>
      <path id="Path_360" data-name="Path 360" d="M6189.618-1574.115c-1.442,5.135-9.784,12.431-9.784,12.431" fill="none" stroke="#e57b6a" stroke-linecap="round" stroke-linejoin="round" stroke-width="3"/>
      <path id="Path_361" data-name="Path 361" d="M6152.911-1605.024s2.52-3.718,9.664-5.834,10.583-3.175,14.023-5.16,4.364,2.6,4.364,2.6" fill="none" stroke="#e57b6a" stroke-linecap="round" stroke-linejoin="round" stroke-width="3"/>
      <path id="Path_362" data-name="Path 362" d="M6159.667-1617.861a32.662,32.662,0,0,1,0,8.045" fill="none" stroke="#e57b6a" stroke-linecap="round" stroke-linejoin="round" stroke-width="3"/>
      <path id="Path_363" data-name="Path 363" d="M6174.556-1619.433s.243,3.219,1.029,3.973" fill="none" stroke="#e57b6a" stroke-linecap="round" stroke-linejoin="round" stroke-width="3"/>
      <path id="Path_364" data-name="Path 364" d="M6198.7-1408.79c-4.728,0-6.595,1.617-6.346,4.977s2.24,5.848,4.6,5.6,4.6-5.724,11.2-9.7,9.083-.747,7.714-4.977-1.975-5.724-4.533-3.36-8.282,3.235-9.651,2.986c1.12,3.235-3.857,3.36-5.35,7.341" fill="none" stroke="#e57b6a" stroke-linecap="round" stroke-linejoin="round" stroke-width="3"/>
      <path id="Path_365" data-name="Path 365" d="M6205.588-1406.145s-.3,5.142,1.23,4.569,9.454-4.364,10.7-4.569c-.478-2.307-1.285-5.267-1.285-5.267" fill="none" stroke="#e57b6a" stroke-linecap="round" stroke-linejoin="round" stroke-width="3"/>
      <line id="Line_59" data-name="Line 59" x2="1.987" y2="4.464" transform="translate(6201.189 -1417.739)" fill="none" stroke="#e57b6a" stroke-linecap="round" stroke-linejoin="round" stroke-width="3"/>
      <path id="Path_366" data-name="Path 366" d="M6152.982-1421.885c-7.73,1.45-14.01-1.932-13.849-6.119s2.759-5.254,1.954-5.576c-6.761-3.115-13.066-3.12-13.066,1.389s3.7,6.442,10.306,9.018-.273,6.541,8.98,7.965C6154.056-1414.17,6152.176-1418.986,6152.982-1421.885Z" fill="none" stroke="#e57b6a" stroke-linecap="round" stroke-linejoin="round" stroke-width="3"/>
      <path id="Path_367" data-name="Path 367" d="M6151.4-1431.66s.591,7.093,0,9.608" fill="none" stroke="#e57b6a" stroke-linecap="round" stroke-linejoin="round" stroke-width="3"/>
      <path id="Path_368" data-name="Path 368" d="M6142.768-1431.66c-.2,2.768.208,8.769.208,8.769" fill="none" stroke="#e57b6a" stroke-linecap="round" stroke-linejoin="round" stroke-width="3"/>
    </g>
    <g id="Group_33" data-name="Group 33">
      <g id="Group_31" data-name="Group 31">
        <path id="Path_369" data-name="Path 369" d="M6099.26-1739.968c13.931,9.671,9.059,18.961,10.037,33.39,2.122,31.3,9.011,50.1-12.615,63.435s-41.089,21.986-55.886,16.629a86.246,86.246,0,0,1-12.9-5.655" fill="none" stroke="#666668" stroke-linecap="round" stroke-linejoin="round" stroke-width="3"/>
        <path id="Path_370" data-name="Path 370" d="M6024.726-1672.008c5.249-4.963,11.477-8.033,17.171-10.782,6.79-3.277,10.065-11.27,13.8-21.8" fill="none" stroke="#666668" stroke-linecap="round" stroke-linejoin="round" stroke-width="3"/>
        <path id="Path_371" data-name="Path 371" d="M6065.368-1627.558l-.487,68.142c-.018.813-3.37.824-3.4.011l-1.577-66.638" fill="none" stroke="#666668" stroke-linecap="round" stroke-linejoin="round" stroke-width="3"/>
        <path id="Path_372" data-name="Path 372" d="M6089.587-1638.9l23.482,49.966c.6,1.249,3.553-.109,3.044-1.4l-21.183-51.735" fill="none" stroke="#666668" stroke-linecap="round" stroke-linejoin="round" stroke-width="3"/>
        <path id="Path_373" data-name="Path 373" d="M6027.321-1632.5" fill="none" stroke="#666668" stroke-linecap="round" stroke-linejoin="round" stroke-width="3"/>
        <path id="Path_374" data-name="Path 374" d="M6020.292-1604.676l-7.729,15.813c-.9,1.8-4.695.541-3.9-1.314l8.122-18.423" fill="none" stroke="#666668" stroke-linecap="round" stroke-linejoin="round" stroke-width="3"/>
        <line id="Line_60" data-name="Line 60" x1="1.734" y2="3.547" transform="translate(6030.841 -1629.807)" fill="none" stroke="#666668" stroke-linecap="round" stroke-linejoin="round" stroke-width="3"/>
      </g>
      <g id="Group_32" data-name="Group 32">
        <path id="Path_375" data-name="Path 375" d="M6091.124-1724.541c9.847,7.659,13.622,13.985,11.16,25.2s-9.027,31.458-15.046,34.741-9.488,7.9-11.534,7.588-1.672-.913-1.672-.913,2.845-.45,2.995-1.2-1.273-10.181-6.064-9.657c1.5-1.947,7.561-5.091,14.3-8.085" fill="none" stroke="#e4716d" stroke-linecap="round" stroke-linejoin="round" stroke-width="3"/>
        <path id="Path_376" data-name="Path 376" d="M6079.675-1749.063c.513,6.313,9.3,12.778,4.943,17.855s11.485.763,13.862-5.138-1.367-9.6-2.121-18.1-13.371-21.383-27.523-12.325-15.205,15.852-11.23,23.352c2.907,1.093,6.681,1.564,9.088-.217s-1.088-2.148,2.963-2.836S6073.717-1746.362,6079.675-1749.063Z" fill="none" stroke="#e4716d" stroke-linecap="round" stroke-linejoin="round" stroke-width="3"/>
        <path id="Path_377" data-name="Path 377" d="M6062.453-1742.451c6.673,17.822,18.371,17.039,23.111,9.637" fill="none" stroke="#e4716d" stroke-linecap="round" stroke-linejoin="round" stroke-width="3"/>
        <path id="Path_378" data-name="Path 378" d="M6061.477-1721.131c-.41,2.46-7.05,2.378-6.312,11.968s5.9,11.149,6.312,19.756-2.05,18.772-8.444,19.018c-.327,3.443,6.968,8.443,6.968,8.443" fill="none" stroke="#e4716d" stroke-linecap="round" stroke-linejoin="round" stroke-width="3"/>
        <path id="Path_379" data-name="Path 379" d="M6091.069-1707.195c-3.607,6.394-6.722,30.74-6.722,30.74" fill="none" stroke="#e4716d" stroke-linecap="round" stroke-linejoin="round" stroke-width="3"/>
        <path id="Path_380" data-name="Path 380" d="M6070.963-1668.779c-6.853,4.425-17.253,11.644-20.075,11.784s-15.641,1.026-12.416,4.331,6.853,4.918,10.158,2.822,2.5-1.774,7.579-2.338,17.823-5.744,17.823-5.744" fill="none" stroke="#e4716d" stroke-linecap="round" stroke-linejoin="round" stroke-width="3"/>
        <path id="Path_381" data-name="Path 381" d="M6089.451-1666.506c1.645,8.918,2.256,9.329-1.743,11.381s-11.283,3.078-14.566,1.539a22.929,22.929,0,0,0-5.52-1.893" fill="none" stroke="#e4716d" stroke-linecap="round" stroke-linejoin="round" stroke-width="3"/>
        <path id="Path_382" data-name="Path 382" d="M6089.807-1656.432c3.546,7.668,2.521,12.8-12.766,19.364s-39.085,5.848-39.085,5.848c-10.82-.561-12.723-2.146-12.723-2.146" fill="none" stroke="#e4716d" stroke-linecap="round" stroke-linejoin="round" stroke-width="3"/>
        <path id="Path_383" data-name="Path 383" d="M6034.985-1634.634l-3.756-29.736a5.71,5.71,0,0,0-1.884-3.561l-30.564-26.976a.932.932,0,0,0-1.537.842l4.808,30.969a5.314,5.314,0,0,0,1.722,3.155l29.525,26.2A1.018,1.018,0,0,0,6034.985-1634.634Z" fill="none" stroke="#e4716d" stroke-linecap="round" stroke-linejoin="round" stroke-width="3"/>
        <line id="Line_61" data-name="Line 61" x1="6.665" y1="5.066" transform="translate(6037.548 -1661.498)" fill="none" stroke="#e4716d" stroke-linecap="round" stroke-linejoin="round" stroke-width="3"/>
        <path id="Path_384" data-name="Path 384" d="M6050.99-1651.282l12.072,9.175a1.069,1.069,0,0,1-.338,1.874l-25.482,7.705a3.58,3.58,0,0,1-3.416-.75l-.527-.467" fill="none" stroke="#e4716d" stroke-linecap="round" stroke-linejoin="round" stroke-width="3"/>
        <path id="Path_385" data-name="Path 385" d="M6060.057-1742.715c2.909,6.707,5.606,9.5,3.8,12.018s.116,3.786,2.56,3.571,7.342-1.35,7.342-1.35c-6.748,9.379-.813,15.83,6.48,16.033s12.7-10.89,10.021-17.6" fill="none" stroke="#e4716d" stroke-linecap="round" stroke-linejoin="round" stroke-width="3"/>
        <path id="Path_386" data-name="Path 386" d="M6063.857-1730.7c-4.8,6.234-4.994,8.427-4.988,12.082" fill="none" stroke="#e4716d" stroke-linecap="round" stroke-linejoin="round" stroke-width="3"/>
        <path id="Path_387" data-name="Path 387" d="M6061.514-1687.082c-2.874,4.7-8.462,13.879-8.491,12.7s-1.206-6.7-6.381-6.823c2-3.528,3.176-5.841,7.881-9.566" fill="none" stroke="#e4716d" stroke-linecap="round" stroke-linejoin="round" stroke-width="3"/>
        <path id="Path_388" data-name="Path 388" d="M6055.994-1704.49a64.993,64.993,0,0,1-2.971,14.964" fill="none" stroke="#e4716d" stroke-linecap="round" stroke-linejoin="round" stroke-width="3"/>
        <path id="Path_389" data-name="Path 389" d="M6030.519-1666.9a24.2,24.2,0,0,1,7.437-2.385c2.922-3.311,8.686-11.922,8.686-11.922" fill="none" stroke="#e4716d" stroke-linecap="round" stroke-linejoin="round" stroke-width="3"/>
        <path id="Path_390" data-name="Path 390" d="M6052.773-1675.809c-8.3,9.272-14.87,16.088-20.951,16.133" fill="none" stroke="#e4716d" stroke-linecap="round" stroke-linejoin="round" stroke-width="3"/>
        <path id="Path_391" data-name="Path 391" d="M6027.977-1632.4c3.6,6.324,10.256,23.34,6.029,26.511s-6.659,7.61-14.9-.423-8.456-9.512-14.163-9.724-12.789-8.666-9.724-11.837,3.171-6.87,4.228-13.846,3.622-8.624,12.327-11.129" fill="none" stroke="#e4716d" stroke-linecap="round" stroke-linejoin="round" stroke-width="3"/>
        <path id="Path_392" data-name="Path 392" d="M6004.94-1616.033c-10.874,12.027-23.206,32.81-23.206,32.81a2.023,2.023,0,0,1-.885.917c-1.559.769-4.31-.9-4.441-2.65a1.992,1.992,0,0,1,.163-.919l18.625-37.378" fill="none" stroke="#e4716d" stroke-linecap="round" stroke-linejoin="round" stroke-width="3"/>
        <path id="Path_393" data-name="Path 393" d="M6034.006-1605.886q1.845,4.5,4.141,9.266a165.319,165.319,0,0,0,10.656,18.769c1.33,2.341-2.4,4.655-4.405,2.615a128.767,128.767,0,0,1-15.882-17.087,128.417,128.417,0,0,1-9.413-13.986" fill="none" stroke="#e4716d" stroke-linecap="round" stroke-linejoin="round" stroke-width="3"/>
        <path id="Path_394" data-name="Path 394" d="M5982.566-1584.6c1.613,3.227.315,6.6-6.823,11.923s-14.135,6.451-9.722-1.771,8.586-12.3,11.1-12.53" fill="none" stroke="#e4716d" stroke-linecap="round" stroke-linejoin="round" stroke-width="3"/>
        <path id="Path_395" data-name="Path 395" d="M6048.8-1577.851c4.09,2.835,7.311,3.7,6.614,5.968s-8.529,10.183-16.188,12.446,10.619-11.011,5.9-15.275" fill="none" stroke="#e4716d" stroke-linecap="round" stroke-linejoin="round" stroke-width="3"/>
      </g>
    </g>
    <g id="Group_40" data-name="Group 40">
      <g id="Group_34" data-name="Group 34">
        <g id="Path_396" data-name="Path 396" fill="none" stroke-linecap="round" stroke-linejoin="round">
          <path d="M5921.244-1791.038c5.55-.706,6.1,4.062,5.045,5.9s-2.5,1.721.276,3.4,12.6,3.209,18.013-7.475c7.082-13.964,3.073-22.133-6.814-24.853-8.941-2.46-18.057.166-19.42,8.57s3.817,6.536,3.359,10.5Z" stroke="none"/>
          <path d="M 5931.78466796875 -1783.546508789062 C 5933.0478515625 -1783.546508789062 5934.96044921875 -1783.783447265625 5936.900390625 -1784.912353515625 C 5938.908203125 -1786.080688476562 5940.5908203125 -1787.984497070312 5941.90234375 -1790.570922851562 C 5945.1083984375 -1796.892333984375 5945.96826171875 -1802.120727539062 5944.38916015625 -1805.690673828125 C 5943.23876953125 -1808.291259765625 5940.7421875 -1810.13623046875 5936.96826171875 -1811.174438476562 C 5935.0986328125 -1811.68896484375 5933.24462890625 -1811.949829101562 5931.4580078125 -1811.949829101562 C 5928.6865234375 -1811.949829101562 5926.28369140625 -1811.321533203125 5924.51025390625 -1810.1328125 C 5922.7421875 -1808.947875976562 5921.6640625 -1807.2265625 5921.3056640625 -1805.0166015625 C 5920.96923828125 -1802.943603515625 5921.13916015625 -1801.898071289062 5921.3408203125 -1801.385986328125 C 5921.5068359375 -1800.963500976562 5921.77099609375 -1800.716064453125 5922.30517578125 -1800.240356445312 C 5922.8291015625 -1799.773559570312 5923.48095703125 -1799.192626953125 5923.98681640625 -1798.322631835938 C 5924.60693359375 -1797.256225585938 5924.84130859375 -1796.022094726562 5924.68310546875 -1794.653686523438 L 5924.5869140625 -1793.824829101562 C 5925.16015625 -1793.67236328125 5925.69921875 -1793.458618164062 5926.20068359375 -1793.1845703125 C 5927.2685546875 -1792.600708007812 5928.154296875 -1791.736206054688 5928.76318359375 -1790.684692382812 C 5929.392578125 -1789.59765625 5929.7255859375 -1788.32763671875 5929.72705078125 -1787.01171875 C 5929.72802734375 -1785.901977539062 5929.486328125 -1784.819946289062 5929.04248046875 -1783.9287109375 C 5929.728515625 -1783.722290039062 5930.68359375 -1783.546508789062 5931.78466796875 -1783.546508789062 M 5931.78466796875 -1780.546508789062 C 5929.486328125 -1780.546508789062 5927.56640625 -1781.133178710938 5926.56494140625 -1781.739013671875 C 5923.7890625 -1783.41796875 5925.23486328125 -1783.301025390625 5926.2890625 -1785.139038085938 C 5927.2724609375 -1786.85107421875 5926.8623046875 -1791.108764648438 5922.30859375 -1791.108764648438 C 5921.9765625 -1791.108764648438 5921.62158203125 -1791.0859375 5921.244140625 -1791.037963867188 L 5921.703125 -1794.9990234375 C 5922.1611328125 -1798.961059570312 5916.98095703125 -1797.093017578125 5918.34423828125 -1805.496948242188 C 5919.3828125 -1811.901000976562 5924.92333984375 -1814.949829101562 5931.4580078125 -1814.949829101562 C 5933.49853515625 -1814.949829101562 5935.63623046875 -1814.652465820312 5937.76416015625 -1814.067016601562 C 5947.65087890625 -1811.347045898438 5951.66015625 -1803.177978515625 5944.578125 -1789.213989257812 C 5941.115234375 -1782.38525390625 5935.85546875 -1780.546508789062 5931.78466796875 -1780.546508789062 Z" stroke="none" fill="#e3696f"/>
        </g>
        <path id="Path_397" data-name="Path 397" d="M5905.231-1709.963c.552-1.848,1.107-4.067,1.644-6.736,3.267-16.239,4.307-21.477,4.307-21.477" fill="none" stroke="#e3696f" stroke-linecap="round" stroke-linejoin="round" stroke-width="3"/>
        <path id="Path_398" data-name="Path 398" d="M5950.667-1772.472c4.055,12.338-5.527,19.521-6.924,37.423s6.133,31.533.783,34.955-28.175,16.213-38.984,4.523c-6.079-6.576-6.55-4.227-4.869-5.532" fill="none" stroke="#e3696f" stroke-linecap="round" stroke-linejoin="round" stroke-width="3"/>
        <path id="Path_399" data-name="Path 399" d="M5919.152-1799.2c-1.355,15.558-1.889,20.875,8.739,18.037" fill="none" stroke="#e3696f" stroke-linecap="round" stroke-linejoin="round" stroke-width="3"/>
        <path id="Path_400" data-name="Path 400" d="M5938.876-1780.56c11.647-4.546,32.9,21.617,30.893,25.2s-9.862,21.455-25.574,34.232" fill="none" stroke="#e3696f" stroke-linecap="round" stroke-linejoin="round" stroke-width="3"/>
        <path id="Path_401" data-name="Path 401" d="M5943.743-1735.049c8.777-15.3,7.844-17,13.561-20.5" fill="none" stroke="#e3696f" stroke-linecap="round" stroke-linejoin="round" stroke-width="3"/>
        <path id="Path_402" data-name="Path 402" d="M5950.869-1760.819a6.866,6.866,0,0,0,3.837,7.131" fill="none" stroke="#e3696f" stroke-linecap="round" stroke-linejoin="round" stroke-width="3"/>
        <path id="Path_403" data-name="Path 403" d="M5921.929-1753.734c-6.506,8.881-15.028,22.119-22.5,29.787" fill="none" stroke="#e3696f" stroke-linecap="round" stroke-linejoin="round" stroke-width="3"/>
        <path id="Path_404" data-name="Path 404" d="M5903.157-1728.1c-2.632,3.257,2.266,16.183,2.2,20.542s-4.034,7.071-11.507,6.047c0,0-2.674-11.3-4.7-20.13s7.039-22.132,12.2-32.815,11.847-13.181,22.9-20.547c5.414,4.862,11.617,3.64,14.063.705a5.729,5.729,0,0,0,.561-6.257" fill="none" stroke="#e3696f" stroke-linecap="round" stroke-linejoin="round" stroke-width="3"/>
        <path id="Path_405" data-name="Path 405" d="M5929.164-1621.636c1.128,8.443,2.027,16.134,1.883,18.262-.36,5.3,3.236,8.393,10.788,7.068s2.173-12.813,0-32.69c-2.569-23.494,8.361-49.315.906-70.009" fill="none" stroke="#e3696f" stroke-linecap="round" stroke-linejoin="round" stroke-width="3"/>
        <path id="Path_406" data-name="Path 406" d="M5904.511-1675.482a84.975,84.975,0,0,1,1.913-19.218" fill="none" stroke="#e3696f" stroke-linecap="round" stroke-linejoin="round" stroke-width="3"/>
        <path id="Path_407" data-name="Path 407" d="M5925.7-1609.864c.693,16.86,1.186,24.6-2.887,26.769a5.931,5.931,0,0,1-1.444.547" fill="none" stroke="#e3696f" stroke-linecap="round" stroke-linejoin="round" stroke-width="3"/>
        <path id="Path_408" data-name="Path 408" d="M5925.293-1586.443c1.651,5.615,1.525,10.02-3.949,9.5" fill="none" stroke="#e3696f" stroke-linecap="round" stroke-linejoin="round" stroke-width="3"/>
        <path id="Path_409" data-name="Path 409" d="M5944.972-1598.379c.807,4.264.277,6.831-4.489,6s-5.285-1.606-4.972-3.624" fill="none" stroke="#e3696f" stroke-linecap="round" stroke-linejoin="round" stroke-width="3"/>
        <path id="Path_410" data-name="Path 410" d="M5934.057-1597.073c-4.232.689-6.466.434-7.95-1.945" fill="none" stroke="#e3696f" stroke-linecap="round" stroke-linejoin="round" stroke-width="3"/>
        <path id="Path_411" data-name="Path 411" d="M5931-1605.541a9.978,9.978,0,0,0-5.161-.939" fill="none" stroke="#e3696f" stroke-linecap="round" stroke-linejoin="round" stroke-width="3"/>
        <path id="Path_412" data-name="Path 412" d="M5925.9-1781.9c1.589,2.946.353,7.976.353,7.976" fill="none" stroke="#e3696f" stroke-linecap="round" stroke-linejoin="round" stroke-width="3"/>
        <path id="Path_413" data-name="Path 413" d="M5904.1-1703.949c4.853,2.073,8.244.7,7.9,2.65s-5.849,1.075-7.489.466-4.684.284-6.076-.466" fill="none" stroke="#e3696f" stroke-linecap="round" stroke-linejoin="round" stroke-width="3"/>
        <path id="Path_414" data-name="Path 414" d="M5939.569-1783.079c-1.852,2.372-.472,7.543-.472,7.543" fill="none" stroke="#e3696f" stroke-linecap="round" stroke-linejoin="round" stroke-width="3"/>
      </g>
      <g id="Group_39" data-name="Group 39">
        <g id="Group_35" data-name="Group 35">
          <path id="Path_415" data-name="Path 415" d="M5871.718-1638.134c-4.146.47-6.525.861-8.964,3.219-4.639,4.484-19.327,24.43-17.008,30.924s5.257,16.08,15.462,16.389q.726-1.077,1.4-2.149" fill="none" stroke="#e26371" stroke-linecap="round" stroke-linejoin="round" stroke-width="3"/>
          <path id="Path_416" data-name="Path 416" d="M5871.916-1647.122c-5.873-.676-6.151-7.593-4.34-24.766" fill="none" stroke="#e26371" stroke-linecap="round" stroke-linejoin="round" stroke-width="3"/>
          <path id="Path_417" data-name="Path 417" d="M5856.122-1626.838c-8.413-13.088-11.635-15.236-21.705-7.986s-36.386,20.811-37.863,21.482a19.994,19.994,0,0,0,2.686,11.278c14.5-4.3,33.127-9.777,38.095-12.06" fill="none" stroke="#e26371" stroke-linecap="round" stroke-linejoin="round" stroke-width="3"/>
          <path id="Path_418" data-name="Path 418" d="M5781.652-1610.89a20.665,20.665,0,0,0-3.106-7.506c-2.662-4.194-7.256.866-5.991,6.391s4.394,4.527,3.662,12.715,4.26,9.919,6.057,9.986,3.262-3.063,7.553-7.2c-6.421-.975-5.25-9.842-2.332-13.733-3.689.094-6.552-.305-8.349-2.3" fill="none" stroke="#e26371" stroke-linecap="round" stroke-linejoin="round" stroke-width="3"/>
          <path id="Path_419" data-name="Path 419" d="M5775.319-1619.752c-3.034.519-3.684,1.494-4.241,4.047s.186,6.918,2.6,10.632-.624,2.6-.567,8.45,3.26,9.472,6.789,9.472a4.239,4.239,0,0,0,4.246-3.136" fill="none" stroke="#e26371" stroke-linecap="round" stroke-linejoin="round" stroke-width="3"/>
          <line id="Line_62" data-name="Line 62" x1="9.587" y2="3.066" transform="translate(5786.936 -1612.457)" fill="none" stroke="#e26371" stroke-linecap="round" stroke-linejoin="round" stroke-width="3"/>
          <line id="Line_63" data-name="Line 63" x1="10" y2="5.808" transform="translate(5788.983 -1602.495)" fill="none" stroke="#e26371" stroke-linecap="round" stroke-linejoin="round" stroke-width="3"/>
          <path id="Path_420" data-name="Path 420" d="M5845.564-1606.6c-10.475,16.451-12.6,22.286-8.176,25.2s12.443,1.8,12.443,1.8a28.889,28.889,0,0,0,11.416-5.482" fill="none" stroke="#e26371" stroke-linecap="round" stroke-linejoin="round" stroke-width="3"/>
          <path id="Path_421" data-name="Path 421" d="M5837.747-1623.853c-1.182,10.243-.1,14.14,6.963,18.6" fill="none" stroke="#e26371" stroke-linecap="round" stroke-linejoin="round" stroke-width="3"/>
          <path id="Path_422" data-name="Path 422" d="M5840.72-1598.72c-6.954-13.217-10.719-12.718-10.719-12.718" fill="none" stroke="#e26371" stroke-linecap="round" stroke-linejoin="round" stroke-width="3"/>
          <path id="Path_423" data-name="Path 423" d="M5815.628-1606.979c-2.777,13.788.35,21.65,12.89,38.268,11.452,15.176,13.4,16.566,18.219,18.651a9.348,9.348,0,0,0,8.7-.666" fill="none" stroke="#e26371" stroke-linecap="round" stroke-linejoin="round" stroke-width="3"/>
          <path id="Path_424" data-name="Path 424" d="M5878.834-1660.642c.817-3.72.156-4.227-2.249-6.114-.9-.7-2.106.26-2.331,1.181-.831,3.391-1.122,3.613-3.289,3.311s2.207-9.67-1.632-9.624-8.776-8.649,2.612-12.1c9.964-3.016,20.153-1.072,23.355,5.572a9.365,9.365,0,0,1,.566,7.925" fill="none" stroke="#e26371" stroke-linecap="round" stroke-linejoin="round" stroke-width="3"/>
          <path id="Path_425" data-name="Path 425" d="M5855.456-1589.023a11.417,11.417,0,0,1-2.574,3.945" fill="none" stroke="#e26371" stroke-linecap="round" stroke-linejoin="round" stroke-width="3"/>
        </g>
        <g id="Group_38" data-name="Group 38">
          <path id="Path_426" data-name="Path 426" d="M5901.277-1559.35l15.765-9.11a8.611,8.611,0,0,0,4.3-7.455v-4.553c0-33.327,16.475-48.423,16.475-95.22v-2.061a4.305,4.305,0,0,0-6.459-3.728l-46.9,27.108a8.61,8.61,0,0,0-4.3,7.455v4.553c0,46.8-16.476,61.893-16.476,95.219v2.062a4.305,4.305,0,0,0,6.46,3.727l22.784-13.167" fill="none" stroke="#666668" stroke-linecap="round" stroke-linejoin="round" stroke-width="3"/>
          <path id="Path_427" data-name="Path 427" d="M5855.986-1562.225a96.624,96.624,0,0,0-.546,10.322v2.062a4.263,4.263,0,0,0,2.078,3.684" fill="none" stroke="#666668" stroke-linecap="round" stroke-linejoin="round" stroke-width="3"/>
          <path id="Path_428" data-name="Path 428" d="M5927.428-1686.239a4.266,4.266,0,0,0-4.306,0l-46.9,27.108a8.611,8.611,0,0,0-4.3,7.455v4.553c0,35.782-8.987,52.793-13.521,73.829" fill="none" stroke="#666668" stroke-linecap="round" stroke-linejoin="round" stroke-width="3"/>
          <line id="Line_64" data-name="Line 64" x1="8.782" y1="5.121" transform="translate(5927.377 -1686.266)" fill="none" stroke="#666668" stroke-linecap="round" stroke-linejoin="round" stroke-width="3"/>
          <line id="Line_65" data-name="Line 65" x1="8.299" y1="4.799" transform="translate(5857.519 -1546.159)" fill="none" stroke="#666668" stroke-linecap="round" stroke-linejoin="round" stroke-width="3"/>
          <path id="Path_429" data-name="Path 429" d="M5892.922-1544.995l-20.466,11.824a8.609,8.609,0,0,1-8.617,0l-41.243-23.836a2.584,2.584,0,0,0-3.876,2.237v.573a7.749,7.749,0,0,0,3.872,6.71l41.247,23.838a8.609,8.609,0,0,0,8.617,0l39.322-22.726,6.333-3.652a6.459,6.459,0,0,0,3.226-5.591v-7.435" fill="none" stroke="#666668" stroke-linecap="round" stroke-linejoin="round" stroke-width="3"/>
          <path id="Path_430" data-name="Path 430" d="M5916.115-1567.917l3.723,2.152a3.013,3.013,0,0,1,0,5.218l-18.677,10.791" fill="none" stroke="#666668" stroke-linecap="round" stroke-linejoin="round" stroke-width="3"/>
          <line id="Line_66" data-name="Line 66" y1="6.992" x2="12.099" transform="translate(5820.012 -1564)" fill="none" stroke="#666668" stroke-linecap="round" stroke-linejoin="round" stroke-width="3"/>
          <path id="Path_431" data-name="Path 431" d="M5826.82-1577.965a4.281,4.281,0,0,0-.457,1.944v13.652a12.917,12.917,0,0,0,6.453,11.182l24.4,14.16a4.3,4.3,0,0,0,6.459-3.727v-13.653a12.918,12.918,0,0,0-4.08-9.421" fill="none" stroke="#666668" stroke-linecap="round" stroke-linejoin="round" stroke-width="3"/>
          <path id="Path_432" data-name="Path 432" d="M5916.115-1567.917a4.3,4.3,0,0,0,5.229-4.312v-3.686" fill="none" stroke="#666668" stroke-linecap="round" stroke-linejoin="round" stroke-width="3"/>
          <path id="Path_433" data-name="Path 433" d="M5821.379-1582.886a2.987,2.987,0,0,0,1.5,2.646l29.971,17.321a5.163,5.163,0,0,0,5.17,0l3.718-2.148a1.281,1.281,0,0,0,.646-1.119v-3.444" fill="none" stroke="#666668" stroke-linecap="round" stroke-linejoin="round" stroke-width="3"/>
          <path id="Path_434" data-name="Path 434" d="M5848.23-1579.385l13.513,8.637a1.292,1.292,0,0,1,0,2.237l-3.718,2.148a5.163,5.163,0,0,1-5.17,0l-29.971-17.321a3.014,3.014,0,0,1,0-5.218l.708-.409a6.03,6.03,0,0,1,6.032,0l5.589,3.23" fill="none" stroke="#666668" stroke-linecap="round" stroke-linejoin="round" stroke-width="3"/>
          <line id="Line_67" data-name="Line 67" x1="0.024" y2="3.789" transform="translate(5821.379 -1586.676)" fill="none" stroke="#666668" stroke-linecap="round" stroke-linejoin="round" stroke-width="3"/>
          <g id="Group_36" data-name="Group 36">
            <path id="Path_435" data-name="Path 435" d="M5900.892-1587.693a8.639,8.639,0,0,0-4.019,5.259,104.206,104.206,0,0,0-3.951,27.914v17.58a2.538,2.538,0,0,1-1.233,2.176h0l5.825-3.366,2.274-1.332a2.771,2.771,0,0,0,1.372-2.391v-12.667a106.954,106.954,0,0,1,4.514-29.978,3.012,3.012,0,0,0-4.412-3.409Z" fill="none" stroke="#666668" stroke-linecap="round" stroke-linejoin="round" stroke-width="3"/>
          </g>
          <path id="Path_436" data-name="Path 436" d="M5876.035-1516.964v7.91c0,1.315-1.844,2.381-4.119,2.381s-4.119-1.066-4.119-2.381v-7.91" fill="none" stroke="#666668" stroke-linecap="round" stroke-linejoin="round" stroke-width="3"/>
          <ellipse id="Ellipse_3" data-name="Ellipse 3" cx="4.119" cy="2.38" rx="4.119" ry="2.38" transform="translate(5867.797 -1519.344)" fill="none" stroke="#666668" stroke-linecap="round" stroke-linejoin="round" stroke-width="3"/>
          <g id="Group_37" data-name="Group 37">
            <path id="Path_437" data-name="Path 437" d="M5871.916-1516.749c-.832,0-1.507-.381-1.507-.851v-5.565c0-.471.675-.852,1.507-.852s1.507.381,1.507.852v5.565C5873.423-1517.13,5872.748-1516.749,5871.916-1516.749Z" fill="none" stroke="#666668" stroke-linecap="round" stroke-linejoin="round" stroke-width="3"/>
          </g>
          <line id="Line_68" data-name="Line 68" x1="1.719" y2="4.478" transform="translate(5870.409 -1523.469)" fill="none" stroke="#666668" stroke-linecap="round" stroke-linejoin="round" stroke-width="3"/>
          <path id="Path_438" data-name="Path 438" d="M5878.006-1512.1l1.8-11.493v-4.305l-2.289,14.623c-.184,1.175,1.529,2.163,3.564,2.057l37.009-1.931c2.708-.141,3.345,2.138.692,2.477l-36.251,4.639c-1.994.255-3.083,1.495-2.267,2.581l14.838,19.736c1.086,1.444-2.468,2.485-3.863,1.131l-19.06-18.5a4.862,4.862,0,0,0-4.965-.463l-27.838,14.129c-2.037,1.034-4.871-.6-3.08-1.778l24.472-16.072c1.346-.884.961-2.262-.8-2.867l-32.042-11c-2.345-.805-.543-2.857,1.959-2.23l34.184,8.566a5.021,5.021,0,0,0,3.732-.472" fill="none" stroke="#666668" stroke-linecap="round" stroke-linejoin="round" stroke-width="3"/>
          <path id="Path_439" data-name="Path 439" d="M5881.695-1501.547a4.923,4.923,0,0,1,.835-.179l36.251-4.638c1-.128,1.527-.528,1.661-.971" fill="none" stroke="#666668" stroke-linecap="round" stroke-linejoin="round" stroke-width="3"/>
          <path id="Path_440" data-name="Path 440" d="M5835.74-1484.2c-.2,1.006,1.98,1.928,3.635,1.088l27.838-14.128a4.862,4.862,0,0,1,4.965.462l19.06,18.5c1.2,1.166,4,.557,4.065-.557" fill="none" stroke="#666668" stroke-linecap="round" stroke-linejoin="round" stroke-width="3"/>
          <path id="Path_441" data-name="Path 441" d="M5826.852-1516.058c-.1.446.191.923,1.071,1.225l31.13,10.691" fill="none" stroke="#666668" stroke-linecap="round" stroke-linejoin="round" stroke-width="3"/>
          <line id="Line_69" data-name="Line 69" y2="4.329" transform="translate(5895.302 -1483.164)" fill="none" stroke="#666668" stroke-linecap="round" stroke-linejoin="round" stroke-width="3"/>
          <line id="Line_70" data-name="Line 70" y2="4.252" transform="translate(5920.476 -1511.687)" fill="none" stroke="#666668" stroke-linecap="round" stroke-linejoin="round" stroke-width="3"/>
          <line id="Line_71" data-name="Line 71" y2="4.268" transform="translate(5835.729 -1488.367)" fill="none" stroke="#666668" stroke-linecap="round" stroke-linejoin="round" stroke-width="3"/>
          <line id="Line_72" data-name="Line 72" y1="4.028" transform="translate(5826.847 -1520.054)" fill="none" stroke="#666668" stroke-linecap="round" stroke-linejoin="round" stroke-width="3"/>
        </g>
      </g>
    </g>
    <g id="Group_41" data-name="Group 41">
      <path id="Path_442" data-name="Path 442" d="M6252.3-1403.9a1.4,1.4,0,0,1-1.121.918c-2.432.309-6.606-2.483-6.071-.623.609,2.12.845,6.63-1.872,9.547s-2.218,7.4-3.231,7.4-1.629-.726-.306-4.662-2.795-5.452-5.459-3.021-7.3,10.2-10.98,9.228-4.118-1.516-4-4.251-1.673-15.023,3.263-20.536,9.65-6.3,15.168-5.158,11.774,5.093,13.373,7.957C6252.4-1404.714,6252.586-1404.68,6252.3-1403.9Z" fill="none" stroke="#e68268" stroke-linecap="round" stroke-linejoin="round" stroke-width="3"/>
      <path id="Path_443" data-name="Path 443" d="M6230.2-1383.394c2.882,2.956,7.551,7.858,10.091,3.388,2.527-4.448,8.8-11.658,8.172-17.894s-2.125-6.2-2.125-6.2" fill="none" stroke="#e68268" stroke-linecap="round" stroke-linejoin="round" stroke-width="3"/>
      <path id="Path_444" data-name="Path 444" d="M6300.029-1347.051l-19.223-20.417a5.114,5.114,0,0,1-.843-5.809l13.716-27.188a2.557,2.557,0,0,1,4.145-.6l20.1,21.344a5.113,5.113,0,0,1,.747,5.99l-14.541,26.17A2.557,2.557,0,0,1,6300.029-1347.051Z" fill="none" stroke="#e68268" stroke-linecap="round" stroke-linejoin="round" stroke-width="3"/>
      <path id="Path_445" data-name="Path 445" d="M6217.9-1387.757c-.7.181-1.525.416-2.476.724-3.8,1.23-4.914,4.886,2.11,6.176s12.821,4.851,18.471,7.534,6.144,3.319,7.327,3.834,1.546,4,4.149,7.867c1.649,2.453,6.68,11.1,8.513,16.833" fill="none" stroke="#e68268" stroke-linecap="round" stroke-linejoin="round" stroke-width="3"/>
      <path id="Path_446" data-name="Path 446" d="M6218.991-1383.75a7.11,7.11,0,0,1-1.461,2.893" fill="none" stroke="#e68268" stroke-linecap="round" stroke-linejoin="round" stroke-width="3"/>
      <path id="Path_447" data-name="Path 447" d="M6244.314-1368.307c-.6-.9-.881-.211-1.927.009s-3.65.608-7.8-1.561-7.775-2.864-13.548-1.64-9.808-1.64-10.579-4.053-.572-8,.214-9.4,3.293-3.357,7.118-3.456" fill="none" stroke="#e68268" stroke-linecap="round" stroke-linejoin="round" stroke-width="3"/>
      <path id="Path_448" data-name="Path 448" d="M6245-1359.487c2.8,2.588,3.158,3.11,4.15,4.852s1.5,2.551,1.5,3.986" fill="none" stroke="#e68268" stroke-linecap="round" stroke-linejoin="round" stroke-width="3"/>
      <path id="Path_449" data-name="Path 449" d="M6210.292-1383.733c-3.1,5.6-4.854,7.784-2.556,14.234a19.046,19.046,0,0,0,7.652,9.493" fill="none" stroke="#e68268" stroke-linecap="round" stroke-linejoin="round" stroke-width="3"/>
      <path id="Path_450" data-name="Path 450" d="M6274.572-1339.912c4.883-3.648,7.153-4.8,3.339-8.5s-7.532-1.221-10.179.352-4.712,2.913-3.312,6.084" fill="none" stroke="#e68268" stroke-linecap="round" stroke-linejoin="round" stroke-width="3"/>
      <path id="Path_451" data-name="Path 451" d="M6234.413-1379.266a15.551,15.551,0,0,0-.669,4.837" fill="none" stroke="#e68268" stroke-linecap="round" stroke-linejoin="round" stroke-width="3"/>
      <path id="Path_452" data-name="Path 452" d="M6240.708-1370.947c-3.454-4.9-5.253-7.827-5.253-7.827" fill="none" stroke="#e68268" stroke-linecap="round" stroke-linejoin="round" stroke-width="3"/>
      <path id="Path_453" data-name="Path 453" d="M6226.724-1350.04c-.541,3.016,3.374,6.378,9.426,11.517,17.374,14.75,20.291,14.7,26.4,14.414s10.017-1.173,10.867-7.727l.85-6.555s1.923-5.262-3.614-6.386-5.976,2.058-6.4,3.35c-.618.541-.8,2.269-1.394,2.684s-.878.169-1.769-.317c.037-1.3-1.777-1.362-1.777-1.362a11.587,11.587,0,0,0-2.08-3.308c-1.611-1.919-1.786-.581-3.817-2.706.259-2.17-.932-3.166-4.554-5.512" fill="none" stroke="#e68268" stroke-linecap="round" stroke-linejoin="round" stroke-width="3"/>
      <path id="Path_454" data-name="Path 454" d="M6253.851-1350.074c6.18-2.546,8.594-7.662,4.325-9.152s-8.458-1.992-9.1.182" fill="none" stroke="#e68268" stroke-linecap="round" stroke-linejoin="round" stroke-width="3"/>
      <path id="Path_455" data-name="Path 455" d="M6250.964-1360.424a17.189,17.189,0,0,1-4.086-2.145" fill="none" stroke="#e68268" stroke-linecap="round" stroke-linejoin="round" stroke-width="3"/>
      <path id="Path_456" data-name="Path 456" d="M6274.047-1336.674l24.938-5.953a2.557,2.557,0,0,0,1.268-4.24l-19.106-20.292a5.116,5.116,0,0,0-4.728-1.509l-29.541,5.917" fill="none" stroke="#e68268" stroke-linecap="round" stroke-linejoin="round" stroke-width="3"/>
      <path id="Path_457" data-name="Path 457" d="M6206.345-1374.429c-6.892,13.579-13.328,30.593-12.891,35.217" fill="none" stroke="#e68268" stroke-linecap="round" stroke-linejoin="round" stroke-width="3"/>
      <path id="Path_458" data-name="Path 458" d="M6236.15-1338.523c-4.873,14.75,4.8,22.444-7.6,30.493" fill="none" stroke="#e68268" stroke-linecap="round" stroke-linejoin="round" stroke-width="3"/>
      <line id="Line_73" data-name="Line 73" x2="8.062" y2="8.562" transform="translate(6255.505 -1350.863)" fill="none" stroke="#e68268" stroke-linecap="round" stroke-linejoin="round" stroke-width="3"/>
      <path id="Path_459" data-name="Path 459" d="M6242.088-1298.821a54.529,54.529,0,0,0,29.839-20.418" fill="none" stroke="#e68268" stroke-linecap="round" stroke-linejoin="round" stroke-width="3"/>
      <path id="Path_460" data-name="Path 460" d="M6240.708-1320.729c2.456-3.225,9.925-6.611,9.925-6.611" fill="none" stroke="#e68268" stroke-linecap="round" stroke-linejoin="round" stroke-width="3"/>
    </g>
    <g id="Group_42" data-name="Group 42">
      <path id="Path_461" data-name="Path 461" d="M5883.472-1764.859a7.048,7.048,0,0,1,4.716.7h0c1.763,1.018,1.954,2.557.428,3.439l-249.379,143.358a6.614,6.614,0,0,1-5.955-.247h0c-1.762-1.017-1.954-2.557-.427-3.438l5.8-3.348" fill="none" stroke="#666668" stroke-linecap="round" stroke-linejoin="round" stroke-width="3"/>
      <path id="Path_462" data-name="Path 462" d="M5888.616-1960.627l-249.379,143.359a6.617,6.617,0,0,1-5.955-.247h0c-1.762-1.017-1.954-2.557-.427-3.438l5.8-3.348,243.58-140.011a4.281,4.281,0,0,1,1.239-.458,7.048,7.048,0,0,1,4.716.705h0C5889.951-1963.047,5890.142-1961.508,5888.616-1960.627Z" fill="none" stroke="#666668" stroke-linecap="round" stroke-linejoin="round" stroke-width="3"/>
      <path id="Path_463" data-name="Path 463" d="M5883.472-1957.657v195.5l-244.819,140.727V-1817" fill="none" stroke="#666668" stroke-linecap="round" stroke-linejoin="round" stroke-width="3"/>
      <path id="Path_464" data-name="Path 464" d="M5672.7-1690.233l-15.173,8.761c-1.527.881-2.777-.063-2.777-2.1v-36.258a6.676,6.676,0,0,1,2.777-5.305l15.173-8.76c1.527-.882,2.776.063,2.776,2.1v36.257A6.673,6.673,0,0,1,5672.7-1690.233Z" fill="#666668"/>
      <path id="Path_465" data-name="Path 465" d="M5698.325-1705.026l-12.022,6.941c-2.394,1.382-4.352-.1-4.352-3.29v-79.12c0-3.192,1.958-6.934,4.352-8.316l12.022-6.941c2.393-1.382,4.352.1,4.352,3.29v79.12C5702.677-1710.15,5700.718-1706.408,5698.325-1705.026Z" fill="#666668"/>
      <path id="Path_466" data-name="Path 466" d="M5725.638-1720.8l-12.251,7.073c-2.331,1.346-4.238-.1-4.238-3.2v-73.85c0-3.108,1.907-6.751,4.238-8.1l12.251-7.073c2.33-1.346,4.237.1,4.237,3.2v73.851C5729.875-1725.784,5727.968-1722.141,5725.638-1720.8Z" fill="#666668"/>
      <path id="Path_467" data-name="Path 467" d="M5752.23-1736.148l-11.039,6.373c-2.664,1.538-4.844-.11-4.844-3.661v-103.4c0-3.552,2.18-7.716,4.844-9.254l11.039-6.374c2.664-1.538,4.844.11,4.844,3.662v103.4C5757.074-1741.851,5754.894-1737.686,5752.23-1736.148Z" fill="#666668"/>
      <path id="Path_468" data-name="Path 468" d="M5781.195-1752.871l-14.572,8.413c-1.692.977-3.077-.07-3.077-2.327v-45.438a7.4,7.4,0,0,1,3.077-5.88l14.572-8.413c1.692-.977,3.077.069,3.077,2.326v45.439A7.4,7.4,0,0,1,5781.195-1752.871Z" fill="#666668"/>
      <path id="Path_469" data-name="Path 469" d="M5806.991-1767.765l-11.767,6.794c-2.464,1.423-4.48-.1-4.48-3.386v-85.137c0-3.284,2.016-7.136,4.48-8.558l11.767-6.794c2.464-1.422,4.48.1,4.48,3.386v85.137C5811.471-1773.038,5809.455-1769.187,5806.991-1767.765Z" fill="#666668"/>
      <path id="Path_470" data-name="Path 470" d="M5834.58-1783.693l-12.548,7.245c-2.249,1.3-4.089-.093-4.089-3.091v-67.23c0-3,1.84-6.514,4.089-7.812l12.548-7.245c2.249-1.3,4.089.093,4.089,3.091v67.229C5838.669-1788.507,5836.829-1784.992,5834.58-1783.693Z" fill="#666668"/>
      <path id="Path_471" data-name="Path 471" d="M5862.539-1799.835l-14.069,8.123c-1.831,1.057-3.329-.076-3.329-2.516v-37.312a8,8,0,0,1,3.329-6.36l14.069-8.123c1.831-1.057,3.328.075,3.328,2.516v37.312A8,8,0,0,1,5862.539-1799.835Z" fill="#666668"/>
      <path id="Path_472" data-name="Path 472" d="M5727.5-1705.032l-70.366,40.625c-1.314.759-2.379-.046-2.379-1.8h0a5.7,5.7,0,0,1,2.379-4.545l70.366-40.625c1.313-.759,2.378.046,2.378,1.8h0A5.7,5.7,0,0,1,5727.5-1705.032Z" fill="#666668"/>
      <path id="Path_473" data-name="Path 473" d="M5809.092-1752.141l-70.366,40.625c-1.314.759-2.379-.046-2.379-1.8h0a5.7,5.7,0,0,1,2.379-4.545l70.366-40.625c1.314-.759,2.379.046,2.379,1.8h0A5.7,5.7,0,0,1,5809.092-1752.141Z" fill="#666668"/>
      <path id="Path_474" data-name="Path 474" d="M5863.489-1783.547l-43.168,24.922c-1.313.759-2.378-.046-2.378-1.8h0a5.7,5.7,0,0,1,2.378-4.545l43.168-24.923c1.314-.758,2.378.047,2.378,1.8h0A5.7,5.7,0,0,1,5863.489-1783.547Z" fill="#666668"/>
      <path id="Path_475" data-name="Path 475" d="M5775.69-1661.552v-34.521l-4.757,2.747v31.774" fill="none" stroke="#666668" stroke-linecap="round" stroke-linejoin="round" stroke-width="3"/>
      <line id="Line_74" data-name="Line 74" x2="14.984" y2="0.281" transform="translate(5780.433 -1661.254)" fill="none" stroke="#666668" stroke-linecap="round" stroke-linejoin="round" stroke-width="3"/>
      <line id="Line_75" data-name="Line 75" x1="6.204" y1="23.145" transform="translate(5774.694 -1656.228)" fill="none" stroke="#666668" stroke-linecap="round" stroke-linejoin="round" stroke-width="3"/>
      <line id="Line_76" data-name="Line 76" x1="21.924" y2="6.104" transform="translate(5744.418 -1659.448)" fill="none" stroke="#666668" stroke-linecap="round" stroke-linejoin="round" stroke-width="3"/>
      <path id="Path_476" data-name="Path 476" d="M5775.658-1664.142a9,9,0,0,1,2.674.977c2.789,1.611,2.8,4.214.031,5.815a11.133,11.133,0,0,1-10.072-.018c-2.79-1.611-2.8-4.215-.031-5.815a8.844,8.844,0,0,1,2.672-.969" fill="none" stroke="#666668" stroke-linecap="round" stroke-linejoin="round" stroke-width="3"/>
      <path id="Path_477" data-name="Path 477" d="M5770.933-1661.519a1.218,1.218,0,0,0,.7.931,3.722,3.722,0,0,0,3.365.006,1.174,1.174,0,0,0,.692-.97" fill="none" stroke="#666668" stroke-linecap="round" stroke-linejoin="round" stroke-width="3"/>
      <ellipse id="Ellipse_4" data-name="Ellipse 4" cx="2.108" cy="3.651" rx="2.108" ry="3.651" transform="translate(5777.61 -1630.248) rotate(-89.689)" fill="none" stroke="#666668" stroke-linecap="round" stroke-linejoin="round" stroke-width="3"/>
      <ellipse id="Ellipse_5" data-name="Ellipse 5" cx="2.108" cy="3.651" rx="2.108" ry="3.651" transform="translate(5792.345 -1658.652) rotate(-89.689)" fill="none" stroke="#666668" stroke-linecap="round" stroke-linejoin="round" stroke-width="3"/>
      <ellipse id="Ellipse_6" data-name="Ellipse 6" cx="2.108" cy="3.651" rx="2.108" ry="3.651" transform="translate(5740.756 -1651.256) rotate(-89.689)" fill="none" stroke="#666668" stroke-linecap="round" stroke-linejoin="round" stroke-width="3"/>
    </g>
  </g>
</svg>
