<svg xmlns="http://www.w3.org/2000/svg" width="2322" height="1080" viewBox="0 0 2322 1080"><rect width="2322" height="1080" fill="none"/><g transform="translate(-1893.011 2086.597)"><path d="M2983.776-1706.73l-50.188,292.762a8.872,8.872,0,0,0,8.744,10.371h35.327a8.873,8.873,0,0,0,8.784-7.628l4.551-32.153a5.324,5.324,0,0,1,5.27-4.577h48.524a5.324,5.324,0,0,1,5.271,4.577l4.551,32.153a8.872,8.872,0,0,0,8.784,7.628h35.326a8.872,8.872,0,0,0,8.744-10.371l-50.187-292.762a8.873,8.873,0,0,0-8.745-7.372H2992.52A8.872,8.872,0,0,0,2983.776-1706.73Zm16.26,199.477L3018.77-1652a1.774,1.774,0,0,1,3.513,0l18.734,144.748a5.324,5.324,0,0,1-5.271,6.069h-30.439A5.324,5.324,0,0,1,3000.036-1507.253Z" fill="#38383a" opacity="0.12"/><path d="M3248-1598.772h-56.779a5.323,5.323,0,0,1-5.323-5.323v-51.455a5.323,5.323,0,0,1,5.323-5.323h84.75a8.871,8.871,0,0,0,8.75-7.413l5.915-35.486a8.872,8.872,0,0,0-8.751-10.33H3141.539a8.872,8.872,0,0,0-8.872,8.871v292.762a8.872,8.872,0,0,0,8.872,8.872H3248a62.1,62.1,0,0,0,62.1-62.1v-70.973A62.1,62.1,0,0,0,3248-1598.772Zm8.871,133.074a8.871,8.871,0,0,1-8.871,8.872h-56.779a5.324,5.324,0,0,1-5.323-5.323v-78.07a5.323,5.323,0,0,1,5.323-5.323H3248a8.871,8.871,0,0,1,8.871,8.871Z" fill="#38383a" opacity="0.12"/><path d="M2210.022-1598.772h-56.778a5.323,5.323,0,0,1-5.323-5.323v-51.455a5.323,5.323,0,0,1,5.323-5.323h84.749a8.871,8.871,0,0,0,8.751-7.413l5.915-35.486a8.872,8.872,0,0,0-8.751-10.33H2103.563a8.872,8.872,0,0,0-8.871,8.871v292.762a8.872,8.872,0,0,0,8.871,8.872h106.459a62.1,62.1,0,0,0,62.1-62.1v-70.973A62.1,62.1,0,0,0,2210.022-1598.772Zm8.872,133.074a8.872,8.872,0,0,1-8.872,8.872h-56.778a5.324,5.324,0,0,1-5.323-5.323v-78.07a5.323,5.323,0,0,1,5.323-5.323h56.778a8.872,8.872,0,0,1,8.872,8.871Z" fill="#38383a" opacity="0.12"/><path d="M4206.128-1607.643V-1652a62.1,62.1,0,0,0-62.1-62.1H4046.44a8.872,8.872,0,0,0-8.872,8.871v292.762a8.872,8.872,0,0,0,8.872,8.872H4152.9a62.1,62.1,0,0,0,62.1-62.1v-70.973a61.862,61.862,0,0,0-16.186-41.769A61.709,61.709,0,0,0,4206.128-1607.643Zm-110.007-53.23h47.906A8.872,8.872,0,0,1,4152.9-1652v44.358a8.872,8.872,0,0,1-8.872,8.871h-47.906a5.323,5.323,0,0,1-5.323-5.323v-51.455A5.323,5.323,0,0,1,4096.121-1660.873Zm65.65,195.175a8.872,8.872,0,0,1-8.872,8.872h-56.778a5.323,5.323,0,0,1-5.323-5.323v-78.07a5.323,5.323,0,0,1,5.323-5.323H4152.9a8.872,8.872,0,0,1,8.872,8.871Z" fill="#38383a" opacity="0.12"/><path d="M2579.009-1607.643V-1652a62.1,62.1,0,0,0-62.1-62.1h-17.743a62.1,62.1,0,0,0-62.1,62.1v1.356a8.871,8.871,0,0,0,7.413,8.751l35.486,5.914a8.872,8.872,0,0,0,10.33-8.751V-1652a8.872,8.872,0,0,1,8.872-8.872h17.743a8.872,8.872,0,0,1,8.872,8.872v44.358a8.872,8.872,0,0,1-8.872,8.871h-17.743a8.872,8.872,0,0,0-8.872,8.872v35.486a8.872,8.872,0,0,0,8.872,8.872h17.743a17.743,17.743,0,0,1,17.743,17.743v53.229a17.743,17.743,0,0,1-17.743,17.744h-17.743a17.743,17.743,0,0,1-17.743-17.744v-19.1a8.872,8.872,0,0,0-7.413-8.751l-35.487-5.914a8.871,8.871,0,0,0-10.33,8.751v25.013a70.973,70.973,0,0,0,70.973,70.973h17.743a70.973,70.973,0,0,0,70.973-70.973V-1527.8a70.676,70.676,0,0,0-18.114-47.3A61.712,61.712,0,0,0,2579.009-1607.643Z" fill="#38383a" opacity="0.12"/><path d="M2289.867-1598.772v186.3a8.872,8.872,0,0,0,8.871,8.872H2405.2a8.872,8.872,0,0,0,8.872-8.872v-35.486a8.871,8.871,0,0,0-8.872-8.871h-56.778a5.323,5.323,0,0,1-5.323-5.323v-78.07a5.323,5.323,0,0,1,5.323-5.323h21.292a8.872,8.872,0,0,0,8.872-8.872V-1589.9a8.872,8.872,0,0,0-8.872-8.872h-21.292a5.323,5.323,0,0,1-5.323-5.323v-51.455a5.323,5.323,0,0,1,5.323-5.323h49.263a8.871,8.871,0,0,0,8.751-7.413l5.914-35.486a8.872,8.872,0,0,0-8.751-10.33H2298.738a8.872,8.872,0,0,0-8.871,8.871Z" fill="#38383a" opacity="0.12"/><path d="M3792.713-1581.029h-42.584a5.323,5.323,0,0,1-5.323-5.323v-118.879a8.871,8.871,0,0,0-8.871-8.871h-35.487a8.872,8.872,0,0,0-8.871,8.871v292.762a8.872,8.872,0,0,0,8.871,8.872h35.487a8.871,8.871,0,0,0,8.871-8.872v-110.007a5.323,5.323,0,0,1,5.323-5.323h42.584a5.323,5.323,0,0,1,5.323,5.323v110.007a8.872,8.872,0,0,0,8.871,8.872h35.487a8.871,8.871,0,0,0,8.871-8.872v-292.762a8.871,8.871,0,0,0-8.871-8.871h-35.487a8.872,8.872,0,0,0-8.871,8.871v118.879A5.323,5.323,0,0,1,3792.713-1581.029Z" fill="#38383a" opacity="0.12"/><path d="M3953.43-1714.1H3935.4a66.469,66.469,0,0,0-66.4,66.394v177.716a66.469,66.469,0,0,0,66.4,66.395h18.027a66.469,66.469,0,0,0,66.4-66.395v-177.716A66.469,66.469,0,0,0,3953.43-1714.1Zm13.166,244.11a13.341,13.341,0,0,1-13.166,13.166H3935.4a13.341,13.341,0,0,1-13.165-13.166v-177.716a13.34,13.34,0,0,1,13.165-13.165h18.027a13.34,13.34,0,0,1,13.166,13.165Z" fill="#38383a" opacity="0.12"/><path d="M3607.439-1714.1h-18.028a66.469,66.469,0,0,0-66.394,66.394v177.716a66.469,66.469,0,0,0,66.394,66.395h18.028a66.468,66.468,0,0,0,66.394-66.395v-177.716A66.468,66.468,0,0,0,3607.439-1714.1Zm13.165,244.11a13.341,13.341,0,0,1-13.165,13.166h-18.028a13.341,13.341,0,0,1-13.165-13.166v-177.716a13.34,13.34,0,0,1,13.165-13.165h18.028a13.34,13.34,0,0,1,13.165,13.165Z" fill="#38383a" opacity="0.12"/><path d="M2869.989-1459.766h-24.84a5.323,5.323,0,0,1-5.323-5.323V-1708.17a8.872,8.872,0,0,0-8.871-8.872h-35.487a8.872,8.872,0,0,0-8.871,8.872v243.081a5.323,5.323,0,0,1-5.323,5.323h-24.841a5.323,5.323,0,0,1-5.323-5.323V-1708.17a8.872,8.872,0,0,0-8.871-8.872h-35.487a8.872,8.872,0,0,0-8.871,8.872v292.762a8.872,8.872,0,0,0,8.871,8.872H2919.67a8.872,8.872,0,0,0,8.872-8.872V-1708.17a8.872,8.872,0,0,0-8.872-8.872h-35.486a8.872,8.872,0,0,0-8.872,8.872v243.081A5.323,5.323,0,0,1,2869.989-1459.766Z" fill="#38383a" opacity="0.12"/><path d="M3353.644-1715.237a8.871,8.871,0,0,0-8.853,8.3l-18.973,292.762a8.872,8.872,0,0,0,8.853,9.445h35.407a8.872,8.872,0,0,0,8.856-8.343L3393.5-1657a5.323,5.323,0,0,1,5.313-5.006h45.271a5.323,5.323,0,0,1,5.323,5.323V-1413.6a8.872,8.872,0,0,0,8.872,8.871h35.486a8.871,8.871,0,0,0,8.872-8.871v-292.763a8.872,8.872,0,0,0-8.872-8.871H3353.644Z" fill="#38383a" opacity="0.12"/><path d="M2779.128-2042.952,2729-1750.517a8.862,8.862,0,0,0,8.734,10.359h35.287a8.862,8.862,0,0,0,8.774-7.62l4.546-32.117a5.318,5.318,0,0,1,5.265-4.572h48.469a5.317,5.317,0,0,1,5.265,4.572l4.546,32.117a8.862,8.862,0,0,0,8.774,7.62h35.287a8.862,8.862,0,0,0,8.734-10.359l-50.131-292.435a8.862,8.862,0,0,0-8.735-7.364h-55.949A8.861,8.861,0,0,0,2779.128-2042.952Zm16.241,199.253,18.713-144.586a1.773,1.773,0,0,1,3.51,0L2836.3-1843.7a5.317,5.317,0,0,1-5.265,6.062h-30.405A5.317,5.317,0,0,1,2795.369-1843.7Z" fill="#38383a" opacity="0.291"/><path d="M2109.383-1943.976v-44.309a62.032,62.032,0,0,0-62.032-62.031h-97.478a8.862,8.862,0,0,0-8.862,8.862v292.434a8.862,8.862,0,0,0,8.862,8.862h106.34a62.032,62.032,0,0,0,62.031-62.032v-70.893a61.791,61.791,0,0,0-16.168-41.723A61.637,61.637,0,0,0,2109.383-1943.976Zm-109.885-53.17h47.853a8.861,8.861,0,0,1,8.862,8.861v44.309a8.861,8.861,0,0,1-8.862,8.861H1999.5a5.317,5.317,0,0,1-5.317-5.317v-51.4A5.317,5.317,0,0,1,1999.5-1997.146Zm65.577,194.956a8.862,8.862,0,0,1-8.862,8.862H1999.5a5.318,5.318,0,0,1-5.317-5.317v-77.983a5.318,5.318,0,0,1,5.317-5.317h56.715a8.862,8.862,0,0,1,8.862,8.862Z" fill="#38383a" opacity="0.291"/><path d="M2675.224-2050.316h-106.34a8.862,8.862,0,0,0-8.862,8.862v292.434a8.862,8.862,0,0,0,8.862,8.862h35.446a8.862,8.862,0,0,0,8.862-8.862v-109.885a5.318,5.318,0,0,1,5.317-5.317h56.715a62.031,62.031,0,0,0,62.031-62.031v-62.032A62.031,62.031,0,0,0,2675.224-2050.316Zm8.861,124.063a8.862,8.862,0,0,1-8.861,8.862h-56.715a5.318,5.318,0,0,1-5.317-5.317v-69.121a5.317,5.317,0,0,1,5.317-5.317h56.715a8.861,8.861,0,0,1,8.861,8.861Z" fill="#38383a" opacity="0.291"/><path d="M2316.8-1935.115v186.095a8.862,8.862,0,0,0,8.862,8.862h107.694a8.861,8.861,0,0,0,8.741-7.405L2448-1783.01a8.861,8.861,0,0,0-8.741-10.318h-63.977a5.317,5.317,0,0,1-5.317-5.317v-77.983a5.317,5.317,0,0,1,5.317-5.317h21.268a8.861,8.861,0,0,0,8.861-8.861v-35.447a8.862,8.862,0,0,0-8.861-8.862h-21.268a5.316,5.316,0,0,1-5.317-5.317v-51.4a5.316,5.316,0,0,1,5.317-5.317h65.576a8.862,8.862,0,0,0,8.862-8.862v-35.446a8.862,8.862,0,0,0-8.862-8.862h-115.2a8.861,8.861,0,0,0-8.862,8.862Z" fill="#38383a" opacity="0.291"/><path d="M3460.418-2045.655,3407.5-1947.37a5.317,5.317,0,0,1-10-2.521v-91.563a8.862,8.862,0,0,0-8.862-8.862H3353.2a8.861,8.861,0,0,0-8.861,8.862v292.434a8.862,8.862,0,0,0,8.861,8.862h35.447a8.862,8.862,0,0,0,8.862-8.862v-76.971a17.721,17.721,0,0,1,2.291-8.716l11.192-19.817a5.317,5.317,0,0,1,9.616.769l39.889,107.81a8.863,8.863,0,0,0,8.312,5.787h39.47a8.862,8.862,0,0,0,8.18-12.27L3448.2-1916.241a5.317,5.317,0,0,1,.278-4.66l65.625-116.2a8.862,8.862,0,0,0-7.716-13.219h-38.166A8.863,8.863,0,0,0,3460.418-2045.655Z" fill="#38383a" opacity="0.291"/><path d="M3100.638-2050.316h-9.231a8.862,8.862,0,0,0-8.664,7l-40.671,189.527a3.545,3.545,0,0,1-6.932,0l-40.67-189.527a8.863,8.863,0,0,0-8.665-7h-53.539a8.861,8.861,0,0,0-8.861,8.862v292.434a8.862,8.862,0,0,0,8.861,8.862h35.447a8.862,8.862,0,0,0,8.862-8.862v-124.871a1.772,1.772,0,0,1,3.506-.368L3007-1747.183a8.863,8.863,0,0,0,8.67,7.025h45.863a8.862,8.862,0,0,0,8.669-7.025l26.925-127.076a1.772,1.772,0,0,1,3.506.368v124.871a8.862,8.862,0,0,0,8.861,8.862h35.447a8.862,8.862,0,0,0,8.862-8.862v-292.434a8.862,8.862,0,0,0-8.862-8.862h-44.308Z" fill="#38383a" opacity="0.291"/><path d="M2238.31-1917.391h-42.536a5.318,5.318,0,0,1-5.317-5.317v-118.746a8.861,8.861,0,0,0-8.862-8.862h-35.446a8.862,8.862,0,0,0-8.862,8.862v292.434a8.862,8.862,0,0,0,8.862,8.862h35.446a8.862,8.862,0,0,0,8.862-8.862v-109.885a5.318,5.318,0,0,1,5.317-5.317h42.536a5.318,5.318,0,0,1,5.317,5.317v109.885a8.862,8.862,0,0,0,8.862,8.862h35.446a8.862,8.862,0,0,0,8.862-8.862v-292.434a8.862,8.862,0,0,0-8.862-8.862h-35.446a8.861,8.861,0,0,0-8.862,8.862v118.746A5.318,5.318,0,0,1,2238.31-1917.391Z" fill="#38383a" opacity="0.291"/><path d="M3258.135-2050.316h-18.007a66.394,66.394,0,0,0-66.32,66.32v177.517a66.4,66.4,0,0,0,66.32,66.321h18.007a66.4,66.4,0,0,0,66.321-66.321V-1984A66.4,66.4,0,0,0,3258.135-2050.316Zm13.151,243.837a13.327,13.327,0,0,1-13.151,13.151h-18.007a13.326,13.326,0,0,1-13.15-13.151V-1984a13.325,13.325,0,0,1,13.15-13.15h18.007a13.326,13.326,0,0,1,13.151,13.15Z" fill="#38383a" opacity="0.291"/></g></svg>