<svg xmlns="http://www.w3.org/2000/svg" width="2238.259" height="1206.196" viewBox="0 0 2238.259 1206.196"><g transform="translate(318.259 32.767)"><g transform="translate(795.254 -661.956)"><path d="M834.262,745.276v82.17a8.217,8.217,0,0,1-8.217,8.217H793.177a8.217,8.217,0,0,1-8.217-8.217v-98.6a8.216,8.216,0,0,0-8.216-8.217H743.875a8.217,8.217,0,0,0-8.217,8.217v98.6a57.519,57.519,0,0,0,57.519,57.519h32.868q1.517,0,3.016-.081a4.923,4.923,0,0,1,5.2,4.913V1000a8.216,8.216,0,0,0,8.216,8.217h32.869a8.217,8.217,0,0,0,8.217-8.217V728.843a8.217,8.217,0,0,0-8.217-8.217H842.479a8.216,8.216,0,0,0-8.216,8.217Z" transform="translate(2.069 0.003)" fill="#38383a" opacity="0.35"/><path d="M48.869,819.229V778.145A57.519,57.519,0,0,0-8.65,720.626H-99.036a8.217,8.217,0,0,0-8.217,8.217V1000a8.217,8.217,0,0,0,8.217,8.217h98.6A57.519,57.519,0,0,0,57.086,950.7V884.965a57.3,57.3,0,0,0-14.992-38.688A57.147,57.147,0,0,0,48.869,819.229Zm-101.89-49.3H-8.65a8.217,8.217,0,0,1,8.217,8.217v41.085a8.217,8.217,0,0,1-8.217,8.217H-53.021a4.93,4.93,0,0,1-4.93-4.93V774.858A4.93,4.93,0,0,1-53.021,769.928ZM7.785,950.7a8.217,8.217,0,0,1-8.217,8.217H-53.021a4.93,4.93,0,0,1-4.93-4.93v-72.31a4.93,4.93,0,0,1,4.93-4.93H-.432a8.217,8.217,0,0,1,8.217,8.217Z" transform="translate(0 0.003)" fill="#38383a" opacity="0.35"/><path d="M517.337,720.626h-98.6a8.217,8.217,0,0,0-8.217,8.217V1000a8.217,8.217,0,0,0,8.217,8.217H451.6a8.217,8.217,0,0,0,8.217-8.217V898.113a4.93,4.93,0,0,1,4.93-4.93h52.589a57.519,57.519,0,0,0,57.519-57.519V778.145A57.519,57.519,0,0,0,517.337,720.626Zm8.217,115.038a8.217,8.217,0,0,1-8.217,8.217H464.748a4.93,4.93,0,0,1-4.93-4.93V774.858a4.93,4.93,0,0,1,4.93-4.93h52.589a8.217,8.217,0,0,1,8.217,8.217Z" transform="translate(1.271 0.003)" fill="#38383a" opacity="0.35"/><path d="M596.995,827.447V1000a8.216,8.216,0,0,0,8.216,8.217h98.6a8.217,8.217,0,0,0,8.217-8.217V967.136a8.217,8.217,0,0,0-8.217-8.217H651.227a4.93,4.93,0,0,1-4.93-4.93v-72.31a4.93,4.93,0,0,1,4.93-4.93h19.72a8.217,8.217,0,0,0,8.217-8.217V835.664a8.217,8.217,0,0,0-8.217-8.217h-19.72a4.93,4.93,0,0,1-4.93-4.93V774.858a4.93,4.93,0,0,1,4.93-4.93h45.628a8.216,8.216,0,0,0,8.1-6.866l5.478-32.869a8.216,8.216,0,0,0-8.1-9.567H605.211a8.216,8.216,0,0,0-8.216,8.217Z" transform="translate(1.729 0.003)" fill="#38383a" opacity="0.35"/><path d="M159.124,719.381h-16.77a61.762,61.762,0,0,0-61.762,61.762V946.461a61.762,61.762,0,0,0,61.762,61.762h16.77a61.762,61.762,0,0,0,61.762-61.762V929.276a8.252,8.252,0,0,0-7.545-8.222l-33.011-2.839a8.252,8.252,0,0,0-8.959,8.222v20.024a12.283,12.283,0,0,1-12.247,12.246h-16.77a12.283,12.283,0,0,1-12.247-12.246V781.143A12.283,12.283,0,0,1,142.354,768.9h16.77a12.283,12.283,0,0,1,12.247,12.246v17.185a8.252,8.252,0,0,0,7.545,8.222l33.01,2.839a8.252,8.252,0,0,0,8.96-8.222V781.143A61.762,61.762,0,0,0,159.124,719.381Z" transform="translate(0.461 0)" fill="#38383a" opacity="0.35"/><path d="M247.281,769.928h36.156a4.93,4.93,0,0,1,4.93,4.93V1000a8.217,8.217,0,0,0,8.217,8.217h32.867a8.217,8.217,0,0,0,8.217-8.217V774.858a4.93,4.93,0,0,1,4.93-4.93h36.155a8.217,8.217,0,0,0,8.217-8.217V728.843a8.217,8.217,0,0,0-8.217-8.217H247.281a8.216,8.216,0,0,0-8.216,8.217v32.867A8.216,8.216,0,0,0,247.281,769.928Z" transform="translate(0.85 0.003)" fill="#38383a" opacity="0.35"/><path d="M984.786,798.927a4.93,4.93,0,0,1-9.6.139l-16.7-74.84a4.93,4.93,0,0,0-4.748-3.6H916.015a8.216,8.216,0,0,0-7.861,10.609l48.207,158.394a16.437,16.437,0,0,1,.237,8.709l-24.518,99.7a8.217,8.217,0,0,0,7.979,10.179h29.555a8.217,8.217,0,0,0,7.937-6.094l72.515-271.161a8.216,8.216,0,0,0-7.937-10.339h-37.964a4.93,4.93,0,0,0-4.788,3.752Z" transform="translate(2.492 0.003)" fill="#38383a" opacity="0.35"/></g><g transform="translate(-11446 2039.892)"><path d="M11903.917-1976.249l-46.724,272.557a8.259,8.259,0,0,0,8.14,9.655h32.889a8.26,8.26,0,0,0,8.178-7.1l4.237-29.934a4.955,4.955,0,0,1,4.906-4.261h45.176a4.956,4.956,0,0,1,4.907,4.261l4.236,29.934a8.258,8.258,0,0,0,8.178,7.1h32.889a8.261,8.261,0,0,0,8.141-9.655l-46.725-272.557a8.259,8.259,0,0,0-8.141-6.864h-52.146A8.26,8.26,0,0,0,11903.917-1976.249Zm15.139,185.709L11936.5-1925.3a1.652,1.652,0,0,1,3.271,0l17.441,134.758a4.957,4.957,0,0,1-4.907,5.651h-28.34A4.954,4.954,0,0,1,11919.056-1790.539Z" transform="translate(36.375 0.209)" fill="#38383a" opacity="0.35"/><path d="M11815.438-1859.579h-39.78a4.972,4.972,0,0,1-4.972-4.973V-1975.6a8.289,8.289,0,0,0-8.288-8.288h-33.15a8.287,8.287,0,0,0-8.288,8.288v273.488a8.288,8.288,0,0,0,8.288,8.288h33.15a8.289,8.289,0,0,0,8.288-8.288v-102.765a4.972,4.972,0,0,1,4.972-4.973h39.78a4.971,4.971,0,0,1,4.971,4.973v102.765a8.289,8.289,0,0,0,8.288,8.288h33.15a8.288,8.288,0,0,0,8.288-8.288V-1975.6a8.287,8.287,0,0,0-8.288-8.288h-33.15a8.289,8.289,0,0,0-8.288,8.288v111.053A4.971,4.971,0,0,1,11815.438-1859.579Z" transform="translate(0 0)" fill="#38383a" opacity="0.35"/></g><g transform="translate(-17278 -439.639)"><path d="M12130.51-1715h-18a66.288,66.288,0,0,0-66.287,66.287v177.426a66.288,66.288,0,0,0,66.287,66.287h18a66.286,66.286,0,0,0,66.286-66.287v-18.443a8.856,8.856,0,0,0-8.1-8.825l-35.429-3.047a8.857,8.857,0,0,0-9.615,8.825v21.49a13.183,13.183,0,0,1-13.145,13.144h-18a13.183,13.183,0,0,1-13.144-13.144v-177.426a13.183,13.183,0,0,1,13.144-13.144h18a13.183,13.183,0,0,1,13.145,13.144v18.443a8.856,8.856,0,0,0,8.1,8.825l35.428,3.047a8.858,8.858,0,0,0,9.616-8.825v-21.49A66.286,66.286,0,0,0,12130.51-1715Z" transform="translate(5729 2522.639)" fill="#38383a" opacity="0.35"/><g transform="translate(6038 2197.639)" opacity="0.35"><path d="M12396.692-1371.405l-46.591,271.778a8.236,8.236,0,0,0,8.117,9.627h32.794a8.235,8.235,0,0,0,8.154-7.081l4.226-29.849a4.942,4.942,0,0,1,4.893-4.248h45.046a4.94,4.94,0,0,1,4.893,4.248l4.226,29.849a8.235,8.235,0,0,0,8.153,7.081h32.795a8.236,8.236,0,0,0,8.117-9.627l-46.591-271.778a8.236,8.236,0,0,0-8.117-6.844h-52A8.236,8.236,0,0,0,12396.692-1371.405Zm15.095,185.179,17.39-134.373a1.648,1.648,0,0,1,3.263,0l17.391,134.373a4.942,4.942,0,0,1-4.894,5.634h-28.258A4.941,4.941,0,0,1,12411.787-1186.226Z" fill="#38383a"/><path d="M13039.3-1380h-8.578a8.237,8.237,0,0,0-8.053,6.508l-37.8,176.139a3.3,3.3,0,0,1-6.442,0l-37.8-176.139a8.234,8.234,0,0,0-8.052-6.508h-49.757a8.236,8.236,0,0,0-8.235,8.236v271.777a8.236,8.236,0,0,0,8.235,8.236h32.942a8.236,8.236,0,0,0,8.236-8.236v-116.05a1.647,1.647,0,0,1,3.258-.342l25.023,118.1a8.235,8.235,0,0,0,8.057,6.529h42.623a8.236,8.236,0,0,0,8.057-6.529l25.023-118.1a1.647,1.647,0,0,1,3.258.342v116.05a8.236,8.236,0,0,0,8.236,8.236h32.941a8.235,8.235,0,0,0,8.236-8.236v-271.777a8.235,8.235,0,0,0-8.236-8.236H13039.3Z" fill="#38383a"/><path d="M12629.7-1254.714h-39.531a4.941,4.941,0,0,1-4.941-4.941v-110.358a8.236,8.236,0,0,0-8.235-8.236h-32.943a8.235,8.235,0,0,0-8.235,8.236v271.777a8.235,8.235,0,0,0,8.235,8.236H12577a8.236,8.236,0,0,0,8.235-8.236v-102.122a4.941,4.941,0,0,1,4.941-4.941h39.531a4.941,4.941,0,0,1,4.94,4.941v102.122a8.237,8.237,0,0,0,8.236,8.236h32.943a8.235,8.235,0,0,0,8.234-8.236v-271.777a8.235,8.235,0,0,0-8.234-8.236h-32.943a8.237,8.237,0,0,0-8.236,8.236v110.358A4.941,4.941,0,0,1,12629.7-1254.714Z" fill="#38383a"/><path d="M12787.109-1380h-16.736a61.7,61.7,0,0,0-61.635,61.636v164.977a61.7,61.7,0,0,0,61.635,61.636h16.736a61.7,61.7,0,0,0,61.635-61.636v-164.977A61.7,61.7,0,0,0,12787.109-1380Zm12.221,226.613a12.384,12.384,0,0,1-12.221,12.222h-16.736a12.384,12.384,0,0,1-12.221-12.222v-164.977a12.384,12.384,0,0,1,12.221-12.222h16.736a12.384,12.384,0,0,1,12.221,12.222Z" fill="#38383a"/><path d="M12014.707-1380h-16.471a8.235,8.235,0,0,0-8.236,8.236v271.777a8.235,8.235,0,0,0,8.236,8.236h32.941a8.236,8.236,0,0,0,8.236-8.236v-225.658a4.941,4.941,0,0,1,4.941-4.941h39.531a4.941,4.941,0,0,1,4.941,4.941v225.658a8.235,8.235,0,0,0,8.236,8.236h32.942a8.236,8.236,0,0,0,8.235-8.236v-271.777a8.236,8.236,0,0,0-8.235-8.236h-115.3Z" fill="#38383a"/><path d="M12187.617-1380a8.236,8.236,0,0,0-8.218,7.7l-17.613,271.777a8.236,8.236,0,0,0,8.219,8.769h32.869a8.236,8.236,0,0,0,8.221-7.745l13.523-226.443a4.941,4.941,0,0,1,4.932-4.647h42.026a4.941,4.941,0,0,1,4.941,4.941v225.658a8.236,8.236,0,0,0,8.235,8.236h32.943a8.236,8.236,0,0,0,8.235-8.236v-271.777a8.236,8.236,0,0,0-8.235-8.236h-130.079Z" fill="#38383a"/></g></g><g transform="matrix(0.999, 0.035, -0.035, 0.999, 3122.502, -2214.287)"><ellipse cx="569.465" cy="532.229" rx="569.465" ry="532.229" transform="translate(-2998.542 2388.709)" stroke-width="3" stroke="#333" stroke-linecap="round" stroke-linejoin="round" stroke-miterlimit="10" fill="none"/><path d="M-2899.615,2612.535l21.642,3.549c5.817.954,11.627-2,13.574-9.433l35.089-133.975c1.481-5.657-1.223-9.082-6.273-9.858l-190.144-29.262c-5.641-.868-11.5.355-13.582,6.7l-42.506,129.846c-1.779,5.438-2.742,12.1,5.126,13.389l171.3,28.1" transform="translate(202.627 134.258)" fill="none" stroke="#333" stroke-linecap="round" stroke-linejoin="round" stroke-miterlimit="10" stroke-width="3"/><g transform="translate(-2885.808 2563.162)"><path d="M-2901.2,2618.947l-174.675-28.351c-4.925-.807-7.366-3.293-8.547-5.236-2.765-4.551-1.41-10.2-.149-14.049l42.68-130.372c2.469-7.537,9.424-11.19,18.6-9.778l193.008,29.379a11.129,11.129,0,0,1,8.2,5.126c1.286,1.958,2.506,4.992,1.2,9.982l-35.1,134.736c-2.112,8.065-7.838,13.18-15.358,13.18a18.058,18.058,0,0,1-2.918-.243l-21.169-3.435" transform="translate(3086.041 -2430.862)" fill="none" stroke="#333" stroke-linecap="round" stroke-linejoin="round" stroke-miterlimit="10" stroke-width="3"/></g><path d="M-3033.428,2633.07l16.077-5.6a1.522,1.522,0,0,1,1.957,1l28.009,93.793a1.517,1.517,0,0,1-.958,1.87l-17.119,5.947a1.523,1.523,0,0,1-1.962-1.019l-26.965-94.136A1.52,1.52,0,0,1-3033.428,2633.07Z" transform="translate(241.534 289.619)" fill="none" stroke="#666668" stroke-linecap="round" stroke-linejoin="round" stroke-miterlimit="10" stroke-width="3"/><g transform="translate(-2884.479 2603.623)"><path d="M-2900.811,2603.919l-174.859-28.381c-4.925-.807-7.366-3.293-8.547-5.236a10.623,10.623,0,0,1-1.085-2.444m264.386-114.524.233,4.154a22.623,22.623,0,0,1-.8,6.174l-34.3,131.663c-2.11,8.064-7.838,13.179-15.358,13.179a18.041,18.041,0,0,1-2.919-.243l-20.981-3.4" transform="translate(3085.303 -2453.334)" fill="none" stroke="#333" stroke-linecap="round" stroke-linejoin="round" stroke-miterlimit="10" stroke-width="3"/></g><path d="M-2938.574,2452.306" transform="translate(318.283 149.466)" fill="none" stroke="#666668" stroke-linecap="round" stroke-miterlimit="10" stroke-width="3"/><line x2="0.954" y2="3.529" transform="translate(-2885.433 2714.619)" fill="none" stroke="#666668" stroke-linecap="round" stroke-miterlimit="10" stroke-width="3"/><path d="M-2873.54,2555.031a12.765,12.765,0,0,0-13.543-3.79l-209.036,67.051a16.171,16.171,0,0,0-10.708,19.491l32.435,124.056.783,1.368a11.067,11.067,0,0,1,1.1,2.7l11.408,43.433a11,11,0,0,1,.36,2.529l.065,2.447,36.347,139.017a14.311,14.311,0,0,0,18.576,9.889l224.977-78.756a17.971,17.971,0,0,0,11.839-13.933" transform="translate(183.169 228.174)" fill="none" stroke="#666668" stroke-linecap="round" stroke-linejoin="round" stroke-miterlimit="10" stroke-width="3"/><path d="M-3075.329,2720.548l1.19-.388a3,3,0,0,0,1.964-3.623l-12.409-46.553a3,3,0,0,0-3.684-2.121l-.782.211" transform="translate(197.825 321.939)" fill="none" stroke="#666668" stroke-linecap="round" stroke-linejoin="round" stroke-miterlimit="10" stroke-width="3"/><path d="M-2837.093,2826.333l4.357,11.73a3.093,3.093,0,0,1-1.844,3.983l-126.868,45.989a4.132,4.132,0,0,1-5.375-2.73l-85.748-294.948a3.091,3.091,0,0,1,2.024-3.806l25.242-8.1" transform="translate(226.928 250.451)" fill="none" stroke="#666668" stroke-linecap="round" stroke-linejoin="round" stroke-miterlimit="10" stroke-width="3"/><path d="M-2958.978,2654.121l4.631,14.5a.9.9,0,0,1-.55,1.12l-14.838,5.4a.9.9,0,0,1-1.163-.565l-4.748-14.476a.9.9,0,0,1,.549-1.127l14.954-5.43A.9.9,0,0,1-2958.978,2654.121Z" transform="translate(288.571 310.522)" fill="none" stroke="#666668" stroke-linecap="round" stroke-linejoin="round" stroke-miterlimit="10" stroke-width="3"/><path d="M-2958.359,2658.694l-15.045,5.464a.9.9,0,0,1-1.163-.569l-4.656-14.366a.9.9,0,0,1,.549-1.124l15.106-5.486a.9.9,0,0,1,1.165.572l4.595,14.386A.9.9,0,0,1-2958.359,2658.694Z" transform="translate(285.707 301.767)" fill="none" stroke="#666668" stroke-linecap="round" stroke-linejoin="round" stroke-miterlimit="10" stroke-width="3"/><path d="M-2961.9,2647.4l-15.148,5.5a.9.9,0,0,1-1.163-.565l-4.631-14.125a.9.9,0,0,1,.545-1.125l15.249-5.569a.9.9,0,0,1,1.167.573l4.532,14.189A.9.9,0,0,1-2961.9,2647.4Z" transform="translate(282.808 292.882)" fill="none" stroke="#666668" stroke-linecap="round" stroke-linejoin="round" stroke-miterlimit="10" stroke-width="3"/><path d="M-2983.611,2619.228l4.561,14.291a.9.9,0,0,1-.551,1.12l-13.5,4.9a.9.9,0,0,1-1.167-.583l-4.4-14.4a.9.9,0,0,1,.557-1.111l13.34-4.791A.9.9,0,0,1-2983.611,2619.228Z" transform="translate(270.143 282.589)" fill="none" stroke="#666668" stroke-linecap="round" stroke-linejoin="round" stroke-miterlimit="10" stroke-width="3"/><path d="M-2979.972,2630.316l4.5,14.1a.9.9,0,0,1-.551,1.12l-13.738,4.989a.9.9,0,0,1-1.167-.583l-4.332-14.163a.9.9,0,0,1,.553-1.111l13.567-4.926A.9.9,0,0,1-2979.972,2630.316Z" transform="translate(272.876 291.465)" fill="none" stroke="#666668" stroke-linecap="round" stroke-linejoin="round" stroke-miterlimit="10" stroke-width="3"/><path d="M-2972.493,2656.252l-13.974,5.075a.9.9,0,0,1-1.168-.583l-4.231-13.835a.9.9,0,0,1,.555-1.111l13.806-5.015a.9.9,0,0,1,1.165.572l4.4,13.776A.9.9,0,0,1-2972.493,2656.252Z" transform="translate(275.59 300.301)" fill="none" stroke="#666668" stroke-linecap="round" stroke-linejoin="round" stroke-miterlimit="10" stroke-width="3"/><path d="M-2987.431,2646.989l-14.105,5.124a.9.9,0,0,0-.552,1.111l4.587,14.9a.9.9,0,0,0,1.167.582l14.116-5.128a.9.9,0,0,0,.553-1.111l-4.6-14.9A.9.9,0,0,0-2987.431,2646.989Z" transform="translate(267.406 305.27)" fill="none" stroke="#666668" stroke-linecap="round" stroke-linejoin="round" stroke-miterlimit="10" stroke-width="3"/><path d="M-2987.945,2656.887l14.026-5.159a.9.9,0,0,1,1.168.571l4.294,13.45a.9.9,0,0,1-.543,1.117l-14.172,5.273a.9.9,0,0,1-1.176-.58L-2988.5,2658A.9.9,0,0,1-2987.945,2656.887Z" transform="translate(278.289 309.062)" fill="none" stroke="#666668" stroke-linecap="round" stroke-linejoin="round" stroke-miterlimit="10" stroke-width="3"/><path d="M-2962.4,2643.186l4.595,14.386a.9.9,0,0,1-.551,1.122l-15.045,5.464a.9.9,0,0,1-1.163-.569l-4.656-14.366a.9.9,0,0,1,.549-1.124l15.106-5.486A.9.9,0,0,1-2962.4,2643.186Z" transform="translate(285.707 301.767)" fill="none" stroke="#666668" stroke-linecap="round" stroke-linejoin="round" stroke-miterlimit="10" stroke-width="3"/><path d="M-2960.142,2653.55l-14.954,5.43a.9.9,0,0,0-.549,1.127l4.748,14.476a.9.9,0,0,0,1.163.565l14.838-5.4a.9.9,0,0,0,.55-1.12l-4.631-14.5A.9.9,0,0,0-2960.142,2653.55Z" transform="translate(288.571 310.522)" fill="none" stroke="#666668" stroke-linecap="round" stroke-linejoin="round" stroke-miterlimit="10" stroke-width="3"/><path d="M-2964.442,2677.54l-4.418-13.842a.9.9,0,0,0-1.165-.572l-14.589,5.3a.9.9,0,0,0-.548,1.127l4.532,13.8a.9.9,0,0,0,1.162.565l14.478-5.259A.9.9,0,0,0-2964.442,2677.54Z" transform="translate(280.951 318.187)" fill="none" stroke="#666668" stroke-linecap="round" stroke-linejoin="round" stroke-miterlimit="10" stroke-width="3"/><path d="M-2965.448,2674.477l4.717,14.777a.9.9,0,0,1-.553,1.122l-14.716,5.3a.9.9,0,0,1-1.167-.583l-4.526-14.8a.9.9,0,0,1,.553-1.109l14.526-5.276A.9.9,0,0,1-2965.448,2674.477Z" transform="translate(283.734 326.816)" fill="none" stroke="#666668" stroke-linecap="round" stroke-linejoin="round" stroke-miterlimit="10" stroke-width="3"/><path d="M-2977.072,2680.542l-14.129,5.193a.9.9,0,0,0-.549,1.109l4.633,15.054a.9.9,0,0,0,1.176.578l14.116-5.267a.9.9,0,0,0,.545-1.109l-4.622-14.978A.9.9,0,0,0-2977.072,2680.542Z" transform="translate(275.682 332.13)" fill="none" stroke="#666668" stroke-linecap="round" stroke-linejoin="round" stroke-miterlimit="10" stroke-width="3"/><path d="M-2980.568,2669.2l-14.13,5.131a.9.9,0,0,0-.553,1.111l4.633,15.056a.9.9,0,0,0,1.168.58l14.141-5.135a.9.9,0,0,0,.553-1.111l-4.644-15.052A.9.9,0,0,0-2980.568,2669.2Z" transform="translate(272.88 323.05)" fill="none" stroke="#666668" stroke-linecap="round" stroke-linejoin="round" stroke-miterlimit="10" stroke-width="3"/><path d="M-2978.393,2673.07l-4.392-14.24a.9.9,0,0,0-1.167-.582l-14.12,5.128a.9.9,0,0,0-.553,1.111l4.384,14.244a.9.9,0,0,0,1.167.58l14.127-5.13A.9.9,0,0,0-2978.393,2673.07Z" transform="translate(270.181 314.283)" fill="none" stroke="#666668" stroke-linecap="round" stroke-linejoin="round" stroke-miterlimit="10" stroke-width="3"/><path d="M-2985.187,2651.08l-4.424-14.34a.9.9,0,0,0-1.167-.582l-14.093,5.119a.9.9,0,0,0-.555,1.111l4.415,14.343a.9.9,0,0,0,1.168.582l14.1-5.122A.9.9,0,0,0-2985.187,2651.08Z" transform="translate(264.736 296.601)" fill="none" stroke="#666668" stroke-linecap="round" stroke-linejoin="round" stroke-miterlimit="10" stroke-width="3"/><path d="M-2988.861,2639.185l-4.125-13.369a.9.9,0,0,0-1.168-.582l-14.079,5.116a.9.9,0,0,0-.554,1.111l4.125,13.4a.9.9,0,0,0,1.168.582l14.08-5.142A.9.9,0,0,0-2988.861,2639.185Z" transform="translate(262.044 287.856)" fill="none" stroke="#666668" stroke-linecap="round" stroke-linejoin="round" stroke-miterlimit="10" stroke-width="3"/><path d="M-2992.564,2629.929l-14.077,5.111a.9.9,0,0,1-1.168-.582l-4.3-13.982a.9.9,0,0,1,.576-1.118l14.188-4.717a.9.9,0,0,1,1.145.588l4.191,13.587A.9.9,0,0,1-2992.564,2629.929Z" transform="translate(259.381 279.381)" fill="none" stroke="#666668" stroke-linecap="round" stroke-linejoin="round" stroke-miterlimit="10" stroke-width="3"/><path d="M-3019.418,2634.39l14.962-5.434a.9.9,0,0,0,.555-1.109l-4.354-14.329a.9.9,0,0,0-1.154-.591l-14.964,5.132a.9.9,0,0,0-.571,1.109l4.355,14.633A.9.9,0,0,0-3019.418,2634.39Z" transform="translate(249.112 278.008)" fill="none" stroke="#666668" stroke-linecap="round" stroke-linejoin="round" stroke-miterlimit="10" stroke-width="3"/><path d="M-3021.673,2630.292l4.148,13.932a.9.9,0,0,0,1.17.589l15.067-5.472a.9.9,0,0,0,.554-1.109l-4.224-13.9a.9.9,0,0,0-1.168-.583l-14.991,5.445A.9.9,0,0,0-3021.673,2630.292Z" transform="translate(251.73 286.662)" fill="none" stroke="#666668" stroke-linecap="round" stroke-linejoin="round" stroke-miterlimit="10" stroke-width="3"/><path d="M-3001.646,2635.072l4.251,13.994a.9.9,0,0,1-.552,1.107l-15.177,5.512a.9.9,0,0,1-1.17-.589l-4.174-14.02a.9.9,0,0,1,.557-1.1l15.1-5.484A.9.9,0,0,1-3001.646,2635.072Z" transform="translate(254.296 295.263)" fill="none" stroke="#666668" stroke-linecap="round" stroke-linejoin="round" stroke-miterlimit="10" stroke-width="3"/><path d="M-3014.566,2651.229l15.209-5.524a.9.9,0,0,1,1.169.585l4.281,14.085a.9.9,0,0,1-.555,1.107l-15.288,5.553a.9.9,0,0,1-1.17-.589l-4.2-14.114A.9.9,0,0,1-3014.566,2651.229Z" transform="translate(256.975 304.242)" fill="none" stroke="#666668" stroke-linecap="round" stroke-linejoin="round" stroke-miterlimit="10" stroke-width="3"/><path d="M-2990.411,2671.661l-4.4-14.407a.9.9,0,0,0-1.169-.583l-15.321,5.565a.9.9,0,0,0-.554,1.1l4.3,14.444a.9.9,0,0,0,1.17.588l15.415-5.6A.9.9,0,0,0-2990.411,2671.661Z" transform="translate(259.594 313.02)" fill="none" stroke="#666668" stroke-linecap="round" stroke-linejoin="round" stroke-miterlimit="10" stroke-width="3"/><path d="M-3002.878,2689.881l15.438-5.607a.9.9,0,0,0,.555-1.107l-4.512-14.847a.9.9,0,0,0-1.168-.585l-15.425,5.6a.9.9,0,0,0-.554,1.107l4.5,14.851A.9.9,0,0,0-3002.878,2689.881Z" transform="translate(262.237 321.876)" fill="none" stroke="#666668" stroke-linecap="round" stroke-linejoin="round" stroke-miterlimit="10" stroke-width="3"/><path d="M-2999.635,2701.051l15.782-5.153a.9.9,0,0,0,.582-1.118l-4.6-15.126a.9.9,0,0,0-1.154-.589l-15.62,5.387a.9.9,0,0,0-.569,1.107l4.433,14.892A.9.9,0,0,0-2999.635,2701.051Z" transform="translate(264.909 330.95)" fill="none" stroke="#666668" stroke-linecap="round" stroke-linejoin="round" stroke-miterlimit="10" stroke-width="3"/><path d="M-3058.39,2818.349c4.753,4.15,11.9,4.723,16.527,3.1l221.8-78.166c7.211-2.429,11.546-7.132,12.287-14.377" transform="translate(222.368 370.891)" fill="none" stroke="#666668" stroke-linecap="round" stroke-linejoin="round" stroke-miterlimit="10" stroke-width="3"/><path d="M-2873.59,2555.887a12.766,12.766,0,0,0-13.542-3.792l-209.039,67.053a16.171,16.171,0,0,0-10.706,19.49l32.435,124.056.783,1.368a11.07,11.07,0,0,1,1.1,2.7l11.408,43.432a11.116,11.116,0,0,1,.361,2.53l.064,2.447" transform="translate(183.13 228.859)" fill="none" stroke="#666668" stroke-linecap="round" stroke-linejoin="round" stroke-miterlimit="10" stroke-width="3"/><path d="M-2891.884,2806.673l-2.181.78a1.8,1.8,0,0,1-2.315-1.129l-75.95-229.071a1.8,1.8,0,0,1,1.084-2.256l2.271-.839" transform="translate(291.188 247.011)" fill="none" stroke="#666668" stroke-linecap="round" stroke-linejoin="round" stroke-miterlimit="10" stroke-width="3"/><path d="M-2857.572,2565.613l-14.831-60.218a3.423,3.423,0,0,0-4.433-2.42h0a3.423,3.423,0,0,0-2.206,4.1l15.485,59.479" transform="translate(365.851 189.878)" fill="none" stroke="#333" stroke-linecap="round" stroke-linejoin="round" stroke-miterlimit="10" stroke-width="3"/><path d="M-2860.877,2560.875l12.132-50.91a3.253,3.253,0,0,0-2.607-3.958h0a3.252,3.252,0,0,0-3.727,2.484l-12.2,53.782" transform="translate(375.359 192.416)" fill="none" stroke="#333" stroke-linecap="round" stroke-linejoin="round" stroke-miterlimit="10" stroke-width="3"/><path d="M-2858.751,2543.288l-3.016-55.447a3.015,3.015,0,0,0-3.306-2.836h0a3.014,3.014,0,0,0-2.713,3.182l4.514,75.029" transform="translate(374.946 175.631)" fill="none" stroke="#333" stroke-linecap="round" stroke-linejoin="round" stroke-miterlimit="10" stroke-width="3"/><line x2="3.563" y2="59.431" transform="translate(-2488.768 2665.659)" fill="none" stroke="#333" stroke-linecap="round" stroke-miterlimit="10" stroke-width="3"/><line x1="7.07" y2="34.083" transform="translate(-2514.406 2719.445)" fill="none" stroke="#333" stroke-linecap="round" stroke-miterlimit="10" stroke-width="3"/><path d="M-2860.418,2487.013v-4.434l-6.022,11.254-7.687,37.062" transform="translate(369.873 173.701)" fill="none" stroke="#333" stroke-linecap="round" stroke-linejoin="round" stroke-miterlimit="10" stroke-width="3"/><line y1="41.342" x2="8.85" transform="translate(-2500.905 2676.857)" fill="none" stroke="#333" stroke-linecap="round" stroke-miterlimit="10" stroke-width="3"/><line y1="23.009" x2="4.926" transform="translate(-2508.879 2732.438)" fill="none" stroke="#333" stroke-linecap="round" stroke-miterlimit="10" stroke-width="3"/><line x1="4.009" y2="18.375" transform="translate(-2508.775 2729.315)" fill="none" stroke="#333" stroke-linecap="round" stroke-miterlimit="10" stroke-width="3"/><line x1="9.337" y2="42.798" transform="translate(-2501.666 2672.31)" fill="none" stroke="#333" stroke-linecap="round" stroke-miterlimit="10" stroke-width="3"/><path d="M-2822.874,2522.879c0,16.694-15.181,30.227-33.908,30.227s-33.909-13.533-33.909-30.227" transform="translate(356.614 205.961)" fill="none" stroke="#333" stroke-linecap="round" stroke-linejoin="round" stroke-miterlimit="10" stroke-width="3"/><path d="M-2863.2,2509.493a32.092,32.092,0,0,1,3.511,2.1" transform="translate(378.622 195.245)" fill="none" stroke="#333" stroke-linecap="round" stroke-miterlimit="10" stroke-width="3"/><path d="M-2870.235,2507.473a34.882,34.882,0,0,1,6.7,1.256" transform="translate(372.99 193.628)" fill="none" stroke="#333" stroke-linecap="round" stroke-miterlimit="10" stroke-width="3"/><path d="M-2874.584,2507.639c.511-.068,1.028-.124,1.546-.169" transform="translate(369.508 193.626)" fill="none" stroke="#333" stroke-linecap="round" stroke-miterlimit="10" stroke-width="3"/><path d="M-2833.264,2517.281a25.755,25.755,0,0,1,6.692,17.484c-.2,15.341-14.422,27.593-31.764,27.366s-31.241-12.845-31.041-28.186c.153-11.684,8.439-21.577,20.043-25.529" transform="translate(357.664 194.384)" fill="none" stroke="#333" stroke-linecap="round" stroke-linejoin="round" stroke-miterlimit="10" stroke-width="3"/><path d="M-2868.867,2507.191c-12.755,4.343-21.813,15.352-21.813,28.247,0,.5.012.979.04,1.469h0l.126,1.46c.009.074.011.146.02.218l2.479,28.6c0,16.23,14.761,29.388,32.968,29.388s32.965-13.158,32.965-29.388l-.781-31.747a28.362,28.362,0,0,0-8.646-20.164" transform="translate(356.623 193.402)" fill="none" stroke="#333" stroke-linecap="round" stroke-linejoin="round" stroke-miterlimit="10" stroke-width="3"/><path d="M-2872.3,2506.151q-1.312.1-2.6.287" transform="translate(369.261 192.57)" fill="none" stroke="#333" stroke-linecap="round" stroke-miterlimit="10" stroke-width="3"/><path d="M-2863.891,2507.219a37.555,37.555,0,0,0-6.066-1.044" transform="translate(373.212 192.589)" fill="none" stroke="#333" stroke-linecap="round" stroke-miterlimit="10" stroke-width="3"/><path d="M-2859.026,2510.233a34.967,34.967,0,0,0-4.258-2.31" transform="translate(378.554 193.988)" fill="none" stroke="#333" stroke-linecap="round" stroke-miterlimit="10" stroke-width="3"/><g transform="translate(-2145.949 2962.465)"><path d="M-2664.2,2673.9a55.8,55.8,0,0,1,10.492-10.58c22.818-17.607,64.048-13.6,85.887,13.141s21.538,62.185-6.8,83.7c-26.007,19.743-64.389,10.978-84.039-11.554-18.517-21.23-20.947-48.031-9.627-68.413" transform="translate(2675.127 -2652.634)" fill="none" stroke="#333" stroke-linecap="round" stroke-linejoin="round" stroke-width="3"/><path d="M-2576.711,2708.875c-9.095,25.209-31.758,29.824-53.817,22.228s-33.034-31.076-27.292-50.485c6.946-23.475,30.532-30.571,52.591-22.973S-2569.431,2688.695-2576.711,2708.875Z" transform="translate(2687.772 -2650.958)" fill="none" stroke="#333" stroke-linecap="round" stroke-linejoin="round" stroke-width="3"/><path d="M-2658.019,2669.176q.8-1.853,1.754-3.747" transform="translate(2688.822 -2642.391)" fill="none" stroke="#333" stroke-linecap="round" stroke-linejoin="round" stroke-width="3"/><path d="M-2659.9,2674.1c.1-.494.209-.99.326-1.491" transform="translate(2687.314 -2636.64)" fill="none" stroke="#333" stroke-linecap="round" stroke-linejoin="round" stroke-width="3"/><path d="M-2580.968,2701.233c-16.812,21.707-44.053,23.607-60.445,12.195-11.048-7.69-19.8-20.175-18.925-36.408" transform="translate(2686.917 -2633.112)" fill="none" stroke="#333" stroke-linecap="round" stroke-linejoin="round" stroke-width="3"/><path d="M-2647.12,2669.992c-5.607-.321-19.43-10.013-23.981-3.1s21.672,20.161,22.034,22.271" transform="translate(2677.925 -2643.206)" fill="none" stroke="#333" stroke-linecap="round" stroke-linejoin="round" stroke-width="3"/><path d="M-2669.959,2669.539c-.673-1.518.76-4.046,7-1.012s9.342,5.785,11.949,8.963" transform="translate(2679.141 -2641.051)" fill="none" stroke="#333" stroke-linecap="round" stroke-linejoin="round" stroke-width="3"/><path d="M-2653.284,2678.461c-6.545-2.836-14.886-11.292-14.886-11.292" transform="translate(2680.696 -2640.997)" fill="none" stroke="#333" stroke-linecap="round" stroke-linejoin="round" stroke-width="3"/></g><path d="M-2964.8,2816.608a65.628,65.628,0,0,1,25.6-22.971c35.942-17.9,71.43-3.216,86.468,25.943,16.309,31.623,3.251,73.494-29.528,89.641s-71.3,3.974-87.6-27.656c-9.111-17.685-8.124-39.521.941-57.773" transform="translate(288.145 416.463)" fill="none" stroke="#333" stroke-linecap="round" stroke-linejoin="round" stroke-width="3"/><path d="M-2877.076,2838.169c0,23.927-20.335,46.077-45.419,46.077s-45.422-20.63-45.422-46.077c0-23.032,18.675-46.086,47.5-46.077C-2895.346,2792.1-2877.076,2812.72-2877.076,2838.169Z" transform="translate(294.793 421.471)" fill="none" stroke="#333" stroke-linecap="round" stroke-linejoin="round" stroke-width="3"/><path d="M-2956.146,2807.778c-8.578-3.92-16.084-7.627-18.144-4.458s.156,4.195,2.3,5.86,11.783,8.042,11.783,8.042" transform="translate(289.035 429.503)" fill="none" stroke="#333" stroke-linecap="round" stroke-linejoin="round" stroke-width="3"/><path d="M-2961.64,2812.186c-8.4-5.915-10.375-6.786-10.771-6.469" transform="translate(291.196 432.333)" fill="none" stroke="#333" stroke-linecap="round" stroke-linejoin="round" stroke-width="3"/><g transform="translate(-2419.74 2447.518)"><ellipse cx="36.791" cy="30.619" rx="36.791" ry="30.619" transform="translate(18)" stroke-width="3" stroke="#333" stroke-linecap="round" stroke-linejoin="round" fill="none"/><path d="M-2820.8,2383.447q1.427-1.545,3-2.976" transform="translate(2832.301 -2355.558)" fill="none" stroke="#333" stroke-linecap="round" stroke-linejoin="round" stroke-width="3"/><path d="M-2736.6,2379.69c9.939,8.3,16.111,19.9,16.111,32.733,0,25.245-23.884,45.71-53.348,45.71s-53.348-20.465-53.348-45.71a41.008,41.008,0,0,1,8.821-25.186" transform="translate(2827.189 -2356.183)" fill="none" stroke="#333" stroke-linecap="round" stroke-linejoin="round" stroke-width="3"/><path d="M-2816.252,2378.279c.117-.081.234-.164.353-.243" transform="translate(2835.944 -2357.507)" fill="none" stroke="#333" stroke-linecap="round" stroke-linejoin="round" stroke-width="3"/><path d="M-2743.61,2383.64c0,19.527-14.258,42.765-38.234,42.765-22.35,0-35.348-22.483-35.348-42.765" transform="translate(2835.192 -2353.021)" fill="none" stroke="#333" stroke-linecap="round" stroke-linejoin="round" stroke-width="3"/><path d="M-2809.8,2399.083c-13.925-11.6-17.334-16.977-14.53-20.612s11.894-1.971,15.38,1.212" transform="translate(2828.754 -2358.809)" fill="none" stroke="#333" stroke-linecap="round" stroke-linejoin="round" stroke-width="3"/><path d="M-2812.188,2384.683c-6.449-6.893-10.279-6.145-11.113-3.18" transform="translate(2830.301 -2356.464)" fill="none" stroke="#333" stroke-linecap="round" stroke-linejoin="round" stroke-width="3"/><path d="M-2812.884,2389.8c-4.946-4.7-10.115-7.238-9.54-10.324" transform="translate(2830.969 -2356.352)" fill="none" stroke="#333" stroke-linecap="round" stroke-linejoin="round" stroke-width="3"/></g><path d="M-2537.725,2737.216c187.9,91.549,242.733,195.117,445.805,253.331" transform="translate(639.17 377.542)" fill="none" stroke="#333" stroke-linecap="round" stroke-linejoin="round" stroke-width="3"/><path d="M-2663.355,2468.047c11.221-73.645-6.32-202.452-6.32-202.452" transform="translate(533.542 0)" fill="none" stroke="#333" stroke-linecap="round" stroke-linejoin="round" stroke-width="3"/><path d="M-2868.472,2389.313c13.813-49.526,41.48-120.187,41.48-120.187" transform="translate(374.401 2.827)" fill="none" stroke="#333" stroke-linecap="round" stroke-linejoin="round" stroke-width="3"/><path d="M-2998.542,2643.432c-56.01-2.3-193.138,46.619-232.711,54.831s-104.917,9.3-104.917,9.3" transform="translate(0 302.402)" fill="none" stroke="#333" stroke-linecap="round" stroke-linejoin="round" stroke-width="3"/><path d="M-3012.954,2828.607c-25.91,43.395-119.783,100.455-119.783,100.455" transform="translate(162.852 450.702)" fill="none" stroke="#333" stroke-linecap="round" stroke-linejoin="round" stroke-width="3"/><path d="M-2854.244,2925.055l-116.979-352.825-1.792-5.4-25.531-77.01a.45.45,0,0,1,.722-.483,32.167,32.167,0,0,1,9,13.549c.807,2.378,9.271,27.833,21.586,64.891,37.3,112.235,109.911,330.917,112,337.426,2.555,7.955,3.331,14.773,1.862,19.828A.454.454,0,0,1-2854.244,2925.055Z" transform="translate(270.254 179.017)" fill="none" stroke="#666668" stroke-linecap="round" stroke-linejoin="round" stroke-miterlimit="10" stroke-width="3"/></g><rect width="1920" height="1080" fill="none"/></g></svg>