<svg xmlns="http://www.w3.org/2000/svg" xmlns:xlink="http://www.w3.org/1999/xlink" width="1325.88" height="207.932" viewBox="0 0 1325.88 207.932">
  <defs>
    <linearGradient id="linear-gradient" y1="0.5" x2="1" y2="0.5" gradientUnits="objectBoundingBox">
      <stop offset="0" stop-color="#e79121"/>
      <stop offset="1" stop-color="#e05b26"/>
    </linearGradient>
  </defs>
  <g id="Group_477" data-name="Group 477" transform="translate(0 0)">
    <g id="Group_376" data-name="Group 376" transform="translate(684.909 205.69)">
      <path id="Path_1602" data-name="Path 1602" d="M3154.625,1738.708a.748.748,0,0,1,0-1.5L3794.1,1737a.748.748,0,0,1,0,1.5Z" transform="translate(-3153.877 -1737.002)" fill="#454547"/>
    </g>
    <g id="Group_377" data-name="Group 377" transform="translate(822.895 29.583)">
      <path id="Path_1603" data-name="Path 1603" d="M3339.144,1591.828a.748.748,0,0,1-.748-.748v-88.826a.748.748,0,1,1,1.5,0v88.826A.747.747,0,0,1,3339.144,1591.828Z" transform="translate(-3338.396 -1501.507)" fill="#454547"/>
    </g>
    <g id="Group_378" data-name="Group 378" transform="translate(842.453 23.665)">
      <path id="Path_1604" data-name="Path 1604" d="M3372.019,1645.546a.747.747,0,0,1-.748-.748V1495.4l-5.833,1.116a.748.748,0,1,1-.28-1.469l7.609-1.454V1644.8A.747.747,0,0,1,3372.019,1645.546Z" transform="translate(-3364.549 -1493.593)" fill="#454547"/>
    </g>
    <g id="Group_379" data-name="Group 379" transform="translate(852.931 21.398)">
      <path id="Path_1605" data-name="Path 1605" d="M3386.326,1648.524a.748.748,0,0,1-.748-.748v-155.42l-5.521,1.01v10.447a.748.748,0,0,1-1.5,0v-11.693l8.512-1.559v157.214A.747.747,0,0,1,3386.326,1648.524Z" transform="translate(-3378.561 -1490.562)" fill="#454547"/>
    </g>
    <g id="Group_380" data-name="Group 380" transform="translate(867.571 17.795)">
      <path id="Path_1606" data-name="Path 1606" d="M3398.886,1654.911a.747.747,0,0,1-.748-.748V1488.745l17.291-3v25.692a.748.748,0,0,1-1.5,0v-23.914l-14.3,2.482v164.16A.748.748,0,0,1,3398.886,1654.911Z" transform="translate(-3398.138 -1485.744)" fill="#454547"/>
    </g>
    <g id="Group_381" data-name="Group 381" transform="translate(942.988 24.115)">
      <path id="Path_1607" data-name="Path 1607" d="M3499.735,1571.953a.748.748,0,0,1-.748-.748V1494.2l2.11.743a.748.748,0,0,1-.5,1.411l-.116-.041v74.9A.747.747,0,0,1,3499.735,1571.953Z" transform="translate(-3498.987 -1494.195)" fill="#454547"/>
    </g>
    <g id="Group_382" data-name="Group 382" transform="translate(901.057 13.706)">
      <path id="Path_1608" data-name="Path 1608" d="M3454.052,1636.615a.747.747,0,0,1-.748-.748V1482.015l-8.892,1.34v86.805a.748.748,0,0,1-1.5,0v-88.092l11.884-1.792v155.591A.748.748,0,0,1,3454.052,1636.615Z" transform="translate(-3442.916 -1480.276)" fill="#454547"/>
    </g>
    <g id="Group_383" data-name="Group 383" transform="translate(889.389 15.678)">
      <path id="Path_1609" data-name="Path 1609" d="M3428.061,1660.106a.748.748,0,0,1-.748-.748V1482.912h9.749v93.746a.748.748,0,1,1-1.5,0v-92.25h-6.758v174.95A.747.747,0,0,1,3428.061,1660.106Z" transform="translate(-3427.313 -1482.912)" fill="#454547"/>
    </g>
    <g id="Group_384" data-name="Group 384" transform="translate(946.744 107.342)">
      <path id="Path_1610" data-name="Path 1610" d="M3504.758,1685.914a.747.747,0,0,1-.748-.748v-78.931a.748.748,0,1,1,1.5,0v78.931A.747.747,0,0,1,3504.758,1685.914Z" transform="translate(-3504.01 -1605.488)" fill="#454547"/>
    </g>
    <g id="Group_385" data-name="Group 385" transform="translate(832.944 25.108)">
      <path id="Path_1611" data-name="Path 1611" d="M3358.7,1649.223a.748.748,0,0,1-.748-.748V1497.251l-4.618.671V1637.55a.748.748,0,1,1-1.5,0V1496.628l7.609-1.105v152.952A.747.747,0,0,1,3358.7,1649.223Z" transform="translate(-3351.834 -1495.523)" fill="#454547"/>
    </g>
    <g id="Group_386" data-name="Group 386" transform="translate(918.098 12.997)">
      <path id="Path_1612" data-name="Path 1612" d="M3468.9,1664.314a.748.748,0,0,1-.748-.748V1482.33l-.955-.509V1644.99a.748.748,0,1,1-1.5,0V1479.328l3.946,2.106v182.132A.747.747,0,0,1,3468.9,1664.314Z" transform="translate(-3465.704 -1479.328)" fill="#454547"/>
    </g>
    <g id="Group_387" data-name="Group 387" transform="translate(1042.985 32.744)">
      <path id="Path_1613" data-name="Path 1613" d="M3645.918,1648.5a.747.747,0,0,1-.748-.748V1507.974l-10.968-.652v137.294a.748.748,0,1,1-1.5,0V1505.734l13.959.83v141.192A.747.747,0,0,1,3645.918,1648.5Z" transform="translate(-3632.706 -1505.734)" fill="#454547"/>
    </g>
    <g id="Group_388" data-name="Group 388" transform="translate(1142.58 106.131)">
      <path id="Path_1614" data-name="Path 1614" d="M3766.635,1691.553a.747.747,0,0,1-.748-.748v-86.19a.748.748,0,0,1,1.5,0v86.19A.748.748,0,0,1,3766.635,1691.553Z" transform="translate(-3765.887 -1603.868)" fill="#454547"/>
    </g>
    <g id="Group_389" data-name="Group 389" transform="translate(1024.747 32.791)">
      <path id="Path_1615" data-name="Path 1615" d="M3621.527,1641.711a.747.747,0,0,1-.748-.748V1507.292h-10.966v79.3a.748.748,0,0,1-1.5,0V1505.8h13.958v135.167A.747.747,0,0,1,3621.527,1641.711Z" transform="translate(-3608.318 -1505.796)" fill="#454547"/>
    </g>
    <g id="Group_390" data-name="Group 390" transform="translate(795.473 25.926)">
      <path id="Path_1616" data-name="Path 1616" d="M3302.475,1614.494a.747.747,0,0,1-.748-.748V1497.365a.748.748,0,0,1,1.5,0v116.381A.748.748,0,0,1,3302.475,1614.494Z" transform="translate(-3301.727 -1496.617)" fill="#454547"/>
    </g>
    <g id="Group_391" data-name="Group 391" transform="translate(788.113 28.16)">
      <path id="Path_1617" data-name="Path 1617" d="M3291.884,1558.032v-57.68a.748.748,0,0,1,1.5,0v55.905l4.745-.816a.748.748,0,0,1,.254,1.474Z" transform="translate(-3291.884 -1499.604)" fill="#454547"/>
    </g>
    <g id="Group_392" data-name="Group 392" transform="translate(782.756 29.583)">
      <path id="Path_1618" data-name="Path 1618" d="M3284.721,1558.554v-56.3a.748.748,0,1,1,1.5,0v54.44l2.692-.592a.748.748,0,1,1,.321,1.46Z" transform="translate(-3284.721 -1501.507)" fill="#454547"/>
    </g>
    <g id="Group_393" data-name="Group 393" transform="translate(788.113 103.217)">
      <path id="Path_1619" data-name="Path 1619" d="M3291.884,1662.875v-62.114l6.274-.784a.748.748,0,1,1,.186,1.484l-4.964.621v59.2l4.825-.3a.748.748,0,0,1,.094,1.493Z" transform="translate(-3291.884 -1599.971)" fill="#454547"/>
    </g>
    <g id="Group_394" data-name="Group 394" transform="translate(792.544 85.355)">
      <path id="Path_1620" data-name="Path 1620" d="M3298.558,1594.23a.748.748,0,0,1-.748-.748v-16.649a.748.748,0,1,1,1.5,0v16.649A.748.748,0,0,1,3298.558,1594.23Z" transform="translate(-3297.81 -1576.086)" fill="#454547"/>
    </g>
    <g id="Group_395" data-name="Group 395" transform="translate(789.32 86.271)">
      <path id="Path_1621" data-name="Path 1621" d="M3294.246,1595a.747.747,0,0,1-.748-.748v-16.192a.748.748,0,0,1,1.5,0v16.192A.747.747,0,0,1,3294.246,1595Z" transform="translate(-3293.498 -1577.311)" fill="#454547"/>
    </g>
    <g id="Group_396" data-name="Group 396" transform="translate(782.756 85.355)">
      <path id="Path_1622" data-name="Path 1622" d="M3289.73,1598.836h-5.009v-22a.748.748,0,1,1,1.5,0v20.507h3.513a.748.748,0,1,1,0,1.5Z" transform="translate(-3284.721 -1576.086)" fill="#454547"/>
    </g>
    <g id="Group_397" data-name="Group 397" transform="translate(778.514 31.445)">
      <path id="Path_1623" data-name="Path 1623" d="M3283.235,1562.17a.809.809,0,0,1-.1-.006l-4.091-.529v-56.891a.748.748,0,0,1,1.5,0v55.576l2.786.36a.748.748,0,0,1-.095,1.49Z" transform="translate(-3279.048 -1503.996)" fill="#454547"/>
    </g>
    <g id="Group_398" data-name="Group 398" transform="translate(783.564 108.129)">
      <path id="Path_1624" data-name="Path 1624" d="M3286.549,1667.889a.747.747,0,0,1-.748-.748v-59.854a.748.748,0,0,1,1.5,0v59.854A.747.747,0,0,1,3286.549,1667.889Z" transform="translate(-3285.801 -1606.54)" fill="#454547"/>
    </g>
    <g id="Group_399" data-name="Group 399" transform="translate(778.514 105.978)">
      <path id="Path_1625" data-name="Path 1625" d="M3283.234,1665.106h-4.186v-61.442h3.085a.748.748,0,0,1,0,1.5h-1.59v58.451h2.691a.748.748,0,0,1,0,1.5Z" transform="translate(-3279.048 -1603.664)" fill="#454547"/>
    </g>
    <g id="Group_400" data-name="Group 400" transform="translate(774.206 41.312)">
      <path id="Path_1626" data-name="Path 1626" d="M3274.035,1641.951a.747.747,0,0,1-.748-.748V1517.939a.748.748,0,1,1,1.5,0V1641.2A.747.747,0,0,1,3274.035,1641.951Z" transform="translate(-3273.287 -1517.191)" fill="#454547"/>
    </g>
    <g id="Group_401" data-name="Group 401" transform="translate(768.208 40.169)">
      <path id="Path_1627" data-name="Path 1627" d="M3265.267,1569.473V1516.41a.748.748,0,0,1,1.5,0V1567.8l2.42-.279a.747.747,0,1,1,.171,1.485Z" transform="translate(-3265.267 -1515.662)" fill="#454547"/>
    </g>
    <g id="Group_402" data-name="Group 402" transform="translate(768.271 108.853)">
      <path id="Path_1628" data-name="Path 1628" d="M3268.1,1668.134h-2.75v-59.726l3.964-.882a.748.748,0,1,1,.324,1.46l-2.793.621v57.032h1.254a.748.748,0,1,1,0,1.5Z" transform="translate(-3265.351 -1607.509)" fill="#454547"/>
    </g>
    <g id="Group_403" data-name="Group 403" transform="translate(763.201 48.705)">
      <path id="Path_1629" data-name="Path 1629" d="M3259.32,1651.691a.748.748,0,0,1-.748-.748V1527.825a.748.748,0,0,1,1.5,0v123.118A.747.747,0,0,1,3259.32,1651.691Z" transform="translate(-3258.572 -1527.077)" fill="#454547"/>
    </g>
    <g id="Group_404" data-name="Group 404" transform="translate(766.195 92.082)">
      <path id="Path_1630" data-name="Path 1630" d="M3264.619,1606.392h-2.044v-20.84l1.869-.449a.748.748,0,0,1,.349,1.455l-.723.173V1604.9h.549a.748.748,0,0,1,0,1.5Z" transform="translate(-3262.575 -1585.082)" fill="#454547"/>
    </g>
    <g id="Group_405" data-name="Group 405" transform="translate(883.367 48.705)">
      <path id="Path_1631" data-name="Path 1631" d="M3420.008,1668.385a.747.747,0,0,1-.748-.748V1527.825a.748.748,0,0,1,1.5,0v139.812A.747.747,0,0,1,3420.008,1668.385Z" transform="translate(-3419.26 -1527.077)" fill="#454547"/>
    </g>
    <g id="Group_406" data-name="Group 406" transform="translate(901.057 108.325)">
      <path id="Path_1632" data-name="Path 1632" d="M3443.664,1687.115a.747.747,0,0,1-.748-.748V1607.55a.748.748,0,0,1,1.5,0v78.818A.747.747,0,0,1,3443.664,1687.115Z" transform="translate(-3442.916 -1606.802)" fill="#454547"/>
    </g>
    <g id="Group_407" data-name="Group 407" transform="translate(897.642 113.85)">
      <path id="Path_1633" data-name="Path 1633" d="M3439.1,1691.118a.748.748,0,0,1-.748-.748v-75.432a.748.748,0,1,1,1.5,0v75.432A.748.748,0,0,1,3439.1,1691.118Z" transform="translate(-3438.35 -1614.191)" fill="#454547"/>
    </g>
    <g id="Group_408" data-name="Group 408" transform="translate(1110.869 91.179)">
      <path id="Path_1634" data-name="Path 1634" d="M3735.482,1613.212l-11.29-.568a.748.748,0,1,1,.075-1.494l9.719.49v-24.963l-8.72-1.316a.748.748,0,1,1,.224-1.479l9.992,1.508Z" transform="translate(-3723.482 -1583.874)" fill="#454547"/>
    </g>
    <g id="Group_409" data-name="Group 409" transform="translate(1117.352 120.498)">
      <path id="Path_1635" data-name="Path 1635" d="M3732.9,1691.068a.748.748,0,0,1-.748-.748v-66.491a.748.748,0,1,1,1.5,0v66.491A.747.747,0,0,1,3732.9,1691.068Z" transform="translate(-3732.151 -1623.081)" fill="#454547"/>
    </g>
    <g id="Group_410" data-name="Group 410" transform="translate(1094.21 36.975)">
      <path id="Path_1636" data-name="Path 1636" d="M3716.312,1568.929l-14.419-1.165a.748.748,0,0,1,.119-1.491l12.8,1.035v-55.917l9.8,1.189v52.459a.748.748,0,0,1-1.5,0v-51.134l-6.8-.826Z" transform="translate(-3701.205 -1511.391)" fill="#454547"/>
    </g>
    <g id="Group_411" data-name="Group 411" transform="translate(1098.325 35.472)">
      <path id="Path_1637" data-name="Path 1637" d="M3714.3,1565.941a.748.748,0,0,1-.748-.748v-52.856l-5.345-1.114V1564a.748.748,0,1,1-1.5,0v-54.622l8.336,1.738v54.073A.748.748,0,0,1,3714.3,1565.941Z" transform="translate(-3706.708 -1509.382)" fill="#454547"/>
    </g>
    <g id="Group_412" data-name="Group 412" transform="translate(1068.358 33.672)">
      <path id="Path_1638" data-name="Path 1638" d="M3667.383,1653.61a.747.747,0,0,1-.748-.748V1506.975l21.923,2.039V1559.4a.748.748,0,1,1-1.5,0v-49.022l-18.932-1.76v144.246A.748.748,0,0,1,3667.383,1653.61Z" transform="translate(-3666.635 -1506.975)" fill="#454547"/>
    </g>
    <g id="Group_413" data-name="Group 413" transform="translate(1078.572 89.245)">
      <path id="Path_1639" data-name="Path 1639" d="M3697.415,1611.883h-.027l-17.1-.606v-29.988l15.866.488a.75.75,0,0,1,.725.772.764.764,0,0,1-.772.724l-14.323-.441v27l15.653.556a.748.748,0,0,1-.026,1.495Z" transform="translate(-3680.293 -1581.288)" fill="#454547"/>
    </g>
    <g id="Group_414" data-name="Group 414" transform="translate(1095.417 94.767)">
      <path id="Path_1640" data-name="Path 1640" d="M3717.067,1611.819h-13.5a.748.748,0,0,1,0-1.5h12v-20.9a.748.748,0,1,1,1.5,0Z" transform="translate(-3702.819 -1588.673)" fill="#454547"/>
    </g>
    <g id="Group_415" data-name="Group 415" transform="translate(1078.572 36.561)">
      <path id="Path_1641" data-name="Path 1641" d="M3681.041,1562.691a.748.748,0,0,1-.748-.748v-50.357a.748.748,0,1,1,1.5,0v50.357A.748.748,0,0,1,3681.041,1562.691Z" transform="translate(-3680.293 -1510.838)" fill="#454547"/>
    </g>
    <g id="Group_416" data-name="Group 416" transform="translate(1090.887 119.917)">
      <path id="Path_1642" data-name="Path 1642" d="M3697.509,1698.946a.747.747,0,0,1-.748-.748v-75.147a.748.748,0,0,1,1.5,0V1698.2A.748.748,0,0,1,3697.509,1698.946Z" transform="translate(-3696.761 -1622.304)" fill="#454547"/>
    </g>
    <g id="Group_417" data-name="Group 417" transform="translate(1065.288 180.678)">
      <path id="Path_1643" data-name="Path 1643" d="M3679.675,1715.913a.747.747,0,0,1-.748-.748v-10.114h-15.649a.748.748,0,0,1,0-1.5h17.145v11.61A.747.747,0,0,1,3679.675,1715.913Z" transform="translate(-3662.53 -1703.555)" fill="#454547"/>
    </g>
    <g id="Group_418" data-name="Group 418" transform="translate(1079.352 120.65)">
      <path id="Path_1644" data-name="Path 1644" d="M3682.084,1681.82a.748.748,0,0,1-.748-.748v-57.041a.748.748,0,1,1,1.5,0v57.041A.748.748,0,0,1,3682.084,1681.82Z" transform="translate(-3681.337 -1623.284)" fill="#454547"/>
    </g>
    <g id="Group_419" data-name="Group 419" transform="translate(1002.886 23.747)">
      <path id="Path_1645" data-name="Path 1645" d="M3579.832,1655.335a.747.747,0,0,1-.748-.748V1585.3h2.474v-22.74h-2.474V1494.45a.748.748,0,0,1,1.5,0v66.619h2.475V1586.8h-2.475v67.787A.747.747,0,0,1,3579.832,1655.335Z" transform="translate(-3579.084 -1493.702)" fill="#454547"/>
    </g>
    <g id="Group_420" data-name="Group 420" transform="translate(1018.857 116.438)">
      <path id="Path_1646" data-name="Path 1646" d="M3601.189,1678.837a.748.748,0,0,1-.748-.748V1618.4a.748.748,0,1,1,1.5,0v59.689A.748.748,0,0,1,3601.189,1678.837Z" transform="translate(-3600.441 -1617.652)" fill="#454547"/>
    </g>
    <g id="Group_421" data-name="Group 421" transform="translate(1008.506 115.442)">
      <path id="Path_1647" data-name="Path 1647" d="M3587.347,1687.73a.747.747,0,0,1-.748-.748v-70.663h17.738v56.454a.748.748,0,0,1-1.5,0v-54.959h-14.746v69.168A.748.748,0,0,1,3587.347,1687.73Z" transform="translate(-3586.599 -1616.319)" fill="#454547"/>
    </g>
    <g id="Group_422" data-name="Group 422" transform="translate(1007.345 32.367)">
      <path id="Path_1648" data-name="Path 1648" d="M3597.075,1564.566h-11.51v-6.705a.748.748,0,0,1,1.5,0v5.209h8.519v-55.949l-9.037-.339v10.133a.748.748,0,0,1-1.5,0v-11.686l12.028.452Z" transform="translate(-3585.047 -1505.229)" fill="#454547"/>
    </g>
    <g id="Group_423" data-name="Group 423" transform="translate(1016.627 92.021)">
      <path id="Path_1649" data-name="Path 1649" d="M3598.207,1607.474a.748.748,0,0,1-.748-.748v-20.979a.748.748,0,0,1,1.5,0v20.979A.748.748,0,0,1,3598.207,1607.474Z" transform="translate(-3597.459 -1585)" fill="#454547"/>
    </g>
    <g id="Group_424" data-name="Group 424" transform="translate(985.073 88.678)">
      <path id="Path_1650" data-name="Path 1650" d="M3569.853,1611.091h-13.1a.748.748,0,0,1,0-1.5h11.6v-27.57h-12.345a.748.748,0,0,1,0-1.5h13.841Z" transform="translate(-3555.264 -1580.53)" fill="#454547"/>
    </g>
    <g id="Group_425" data-name="Group 425" transform="translate(985.073 33.462)">
      <path id="Path_1651" data-name="Path 1651" d="M3567.619,1561a.748.748,0,0,1-.748-.748v-52l-10.111.4v51.595a.748.748,0,0,1-1.5,0v-53.031l13.1-.525v53.557A.748.748,0,0,1,3567.619,1561Z" transform="translate(-3555.264 -1506.694)" fill="#454547"/>
    </g>
    <g id="Group_426" data-name="Group 426" transform="translate(996.958 119.694)">
      <path id="Path_1652" data-name="Path 1652" d="M3571.906,1691.024a.747.747,0,0,1-.748-.748v-67.523a.748.748,0,1,1,1.5,0v67.523A.747.747,0,0,1,3571.906,1691.024Z" transform="translate(-3571.158 -1622.005)" fill="#454547"/>
    </g>
    <g id="Group_427" data-name="Group 427" transform="translate(985.565 119.694)">
      <path id="Path_1653" data-name="Path 1653" d="M3556.67,1681.191a.747.747,0,0,1-.748-.748v-57.69a.748.748,0,0,1,1.5,0v57.69A.747.747,0,0,1,3556.67,1681.191Z" transform="translate(-3555.922 -1622.005)" fill="#454547"/>
    </g>
    <g id="Group_428" data-name="Group 428" transform="translate(964.327 110.24)">
      <path id="Path_1654" data-name="Path 1654" d="M3535.491,1674a.747.747,0,0,1-.748-.748v-62.4h-5.725v60.4a.748.748,0,0,1-1.5,0v-61.9h8.716v63.891A.748.748,0,0,1,3535.491,1674Z" transform="translate(-3527.523 -1609.363)" fill="#454547"/>
    </g>
    <g id="Group_429" data-name="Group 429" transform="translate(957.885 109.731)">
      <path id="Path_1655" data-name="Path 1655" d="M3523.915,1672.665a.747.747,0,0,1-.748-.748v-61.738H3520.4v61.738a.748.748,0,1,1-1.5,0v-63.234h5.755v63.234A.748.748,0,0,1,3523.915,1672.665Z" transform="translate(-3518.908 -1608.683)" fill="#454547"/>
    </g>
    <g id="Group_430" data-name="Group 430" transform="translate(950.064 110.24)">
      <path id="Path_1656" data-name="Path 1656" d="M3512.25,1676.747a.748.748,0,0,1-.748-.748v-65.14h-1.557v61.674a.748.748,0,1,1-1.5,0v-63.17H3513V1676A.748.748,0,0,1,3512.25,1676.747Z" transform="translate(-3508.45 -1609.363)" fill="#454547"/>
    </g>
    <g id="Group_431" data-name="Group 431" transform="translate(875.469 23.821)">
      <path id="Path_1657" data-name="Path 1657" d="M3409.447,1660.295a.747.747,0,0,1-.748-.748v-165a.748.748,0,0,1,1.5,0v165A.747.747,0,0,1,3409.447,1660.295Z" transform="translate(-3408.699 -1493.802)" fill="#454547"/>
    </g>
    <g id="Group_432" data-name="Group 432" transform="translate(1108.694 122.107)">
      <path id="Path_1658" data-name="Path 1658" d="M3721.322,1694.662a.747.747,0,0,1-.748-.748V1625.98a.748.748,0,1,1,1.5,0v67.935A.747.747,0,0,1,3721.322,1694.662Z" transform="translate(-3720.574 -1625.232)" fill="#454547"/>
    </g>
    <g id="Group_433" data-name="Group 433" transform="translate(1096.102 118.983)">
      <path id="Path_1659" data-name="Path 1659" d="M3715.518,1686.769h-11.035a.748.748,0,1,1,0-1.5h9.54V1621.8a.748.748,0,1,1,1.5,0Z" transform="translate(-3703.735 -1621.054)" fill="#454547"/>
    </g>
    <g id="Group_434" data-name="Group 434" transform="translate(1131.081 119.917)">
      <path id="Path_1660" data-name="Path 1660" d="M3755.058,1694.7a.747.747,0,0,1-.748-.748V1623.8h-2.3v66.344a.748.748,0,0,1-1.5,0V1622.3h5.3v71.653A.747.747,0,0,1,3755.058,1694.7Z" transform="translate(-3750.51 -1622.304)" fill="#454547"/>
    </g>
    <g id="Group_473" data-name="Group 473" transform="translate(738.952 163.545)">
      <g id="Group_436" data-name="Group 436" transform="translate(68.679)">
        <g id="Group_435" data-name="Group 435">
          <path id="Path_1661" data-name="Path 1661" d="M3346.027,1723.962c1.724-2.591,1.2-5.7.747-8.619a3.957,3.957,0,0,0-1.872-3.025,3.7,3.7,0,0,0-3.213-.211l.95,1.236a3.9,3.9,0,0,0-.537-4.152l-.171,1.321c2.725-1.922,5.859-4,6.854-7.377.789-2.684-.732-6.041-3.934-5.627l.812,1.065c.392-2.684.561-6.072-2.275-7.51-2.805-1.423-5.747.15-7.494,2.421l1.567.425a2.306,2.306,0,0,0-1.837-2.483v1.622c3.058-1.125,5.255-4.872,4.376-8.1-.731-2.681-4.225-4.523-6.632-2.686l1.151.3a3.254,3.254,0,0,0-6.073.363l1.236-.5a7.393,7.393,0,0,0-11.53,7.557,3.813,3.813,0,0,0,5.987,2.287,3.62,3.62,0,0,0,1.037-1.232c.178-.328.263-.745.716-.729s1,.305,1.469.37a6.541,6.541,0,0,0,2.231-.084c.345-.072,1.9-.83,2.047-.694.577.539-.816,1.632-1.1,1.924a3.177,3.177,0,0,0-1.037,1.881c-.1,1.3.9,2.694,2.306,2.3.877-.248.749-1.766-.224-1.653-1.949.227-4.169.818-4.489,3.087-.271,1.921,1.318,3.893.55,5.734l1.623.447a17.69,17.69,0,0,0,1.273-5.913l-1.266.727a5.615,5.615,0,0,0,5.695.451c.92-.455,1.679-1.536,2.817-1.163,1.206.4,1.78,1.753,2.283,2.8l.5-1.236c-.976.4-2.074-.288-3.111.062a2.852,2.852,0,0,0-1.7,1.763c-.722,1.949.415,3.72,1.771,5.046.33.323,1.106.814,1.126,1.325a3.651,3.651,0,0,1-.608,1.435,2.946,2.946,0,0,1-.9,1.116,3.172,3.172,0,0,1-1.4.248,1.536,1.536,0,0,0-1.51,1.571,3.856,3.856,0,0,0,.693,1.591l1.01,1.74a.842.842,0,0,0,1.453-.849l-.841-1.451a3.479,3.479,0,0,1-.421-.725c-.086-.329-.3-.084.083-.23.3-.114.723-.025,1.045-.118a3.006,3.006,0,0,0,1.018-.529c1.076-.834,2.373-2.987,2.012-4.394-.211-.823-1-1.359-1.571-1.921a4.519,4.519,0,0,1-1.487-2.241c-.133-.749.2-1.763,1.056-1.837.964-.083,1.762.415,2.729.02a.86.86,0,0,0,.5-1.236c-.923-1.93-2.618-4.395-5.143-3.6-1.047.33-1.747,1.252-2.811,1.558a3.984,3.984,0,0,1-3.444-.653.848.848,0,0,0-1.266.726,16.308,16.308,0,0,1-1.214,5.466c-.409,1.006,1.212,1.431,1.623.447.635-1.524-.027-3.089-.383-4.592a2.346,2.346,0,0,1,.184-2.083,3.747,3.747,0,0,1,2.515-.911l-.224-1.653c-.368.1-.035-.885.067-1.022.395-.532.95-.929,1.356-1.454a2.64,2.64,0,0,0,.314-2.845,1.778,1.778,0,0,0-2.5-.638,5.284,5.284,0,0,1-4.114.318,2.054,2.054,0,0,0-2.659,1.229,2.2,2.2,0,0,1-2.434,1.331c-2.8-.488-1.674-4.789-.55-6.3a5.8,5.8,0,0,1,7.983-1.115.85.85,0,0,0,1.236-.5,1.577,1.577,0,0,1,3,.039.842.842,0,0,0,1.151.3c1.643-1.254,3.867.094,4.224,1.95a5.527,5.527,0,0,1-3.265,5.756c-.711.262-.883,1.44,0,1.622a.691.691,0,0,1,.6.861c-.1.937,1.13.994,1.567.425,1.233-1.6,3.478-2.836,5.427-1.692,1.855,1.089,1.529,3.686,1.268,5.484-.069.467.206,1.143.811,1.065a2.084,2.084,0,0,1,2.192,1,3.856,3.856,0,0,1-.3,3.549c-1.207,2.338-3.569,3.852-5.657,5.324a.861.861,0,0,0-.17,1.321,2.105,2.105,0,0,1,.274,2.113c-.246.57.186,1.558.95,1.236a2.108,2.108,0,0,1,2.226.253c.831.68.809,1.972.913,2.949.11,1.034.271,2.08.28,3.121a5.2,5.2,0,0,1-.98,3.06c-.6.9.854,1.748,1.452.849Z" transform="translate(-3317.985 -1680.644)" fill="#454547"/>
        </g>
      </g>
      <g id="Group_438" data-name="Group 438" transform="translate(33.422 38.843)">
        <g id="Group_437" data-name="Group 437">
          <path id="Path_1662" data-name="Path 1662" d="M3272.479,1737.07c.405-2.008,2.928-2.563,4.666-2.731a8.511,8.511,0,0,1,3.24.177,2.852,2.852,0,0,1,1.226.684,3.969,3.969,0,0,1,.8,1.659c.34,1.022,1.965.584,1.623-.448a6.312,6.312,0,0,0-1.036-2.182,4.2,4.2,0,0,0-1.666-1.158,8.937,8.937,0,0,0-4.186-.414c-2.479.239-5.718,1.141-6.288,3.966-.214,1.057,1.408,1.51,1.622.447Z" transform="translate(-3270.837 -1732.586)" fill="#454547"/>
        </g>
      </g>
      <g id="Group_440" data-name="Group 440" transform="translate(21.86 41.386)">
        <g id="Group_439" data-name="Group 439">
          <path id="Path_1663" data-name="Path 1663" d="M3256.636,1738.219a5.98,5.98,0,0,1,2.7-.562,4.576,4.576,0,0,1,2.43.773.841.841,0,1,0,.849-1.453,7.029,7.029,0,0,0-6.827-.211.848.848,0,0,0-.3,1.151.862.862,0,0,0,1.152.3Z" transform="translate(-3255.377 -1735.987)" fill="#454547"/>
        </g>
      </g>
      <g id="Group_442" data-name="Group 442" transform="translate(7.566 35.872)">
        <g id="Group_441" data-name="Group 441">
          <path id="Path_1664" data-name="Path 1664" d="M3237.69,1736.228c.641-.675,1.6-1.383,2.544-.882a.853.853,0,0,0,1.236-.951c-.26-1.421.236-3.331,1.691-3.943,1.089-.458,2.864.176,2.941,1.5a.858.858,0,0,0,.841.841c1.278.011,1.52,1.613,1.333,2.573-.206,1.057,1.417,1.511,1.623.447a4.3,4.3,0,0,0-.45-3.246,3.013,3.013,0,0,0-2.506-1.457l.841.841a3.813,3.813,0,0,0-4.969-3.156c-2.48.811-3.4,3.693-2.969,6.051l1.236-.95c-1.656-.877-3.378-.123-4.584,1.146-.746.784.441,1.976,1.19,1.19Z" transform="translate(-3236.263 -1728.613)" fill="#454547"/>
        </g>
      </g>
      <g id="Group_444" data-name="Group 444" transform="translate(0 3.864)">
        <g id="Group_443" data-name="Group 443">
          <path id="Path_1665" data-name="Path 1665" d="M3228.046,1724.311c-.293-.342-.375-1.032.169-1.132a.846.846,0,0,0,.371-1.406,2.034,2.034,0,0,1-.644-2.281c.369-.924,1.1-1.005,1.879-1.4a1.926,1.926,0,0,0,1-1.665,2.09,2.09,0,0,1,1.68-1.707c.784-.129,1.435.109,2.167-.335a11.221,11.221,0,0,1,2.076-1.206,6.549,6.549,0,0,1,5.057.265.845.845,0,0,0,1.019-1.321c-.968-1.224-.04-3.277.241-4.61a4.517,4.517,0,0,1,1.214-2.418c.672-.716,1.352-1.424,2.028-2.136,1.174-1.238,2.379-2.757,4.15-3.085a4.518,4.518,0,0,1,4.143,1.444.862.862,0,0,0,1.19,0,4.878,4.878,0,0,1,2.638-.985.853.853,0,0,0,.811-1.066c-1.225-3.82,2.148-7.047,5.8-7.243a7.044,7.044,0,0,1,5.28,1.841,15.987,15.987,0,0,0,2.147,1.633,4.162,4.162,0,0,1,1.88,1.666.871.871,0,0,0,1.035.588,5.033,5.033,0,0,1,2.487.122.852.852,0,0,0,1.065-.811,7.525,7.525,0,0,1,.863-3.761c.825-1.253,2.1-1.268,3.462-1.118a.852.852,0,0,0,.841-.841,3.872,3.872,0,1,1,7.68.715.843.843,0,0,0,.841.841,1.256,1.256,0,0,1,1.346.642.853.853,0,0,0,1.453,0l.3-.173a.842.842,0,0,0-.448-1.622,2.167,2.167,0,0,0-1.306.945h1.453a2.89,2.89,0,0,0-2.8-1.475l.841.841a5.545,5.545,0,1,0-11.045-.715l.841-.841c-1.8-.2-3.462.058-4.629,1.556a8.7,8.7,0,0,0-1.379,5.006l1.065-.812a6.924,6.924,0,0,0-3.381-.122l1.034.588a4.817,4.817,0,0,0-1.979-2.248,27.616,27.616,0,0,1-2.834-2.1,8.638,8.638,0,0,0-6.7-1.974c-4.48.5-8.322,4.681-6.833,9.323l.812-1.065a6.927,6.927,0,0,0-3.827,1.478h1.19a6.168,6.168,0,0,0-5.3-1.95c-2.318.287-3.849,1.986-5.372,3.592-.838.882-1.726,1.738-2.512,2.668a6.576,6.576,0,0,0-1.257,3.062c-.459,2-1.117,4.04.285,5.814l1.02-1.321a8.165,8.165,0,0,0-7.6.114c-.427.233-.8.626-1.231.828-.5.233-1.111.035-1.656.138a3.644,3.644,0,0,0-1.285.509,3.8,3.8,0,0,0-1.624,2.127,2.1,2.1,0,0,1-.224.77c-.167.221-.371.237-.62.34a3.642,3.642,0,0,0-1.018,6.143l.372-1.406c-1.894.349-1.952,2.731-.912,3.944.707.823,1.892-.373,1.19-1.19Z" transform="translate(-3226.145 -1685.811)" fill="#454547"/>
        </g>
      </g>
      <g id="Group_446" data-name="Group 446" transform="translate(37.77 11.197)">
        <g id="Group_445" data-name="Group 445">
          <path id="Path_1666" data-name="Path 1666" d="M3306.765,1696.422l-.086.84.841-.841a2.99,2.99,0,0,0-2.978,3.625l1.406-.818c-1.109-.922-2.521-1.788-4.017-1.3a2.51,2.51,0,0,0-1.725,2.967l1.236-.95c-2.565-1.576-5.287.579-6.319,2.92a18.891,18.891,0,0,0-.735,2.066c-.187.611-.334,1.709-.954,2.03-.593.307-1.418.029-2.065.333a2.441,2.441,0,0,0-1.121,1.116c-.487.939-.4,2.531-1.479,3.026-1.214.559-2.65.221-3.818.977a2.253,2.253,0,0,0-1.019,1.407,2.174,2.174,0,0,0,0,.844c.034.179.1.345.144.522.063.287.19.2.01.229-.253.038-.645-.188-.912-.219a2.2,2.2,0,0,0-.931.069,2.8,2.8,0,0,0-1.454,1.186,5.249,5.249,0,0,0-.475,1.037,5.708,5.708,0,0,0-.212.639c-.056.239-.074.4-.191.435-.279.074-.739-.129-1.072-.061a2.593,2.593,0,0,0-.908.386c-1.582,1.05-1.391,3.032-1.057,4.649.218,1.06,1.84.612,1.622-.447a3.733,3.733,0,0,1-.03-2.319c.4-.832.986-.449,1.675-.475,1.435-.054,1.445-1.821,1.972-2.776.4-.723.826-.662,1.524-.482a1.891,1.891,0,0,0,1.564-.124,1.49,1.49,0,0,0,.68-1.211c.02-.589-.542-1.32-.127-1.8.346-.4,1.255-.422,1.746-.487a7.736,7.736,0,0,0,1.7-.342,3.269,3.269,0,0,0,1.982-2.134c.16-.455.242-.935.4-1.389.232-.654.5-.789,1.194-.807a2.672,2.672,0,0,0,2.647-1.664c.63-1.4.81-2.962,1.616-4.294.7-1.16,2.214-2.2,3.541-1.381a.851.851,0,0,0,1.236-.95c-.162-.642.582-1,1.12-.974a3.418,3.418,0,0,1,1.809.945.849.849,0,0,0,1.406-.819,1.293,1.293,0,0,1,1.355-1.495.86.86,0,0,0,.841-.841l.086-.84c.111-1.076-1.572-1.069-1.682,0Z" transform="translate(-3276.652 -1695.618)" fill="#454547"/>
        </g>
      </g>
      <g id="Group_448" data-name="Group 448" transform="translate(37.089 17.628)">
        <g id="Group_447" data-name="Group 447">
          <path id="Path_1667" data-name="Path 1667" d="M3292.687,1704.337a5.167,5.167,0,0,1-3.438.673,19.512,19.512,0,0,0-2.853-.523,2.83,2.83,0,0,0-2.372,1.108,5.842,5.842,0,0,0-.783,2.456,2.681,2.681,0,0,1-.4,1.142,4.557,4.557,0,0,1-1.2.837,10.06,10.06,0,0,0-2.347,2.1,10.531,10.531,0,0,0-2.29,5.517l.841-.841a2.146,2.146,0,0,0-2.1,2.181.842.842,0,0,0,1.683,0,.443.443,0,0,1,.417-.5.87.87,0,0,0,.841-.841,8.641,8.641,0,0,1,2.451-5.059c1.278-1.288,3.134-1.764,3.638-3.676a8.36,8.36,0,0,1,.532-2.216c.523-.87,1.753-.463,2.542-.277a7.4,7.4,0,0,0,5.689-.629.842.842,0,0,0-.85-1.453Z" transform="translate(-3275.742 -1704.217)" fill="#454547"/>
        </g>
      </g>
      <g id="Group_450" data-name="Group 450" transform="translate(30.5 31.038)">
        <g id="Group_449" data-name="Group 449">
          <path id="Path_1668" data-name="Path 1668" d="M3274.538,1722.867c-1.309-.667-3.05-1.236-4.2.063-.238.269-.305.224-.666.175a2.7,2.7,0,0,0-1.067.012,2.29,2.29,0,0,0-1.481,1.408c-.621,1.531.373,2.974.767,4.42a5.482,5.482,0,0,1-.586,4.634c-.611.9.847,1.74,1.453.849a6.53,6.53,0,0,0,1.067-4.03,9.258,9.258,0,0,0-.426-2.286c-.215-.675-.549-1.312-.725-2-.1-.373-.171-1.107.269-1.336.409-.212,1.06.1,1.521.019a1.663,1.663,0,0,0,.9-.484c.162-.165.253-.348.475-.438.6-.245,1.324.183,1.84.446.963.491,1.815-.961.849-1.453Z" transform="translate(-3266.93 -1722.149)" fill="#454547"/>
        </g>
      </g>
      <g id="Group_452" data-name="Group 452" transform="translate(97.497 16.452)">
        <g id="Group_451" data-name="Group 451">
          <path id="Path_1669" data-name="Path 1669" d="M3357.755,1709.905a22.01,22.01,0,0,1,9.866-3.561.846.846,0,0,0,.726-.417,2.408,2.408,0,0,1,4.067-.761.85.85,0,0,0,1.19,0c1.594-1.727,4.157-.63,4.875,1.357.82,2.273-.461,4.515-2.11,6.021a.846.846,0,0,0,.17,1.321,1.486,1.486,0,0,1,.953,1.025c.184.632,1.232.9,1.538.2a3.708,3.708,0,0,1,7.168,1.683.859.859,0,0,0,.841.841c2.33.234,3.385,2.81,3.032,4.871-.422,2.466-2.192,4.348-3.943,6-.79.745.4,1.933,1.19,1.19,2.292-2.164,4.552-4.844,4.511-8.185a5.492,5.492,0,0,0-4.791-5.559l.841.841a5.375,5.375,0,0,0-10.3-2.533l1.538.2a3.072,3.072,0,0,0-1.727-2.03l.17,1.321c2.363-2.157,3.781-5.588,2.129-8.607-1.425-2.6-5.159-3.438-7.272-1.151h1.19a4.073,4.073,0,0,0-6.709,1.1l.727-.417a23.8,23.8,0,0,0-10.715,3.791c-.9.594-.058,2.052.849,1.453Z" transform="translate(-3356.521 -1702.644)" fill="#454547"/>
        </g>
      </g>
      <g id="Group_454" data-name="Group 454" transform="translate(130.983 29.783)">
        <g id="Group_453" data-name="Group 453">
          <path id="Path_1670" data-name="Path 1670" d="M3402.945,1725a3.815,3.815,0,0,1,1.083-2.208c.979-.77,2.455-.282,3.472.137.754.31,1.53.959,2.374.932s1.232-.717,1.874-1.131a3.825,3.825,0,0,1,4.493.316.862.862,0,0,0,1.19,0c.764-.723,1.984.239,2.554.778a7.783,7.783,0,0,0,2.434,1.84c2.033.773,3.642-.965,5.611-.991,1.141-.014,1.64-.96,2.545-1.489a4.841,4.841,0,0,1,3.777-.343,17.685,17.685,0,0,1,3.526,1.494c1.084.566,2.455,1.479,1.907,2.89a.848.848,0,0,0,.812,1.065,2.6,2.6,0,0,1,2.554,2.306.852.852,0,0,0,1.035.588,3.382,3.382,0,0,1,3.966,2.116.86.86,0,0,0,.812.618,9.062,9.062,0,0,1,3.882.47c1.015.382,1.453-1.244.447-1.623a10.247,10.247,0,0,0-4.33-.53l.811.618a5.1,5.1,0,0,0-6.035-3.291l1.035.588a4.259,4.259,0,0,0-4.177-3.542l.811,1.065c1.159-2.986-2.313-4.692-4.48-5.656-2.582-1.149-5.5-1.7-7.888.19a6.778,6.778,0,0,1-.731.669,1.987,1.987,0,0,1-.929.1,4.881,4.881,0,0,0-1.67.464,8.576,8.576,0,0,1-1.749.723,2.176,2.176,0,0,1-1.857-.654,10,10,0,0,0-2.889-2.163,2.77,2.77,0,0,0-2.974.51h1.19a5.543,5.543,0,0,0-5.064-1.208,5.358,5.358,0,0,0-1.361.562c-.353.207-.625.542-.966.746s-.31.162-.667.005c-.315-.138-.617-.31-.932-.449a11.065,11.065,0,0,0-1.431-.533,4.4,4.4,0,0,0-4.031.515,5.319,5.319,0,0,0-1.653,3.057c-.245,1.054,1.377,1.5,1.622.447Z" transform="translate(-3401.299 -1720.471)" fill="#454547"/>
        </g>
      </g>
      <g id="Group_456" data-name="Group 456" transform="translate(205.385 19.664)">
        <g id="Group_455" data-name="Group 455">
          <path id="Path_1671" data-name="Path 1671" d="M3502.731,1729.807c-.547-1.676-.086-3.816,2.065-3.655a.85.85,0,0,0,.811-1.065c-.375-1.877-.855-4.562,1.153-5.7,1.966-1.115,4.125.131,5.427,1.651.6.706,1.525-.079,1.406-.819a.634.634,0,0,1,.542-.7.848.848,0,0,0,0-1.622,5.534,5.534,0,0,1-3.615-5.518c.217-1.856,2.359-3.438,4.084-2.261a.851.851,0,0,0,1.236-.5,1.562,1.562,0,0,1,2.914-.077.858.858,0,0,0,1.407.371,5.809,5.809,0,0,1,7.263.15,6.042,6.042,0,0,1,1.873,3.182c.257,1.13.277,2.845-.832,3.54a2.282,2.282,0,0,1-2.575-.17c-.784-.685-.9-1.894-2.122-2.058a4.746,4.746,0,0,0-1.863.448,4.764,4.764,0,0,1-2.4.023c-1.063-.266-2.149-1.1-3.116-.121a2.493,2.493,0,0,0-.211,2.908,7.175,7.175,0,0,0,1.4,1.452c.239.224.589.51.634.855.009.068-.063.544-.12.53l-.224,1.653a4.219,4.219,0,0,1,2.48.645,2.3,2.3,0,0,1,.405,2.277c-.3,1.6-.805,3.128-.055,4.689.471.978,1.912.124,1.453-.85a15.748,15.748,0,0,1-1.428-5.19.854.854,0,0,0-1.436-.6,3.92,3.92,0,0,1-3.23.737c-1.211-.26-2.037-1.319-3.282-1.477-2.525-.319-3.847,2.131-4.659,4.088a.853.853,0,0,0,.587,1.034c1.033.36,1.865-.265,2.864-.144.887.108,1.169,1.194,1.02,1.954-.208,1.057,1.413,1.51,1.623.447a3.615,3.615,0,0,0-1.009-3.452,2.543,2.543,0,0,0-1.634-.636c-.8-.018-1.644.478-2.416.209l.587,1.035c.411-.991.906-2.244,1.961-2.712,1.218-.542,2.194.673,3.27,1.078a5.643,5.643,0,0,0,5.508-.971l-1.437-.594a18.157,18.157,0,0,0,1.657,6.04l1.453-.85a4.375,4.375,0,0,1,.1-2.794,6.737,6.737,0,0,0,.213-2.866c-.482-2.18-2.667-2.661-4.594-2.783a.845.845,0,0,0-.224,1.653,1.9,1.9,0,0,0,2.246-1.944c.073-1.611-1.373-2.1-2.167-3.227a.97.97,0,0,1-.226-.8c.137-.36.349-.094.651.028a6.594,6.594,0,0,0,2.714.518,6.9,6.9,0,0,0,1.176-.146c.413-.088.812-.332,1.217-.4.609-.107.909.952,1.291,1.356a3.822,3.822,0,0,0,6.163-1.08c1.154-2.744-.185-6.177-2.41-7.961a7.537,7.537,0,0,0-9.333.109l1.406.372a3.261,3.261,0,0,0-6.16.077l1.236-.5c-2.482-1.694-5.915.224-6.509,2.968a7.162,7.162,0,0,0,4.743,7.885V1717.9a2.346,2.346,0,0,0-1.717,2.768l1.406-.818c-1.817-2.121-4.843-3.394-7.466-1.914-2.765,1.561-2.459,4.937-1.926,7.6l.811-1.065a3.694,3.694,0,0,0-3.235,1.466,4.67,4.67,0,0,0-.452,4.32c.334,1.025,1.959.586,1.623-.447Z" transform="translate(-3500.791 -1706.94)" fill="#454547"/>
        </g>
      </g>
      <g id="Group_458" data-name="Group 458" transform="translate(234.35 22.433)">
        <g id="Group_457" data-name="Group 457">
          <path id="Path_1672" data-name="Path 1672" d="M3595.148,1729.616a6.042,6.042,0,0,0-.973-2.327,16.764,16.764,0,0,0-1.741-1.748,27.074,27.074,0,0,0-4.162-3.655,6.12,6.12,0,0,0-7.841,1.324l1.019-.132a6.7,6.7,0,0,0-3.718-1.174l.812,1.065c1.24-4.711-2.738-8.7-7.261-8.993a8.634,8.634,0,0,0-6.49,2.185,29.069,29.069,0,0,1-2.72,2.29,4.983,4.983,0,0,0-1.99,2.407l1.035-.588a6.9,6.9,0,0,0-3.37.277l1.065.811c-.2-1.793-.458-3.64-1.7-5.042-1.286-1.453-3.034-1.5-4.826-1.209l1.065.811a5.547,5.547,0,1,0-10.964,1.432l.811-1.065a2.891,2.891,0,0,0-2.741,1.583l1.321-.171a1.994,1.994,0,0,0-1.2-.732c-1.056-.224-1.508,1.4-.448,1.623a.5.5,0,0,1,.461.3.845.845,0,0,0,1.321-.17,1.261,1.261,0,0,1,1.288-.75.853.853,0,0,0,.811-1.065,3.868,3.868,0,1,1,7.659-.985.859.859,0,0,0,1.065.811c1.344-.22,2.552-.16,3.391,1.039a7.672,7.672,0,0,1,1.006,3.59.852.852,0,0,0,1.065.811,5.086,5.086,0,0,1,2.476-.277.872.872,0,0,0,1.035-.588,3.839,3.839,0,0,1,1.653-1.706,15.835,15.835,0,0,0,2.063-1.7,7.158,7.158,0,0,1,5.273-2.258c3.625,0,7.254,2.985,6.228,6.882a.852.852,0,0,0,.812,1.065,5.1,5.1,0,0,1,2.869.944.84.84,0,0,0,1.019-.132,4.5,4.5,0,0,1,6.371-.668,39.78,39.78,0,0,1,3.126,2.879c.473.449.97.88,1.418,1.354a4.327,4.327,0,0,1,.989,2.1.842.842,0,0,0,1.622-.447Z" transform="translate(-3539.523 -1710.642)" fill="#454547"/>
        </g>
      </g>
      <g id="Group_460" data-name="Group 460" transform="translate(235.051 30.091)">
        <g id="Group_459" data-name="Group 459">
          <path id="Path_1673" data-name="Path 1673" d="M3540.473,1721.938l.131.836a.838.838,0,0,0,.811.618,1.3,1.3,0,0,1,1.488,1.377.848.848,0,0,0,1.406.818,3.735,3.735,0,0,1,1.65-1.04c.5-.109,1.461.138,1.318.839-.134.654.588,1.4,1.235.95,2.183-1.529,3.981,1.469,4.617,3.142a9.744,9.744,0,0,0,1.295,2.892,2.315,2.315,0,0,0,1.284.81c.583.127,1.182-.047,1.757.093,1.052.256,1.5-1.366.447-1.623a4.066,4.066,0,0,0-.969-.112,2.167,2.167,0,0,1-1.024-.055c-.443-.246-.633-1-.792-1.434a14.817,14.817,0,0,0-1.66-3.61c-1.267-1.761-3.831-2.937-5.8-1.556l1.235.95a2.518,2.518,0,0,0-1.976-2.94c-1.455-.341-2.792.563-3.8,1.5l1.406.819a2.982,2.982,0,0,0-3.11-3.506l.811.618-.131-.836c-.167-1.066-1.788-.613-1.622.447Z" transform="translate(-3540.461 -1720.882)" fill="#454547"/>
        </g>
      </g>
      <g id="Group_462" data-name="Group 462" transform="translate(249.614 35.692)">
        <g id="Group_461" data-name="Group 461">
          <path id="Path_1674" data-name="Path 1674" d="M3560.358,1730.041a6.839,6.839,0,0,0,4,.758,11.847,11.847,0,0,0,1.873-.445,3.912,3.912,0,0,1,1.756-.277c.988.192,1.025,1.524,1.229,2.3a4.086,4.086,0,0,0,.706,1.524,4.562,4.562,0,0,0,1.556,1.12c.957.5,1.808-.947.849-1.453a2.5,2.5,0,0,1-1.294-1.04,7.605,7.605,0,0,1-.392-1.444,3.239,3.239,0,0,0-1.939-2.551c-1.219-.431-2.512.1-3.688.423a5.165,5.165,0,0,1-3.807-.37c-.959-.5-1.811.953-.849,1.453Z" transform="translate(-3559.936 -1728.373)" fill="#454547"/>
        </g>
      </g>
      <g id="Group_464" data-name="Group 464" transform="translate(182.766 40.274)">
        <g id="Group_463" data-name="Group 463">
          <path id="Path_1675" data-name="Path 1675" d="M3472.12,1737.544c-.052.07.012-.016.03-.038.046-.056.094-.112.143-.167q.132-.148.276-.284a2.445,2.445,0,0,1,.485-.385c.11-.071.224-.137.34-.2.052-.027.1-.052.157-.077-.105.049.06-.024.08-.031a3.492,3.492,0,0,1,.374-.114c.057-.014.114-.025.17-.037.147-.034-.012-.005.07-.013a3.222,3.222,0,0,1,.325-.015c.068,0,.136.005.2.008s.111.01.02,0a2.771,2.771,0,0,1,.706.193c-.083-.036-.025-.011.021.016s.119.062.177.1.092.056.137.086c.012.008.135.1.076.053s.084.078.1.091c.039.037.076.075.113.114.013.014.143.171.089.1s.075.118.073.114a.859.859,0,0,0,1.151.3.85.85,0,0,0,.3-1.151,3.766,3.766,0,0,0-3.49-1.686,5.1,5.1,0,0,0-3.577,2.177.847.847,0,0,0,.3,1.152.861.861,0,0,0,1.151-.3Z" transform="translate(-3470.544 -1734.5)" fill="#454547"/>
        </g>
      </g>
      <g id="Group_466" data-name="Group 466" transform="translate(277.088 10.72)">
        <g id="Group_465" data-name="Group 465">
          <path id="Path_1676" data-name="Path 1676" d="M3598.787,1718.662q.421-.4.847-.787a.842.842,0,0,0,.216-.819,1.74,1.74,0,0,1,.877-2,.846.846,0,0,0,.3-1.151c-1.727-2.365-4.543-6.915-.947-9.029a8.285,8.285,0,0,1,4.169-.853c1.926-.008,3.86.2,5.779.322a.85.85,0,0,0,.6-1.437,3.565,3.565,0,0,1,1.333-6.013c2.759-.961,5.332,1.071,5.986,3.714a.85.85,0,0,0,1.538.2c.828-1.7,3.337-.443,4.6-.115a6.413,6.413,0,0,0,4.912-.864c1.219-.653,3.035-1.838,4.142-.367,1.259,1.672-.044,3.879-.915,5.39a.849.849,0,0,0,.727,1.265,1.338,1.338,0,0,1,1.33,1.376.847.847,0,0,0,1.265.726,3.569,3.569,0,0,1,5.265,1.46.845.845,0,0,0,1.321.17c1.333-1.461,3.253-2.878,5.333-2.182,2.1.7,3.142,2.882,3.527,4.912a21.745,21.745,0,0,1-2.241,13.452.845.845,0,0,0,1.321,1.019,2.632,2.632,0,0,1,3.02-.326c.952.517,1.8-.935.85-1.452a4.372,4.372,0,0,0-5.06.589l1.321,1.02a24.928,24.928,0,0,0,2.509-8.064,18.09,18.09,0,0,0-.517-8.255,6.871,6.871,0,0,0-4.806-4.654c-2.527-.5-4.809.958-6.446,2.752l1.321.171a5.24,5.24,0,0,0-7.565-2.063l1.266.727a3.051,3.051,0,0,0-3.012-3.058l.726,1.266c1.142-1.981,2.27-4.289,1.215-6.556-.933-2-3.042-2.457-4.966-1.662-.969.4-1.84,1-2.806,1.407a4.915,4.915,0,0,1-3.675-.156c-1.824-.585-4.4-.849-5.408,1.224l1.539.2c-.926-3.736-4.818-6.279-8.536-4.7a5.241,5.241,0,0,0-1.6,8.637l.594-1.436c-3.583-.233-8.5-1.239-11.545,1.291-3.6,2.989-1.089,7.818,1.09,10.8l.3-1.152a3.441,3.441,0,0,0-1.65,3.9l.216-.818q-.426.389-.846.787c-.788.745.4,1.934,1.19,1.19Z" transform="translate(-3596.674 -1694.98)" fill="#454547"/>
        </g>
      </g>
      <g id="Group_468" data-name="Group 468" transform="translate(335.455 30.906)">
        <g id="Group_467" data-name="Group 467">
          <path id="Path_1677" data-name="Path 1677" d="M3678.523,1733.534c-1.324-2.232-2.88-5-1.724-7.627a3.777,3.777,0,0,1,2.984-2.139c1.083-.195,2.552-.164,3.281.8a.852.852,0,0,0,1.151.3,2.962,2.962,0,0,1,4.9,2.155.861.861,0,0,0,.618.811c3.451.846,6.911,2.693,7.949,6.343a.842.842,0,0,0,1.623-.447c-1.2-4.221-5.089-6.529-9.123-7.518l.617.812a4.639,4.639,0,0,0-7.43-3.608l1.151.3c-2.012-2.664-6.714-2.1-8.623.427-2.428,3.209-.606,7.229,1.176,10.234a.842.842,0,0,0,1.453-.849Z" transform="translate(-3674.723 -1721.973)" fill="#454547"/>
        </g>
      </g>
      <g id="Group_470" data-name="Group 470" transform="translate(358.353 24.963)">
        <g id="Group_469" data-name="Group 469">
          <path id="Path_1678" data-name="Path 1678" d="M3706.94,1732.379a5.5,5.5,0,0,1,5.433-2.392.853.853,0,0,0,1.035-1.035,7.8,7.8,0,0,1,1.372-6.883,5.994,5.994,0,0,1,6.09-1.963,4.609,4.609,0,0,0,3.135.158,3.3,3.3,0,0,0,1.816-1.925,7.889,7.889,0,0,0,.156-1.477c.1-.653.933-.9,1.5-1.053a2.5,2.5,0,0,1,3.193,1.344.851.851,0,0,0,1.406.371,3.716,3.716,0,0,1,6.314,3.163.854.854,0,0,0,1.236.95,7.045,7.045,0,0,1,4.592-.917,2.757,2.757,0,0,1,2.239,2.682c-.044.9,1.125,1.057,1.567.424a3.013,3.013,0,1,1,4.962,3.418c-.58.918.875,1.763,1.453.849a4.693,4.693,0,1,0-7.868-5.116l1.568.425a4.361,4.361,0,0,0-2.977-4.142c-2.135-.809-4.437-.009-6.387.925l1.236.95a5.361,5.361,0,0,0-9.126-4.8l1.406.371c-.971-2.913-4.521-3.345-6.877-1.812a2.378,2.378,0,0,0-1.03,1.224c-.187.592.046,1.227-.207,1.8-.727,1.644-2.7.507-3.941.348a7.752,7.752,0,0,0-6.915,2.937,9.589,9.589,0,0,0-1.542,8.2l1.035-1.035a7.245,7.245,0,0,0-7.333,3.166c-.6.9.854,1.745,1.453.849Z" transform="translate(-3705.344 -1714.026)" fill="#454547"/>
        </g>
      </g>
      <g id="Group_472" data-name="Group 472" transform="translate(406.653 32.502)">
        <g id="Group_471" data-name="Group 471">
          <path id="Path_1679" data-name="Path 1679" d="M3771.19,1726.27a6.577,6.577,0,0,1,6.534.872,6.42,6.42,0,0,1,1.956,7c-.324,1.036,1.3,1.478,1.622.447a8.077,8.077,0,0,0-2.5-8.716,8.293,8.293,0,0,0-8.465-1.051.847.847,0,0,0-.3,1.151.862.862,0,0,0,1.151.3Z" transform="translate(-3769.932 -1724.107)" fill="#454547"/>
        </g>
      </g>
    </g>
    <g id="Group_475" data-name="Group 475" transform="translate(722.809 173.136)">
      <g id="Group_474" data-name="Group 474">
        <path id="Path_1680" data-name="Path 1680" d="M3253.5,1699.675c-.157-1.615-.759-3.432-2.307-4.214a4.546,4.546,0,0,0-4.914.8h1.19a7.6,7.6,0,0,0-7.67-2.556c-2.617.725-4.5,3.484-3.108,6.093l.726-1.266a5.323,5.323,0,0,0-4.67,1.914l1.406.372c-.542-2.181-3.621-2.549-5.477-2.678a11.665,11.665,0,0,0-6.95,1.626c-3.741,2.347-5.527,7.317-3.522,11.367l.5-1.236c-3.9.885-8.1,1.947-10.8,5.137-2.75,3.26-3.443,7.591-3.341,11.731a.842.842,0,0,0,1.683,0c-.092-3.752.443-7.847,3.04-10.762,2.5-2.812,6.342-3.683,9.862-4.483a.853.853,0,0,0,.5-1.236c-1.533-3.1-.106-7.036,2.676-8.907a9.687,9.687,0,0,1,5.174-1.58,11.544,11.544,0,0,1,2.683.239c.751.159,2.124.355,2.341,1.229a.847.847,0,0,0,1.406.371,3.788,3.788,0,0,1,3.48-1.422c.672.072,1-.757.727-1.266-1.078-2.022,1.192-3.63,2.981-3.78a6.093,6.093,0,0,1,5.154,2.282.855.855,0,0,0,1.19,0,2.783,2.783,0,0,1,3.084-.431,3.5,3.5,0,0,1,1.264,2.65c.1,1.068,1.788,1.079,1.683,0Z" transform="translate(-3204.558 -1693.47)" fill="#454547"/>
      </g>
    </g>
    <g id="Group_476" data-name="Group 476">
      <path id="Path_1681" data-name="Path 1681" d="M3563.132,1669.88H3405.964a15.278,15.278,0,0,1-15.261-15.261v-86.158a1.491,1.491,0,0,1-.439-.92l-.126-1.281-8.4-.117a1.834,1.834,0,0,1-1.327-.529,1.9,1.9,0,0,1-.577-1.358v-48.406c0-1.573-.737-2.1-1.066-2.254l-19.862,1.819a1.51,1.51,0,0,1-1.144-.384,1.494,1.494,0,0,1-.488-1.105V1491.5l-11.433-1.733a.742.742,0,0,1-.074-.013l-8.874-1.8c-.812.068-3.659.295-5.3.295a1.6,1.6,0,0,1-.209-.014c-5.864-.828-18.134-1.368-18.257-1.373a1.5,1.5,0,0,1-1.43-1.494v-6.321c-10.085-1.286-30.03-1.346-33.424-1.347l-6.086,4.565v1.255a1.494,1.494,0,0,1-.447,1.066,1.527,1.527,0,0,1-1.073.429l-9.47-.154-15.7-.914-4.25,1.026a1.447,1.447,0,0,1-.284.04l-18.529.823V1649a1.5,1.5,0,0,1-2.161,1.339,2.345,2.345,0,0,0-2.709.428,3.293,3.293,0,0,0-1.164,3.165,1.5,1.5,0,0,1-1.66,1.95l-.022,0c-.055.083-.12.185-.174.271l-.148.232a1.5,1.5,0,0,1-2.753-.809v-85.561l-19.451-.3a1.5,1.5,0,0,1-1.472-1.5v-.69h-5.221a1.5,1.5,0,0,1-1.5-1.5v-86.7l-28.51-13.165-15.28,2.063c-.034,0-.069.008-.1.01l-9.662.629a1.513,1.513,0,0,1-.239,0l-36.96-3.49,2.18,1.893a1.5,1.5,0,0,1,.516,1.129v6.128a1.5,1.5,0,0,1-1.386,1.491c-1.67.124-10.24,1.7-13.4,2.3-.028.006-.058.01-.087.014l-8.342,1.074a1.5,1.5,0,0,1-1.158,1.383l-8.87,2.045v5.973a1.495,1.495,0,0,1-1.669,1.485l-3.582-.417a1.5,1.5,0,0,1-1.5.717l-21.651-3.189-3.47.639a1.43,1.43,0,0,1-.271.025h-6.451l-6.88,3.875v2.513a1.5,1.5,0,0,1-.752,1.3l-4.472,2.561a1.488,1.488,0,0,1-.408.16l-3.181.732v.936a1.5,1.5,0,0,1-.87,1.358l-2.994,1.38v3.341a1.5,1.5,0,0,1-1.236,1.473v1.259a1.5,1.5,0,0,1-.9,1.371l-.957.416v125.546a1.494,1.494,0,0,1-2.021,1.4c-1.948-.73-3.491-.536-4.344.546a1.827,1.827,0,0,0-.436,1.642,1.475,1.475,0,0,1,.375,1.8,1.5,1.5,0,0,1-1.684.785,2.379,2.379,0,0,0-2.483,1.012,1.508,1.508,0,0,1-2.415.152,4.894,4.894,0,0,0-3.569-1.641,9.53,9.53,0,0,0-6.3,1.84c-2.541,2.262-3.151,4.734-1.98,8.011a1.5,1.5,0,0,1-1.175,1.981c-7.364,1.165-10.865,3.827-11.706,8.9a1.5,1.5,0,0,1-1.63,1.243c-3.8-.4-6.1,2.9-6.495,4.75a1.5,1.5,0,0,1-1.462,1.181H2239.5a1.5,1.5,0,0,1,0-2.991h713.527a9.372,9.372,0,0,1,8-5.954c1.7-6.565,7.393-8.806,12.254-9.786-.826-3.72.261-6.864,3.3-9.569a12.543,12.543,0,0,1,8.519-2.59,8.372,8.372,0,0,1,4.426,1.557,5.311,5.311,0,0,1,2.064-1.017,5.077,5.077,0,0,1,.713-2.522,5.772,5.772,0,0,1,6.155-2.67V1509.751a1.5,1.5,0,0,1,.9-1.372l.956-.416v-1.751a1.5,1.5,0,0,1,1.236-1.473v-2.825a1.5,1.5,0,0,1,.87-1.359l2.994-1.38v-1.17a1.5,1.5,0,0,1,1.161-1.457l4.126-.949,3.527-2.021v-2.52a1.5,1.5,0,0,1,.762-1.3l7.983-4.5a1.491,1.491,0,0,1,.733-.193h6.707l3.58-.66a1.431,1.431,0,0,1,.489-.008l20.417,3.008a1.516,1.516,0,0,1,.267-.313,1.476,1.476,0,0,1,1.167-.368l3.374.392v-5.482a1.5,1.5,0,0,1,1.16-1.458l8.87-2.045v-.051a1.5,1.5,0,0,1,1.3-1.483l9.6-1.236c.761-.144,8.708-1.639,12.308-2.163v-4.124l-5.188-4.5a1.5,1.5,0,0,1,1.12-2.619l41.486,3.917,9.491-.618,15.662-2.114a1.488,1.488,0,0,1,.826.125l29.775,13.748a1.494,1.494,0,0,1,.868,1.357v86.166h5.221a1.5,1.5,0,0,1,1.5,1.5v.714l19.451.3a1.5,1.5,0,0,1,1.472,1.5v81.01a6.769,6.769,0,0,1,.966-1.038,5.468,5.468,0,0,1,3.843-1.419V1484.4a1.5,1.5,0,0,1,1.429-1.494l19.815-.88,4.324-1.045a1.521,1.521,0,0,1,.438-.039l15.86.924,7.888.127v-.483a1.493,1.493,0,0,1,.6-1.2l7.083-5.312a1.493,1.493,0,0,1,.893-.3c1.018,0,25.03-.059,35.647,1.556a1.5,1.5,0,0,1,1.271,1.478v6.2c3.429.167,12.126.639,17.008,1.317,1.789-.01,5.124-.3,5.158-.3a1.491,1.491,0,0,1,.427.024l9.049,1.84,12.667,1.92a1.5,1.5,0,0,1,1.271,1.479v22.076l18.541-1.7a1.536,1.536,0,0,1,.466.03c1.229.277,3.553,1.729,3.553,5.232v47.317l8.693.12a1.5,1.5,0,0,1,1.468,1.351l.156,1.6a1.494,1.494,0,0,1,.552,1.161v87.223a12.283,12.283,0,0,0,12.27,12.269h157.168c-.008-3.55.019-.451,0,1.5A9.87,9.87,0,0,1,3563.132,1669.88Z" transform="translate(-2238 -1461.947)" fill="url(#linear-gradient)"/>
    </g>
    <line id="Line_168" data-name="Line 168" x2="41.826" y2="1.57" transform="translate(982.505 34.562)" fill="none" stroke="#454547" stroke-linecap="round" stroke-miterlimit="10" stroke-width="2"/>
    <line id="Line_169" data-name="Line 169" y2="6.793" transform="translate(987.643 27.961)" fill="none" stroke="#454547" stroke-linecap="round" stroke-miterlimit="10" stroke-width="2"/>
  </g>
</svg>
