<svg xmlns="http://www.w3.org/2000/svg" xmlns:xlink="http://www.w3.org/1999/xlink" width="120.128" height="68.236" viewBox="0 0 120.128 68.236">
  <defs>
    <linearGradient id="linear-gradient" x1="0.588" y1="0.5" x2="59.535" y2="0.5" gradientUnits="objectBoundingBox">
      <stop offset="0" stop-color="#dd27fc"/>
      <stop offset="0.016" stop-color="#d32afc"/>
      <stop offset="0.043" stop-color="#ba32fc"/>
      <stop offset="0.077" stop-color="#9040fd"/>
      <stop offset="0.117" stop-color="#5753fe"/>
      <stop offset="0.14" stop-color="#3360ff"/>
      <stop offset="0.285" stop-color="#b45084"/>
      <stop offset="0.428" stop-color="#df4779"/>
      <stop offset="0.449" stop-color="#e15774"/>
      <stop offset="0.489" stop-color="#e88167"/>
      <stop offset="0.545" stop-color="#f3c553"/>
      <stop offset="0.572" stop-color="#f9ea49"/>
      <stop offset="0.716" stop-color="#e79121"/>
      <stop offset="0.86" stop-color="#e05b26"/>
      <stop offset="1" stop-color="#dd2d15"/>
    </linearGradient>
    <linearGradient id="linear-gradient-2" x1="-4.767" y1="0.5" x2="547.533" y2="0.5" xlink:href="#linear-gradient"/>
    <linearGradient id="linear-gradient-3" x1="-2.176" y1="0.5" x2="56.947" y2="0.5" xlink:href="#linear-gradient"/>
    <linearGradient id="linear-gradient-4" x1="-0.537" y1="0.5" x2="43.696" y2="0.5" xlink:href="#linear-gradient"/>
  </defs>
  <g id="Logo" transform="translate(376.313 2082.959)">
    <path id="Path_1378" data-name="Path 1378" d="M-360.155-2065.562a15.928,15.928,0,0,0-15.989,15.829l-.169,33.411a1.592,1.592,0,0,0,1.583,1.6,1.591,1.591,0,0,0,1.6-1.583l.169-33.411a12.74,12.74,0,0,1,12.791-12.663,12.742,12.742,0,0,1,12.664,12.792,12.741,12.741,0,0,1-12.792,12.663,12.747,12.747,0,0,1-8.08-2.946,1.591,1.591,0,0,0-2.241.2,1.591,1.591,0,0,0,.2,2.241,15.932,15.932,0,0,0,10.1,3.684,15.928,15.928,0,0,0,15.99-15.829A15.928,15.928,0,0,0-360.155-2065.562Z" fill="url(#linear-gradient)"/>
    <path id="Path_1379" data-name="Path 1379" d="M-339.384-2082.959a1.593,1.593,0,0,0-1.6,1.583l-.232,46.138a1.59,1.59,0,0,0,1.583,1.6,1.591,1.591,0,0,0,1.6-1.583l.232-46.138A1.591,1.591,0,0,0-339.384-2082.959Z" fill="url(#linear-gradient-2)"/>
    <path id="Path_1380" data-name="Path 1380" d="M-272.015-2065.118a15.928,15.928,0,0,0-15.99,15.829l-.072,14.319a1.591,1.591,0,0,0,1.583,1.6,1.591,1.591,0,0,0,1.6-1.583l.072-14.319a12.742,12.742,0,0,1,12.792-12.663,12.742,12.742,0,0,1,12.664,12.791l-.072,14.319a1.59,1.59,0,0,0,1.583,1.6,1.591,1.591,0,0,0,1.6-1.583l.072-14.318A15.928,15.928,0,0,0-272.015-2065.118Z" fill="url(#linear-gradient-3)"/>
    <path id="Path_1381" data-name="Path 1381" d="M-292.608-2040.562l-16.39-28.72a4.722,4.722,0,0,0-4.121-2.407h0a4.723,4.723,0,0,0-4.145,2.365l-6.816,11.669-9.862,16.885a4.856,4.856,0,0,0-.491,1.164c-.014.049-.024.1-.035.147s-.027.1-.037.155a4.723,4.723,0,0,0,.539,3.308,4.726,4.726,0,0,0,4.121,2.407l15.075.076h.01l17.983.09a4.721,4.721,0,0,0,4.145-2.365,4.751,4.751,0,0,0,.652-2.671A4.788,4.788,0,0,0-292.608-2040.562Zm-20.528-27.945a1.561,1.561,0,0,1,1.374.8l6.477,11.349a1.9,1.9,0,0,1-.011,1.9l-3.871,6.628a1.292,1.292,0,0,1-2.238-.012l-6.732-11.8a1.9,1.9,0,0,1,.009-1.9l3.611-6.181a1.532,1.532,0,0,1,1.108-.766A1.6,1.6,0,0,1-313.136-2068.507Z" fill="url(#linear-gradient-4)"/>
  </g>
</svg>
