<svg xmlns="http://www.w3.org/2000/svg" width="308.13" height="299.478" viewBox="0 0 308.13 299.478">
  <g id="Group_543" data-name="Group 543" transform="translate(0.502 0.519)">
    <path id="Path_1814" data-name="Path 1814" d="M1624.208,2281.22c-26.792,1.2-51.419,6.867-71.662,15.714" transform="translate(-1464.581 -2140.828)" fill="none" stroke="#666668" stroke-linecap="round" stroke-linejoin="round" stroke-width="1"/>
    <path id="Path_1815" data-name="Path 1815" d="M1780.557,2296.127c-16.692-6.883-36.168-11.65-57.261-13.627" transform="translate(-1530.927 -2141.325)" fill="none" stroke="#666668" stroke-linecap="round" stroke-linejoin="round" stroke-width="1"/>
    <path id="Path_1816" data-name="Path 1816" d="M1723.265,2282.835c20.26,1.817,39.919,6.266,57.31,13.349" transform="translate(-1530.915 -2141.456)" fill="none" stroke="#666668" stroke-linecap="round" stroke-linejoin="round" stroke-width="1"/>
    <g id="Group_534" data-name="Group 534" transform="translate(203.5 100.913)">
      <g id="Group_532" data-name="Group 532" transform="translate(26.848 18.281)">
        <path id="Path_1817" data-name="Path 1817" d="M1848.387,2246.55c8.518,5.914,5.539,11.594,6.138,20.417,1.3,19.141,5.509,30.633-7.713,38.787s-25.124,13.443-34.171,10.167a52.761,52.761,0,0,1-7.888-3.458" transform="translate(-1792.926 -2246.55)" fill="none" stroke="#666668" stroke-linecap="round" stroke-linejoin="round" stroke-width="1"/>
        <path id="Path_1818" data-name="Path 1818" d="M1801.583,2301.85c3.209-3.035,7.018-4.912,10.5-6.593,4.151-2,6.154-6.891,8.44-13.332" transform="translate(-1791.694 -2260.295)" fill="none" stroke="#666668" stroke-linecap="round" stroke-linejoin="round" stroke-width="1"/>
        <path id="Path_1819" data-name="Path 1819" d="M1840.1,2358.961l-.3,41.665c-.011.5-2.061.5-2.08.006l-.965-40.744" transform="translate(-1805.362 -2290.229)" fill="none" stroke="#666668" stroke-linecap="round" stroke-linejoin="round" stroke-width="1"/>
        <path id="Path_1820" data-name="Path 1820" d="M1866.444,2346.385l14.357,30.551c.367.764,2.173-.067,1.862-.855l-12.953-31.633" transform="translate(-1816.897 -2284.589)" fill="none" stroke="#666668" stroke-linecap="round" stroke-linejoin="round" stroke-width="1"/>
        <path id="Path_1821" data-name="Path 1821" d="M1804.177,2354.017" transform="translate(-1792.702 -2288.307)" fill="none" stroke="#666668" stroke-linecap="round" stroke-linejoin="round" stroke-width="1"/>
        <path id="Path_1822" data-name="Path 1822" d="M1792.587,2380.317l-4.726,9.669c-.553,1.1-2.87.332-2.385-.8l4.966-11.265" transform="translate(-1785.41 -2297.594)" fill="none" stroke="#666668" stroke-linecap="round" stroke-linejoin="round" stroke-width="1"/>
        <line id="Line_193" data-name="Line 193" x1="1.06" y2="2.169" transform="translate(13.627 67.358)" fill="none" stroke="#666668" stroke-linecap="round" stroke-linejoin="round" stroke-width="1"/>
      </g>
      <g id="Group_533" data-name="Group 533">
        <path id="Path_1823" data-name="Path 1823" d="M1860.147,2261.977c6.021,4.684,8.329,8.551,6.824,15.409s-5.52,19.235-9.2,21.243-5.8,4.832-7.052,4.64-1.022-.559-1.022-.559,1.74-.274,1.831-.733-.778-6.225-3.707-5.9c.915-1.19,4.623-3.112,8.742-4.943" transform="translate(-1782.812 -2234.264)" fill="none" stroke="#e4716d" stroke-linecap="round" stroke-linejoin="round" stroke-width="1"/>
        <path id="Path_1824" data-name="Path 1824" d="M1847.176,2229.372c.314,3.86,5.688,7.813,3.022,10.917s7.022.467,8.477-3.141-.837-5.87-1.3-11.068-8.175-13.074-16.828-7.536-9.3,9.693-6.867,14.278c1.778.669,4.085.956,5.557-.132s-.666-1.313,1.812-1.735S1843.534,2231.024,1847.176,2229.372Z" transform="translate(-1776.842 -2216.653)" fill="none" stroke="#e4716d" stroke-linecap="round" stroke-linejoin="round" stroke-width="1"/>
        <path id="Path_1825" data-name="Path 1825" d="M1839.309,2244.068c4.081,10.9,11.233,10.418,14.132,5.892" transform="translate(-1779.505 -2227.305)" fill="none" stroke="#e4716d" stroke-linecap="round" stroke-linejoin="round" stroke-width="1"/>
        <path id="Path_1826" data-name="Path 1826" d="M1835.048,2265.388c-.251,1.5-4.31,1.453-3.859,7.318s3.609,6.816,3.859,12.08-1.253,11.478-5.162,11.628c-.2,2.1,4.26,5.163,4.26,5.163" transform="translate(-1775.841 -2235.589)" fill="none" stroke="#e4716d" stroke-linecap="round" stroke-linejoin="round" stroke-width="1"/>
        <path id="Path_1827" data-name="Path 1827" d="M1865.314,2279.323c-2.206,3.91-4.11,18.8-4.11,18.8" transform="translate(-1788.013 -2241.004)" fill="none" stroke="#e4716d" stroke-linecap="round" stroke-linejoin="round" stroke-width="1"/>
        <path id="Path_1828" data-name="Path 1828" d="M1834.995,2317.739c-4.191,2.706-10.55,7.12-12.275,7.205s-9.563.628-7.591,2.649,4.19,3.007,6.211,1.725,1.528-1.085,4.634-1.429,10.9-3.513,10.9-3.513" transform="translate(-1769.987 -2255.931)" fill="none" stroke="#e4716d" stroke-linecap="round" stroke-linejoin="round" stroke-width="1"/>
        <path id="Path_1829" data-name="Path 1829" d="M1857.825,2320.013c1.007,5.453,1.379,5.7-1.065,6.958s-6.9,1.882-8.907.941a14,14,0,0,0-3.375-1.157" transform="translate(-1781.514 -2256.814)" fill="none" stroke="#e4716d" stroke-linecap="round" stroke-linejoin="round" stroke-width="1"/>
        <path id="Path_1830" data-name="Path 1830" d="M1841.573,2330.087c2.169,4.688,1.542,7.825-7.806,11.839s-23.9,3.576-23.9,3.576c-6.616-.343-7.779-1.312-7.779-1.312" transform="translate(-1765.044 -2260.729)" fill="none" stroke="#e4716d" stroke-linecap="round" stroke-linejoin="round" stroke-width="1"/>
        <path id="Path_1831" data-name="Path 1831" d="M1797.173,2328.374l-2.3-18.182a3.488,3.488,0,0,0-1.152-2.177l-18.688-16.494a.57.57,0,0,0-.94.514l2.94,18.936a3.243,3.243,0,0,0,1.053,1.929l18.052,16.017A.623.623,0,0,0,1797.173,2328.374Z" transform="translate(-1754.164 -2245.687)" fill="none" stroke="#e4716d" stroke-linecap="round" stroke-linejoin="round" stroke-width="1"/>
        <line id="Line_194" data-name="Line 194" x1="4.076" y1="3.098" transform="translate(44.576 66.261)" fill="none" stroke="#e4716d" stroke-linecap="round" stroke-linejoin="round" stroke-width="1"/>
        <path id="Path_1832" data-name="Path 1832" d="M1820.973,2335.237l7.381,5.61a.653.653,0,0,1-.206,1.146l-15.582,4.711a2.192,2.192,0,0,1-2.089-.458l-.322-.285" transform="translate(-1768.178 -2262.73)" fill="none" stroke="#e4716d" stroke-linecap="round" stroke-linejoin="round" stroke-width="1"/>
        <path id="Path_1833" data-name="Path 1833" d="M1836.913,2243.8c1.779,4.1,3.428,5.811,2.323,7.348s.072,2.315,1.566,2.184,4.488-.826,4.488-.826c-4.125,5.736-.5,9.68,3.962,9.8s7.768-6.658,6.127-10.761" transform="translate(-1778.574 -2227.202)" fill="none" stroke="#e4716d" stroke-linecap="round" stroke-linejoin="round" stroke-width="1"/>
        <path id="Path_1834" data-name="Path 1834" d="M1838.775,2255.821c-2.932,3.812-3.053,5.153-3.049,7.387" transform="translate(-1778.113 -2231.872)" fill="none" stroke="#e4716d" stroke-linecap="round" stroke-linejoin="round" stroke-width="1"/>
        <path id="Path_1835" data-name="Path 1835" d="M1832.592,2298c-1.758,2.877-5.175,8.486-5.192,7.767s-.737-4.1-3.9-4.171a15.975,15.975,0,0,1,4.819-5.85" transform="translate(-1773.362 -2247.386)" fill="none" stroke="#e4716d" stroke-linecap="round" stroke-linejoin="round" stroke-width="1"/>
        <path id="Path_1836" data-name="Path 1836" d="M1831.7,2282.029a39.732,39.732,0,0,1-1.817,9.149" transform="translate(-1775.841 -2242.055)" fill="none" stroke="#e4716d" stroke-linecap="round" stroke-linejoin="round" stroke-width="1"/>
        <path id="Path_1837" data-name="Path 1837" d="M1807.375,2314.065a14.776,14.776,0,0,1,4.547-1.459c1.787-2.024,5.311-7.289,5.311-7.289" transform="translate(-1767.097 -2251.104)" fill="none" stroke="#e4716d" stroke-linecap="round" stroke-linejoin="round" stroke-width="1"/>
        <path id="Path_1838" data-name="Path 1838" d="M1821.489,2310.709c-5.074,5.67-9.092,9.837-12.81,9.865" transform="translate(-1767.604 -2253.199)" fill="none" stroke="#e4716d" stroke-linecap="round" stroke-linejoin="round" stroke-width="1"/>
        <path id="Path_1839" data-name="Path 1839" d="M1791.816,2346.177c2.2,3.866,6.271,14.271,3.686,16.21s-4.072,4.653-9.112-.259-5.17-5.817-8.66-5.946-7.82-5.3-5.945-7.238,1.938-4.2,2.584-8.466,2.215-5.273,7.538-6.8" transform="translate(-1753.093 -2262.122)" fill="none" stroke="#e4716d" stroke-linecap="round" stroke-linejoin="round" stroke-width="1"/>
        <path id="Path_1840" data-name="Path 1840" d="M1770.708,2367.681c-6.648,7.354-14.189,20.061-14.189,20.061a1.239,1.239,0,0,1-.542.561,2.216,2.216,0,0,1-2.715-1.62,1.209,1.209,0,0,1,.1-.562q5.694-11.427,11.388-22.855" transform="translate(-1746.07 -2273.621)" fill="none" stroke="#e4716d" stroke-linecap="round" stroke-linejoin="round" stroke-width="1"/>
        <path id="Path_1841" data-name="Path 1841" d="M1805.071,2380.469c.753,1.833,1.593,3.726,2.532,5.665a101.241,101.241,0,0,0,6.516,11.477c.813,1.431-1.466,2.846-2.693,1.6a78.618,78.618,0,0,1-15.467-19" transform="translate(-1762.661 -2280.204)" fill="none" stroke="#e4716d" stroke-linecap="round" stroke-linejoin="round" stroke-width="1"/>
        <path id="Path_1842" data-name="Path 1842" d="M1752.459,2400.992c.986,1.974.192,4.037-4.172,7.29s-8.643,3.945-5.945-1.083,5.25-7.518,6.788-7.661" transform="translate(-1741.501 -2287.714)" fill="none" stroke="#e4716d" stroke-linecap="round" stroke-linejoin="round" stroke-width="1"/>
        <path id="Path_1843" data-name="Path 1843" d="M1821.2,2408.668c2.5,1.733,4.47,2.266,4.045,3.649s-5.216,6.227-9.9,7.61,6.493-6.733,3.606-9.34" transform="translate(-1769.743 -2291.262)" fill="none" stroke="#e4716d" stroke-linecap="round" stroke-linejoin="round" stroke-width="1"/>
      </g>
    </g>
    <g id="Group_541" data-name="Group 541" transform="translate(85.038 73.347)">
      <g id="Group_535" data-name="Group 535" transform="translate(72.127)">
        <g id="Path_1844" data-name="Path 1844" transform="translate(-1677.087 -2171.569)" fill="none" stroke-linecap="round" stroke-linejoin="round">
          <path d="M1696.885,2186.189c3.393-.432,3.729,2.483,3.085,3.607s-1.529,1.052.168,2.079,7.7,1.962,11.014-4.57c4.33-8.539,1.878-13.534-4.166-15.2-5.467-1.5-11.041.1-11.874,5.24s2.334,4,2.053,6.419Z" stroke="none"/>
          <path d="M 1703.32958984375 2191.6044921875 C 1704.20458984375 2191.6044921875 1705.530395507812 2191.43994140625 1706.87744140625 2190.656005859375 C 1708.246459960938 2189.859375 1709.384643554688 2188.579833984375 1710.260620117188 2186.8525390625 C 1711.352416992188 2184.699951171875 1712.022705078125 2182.728271484375 1712.253051757812 2180.992431640625 C 1712.461303710938 2179.42236328125 1712.308837890625 2178.04296875 1711.7998046875 2176.892333984375 C 1710.990234375 2175.06201171875 1709.281372070312 2173.776611328125 1706.721069335938 2173.072021484375 C 1705.505859375 2172.738037109375 1704.298095703125 2172.568603515625 1703.131103515625 2172.568603515625 C 1701.270263671875 2172.568603515625 1699.640380859375 2173.00146484375 1698.417846679688 2173.820556640625 C 1697.136840820312 2174.678955078125 1696.356689453125 2175.919677734375 1696.098999023438 2177.50830078125 C 1695.909545898438 2178.676025390625 1695.9326171875 2179.57080078125 1696.167602539062 2180.167724609375 C 1696.3466796875 2180.62255859375 1696.639526367188 2180.883544921875 1696.978515625 2181.185546875 C 1697.549438476562 2181.694091796875 1698.331176757812 2182.390869140625 1698.158569335938 2183.8818359375 L 1698.009887695312 2185.16796875 C 1699.237060546875 2185.28466796875 1700.202880859375 2185.861572265625 1700.759155273438 2186.822021484375 C 1701.441772460938 2188.000244140625 1701.315185546875 2189.46044921875 1700.837158203125 2190.294189453125 C 1700.701416015625 2190.53076171875 1700.560546875 2190.72265625 1700.432250976562 2190.880859375 C 1700.496337890625 2190.921875 1700.5703125 2190.968017578125 1700.65576171875 2191.01953125 C 1701.136840820312 2191.310791015625 1702.150268554688 2191.6044921875 1703.32958984375 2191.6044921875 M 1703.32958984375 2192.6044921875 C 1701.92431640625 2192.6044921875 1700.75048828125 2192.245849609375 1700.138061523438 2191.875244140625 C 1698.441284179688 2190.848876953125 1699.325317382812 2190.91943359375 1699.969848632812 2189.79638671875 C 1700.570190429688 2188.749267578125 1700.3193359375 2186.14599609375 1697.536743164062 2186.14599609375 C 1697.333251953125 2186.14599609375 1697.1162109375 2186.159912109375 1696.885131835938 2186.189453125 L 1697.165161132812 2183.76708984375 C 1697.445678710938 2181.344970703125 1694.277954101562 2182.48681640625 1695.111938476562 2177.34814453125 C 1695.7470703125 2173.432373046875 1699.135131835938 2171.568603515625 1703.131103515625 2171.568603515625 C 1704.378540039062 2171.568603515625 1705.685546875 2171.750244140625 1706.986206054688 2172.10791015625 C 1713.030883789062 2173.771240234375 1715.482788085938 2178.766357421875 1711.152465820312 2187.304931640625 C 1709.035034179688 2191.47998046875 1705.818725585938 2192.6044921875 1703.32958984375 2192.6044921875 Z" stroke="none" fill="#e3696f"/>
        </g>
        <path id="Path_1845" data-name="Path 1845" d="M1682.088,2265.593c.337-1.129.676-2.487,1-4.118,2-9.929,2.634-13.133,2.634-13.133" transform="translate(-1672.081 -2201.399)" fill="none" stroke="#e3696f" stroke-linecap="round" stroke-linejoin="round" stroke-width="1"/>
        <path id="Path_1846" data-name="Path 1846" d="M1707.771,2214.047c2.48,7.544-3.379,11.936-4.234,22.881s3.751,19.281.479,21.373-17.227,9.914-23.836,2.767c-3.718-4.021-4.006-2.585-2.977-3.384" transform="translate(-1669.983 -2188.074)" fill="none" stroke="#e3696f" stroke-linecap="round" stroke-linejoin="round" stroke-width="1"/>
        <path id="Path_1847" data-name="Path 1847" d="M1695.729,2187.319c-.828,9.513-1.156,12.764,5.343,11.029" transform="translate(-1677.21 -2177.688)" fill="none" stroke="#e3696f" stroke-linecap="round" stroke-linejoin="round" stroke-width="1"/>
        <path id="Path_1848" data-name="Path 1848" d="M1715.733,2205.753c7.121-2.78,20.117,13.218,18.889,15.411s-6.03,13.117-15.637,20.93" transform="translate(-1685.154 -2184.726)" fill="none" stroke="#e3696f" stroke-linecap="round" stroke-linejoin="round" stroke-width="1"/>
        <path id="Path_1849" data-name="Path 1849" d="M1720.6,2243.5c5.367-9.357,4.8-10.392,8.292-12.533" transform="translate(-1687.045 -2194.65)" fill="none" stroke="#e3696f" stroke-linecap="round" stroke-linejoin="round" stroke-width="1"/>
        <path id="Path_1850" data-name="Path 1850" d="M1727.712,2225.7a4.2,4.2,0,0,0,2.346,4.36" transform="translate(-1689.8 -2192.602)" fill="none" stroke="#e3696f" stroke-linecap="round" stroke-linejoin="round" stroke-width="1"/>
        <path id="Path_1851" data-name="Path 1851" d="M1690.043,2232.785c-3.978,5.43-9.189,13.524-13.759,18.213" transform="translate(-1669.826 -2195.355)" fill="none" stroke="#e3696f" stroke-linecap="round" stroke-linejoin="round" stroke-width="1"/>
        <path id="Path_1852" data-name="Path 1852" d="M1674.461,2238.032c-1.609,1.991,1.385,9.9,1.346,12.56s-2.466,4.323-7.036,3.7c0,0-1.635-6.906-2.872-12.308s4.3-13.532,7.458-20.064,7.244-8.06,14-12.563c3.31,2.972,7.1,2.225,8.6.43a3.5,3.5,0,0,0,.344-3.825" transform="translate(-1665.722 -2184.931)" fill="none" stroke="#e3696f" stroke-linecap="round" stroke-linejoin="round" stroke-width="1"/>
        <path id="Path_1853" data-name="Path 1853" d="M1706.021,2334.821a103.376,103.376,0,0,1,1.151,11.166c-.219,3.241,1.979,5.132,6.6,4.322s1.329-7.835,0-19.988c-1.57-14.365,5.112-30.154.554-42.807" transform="translate(-1681.38 -2216.62)" fill="none" stroke="#e3696f" stroke-linecap="round" stroke-linejoin="round" stroke-width="1"/>
        <path id="Path_1854" data-name="Path 1854" d="M1681.367,2303.57a51.959,51.959,0,0,1,1.169-11.751" transform="translate(-1671.8 -2218.293)" fill="none" stroke="#e3696f" stroke-linecap="round" stroke-linejoin="round" stroke-width="1"/>
        <path id="Path_1855" data-name="Path 1855" d="M1700.87,2376.655c.425,10.309.726,15.042-1.764,16.367a3.618,3.618,0,0,1-.883.334" transform="translate(-1678.35 -2251.257)" fill="none" stroke="#e3696f" stroke-linecap="round" stroke-linejoin="round" stroke-width="1"/>
        <path id="Path_1856" data-name="Path 1856" d="M1700.615,2400.076c1.009,3.433.932,6.126-2.415,5.81" transform="translate(-1678.341 -2260.357)" fill="none" stroke="#e3696f" stroke-linecap="round" stroke-linejoin="round" stroke-width="1"/>
        <path id="Path_1857" data-name="Path 1857" d="M1718.124,2388.14c.493,2.607.169,4.176-2.745,3.67s-3.231-.982-3.041-2.216" transform="translate(-1683.818 -2255.719)" fill="none" stroke="#e3696f" stroke-linecap="round" stroke-linejoin="round" stroke-width="1"/>
        <path id="Path_1858" data-name="Path 1858" d="M1707.825,2388.69c-2.588.421-3.954.265-4.861-1.189" transform="translate(-1680.192 -2255.471)" fill="none" stroke="#e3696f" stroke-linecap="round" stroke-linejoin="round" stroke-width="1"/>
        <path id="Path_1859" data-name="Path 1859" d="M1705.849,2380.595a6.1,6.1,0,0,0-3.156-.574" transform="translate(-1680.087 -2252.553)" fill="none" stroke="#e3696f" stroke-linecap="round" stroke-linejoin="round" stroke-width="1"/>
        <path id="Path_1860" data-name="Path 1860" d="M1702.755,2204.622c.972,1.8.216,4.877.216,4.877" transform="translate(-1680.111 -2184.412)" fill="none" stroke="#e3696f" stroke-linecap="round" stroke-linejoin="round" stroke-width="1"/>
        <path id="Path_1861" data-name="Path 1861" d="M1678.758,2282.57c2.967,1.267,5.041.431,4.829,1.62s-3.576.657-4.58.285-2.864.174-3.714-.285" transform="translate(-1669.44 -2214.699)" fill="none" stroke="#e3696f" stroke-linecap="round" stroke-linejoin="round" stroke-width="1"/>
        <path id="Path_1862" data-name="Path 1862" d="M1716.051,2203.44c-1.133,1.45-.289,4.612-.289,4.612" transform="translate(-1685.048 -2183.952)" fill="none" stroke="#e3696f" stroke-linecap="round" stroke-linejoin="round" stroke-width="1"/>
      </g>
      <g id="Group_540" data-name="Group 540" transform="translate(0 78.343)">
        <g id="Group_536" data-name="Group 536" transform="translate(0 0.89)">
          <path id="Path_1863" data-name="Path 1863" d="M1638.387,2348.384c-2.535.288-3.99.527-5.482,1.969-2.836,2.742-11.817,14.937-10.4,18.908s3.214,9.832,9.454,10.021q.444-.659.858-1.314" transform="translate(-1576.744 -2319.505)" fill="none" stroke="#e26371" stroke-linecap="round" stroke-linejoin="round" stroke-width="1"/>
          <path id="Path_1864" data-name="Path 1864" d="M1646.7,2329.774c-3.592-.414-3.761-4.643-2.654-15.143" transform="translate(-1584.94 -2306.39)" fill="none" stroke="#e26371" stroke-linecap="round" stroke-linejoin="round" stroke-width="1"/>
          <path id="Path_1865" data-name="Path 1865" d="M1609.819,2354.98c-5.145-8-7.115-9.316-13.272-4.883s-22.247,12.724-23.15,13.135a12.227,12.227,0,0,0,1.642,6.9c8.866-2.628,20.256-5.978,23.294-7.374" transform="translate(-1557.713 -2319.194)" fill="none" stroke="#e26371" stroke-linecap="round" stroke-linejoin="round" stroke-width="1"/>
          <path id="Path_1866" data-name="Path 1866" d="M1554.89,2372.11a12.625,12.625,0,0,0-1.9-4.589c-1.628-2.564-4.437.529-3.663,3.908s2.686,2.767,2.239,7.774,2.605,6.065,3.7,6.105,1.995-1.872,4.618-4.4c-3.926-.6-3.211-6.018-1.426-8.4-2.256.058-4.006-.187-5.106-1.407" transform="translate(-1548.318 -2326.573)" fill="none" stroke="#e26371" stroke-linecap="round" stroke-linejoin="round" stroke-width="1"/>
          <path id="Path_1867" data-name="Path 1867" d="M1550.459,2366.767c-1.855.316-2.252.913-2.593,2.475a9.514,9.514,0,0,0,1.59,6.5c1.476,2.271-.382,1.59-.347,5.167s1.994,5.791,4.151,5.791a2.592,2.592,0,0,0,2.6-1.918" transform="translate(-1547.76 -2326.648)" fill="none" stroke="#e26371" stroke-linecap="round" stroke-linejoin="round" stroke-width="1"/>
          <line id="Line_195" data-name="Line 195" x1="5.862" y2="1.875" transform="translate(9.803 44.58)" fill="none" stroke="#e26371" stroke-linecap="round" stroke-linejoin="round" stroke-width="1"/>
          <line id="Line_196" data-name="Line 196" x1="6.115" y2="3.551" transform="translate(11.055 50.671)" fill="none" stroke="#e26371" stroke-linecap="round" stroke-linejoin="round" stroke-width="1"/>
          <path id="Path_1868" data-name="Path 1868" d="M1618.4,2379.922c-6.4,10.058-7.7,13.625-5,15.41s7.609,1.1,7.609,1.1a17.673,17.673,0,0,0,6.98-3.352" transform="translate(-1572.748 -2331.76)" fill="none" stroke="#e26371" stroke-linecap="round" stroke-linejoin="round" stroke-width="1"/>
          <path id="Path_1869" data-name="Path 1869" d="M1614.443,2362.666c-.722,6.262-.059,8.645,4.258,11.375" transform="translate(-1573.573 -2325.054)" fill="none" stroke="#e26371" stroke-linecap="round" stroke-linejoin="round" stroke-width="1"/>
          <path id="Path_1870" data-name="Path 1870" d="M1613.412,2382.856c-4.252-8.082-6.555-7.776-6.555-7.776" transform="translate(-1570.722 -2329.877)" fill="none" stroke="#e26371" stroke-linecap="round" stroke-linejoin="round" stroke-width="1"/>
          <path id="Path_1871" data-name="Path 1871" d="M1592.12,2379.539c-1.7,8.43.214,13.238,7.881,23.4,7,9.279,8.193,10.129,11.139,11.4a5.718,5.718,0,0,0,5.322-.407" transform="translate(-1564.773 -2331.611)" fill="none" stroke="#e26371" stroke-linecap="round" stroke-linejoin="round" stroke-width="1"/>
          <path id="Path_1872" data-name="Path 1872" d="M1650.275,2316.27c.5-2.274.1-2.584-1.376-3.739-.547-.429-1.287.159-1.425.722-.507,2.074-.686,2.209-2.01,2.025s1.349-5.913-1-5.885-5.367-5.289,1.6-7.4c6.093-1.843,12.322-.655,14.281,3.407a5.73,5.73,0,0,1,.346,4.846" transform="translate(-1584.282 -2301.153)" fill="none" stroke="#e26371" stroke-linecap="round" stroke-linejoin="round" stroke-width="1"/>
          <path id="Path_1873" data-name="Path 1873" d="M1631.312,2397.5a6.975,6.975,0,0,1-1.573,2.412" transform="translate(-1579.613 -2338.588)" fill="none" stroke="#e26371" stroke-linecap="round" stroke-linejoin="round" stroke-width="1"/>
        </g>
        <g id="Group_539" data-name="Group 539" transform="translate(29.238)">
          <path id="Path_1874" data-name="Path 1874" d="M1663.525,2379.489l9.639-5.571a5.264,5.264,0,0,0,2.63-4.558v-2.784c0-20.378,10.074-29.607,10.074-58.221v-1.261a2.632,2.632,0,0,0-3.949-2.279l-28.68,16.574a5.265,5.265,0,0,0-2.63,4.559v2.784c0,28.614-10.074,37.844-10.074,58.221v1.26a2.632,2.632,0,0,0,3.949,2.279l13.931-8.051" transform="translate(-1613.046 -2301.547)" fill="none" stroke="#666668" stroke-linecap="round" stroke-linejoin="round" stroke-width="1"/>
          <path id="Path_1875" data-name="Path 1875" d="M1632.631,2424.293a59.03,59.03,0,0,0-.334,6.312v1.26a2.607,2.607,0,0,0,1.271,2.253" transform="translate(-1609.845 -2348.11)" fill="none" stroke="#666668" stroke-linecap="round" stroke-linejoin="round" stroke-width="1"/>
          <path id="Path_1876" data-name="Path 1876" d="M1677.461,2300.054a2.606,2.606,0,0,0-2.633,0l-28.679,16.574a5.265,5.265,0,0,0-2.63,4.558v2.784c0,21.879-5.495,32.28-8.268,45.142" transform="translate(-1610.993 -2299.697)" fill="none" stroke="#666668" stroke-linecap="round" stroke-linejoin="round" stroke-width="1"/>
          <line id="Line_197" data-name="Line 197" x1="5.37" y1="3.131" transform="translate(66.437 0.339)" fill="none" stroke="#666668" stroke-linecap="round" stroke-linejoin="round" stroke-width="1"/>
          <line id="Line_198" data-name="Line 198" x1="5.074" y1="2.934" transform="translate(23.723 86.007)" fill="none" stroke="#666668" stroke-linecap="round" stroke-linejoin="round" stroke-width="1"/>
          <path id="Path_1877" data-name="Path 1877" d="M1640.947,2434.507l-12.513,7.23a5.267,5.267,0,0,1-5.269,0l-25.218-14.574a1.579,1.579,0,0,0-2.37,1.367v.351a4.739,4.739,0,0,0,2.367,4.1l25.22,14.576a5.267,5.267,0,0,0,5.269,0l24.043-13.9,3.872-2.233a3.949,3.949,0,0,0,1.973-3.419v-4.547" transform="translate(-1595.577 -2347.788)" fill="none" stroke="#666668" stroke-linecap="round" stroke-linejoin="round" stroke-width="1"/>
          <path id="Path_1878" data-name="Path 1878" d="M1687.161,2418.6l2.276,1.316a1.843,1.843,0,0,1,0,3.191l-11.419,6.6" transform="translate(-1627.61 -2345.898)" fill="none" stroke="#666668" stroke-linecap="round" stroke-linejoin="round" stroke-width="1"/>
          <line id="Line_199" data-name="Line 199" y1="4.275" x2="7.398" transform="translate(0.79 75.098)" fill="none" stroke="#666668" stroke-linecap="round" stroke-linejoin="round" stroke-width="1"/>
          <path id="Path_1879" data-name="Path 1879" d="M1603.5,2408.553a2.619,2.619,0,0,0-.279,1.189v8.347a7.9,7.9,0,0,0,3.946,6.838l14.92,8.658a2.633,2.633,0,0,0,3.95-2.28v-8.347a7.9,7.9,0,0,0-2.495-5.761" transform="translate(-1598.547 -2341.994)" fill="none" stroke="#666668" stroke-linecap="round" stroke-linejoin="round" stroke-width="1"/>
          <path id="Path_1880" data-name="Path 1880" d="M1692.971,2415.493a2.625,2.625,0,0,0,3.2-2.635V2410.6" transform="translate(-1633.42 -2342.791)" fill="none" stroke="#666668" stroke-linecap="round" stroke-linejoin="round" stroke-width="1"/>
          <path id="Path_1881" data-name="Path 1881" d="M1598.236,2403.632a1.826,1.826,0,0,0,.92,1.618l18.325,10.591a3.162,3.162,0,0,0,3.161,0l2.273-1.314a.781.781,0,0,0,.395-.684v-2.106" transform="translate(-1596.61 -2340.082)" fill="none" stroke="#666668" stroke-linecap="round" stroke-linejoin="round" stroke-width="1"/>
          <path id="Path_1882" data-name="Path 1882" d="M1614.653,2402.963l8.263,5.281a.79.79,0,0,1,0,1.367l-2.273,1.314a3.161,3.161,0,0,1-3.161,0l-18.326-10.591a1.843,1.843,0,0,1,0-3.191l.432-.249a3.683,3.683,0,0,1,3.688,0l3.417,1.975" transform="translate(-1596.61 -2337.271)" fill="none" stroke="#666668" stroke-linecap="round" stroke-linejoin="round" stroke-width="1"/>
          <line id="Line_200" data-name="Line 200" x1="0.015" y2="2.317" transform="translate(1.625 61.233)" fill="none" stroke="#666668" stroke-linecap="round" stroke-linejoin="round" stroke-width="1"/>
          <g id="Group_537" data-name="Group 537" transform="translate(44.616 60.228)">
            <path id="Path_1883" data-name="Path 1883" d="M1674.173,2398.582a5.282,5.282,0,0,0-2.457,3.216,63.733,63.733,0,0,0-2.416,17.067v10.75a1.551,1.551,0,0,1-.753,1.33h0l3.561-2.058,1.391-.814a1.694,1.694,0,0,0,.838-1.462v-7.745a65.378,65.378,0,0,1,2.761-18.329,1.842,1.842,0,0,0-2.7-2.084Z" transform="translate(-1668.546 -2398.198)" fill="none" stroke="#666668" stroke-linecap="round" stroke-linejoin="round" stroke-width="1"/>
          </g>
          <path id="Path_1884" data-name="Path 1884" d="M1649.691,2469.555v4.837c0,.8-1.128,1.455-2.518,1.455s-2.518-.652-2.518-1.455v-4.837" transform="translate(-1614.646 -2365.697)" fill="none" stroke="#666668" stroke-linecap="round" stroke-linejoin="round" stroke-width="1"/>
          <ellipse id="Ellipse_57" data-name="Ellipse 57" cx="2.518" cy="1.456" rx="2.518" ry="1.456" transform="translate(30.007 102.402)" fill="none" stroke="#666668" stroke-linecap="round" stroke-linejoin="round" stroke-width="1"/>
          <g id="Group_538" data-name="Group 538" transform="translate(31.605 99.545)">
            <path id="Path_1885" data-name="Path 1885" d="M1648.188,2466.946c-.509,0-.922-.233-.922-.521v-3.4c0-.287.413-.521.922-.521s.921.234.921.521v3.4C1649.109,2466.713,1648.7,2466.946,1648.188,2466.946Z" transform="translate(-1647.266 -2462.501)" fill="none" stroke="#666668" stroke-linecap="round" stroke-linejoin="round" stroke-width="1"/>
          </g>
          <line id="Line_201" data-name="Line 201" x1="1.051" y2="2.738" transform="translate(31.605 99.88)" fill="none" stroke="#666668" stroke-linecap="round" stroke-linejoin="round" stroke-width="1"/>
          <path id="Path_1886" data-name="Path 1886" d="M1634.979,2468.282l1.1-7.028v-2.632l-1.4,8.941c-.113.718.935,1.323,2.179,1.258l22.628-1.181c1.657-.086,2.046,1.307.424,1.515l-22.165,2.836c-1.219.156-1.885.914-1.387,1.578l9.073,12.068c.664.883-1.509,1.52-2.361.692l-11.654-11.312a2.971,2.971,0,0,0-3.036-.283l-17.021,8.639c-1.246.632-2.979-.368-1.884-1.087l14.963-9.828c.823-.54.587-1.382-.49-1.752l-19.592-6.729c-1.434-.493-.332-1.748,1.2-1.364l20.9,5.239a3.081,3.081,0,0,0,2.282-.289" transform="translate(-1598.729 -2361.449)" fill="none" stroke="#666668" stroke-linecap="round" stroke-linejoin="round" stroke-width="1"/>
          <path id="Path_1887" data-name="Path 1887" d="M1658.551,2482.722a3.021,3.021,0,0,1,.511-.108l22.165-2.837c.609-.077.934-.322,1.016-.593" transform="translate(-1620.046 -2369.439)" fill="none" stroke="#666668" stroke-linecap="round" stroke-linejoin="round" stroke-width="1"/>
          <path id="Path_1888" data-name="Path 1888" d="M1612.591,2497.07c-.123.616,1.211,1.179,2.223.666l17.021-8.639a2.973,2.973,0,0,1,3.036.283l11.654,11.312c.734.713,2.447.34,2.485-.341" transform="translate(-1602.185 -2373.179)" fill="none" stroke="#666668" stroke-linecap="round" stroke-linejoin="round" stroke-width="1"/>
          <path id="Path_1889" data-name="Path 1889" d="M1603.7,2470.461c-.064.272.117.564.654.749l19.035,6.537" transform="translate(-1598.729 -2366.049)" fill="none" stroke="#666668" stroke-linecap="round" stroke-linejoin="round" stroke-width="1"/>
          <line id="Line_202" data-name="Line 202" y2="2.647" transform="translate(46.825 124.524)" fill="none" stroke="#666668" stroke-linecap="round" stroke-linejoin="round" stroke-width="1"/>
          <line id="Line_203" data-name="Line 203" y2="2.6" transform="translate(62.218 107.084)" fill="none" stroke="#666668" stroke-linecap="round" stroke-linejoin="round" stroke-width="1"/>
          <line id="Line_204" data-name="Line 204" y2="2.61" transform="translate(10.399 121.344)" fill="none" stroke="#666668" stroke-linecap="round" stroke-linejoin="round" stroke-width="1"/>
          <line id="Line_205" data-name="Line 205" y1="2.463" transform="translate(4.969 101.969)" fill="none" stroke="#666668" stroke-linecap="round" stroke-linejoin="round" stroke-width="1"/>
        </g>
      </g>
    </g>
    <g id="Group_542" data-name="Group 542">
      <path id="Path_1890" data-name="Path 1890" d="M1562.549,2221.607a4.309,4.309,0,0,1,2.883.431h0c1.078.622,1.2,1.564.262,2.1l-152.48,87.656a4.045,4.045,0,0,1-3.641-.151h0c-1.078-.622-1.195-1.563-.262-2.1l3.546-2.048" transform="translate(-1408.681 -2117.633)" fill="none" stroke="#666668" stroke-linecap="round" stroke-linejoin="round" stroke-width="1"/>
      <path id="Path_1891" data-name="Path 1891" d="M1565.694,2054.229l-152.48,87.655a4.048,4.048,0,0,1-3.641-.151h0c-1.078-.622-1.195-1.563-.262-2.1l3.546-2.046,148.934-85.608a2.6,2.6,0,0,1,.758-.281,4.3,4.3,0,0,1,2.883.432h0C1566.51,2052.749,1566.627,2053.69,1565.694,2054.229Z" transform="translate(-1408.681 -2051.612)" fill="none" stroke="#666668" stroke-linecap="round" stroke-linejoin="round" stroke-width="1"/>
      <path id="Path_1892" data-name="Path 1892" d="M1565.2,2058.861v101.193L1415.51,2246.1V2144.866" transform="translate(-1411.334 -2054.429)" fill="none" stroke="#666668" stroke-linecap="round" stroke-linejoin="round" stroke-width="1"/>
      <path id="Path_1893" data-name="Path 1893" d="M1442.584,2279.193l-9.278,5.356c-.934.54-1.7-.038-1.7-1.283V2261.1a4.082,4.082,0,0,1,1.7-3.244l9.278-5.357c.934-.538,1.7.039,1.7,1.284v22.17A4.08,4.08,0,0,1,1442.584,2279.193Z" transform="translate(-1417.59 -2129.589)" fill="#666668" stroke="#707070" stroke-width="1"/>
      <path id="Path_1894" data-name="Path 1894" d="M1468.819,2246.039l-7.351,4.243c-1.463.845-2.661-.06-2.661-2.012v-48.377a6.4,6.4,0,0,1,2.661-5.084l7.351-4.244c1.464-.845,2.661.06,2.661,2.011v48.377A6.4,6.4,0,0,1,1468.819,2246.039Z" transform="translate(-1428.158 -2105.48)" fill="#666668" stroke="#707070" stroke-width="1"/>
      <path id="Path_1895" data-name="Path 1895" d="M1496.088,2232.441l-7.491,4.325c-1.425.823-2.591-.059-2.591-1.959v-45.155a6.227,6.227,0,0,1,2.591-4.95l7.491-4.325c1.425-.822,2.591.059,2.591,1.959v45.156A6.227,6.227,0,0,1,1496.088,2232.441Z" transform="translate(-1438.726 -2101.525)" fill="#666668" stroke="#707070" stroke-width="1"/>
      <path id="Path_1896" data-name="Path 1896" d="M1522.916,2216.607l-6.75,3.9c-1.628.94-2.961-.067-2.961-2.239v-44.879a7.12,7.12,0,0,1,2.961-5.658l6.75-3.9c1.629-.94,2.961.067,2.961,2.239v44.879A7.116,7.116,0,0,1,1522.916,2216.607Z" transform="translate(-1449.294 -2095.079)" fill="#666668" stroke="#707070" stroke-width="1"/>
      <path id="Path_1897" data-name="Path 1897" d="M1551.193,2212.662l-8.909,5.143c-1.035.6-1.882-.042-1.882-1.422V2188.6a4.521,4.521,0,0,1,1.882-3.595l8.909-5.145c1.035-.6,1.882.043,1.882,1.423v27.783A4.525,4.525,0,0,1,1551.193,2212.662Z" transform="translate(-1459.862 -2101.357)" fill="#666668" stroke="#707070" stroke-width="1"/>
      <path id="Path_1898" data-name="Path 1898" d="M1577.535,2192.482l-7.2,4.154c-1.506.869-2.739-.062-2.739-2.07v-33.713a6.583,6.583,0,0,1,2.739-5.233l7.2-4.154c1.507-.87,2.739.061,2.739,2.07v33.712A6.583,6.583,0,0,1,1577.535,2192.482Z" transform="translate(-1470.431 -2090.284)" fill="#666668" stroke="#707070" stroke-width="1"/>
      <path id="Path_1899" data-name="Path 1899" d="M1604.972,2183.934l-7.673,4.43c-1.375.794-2.5-.056-2.5-1.89V2163.71a6.008,6.008,0,0,1,2.5-4.776l7.673-4.43c1.375-.795,2.5.056,2.5,1.89v22.763A6.008,6.008,0,0,1,1604.972,2183.934Z" transform="translate(-1480.999 -2091.476)" fill="#666668" stroke="#707070" stroke-width="1"/>
      <path id="Path_1900" data-name="Path 1900" d="M1632.636,2180.24l-8.6,4.967c-1.119.646-2.035-.046-2.035-1.539v-4.47a4.892,4.892,0,0,1,2.035-3.888l8.6-4.967c1.119-.646,2.035.046,2.035,1.538v4.471A4.892,4.892,0,0,1,1632.636,2180.24Z" transform="translate(-1491.567 -2097.651)" fill="#666668" stroke="#707070" stroke-width="1"/>
      <path id="Path_1901" data-name="Path 1901" d="M1476.088,2278.911l-43.025,24.84c-.8.464-1.454-.029-1.454-1.1h0a3.483,3.483,0,0,1,1.454-2.779l43.025-24.84c.8-.463,1.455.029,1.455,1.1h0A3.483,3.483,0,0,1,1476.088,2278.911Z" transform="translate(-1417.59 -2138.356)" fill="#666668" stroke="#707070" stroke-width="1"/>
      <path id="Path_1902" data-name="Path 1902" d="M1557.683,2231.8l-43.025,24.841c-.8.463-1.455-.029-1.455-1.1h0a3.482,3.482,0,0,1,1.455-2.779l43.025-24.841c.8-.464,1.454.029,1.454,1.1h0A3.484,3.484,0,0,1,1557.683,2231.8Z" transform="translate(-1449.294 -2120.052)" fill="#666668" stroke="#707070" stroke-width="1"/>
      <path id="Path_1903" data-name="Path 1903" d="M1622.648,2200.4l-26.394,15.239c-.8.464-1.455-.029-1.455-1.1h0a3.482,3.482,0,0,1,1.455-2.779l26.394-15.239c.8-.463,1.455.029,1.455,1.1h0A3.481,3.481,0,0,1,1622.648,2200.4Z" transform="translate(-1480.999 -2107.848)" fill="#666668" stroke="#707070" stroke-width="1"/>
      <path id="Path_1904" data-name="Path 1904" d="M1550.7,2311.553v-21.108l-2.909,1.679v19.428" transform="translate(-1462.733 -2144.413)" fill="none" stroke="#666668" stroke-linecap="round" stroke-linejoin="round" stroke-width="1"/>
      <line id="Line_206" data-name="Line 206" x2="9.162" y2="0.172" transform="translate(90.866 167.322)" fill="none" stroke="#666668" stroke-linecap="round" stroke-linejoin="round" stroke-width="1"/>
      <line id="Line_207" data-name="Line 207" x1="3.794" y1="14.152" transform="translate(87.357 170.396)" fill="none" stroke="#666668" stroke-linecap="round" stroke-linejoin="round" stroke-width="1"/>
      <line id="Line_208" data-name="Line 208" x1="13.405" y2="3.732" transform="translate(68.845 168.427)" fill="none" stroke="#666668" stroke-linecap="round" stroke-linejoin="round" stroke-width="1"/>
      <path id="Path_1905" data-name="Path 1905" d="M1548.835,2322.373a5.478,5.478,0,0,1,1.635.6c1.706.985,1.714,2.577.019,3.555a6.8,6.8,0,0,1-6.158-.011c-1.706-.985-1.714-2.576-.02-3.555a5.411,5.411,0,0,1,1.634-.592" transform="translate(-1460.89 -2156.816)" fill="none" stroke="#666668" stroke-linecap="round" stroke-linejoin="round" stroke-width="1"/>
      <path id="Path_1906" data-name="Path 1906" d="M1547.789,2324.987a.745.745,0,0,0,.429.568,2.274,2.274,0,0,0,2.057,0,.715.715,0,0,0,.422-.593" transform="translate(-1462.732 -2157.826)" fill="none" stroke="#666668" stroke-linecap="round" stroke-linejoin="round" stroke-width="1"/>
      <ellipse id="Ellipse_58" data-name="Ellipse 58" cx="1.289" cy="2.233" rx="1.289" ry="2.233" transform="translate(89.139 186.281) rotate(-89.689)" fill="none" stroke="#666668" stroke-linecap="round" stroke-linejoin="round" stroke-width="1"/>
      <ellipse id="Ellipse_59" data-name="Ellipse 59" cx="1.289" cy="2.233" rx="1.289" ry="2.233" transform="translate(98.149 168.914) rotate(-89.689)" fill="none" stroke="#666668" stroke-linecap="round" stroke-linejoin="round" stroke-width="1"/>
      <ellipse id="Ellipse_60" data-name="Ellipse 60" cx="1.289" cy="2.233" rx="1.289" ry="2.233" transform="translate(66.605 173.436) rotate(-89.689)" fill="none" stroke="#666668" stroke-linecap="round" stroke-linejoin="round" stroke-width="1"/>
    </g>
    <path id="Path_1907" data-name="Path 1907" d="M1515.052,2309.057c-31.4,14.5-51.515,36.839-51.515,61.894,0,43.715,61.244,79.153,136.793,79.153s136.794-35.439,136.794-79.153c0-15.5-7.7-29.967-21.017-42.177" transform="translate(-1429.995 -2151.645)" fill="none" stroke="#666668" stroke-linecap="round" stroke-linejoin="round" stroke-width="1"/>
  </g>
</svg>
