<svg xmlns="http://www.w3.org/2000/svg" width="147" height="33" viewBox="0 0 147 33"><g transform="translate(-2657 -592)"><path d="M-52.56.144a3.754,3.754,0,0,1-2.868-1.176A4.16,4.16,0,0,1-56.532-4a4.16,4.16,0,0,1,1.1-2.964A3.754,3.754,0,0,1-52.56-8.136,3.759,3.759,0,0,1-49.7-6.96,4.147,4.147,0,0,1-48.588-4,4.147,4.147,0,0,1-49.7-1.032,3.759,3.759,0,0,1-52.56.144Zm0-.888a2.7,2.7,0,0,0,2.13-.918A3.4,3.4,0,0,0-49.62-4a3.392,3.392,0,0,0-.81-2.34,2.712,2.712,0,0,0-2.13-.912,2.707,2.707,0,0,0-2.136.912A3.408,3.408,0,0,0-55.5-4a3.413,3.413,0,0,0,.8,2.334A2.7,2.7,0,0,0-52.56-.744ZM-45.108,0h-.9V-5h-1.68V-5.8h4.272V-5h-1.692Zm7.968,0h-1.152L-40.38-2.6l-.96.948V0h-.9V-5.8h.9v3.084L-38.292-5.8h1.14L-39.72-3.168Zm3.924.144a2.291,2.291,0,0,1-1.956-1.02V2.208h-.9v-8h.9v.864a2.4,2.4,0,0,1,.84-.732,2.33,2.33,0,0,1,1.116-.276,2.354,2.354,0,0,1,1.866.822A3.259,3.259,0,0,1-30.636-2.9a3.283,3.283,0,0,1-.714,2.22A2.346,2.346,0,0,1-33.216.144Zm-.228-.8a1.646,1.646,0,0,0,1.356-.63,2.5,2.5,0,0,0,.5-1.614,2.478,2.478,0,0,0-.5-1.608,1.653,1.653,0,0,0-1.356-.624,2.038,2.038,0,0,0-1,.27,1.94,1.94,0,0,0-.726.654V-1.6a1.9,1.9,0,0,0,.726.666A2.038,2.038,0,0,0-33.444-.66ZM-29.208-5.8h.9v2.244h2.172a1.756,1.756,0,0,1,1.344.51,1.776,1.776,0,0,1,.48,1.266A1.764,1.764,0,0,1-24.8-.51,1.76,1.76,0,0,1-26.136,0h-3.072Zm2.976,3.036h-2.076V-.792h2.076a.973.973,0,0,0,.738-.27.99.99,0,0,0,.258-.714.99.99,0,0,0-.258-.714A.973.973,0,0,0-26.232-2.76ZM-22.464,0h-.9V-5.8h.9Zm3.756,0h-.9V-5h-1.68V-5.8h4.272V-5h-1.692Zm2.868-5.8h.9v2.244h2.172a1.756,1.756,0,0,1,1.344.51,1.776,1.776,0,0,1,.48,1.266A1.764,1.764,0,0,1-11.43-.51,1.76,1.76,0,0,1-12.768,0H-15.84Zm2.976,3.036H-14.94V-.792h2.076a.973.973,0,0,0,.738-.27.99.99,0,0,0,.258-.714.99.99,0,0,0-.258-.714A.973.973,0,0,0-12.864-2.76ZM-3.228,0H-6.48V-5.8h3.192a1.683,1.683,0,0,1,1.194.408,1.406,1.406,0,0,1,.438,1.08,1.354,1.354,0,0,1-.27.846,1.3,1.3,0,0,1-.666.474,1.313,1.313,0,0,1,.75.516,1.466,1.466,0,0,1,.306.9,1.508,1.508,0,0,1-.45,1.14A1.719,1.719,0,0,1-3.228,0Zm-.18-.792a.951.951,0,0,0,.684-.24.853.853,0,0,0,.252-.648.888.888,0,0,0-.252-.636.9.9,0,0,0-.684-.264H-5.58V-.792Zm-.036-2.58a.873.873,0,0,0,.636-.222.776.776,0,0,0,.228-.582.807.807,0,0,0-.228-.606A.873.873,0,0,0-3.444-5H-5.58v1.632ZM5.22,0h-.9V-5H2.64V-5.8H6.912V-5H5.22ZM10.7.144A2.843,2.843,0,0,1,8.58-.7a3.014,3.014,0,0,1-.828-2.2,3.055,3.055,0,0,1,.816-2.154,2.664,2.664,0,0,1,2.04-.882,2.531,2.531,0,0,1,2.034.882,3.316,3.316,0,0,1,.75,2.226V-2.6H8.7a2.193,2.193,0,0,0,.624,1.428A1.958,1.958,0,0,0,10.788-.6a2.382,2.382,0,0,0,1.788-.732l.432.588A3.117,3.117,0,0,1,10.7.144Zm1.8-3.408A2.1,2.1,0,0,0,12-4.6,1.72,1.72,0,0,0,10.6-5.2a1.691,1.691,0,0,0-1.362.588A2.19,2.19,0,0,0,8.7-3.264ZM14.16.144V-.6q.408,0,.672-.54a6.37,6.37,0,0,0,.432-1.8L15.636-5.8h4.032V0h-.9V-5h-2.34l-.264,2.172a5.262,5.262,0,0,1-.672,2.286A1.534,1.534,0,0,1,14.16.144Zm9.924,0A2.843,2.843,0,0,1,21.96-.7a3.014,3.014,0,0,1-.828-2.2,3.055,3.055,0,0,1,.816-2.154,2.664,2.664,0,0,1,2.04-.882,2.531,2.531,0,0,1,2.034.882,3.316,3.316,0,0,1,.75,2.226V-2.6H22.08A2.193,2.193,0,0,0,22.7-1.176,1.958,1.958,0,0,0,24.168-.6a2.382,2.382,0,0,0,1.788-.732l.432.588A3.117,3.117,0,0,1,24.084.144Zm1.8-3.408a2.1,2.1,0,0,0-.5-1.338,1.72,1.72,0,0,0-1.4-.594,1.691,1.691,0,0,0-1.362.588,2.19,2.19,0,0,0-.534,1.344Zm4.2-2.676a1.794,1.794,0,0,1,1.584,1.02V-8h.9v3.072a2.171,2.171,0,0,1,.678-.732,1.581,1.581,0,0,1,.894-.276,1.767,1.767,0,0,1,1.512.822A3.793,3.793,0,0,1,36.228-2.9a3.792,3.792,0,0,1-.582,2.22A1.769,1.769,0,0,1,34.14.144a1.768,1.768,0,0,1-1.572-1.02V2.208h-.9V-.864a2.148,2.148,0,0,1-.684.732,1.609,1.609,0,0,1-.9.276,1.767,1.767,0,0,1-1.512-.822A3.793,3.793,0,0,1,28-2.892a3.792,3.792,0,0,1,.582-2.22A1.769,1.769,0,0,1,30.084-5.94Zm.252.8a1.174,1.174,0,0,0-1.044.63,3.061,3.061,0,0,0-.384,1.614,3.029,3.029,0,0,0,.384,1.608,1.176,1.176,0,0,0,1.044.624,1.328,1.328,0,0,0,.78-.264,1.624,1.624,0,0,0,.552-.66V-4.2a1.768,1.768,0,0,0-.564-.666A1.292,1.292,0,0,0,30.336-5.136ZM33.888-.66a1.174,1.174,0,0,0,1.044-.63A3.061,3.061,0,0,0,35.316-2.9a3.029,3.029,0,0,0-.384-1.608,1.176,1.176,0,0,0-1.044-.624,1.292,1.292,0,0,0-.768.27,1.689,1.689,0,0,0-.552.654V-1.6a1.788,1.788,0,0,0,.558.666A1.267,1.267,0,0,0,33.888-.66Zm8.52-.072a2.643,2.643,0,0,1-2.076.876A2.662,2.662,0,0,1,38.25-.732,3.133,3.133,0,0,1,37.464-2.9,3.111,3.111,0,0,1,38.25-5.07a2.67,2.67,0,0,1,2.082-.87,2.67,2.67,0,0,1,2.082.87A3.111,3.111,0,0,1,43.2-2.9,3.119,3.119,0,0,1,42.408-.732Zm-3.492-.576a1.733,1.733,0,0,0,1.416.648,1.693,1.693,0,0,0,1.4-.654,2.488,2.488,0,0,0,.516-1.59,2.463,2.463,0,0,0-.516-1.584,1.7,1.7,0,0,0-1.4-.648,1.709,1.709,0,0,0-1.41.654A2.451,2.451,0,0,0,38.4-2.9,2.513,2.513,0,0,0,38.916-1.308ZM45.564,0h-.9V-5.8h.9v2.412h3.024V-5.8h.9V0h-.9V-2.592H45.564ZM53.9.144A2.843,2.843,0,0,1,51.78-.7a3.014,3.014,0,0,1-.828-2.2,3.055,3.055,0,0,1,.816-2.154,2.664,2.664,0,0,1,2.04-.882,2.531,2.531,0,0,1,2.034.882,3.316,3.316,0,0,1,.75,2.226V-2.6H51.9a2.193,2.193,0,0,0,.624,1.428A1.958,1.958,0,0,0,53.988-.6a2.382,2.382,0,0,0,1.788-.732l.432.588A3.117,3.117,0,0,1,53.9.144Zm1.8-3.408A2.1,2.1,0,0,0,55.2-4.6,1.72,1.72,0,0,0,53.8-5.2a1.691,1.691,0,0,0-1.362.588A2.19,2.19,0,0,0,51.9-3.264Z" transform="translate(2740 612)" fill="#ff3d00"/><g transform="translate(2657 592)" fill="none" stroke="#ff3d00" stroke-width="1"><rect width="147" height="33" rx="16.5" stroke="none"/><rect x="0.5" y="0.5" width="146" height="32" rx="16" fill="none"/></g><path d="M527.742,210.558c0,.387,0,.774,0,1.16a1.069,1.069,0,0,1-1.145,1.127,12.284,12.284,0,0,1-12.036-10.371,15.015,15.015,0,0,1-.146-1.865,1.029,1.029,0,0,1,1.039-1.089q1.249-.025,2.5,0A1.045,1.045,0,0,1,519,200.61a7.6,7.6,0,0,0,.364,2.3,1.132,1.132,0,0,1-.226,1.136c-.371.458-.716.938-1.065,1.413a.194.194,0,0,0,0,.167,8.148,8.148,0,0,0,3.057,3.271c.17.1.345.195.514.3a.139.139,0,0,0,.184-.015q.736-.568,1.477-1.128a1.035,1.035,0,0,1,.987-.161,8.017,8.017,0,0,0,2.339.378,1.062,1.062,0,0,1,1.1.954c.022.241.007.486.008.729C527.743,210.151,527.742,210.355,527.742,210.558Z" transform="translate(2151.734 403.636)" fill="#fe3c00"/></g></svg>