<svg xmlns="http://www.w3.org/2000/svg" width="306.608" height="618.584" viewBox="0 0 306.608 618.584"><g transform="translate(-3854.631 -17.784)"><g transform="translate(3889.239 556.003)" fill="none" stroke="#ff3f00" stroke-width="1"><rect width="235.521" height="39.994" rx="19.997" stroke="none"/><rect x="0.5" y="0.5" width="234.521" height="38.994" rx="19.497" fill="none"/></g><path d="M3949.054-1512.94H3726.215a41.384,41.384,0,0,0-41.384,41.385v534.815a41.385,41.385,0,0,0,41.384,41.384h222.839a41.385,41.385,0,0,0,41.385-41.384v-534.815A41.384,41.384,0,0,0,3949.054-1512.94Zm22.284,576.2a22.284,22.284,0,0,1-22.284,22.284H3726.215a22.284,22.284,0,0,1-22.284-22.284v-534.815a22.284,22.284,0,0,1,22.284-22.284h31.2a3.82,3.82,0,0,1,3.82,3.82v2.547a15.918,15.918,0,0,0,15.917,15.917h120.97a15.919,15.919,0,0,0,15.917-15.917v-2.547a3.819,3.819,0,0,1,3.82-3.82h31.2a22.284,22.284,0,0,1,22.284,22.284Z" transform="translate(170.301 1531.224)" fill="none" stroke="#707070" stroke-miterlimit="10" stroke-width="1"/><line x2="129.57" transform="translate(3942.68 607.189)" opacity="0.2" stroke="#fff" stroke-linecap="round" stroke-width="3" fill="none"/><path d="M-43.4,0a.344.344,0,0,1-.33-.19.405.405,0,0,1-.02-.37l2.94-6.98a.386.386,0,0,1,.38-.27.38.38,0,0,1,.37.27l2.95,6.99a.361.361,0,0,1-.025.37A.365.365,0,0,1-37.46,0a.394.394,0,0,1-.215-.06.437.437,0,0,1-.155-.18l-2.75-6.67h.31L-43.04-.24a.376.376,0,0,1-.145.18A.394.394,0,0,1-43.4,0Zm.66-1.86.3-.67h4.06l.3.67ZM-34.37.05a2.946,2.946,0,0,1-1.06-.18,1.769,1.769,0,0,1-.745-.51,1.18,1.18,0,0,1-.275-.78,1.224,1.224,0,0,1,.2-.69,1.7,1.7,0,0,1,.66-.545A4.9,4.9,0,0,1-34.39-3.05a2.076,2.076,0,0,0,.925-.385.774.774,0,0,0,.255-.595.69.69,0,0,0-.3-.575,1.357,1.357,0,0,0-.83-.225,2.03,2.03,0,0,0-.775.145,1.5,1.5,0,0,0-.585.415.47.47,0,0,1-.25.15.321.321,0,0,1-.24-.03.352.352,0,0,1-.19-.235.3.3,0,0,1,.07-.265,2.085,2.085,0,0,1,.79-.63,2.676,2.676,0,0,1,1.17-.24,2.582,2.582,0,0,1,.98.175,1.477,1.477,0,0,1,.67.515,1.4,1.4,0,0,1,.24.83,1.281,1.281,0,0,1-.4.925,2.69,2.69,0,0,1-1.33.615,3.287,3.287,0,0,0-1.17.43.724.724,0,0,0-.32.6.643.643,0,0,0,.315.585,1.9,1.9,0,0,0,.975.2,3.077,3.077,0,0,0,.9-.12,1.377,1.377,0,0,0,.655-.42.474.474,0,0,1,.24-.145.316.316,0,0,1,.28.075.358.358,0,0,1,.14.25.34.34,0,0,1-.1.26,2.315,2.315,0,0,1-.92.585A3.344,3.344,0,0,1-34.37.05Zm5.98,0a2.854,2.854,0,0,1-1.435-.355,2.553,2.553,0,0,1-.98-.985,2.882,2.882,0,0,1-.355-1.44,3.012,3.012,0,0,1,.335-1.445A2.531,2.531,0,0,1-29.9-5.16a2.558,2.558,0,0,1,1.36-.36,2.492,2.492,0,0,1,1.325.345,2.331,2.331,0,0,1,.875.955,3.025,3.025,0,0,1,.31,1.39.335.335,0,0,1-.1.255.362.362,0,0,1-.26.095h-4.25v-.64h4.33l-.43.31a2.287,2.287,0,0,0-.21-1.04,1.712,1.712,0,0,0-.625-.72,1.748,1.748,0,0,0-.965-.26,1.841,1.841,0,0,0-1,.27,1.8,1.8,0,0,0-.665.745A2.415,2.415,0,0,0-30.44-2.73a2.161,2.161,0,0,0,.265,1.08,1.956,1.956,0,0,0,.725.74,2.055,2.055,0,0,0,1.06.27,2.227,2.227,0,0,0,.725-.125,1.759,1.759,0,0,0,.585-.315.408.408,0,0,1,.25-.095.351.351,0,0,1,.24.075.371.371,0,0,1,.135.26.288.288,0,0,1-.115.24,2.719,2.719,0,0,1-.84.465A2.87,2.87,0,0,1-28.39.05ZM-20.05,0a.389.389,0,0,1-.28-.1.375.375,0,0,1-.11-.285V-5.08a.375.375,0,0,1,.11-.285.389.389,0,0,1,.28-.105.355.355,0,0,1,.27.105.4.4,0,0,1,.1.285V-.39a.4.4,0,0,1-.1.285A.355.355,0,0,1-20.05,0Zm-4.3,0a.372.372,0,0,1-.275-.1.385.385,0,0,1-.1-.285V-5.08a.385.385,0,0,1,.1-.285.372.372,0,0,1,.275-.105.372.372,0,0,1,.275.105.385.385,0,0,1,.1.285V-.39a.385.385,0,0,1-.1.285A.372.372,0,0,1-24.35,0Zm.25-2.41V-3.1h3.93v.69ZM-10.49,0a.389.389,0,0,1-.28-.1.363.363,0,0,1-.11-.275V-3.26a1.629,1.629,0,0,0-.37-1.125A1.215,1.215,0,0,0-12.2-4.8a1.339,1.339,0,0,0-1.015.415,1.5,1.5,0,0,0-.385,1.1h-.69A2.492,2.492,0,0,1-14-4.46a2,2,0,0,1,.77-.79,2.2,2.2,0,0,1,1.11-.28,1.953,1.953,0,0,1,1.045.28,1.9,1.9,0,0,1,.71.79,2.653,2.653,0,0,1,.255,1.2V-.38a.372.372,0,0,1-.1.275A.372.372,0,0,1-10.49,0Zm-7,0a.385.385,0,0,1-.285-.1.372.372,0,0,1-.1-.275v-4.7a.389.389,0,0,1,.1-.28.375.375,0,0,1,.285-.11.363.363,0,0,1,.275.11.389.389,0,0,1,.1.28v4.7a.372.372,0,0,1-.1.275A.372.372,0,0,1-17.49,0Zm3.51,0a.389.389,0,0,1-.28-.1.363.363,0,0,1-.11-.275V-3.26a1.629,1.629,0,0,0-.37-1.125,1.215,1.215,0,0,0-.95-.415,1.372,1.372,0,0,0-1.02.4,1.437,1.437,0,0,0-.4,1.055h-.55a2.54,2.54,0,0,1,.285-1.135,1.983,1.983,0,0,1,.725-.775,1.96,1.96,0,0,1,1.04-.28,1.953,1.953,0,0,1,1.045.28,1.9,1.9,0,0,1,.71.79,2.653,2.653,0,0,1,.255,1.2V-.38A.372.372,0,0,1-13.7-.1.372.372,0,0,1-13.98,0Zm8.01.05A2.7,2.7,0,0,1-7.375-.315a2.648,2.648,0,0,1-.97-.995A2.842,2.842,0,0,1-8.7-2.73a2.963,2.963,0,0,1,.34-1.43,2.6,2.6,0,0,1,.93-1A2.532,2.532,0,0,1-6.07-5.52a2.63,2.63,0,0,1,1.125.24,2.549,2.549,0,0,1,.9.72.275.275,0,0,1,.08.255.4.4,0,0,1-.17.235.306.306,0,0,1-.245.055A.4.4,0,0,1-4.61-4.16a1.861,1.861,0,0,0-1.46-.66,1.8,1.8,0,0,0-.985.27,1.822,1.822,0,0,0-.66.74A2.384,2.384,0,0,0-7.95-2.73,2.243,2.243,0,0,0-7.7-1.66,1.87,1.87,0,0,0-7-.92a1.963,1.963,0,0,0,1.03.27,2.316,2.316,0,0,0,.715-.105A1.609,1.609,0,0,0-4.68-1.08a.441.441,0,0,1,.25-.11.329.329,0,0,1,.24.08.391.391,0,0,1,.135.25.271.271,0,0,1-.1.24A2.59,2.59,0,0,1-5.97.05ZM4.94,0a.389.389,0,0,1-.28-.1A.363.363,0,0,1,4.55-.38V-3.26a1.629,1.629,0,0,0-.37-1.125A1.215,1.215,0,0,0,3.23-4.8a1.339,1.339,0,0,0-1.015.415,1.5,1.5,0,0,0-.385,1.1H1.14a2.492,2.492,0,0,1,.29-1.18,2,2,0,0,1,.77-.79,2.2,2.2,0,0,1,1.11-.28,1.953,1.953,0,0,1,1.045.28,1.9,1.9,0,0,1,.71.79,2.653,2.653,0,0,1,.255,1.2V-.38a.372.372,0,0,1-.1.275A.372.372,0,0,1,4.94,0Zm-7,0a.385.385,0,0,1-.285-.1A.372.372,0,0,1-2.45-.38v-4.7a.389.389,0,0,1,.105-.28.375.375,0,0,1,.285-.11.363.363,0,0,1,.275.11.389.389,0,0,1,.105.28v4.7A.372.372,0,0,1-1.785-.1.372.372,0,0,1-2.06,0ZM1.45,0a.389.389,0,0,1-.28-.1A.363.363,0,0,1,1.06-.38V-3.26A1.629,1.629,0,0,0,.69-4.385,1.215,1.215,0,0,0-.26-4.8a1.372,1.372,0,0,0-1.02.4,1.437,1.437,0,0,0-.4,1.055h-.55a2.54,2.54,0,0,1,.285-1.135A1.983,1.983,0,0,1-1.22-5.25,1.96,1.96,0,0,1-.18-5.53a1.953,1.953,0,0,1,1.045.28,1.9,1.9,0,0,1,.71.79,2.653,2.653,0,0,1,.255,1.2V-.38A.372.372,0,0,1,1.725-.1.372.372,0,0,1,1.45,0ZM7.41,0a.385.385,0,0,1-.285-.1A.385.385,0,0,1,7.02-.39v-4.7a.408.408,0,0,1,.115-.275A.372.372,0,0,1,7.41-5.47a.372.372,0,0,1,.275.105.385.385,0,0,1,.105.285v1.9H9.9v.14a2.154,2.154,0,0,1,.925.19,1.511,1.511,0,0,1,.63.525,1.34,1.34,0,0,1,.225.765,1.465,1.465,0,0,1-.225.81,1.54,1.54,0,0,1-.63.55A2.062,2.062,0,0,1,9.9,0Zm.38-.71H9.9a1.154,1.154,0,0,0,.74-.23.793.793,0,0,0,.29-.66.83.83,0,0,0-.29-.685A1.138,1.138,0,0,0,9.9-2.52H7.79ZM8.91-2.75v-.43H9.9a.753.753,0,0,0,.57-.23A.819.819,0,0,0,10.69-4a.727.727,0,0,0-.235-.545.826.826,0,0,0-.6-.225H7.42v-.7H9.86a1.738,1.738,0,0,1,.815.185,1.441,1.441,0,0,1,.56.505,1.342,1.342,0,0,1,.2.74,1.126,1.126,0,0,1-.435.97A1.816,1.816,0,0,1,9.9-2.75ZM15.48.05a2.83,2.83,0,0,1-1.43-.36,2.615,2.615,0,0,1-.99-.99,2.83,2.83,0,0,1-.36-1.43,2.85,2.85,0,0,1,.36-1.44,2.615,2.615,0,0,1,.99-.99,2.83,2.83,0,0,1,1.43-.36,2.8,2.8,0,0,1,1.425.36,2.625,2.625,0,0,1,.985.99,2.925,2.925,0,0,1,.37,1.44A2.8,2.8,0,0,1,17.9-1.3a2.662,2.662,0,0,1-.99.99A2.8,2.8,0,0,1,15.48.05Zm0-.7a2.016,2.016,0,0,0,1.04-.27,1.92,1.92,0,0,0,.72-.74,2.173,2.173,0,0,0,.26-1.07A2.2,2.2,0,0,0,17.24-3.8a1.911,1.911,0,0,0-.72-.745,2.016,2.016,0,0,0-1.04-.27,2.016,2.016,0,0,0-1.04.27,1.946,1.946,0,0,0-.725.745A2.169,2.169,0,0,0,13.45-2.73a2.141,2.141,0,0,0,.265,1.07,1.956,1.956,0,0,0,.725.74A2.016,2.016,0,0,0,15.48-.65Zm7.7.65a.379.379,0,0,1-.28-.11.379.379,0,0,1-.11-.28V-7.42a.379.379,0,0,1,.11-.28.379.379,0,0,1,.28-.11h2a2.6,2.6,0,0,1,1.31.325,2.319,2.319,0,0,1,.89.895,2.651,2.651,0,0,1,.32,1.32,2.582,2.582,0,0,1-.32,1.295,2.329,2.329,0,0,1-.89.89,2.6,2.6,0,0,1-1.31.325H23.57V-.39a.379.379,0,0,1-.11.28A.379.379,0,0,1,23.18,0Zm.39-3.51h1.61a1.824,1.824,0,0,0,.91-.225,1.609,1.609,0,0,0,.625-.625,1.824,1.824,0,0,0,.225-.91,1.865,1.865,0,0,0-.225-.93,1.644,1.644,0,0,0-.625-.63,1.792,1.792,0,0,0-.91-.23H23.57ZM29.99,0a1.219,1.219,0,0,1-.715-.22,1.446,1.446,0,0,1-.49-.61,2.179,2.179,0,0,1-.175-.9v-5.7a.372.372,0,0,1,.1-.275.372.372,0,0,1,.275-.105.372.372,0,0,1,.275.105.372.372,0,0,1,.1.275v5.7a1.267,1.267,0,0,0,.175.7.517.517,0,0,0,.445.27h.25a.3.3,0,0,1,.24.105.408.408,0,0,1,.09.275.342.342,0,0,1-.125.275.488.488,0,0,1-.325.1Zm3.75.05a2.635,2.635,0,0,1-1.38-.365A2.66,2.66,0,0,1,31.4-1.31a2.842,2.842,0,0,1-.355-1.42,2.8,2.8,0,0,1,.365-1.43,2.689,2.689,0,0,1,1-1,2.78,2.78,0,0,1,1.42-.365,2.753,2.753,0,0,1,1.415.365,2.7,2.7,0,0,1,.99,1A2.874,2.874,0,0,1,36.6-2.73l-.31.24a2.525,2.525,0,0,1-.335,1.3,2.482,2.482,0,0,1-.91.91A2.544,2.544,0,0,1,33.74.05Zm.08-.7a1.989,1.989,0,0,0,1.035-.27,1.958,1.958,0,0,0,.72-.745A2.148,2.148,0,0,0,35.84-2.73a2.141,2.141,0,0,0-.265-1.07,2.006,2.006,0,0,0-.72-.745A1.961,1.961,0,0,0,33.82-4.82a1.969,1.969,0,0,0-1.03.275,2.032,2.032,0,0,0-.73.745,2.109,2.109,0,0,0-.27,1.07,2.117,2.117,0,0,0,.27,1.065,1.983,1.983,0,0,0,.73.745A2,2,0,0,0,33.82-.65ZM36.21,0a.389.389,0,0,1-.28-.1.363.363,0,0,1-.11-.275V-2.09l.19-.79.59.15V-.38a.363.363,0,0,1-.11.275A.389.389,0,0,1,36.21,0Zm6.58,0a.379.379,0,0,1-.28-.11.367.367,0,0,1-.11-.27v-2.6A1.991,1.991,0,0,0,42.165-4a1.5,1.5,0,0,0-.64-.6,2.039,2.039,0,0,0-.915-.2,2.016,2.016,0,0,0-.885.19,1.576,1.576,0,0,0-.625.52,1.28,1.28,0,0,0-.23.75h-.55a2.157,2.157,0,0,1,.34-1.125,2.28,2.28,0,0,1,.85-.78,2.451,2.451,0,0,1,1.18-.285,2.683,2.683,0,0,1,1.27.295,2.166,2.166,0,0,1,.885.865,2.766,2.766,0,0,1,.325,1.39v2.6a.367.367,0,0,1-.11.27A.367.367,0,0,1,42.79,0Zm-4.3,0a.385.385,0,0,1-.285-.1.372.372,0,0,1-.1-.275v-4.7a.385.385,0,0,1,.1-.285.385.385,0,0,1,.285-.105.372.372,0,0,1,.275.105.385.385,0,0,1,.1.285v4.7a.372.372,0,0,1-.1.275A.372.372,0,0,1,38.49,0Z" transform="translate(4004.496 256.092)" fill="#ff3f00"/><g transform="translate(3963.735 152.074)" fill="none" stroke="#ff3d00" stroke-width="1"><circle cx="43.73" cy="43.73" r="43.73" stroke="none"/><circle cx="43.73" cy="43.73" r="43.23" fill="none"/></g><path d="M954.311-732.631,935-766.48a5.569,5.569,0,0,0-4.858-2.837h0a5.569,5.569,0,0,0-4.886,2.788l-8.032,13.752-11.623,19.9a5.732,5.732,0,0,0-.579,1.371c-.015.057-.027.116-.041.173s-.031.122-.044.182a5.572,5.572,0,0,0,.637,3.9,5.566,5.566,0,0,0,4.857,2.837l17.766.089h.012l21.193.108a5.573,5.573,0,0,0,4.886-2.788,5.6,5.6,0,0,0,.766-3.148A5.628,5.628,0,0,0,954.311-732.631Zm-24.192-32.935a1.842,1.842,0,0,1,1.619.945l7.633,13.376a2.242,2.242,0,0,1-.013,2.239L934.8-741.2a1.524,1.524,0,0,1-2.638-.013l-7.934-13.9a2.24,2.24,0,0,1,.012-2.242l4.254-7.284a1.815,1.815,0,0,1,1.307-.9A2.017,2.017,0,0,1,930.119-765.567Z" transform="translate(3077.413 939.821)" fill="#ff3d00"/><path d="M6.73-.87V-7H1.81L1.74-4.75C1.67-2.62,1.44-.93.48-.87H.14L.13,1.53h.93L1.07,0H6.83V1.53h.93V-.87ZM2.62-4.66l.05-1.47H5.74V-.87H1.79C2.39-1.41,2.56-2.95,2.62-4.66ZM11.02.06a2.637,2.637,0,0,0,2.75-2.71,2.629,2.629,0,0,0-2.75-2.7,2.637,2.637,0,0,0-2.76,2.7A2.645,2.645,0,0,0,11.02.06Zm0-.84A1.755,1.755,0,0,1,9.23-2.65a1.747,1.747,0,0,1,1.79-1.86A1.739,1.739,0,0,1,12.8-2.65,1.747,1.747,0,0,1,11.02-.78Zm6.74-4.34a2.43,2.43,0,0,0-2.09,1.07A2.326,2.326,0,0,1,17.8-6.41l2.23-.48-.14-.88-2.42.54c-1.83.4-2.72,1.59-2.72,3.78,0,2.23,1.01,3.53,2.82,3.53a2.553,2.553,0,0,0,2.74-2.62A2.454,2.454,0,0,0,17.76-5.12Zm-.17,4.4a1.7,1.7,0,0,1-1.75-1.79,1.659,1.659,0,0,1,1.75-1.75,1.651,1.651,0,0,1,1.74,1.75A1.688,1.688,0,0,1,17.59-.72Zm5.83-4.63a3.53,3.53,0,0,0-2.19.68l.4.72a2.68,2.68,0,0,1,1.68-.57c.95,0,1.42.47,1.42,1.28v.19H23.21c-1.58,0-2.13.7-2.13,1.55,0,.92.76,1.56,1.96,1.56A1.967,1.967,0,0,0,24.78-.7V0h.91V-3.2C25.69-4.65,24.87-5.35,23.42-5.35ZM23.2-.68c-.73,0-1.17-.33-1.17-.86,0-.45.27-.82,1.22-.82h1.48v.74A1.537,1.537,0,0,1,23.2-.68Zm7.73-2.07a1.233,1.233,0,0,0,.85-1.19c0-.87-.75-1.36-2-1.36H27.32V0h2.55c1.41,0,2.09-.54,2.09-1.46A1.225,1.225,0,0,0,30.93-2.75ZM28.26-4.56H29.7c.73,0,1.12.25,1.12.76s-.39.78-1.12.78H28.26ZM29.8-.74H28.26V-2.33h1.6c.79,0,1.14.26,1.14.81S30.59-.74,29.8-.74ZM33.36,0h.88l3.24-3.86V0h.96V-5.3h-.87L34.32-1.44V-5.3h-.96ZM44.15-5.3H39.31v.84h1.94V0h.96V-4.46h1.94Zm3.33,1.8-1.49-.01V-5.3h-.96V0l2.3.01c1.42.01,2.22-.63,2.22-1.78C49.55-2.86,48.83-3.49,47.48-3.5ZM47.25-.72,45.99-.73V-2.81l1.26.02c.88.01,1.32.31,1.32,1.01S48.12-.71,47.25-.72Z" transform="translate(4080 79)" fill="#ff3d00" opacity="0.701"/><path d="M6.11-7v3.01H2.09V-7h-1V0h1V-3.12H6.11V0h1V-7Zm4.81,1.65a3.53,3.53,0,0,0-2.19.68l.4.72a2.68,2.68,0,0,1,1.68-.57c.95,0,1.42.47,1.42,1.28v.19H10.71c-1.58,0-2.13.7-2.13,1.55,0,.92.76,1.56,1.96,1.56A1.967,1.967,0,0,0,12.28-.7V0h.91V-3.2C13.19-4.65,12.37-5.35,10.92-5.35ZM10.7-.68c-.73,0-1.17-.33-1.17-.86,0-.45.27-.82,1.22-.82h1.48v.74A1.537,1.537,0,0,1,10.7-.68Zm6.9-2.08a1.291,1.291,0,0,0,.96-1.17c0-.86-.95-1.44-2.24-1.44a4.361,4.361,0,0,0-2.03.49l.26.74a3.941,3.941,0,0,1,1.67-.41c.81,0,1.35.28,1.35.76,0,.45-.45.71-1.16.71h-.9v.69h.97c.78,0,1.24.28,1.24.77,0,.54-.59.87-1.49.87a3.555,3.555,0,0,1-1.86-.51l-.29.73a4.067,4.067,0,0,0,2.16.6c1.41,0,2.47-.65,2.47-1.61A1.262,1.262,0,0,0,17.6-2.76Zm4.36-2.59a3.53,3.53,0,0,0-2.19.68l.4.72a2.68,2.68,0,0,1,1.68-.57c.95,0,1.42.47,1.42,1.28v.19H21.75c-1.58,0-2.13.7-2.13,1.55,0,.92.76,1.56,1.96,1.56A1.967,1.967,0,0,0,23.32-.7V0h.91V-3.2C24.23-4.65,23.41-5.35,21.96-5.35ZM21.74-.68c-.73,0-1.17-.33-1.17-.86,0-.45.27-.82,1.22-.82h1.48v.74A1.537,1.537,0,0,1,21.74-.68Zm8.7-.16V-5.3H26.33l-.08,1.79c-.07,1.34-.2,2.63-.96,2.67h-.28V1.23h.91V0h4.43V1.23h.9V-.84Zm-3.31-2.6.05-1.02h2.3V-.84H26.51C26.99-1.26,27.09-2.34,27.13-3.44Z" transform="translate(3922 79)" fill="#ff3d00" opacity="0.701"/></g></svg>