<svg xmlns="http://www.w3.org/2000/svg" width="51.312" height="49.412" viewBox="0 0 51.312 49.412"><g transform="translate(-2918.728 -205.732)"><path d="M-24.276,0h-1V-8h5.244v.888h-4.248v2.58h4.164v.888h-4.164Zm10.092,0h-.9V-.66a2.474,2.474,0,0,1-1.92.8A2.132,2.132,0,0,1-18.42-.372a1.74,1.74,0,0,1-.612-1.4,1.722,1.722,0,0,1,.606-1.41A2.171,2.171,0,0,1-17-3.684a2.4,2.4,0,0,1,1.92.792V-3.936a1.085,1.085,0,0,0-.408-.9,1.647,1.647,0,0,0-1.056-.324,2.363,2.363,0,0,0-1.776.8l-.42-.624a3.081,3.081,0,0,1,2.316-.96,2.583,2.583,0,0,1,1.62.48,1.745,1.745,0,0,1,.624,1.476Zm-2.5-.5a1.831,1.831,0,0,0,1.6-.72V-2.316a1.831,1.831,0,0,0-1.6-.72,1.5,1.5,0,0,0-1.026.354,1.166,1.166,0,0,0-.4.918,1.153,1.153,0,0,0,.4.906A1.5,1.5,0,0,0-16.68-.5Zm6.852.648a2.712,2.712,0,0,1-2.088-.87,3.086,3.086,0,0,1-.8-2.178,3.064,3.064,0,0,1,.8-2.172A2.721,2.721,0,0,1-9.828-5.94,2.542,2.542,0,0,1-7.7-4.932l-.6.552A1.737,1.737,0,0,0-9.78-5.136a1.841,1.841,0,0,0-1.458.624A2.353,2.353,0,0,0-11.784-2.9a2.376,2.376,0,0,0,.546,1.614A1.833,1.833,0,0,0-9.78-.66,1.757,1.757,0,0,0-8.3-1.416l.6.552A2.542,2.542,0,0,1-9.828.144Zm6,0A2.843,2.843,0,0,1-5.952-.7,3.014,3.014,0,0,1-6.78-2.9a3.055,3.055,0,0,1,.816-2.154,2.664,2.664,0,0,1,2.04-.882,2.531,2.531,0,0,1,2.034.882,3.316,3.316,0,0,1,.75,2.226V-2.6H-5.832a2.193,2.193,0,0,0,.624,1.428A1.958,1.958,0,0,0-3.744-.6a2.382,2.382,0,0,0,1.788-.732l.432.588A3.117,3.117,0,0,1-3.828.144Zm1.8-3.408a2.1,2.1,0,0,0-.5-1.338,1.72,1.72,0,0,0-1.4-.594A1.691,1.691,0,0,0-5.3-4.608a2.19,2.19,0,0,0-.534,1.344Zm3.24,1.692a1.9,1.9,0,0,0,.726.648,2.074,2.074,0,0,0,1,.264,1.665,1.665,0,0,0,1.368-.624,2.478,2.478,0,0,0,.5-1.608,2.5,2.5,0,0,0-.5-1.614,1.659,1.659,0,0,0-1.368-.63,2.038,2.038,0,0,0-1,.27,1.9,1.9,0,0,0-.726.666ZM1.212,0h-.9V-8h.9V-4.92A2.331,2.331,0,0,1,3.168-5.94a2.344,2.344,0,0,1,1.86.834,3.27,3.27,0,0,1,.72,2.214A3.259,3.259,0,0,1,5.034-.678,2.354,2.354,0,0,1,3.168.144,2.319,2.319,0,0,1,1.212-.864ZM11.82-.732A2.643,2.643,0,0,1,9.744.144,2.662,2.662,0,0,1,7.662-.732,3.133,3.133,0,0,1,6.876-2.9,3.111,3.111,0,0,1,7.662-5.07a2.67,2.67,0,0,1,2.082-.87,2.67,2.67,0,0,1,2.082.87A3.111,3.111,0,0,1,12.612-2.9,3.119,3.119,0,0,1,11.82-.732ZM8.328-1.308A1.733,1.733,0,0,0,9.744-.66a1.693,1.693,0,0,0,1.4-.654,2.488,2.488,0,0,0,.516-1.59,2.463,2.463,0,0,0-.516-1.584,1.7,1.7,0,0,0-1.4-.648,1.709,1.709,0,0,0-1.41.654A2.451,2.451,0,0,0,7.812-2.9,2.513,2.513,0,0,0,8.328-1.308Zm10.356.576a2.643,2.643,0,0,1-2.076.876,2.662,2.662,0,0,1-2.082-.876A3.133,3.133,0,0,1,13.74-2.9a3.111,3.111,0,0,1,.786-2.166,2.67,2.67,0,0,1,2.082-.87,2.67,2.67,0,0,1,2.082.87A3.111,3.111,0,0,1,19.476-2.9,3.119,3.119,0,0,1,18.684-.732Zm-3.492-.576a1.733,1.733,0,0,0,1.416.648,1.693,1.693,0,0,0,1.4-.654,2.488,2.488,0,0,0,.516-1.59,2.463,2.463,0,0,0-.516-1.584,1.7,1.7,0,0,0-1.4-.648,1.709,1.709,0,0,0-1.41.654A2.451,2.451,0,0,0,14.676-2.9,2.513,2.513,0,0,0,15.192-1.308ZM26.04,0H24.888L22.8-2.6l-.96.948V0h-.9V-8h.9v5.292L24.888-5.8h1.14L23.46-3.168Z" transform="translate(2944 255)" fill="#ff3d00"/><path d="M2391.525,569.825a16.08,16.08,0,1,0-18.61,15.882V574.363h-4v-4.62h4V567.3c0-2.188.215-7.272,5.768-7.272a20.737,20.737,0,0,1,3.795.323v4.017h-2.5c-1.4,0-2.031,1.12-2.031,2.391v2.986h4.411l-.709,4.62h-3.7v11.349A16.084,16.084,0,0,0,2391.525,569.825Z" transform="translate(568.704 -347.513)" fill="none" stroke="#ff3f00" stroke-linecap="round" stroke-linejoin="round" stroke-width="1"/></g></svg>