<svg xmlns="http://www.w3.org/2000/svg" width="154.026" height="95.97" viewBox="0 0 154.026 95.97"><g transform="translate(-1525.987 -490.756)"><g transform="translate(1525.987 490.756)"><path d="M1546.7,498.981a20.419,20.419,0,0,0-20.5,20.295l-.217,42.841a2.041,2.041,0,0,0,4.081.022h0l.217-42.841a16.314,16.314,0,1,1,5.874,12.626,2.04,2.04,0,0,0-2.617,3.129,20.4,20.4,0,1,0,13.16-36.072Z" transform="translate(-1525.987 -476.677)" fill="#ff3d00"/><path d="M1544.929,490.756a2.04,2.04,0,0,0-2.05,2.028l-.3,59.157a2.036,2.036,0,0,0,2.025,2.05h.005a2.038,2.038,0,0,0,2.051-2.028h0l.3-59.158a2.041,2.041,0,0,0-2.028-2.05Z" transform="translate(-1497.582 -490.756)" fill="#ff3d00"/><path d="M1588.3,499.191a20.424,20.424,0,0,0-20.5,20.295l-.092,18.361a2.04,2.04,0,0,0,2.028,2.05h0a2.039,2.039,0,0,0,2.051-2.029h0l.092-18.361a16.32,16.32,0,0,1,32.639.165l-.093,18.359a2.041,2.041,0,0,0,2.026,2.053h.005a2.04,2.04,0,0,0,2.05-2.028v0l.093-18.359A20.422,20.422,0,0,0,1588.3,499.191Z" transform="translate(-1454.573 -476.317)" fill="#ff3d00"/><path d="M1599.551,536l-21.016-36.826a6.052,6.052,0,0,0-5.282-3.086h0a6.057,6.057,0,0,0-5.315,3.032l-8.74,14.964-12.645,21.648a6.222,6.222,0,0,0-.629,1.494c-.016.062-.03.127-.043.187s-.035.127-.049.2a6.131,6.131,0,0,0,5.977,7.327l19.327.1h.014l23.058.117a6.142,6.142,0,0,0,6.15-6.457A6.167,6.167,0,0,0,1599.551,536Zm-26.32-35.831a2,2,0,0,1,1.76,1.025l8.306,14.551a2.432,2.432,0,0,1-.013,2.435l-4.965,8.5a1.653,1.653,0,0,1-2.264.594,1.634,1.634,0,0,1-.6-.61l-8.631-15.129a2.442,2.442,0,0,1,.011-2.435l4.632-7.924a1.966,1.966,0,0,1,1.421-.984A2.159,2.159,0,0,1,1573.231,500.165Z" transform="translate(-1492.227 -481.636)" fill="#ff3d00"/></g><g transform="translate(1544.744 567.006)"><path d="M1535.724,522.967h-1.234v2.72H1532.9V518.9h1.586v2.744h1.272l2.006-2.744h1.7l-2.465,3.265,2.631,3.52h-1.869Z" transform="translate(-1532.904 -518.826)" fill="#79797a"/><path d="M1535.5,522.342a3.616,3.616,0,1,1,3.607,3.482A3.415,3.415,0,0,1,1535.5,522.342Zm5.627,0a2.016,2.016,0,1,0-2.02,2.123A1.974,1.974,0,0,0,1541.123,522.342Z" transform="translate(-1528.467 -518.874)" fill="#79797a"/><path d="M1545.4,525.687v-4.5l-2.283,3.786h-.686l-2.248-3.8v4.51h-1.451V518.9h1.665l2.411,4.244,2.53-4.244h1.486l.013,6.785Z" transform="translate(-1522.925 -518.826)" fill="#79797a"/><path d="M1549.174,525.687v-4.5l-2.286,3.786h-.686l-2.248-3.8v4.51h-1.448V518.9h1.663l2.413,4.244,2.527-4.244h1.486l.013,6.785Z" transform="translate(-1516.468 -518.826)" fill="#79797a"/><path d="M1553.443,518.9l-3.175,7.33c-.624,1.538-1.489,2.007-2.62,2.007a2.815,2.815,0,0,1-1.817-.621l.634-1.169a1.741,1.741,0,0,0,1.172.469c.559,0,.887-.266,1.2-.938l.111-.268-2.959-6.809h1.651l2.134,5.017,2.145-5.017Z" transform="translate(-1510.776 -518.826)" fill="#79797a"/><path d="M1549.042,518.9h1.586v2.758h3.419V518.9h1.587v6.785h-1.587v-2.679h-3.419v2.679h-1.586Z" transform="translate(-1505.28 -518.826)" fill="#79797a"/><path d="M1552.256,518.9h1.589v4.472l3.748-4.472h1.448v6.785h-1.59v-4.472l-3.734,4.472h-1.462Z" transform="translate(-1499.778 -518.826)" fill="#79797a"/><path d="M1558.361,522.967h-1.234v2.72h-1.586V518.9h1.586v2.744h1.272l2.007-2.744h1.7l-2.465,3.265,2.628,3.52h-1.866Z" transform="translate(-1494.155 -518.826)" fill="#79797a"/><path d="M1564.344,521.759v3.976h-1.5v-.827a2.4,2.4,0,0,1-2.131.917c-1.551,0-2.527-.852-2.527-2.034,0-1.131.762-2.02,2.82-2.02h1.752v-.1c0-.927-.558-1.475-1.689-1.475a3.358,3.358,0,0,0-2.058.675l-.621-1.155a4.742,4.742,0,0,1,2.869-.841C1563.212,518.874,1564.344,519.8,1564.344,521.759Zm-1.587,1.855v-.789h-1.638c-1.082,0-1.372.407-1.372.9,0,.572.48.938,1.294.938A1.732,1.732,0,0,0,1562.757,523.614Z" transform="translate(-1489.629 -518.874)" fill="#79797a"/><path d="M1568.623,524.339v2.91h-1.486v-1.562h-5.958V518.9h1.589v5.437h3.238V518.9h1.589v5.437Z" transform="translate(-1484.503 -518.826)" fill="#79797a"/><path d="M1564.44,518.9h1.587v4.472l3.748-4.472h1.448v6.785h-1.587v-4.472l-3.734,4.472h-1.462Z" transform="translate(-1478.922 -518.826)" fill="#79797a"/><path d="M1567.51,522.342a3.616,3.616,0,1,1,3.606,3.482A3.412,3.412,0,0,1,1567.51,522.342Zm5.627,0a2.016,2.016,0,1,0-2.02,2.123A1.975,1.975,0,0,0,1573.137,522.342Z" transform="translate(-1473.667 -518.874)" fill="#79797a"/><path d="M1570.748,518.9h1.586v2.758h3.42V518.9h1.586v6.785h-1.586v-2.679h-3.42v2.679h-1.586Z" transform="translate(-1468.124 -518.826)" fill="#79797a"/><path d="M1573.962,518.9h1.589v2.758h3.417V518.9h1.589v6.785h-1.589v-2.679h-3.417v2.679h-1.589Z" transform="translate(-1462.622 -518.826)" fill="#79797a"/><path d="M1576.961,522.342a3.616,3.616,0,1,1,3.607,3.482A3.414,3.414,0,0,1,1576.961,522.342Zm5.627,0a2.016,2.016,0,1,0-2.02,2.123A1.974,1.974,0,0,0,1582.588,522.342Z" transform="translate(-1457.488 -518.874)" fill="#79797a"/><path d="M1586.9,522.849h-5.323a2.053,2.053,0,0,0,2.2,1.627,2.431,2.431,0,0,0,1.841-.737l.849.979a3.808,3.808,0,0,1-6.478-2.375,3.374,3.374,0,0,1,3.506-3.468,3.309,3.309,0,0,1,3.43,3.506C1586.92,522.508,1586.906,522.7,1586.9,522.849Zm-5.337-1.052h3.848a1.844,1.844,0,0,0-1.917-1.651A1.872,1.872,0,0,0,1581.558,521.8Z" transform="translate(-1452.315 -518.874)" fill="#79797a"/><path d="M1564.6,526.468v3.976h-1.5v-.824a2.4,2.4,0,0,1-2.134.914c-1.548,0-2.527-.852-2.527-2.034,0-1.131.762-2.018,2.82-2.018h1.752v-.1c0-.928-.558-1.473-1.689-1.473a3.379,3.379,0,0,0-2.058.672l-.621-1.155a4.772,4.772,0,0,1,2.869-.841C1563.468,523.583,1564.6,524.513,1564.6,526.468Zm-1.589,1.855v-.786h-1.635c-1.082,0-1.375.4-1.375.9,0,.572.483.941,1.3.941A1.731,1.731,0,0,0,1563.009,528.323Z" transform="translate(-1489.198 -510.813)" fill="#79797a"/><path d="M1566.641,524.957h-3.62v5.437h-1.589v-6.782h5.209Z" transform="translate(-1484.071 -510.764)" fill="#79797a"/><path d="M1570.363,527.561h-5.323a2.051,2.051,0,0,0,2.2,1.624,2.425,2.425,0,0,0,1.841-.735l.852.979a3.81,3.81,0,0,1-6.478-2.378,3.374,3.374,0,0,1,3.5-3.468,3.309,3.309,0,0,1,3.433,3.506C1570.39,527.217,1570.376,527.409,1570.363,527.561Zm-5.337-1.055h3.851a1.846,1.846,0,0,0-1.92-1.652A1.878,1.878,0,0,0,1565.026,526.506Z" transform="translate(-1480.611 -510.813)" fill="#79797a"/><path d="M1566.648,523.612h1.589v2.755h3.417v-2.755h1.589v6.782h-1.589v-2.679h-3.417v2.679h-1.589Z" transform="translate(-1475.142 -510.764)" fill="#79797a"/><path d="M1575.856,524.957h-2.375v5.437h-1.589v-5.437h-2.39v-1.345h6.354Z" transform="translate(-1470.257 -510.764)" fill="#79797a"/><path d="M1571.945,527.051a3.433,3.433,0,0,1,3.672-3.468,3.052,3.052,0,0,1,2.9,1.578l-1.22.711a1.918,1.918,0,0,0-1.689-.941,2.123,2.123,0,0,0,0,4.244,1.918,1.918,0,0,0,1.689-.941l1.22.713a3.086,3.086,0,0,1-2.9,1.586A3.443,3.443,0,0,1,1571.945,527.051Z" transform="translate(-1466.074 -510.813)" fill="#79797a"/><path d="M1580.846,524.957h-2.375v5.437h-1.587v-5.437h-2.389v-1.345h6.351Z" transform="translate(-1461.71 -510.764)" fill="#79797a"/><path d="M1583.433,528.491c0,1.193-.889,1.9-2.72,1.9h-3.452v-6.782h3.314c1.651,0,2.641.635,2.641,1.752a1.643,1.643,0,0,0,.217,3.127Zm-4.661-2.047h1.665c.811,0,1.231-.29,1.231-.849s-.42-.827-1.231-.827h-1.665Zm3.127,1.944c0-.6-.4-.889-1.258-.889h-1.868v1.741h1.814C1581.44,529.239,1581.9,528.971,1581.9,528.387Z" transform="translate(-1456.975 -510.764)" fill="#79797a"/><path d="M1579.941,527.051a3.616,3.616,0,1,1,3.607,3.482A3.417,3.417,0,0,1,1579.941,527.051Zm5.63,0a2.018,2.018,0,1,0-2.023,2.123A1.977,1.977,0,0,0,1585.57,527.051Z" transform="translate(-1452.387 -510.813)" fill="#79797a"/></g></g></svg>