<svg xmlns="http://www.w3.org/2000/svg" width="1063.799" height="299.591" viewBox="0 0 1063.799 299.591">
  <g id="Illustration" transform="translate(-3.498 -19.349)">
    <g id="Group_531" data-name="Group 531" transform="translate(790.377 72.097)">
      <g id="Group_524" data-name="Group 524" transform="translate(0 103.98)">
        <path id="Path_1705" data-name="Path 1705" d="M2492.445,2320.668c-23.583,14.222-38.076,33.528-38.076,54.794,0,43.714,61.245,79.153,136.794,79.153,73.759,0,133.883-33.779,136.69-76.061q.1-1.538.1-3.092" transform="translate(-2454.369 -2312.365)" fill="none" stroke="#666668" stroke-linecap="round" stroke-linejoin="round" stroke-width="1"/>
        <path id="Path_1706" data-name="Path 1706" d="M2539.348,2307.088q-2.931,1.287-5.737,2.661" transform="translate(-2485.159 -2307.088)" fill="none" stroke="#666668" stroke-linecap="round" stroke-linejoin="round" stroke-width="1"/>
      </g>
      <path id="Path_1707" data-name="Path 1707" d="M2584.83,2354.293a13.145,13.145,0,0,1-7.886-1.7" transform="translate(-2501.996 -2220.788)" fill="none" stroke="#666668" stroke-linecap="round" stroke-linejoin="round" stroke-width="1"/>
      <path id="Path_1708" data-name="Path 1708" d="M2678.043,2337.939a133.792,133.792,0,0,0-51.594,2.468" transform="translate(-2521.232 -2214.542)" fill="none" stroke="#666668" stroke-linecap="round" stroke-linejoin="round" stroke-width="1"/>
      <path id="Path_1709" data-name="Path 1709" d="M2717.679,2233.091c-39.287-14.812-89.011-16.679-131.165-5.635" transform="translate(-2505.715 -2169.414)" fill="none" stroke="#666668" stroke-linecap="round" stroke-linejoin="round" stroke-width="1"/>
      <path id="Path_1710" data-name="Path 1710" d="M2827.8,2314.465l37.037,21.384a5.214,5.214,0,0,0,7.771-3.781c2.052-14.637-2.926-29.518-14.944-42.812" transform="translate(-2599.468 -2196.179)" fill="none" stroke="#666668" stroke-linecap="round" stroke-linejoin="round" stroke-width="1"/>
      <line id="Line_175" data-name="Line 175" x2="17.064" y2="9.852" transform="translate(207.036 105.991)" fill="none" stroke="#666668" stroke-linecap="round" stroke-linejoin="round" stroke-width="1"/>
      <path id="Path_1711" data-name="Path 1711" d="M2570.97,2282.894l3.652,2.109a12.994,12.994,0,0,0,12.05.545c22.062-10.463,51.566-13.011,77.141-7.641l.033,0,.075.027q3.1.655,6.125,1.464" transform="translate(-2499.675 -2190.708)" fill="none" stroke="#666668" stroke-linecap="round" stroke-linejoin="round" stroke-width="1"/>
      <path id="Path_1712" data-name="Path 1712" d="M2825.345,2335.887l37.362,21.571a6.111,6.111,0,0,0,9.134-4.622q.1-.928.161-1.857" transform="translate(-2598.515 -2214.298)" fill="none" stroke="#666668" stroke-linecap="round" stroke-linejoin="round" stroke-width="1"/>
      <line id="Line_176" data-name="Line 176" x2="8.002" y2="4.62" transform="translate(213.699 114.008)" fill="none" stroke="#666668" stroke-linecap="round" stroke-linejoin="round" stroke-width="1"/>
      <path id="Path_1713" data-name="Path 1713" d="M2569.471,2289.184l2.233,1.29a18.311,18.311,0,0,0,16.552.9c21.8-9.627,50.227-11.845,74.974-6.649l.033,0,.075.027q2.068.437,4.1.941" transform="translate(-2499.093 -2193.357)" fill="none" stroke="#666668" stroke-linecap="round" stroke-linejoin="round" stroke-width="1"/>
      <path id="Path_1714" data-name="Path 1714" d="M2832.408,2389.175l34.218,19.755a5.214,5.214,0,0,0,7.771-3.78,46.22,46.22,0,0,0,.449-6.525" transform="translate(-2601.259 -2235.004)" fill="none" stroke="#666668" stroke-linecap="round" stroke-linejoin="round" stroke-width="1"/>
      <path id="Path_1715" data-name="Path 1715" d="M2622.283,2335.777a133.08,133.08,0,0,1,54.142-3.15" transform="translate(-2519.614 -2212.478)" fill="none" stroke="#666668" stroke-linecap="round" stroke-linejoin="round" stroke-width="1"/>
      <path id="Path_1716" data-name="Path 1716" d="M2562.948,2339.2l8.557,4.941a13.017,13.017,0,0,0,11.467.8" transform="translate(-2496.558 -2215.584)" fill="none" stroke="#666668" stroke-linecap="round" stroke-linejoin="round" stroke-width="1"/>
      <line id="Line_177" data-name="Line 177" y2="36.174" transform="translate(273.587 130.903)" fill="none" stroke="#666668" stroke-linecap="round" stroke-linejoin="round" stroke-width="1"/>
      <path id="Path_1717" data-name="Path 1717" d="M2875.99,2404.806a46.36,46.36,0,0,1-.447,6.292,5.219,5.219,0,0,1-7.775,3.806l-10.743-6.2-21.674-12.513" transform="translate(-2602.403 -2237.729)" fill="none" stroke="#666668" stroke-linecap="round" stroke-linejoin="round" stroke-width="1"/>
      <line id="Line_178" data-name="Line 178" x1="9.098" y1="5.253" transform="translate(65.849 126.548)" fill="none" stroke="#666668" stroke-linecap="round" stroke-linejoin="round" stroke-width="1"/>
      <g id="Group_525" data-name="Group 525" transform="translate(211.448 18.005)">
        <path id="Path_1718" data-name="Path 1718" d="M2801.884,2219.039l54.762,27.364a1.533,1.533,0,0,0,2.2-1.172l6.272-48.089a3.064,3.064,0,0,0-1.669-3.137l-54.762-27.364a1.532,1.532,0,0,0-2.2,1.173l-6.273,48.088A3.064,3.064,0,0,0,2801.884,2219.039Z" transform="translate(-2800.188 -2166.478)" fill="none" stroke="#666668" stroke-linecap="round" stroke-linejoin="round" stroke-width="1"/>
        <line id="Line_179" data-name="Line 179" x1="58.639" y1="29.301" transform="translate(0.745 43.914)" fill="none" stroke="#666668" stroke-linecap="round" stroke-linejoin="round" stroke-width="1"/>
        <path id="Path_1719" data-name="Path 1719" d="M2845.382,2276.989l13.607,6.8-9.975,5.048a4.085,4.085,0,0,1-3.671.009l-9.952-4.973a1.021,1.021,0,0,1,0-1.825Z" transform="translate(-2813.647 -2209.418)" fill="none" stroke="#666668" stroke-linecap="round" stroke-linejoin="round" stroke-width="1"/>
      </g>
      <g id="Group_527" data-name="Group 527" transform="translate(156.811 61.667)">
        <path id="Path_1720" data-name="Path 1720" d="M2719.168,2301.23a1.568,1.568,0,0,1,1.741-.108l2.591,1.5" transform="translate(-2714.07 -2262.374)" fill="none" stroke="#666668" stroke-linecap="round" stroke-linejoin="round" stroke-width="1"/>
        <path id="Path_1721" data-name="Path 1721" d="M2759.129,2322.686l4.467,2.579a7.892,7.892,0,0,1,3.946,6.835v20.043a1.559,1.559,0,0,1-.64,1.269" transform="translate(-2729.597 -2270.836)" fill="none" stroke="#666668" stroke-linecap="round" stroke-linejoin="round" stroke-width="1"/>
        <line id="Line_180" data-name="Line 180" x1="24.916" y1="14.385" transform="translate(44.991 35.373)" fill="none" stroke="#666668" stroke-linecap="round" stroke-linejoin="round" stroke-width="1"/>
        <path id="Path_1722" data-name="Path 1722" d="M2785.614,2285.6l9-5.2a1.579,1.579,0,0,1,1.579,0l35.937,20.749a.788.788,0,0,1,0,1.366l-11.736,6.777a1.58,1.58,0,0,1-1.579,0l-5.534-3.2" transform="translate(-2739.888 -2254.323)" fill="none" stroke="#666668" stroke-linecap="round" stroke-linejoin="round" stroke-width="1"/>
        <path id="Path_1723" data-name="Path 1723" d="M2830.5,2320.5l5.273,3.045a2.547,2.547,0,0,0,2.547,0l11.252-6.5a.782.782,0,0,0,.4-.684v-.8" transform="translate(-2757.33 -2268.07)" fill="none" stroke="#666668" stroke-linecap="round" stroke-linejoin="round" stroke-width="1"/>
        <line id="Line_181" data-name="Line 181" x2="23.525" y2="13.582" transform="translate(46.138 36.825)" fill="none" stroke="#666668" stroke-linecap="round" stroke-linejoin="round" stroke-width="1"/>
        <path id="Path_1724" data-name="Path 1724" d="M2758.983,2239.49c3.39,2.106,8.315,5.785,6.267,9.642s-4.941,7.472-6.267,5.3-4.218,1.807-2.29,4.338,5.182,8.436,1.325,12.172-5.061,3.495-3.495,6.87-.94,7.834-3.2,8.553-4.806,1.88-5.114,3.369c-5.906-2.979-7.878-.545-14.555-4.962s-6.932-8.833-3.954-15.15,3.492-6.213,7.5-8.833,3.492-4.416,3.543-7.5.206-11.863,7.446-14.174S2756.938,2238.22,2758.983,2239.49Z" transform="translate(-2716.679 -2237.886)" fill="none" stroke="#f1c354" stroke-linecap="round" stroke-linejoin="round" stroke-width="1"/>
        <path id="Path_1725" data-name="Path 1725" d="M2785.994,2258.111c.15,2.518-1.741,4.708-1.791,5.7s.86,3.527-3.327,8.383" transform="translate(-2738.047 -2245.744)" fill="none" stroke="#f1c354" stroke-linecap="round" stroke-linejoin="round" stroke-width="1"/>
        <path id="Path_1726" data-name="Path 1726" d="M2794.385,2331.915c3.965-2.81,4.617-8.675,4.617-9.232s-2.229-4.3-3.1-4.218,1.1,2.187-1.715,7.013-5.284,3.177-3.507,4.666S2793.626,2332.454,2794.385,2331.915Z" transform="translate(-2741.622 -2269.195)" fill="none" stroke="#f1c354" stroke-linecap="round" stroke-linejoin="round" stroke-width="1"/>
        <path id="Path_1727" data-name="Path 1727" d="M2785.792,2330.661c-3.115-.872-5.074-2.248-6.154-3.9A7.543,7.543,0,0,1,2778,2322.3" transform="translate(-2736.929 -2270.685)" fill="none" stroke="#f1c354" stroke-linecap="round" stroke-linejoin="round" stroke-width="1"/>
        <path id="Path_1728" data-name="Path 1728" d="M2779.325,2290.979c4.038,3.378,4.653,4.763,6.076,7.76s5.053,8.7,6.089,9.62" transform="translate(-2737.444 -2258.515)" fill="none" stroke="#f1c354" stroke-linecap="round" stroke-linejoin="round" stroke-width="1"/>
        <path id="Path_1729" data-name="Path 1729" d="M2804.454,2327.188a46.829,46.829,0,0,0,5.027,5.09" transform="translate(-2747.208 -2272.585)" fill="none" stroke="#f1c354" stroke-linecap="round" stroke-linejoin="round" stroke-width="1"/>
        <path id="Path_1730" data-name="Path 1730" d="M2806.137,2324.25c2.153-2.1,6.062-6.233,7.366-8.5s1.331-3.228,1.246-4.378-.307-8.657,3.564-6.33c3.139,1.886,3.8,3.573,1.844,6.543a16.687,16.687,0,0,0-2.683,5.537c-.937,2.469-5.493,14.052-8.985,14.478s-10.7-5.383-10.7-5.383" transform="translate(-2744.621 -2263.807)" fill="none" stroke="#f1c354" stroke-linecap="round" stroke-linejoin="round" stroke-width="1"/>
        <path id="Path_1731" data-name="Path 1731" d="M2780.363,2287.729c5.933.006,9.233-1.967,11.529-2.423s3.135.064,5.714,2.423,1.713,2.359.885,1.965-3.9-2.56-4.884-2.4a12.732,12.732,0,0,0-3.151,1.425c-1.261.623,1.457,1.289,2.284,1.173s1.339,1.3.079,1.065a26.454,26.454,0,0,0-5.081-.276c-2.679,0-5.51.3-5.51.3" transform="translate(-2737.848 -2256.253)" fill="none" stroke="#f1c354" stroke-linecap="round" stroke-linejoin="round" stroke-width="1"/>
        <line id="Line_182" data-name="Line 182" x1="4.494" y2="2.695" transform="translate(32.812 82.575)" fill="none" stroke="#666668" stroke-linecap="round" stroke-linejoin="round" stroke-width="1"/>
        <line id="Line_183" data-name="Line 183" x1="4.394" y2="2.624" transform="translate(0.704 38.857)" fill="none" stroke="#666668" stroke-linecap="round" stroke-linejoin="round" stroke-width="1"/>
        <path id="Path_1732" data-name="Path 1732" d="M2720.281,2354.7l-.17.1c-3.549,2.049-3.935,5.149-.861,6.923l25.978,14.965c3.074,1.775,8.443,1.552,11.992-.5l16.751-9.671c3.328-1.921,3.875-4.765,1.4-6.576" transform="translate(-2713.296 -2283.276)" fill="none" stroke="#666668" stroke-linecap="round" stroke-linejoin="round" stroke-width="1"/>
        <path id="Path_1733" data-name="Path 1733" d="M2717.2,2370.461a3.436,3.436,0,0,0,2.054,3.359l25.978,14.965c3.074,1.774,8.443,1.552,11.992-.5l16.751-9.671c1.956-1.129,2.951-2.577,2.937-3.947" transform="translate(-2713.295 -2289.399)" fill="none" stroke="#666668" stroke-linecap="round" stroke-linejoin="round" stroke-width="1"/>
        <line id="Line_184" data-name="Line 184" y1="5.832" transform="translate(63.612 79.438)" fill="none" stroke="#666668" stroke-linecap="round" stroke-linejoin="round" stroke-width="1"/>
        <line id="Line_185" data-name="Line 185" y1="5.619" transform="translate(3.88 75.676)" fill="none" stroke="#666668" stroke-linecap="round" stroke-linejoin="round" stroke-width="1"/>
        <path id="Path_1734" data-name="Path 1734" d="M2767.234,2409.229v5.506c0,.915-1.283,1.657-2.867,1.657s-2.867-.741-2.867-1.657v-5.506" transform="translate(-2730.518 -2304.463)" fill="none" stroke="#666668" stroke-linecap="round" stroke-linejoin="round" stroke-width="1"/>
        <ellipse id="Ellipse_56" data-name="Ellipse 56" cx="2.867" cy="1.657" rx="2.867" ry="1.657" transform="translate(30.982 103.11)" fill="none" stroke="#666668" stroke-linecap="round" stroke-linejoin="round" stroke-width="1"/>
        <g id="Group_526" data-name="Group 526" transform="translate(32.8 99.971)">
          <path id="Path_1735" data-name="Path 1735" d="M2766.571,2401.866v3.874c0,.327-.469.593-1.049.593s-1.048-.266-1.048-.593v-3.874c0-.2.169-.37.429-.479" transform="translate(-2764.474 -2401.387)" fill="none" stroke="#666668" stroke-linecap="round" stroke-linejoin="round" stroke-width="1"/>
        </g>
        <path id="Path_1736" data-name="Path 1736" d="M2778.621,2411.643l-.192.025-24.795,3.173c-1.388.177-2.146,1.041-1.578,1.8l10.328,13.738c.756,1.005-1.718,1.73-2.689.787l-13.267-12.877a3.383,3.383,0,0,0-3.456-.322L2723.6,2427.8c-1.419.72-3.391-.419-2.145-1.238l17.034-11.187c.937-.615.668-1.574-.558-2l-22.3-7.659c-1.633-.56-.378-1.989,1.364-1.552l23.794,5.963a3.5,3.5,0,0,0,2.6-.329" transform="translate(-2712.398 -2302.463)" fill="none" stroke="#666668" stroke-linecap="round" stroke-linejoin="round" stroke-width="1"/>
        <path id="Path_1737" data-name="Path 1737" d="M2772.9,2409.912l1.2-7.678-1.541,6.846c-.127.818,1.064,1.506,2.481,1.432l25.29-1.32" transform="translate(-2734.811 -2301.745)" fill="none" stroke="#666668" stroke-linecap="round" stroke-linejoin="round" stroke-width="1"/>
        <path id="Path_1738" data-name="Path 1738" d="M2804.292,2420.191c-.093.308-.464.587-1.156.676L2777.9,2424.1a3.416,3.416,0,0,0-.581.124" transform="translate(-2736.666 -2308.722)" fill="none" stroke="#666668" stroke-linecap="round" stroke-linejoin="round" stroke-width="1"/>
        <path id="Path_1739" data-name="Path 1739" d="M2766.459,2444.288c-.043.775-1.993,1.2-2.829.388l-13.267-12.877a3.384,3.384,0,0,0-3.456-.322l-19.377,9.834c-1.152.584-2.67-.057-2.531-.758l-.009-2.783" transform="translate(-2716.333 -2312.981)" fill="none" stroke="#666668" stroke-linecap="round" stroke-linejoin="round" stroke-width="1"/>
        <path id="Path_1740" data-name="Path 1740" d="M2737.293,2416.734l-21.669-7.442c-.612-.21-.818-.542-.745-.852l-.014-2.867" transform="translate(-2712.398 -2303.042)" fill="none" stroke="#666668" stroke-linecap="round" stroke-linejoin="round" stroke-width="1"/>
        <line id="Line_186" data-name="Line 186" y2="3.013" transform="translate(50.126 128.293)" fill="none" stroke="#666668" stroke-linecap="round" stroke-linejoin="round" stroke-width="1"/>
        <line id="Line_187" data-name="Line 187" y2="1.338" transform="translate(69.882 70.253)" fill="none" stroke="#666668" stroke-linecap="round" stroke-linejoin="round" stroke-width="1"/>
        <line id="Line_188" data-name="Line 188" y2="1.338" transform="translate(42.93 81.797)" fill="none" stroke="#666668" stroke-linecap="round" stroke-linejoin="round" stroke-width="1"/>
        <path id="Path_1741" data-name="Path 1741" d="M2726.515,2347.34c2.027,6.828,11.259,11.66,17.3,13.385s10.439.668,11.992-1.046,3.411-3.219,3-5.832a55.737,55.737,0,0,1,2.036-21.964" transform="translate(-2716.924 -2274.409)" fill="none" stroke="#f1c354" stroke-linecap="round" stroke-linejoin="round" stroke-width="1"/>
        <path id="Path_1742" data-name="Path 1742" d="M2802.71,2357.229l2.008-1.839" transform="translate(-2746.531 -2283.543)" fill="none" stroke="#f1c354" stroke-linecap="round" stroke-linejoin="round" stroke-width="1"/>
        <path id="Path_1743" data-name="Path 1743" d="M2726.8,2358.028c1.891,5.307,3.8,7.651,14.093,13.375s15.988,1.6,18.726-.8c.4-.353,1.026-.91,1.8-1.6" transform="translate(-2717.035 -2284.568)" fill="none" stroke="#f1c354" stroke-linecap="round" stroke-linejoin="round" stroke-width="1"/>
        <path id="Path_1744" data-name="Path 1744" d="M2787.9,2339.338c-3.34.032-8.482,4.906-8.482,4.906" transform="translate(-2737.479 -2277.306)" fill="none" stroke="#f1c354" stroke-linecap="round" stroke-linejoin="round" stroke-width="1"/>
        <path id="Path_1745" data-name="Path 1745" d="M2787.322,2337.648a9.954,9.954,0,0,0-5.386-3.415" transform="translate(-2738.459 -2275.323)" fill="none" stroke="#f1c354" stroke-linecap="round" stroke-linejoin="round" stroke-width="1"/>
        <path id="Path_1746" data-name="Path 1746" d="M2814.894,2359c4.569,11.275,13.894,30.75,13.151,33.721s-2.794,5.463-6.555,5.372-5.756.442-8.339-8.273a118.11,118.11,0,0,0-5.436-14.827" transform="translate(-2748.476 -2284.945)" fill="none" stroke="#f1c354" stroke-linecap="round" stroke-linejoin="round" stroke-width="1"/>
        <path id="Path_1747" data-name="Path 1747" d="M2741.936,2349.429l-29.448-17a3.313,3.313,0,0,1-1.658-2.87v-22.685a1.578,1.578,0,0,1,2.367-1.367l29.449,17a3.314,3.314,0,0,1,1.657,2.87v22.685A1.579,1.579,0,0,1,2741.936,2349.429Z" transform="translate(-2710.83 -2264.077)" fill="none" stroke="#666668" stroke-linecap="round" stroke-linejoin="round" stroke-width="1"/>
        <path id="Path_1748" data-name="Path 1748" d="M2807.593,2352.12l-21.986,12.693a2.176,2.176,0,0,1-2.175,0l-1.989-1.148a.8.8,0,0,1,0-1.388l21.986-12.694a2.171,2.171,0,0,1,2.174,0l1.99,1.149A.8.8,0,0,1,2807.593,2352.12Z" transform="translate(-2738.111 -2281.174)" fill="none" stroke="#666668" stroke-linecap="round" stroke-linejoin="round" stroke-width="1"/>
        <path id="Path_1749" data-name="Path 1749" d="M2807.994,2354.971a.793.793,0,0,1-.4.694l-21.986,12.693a2.176,2.176,0,0,1-2.175,0l-1.989-1.149a.794.794,0,0,1-.4-.694" transform="translate(-2738.111 -2283.38)" fill="none" stroke="#666668" stroke-linecap="round" stroke-linejoin="round" stroke-width="1"/>
      </g>
      <g id="Group_528" data-name="Group 528" transform="translate(31.404)">
        <path id="Path_1750" data-name="Path 1750" d="M2543.534,2375.921c-.321,2.127.153,2.361-1.466,3.058a11.881,11.881,0,0,0-5.214,4.927c-1.7,2.758-7.653,5.7-11.453,3.691s-.271-5.708,2.158-7.834,3.3-3.278,4.393-4.13,2.55-2.02,2.55-2.02c-.3,1.313-.555,2.631,2.337,2.546s4.833-1.192,5.666-2.8S2543.72,2374.69,2543.534,2375.921Z" transform="translate(-2512.723 -2228.676)" fill="none" stroke="#edaf5a" stroke-linecap="round" stroke-linejoin="round" stroke-width="1"/>
        <path id="Path_1751" data-name="Path 1751" d="M2563.521,2248.322c.9,7.479,3.044,16.562,2.233,17.775s-7.548,5.626-14.134,3.613-5.775-8.368-3.669-27.176" transform="translate(-2521.546 -2178.025)" fill="none" stroke="#edaf5a" stroke-linecap="round" stroke-linejoin="round" stroke-width="1"/>
        <path id="Path_1752" data-name="Path 1752" d="M2557.713,2215.944c-1.038-2.278-12.634-6.661-16.735-8.548a7.78,7.78,0,0,1-2.23,4.652c-1.806,2.01-.76.954-1.388-.221,0,0-1.379,1.516-.312,2.472s16.355,10.626,21.14,10.676,13.39-22.913,15.334-28.841-.24-5.7-2.77-8.733c-3.135-3.755-4.855-5.971-4.855-5.971" transform="translate(-2517.741 -2154.283)" fill="none" stroke="#edaf5a" stroke-linecap="round" stroke-linejoin="round" stroke-width="1"/>
        <path id="Path_1753" data-name="Path 1753" d="M2576.8,2199.812a28.039,28.039,0,0,0-1.927,4.9c-1.827,6.017-2.523,10.911-5.309,17.357" transform="translate(-2530.535 -2161.425)" fill="none" stroke="#edaf5a" stroke-linecap="round" stroke-linejoin="round" stroke-width="1"/>
        <path id="Path_1754" data-name="Path 1754" d="M2532.748,2222.912c-2.873-2.046-6.111-1.917-7.658-3.365s-1.623-6.528-2.444-8.54,1.478-3.213,2.408-.65,3.107,6.594,4.384,6.4,1.184-1.82,1-3.215-3.4-4.724-2.476-5.442,3.758,1.905,4.644,3.866,1.234,2.019,1.032,3.865a3.058,3.058,0,0,0,1.688,2.8" transform="translate(-2512.235 -2164.597)" fill="none" stroke="#edaf5a" stroke-linecap="round" stroke-linejoin="round" stroke-width="1"/>
        <path id="Path_1755" data-name="Path 1755" d="M2563.157,2260.6a38.2,38.2,0,0,0-7.265.441c.077-1.593,0-3.427,0-3.427" transform="translate(-2525.221 -2183.882)" fill="none" stroke="#edaf5a" stroke-linecap="round" stroke-linejoin="round" stroke-width="1"/>
        <path id="Path_1756" data-name="Path 1756" d="M2561.681,2189.459c1.2-.1,3.8.78,4.351-.053s5.8-10.144,5.8-10.144-.544-1.156-1.9-3.414c-10.059,11.024-15.171,17.859-18.011,31.536" transform="translate(-2523.682 -2152.114)" fill="none" stroke="#edaf5a" stroke-linecap="round" stroke-linejoin="round" stroke-width="1"/>
        <path id="Path_1757" data-name="Path 1757" d="M2563.727,2198.3c.989,2.006,1.607,2.827.28,4.014a35.92,35.92,0,0,0-10.545,14.193" transform="translate(-2524.276 -2160.837)" fill="none" stroke="#edaf5a" stroke-linecap="round" stroke-linejoin="round" stroke-width="1"/>
        <path id="Path_1758" data-name="Path 1758" d="M2570.888,2155.721c1.286-2.321,1.387-4.109-.073-3.362s-1.469,1.8-2.63,1.656-1.721-.033-1.275-2.4.365-4.671-.987-4.779-3.271.829-6.868-.182a3.406,3.406,0,0,1-2.1-5.48c.972-1.305,3.381-5.161,10.485-3.894a8.324,8.324,0,0,1,7.136,9.889A23.987,23.987,0,0,1,2570.888,2155.721Z" transform="translate(-2525.354 -2137.031)" fill="none" stroke="#edaf5a" stroke-linecap="round" stroke-linejoin="round" stroke-width="1"/>
        <path id="Path_1759" data-name="Path 1759" d="M2556.173,2150.643a59.863,59.863,0,0,0-1.312,7.372c-1.243,7.633-.845,12.81,10.77,7.059" transform="translate(-2524.633 -2142.32)" fill="none" stroke="#edaf5a" stroke-linecap="round" stroke-linejoin="round" stroke-width="1"/>
        <path id="Path_1760" data-name="Path 1760" d="M2572.158,2167.6c-.807,1.124-.746,3.908-.746,3.908s-3.369,3.894-7.008,5.44-4.366,1.2-4.366,1.2a6.549,6.549,0,0,1-.39-4.039" transform="translate(-2526.624 -2148.908)" fill="none" stroke="#edaf5a" stroke-linecap="round" stroke-linejoin="round" stroke-width="1"/>
        <path id="Path_1761" data-name="Path 1761" d="M2579.926,2175.671c.054-1.806-.233-1.854-.947-1.713" transform="translate(-2534.191 -2151.36)" fill="none" stroke="#edaf5a" stroke-linecap="round" stroke-linejoin="round" stroke-width="1"/>
        <path id="Path_1762" data-name="Path 1762" d="M2548.338,2181.813c-1.317-2-2.1-1.887-1.493-2.463.625-.6,4.8-5.068,4.8-5.068" transform="translate(-2521.625 -2151.505)" fill="none" stroke="#edaf5a" stroke-linecap="round" stroke-linejoin="round" stroke-width="1"/>
        <path id="Path_1763" data-name="Path 1763" d="M2550.631,2177.377c-4.708,7.208-8.643,16.306-9.872,25.152" transform="translate(-2519.341 -2152.708)" fill="none" stroke="#edaf5a" stroke-linecap="round" stroke-linejoin="round" stroke-width="1"/>
        <path id="Path_1764" data-name="Path 1764" d="M2545.006,2185.209c-2.038.537-2.382.24-2.583,1.835s-2.255,13.824-2.763,16.863" transform="translate(-2518.914 -2155.75)" fill="none" stroke="#edaf5a" stroke-linecap="round" stroke-linejoin="round" stroke-width="1"/>
        <path id="Path_1765" data-name="Path 1765" d="M2559.874,2277.38c-2.558,10.8-4.817,16.533-4.376,23.112s-3.116,20.483-4.617,26.818c-.582,2.235-9.335,3.44-9,.672,1.6-13.247,1.545-17.971.878-31-.583-11.4-1.6-24.242-1.163-32.163" transform="translate(-2519.624 -2186.684)" fill="none" stroke="#edaf5a" stroke-linecap="round" stroke-linejoin="round" stroke-width="1"/>
        <path id="Path_1766" data-name="Path 1766" d="M2552.356,2381.459c-.277,2.081-.022,2.166-1.3,3.013s-2.265,1.57-2.833,1.446a3.436,3.436,0,0,1-1.023-.425" transform="translate(-2521.845 -2232.005)" fill="none" stroke="#edaf5a" stroke-linecap="round" stroke-linejoin="round" stroke-width="1"/>
        <line id="Line_189" data-name="Line 189" x1="0.604" y2="4.797" transform="translate(22.059 142.287)" fill="none" stroke="#edaf5a" stroke-linecap="round" stroke-linejoin="round" stroke-width="1"/>
        <line id="Line_190" data-name="Line 190" x1="0.679" y2="3.651" transform="translate(29.135 141.947)" fill="none" stroke="#edaf5a" stroke-linecap="round" stroke-linejoin="round" stroke-width="1"/>
        <path id="Path_1767" data-name="Path 1767" d="M2531.641,2232.943c-2.739,13.538-1.516,22.948-3.594,24.345s-5.363-2.334-5.318-4.774,1.817-4.472,3.99-11.723a111.975,111.975,0,0,0,2.887-11.379" transform="translate(-2512.335 -2172.926)" fill="none" stroke="#edaf5a" stroke-linecap="round" stroke-linejoin="round" stroke-width="1"/>
        <path id="Path_1768" data-name="Path 1768" d="M2536.495,2315.891c-6.608-7.133-8.9-8.323-11.439-8.643" transform="translate(-2513.239 -2203.17)" fill="none" stroke="#edaf5a" stroke-linecap="round" stroke-linejoin="round" stroke-width="1"/>
        <path id="Path_1769" data-name="Path 1769" d="M2529.751,2300.091c3.789-6.14,7.41-13.655,7.41-13.655" transform="translate(-2515.063 -2195.084)" fill="none" stroke="#edaf5a" stroke-linecap="round" stroke-linejoin="round" stroke-width="1"/>
        <path id="Path_1770" data-name="Path 1770" d="M2517.42,2269.387c-5.129,9.281-7.586,15.066-8.635,22.482s.227,6.426,2.918,7.916a86.413,86.413,0,0,1,9.845,5.962,77.824,77.824,0,0,1,7.746,7.079s.319.527,1.052-.688" transform="translate(-2506.774 -2188.459)" fill="none" stroke="#edaf5a" stroke-linecap="round" stroke-linejoin="round" stroke-width="1"/>
        <path id="Path_1771" data-name="Path 1771" d="M2539.411,2355.8c-2.894.975-4.324-.24-4.917-1.394-.759-1.476.4-3.727,2.723-6.048a12.672,12.672,0,0,0,3.034-4.484" transform="translate(-2516.816 -2217.4)" fill="none" stroke="#edaf5a" stroke-linecap="round" stroke-linejoin="round" stroke-width="1"/>
        <path id="Path_1772" data-name="Path 1772" d="M2542.37,2254.56c-4.628-.893-4.723-1.976-5.518-2.431a5.208,5.208,0,0,1-1.871-1.755" transform="translate(-2517.095 -2181.071)" fill="none" stroke="#edaf5a" stroke-linecap="round" stroke-linejoin="round" stroke-width="1"/>
        <path id="Path_1773" data-name="Path 1773" d="M2558.881,2184.571l1.373,1.307a19.607,19.607,0,0,1-2.749,2.586c-.422.065-2.052-.2-2.215-.751a8.253,8.253,0,0,1,1.031-3.463c.344-.384,1.861-.281,1.861-.281" transform="translate(-2524.978 -2155.264)" fill="none" stroke="#edaf5a" stroke-linecap="round" stroke-linejoin="round" stroke-width="1"/>
        <path id="Path_1774" data-name="Path 1774" d="M2554.8,2191.329s-4.668,6.149-6.484,21.134" transform="translate(-2522.278 -2158.129)" fill="none" stroke="#edaf5a" stroke-linecap="round" stroke-linejoin="round" stroke-width="1"/>
        <path id="Path_1775" data-name="Path 1775" d="M2550.685,2190.855c-4.934,8.823-6.7,12.038-8.73,20.387" transform="translate(-2519.805 -2157.945)" fill="none" stroke="#edaf5a" stroke-linecap="round" stroke-linejoin="round" stroke-width="1"/>
        <path id="Path_1776" data-name="Path 1776" d="M2543.045,2239.211c-.149,1.43.087,1.691-.434,2.164a18.626,18.626,0,0,1-2.875,2.1.617.617,0,0,1-.835-.256c-.833-1.57-1.3-2.434-1.1-3.562.222-1.241.63-3.344.63-3.344" transform="translate(-2518.172 -2175.606)" fill="none" stroke="#edaf5a" stroke-linecap="round" stroke-linejoin="round" stroke-width="1"/>
        <path id="Path_1777" data-name="Path 1777" d="M2540.1,2187.374c-1.917,2.871-2.48,11.437-2.694,15.013" transform="translate(-2518.039 -2156.592)" fill="none" stroke="#edaf5a" stroke-linecap="round" stroke-linejoin="round" stroke-width="1"/>
        <path id="Path_1778" data-name="Path 1778" d="M2553.2,2152.562l-5.338,6.408a1.549,1.549,0,0,0-.179,1.714l1.456,2.766a.606.606,0,0,0,1,.111l1.653-1.946" transform="translate(-2521.962 -2143.066)" fill="none" stroke="#edaf5a" stroke-linecap="round" stroke-linejoin="round" stroke-width="1"/>
        <path id="Path_1779" data-name="Path 1779" d="M2519.735,2178.011c6.464-6.726,7.869-8.3,8.22-9.84s-2.318-4.972-3.614-4.9-10.172,6.442-13.855,10.132-5.5,6.035-4.472,8.1,2.581,4.128,8.112,2.952,10.3-2.529,12.705-4.23" transform="translate(-2505.729 -2147.225)" fill="none" stroke="#edaf5a" stroke-linecap="round" stroke-linejoin="round" stroke-width="1"/>
        <path id="Path_1780" data-name="Path 1780" d="M2546.9,2170.612a13.256,13.256,0,0,0-5.445,1.4" transform="translate(-2519.611 -2150.079)" fill="none" stroke="#edaf5a" stroke-linecap="round" stroke-linejoin="round" stroke-width="1"/>
        <path id="Path_1781" data-name="Path 1781" d="M2553.386,2170.933a5.813,5.813,0,0,0-1.581-.3" transform="translate(-2523.633 -2150.087)" fill="none" stroke="#edaf5a" stroke-linecap="round" stroke-linejoin="round" stroke-width="1"/>
        <path id="Path_1782" data-name="Path 1782" d="M2542.221,2169.658c.994-.9,2.42-1,4.555-.464" transform="translate(-2519.909 -2149.4)" fill="none" stroke="#edaf5a" stroke-linecap="round" stroke-linejoin="round" stroke-width="1"/>
        <path id="Path_1783" data-name="Path 1783" d="M2548.192,2153.882c-4.107.719-4.923.976-6.18,2.62a22.079,22.079,0,0,1-4.093,3.572" transform="translate(-2518.237 -2143.578)" fill="none" stroke="#edaf5a" stroke-linecap="round" stroke-linejoin="round" stroke-width="1"/>
      </g>
      <g id="Group_530" data-name="Group 530" transform="translate(53.551 121.223)">
        <path id="Path_1784" data-name="Path 1784" d="M2564.044,2389.342c-33.221,29.344-22.062,49.955-10.9,68.7s65.891,20.928,82.749-.434" transform="translate(-2541.951 -2356.292)" fill="none" stroke="#666668" stroke-linecap="round" stroke-linejoin="round" stroke-width="1"/>
        <path id="Path_1785" data-name="Path 1785" d="M2639.771,2494.1a36.222,36.222,0,0,0,8.635-1.5" transform="translate(-2579.96 -2396.415)" fill="none" stroke="#666668" stroke-linecap="round" stroke-linejoin="round" stroke-width="1"/>
        <path id="Path_1786" data-name="Path 1786" d="M2576.788,2412.58c-6.651,12.923-2.724,27.31,6.575,37.406" transform="translate(-2554.197 -2365.321)" fill="none" stroke="#666668" stroke-linecap="round" stroke-linejoin="round" stroke-width="1"/>
        <path id="Path_1787" data-name="Path 1787" d="M2656.517,2395.844l6.585-9.125a1.12,1.12,0,0,0-.344-1.622l-13.214-7.711a1.12,1.12,0,0,0-1.471.311l-9.771,13.5" transform="translate(-2579.389 -2351.587)" fill="none" stroke="#666668" stroke-linecap="round" stroke-linejoin="round" stroke-width="1"/>
        <path id="Path_1788" data-name="Path 1788" d="M2654.729,2421.8l-1.737,2.673a.932.932,0,0,1-1.294.27l-1.835-1.213" transform="translate(-2583.881 -2368.903)" fill="none" stroke="#666668" stroke-linecap="round" stroke-linejoin="round" stroke-width="1"/>
        <g id="Group_529" data-name="Group 529" transform="translate(18.414)">
          <path id="Path_1789" data-name="Path 1789" d="M2622.371,2406.089c3.4,8.069,3.822,10.9,5.945,12.033s11.455-1.225,13.026-.832,1.965-5.5,0-5.991-3.143-1.218-8.152.962" transform="translate(-2591.613 -2362.799)" fill="none" stroke="#eeb658" stroke-linecap="round" stroke-linejoin="round" stroke-width="1"/>
          <path id="Path_1790" data-name="Path 1790" d="M2627.679,2382.143c3.52.978,6.648,9.386,8.738,20.332" transform="translate(-2593.676 -2353.495)" fill="none" stroke="#eeb658" stroke-linecap="round" stroke-linejoin="round" stroke-width="1"/>
          <path id="Path_1791" data-name="Path 1791" d="M2595.544,2345.409c-.072-8.1,4.832-9.734,9.844-10.1,5.729-.414,9.121,4.716,9.121,4.716,1.075,1.614-.416,3.39-1.369,4a1.152,1.152,0,0,0-.539.9,9.307,9.307,0,0,1-.381,2.089.263.263,0,0,1-.491.032c-.75-1.682-2.581-.083-2.433,1.911a4.089,4.089,0,0,0,.375,1.572,1.726,1.726,0,0,1-.181,1.924c-3.016,3.53-7.794,5.822-10.9,2.983" transform="translate(-2581.189 -2335.289)" fill="none" stroke="#eeb658" stroke-linecap="round" stroke-linejoin="round" stroke-width="1"/>
          <path id="Path_1792" data-name="Path 1792" d="M2588.638,2354.628c-4.328,1.894,1.67,7.032,2.746,11.083s-2.722,2.469-3.01,8.857c-.23,5.113-6.824,12.463-16.017,6.468a.638.638,0,0,1,.227-1.162c2.34-.411,2.766-1.652,2.9-3.238.166-1.9.662-6.045,4.468-7.407s4.137-5,2.813-8.973-.37-9.475,5.606-8.337" transform="translate(-2572.067 -2341.692)" fill="none" stroke="#eeb658" stroke-linecap="round" stroke-linejoin="round" stroke-width="1"/>
          <path id="Path_1793" data-name="Path 1793" d="M2596.115,2358.2" transform="translate(-2581.411 -2344.189)" fill="none" stroke="#eeb658" stroke-linecap="round" stroke-linejoin="round" stroke-width="1"/>
          <path id="Path_1794" data-name="Path 1794" d="M2585.6,2391.8c4.92,6.535,13.315,6.026,18.064-3.726s6.364-9.247,7.662-9.1c1.255.142-3-6.758-7.407-4.553-3.709,1.855-7.093,8.312-10.305,8.508" transform="translate(-2577.327 -2350.325)" fill="none" stroke="#eeb658" stroke-linecap="round" stroke-linejoin="round" stroke-width="1"/>
          <path id="Path_1795" data-name="Path 1795" d="M2619.525,2349.032c1.311,3.187.2,17.338-8.682,12.324" transform="translate(-2587.134 -2340.629)" fill="none" stroke="#eeb658" stroke-linecap="round" stroke-linejoin="round" stroke-width="1"/>
          <path id="Path_1796" data-name="Path 1796" d="M2611.866,2370.092a19.309,19.309,0,0,0-1.3,5.232" transform="translate(-2587.027 -2348.812)" fill="none" stroke="#eeb658" stroke-linecap="round" stroke-linejoin="round" stroke-width="1"/>
          <path id="Path_1797" data-name="Path 1797" d="M2698.821,2498.154c3.436,2.693,11.187,4.218,11.966,1.742s-1.559-6.556-8.3-6.556-12.837-3.714-13.753.825,4.538,3.209,6.235,3.026S2697.125,2496.823,2698.821,2498.154Z" transform="translate(-2617.359 -2396.145)" fill="none" stroke="#eeb658" stroke-linecap="round" stroke-linejoin="round" stroke-width="1"/>
          <path id="Path_1798" data-name="Path 1798" d="M2709.138,2493.393c-8.064-5.706-10.1-8.017-11.972-5.981s-7.154-.991-8.034,1.486a9.649,9.649,0,0,0-.52,4.5" transform="translate(-2617.323 -2394.115)" fill="none" stroke="#eeb658" stroke-linecap="round" stroke-linejoin="round" stroke-width="1"/>
          <path id="Path_1799" data-name="Path 1799" d="M2607.446,2406.279c.257,3.376-3.063,4.51-1.524,8.478s5.833,7.208,4.334,8.423-3.443,1.053-5.306,3.321-10.286,10.853-15.469,8.747-3.563-3.726-3.968-9.152,1.29-14.124-2.676-22.207" transform="translate(-2576.252 -2361.944)" fill="none" stroke="#eeb658" stroke-linecap="round" stroke-linejoin="round" stroke-width="1"/>
          <path id="Path_1800" data-name="Path 1800" d="M2657.378,2455.525a7.065,7.065,0,0,0,.738,6.885,28.882,28.882,0,0,0,4.549,4.18c1.106-2.643,5.533-3.627,6.762-3.2-1.782-2.766-3.688-6.332-4.18-9.467s-2.766-3.5-7.192-4.857-21.928-7.8-27.335-8.057-6.742-3.68-6.742-3.68" transform="translate(-2592.238 -2374.939)" fill="none" stroke="#eeb658" stroke-linecap="round" stroke-linejoin="round" stroke-width="1"/>
          <path id="Path_1801" data-name="Path 1801" d="M2652.5,2467.94c-14.415,2.018-36.8,2.187-40.012-2.207" transform="translate(-2587.771 -2385.974)" fill="none" stroke="#eeb658" stroke-linecap="round" stroke-linejoin="round" stroke-width="1"/>
          <path id="Path_1802" data-name="Path 1802" d="M2593.979,2466.667c-2.352-2.574-3.417-6.6-1.9-11.994" transform="translate(-2579.569 -2381.677)" fill="none" stroke="#eeb658" stroke-linecap="round" stroke-linejoin="round" stroke-width="1"/>
          <path id="Path_1803" data-name="Path 1803" d="M2622.327,2470.61a13.019,13.019,0,0,1-6.842,5.023" transform="translate(-2588.938 -2387.869)" fill="none" stroke="#eeb658" stroke-linecap="round" stroke-linejoin="round" stroke-width="1"/>
          <path id="Path_1804" data-name="Path 1804" d="M2634.912,2440.185c-4.347-7.807-5.651-6.122-7.233-5.244" transform="translate(-2593.676 -2373.705)" fill="none" stroke="#eeb658" stroke-linecap="round" stroke-linejoin="round" stroke-width="1"/>
          <path id="Path_1805" data-name="Path 1805" d="M2696.658,2479.807a50.553,50.553,0,0,0,4.164,4.5" transform="translate(-2620.478 -2391.443)" fill="none" stroke="#eeb658" stroke-linecap="round" stroke-linejoin="round" stroke-width="1"/>
          <path id="Path_1806" data-name="Path 1806" d="M2687.76,2484.237a12.872,12.872,0,0,1,2.636,2.7" transform="translate(-2617.021 -2393.164)" fill="none" stroke="#eeb658" stroke-linecap="round" stroke-linejoin="round" stroke-width="1"/>
          <path id="Path_1807" data-name="Path 1807" d="M2673.326,2483.26c-.043,3.5-3.472,5.452-7.294,4.113s-7.14-2.969-10.344-2.464-4.272-.8-4.272-2.227.9-3.394,4.834-1.932,8.151.675,10.344.337a12.931,12.931,0,0,1,4.223.109" transform="translate(-2602.899 -2391.609)" fill="none" stroke="#eeb658" stroke-linecap="round" stroke-linejoin="round" stroke-width="1"/>
          <path id="Path_1808" data-name="Path 1808" d="M2669.23,2476.738c-3.909.139-6.214-4.133-8.125-3.853s-1.125,2.586-3.26,2.53-3.092-2.474-4.778.168-1.6,3.778-1.6,3.778" transform="translate(-2602.919 -2388.749)" fill="none" stroke="#eeb658" stroke-linecap="round" stroke-linejoin="round" stroke-width="1"/>
          <path id="Path_1809" data-name="Path 1809" d="M2649.458,2471.394c-1.888,2.917-3.169,2.676-6.979.108" transform="translate(-2599.426 -2388.174)" fill="none" stroke="#eeb658" stroke-linecap="round" stroke-linejoin="round" stroke-width="1"/>
          <path id="Path_1810" data-name="Path 1810" d="M2664.924,2472.267a18.415,18.415,0,0,0-2.365-1.343" transform="translate(-2607.229 -2387.991)" fill="none" stroke="#eeb658" stroke-linecap="round" stroke-linejoin="round" stroke-width="1"/>
          <line id="Line_191" data-name="Line 191" x1="2.388" y1="1.33" transform="translate(49.426 84.276)" fill="none" stroke="#eeb658" stroke-linecap="round" stroke-linejoin="round" stroke-width="1"/>
          <path id="Path_1811" data-name="Path 1811" d="M2637.84,2426.161c10.68,11.349,21.752,7.215,33.159,19.046,5.863,6.082,7.237,12.262,6.4,17.7" transform="translate(-2597.624 -2370.598)" fill="none" stroke="#eeb658" stroke-linecap="round" stroke-linejoin="round" stroke-width="1"/>
          <path id="Path_1812" data-name="Path 1812" d="M2655.45,2415.811c2.5-.143,7.241-5.553,7.624-8.233s-1.149,1.149-3.207,2.345-.335-1.484.766-2.633.718-1.771.191-2.058-2.154,3.063-3.208,3.446-2.527.5-2.347,3.819" transform="translate(-2604.39 -2362.459)" fill="none" stroke="#eeb658" stroke-linecap="round" stroke-linejoin="round" stroke-width="1"/>
        </g>
        <path id="Path_1813" data-name="Path 1813" d="M2574.836,2474c19.679-1.954,35.2,4.924,43.025,17.151" transform="translate(-2554.729 -2389.058)" fill="none" stroke="#666668" stroke-linecap="round" stroke-linejoin="round" stroke-width="1"/>
      </g>
    </g>
    <g id="Group_543" data-name="Group 543" transform="translate(4 19.868)">
      <path id="Path_1814" data-name="Path 1814" d="M1624.208,2281.22c-26.792,1.2-51.419,6.867-71.662,15.714" transform="translate(-1464.581 -2140.828)" fill="none" stroke="#666668" stroke-linecap="round" stroke-linejoin="round" stroke-width="1"/>
      <path id="Path_1815" data-name="Path 1815" d="M1780.557,2296.127c-16.692-6.883-36.168-11.65-57.261-13.627" transform="translate(-1530.927 -2141.325)" fill="none" stroke="#666668" stroke-linecap="round" stroke-linejoin="round" stroke-width="1"/>
      <path id="Path_1816" data-name="Path 1816" d="M1723.265,2282.835c20.26,1.817,39.919,6.266,57.31,13.349" transform="translate(-1530.915 -2141.456)" fill="none" stroke="#666668" stroke-linecap="round" stroke-linejoin="round" stroke-width="1"/>
      <g id="Group_534" data-name="Group 534" transform="translate(203.5 100.913)">
        <g id="Group_532" data-name="Group 532" transform="translate(26.848 18.281)">
          <path id="Path_1817" data-name="Path 1817" d="M1848.387,2246.55c8.518,5.914,5.539,11.594,6.138,20.417,1.3,19.141,5.509,30.633-7.713,38.787s-25.124,13.443-34.171,10.167a52.761,52.761,0,0,1-7.888-3.458" transform="translate(-1792.926 -2246.55)" fill="none" stroke="#666668" stroke-linecap="round" stroke-linejoin="round" stroke-width="1"/>
          <path id="Path_1818" data-name="Path 1818" d="M1801.583,2301.85c3.209-3.035,7.018-4.912,10.5-6.593,4.151-2,6.154-6.891,8.44-13.332" transform="translate(-1791.694 -2260.295)" fill="none" stroke="#666668" stroke-linecap="round" stroke-linejoin="round" stroke-width="1"/>
          <path id="Path_1819" data-name="Path 1819" d="M1840.1,2358.961l-.3,41.665c-.011.5-2.061.5-2.08.006l-.965-40.744" transform="translate(-1805.362 -2290.229)" fill="none" stroke="#666668" stroke-linecap="round" stroke-linejoin="round" stroke-width="1"/>
          <path id="Path_1820" data-name="Path 1820" d="M1866.444,2346.385l14.357,30.551c.367.764,2.173-.067,1.862-.855l-12.953-31.633" transform="translate(-1816.897 -2284.589)" fill="none" stroke="#666668" stroke-linecap="round" stroke-linejoin="round" stroke-width="1"/>
          <path id="Path_1821" data-name="Path 1821" d="M1804.177,2354.017" transform="translate(-1792.702 -2288.307)" fill="none" stroke="#666668" stroke-linecap="round" stroke-linejoin="round" stroke-width="1"/>
          <path id="Path_1822" data-name="Path 1822" d="M1792.587,2380.317l-4.726,9.669c-.553,1.1-2.87.332-2.385-.8l4.966-11.265" transform="translate(-1785.41 -2297.594)" fill="none" stroke="#666668" stroke-linecap="round" stroke-linejoin="round" stroke-width="1"/>
          <line id="Line_193" data-name="Line 193" x1="1.06" y2="2.169" transform="translate(13.627 67.358)" fill="none" stroke="#666668" stroke-linecap="round" stroke-linejoin="round" stroke-width="1"/>
        </g>
        <g id="Group_533" data-name="Group 533">
          <path id="Path_1823" data-name="Path 1823" d="M1860.147,2261.977c6.021,4.684,8.329,8.551,6.824,15.409s-5.52,19.235-9.2,21.243-5.8,4.832-7.052,4.64-1.022-.559-1.022-.559,1.74-.274,1.831-.733-.778-6.225-3.707-5.9c.915-1.19,4.623-3.112,8.742-4.943" transform="translate(-1782.812 -2234.264)" fill="none" stroke="#e4716d" stroke-linecap="round" stroke-linejoin="round" stroke-width="1"/>
          <path id="Path_1824" data-name="Path 1824" d="M1847.176,2229.372c.314,3.86,5.688,7.813,3.022,10.917s7.022.467,8.477-3.141-.837-5.87-1.3-11.068-8.175-13.074-16.828-7.536-9.3,9.693-6.867,14.278c1.778.669,4.085.956,5.557-.132s-.666-1.313,1.812-1.735S1843.534,2231.024,1847.176,2229.372Z" transform="translate(-1776.842 -2216.653)" fill="none" stroke="#e4716d" stroke-linecap="round" stroke-linejoin="round" stroke-width="1"/>
          <path id="Path_1825" data-name="Path 1825" d="M1839.309,2244.068c4.081,10.9,11.233,10.418,14.132,5.892" transform="translate(-1779.505 -2227.305)" fill="none" stroke="#e4716d" stroke-linecap="round" stroke-linejoin="round" stroke-width="1"/>
          <path id="Path_1826" data-name="Path 1826" d="M1835.048,2265.388c-.251,1.5-4.31,1.453-3.859,7.318s3.609,6.816,3.859,12.08-1.253,11.478-5.162,11.628c-.2,2.1,4.26,5.163,4.26,5.163" transform="translate(-1775.841 -2235.589)" fill="none" stroke="#e4716d" stroke-linecap="round" stroke-linejoin="round" stroke-width="1"/>
          <path id="Path_1827" data-name="Path 1827" d="M1865.314,2279.323c-2.206,3.91-4.11,18.8-4.11,18.8" transform="translate(-1788.013 -2241.004)" fill="none" stroke="#e4716d" stroke-linecap="round" stroke-linejoin="round" stroke-width="1"/>
          <path id="Path_1828" data-name="Path 1828" d="M1834.995,2317.739c-4.191,2.706-10.55,7.12-12.275,7.205s-9.563.628-7.591,2.649,4.19,3.007,6.211,1.725,1.528-1.085,4.634-1.429,10.9-3.513,10.9-3.513" transform="translate(-1769.987 -2255.931)" fill="none" stroke="#e4716d" stroke-linecap="round" stroke-linejoin="round" stroke-width="1"/>
          <path id="Path_1829" data-name="Path 1829" d="M1857.825,2320.013c1.007,5.453,1.379,5.7-1.065,6.958s-6.9,1.882-8.907.941a14,14,0,0,0-3.375-1.157" transform="translate(-1781.514 -2256.814)" fill="none" stroke="#e4716d" stroke-linecap="round" stroke-linejoin="round" stroke-width="1"/>
          <path id="Path_1830" data-name="Path 1830" d="M1841.573,2330.087c2.169,4.688,1.542,7.825-7.806,11.839s-23.9,3.576-23.9,3.576c-6.616-.343-7.779-1.312-7.779-1.312" transform="translate(-1765.044 -2260.729)" fill="none" stroke="#e4716d" stroke-linecap="round" stroke-linejoin="round" stroke-width="1"/>
          <path id="Path_1831" data-name="Path 1831" d="M1797.173,2328.374l-2.3-18.182a3.488,3.488,0,0,0-1.152-2.177l-18.688-16.494a.57.57,0,0,0-.94.514l2.94,18.936a3.243,3.243,0,0,0,1.053,1.929l18.052,16.017A.623.623,0,0,0,1797.173,2328.374Z" transform="translate(-1754.164 -2245.687)" fill="none" stroke="#e4716d" stroke-linecap="round" stroke-linejoin="round" stroke-width="1"/>
          <line id="Line_194" data-name="Line 194" x1="4.076" y1="3.098" transform="translate(44.576 66.261)" fill="none" stroke="#e4716d" stroke-linecap="round" stroke-linejoin="round" stroke-width="1"/>
          <path id="Path_1832" data-name="Path 1832" d="M1820.973,2335.237l7.381,5.61a.653.653,0,0,1-.206,1.146l-15.582,4.711a2.192,2.192,0,0,1-2.089-.458l-.322-.285" transform="translate(-1768.178 -2262.73)" fill="none" stroke="#e4716d" stroke-linecap="round" stroke-linejoin="round" stroke-width="1"/>
          <path id="Path_1833" data-name="Path 1833" d="M1836.913,2243.8c1.779,4.1,3.428,5.811,2.323,7.348s.072,2.315,1.566,2.184,4.488-.826,4.488-.826c-4.125,5.736-.5,9.68,3.962,9.8s7.768-6.658,6.127-10.761" transform="translate(-1778.574 -2227.202)" fill="none" stroke="#e4716d" stroke-linecap="round" stroke-linejoin="round" stroke-width="1"/>
          <path id="Path_1834" data-name="Path 1834" d="M1838.775,2255.821c-2.932,3.812-3.053,5.153-3.049,7.387" transform="translate(-1778.113 -2231.872)" fill="none" stroke="#e4716d" stroke-linecap="round" stroke-linejoin="round" stroke-width="1"/>
          <path id="Path_1835" data-name="Path 1835" d="M1832.592,2298c-1.758,2.877-5.175,8.486-5.192,7.767s-.737-4.1-3.9-4.171a15.975,15.975,0,0,1,4.819-5.85" transform="translate(-1773.362 -2247.386)" fill="none" stroke="#e4716d" stroke-linecap="round" stroke-linejoin="round" stroke-width="1"/>
          <path id="Path_1836" data-name="Path 1836" d="M1831.7,2282.029a39.732,39.732,0,0,1-1.817,9.149" transform="translate(-1775.841 -2242.055)" fill="none" stroke="#e4716d" stroke-linecap="round" stroke-linejoin="round" stroke-width="1"/>
          <path id="Path_1837" data-name="Path 1837" d="M1807.375,2314.065a14.776,14.776,0,0,1,4.547-1.459c1.787-2.024,5.311-7.289,5.311-7.289" transform="translate(-1767.097 -2251.104)" fill="none" stroke="#e4716d" stroke-linecap="round" stroke-linejoin="round" stroke-width="1"/>
          <path id="Path_1838" data-name="Path 1838" d="M1821.489,2310.709c-5.074,5.67-9.092,9.837-12.81,9.865" transform="translate(-1767.604 -2253.199)" fill="none" stroke="#e4716d" stroke-linecap="round" stroke-linejoin="round" stroke-width="1"/>
          <path id="Path_1839" data-name="Path 1839" d="M1791.816,2346.177c2.2,3.866,6.271,14.271,3.686,16.21s-4.072,4.653-9.112-.259-5.17-5.817-8.66-5.946-7.82-5.3-5.945-7.238,1.938-4.2,2.584-8.466,2.215-5.273,7.538-6.8" transform="translate(-1753.093 -2262.122)" fill="none" stroke="#e4716d" stroke-linecap="round" stroke-linejoin="round" stroke-width="1"/>
          <path id="Path_1840" data-name="Path 1840" d="M1770.708,2367.681c-6.648,7.354-14.189,20.061-14.189,20.061a1.239,1.239,0,0,1-.542.561,2.216,2.216,0,0,1-2.715-1.62,1.209,1.209,0,0,1,.1-.562q5.694-11.427,11.388-22.855" transform="translate(-1746.07 -2273.621)" fill="none" stroke="#e4716d" stroke-linecap="round" stroke-linejoin="round" stroke-width="1"/>
          <path id="Path_1841" data-name="Path 1841" d="M1805.071,2380.469c.753,1.833,1.593,3.726,2.532,5.665a101.241,101.241,0,0,0,6.516,11.477c.813,1.431-1.466,2.846-2.693,1.6a78.618,78.618,0,0,1-15.467-19" transform="translate(-1762.661 -2280.204)" fill="none" stroke="#e4716d" stroke-linecap="round" stroke-linejoin="round" stroke-width="1"/>
          <path id="Path_1842" data-name="Path 1842" d="M1752.459,2400.992c.986,1.974.192,4.037-4.172,7.29s-8.643,3.945-5.945-1.083,5.25-7.518,6.788-7.661" transform="translate(-1741.501 -2287.714)" fill="none" stroke="#e4716d" stroke-linecap="round" stroke-linejoin="round" stroke-width="1"/>
          <path id="Path_1843" data-name="Path 1843" d="M1821.2,2408.668c2.5,1.733,4.47,2.266,4.045,3.649s-5.216,6.227-9.9,7.61,6.493-6.733,3.606-9.34" transform="translate(-1769.743 -2291.262)" fill="none" stroke="#e4716d" stroke-linecap="round" stroke-linejoin="round" stroke-width="1"/>
        </g>
      </g>
      <g id="Group_541" data-name="Group 541" transform="translate(85.038 73.347)">
        <g id="Group_535" data-name="Group 535" transform="translate(72.127)">
          <g id="Path_1844" data-name="Path 1844" transform="translate(-1677.087 -2171.569)" fill="none" stroke-linecap="round" stroke-linejoin="round">
            <path d="M1696.885,2186.189c3.393-.432,3.729,2.483,3.085,3.607s-1.529,1.052.168,2.079,7.7,1.962,11.014-4.57c4.33-8.539,1.878-13.534-4.166-15.2-5.467-1.5-11.041.1-11.874,5.24s2.334,4,2.053,6.419Z" stroke="none"/>
            <path d="M 1703.32958984375 2191.6044921875 C 1704.20458984375 2191.6044921875 1705.530395507812 2191.43994140625 1706.87744140625 2190.656005859375 C 1708.246459960938 2189.859375 1709.384643554688 2188.579833984375 1710.260620117188 2186.8525390625 C 1711.352416992188 2184.699951171875 1712.022705078125 2182.728271484375 1712.253051757812 2180.992431640625 C 1712.461303710938 2179.42236328125 1712.308837890625 2178.04296875 1711.7998046875 2176.892333984375 C 1710.990234375 2175.06201171875 1709.281372070312 2173.776611328125 1706.721069335938 2173.072021484375 C 1705.505859375 2172.738037109375 1704.298095703125 2172.568603515625 1703.131103515625 2172.568603515625 C 1701.270263671875 2172.568603515625 1699.640380859375 2173.00146484375 1698.417846679688 2173.820556640625 C 1697.136840820312 2174.678955078125 1696.356689453125 2175.919677734375 1696.098999023438 2177.50830078125 C 1695.909545898438 2178.676025390625 1695.9326171875 2179.57080078125 1696.167602539062 2180.167724609375 C 1696.3466796875 2180.62255859375 1696.639526367188 2180.883544921875 1696.978515625 2181.185546875 C 1697.549438476562 2181.694091796875 1698.331176757812 2182.390869140625 1698.158569335938 2183.8818359375 L 1698.009887695312 2185.16796875 C 1699.237060546875 2185.28466796875 1700.202880859375 2185.861572265625 1700.759155273438 2186.822021484375 C 1701.441772460938 2188.000244140625 1701.315185546875 2189.46044921875 1700.837158203125 2190.294189453125 C 1700.701416015625 2190.53076171875 1700.560546875 2190.72265625 1700.432250976562 2190.880859375 C 1700.496337890625 2190.921875 1700.5703125 2190.968017578125 1700.65576171875 2191.01953125 C 1701.136840820312 2191.310791015625 1702.150268554688 2191.6044921875 1703.32958984375 2191.6044921875 M 1703.32958984375 2192.6044921875 C 1701.92431640625 2192.6044921875 1700.75048828125 2192.245849609375 1700.138061523438 2191.875244140625 C 1698.441284179688 2190.848876953125 1699.325317382812 2190.91943359375 1699.969848632812 2189.79638671875 C 1700.570190429688 2188.749267578125 1700.3193359375 2186.14599609375 1697.536743164062 2186.14599609375 C 1697.333251953125 2186.14599609375 1697.1162109375 2186.159912109375 1696.885131835938 2186.189453125 L 1697.165161132812 2183.76708984375 C 1697.445678710938 2181.344970703125 1694.277954101562 2182.48681640625 1695.111938476562 2177.34814453125 C 1695.7470703125 2173.432373046875 1699.135131835938 2171.568603515625 1703.131103515625 2171.568603515625 C 1704.378540039062 2171.568603515625 1705.685546875 2171.750244140625 1706.986206054688 2172.10791015625 C 1713.030883789062 2173.771240234375 1715.482788085938 2178.766357421875 1711.152465820312 2187.304931640625 C 1709.035034179688 2191.47998046875 1705.818725585938 2192.6044921875 1703.32958984375 2192.6044921875 Z" stroke="none" fill="#e3696f"/>
          </g>
          <path id="Path_1845" data-name="Path 1845" d="M1682.088,2265.593c.337-1.129.676-2.487,1-4.118,2-9.929,2.634-13.133,2.634-13.133" transform="translate(-1672.081 -2201.399)" fill="none" stroke="#e3696f" stroke-linecap="round" stroke-linejoin="round" stroke-width="1"/>
          <path id="Path_1846" data-name="Path 1846" d="M1707.771,2214.047c2.48,7.544-3.379,11.936-4.234,22.881s3.751,19.281.479,21.373-17.227,9.914-23.836,2.767c-3.718-4.021-4.006-2.585-2.977-3.384" transform="translate(-1669.983 -2188.074)" fill="none" stroke="#e3696f" stroke-linecap="round" stroke-linejoin="round" stroke-width="1"/>
          <path id="Path_1847" data-name="Path 1847" d="M1695.729,2187.319c-.828,9.513-1.156,12.764,5.343,11.029" transform="translate(-1677.21 -2177.688)" fill="none" stroke="#e3696f" stroke-linecap="round" stroke-linejoin="round" stroke-width="1"/>
          <path id="Path_1848" data-name="Path 1848" d="M1715.733,2205.753c7.121-2.78,20.117,13.218,18.889,15.411s-6.03,13.117-15.637,20.93" transform="translate(-1685.154 -2184.726)" fill="none" stroke="#e3696f" stroke-linecap="round" stroke-linejoin="round" stroke-width="1"/>
          <path id="Path_1849" data-name="Path 1849" d="M1720.6,2243.5c5.367-9.357,4.8-10.392,8.292-12.533" transform="translate(-1687.045 -2194.65)" fill="none" stroke="#e3696f" stroke-linecap="round" stroke-linejoin="round" stroke-width="1"/>
          <path id="Path_1850" data-name="Path 1850" d="M1727.712,2225.7a4.2,4.2,0,0,0,2.346,4.36" transform="translate(-1689.8 -2192.602)" fill="none" stroke="#e3696f" stroke-linecap="round" stroke-linejoin="round" stroke-width="1"/>
          <path id="Path_1851" data-name="Path 1851" d="M1690.043,2232.785c-3.978,5.43-9.189,13.524-13.759,18.213" transform="translate(-1669.826 -2195.355)" fill="none" stroke="#e3696f" stroke-linecap="round" stroke-linejoin="round" stroke-width="1"/>
          <path id="Path_1852" data-name="Path 1852" d="M1674.461,2238.032c-1.609,1.991,1.385,9.9,1.346,12.56s-2.466,4.323-7.036,3.7c0,0-1.635-6.906-2.872-12.308s4.3-13.532,7.458-20.064,7.244-8.06,14-12.563c3.31,2.972,7.1,2.225,8.6.43a3.5,3.5,0,0,0,.344-3.825" transform="translate(-1665.722 -2184.931)" fill="none" stroke="#e3696f" stroke-linecap="round" stroke-linejoin="round" stroke-width="1"/>
          <path id="Path_1853" data-name="Path 1853" d="M1706.021,2334.821a103.376,103.376,0,0,1,1.151,11.166c-.219,3.241,1.979,5.132,6.6,4.322s1.329-7.835,0-19.988c-1.57-14.365,5.112-30.154.554-42.807" transform="translate(-1681.38 -2216.62)" fill="none" stroke="#e3696f" stroke-linecap="round" stroke-linejoin="round" stroke-width="1"/>
          <path id="Path_1854" data-name="Path 1854" d="M1681.367,2303.57a51.959,51.959,0,0,1,1.169-11.751" transform="translate(-1671.8 -2218.293)" fill="none" stroke="#e3696f" stroke-linecap="round" stroke-linejoin="round" stroke-width="1"/>
          <path id="Path_1855" data-name="Path 1855" d="M1700.87,2376.655c.425,10.309.726,15.042-1.764,16.367a3.618,3.618,0,0,1-.883.334" transform="translate(-1678.35 -2251.257)" fill="none" stroke="#e3696f" stroke-linecap="round" stroke-linejoin="round" stroke-width="1"/>
          <path id="Path_1856" data-name="Path 1856" d="M1700.615,2400.076c1.009,3.433.932,6.126-2.415,5.81" transform="translate(-1678.341 -2260.357)" fill="none" stroke="#e3696f" stroke-linecap="round" stroke-linejoin="round" stroke-width="1"/>
          <path id="Path_1857" data-name="Path 1857" d="M1718.124,2388.14c.493,2.607.169,4.176-2.745,3.67s-3.231-.982-3.041-2.216" transform="translate(-1683.818 -2255.719)" fill="none" stroke="#e3696f" stroke-linecap="round" stroke-linejoin="round" stroke-width="1"/>
          <path id="Path_1858" data-name="Path 1858" d="M1707.825,2388.69c-2.588.421-3.954.265-4.861-1.189" transform="translate(-1680.192 -2255.471)" fill="none" stroke="#e3696f" stroke-linecap="round" stroke-linejoin="round" stroke-width="1"/>
          <path id="Path_1859" data-name="Path 1859" d="M1705.849,2380.595a6.1,6.1,0,0,0-3.156-.574" transform="translate(-1680.087 -2252.553)" fill="none" stroke="#e3696f" stroke-linecap="round" stroke-linejoin="round" stroke-width="1"/>
          <path id="Path_1860" data-name="Path 1860" d="M1702.755,2204.622c.972,1.8.216,4.877.216,4.877" transform="translate(-1680.111 -2184.412)" fill="none" stroke="#e3696f" stroke-linecap="round" stroke-linejoin="round" stroke-width="1"/>
          <path id="Path_1861" data-name="Path 1861" d="M1678.758,2282.57c2.967,1.267,5.041.431,4.829,1.62s-3.576.657-4.58.285-2.864.174-3.714-.285" transform="translate(-1669.44 -2214.699)" fill="none" stroke="#e3696f" stroke-linecap="round" stroke-linejoin="round" stroke-width="1"/>
          <path id="Path_1862" data-name="Path 1862" d="M1716.051,2203.44c-1.133,1.45-.289,4.612-.289,4.612" transform="translate(-1685.048 -2183.952)" fill="none" stroke="#e3696f" stroke-linecap="round" stroke-linejoin="round" stroke-width="1"/>
        </g>
        <g id="Group_540" data-name="Group 540" transform="translate(0 78.343)">
          <g id="Group_536" data-name="Group 536" transform="translate(0 0.89)">
            <path id="Path_1863" data-name="Path 1863" d="M1638.387,2348.384c-2.535.288-3.99.527-5.482,1.969-2.836,2.742-11.817,14.937-10.4,18.908s3.214,9.832,9.454,10.021q.444-.659.858-1.314" transform="translate(-1576.744 -2319.505)" fill="none" stroke="#e26371" stroke-linecap="round" stroke-linejoin="round" stroke-width="1"/>
            <path id="Path_1864" data-name="Path 1864" d="M1646.7,2329.774c-3.592-.414-3.761-4.643-2.654-15.143" transform="translate(-1584.94 -2306.39)" fill="none" stroke="#e26371" stroke-linecap="round" stroke-linejoin="round" stroke-width="1"/>
            <path id="Path_1865" data-name="Path 1865" d="M1609.819,2354.98c-5.145-8-7.115-9.316-13.272-4.883s-22.247,12.724-23.15,13.135a12.227,12.227,0,0,0,1.642,6.9c8.866-2.628,20.256-5.978,23.294-7.374" transform="translate(-1557.713 -2319.194)" fill="none" stroke="#e26371" stroke-linecap="round" stroke-linejoin="round" stroke-width="1"/>
            <path id="Path_1866" data-name="Path 1866" d="M1554.89,2372.11a12.625,12.625,0,0,0-1.9-4.589c-1.628-2.564-4.437.529-3.663,3.908s2.686,2.767,2.239,7.774,2.605,6.065,3.7,6.105,1.995-1.872,4.618-4.4c-3.926-.6-3.211-6.018-1.426-8.4-2.256.058-4.006-.187-5.106-1.407" transform="translate(-1548.318 -2326.573)" fill="none" stroke="#e26371" stroke-linecap="round" stroke-linejoin="round" stroke-width="1"/>
            <path id="Path_1867" data-name="Path 1867" d="M1550.459,2366.767c-1.855.316-2.252.913-2.593,2.475a9.514,9.514,0,0,0,1.59,6.5c1.476,2.271-.382,1.59-.347,5.167s1.994,5.791,4.151,5.791a2.592,2.592,0,0,0,2.6-1.918" transform="translate(-1547.76 -2326.648)" fill="none" stroke="#e26371" stroke-linecap="round" stroke-linejoin="round" stroke-width="1"/>
            <line id="Line_195" data-name="Line 195" x1="5.862" y2="1.875" transform="translate(9.803 44.58)" fill="none" stroke="#e26371" stroke-linecap="round" stroke-linejoin="round" stroke-width="1"/>
            <line id="Line_196" data-name="Line 196" x1="6.115" y2="3.551" transform="translate(11.055 50.671)" fill="none" stroke="#e26371" stroke-linecap="round" stroke-linejoin="round" stroke-width="1"/>
            <path id="Path_1868" data-name="Path 1868" d="M1618.4,2379.922c-6.4,10.058-7.7,13.625-5,15.41s7.609,1.1,7.609,1.1a17.673,17.673,0,0,0,6.98-3.352" transform="translate(-1572.748 -2331.76)" fill="none" stroke="#e26371" stroke-linecap="round" stroke-linejoin="round" stroke-width="1"/>
            <path id="Path_1869" data-name="Path 1869" d="M1614.443,2362.666c-.722,6.262-.059,8.645,4.258,11.375" transform="translate(-1573.573 -2325.054)" fill="none" stroke="#e26371" stroke-linecap="round" stroke-linejoin="round" stroke-width="1"/>
            <path id="Path_1870" data-name="Path 1870" d="M1613.412,2382.856c-4.252-8.082-6.555-7.776-6.555-7.776" transform="translate(-1570.722 -2329.877)" fill="none" stroke="#e26371" stroke-linecap="round" stroke-linejoin="round" stroke-width="1"/>
            <path id="Path_1871" data-name="Path 1871" d="M1592.12,2379.539c-1.7,8.43.214,13.238,7.881,23.4,7,9.279,8.193,10.129,11.139,11.4a5.718,5.718,0,0,0,5.322-.407" transform="translate(-1564.773 -2331.611)" fill="none" stroke="#e26371" stroke-linecap="round" stroke-linejoin="round" stroke-width="1"/>
            <path id="Path_1872" data-name="Path 1872" d="M1650.275,2316.27c.5-2.274.1-2.584-1.376-3.739-.547-.429-1.287.159-1.425.722-.507,2.074-.686,2.209-2.01,2.025s1.349-5.913-1-5.885-5.367-5.289,1.6-7.4c6.093-1.843,12.322-.655,14.281,3.407a5.73,5.73,0,0,1,.346,4.846" transform="translate(-1584.282 -2301.153)" fill="none" stroke="#e26371" stroke-linecap="round" stroke-linejoin="round" stroke-width="1"/>
            <path id="Path_1873" data-name="Path 1873" d="M1631.312,2397.5a6.975,6.975,0,0,1-1.573,2.412" transform="translate(-1579.613 -2338.588)" fill="none" stroke="#e26371" stroke-linecap="round" stroke-linejoin="round" stroke-width="1"/>
          </g>
          <g id="Group_539" data-name="Group 539" transform="translate(29.238)">
            <path id="Path_1874" data-name="Path 1874" d="M1663.525,2379.489l9.639-5.571a5.264,5.264,0,0,0,2.63-4.558v-2.784c0-20.378,10.074-29.607,10.074-58.221v-1.261a2.632,2.632,0,0,0-3.949-2.279l-28.68,16.574a5.265,5.265,0,0,0-2.63,4.559v2.784c0,28.614-10.074,37.844-10.074,58.221v1.26a2.632,2.632,0,0,0,3.949,2.279l13.931-8.051" transform="translate(-1613.046 -2301.547)" fill="none" stroke="#666668" stroke-linecap="round" stroke-linejoin="round" stroke-width="1"/>
            <path id="Path_1875" data-name="Path 1875" d="M1632.631,2424.293a59.03,59.03,0,0,0-.334,6.312v1.26a2.607,2.607,0,0,0,1.271,2.253" transform="translate(-1609.845 -2348.11)" fill="none" stroke="#666668" stroke-linecap="round" stroke-linejoin="round" stroke-width="1"/>
            <path id="Path_1876" data-name="Path 1876" d="M1677.461,2300.054a2.606,2.606,0,0,0-2.633,0l-28.679,16.574a5.265,5.265,0,0,0-2.63,4.558v2.784c0,21.879-5.495,32.28-8.268,45.142" transform="translate(-1610.993 -2299.697)" fill="none" stroke="#666668" stroke-linecap="round" stroke-linejoin="round" stroke-width="1"/>
            <line id="Line_197" data-name="Line 197" x1="5.37" y1="3.131" transform="translate(66.437 0.339)" fill="none" stroke="#666668" stroke-linecap="round" stroke-linejoin="round" stroke-width="1"/>
            <line id="Line_198" data-name="Line 198" x1="5.074" y1="2.934" transform="translate(23.723 86.007)" fill="none" stroke="#666668" stroke-linecap="round" stroke-linejoin="round" stroke-width="1"/>
            <path id="Path_1877" data-name="Path 1877" d="M1640.947,2434.507l-12.513,7.23a5.267,5.267,0,0,1-5.269,0l-25.218-14.574a1.579,1.579,0,0,0-2.37,1.367v.351a4.739,4.739,0,0,0,2.367,4.1l25.22,14.576a5.267,5.267,0,0,0,5.269,0l24.043-13.9,3.872-2.233a3.949,3.949,0,0,0,1.973-3.419v-4.547" transform="translate(-1595.577 -2347.788)" fill="none" stroke="#666668" stroke-linecap="round" stroke-linejoin="round" stroke-width="1"/>
            <path id="Path_1878" data-name="Path 1878" d="M1687.161,2418.6l2.276,1.316a1.843,1.843,0,0,1,0,3.191l-11.419,6.6" transform="translate(-1627.61 -2345.898)" fill="none" stroke="#666668" stroke-linecap="round" stroke-linejoin="round" stroke-width="1"/>
            <line id="Line_199" data-name="Line 199" y1="4.275" x2="7.398" transform="translate(0.79 75.098)" fill="none" stroke="#666668" stroke-linecap="round" stroke-linejoin="round" stroke-width="1"/>
            <path id="Path_1879" data-name="Path 1879" d="M1603.5,2408.553a2.619,2.619,0,0,0-.279,1.189v8.347a7.9,7.9,0,0,0,3.946,6.838l14.92,8.658a2.633,2.633,0,0,0,3.95-2.28v-8.347a7.9,7.9,0,0,0-2.495-5.761" transform="translate(-1598.547 -2341.994)" fill="none" stroke="#666668" stroke-linecap="round" stroke-linejoin="round" stroke-width="1"/>
            <path id="Path_1880" data-name="Path 1880" d="M1692.971,2415.493a2.625,2.625,0,0,0,3.2-2.635V2410.6" transform="translate(-1633.42 -2342.791)" fill="none" stroke="#666668" stroke-linecap="round" stroke-linejoin="round" stroke-width="1"/>
            <path id="Path_1881" data-name="Path 1881" d="M1598.236,2403.632a1.826,1.826,0,0,0,.92,1.618l18.325,10.591a3.162,3.162,0,0,0,3.161,0l2.273-1.314a.781.781,0,0,0,.395-.684v-2.106" transform="translate(-1596.61 -2340.082)" fill="none" stroke="#666668" stroke-linecap="round" stroke-linejoin="round" stroke-width="1"/>
            <path id="Path_1882" data-name="Path 1882" d="M1614.653,2402.963l8.263,5.281a.79.79,0,0,1,0,1.367l-2.273,1.314a3.161,3.161,0,0,1-3.161,0l-18.326-10.591a1.843,1.843,0,0,1,0-3.191l.432-.249a3.683,3.683,0,0,1,3.688,0l3.417,1.975" transform="translate(-1596.61 -2337.271)" fill="none" stroke="#666668" stroke-linecap="round" stroke-linejoin="round" stroke-width="1"/>
            <line id="Line_200" data-name="Line 200" x1="0.015" y2="2.317" transform="translate(1.625 61.233)" fill="none" stroke="#666668" stroke-linecap="round" stroke-linejoin="round" stroke-width="1"/>
            <g id="Group_537" data-name="Group 537" transform="translate(44.616 60.228)">
              <path id="Path_1883" data-name="Path 1883" d="M1674.173,2398.582a5.282,5.282,0,0,0-2.457,3.216,63.733,63.733,0,0,0-2.416,17.067v10.75a1.551,1.551,0,0,1-.753,1.33h0l3.561-2.058,1.391-.814a1.694,1.694,0,0,0,.838-1.462v-7.745a65.378,65.378,0,0,1,2.761-18.329,1.842,1.842,0,0,0-2.7-2.084Z" transform="translate(-1668.546 -2398.198)" fill="none" stroke="#666668" stroke-linecap="round" stroke-linejoin="round" stroke-width="1"/>
            </g>
            <path id="Path_1884" data-name="Path 1884" d="M1649.691,2469.555v4.837c0,.8-1.128,1.455-2.518,1.455s-2.518-.652-2.518-1.455v-4.837" transform="translate(-1614.646 -2365.697)" fill="none" stroke="#666668" stroke-linecap="round" stroke-linejoin="round" stroke-width="1"/>
            <ellipse id="Ellipse_57" data-name="Ellipse 57" cx="2.518" cy="1.456" rx="2.518" ry="1.456" transform="translate(30.007 102.402)" fill="none" stroke="#666668" stroke-linecap="round" stroke-linejoin="round" stroke-width="1"/>
            <g id="Group_538" data-name="Group 538" transform="translate(31.605 99.545)">
              <path id="Path_1885" data-name="Path 1885" d="M1648.188,2466.946c-.509,0-.922-.233-.922-.521v-3.4c0-.287.413-.521.922-.521s.921.234.921.521v3.4C1649.109,2466.713,1648.7,2466.946,1648.188,2466.946Z" transform="translate(-1647.266 -2462.501)" fill="none" stroke="#666668" stroke-linecap="round" stroke-linejoin="round" stroke-width="1"/>
            </g>
            <line id="Line_201" data-name="Line 201" x1="1.051" y2="2.738" transform="translate(31.605 99.88)" fill="none" stroke="#666668" stroke-linecap="round" stroke-linejoin="round" stroke-width="1"/>
            <path id="Path_1886" data-name="Path 1886" d="M1634.979,2468.282l1.1-7.028v-2.632l-1.4,8.941c-.113.718.935,1.323,2.179,1.258l22.628-1.181c1.657-.086,2.046,1.307.424,1.515l-22.165,2.836c-1.219.156-1.885.914-1.387,1.578l9.073,12.068c.664.883-1.509,1.52-2.361.692l-11.654-11.312a2.971,2.971,0,0,0-3.036-.283l-17.021,8.639c-1.246.632-2.979-.368-1.884-1.087l14.963-9.828c.823-.54.587-1.382-.49-1.752l-19.592-6.729c-1.434-.493-.332-1.748,1.2-1.364l20.9,5.239a3.081,3.081,0,0,0,2.282-.289" transform="translate(-1598.729 -2361.449)" fill="none" stroke="#666668" stroke-linecap="round" stroke-linejoin="round" stroke-width="1"/>
            <path id="Path_1887" data-name="Path 1887" d="M1658.551,2482.722a3.021,3.021,0,0,1,.511-.108l22.165-2.837c.609-.077.934-.322,1.016-.593" transform="translate(-1620.046 -2369.439)" fill="none" stroke="#666668" stroke-linecap="round" stroke-linejoin="round" stroke-width="1"/>
            <path id="Path_1888" data-name="Path 1888" d="M1612.591,2497.07c-.123.616,1.211,1.179,2.223.666l17.021-8.639a2.973,2.973,0,0,1,3.036.283l11.654,11.312c.734.713,2.447.34,2.485-.341" transform="translate(-1602.185 -2373.179)" fill="none" stroke="#666668" stroke-linecap="round" stroke-linejoin="round" stroke-width="1"/>
            <path id="Path_1889" data-name="Path 1889" d="M1603.7,2470.461c-.064.272.117.564.654.749l19.035,6.537" transform="translate(-1598.729 -2366.049)" fill="none" stroke="#666668" stroke-linecap="round" stroke-linejoin="round" stroke-width="1"/>
            <line id="Line_202" data-name="Line 202" y2="2.647" transform="translate(46.825 124.524)" fill="none" stroke="#666668" stroke-linecap="round" stroke-linejoin="round" stroke-width="1"/>
            <line id="Line_203" data-name="Line 203" y2="2.6" transform="translate(62.218 107.084)" fill="none" stroke="#666668" stroke-linecap="round" stroke-linejoin="round" stroke-width="1"/>
            <line id="Line_204" data-name="Line 204" y2="2.61" transform="translate(10.399 121.344)" fill="none" stroke="#666668" stroke-linecap="round" stroke-linejoin="round" stroke-width="1"/>
            <line id="Line_205" data-name="Line 205" y1="2.463" transform="translate(4.969 101.969)" fill="none" stroke="#666668" stroke-linecap="round" stroke-linejoin="round" stroke-width="1"/>
          </g>
        </g>
      </g>
      <g id="Group_542" data-name="Group 542">
        <path id="Path_1890" data-name="Path 1890" d="M1562.549,2221.607a4.309,4.309,0,0,1,2.883.431h0c1.078.622,1.2,1.564.262,2.1l-152.48,87.656a4.045,4.045,0,0,1-3.641-.151h0c-1.078-.622-1.195-1.563-.262-2.1l3.546-2.048" transform="translate(-1408.681 -2117.633)" fill="none" stroke="#666668" stroke-linecap="round" stroke-linejoin="round" stroke-width="1"/>
        <path id="Path_1891" data-name="Path 1891" d="M1565.694,2054.229l-152.48,87.655a4.048,4.048,0,0,1-3.641-.151h0c-1.078-.622-1.195-1.563-.262-2.1l3.546-2.046,148.934-85.608a2.6,2.6,0,0,1,.758-.281,4.3,4.3,0,0,1,2.883.432h0C1566.51,2052.749,1566.627,2053.69,1565.694,2054.229Z" transform="translate(-1408.681 -2051.612)" fill="none" stroke="#666668" stroke-linecap="round" stroke-linejoin="round" stroke-width="1"/>
        <path id="Path_1892" data-name="Path 1892" d="M1565.2,2058.861v101.193L1415.51,2246.1V2144.866" transform="translate(-1411.334 -2054.429)" fill="none" stroke="#666668" stroke-linecap="round" stroke-linejoin="round" stroke-width="1"/>
        <path id="Path_1893" data-name="Path 1893" d="M1442.584,2279.193l-9.278,5.356c-.934.54-1.7-.038-1.7-1.283V2261.1a4.082,4.082,0,0,1,1.7-3.244l9.278-5.357c.934-.538,1.7.039,1.7,1.284v22.17A4.08,4.08,0,0,1,1442.584,2279.193Z" transform="translate(-1417.59 -2129.589)" fill="#666668" stroke="#707070" stroke-width="1"/>
        <path id="Path_1894" data-name="Path 1894" d="M1468.819,2246.039l-7.351,4.243c-1.463.845-2.661-.06-2.661-2.012v-48.377a6.4,6.4,0,0,1,2.661-5.084l7.351-4.244c1.464-.845,2.661.06,2.661,2.011v48.377A6.4,6.4,0,0,1,1468.819,2246.039Z" transform="translate(-1428.158 -2105.48)" fill="#666668" stroke="#707070" stroke-width="1"/>
        <path id="Path_1895" data-name="Path 1895" d="M1496.088,2232.441l-7.491,4.325c-1.425.823-2.591-.059-2.591-1.959v-45.155a6.227,6.227,0,0,1,2.591-4.95l7.491-4.325c1.425-.822,2.591.059,2.591,1.959v45.156A6.227,6.227,0,0,1,1496.088,2232.441Z" transform="translate(-1438.726 -2101.525)" fill="#666668" stroke="#707070" stroke-width="1"/>
        <path id="Path_1896" data-name="Path 1896" d="M1522.916,2216.607l-6.75,3.9c-1.628.94-2.961-.067-2.961-2.239v-44.879a7.12,7.12,0,0,1,2.961-5.658l6.75-3.9c1.629-.94,2.961.067,2.961,2.239v44.879A7.116,7.116,0,0,1,1522.916,2216.607Z" transform="translate(-1449.294 -2095.079)" fill="#666668" stroke="#707070" stroke-width="1"/>
        <path id="Path_1897" data-name="Path 1897" d="M1551.193,2212.662l-8.909,5.143c-1.035.6-1.882-.042-1.882-1.422V2188.6a4.521,4.521,0,0,1,1.882-3.595l8.909-5.145c1.035-.6,1.882.043,1.882,1.423v27.783A4.525,4.525,0,0,1,1551.193,2212.662Z" transform="translate(-1459.862 -2101.357)" fill="#666668" stroke="#707070" stroke-width="1"/>
        <path id="Path_1898" data-name="Path 1898" d="M1577.535,2192.482l-7.2,4.154c-1.506.869-2.739-.062-2.739-2.07v-33.713a6.583,6.583,0,0,1,2.739-5.233l7.2-4.154c1.507-.87,2.739.061,2.739,2.07v33.712A6.583,6.583,0,0,1,1577.535,2192.482Z" transform="translate(-1470.431 -2090.284)" fill="#666668" stroke="#707070" stroke-width="1"/>
        <path id="Path_1899" data-name="Path 1899" d="M1604.972,2183.934l-7.673,4.43c-1.375.794-2.5-.056-2.5-1.89V2163.71a6.008,6.008,0,0,1,2.5-4.776l7.673-4.43c1.375-.795,2.5.056,2.5,1.89v22.763A6.008,6.008,0,0,1,1604.972,2183.934Z" transform="translate(-1480.999 -2091.476)" fill="#666668" stroke="#707070" stroke-width="1"/>
        <path id="Path_1900" data-name="Path 1900" d="M1632.636,2180.24l-8.6,4.967c-1.119.646-2.035-.046-2.035-1.539v-4.47a4.892,4.892,0,0,1,2.035-3.888l8.6-4.967c1.119-.646,2.035.046,2.035,1.538v4.471A4.892,4.892,0,0,1,1632.636,2180.24Z" transform="translate(-1491.567 -2097.651)" fill="#666668" stroke="#707070" stroke-width="1"/>
        <path id="Path_1901" data-name="Path 1901" d="M1476.088,2278.911l-43.025,24.84c-.8.464-1.454-.029-1.454-1.1h0a3.483,3.483,0,0,1,1.454-2.779l43.025-24.84c.8-.463,1.455.029,1.455,1.1h0A3.483,3.483,0,0,1,1476.088,2278.911Z" transform="translate(-1417.59 -2138.356)" fill="#666668" stroke="#707070" stroke-width="1"/>
        <path id="Path_1902" data-name="Path 1902" d="M1557.683,2231.8l-43.025,24.841c-.8.463-1.455-.029-1.455-1.1h0a3.482,3.482,0,0,1,1.455-2.779l43.025-24.841c.8-.464,1.454.029,1.454,1.1h0A3.484,3.484,0,0,1,1557.683,2231.8Z" transform="translate(-1449.294 -2120.052)" fill="#666668" stroke="#707070" stroke-width="1"/>
        <path id="Path_1903" data-name="Path 1903" d="M1622.648,2200.4l-26.394,15.239c-.8.464-1.455-.029-1.455-1.1h0a3.482,3.482,0,0,1,1.455-2.779l26.394-15.239c.8-.463,1.455.029,1.455,1.1h0A3.481,3.481,0,0,1,1622.648,2200.4Z" transform="translate(-1480.999 -2107.848)" fill="#666668" stroke="#707070" stroke-width="1"/>
        <path id="Path_1904" data-name="Path 1904" d="M1550.7,2311.553v-21.108l-2.909,1.679v19.428" transform="translate(-1462.733 -2144.413)" fill="none" stroke="#666668" stroke-linecap="round" stroke-linejoin="round" stroke-width="1"/>
        <line id="Line_206" data-name="Line 206" x2="9.162" y2="0.172" transform="translate(90.866 167.322)" fill="none" stroke="#666668" stroke-linecap="round" stroke-linejoin="round" stroke-width="1"/>
        <line id="Line_207" data-name="Line 207" x1="3.794" y1="14.152" transform="translate(87.357 170.396)" fill="none" stroke="#666668" stroke-linecap="round" stroke-linejoin="round" stroke-width="1"/>
        <line id="Line_208" data-name="Line 208" x1="13.405" y2="3.732" transform="translate(68.845 168.427)" fill="none" stroke="#666668" stroke-linecap="round" stroke-linejoin="round" stroke-width="1"/>
        <path id="Path_1905" data-name="Path 1905" d="M1548.835,2322.373a5.478,5.478,0,0,1,1.635.6c1.706.985,1.714,2.577.019,3.555a6.8,6.8,0,0,1-6.158-.011c-1.706-.985-1.714-2.576-.02-3.555a5.411,5.411,0,0,1,1.634-.592" transform="translate(-1460.89 -2156.816)" fill="none" stroke="#666668" stroke-linecap="round" stroke-linejoin="round" stroke-width="1"/>
        <path id="Path_1906" data-name="Path 1906" d="M1547.789,2324.987a.745.745,0,0,0,.429.568,2.274,2.274,0,0,0,2.057,0,.715.715,0,0,0,.422-.593" transform="translate(-1462.732 -2157.826)" fill="none" stroke="#666668" stroke-linecap="round" stroke-linejoin="round" stroke-width="1"/>
        <ellipse id="Ellipse_58" data-name="Ellipse 58" cx="1.289" cy="2.233" rx="1.289" ry="2.233" transform="translate(89.139 186.281) rotate(-89.689)" fill="none" stroke="#666668" stroke-linecap="round" stroke-linejoin="round" stroke-width="1"/>
        <ellipse id="Ellipse_59" data-name="Ellipse 59" cx="1.289" cy="2.233" rx="1.289" ry="2.233" transform="translate(98.149 168.914) rotate(-89.689)" fill="none" stroke="#666668" stroke-linecap="round" stroke-linejoin="round" stroke-width="1"/>
        <ellipse id="Ellipse_60" data-name="Ellipse 60" cx="1.289" cy="2.233" rx="1.289" ry="2.233" transform="translate(66.605 173.436) rotate(-89.689)" fill="none" stroke="#666668" stroke-linecap="round" stroke-linejoin="round" stroke-width="1"/>
      </g>
      <path id="Path_1907" data-name="Path 1907" d="M1515.052,2309.057c-31.4,14.5-51.515,36.839-51.515,61.894,0,43.715,61.244,79.153,136.793,79.153s136.794-35.439,136.794-79.153c0-15.5-7.7-29.967-21.017-42.177" transform="translate(-1429.995 -2151.645)" fill="none" stroke="#666668" stroke-linecap="round" stroke-linejoin="round" stroke-width="1"/>
    </g>
    <g id="Group_549" data-name="Group 549" transform="translate(413.781 106.459)">
      <path id="Path_1908" data-name="Path 1908" d="M2022.033,2322.56a94.574,94.574,0,0,0-23.494,20.173" transform="translate(-1985.656 -2243.481)" fill="none" stroke="#666668" stroke-linecap="round" stroke-linejoin="round" stroke-width="1"/>
      <path id="Path_1909" data-name="Path 1909" d="M2155.077,2281.075q-2.693-.06-5.411-.06c-30.351,0-58.393,5.719-81.083,15.4" transform="translate(-2012.873 -2227.339)" fill="none" stroke="#666668" stroke-linecap="round" stroke-linejoin="round" stroke-width="1"/>
      <path id="Path_1910" data-name="Path 1910" d="M2231.179,2282.278q-5.665-.549-11.481-.827" transform="translate(-2071.589 -2227.508)" fill="none" stroke="#666668" stroke-linecap="round" stroke-linejoin="round" stroke-width="1"/>
      <path id="Path_1911" data-name="Path 1911" d="M2354.46,2329.342c-15.368-18.8-43.158-33.536-77.24-40.66" transform="translate(-2093.94 -2230.318)" fill="none" stroke="#666668" stroke-linecap="round" stroke-linejoin="round" stroke-width="1"/>
      <path id="Path_1912" data-name="Path 1912" d="M2156.073,2281.025c-22.153-.948-44.92,3.49-61.92,13.305-13.877,8.012-21.55,18.243-23.007,28.689" transform="translate(-2013.868 -2227.294)" fill="none" stroke="#666668" stroke-linecap="round" stroke-linejoin="round" stroke-width="1"/>
      <path id="Path_1913" data-name="Path 1913" d="M2249.22,2288a118.7,118.7,0,0,0-29.746-6.291" transform="translate(-2071.502 -2227.608)" fill="none" stroke="#666668" stroke-linecap="round" stroke-linejoin="round" stroke-width="1"/>
      <path id="Path_1914" data-name="Path 1914" d="M2235.97,2375.542c12.2-2.1,23.709-5.943,33.359-11.516,30.881-17.829,31.038-46.646.349-64.364a82.826,82.826,0,0,0-9.122-4.52" transform="translate(-2077.912 -2232.829)" fill="none" stroke="#666668" stroke-linecap="round" stroke-linejoin="round" stroke-width="1"/>
      <path id="Path_1915" data-name="Path 1915" d="M2084.972,2389.8a57.406,57.406,0,0,0,14.2,11.207,92.472,92.472,0,0,0,21.818,8.887" transform="translate(-2019.241 -2269.609)" fill="none" stroke="#666668" stroke-linecap="round" stroke-linejoin="round" stroke-width="1"/>
      <g id="Group_545" data-name="Group 545" transform="translate(132.338)">
        <g id="Group_544" data-name="Group 544" transform="translate(13.775)">
          <path id="Path_1916" data-name="Path 1916" d="M2228.2,2215.465c.45,9,3.261,12.37,6.86,12.483a7.543,7.543,0,0,0,6.523-2.924" transform="translate(-2221.006 -2201.869)" fill="none" stroke="#e78f62" stroke-linecap="round" stroke-linejoin="round" stroke-width="1"/>
          <path id="Path_1917" data-name="Path 1917" d="M2228.2,2249.222c0,10.572,5.992,15.486,6.611,21.446" transform="translate(-2221.006 -2214.985)" fill="none" stroke="#e78f62" stroke-linecap="round" stroke-linejoin="round" stroke-width="1"/>
          <path id="Path_1918" data-name="Path 1918" d="M2216.434,2248.077c1.054-3.86,1.83-8.528,2.423-10.409.906-2.869,1.661-3.4,6.172-6" transform="translate(-2216.434 -2208.166)" fill="none" stroke="#e78f62" stroke-linecap="round" stroke-linejoin="round" stroke-width="1"/>
          <path id="Path_1919" data-name="Path 1919" d="M2219.411,2201.606c.406,5.01,5.988,4.316,8.7,2.158s9.37-2.069,9.549.719,0,5.4,1.438,4.856-.179-4.676,1.259-4.766,1.349,1.708,1.259,3.6,2.967.449,1.979-5.575-3.6-9.622-9.622-9.352-5.366,1.979-7.808,2.608S2218.871,2194.952,2219.411,2201.606Z" transform="translate(-2217.574 -2193.229)" fill="none" stroke="#e78f62" stroke-linecap="round" stroke-linejoin="round" stroke-width="1"/>
          <path id="Path_1920" data-name="Path 1920" d="M2251.526,2219.693c-.079,5.412,1.757,7.008,1.757,7.008s-1.35,5.672-4.7,6.46c-1.692,3.311-3.033,3.468-2.008,9.774" transform="translate(-2228.007 -2203.512)" fill="none" stroke="#e78f62" stroke-linecap="round" stroke-linejoin="round" stroke-width="1"/>
          <path id="Path_1921" data-name="Path 1921" d="M2237.455,2235.6c.07,2.529,3.889,2.839,4.377,4.121a15.8,15.8,0,0,0,1.555,2.8" transform="translate(-2224.602 -2209.692)" fill="none" stroke="#e78f62" stroke-linecap="round" stroke-linejoin="round" stroke-width="1"/>
          <path id="Path_1922" data-name="Path 1922" d="M2254.785,2228.865a9.472,9.472,0,0,0-1.156-3.6c2.051.886,3.356,2.012,2.843,3.919a21.389,21.389,0,0,1-4.055,8.526,10.99,10.99,0,0,1-2.33-2.381" transform="translate(-2229.51 -2205.675)" fill="none" stroke="#e78f62" stroke-linecap="round" stroke-linejoin="round" stroke-width="1"/>
          <path id="Path_1923" data-name="Path 1923" d="M2240.8,2239c-.435,2.3-.715,3.239-.715,3.239-3.4-2.943-4.355-4.192-4.461-7.366" transform="translate(-2223.891 -2209.411)" fill="none" stroke="#e78f62" stroke-linecap="round" stroke-linejoin="round" stroke-width="1"/>
          <path id="Path_1924" data-name="Path 1924" d="M2273.645,2253.5c.077-3.679-.3-10.009-.155-12.391.437-7.188.249-8.245-4.655-10.551a54.82,54.82,0,0,0-9.759-3.427" transform="translate(-2233.003 -2206.402)" fill="none" stroke="#e78f62" stroke-linecap="round" stroke-linejoin="round" stroke-width="1"/>
          <path id="Path_1925" data-name="Path 1925" d="M2267.558,2242.795c-.769,4.517-.111,10.915-.3,14.951" transform="translate(-2236.15 -2212.488)" fill="none" stroke="#e78f62" stroke-linecap="round" stroke-linejoin="round" stroke-width="1"/>
          <path id="Path_1926" data-name="Path 1926" d="M2271.061,2299.6" transform="translate(-2237.66 -2234.561)" fill="none" stroke="#e78f62" stroke-linecap="round" stroke-linejoin="round" stroke-width="1"/>
        </g>
        <path id="Path_1927" data-name="Path 1927" d="M2269.587,2294.062a8.6,8.6,0,0,1,2.253,4.673c.429,2.893-5.786,3.214-8.785,1.822-2.446-1.136-1.264-3.619,1.03-6.945,1.59-2.305,2.117-17.558,2.139-19.168" transform="translate(-2220.247 -2224.785)" fill="none" stroke="#e78f62" stroke-linecap="round" stroke-linejoin="round" stroke-width="1"/>
        <path id="Path_1928" data-name="Path 1928" d="M2277.113,2270.869c-.441-2.671-2.276-2.812-5.488-3.079s-4.686-1.107-5.264.642-.233,3.106,2.783,3.508S2277.381,2272.49,2277.113,2270.869Z" transform="translate(-2221.968 -2222.03)" fill="none" stroke="#e78f62" stroke-linecap="round" stroke-linejoin="round" stroke-width="1"/>
        <path id="Path_1929" data-name="Path 1929" d="M2278.387,2275.181c-1.7,7.345-2.546,12.344-2.631,14.932s.051,4.772.519,5.7" transform="translate(-2225.7 -2225.072)" fill="none" stroke="#e78f62" stroke-linecap="round" stroke-linejoin="round" stroke-width="1"/>
        <path id="Path_1930" data-name="Path 1930" d="M2203.6,2283.545c2.093-1.86,6.586-16.646,6.991-18.2" transform="translate(-2197.671 -2221.249)" fill="none" stroke="#e78f62" stroke-linecap="round" stroke-linejoin="round" stroke-width="1"/>
        <path id="Path_1931" data-name="Path 1931" d="M2222.178,2266.741c-3.4,6.729-6.364,11-7.063,13.5s-1.885,4.647-1.652,5.662" transform="translate(-2201.493 -2221.793)" fill="none" stroke="#e78f62" stroke-linecap="round" stroke-linejoin="round" stroke-width="1"/>
        <path id="Path_1932" data-name="Path 1932" d="M2201.146,2295.1c-5.935-.167-8.585,3-6.579,4.92s6.464,2.686,9.029.763,2.9-3.151,1.478-4.919" transform="translate(-2193.905 -2232.81)" fill="none" stroke="#e78f62" stroke-linecap="round" stroke-linejoin="round" stroke-width="1"/>
        <path id="Path_1933" data-name="Path 1933" d="M2224.478,2262.425c-.254,1.384-.328,1.791-1.311,1.179s-3.06-2.469-4.99-2.469-4.495,1.935-4.378.567.117-2.97,1.61-3.444,6.1-.859,8.06,1.045" transform="translate(-2201.634 -2218.346)" fill="none" stroke="#e78f62" stroke-linecap="round" stroke-linejoin="round" stroke-width="1"/>
      </g>
      <path id="Path_1934" data-name="Path 1934" d="M2115.1,2423.31a87.921,87.921,0,0,1-15.748-7.035,54,54,0,0,1-16.5-14.012" transform="translate(-2018.415 -2274.45)" fill="none" stroke="#666668" stroke-linecap="round" stroke-linejoin="round" stroke-width="1"/>
      <path id="Path_1935" data-name="Path 1935" d="M2229.32,2444.453q-2.725.406-5.483.7" transform="translate(-2073.198 -2290.844)" fill="none" stroke="#666668" stroke-linecap="round" stroke-linejoin="round" stroke-width="1"/>
      <path id="Path_1936" data-name="Path 1936" d="M2349.017,2372.381h-31.834a7.766,7.766,0,0,0-7.582,5.92c-2.262,9.558-9.774,18.8-22.53,26.161a83.147,83.147,0,0,1-8.009,4.05" transform="translate(-2094.656 -2262.84)" fill="none" stroke="#666668" stroke-linecap="round" stroke-linejoin="round" stroke-width="1"/>
      <g id="Group_546" data-name="Group 546" transform="translate(0 81.053)">
        <path id="Path_1937" data-name="Path 1937" d="M2160.427,2394.4c15.983-3.623,30.977-9.17,43.91-16.636,23.852-13.771,36.386-31.588,37.588-49.573a2.592,2.592,0,0,1,2.6-2.4h4.036a2.606,2.606,0,0,1,2.606,2.606v49.069c-.219,20.138-13.684,40.281-40.38,55.694-53.611,30.953-140.261,31.109-193.538.35-26.747-15.442-39.993-35.74-39.774-56.044V2328.4a2.606,2.606,0,0,1,2.606-2.606h3.983a2.594,2.594,0,0,1,2.6,2.454c.843,18.12,13.19,36.057,37.072,49.844,30.309,17.5,72.192,24.276,111.608,20.355" transform="translate(-1977.47 -2325.789)" fill="none" stroke="#666668" stroke-linecap="round" stroke-linejoin="round" stroke-width="1"/>
        <path id="Path_1938" data-name="Path 1938" d="M1985.722,2350.946c4.789,15.5,17.005,30.287,36.665,42.254,52.211,31.783,137.128,31.621,189.668-.361,19.2-11.686,31.413-26,36.641-41.019" transform="translate(-1980.676 -2335.564)" fill="none" stroke="#666668" stroke-linecap="round" stroke-linejoin="round" stroke-width="1"/>
      </g>
      <g id="Group_547" data-name="Group 547" transform="translate(96.65 105.19)">
        <path id="Path_1939" data-name="Path 1939" d="M2173.417,2386.566c5.033.635,5.046-.306,6.346-2.205,2.541-3.709,6.365-11.055,3.382-14.841s-5.2-4.684-9.354-4.086-7.462,3.99-7.371,7.38,1.7,12.419,3.074,12.827A20.87,20.87,0,0,0,2173.417,2386.566Z" transform="translate(-2147.537 -2365.265)" fill="none" stroke="#e78f62" stroke-linecap="round" stroke-linejoin="round" stroke-width="1"/>
        <path id="Path_1940" data-name="Path 1940" d="M2166.3,2379.886c-.609,6.765-.833,11.893,1.2,12.19" transform="translate(-2147.325 -2370.946)" fill="none" stroke="#e78f62" stroke-linecap="round" stroke-linejoin="round" stroke-width="1"/>
        <path id="Path_1941" data-name="Path 1941" d="M2164.9,2407.244s-3.866.384-1.506,1.9,7.419.029,13.728-4.18c1.216,2.084,2.118,3.076,1.011,3.793-1.08.7-7.708,5.572-16.158,3.434a.711.711,0,0,1-.526-.841,12.116,12.116,0,0,1,1.292-3.374" transform="translate(-2145.599 -2380.689)" fill="none" stroke="#e78f62" stroke-linecap="round" stroke-linejoin="round" stroke-width="1"/>
        <path id="Path_1942" data-name="Path 1942" d="M2164.64,2407.026c2-1.321,2.132-3.209,1.9-7.508" transform="translate(-2146.846 -2378.574)" fill="none" stroke="#e78f62" stroke-linecap="round" stroke-linejoin="round" stroke-width="1"/>
        <path id="Path_1943" data-name="Path 1943" d="M2188.223,2394.6c-.85,2.362-1.563,5.308-1.977,6.673" transform="translate(-2155.241 -2376.665)" fill="none" stroke="#e78f62" stroke-linecap="round" stroke-linejoin="round" stroke-width="1"/>
        <path id="Path_1944" data-name="Path 1944" d="M2220.246,2421c-4.624-.893-14.19-8.056-17.816-8.981a10.485,10.485,0,0,0-7.588-.678c-3.071.842-4.832-.254-5.418-.873" transform="translate(-2156.476 -2382.829)" fill="none" stroke="#e78f62" stroke-linecap="round" stroke-linejoin="round" stroke-width="1"/>
        <path id="Path_1945" data-name="Path 1945" d="M2210.7,2413c.73,1.181.606,4.156.4,4.994" transform="translate(-2164.741 -2383.814)" fill="none" stroke="#e78f62" stroke-linecap="round" stroke-linejoin="round" stroke-width="1"/>
        <path id="Path_1946" data-name="Path 1946" d="M2135.538,2430.861c.01-.74.023-1.525.042-2.35.127-5.653,3.615-7.709,5.615-8.328a79.162,79.162,0,0,1,10.718-3.4" transform="translate(-2135.538 -2385.281)" fill="none" stroke="#e78f62" stroke-linecap="round" stroke-linejoin="round" stroke-width="1"/>
        <path id="Path_1947" data-name="Path 1947" d="M2233.117,2427.638a31.746,31.746,0,0,1,7.13.544,30.366,30.366,0,0,0,8.226.372c1.873-.063,3.809,1.674,3.135,6.154-.356,2.367-.614,3.153-3.163,4.124-1.6.612-11.177-.793-19.01-1" transform="translate(-2172.023 -2389.49)" fill="none" stroke="#e78f62" stroke-linecap="round" stroke-linejoin="round" stroke-width="1"/>
        <path id="Path_1948" data-name="Path 1948" d="M2263.723,2430.269a42.826,42.826,0,0,0,7.21.317c1.331-.105,2.835.463,5.791,2.666" transform="translate(-2185.346 -2390.523)" fill="none" stroke="#e78f62" stroke-linecap="round" stroke-linejoin="round" stroke-width="1"/>
        <path id="Path_1949" data-name="Path 1949" d="M2264.733,2439.879a19.141,19.141,0,0,0,8.056-3.64c1.3-.378,3.547-1.052,4.191-1.256" transform="translate(-2185.738 -2392.354)" fill="none" stroke="#e78f62" stroke-linecap="round" stroke-linejoin="round" stroke-width="1"/>
      </g>
      <g id="Group_548" data-name="Group 548" transform="translate(20.611 64.267)">
        <path id="Path_1950" data-name="Path 1950" d="M2057.127,2305.432a.854.854,0,0,1-.686.562c-1.487.189-4.039-1.519-3.712-.382.373,1.3.517,4.054-1.144,5.838s-1.356,4.524-1.976,4.527-1-.444-.187-2.85-1.709-3.334-3.338-1.847-4.461,6.24-6.713,5.642-2.518-.927-2.443-2.6-1.024-9.185,1.994-12.556,5.9-3.855,9.275-3.154,7.2,3.114,8.177,4.865C2057.189,2304.936,2057.3,2304.956,2057.127,2305.432Z" transform="translate(-2021.131 -2298.336)" fill="none" stroke="#e68268" stroke-linecap="round" stroke-linejoin="round" stroke-width="1"/>
        <path id="Path_1951" data-name="Path 1951" d="M2047.944,2322.406c1.762,1.807,4.617,4.805,6.17,2.072s5.381-7.128,5-10.941-1.3-3.788-1.3-3.788" transform="translate(-2025.464 -2302.77)" fill="none" stroke="#e68268" stroke-linecap="round" stroke-linejoin="round" stroke-width="1"/>
        <path id="Path_1952" data-name="Path 1952" d="M2109.765,2345.491l-11.754-12.483a3.127,3.127,0,0,1-.515-3.552l8.386-16.623a1.564,1.564,0,0,1,2.535-.368l12.288,13.051a3.127,3.127,0,0,1,.457,3.663l-8.891,16A1.563,1.563,0,0,1,2109.765,2345.491Z" transform="translate(-2044.588 -2303.635)" fill="none" stroke="#e68268" stroke-linecap="round" stroke-linejoin="round" stroke-width="1"/>
        <path id="Path_1953" data-name="Path 1953" d="M2033.509,2326.087c-.428.11-.932.254-1.514.442-2.325.752-3,2.987,1.29,3.777s7.839,2.965,11.294,4.606,3.757,2.029,4.479,2.344.946,2.444,2.537,4.811a54.4,54.4,0,0,1,5.206,10.291" transform="translate(-2018.551 -2309.119)" fill="none" stroke="#e68268" stroke-linecap="round" stroke-linejoin="round" stroke-width="1"/>
        <path id="Path_1954" data-name="Path 1954" d="M2036.169,2330.094a4.35,4.35,0,0,1-.893,1.769" transform="translate(-2020.542 -2310.676)" fill="none" stroke="#e68268" stroke-linecap="round" stroke-linejoin="round" stroke-width="1"/>
        <path id="Path_1955" data-name="Path 1955" d="M2048.718,2337.728c-.366-.548-.539-.13-1.178.005a6.863,6.863,0,0,1-4.768-.955,11.013,11.013,0,0,0-8.284-1c-3.53.749-6-1-6.468-2.478s-.35-4.89.131-5.745a5.208,5.208,0,0,1,4.352-2.114" transform="translate(-2017.607 -2308.867)" fill="none" stroke="#e68268" stroke-linecap="round" stroke-linejoin="round" stroke-width="1"/>
        <path id="Path_1956" data-name="Path 1956" d="M2062.743,2354.357a9.771,9.771,0,0,1,2.538,2.967,4.575,4.575,0,0,1,.917,2.437" transform="translate(-2031.215 -2320.104)" fill="none" stroke="#e68268" stroke-linecap="round" stroke-linejoin="round" stroke-width="1"/>
        <path id="Path_1957" data-name="Path 1957" d="M2026.637,2330.111c-1.9,3.423-2.968,4.759-1.563,8.7a11.649,11.649,0,0,0,4.679,5.8" transform="translate(-2016.328 -2310.683)" fill="none" stroke="#e68268" stroke-linecap="round" stroke-linejoin="round" stroke-width="1"/>
        <path id="Path_1958" data-name="Path 1958" d="M2088.2,2369.877c2.986-2.231,4.374-2.936,2.041-5.2s-4.6-.746-6.223.216-2.881,1.781-2.025,3.719" transform="translate(-2038.586 -2323.655)" fill="none" stroke="#e68268" stroke-linecap="round" stroke-linejoin="round" stroke-width="1"/>
        <path id="Path_1959" data-name="Path 1959" d="M2051.9,2334.578a9.491,9.491,0,0,0-.409,2.958" transform="translate(-2026.84 -2312.418)" fill="none" stroke="#e68268" stroke-linecap="round" stroke-linejoin="round" stroke-width="1"/>
        <path id="Path_1960" data-name="Path 1960" d="M2056.413,2339.855c-2.112-2.992-3.212-4.785-3.212-4.785" transform="translate(-2027.507 -2312.609)" fill="none" stroke="#e68268" stroke-linecap="round" stroke-linejoin="round" stroke-width="1"/>
        <path id="Path_1961" data-name="Path 1961" d="M2044.451,2363.062c-.332,1.845,2.063,3.9,5.763,7.042,10.623,9.019,12.407,8.986,16.144,8.814s6.125-.717,6.644-4.725l.52-4.008s1.175-3.217-2.21-3.9-3.654,1.258-3.916,2.049c-.378.331-.488,1.387-.852,1.641s-.537.1-1.082-.195c.023-.793-1.087-.833-1.087-.833a7.075,7.075,0,0,0-1.272-2.022c-.985-1.173-1.092-.355-2.334-1.655.158-1.327-.57-1.937-2.784-3.37" transform="translate(-2024.095 -2323.033)" fill="none" stroke="#e68268" stroke-linecap="round" stroke-linejoin="round" stroke-width="1"/>
        <path id="Path_1962" data-name="Path 1962" d="M2069.742,2359.714c3.779-1.557,5.255-4.686,2.645-5.6s-5.172-1.218-5.562.111" transform="translate(-2032.801 -2319.705)" fill="none" stroke="#e68268" stroke-linecap="round" stroke-linejoin="round" stroke-width="1"/>
        <path id="Path_1963" data-name="Path 1963" d="M2067.122,2352.586a10.476,10.476,0,0,1-2.5-1.311" transform="translate(-2031.946 -2318.906)" fill="none" stroke="#e68268" stroke-linecap="round" stroke-linejoin="round" stroke-width="1"/>
        <path id="Path_1964" data-name="Path 1964" d="M2081.236,2364.7l15.247-3.639a1.563,1.563,0,0,0,.776-2.592l-11.682-12.407a3.128,3.128,0,0,0-2.891-.923l-18.062,3.617" transform="translate(-2031.946 -2316.497)" fill="none" stroke="#e68268" stroke-linecap="round" stroke-linejoin="round" stroke-width="1"/>
        <path id="Path_1965" data-name="Path 1965" d="M2019.074,2339.415c-4.214,8.3-8.149,18.705-7.882,21.533" transform="translate(-2011.179 -2314.297)" fill="none" stroke="#e68268" stroke-linecap="round" stroke-linejoin="round" stroke-width="1"/>
        <path id="Path_1966" data-name="Path 1966" d="M2050.941,2375.32c-2.98,9.02,2.936,13.723-4.65,18.645" transform="translate(-2024.822 -2328.249)" fill="none" stroke="#e68268" stroke-linecap="round" stroke-linejoin="round" stroke-width="1"/>
        <line id="Line_209" data-name="Line 209" x2="4.929" y2="5.235" transform="translate(37.953 39.526)" fill="none" stroke="#e68268" stroke-linecap="round" stroke-linejoin="round" stroke-width="1"/>
        <path id="Path_1967" data-name="Path 1967" d="M2059.834,2407.089a33.345,33.345,0,0,0,18.245-12.485" transform="translate(-2030.084 -2335.742)" fill="none" stroke="#e68268" stroke-linecap="round" stroke-linejoin="round" stroke-width="1"/>
        <path id="Path_1968" data-name="Path 1968" d="M2058.454,2390.546c1.5-1.972,6.069-4.042,6.069-4.042" transform="translate(-2029.548 -2332.594)" fill="none" stroke="#e68268" stroke-linecap="round" stroke-linejoin="round" stroke-width="1"/>
      </g>
      <path id="Path_1969" data-name="Path 1969" d="M1977.47,2410.468c0,43.715,61.244,79.153,136.793,79.153s136.793-35.438,136.793-79.153" transform="translate(-1977.47 -2277.639)" fill="none" stroke="#666668" stroke-linecap="round" stroke-linejoin="round" stroke-width="1"/>
    </g>
  </g>
</svg>
