<svg xmlns="http://www.w3.org/2000/svg" width="24" height="24" viewBox="0 0 24 24"><path d="M2157.185,1196.339a12,12,0,1,1,12.3,11.969A11.959,11.959,0,0,1,2157.185,1196.339Zm13.148-2.579c0-.495-.021-.886.005-1.275.039-.572.279-.788.855-.807.317-.01.635-.015.951,0s.439-.106.432-.422c-.014-.558-.021-1.118,0-1.676.017-.384-.163-.489-.5-.478-.633.022-1.267.03-1.9.048a2.72,2.72,0,0,0-2.93,2.979c-.007.533,0,1.067,0,1.657a6.213,6.213,0,0,0-1.067.018.58.58,0,0,0-.391.382,14,14,0,0,0,0,1.841c.008.127.217.263.36.351.082.05.218.011.33.011.763,0,.763,0,.763.737,0,1.974.01,3.948-.008,5.922,0,.44.141.6.579.581.577-.027,1.156-.014,1.734-.009.812.008.831,0,.828-.788-.005-1.564-.021-3.128-.03-4.692,0-.553,0-1.106,0-1.724.562,0,1.023-.008,1.484,0,.334.008.51-.1.528-.471a14.97,14.97,0,0,1,.174-1.606c.071-.451-.094-.609-.539-.589C2171.457,1193.779,2170.921,1193.76,2170.333,1193.76Z" transform="translate(-2157.184 -1184.31)" fill="#666668"/></svg>