<svg xmlns="http://www.w3.org/2000/svg" width="793.012" height="669.097" viewBox="0 0 793.012 669.097"><g transform="translate(-157.969 -162.265)"><g transform="translate(159 545.901)"><path d="M132.986,446.952c-5.818-6.933-12.792-28.312-13.374-46.514s-7.562-36.691-7.851-44.782-6.688-34.091-5.815-49.98" transform="translate(-69.285 -169.041)" fill="none" stroke="#666668" stroke-linecap="round" stroke-miterlimit="10" stroke-width="2"/><path d="M118.248,320.56c-9.6-3.179-13.666-4.044-15.41-23.4" transform="translate(-75.191 -185.661)" fill="none" stroke="#666668" stroke-linecap="round" stroke-miterlimit="10" stroke-width="2"/><path d="M114.772,308.23c-8-3.754-13.229-10.4-14.1-17.335" transform="translate(-79.418 -197.888)" fill="none" stroke="#666668" stroke-linecap="round" stroke-miterlimit="10" stroke-width="2"/><path d="M111.524,311.21c-7.562-8.09-14.829-19.646-13.958-32.648" transform="translate(-85.619 -221.957)" fill="none" stroke="#666668" stroke-linecap="round" stroke-miterlimit="10" stroke-width="2"/><path d="M112.361,309.634c-9.557-4.044-21.771-15.6-18.279-27.447s23.988-23.067,27.692-22.8,10.7,5.23,14.755,5.646c7.91.818,17.444-2.606,23.111,0s21.376,6.446,21.376,6.446" transform="translate(-93.471 -259.384)" fill="none" stroke="#666668" stroke-linecap="round" stroke-miterlimit="10" stroke-width="2"/><path d="M107.586,260.748c-6.47,2.89-9.377,8.09-4.144,24.557s27.04,73.672,34.017,115.854,13.958,87.76,17.158,102.241,4.486,22.857,10.821,25.747" transform="translate(-79.283 -256.723)" fill="none" stroke="#666668" stroke-linecap="round" stroke-miterlimit="10" stroke-width="2"/><path d="M169.682,274.279c-19.318-11.007-35.286-15.354-45.591-6.4" transform="translate(-33.713 -252.199)" fill="none" stroke="#666668" stroke-linecap="round" stroke-miterlimit="10" stroke-width="2"/><path d="M138.577,264.108c10.044-.511,25.5,6.142,29.363,8.191" transform="translate(-5.443 -250.219)" fill="none" stroke="#666668" stroke-linecap="round" stroke-miterlimit="10" stroke-width="2"/><path d="M148.525,267.336c16.225-3.84,46.751-6.2,58.274-1.564" transform="translate(13.972 -251.912)" fill="none" stroke="#666668" stroke-linecap="round" stroke-miterlimit="10" stroke-width="2"/><path d="M354.735,303.691c-56.745,4.908-105.747,10.959-144.5,17.86" transform="translate(134.408 -172.915)" fill="none" stroke="#666668" stroke-linecap="round" stroke-miterlimit="10" stroke-width="2"/><path d="M499.943,299.149c-74.628.782-145.3,3.161-209.476,6.842" transform="translate(290.987 -181.779)" fill="none" stroke="#666668" stroke-linecap="round" stroke-miterlimit="10" stroke-width="2"/><path d="M183.027,319.36c-3.719,3.135-5.641,6.34-5.641,9.593,0,36.275,238.694,66.06,543.285,69.253" transform="translate(70.298 -142.336)" fill="none" stroke="#666668" stroke-linecap="round" stroke-miterlimit="10" stroke-width="2"/><path d="M720.669,420.439c-304.588-3.816-543.282-39.445-543.282-82.831v-15" transform="translate(70.299 -135.991)" fill="none" stroke="#666668" stroke-linecap="round" stroke-miterlimit="10" stroke-width="2"/><path d="M317.569,373.656c-5.6-1.535-16.809-8.448-20.095-19.389s-5.062-34.684-3.09-45.886c.812-4.608,38.823-4.56,51.4-4.56,14.109,0,46.594.331,46.594,4.849,0,9,.015,34.442-5.912,47.4s-13.943,17.648-20.682,18.879" transform="translate(297.023 -172.662)" fill="none" stroke="#666668" stroke-linecap="round" stroke-miterlimit="10" stroke-width="2"/><path d="M300.014,326.772c.044,4.407,3.518,10.708,27.488,10.62s29.726-1.423,30.5-8.693" transform="translate(309.619 -127.87)" fill="none" stroke="#666668" stroke-linecap="round" stroke-miterlimit="10" stroke-width="2"/><path d="M319.348,321.527c-45.809,0-65.939,30.021,44.859,30.021,113.28,0,84.944-27.863,42.444-27.863" transform="translate(275.784 -138.106)" fill="none" stroke="#666668" stroke-linecap="round" stroke-miterlimit="10" stroke-width="2"/><path d="M286.925,329.979c18,8.439,32.955,14.675,69.487,14.675,48.935,0,70.077-14.159,73.265-15.832" transform="translate(284.075 -123.869)" fill="none" stroke="#666668" stroke-linecap="round" stroke-miterlimit="10" stroke-width="2"/><path d="M325.036,347.269c11.435-18.445,16.786-24.487,13.932-33.855-2.161-7.09-8.1-4.693-8.1-4.693" transform="translate(358.453 -163.86)" fill="none" stroke="#666668" stroke-linecap="round" stroke-miterlimit="10" stroke-width="2"/><path d="M326.384,327.492c5.744-10.15,5.481-13.937,4.826-16.157s-2.9,4.179-2.9,4.179" transform="translate(361.083 -158.91)" fill="none" stroke="#666668" stroke-linecap="round" stroke-miterlimit="10" stroke-width="2"/><path d="M295.945,305.578c27.722,3.326,66.972,3.964,85.021.874" transform="translate(301.678 -169.233)" fill="none" stroke="#666668" stroke-linecap="round" stroke-miterlimit="10" stroke-width="2"/></g><g transform="translate(299.991 162.265)"><path d="M401.908,323.438a122.35,122.35,0,0,1-11.2-10.956c-11.148-12.781-19.206-43.8-16.458-51.4v-.006c.732-1.916,1.529-3.935,2.406-6.071.1-.254.183-.49.28-.741,1.021,2.86,2.78,6.606,5.08,11.429,5,10.461,11.213,23.483,9.4,30.307a1.283,1.283,0,0,0,.921,1.57,1.255,1.255,0,0,0,.331.044,1.289,1.289,0,0,0,1.249-.959c2.054-7.733-4.386-21.225-9.563-32.066-3-6.272-6.393-13.386-5.782-15.16.006-.018,0-.032.006-.05,2.993-10.921.319-18.155-1.907-24.123-.458-1.219-.927-2.441-1.4-3.657-2.335-6.071-4.543-11.8-4.543-16.556a31.336,31.336,0,0,0-.555-6.021,1.684,1.684,0,0,0,.449-.422,1.7,1.7,0,0,0,.21-1.547,1.824,1.824,0,0,0-1.021-1.086,3.029,3.029,0,0,0-.339-.124c-.416-1.668-.939-3.548-1.579-5.841-.534-1.916-1.154-4.132-1.86-6.765-3.486-12.993-15.493-35.647-32.869-41.131a1.3,1.3,0,0,0-1.623.838,1.282,1.282,0,0,0,.841,1.615c16.39,5.171,27.807,26.874,31.151,39.339.711,2.642,1.328,4.867,1.863,6.792.513,1.836.947,3.383,1.3,4.755a42.066,42.066,0,0,0-14.563,2.426,1.955,1.955,0,0,0-1.455,1.6,1.91,1.91,0,0,0,1.039,1.824,5.8,5.8,0,0,0,1.228.555,1.283,1.283,0,0,0-.7.254c-6.647,5.286-9.531,8.663-7.293,16.762,3.4,12.3,8.061,16.3,11.145,18.955,2.087,1.789,2.8,2.5,2.642,4.354-.493,5.853-.593,7.069-14.811,7.069a1.287,1.287,0,1,0,0,2.574c15.068,0,16.753-1.789,17.388-9.427.275-3.253-1.488-4.764-3.527-6.517-2.848-2.444-7.152-6.142-10.339-17.686-1.857-6.724.283-9.2,6.417-14.073a1.281,1.281,0,0,0,.2-1.809,1.236,1.236,0,0,0-.286-.239,4.311,4.311,0,0,0,.794.08,2.186,2.186,0,0,0,1.092-.248,29.93,29.93,0,0,1,3.111-.788c1.42-.319,3.182-.714,4.852-1.178a15.947,15.947,0,0,1,4-.466,29.106,29.106,0,0,1,.511,5.576c0,5.227,2.287,11.178,4.717,17.476.463,1.2.93,2.417,1.381,3.63,2.432,6.523,5.458,14.637.015,27.884a250.942,250.942,0,0,0-9,25.782l-.617,2.06c-.7,2.317-.688,5.239-.679,8.332.012,4.392.024,8.935-2.1,11.346-4.389,5-9.363,10.673-24.2,7.972-4.212-.768-8.347-1.435-12.344-2.081-16.234-2.624-30.248-4.888-41.632-12.146a1.3,1.3,0,0,0-1.789.39,1.28,1.28,0,0,0,.39,1.777c11.839,7.544,26.1,9.849,42.615,12.518,3.651.59,7.423,1.207,11.249,1.892.207,13.332-.133,22.571-1.269,29.374a.622.622,0,0,0-.021.106v.032c-1.021,6.015-2.665,10.13-5.109,13.518-5.6,7.76-13.864,26.225-14.159,39.315a1.287,1.287,0,0,0,1.263,1.313l.029,0a1.294,1.294,0,0,0,1.3-1.257c.283-12.58,8.262-30.381,13.672-37.875a28.445,28.445,0,0,0,4.159-8.572c2.376,5.77,8.129,9.714,14.773,13.707a65.907,65.907,0,0,0,7.763,9.327c8.3,8.486,14.2,18.663,16.747,28.412.183,11.432-10.216,36.21-25.936,61.78-17.848,29.026-38.71,53.082-57.406,66.231-1.733-2.057-6.257-7.468-11.7-14.306,28.209-27.258,8.067-56.314-13.176-86.96q-1.966-2.829-3.92-5.676c5.93-15.484,11.629-31.263,8.772-43.433a26.167,26.167,0,0,0,4.348-17.456,36.43,36.43,0,0,0,1.638-4.023c14.309,22.928,4.563,54.906-3.672,62.2a1.28,1.28,0,0,0-.112,1.815,1.311,1.311,0,0,0,.971.431,1.293,1.293,0,0,0,.859-.328c10.611-9.389,19.011-44.124,2.916-67.329,4.9-19.481-2.9-45.528-11.963-60.626a1.3,1.3,0,0,0-1.774-.446,1.284,1.284,0,0,0-.452,1.762c11.2,18.642,20.522,54.4,4.988,71.945C252,384.823,224.39,387.308,199.741,387.1a1.322,1.322,0,0,0-1.3,1.275,1.285,1.285,0,0,0,1.281,1.3q1.3.013,2.606.012c24.569,0,51.562-3.093,69.295-23.117a29.772,29.772,0,0,0,2.131-2.751,23.2,23.2,0,0,1-7.279,15.584c-10.012,9.717-30.369,14.413-51.857,11.96a1.287,1.287,0,1,0-.3,2.556,100.773,100.773,0,0,0,11.417.652c17.839,0,33.828-4.867,42.542-13.327.546-.528,1.048-1.071,1.538-1.623,1.694,11.762-4.206,27.146-9.941,42.063-5.328,13.876-10.363,26.984-8.917,36.411a1.288,1.288,0,0,0,1.275,1.092,1.118,1.118,0,0,0,.2-.015,1.286,1.286,0,0,0,1.083-1.464c-1.057-6.9,1.774-16.311,5.567-26.615,11.355,15.971,12.078,21.228-2.813,31.927a61.528,61.528,0,0,0-7.261,6.06l-.021.018c-5.245,5.168-9.619,11.736-9.6,19.283h1.3l1.293-.112c-.012-5.983,3.235-11.39,7.411-15.88,4.321,10.227,17.108,27.415,27.344,40.351-1.372,1.24-2.845,2.476-4.436,3.707a1.281,1.281,0,0,0-.224,1.8,1.3,1.3,0,0,0,1.024.5,1.284,1.284,0,0,0,.791-.272c1.594-1.231,3.07-2.468,4.454-3.707,6.623,8.3,11.848,14.439,12.4,15.091a1.3,1.3,0,0,0,.992.455,1.29,1.29,0,0,0,.732-.227c30.31-20.788,61.278-66.131,76.234-99.381a1.283,1.283,0,0,0,.756.28,1.3,1.3,0,0,0,.847-.313c5.525-4.746,8.628-11.5,8.976-19.528.59-13.453-6.641-29.572-18.867-42.063a62.8,62.8,0,0,1-7.627-9.2l-.024-.035c-5.212-7.907-5.945-14.687-7-24.8a203.036,203.036,0,0,0-3.332-22.332c.806.053,1.591.089,2.335.089,10.682,0,15.266-5.221,19.1-9.59,2.724-3.105,2.71-8.138,2.7-13a28.868,28.868,0,0,1,.573-7.586l.62-2.075c.882-2.978,2.019-6.789,3.627-11.5a90.391,90.391,0,0,0,3.394,16.405c3.6,12.181,8.7,22.645,13.988,28.713a124.984,124.984,0,0,0,11.429,11.187c6.827,6.086,11.762,10.484,11.4,17.016a1.29,1.29,0,0,0,1.225,1.352l.071,0a1.3,1.3,0,0,0,1.293-1.219c.419-7.757-5.177-12.748-12.264-19.067M251.367,470.381a60.791,60.791,0,0,1,6.414-5.28c17.4-12.5,14.758-19.764,2.388-36.931.608-1.615,1.234-3.247,1.865-4.894.968,1.4,1.939,2.813,2.907,4.212,20.5,29.572,39.932,57.612,13.681,83.451-10.508-13.3-23.625-30.968-27.255-40.558M376.687,411.03a24.362,24.362,0,0,1-6.443,16.119,117,117,0,0,0,6.443-18.76c.033.891.035,1.774,0,2.642m-33.513-75.72c.883,8.4,1.57,14.791,4.858,21.482-6.308-4.159-10.7-8.468-10.584-15.269,1.133-6.916,1.488-16.136,1.3-29.212.325.05.649.095.968.136a195.767,195.767,0,0,1,3.459,22.863" transform="translate(-30.613 -104.739)" fill="#e4716d"/><path d="M206.888,198.7a1.287,1.287,0,0,0-.021,2.574c.313,0,.62.006.927.006,39.079,0,61.494-37.054,67.043-62.164a1.292,1.292,0,0,0-2.524-.552,90.123,90.123,0,0,1-20.909,39.9c-8.687,9.4-23.5,20.537-44.5,20.236Z" transform="translate(-16.647 -113.523)" fill="#e4716d"/><path d="M194.674,214.3a1.284,1.284,0,0,0,1.06,1.482,1.092,1.092,0,0,0,.218.021,1.3,1.3,0,0,0,1.275-1.071c5.756-33.693,19.947-57.689,42.176-71.326a78.434,78.434,0,0,1,53.622-10.351c-.992.213-1.989.44-2.993.708-22.305,5.945-41.379,35.965-44.259,46.931a1.294,1.294,0,0,0,.93,1.57,1.382,1.382,0,0,0,.328.041,1.3,1.3,0,0,0,1.252-.962c2.769-10.546,21.06-39.4,42.418-45.095a52.652,52.652,0,0,1,9.259-1.62l.08-.009c12.718-1.018,23.6,3.267,30.688,11.933l.03.035a36.322,36.322,0,0,1,6.2,11.381,1.294,1.294,0,0,0,2.456-.818,40.317,40.317,0,0,0-4.681-9.572c17.211,4.141,41.807,28.477,46.208,66.73,2.518,21.9,12.232,29.932,18.666,35.245,5.5,4.551,7.781,6.437,3.014,13.371-7.792,11.334-11.736,18.7-11.1,20.729a1.294,1.294,0,0,0,1.237.906,1.233,1.233,0,0,0,.381-.059,1.284,1.284,0,0,0,.9-1.387c.029-.378.578-3.994,10.72-18.74,6.1-8.864,2.069-12.193-3.5-16.8-6.11-5.05-15.348-12.686-17.748-33.56-4.377-38.031-30.254-66.9-51.036-69.457-7.589-9.094-19.1-13.589-32.515-12.524-14.661-4.351-39.543-4.54-61.91,9.182-22.565,13.843-37.562,39.115-43.368,73.082" transform="translate(-37.99 -129.409)" fill="#e4716d"/><path d="M271.1,188.2a1.275,1.275,0,0,0-1.435,1.128c-2.919,24.773-12.255,31.119-30.853,43.766-2.137,1.452-4.135,2.834-6.03,4.147-14.82,10.257-22.975,15.918-40.148,15.34a1.31,1.31,0,0,0-1.334,1.243,1.287,1.287,0,0,0,1.249,1.328q1.2.04,2.352.041c16.476,0,25.242-6.071,39.363-15.841,1.886-1.308,3.879-2.689,6.007-4.135,18.642-12.674,28.914-19.655,31.963-45.59A1.287,1.287,0,0,0,271.1,188.2" transform="translate(-44.538 -14.7)" fill="#e4716d"/><path d="M258.218,192.522a1.3,1.3,0,0,0-1.485,1.068c-4.357,27.429,8.937,49.9,15.67,55.939.508.455,1.083.95,1.715,1.494,5.36,4.634,14.342,12.391,16.24,24.587a1.291,1.291,0,0,0,1.278,1.089,1.642,1.642,0,0,0,.2-.015,1.282,1.282,0,0,0,1.074-1.467c-2.04-13.126-11.467-21.269-17.1-26.136-.614-.531-1.181-1.015-1.673-1.461-7.131-6.4-18.811-28.693-14.844-53.628a1.293,1.293,0,0,0-1.077-1.47" transform="translate(81.484 -6.27)" fill="#e4716d"/><path d="M239.324,239.685a1.348,1.348,0,0,0,.286.032,1.287,1.287,0,0,0,1.26-1c3.943-17.273-3.577-37.612-18.713-50.611a1.3,1.3,0,0,0-1.827.13,1.281,1.281,0,0,0,.133,1.815c14.43,12.4,21.621,31.724,17.884,48.1a1.286,1.286,0,0,0,.977,1.538" transform="translate(11.502 -15.476)" fill="#e4716d"/><path d="M204.163,200.4a1.285,1.285,0,0,0,.558,1.733,44.794,44.794,0,0,0,20.354,4.912,43.575,43.575,0,0,0,20.493-5.089c11.57-6.16,26.175-20.623,30.041-54.56a1.292,1.292,0,0,0-2.568-.289c-3.743,32.828-17.668,46.715-28.7,52.583a41.61,41.61,0,0,1-38.439.156,1.3,1.3,0,0,0-1.744.555" transform="translate(-19.713 -97.103)" fill="#e4716d"/><path d="M216.568,185.047c20.7,0,36.662-10.481,48.589-31.815a1.277,1.277,0,0,0-.5-1.747,1.3,1.3,0,0,0-1.759.5c-13.229,23.666-31.594,33.389-56.137,29.734a1.285,1.285,0,1,0-.387,2.541,69.1,69.1,0,0,0,10.2.788" transform="translate(-17.277 -86.644)" fill="#e4716d"/><path d="M242.278,135.895c-17.645,14.1-28.471,41.334-28.471,54.649a1.293,1.293,0,0,0,2.586,0c0-12.8,10.463-39.02,27.506-52.645a1.281,1.281,0,0,0,.2-1.809,1.3,1.3,0,0,0-1.818-.195" transform="translate(-0.614 -117.306)" fill="#e4716d"/><path d="M229.058,134.173a1.282,1.282,0,0,0-.8,1.635,1.3,1.3,0,0,0,1.647.794c9.835-3.383,21.75-1.254,25.437,2.839a1.285,1.285,0,0,0,.962.428,1.308,1.308,0,0,0,.865-.328,1.279,1.279,0,0,0,.1-1.815c-4.773-5.3-18.223-6.992-28.211-3.554" transform="translate(27.447 -123.606)" fill="#e4716d"/><path d="M236.678,137.561a1.286,1.286,0,1,0,.142,2.568c4.3-.236,8.084,2.695,9.965,4.46,3.338,3.143,5.015,6.529,5.015,7.538a1.294,1.294,0,0,0,2.589,0c0-2.237-2.509-6.281-5.826-9.407-3.757-3.536-7.963-5.366-11.883-5.159" transform="translate(41.633 -113.53)" fill="#e4716d"/><path d="M251.117,148.611a1.294,1.294,0,0,0,1.142.679,1.32,1.32,0,0,0,.611-.153,1.281,1.281,0,0,0,.525-1.741c-2.385-4.422-9.7-7.733-14.634-7.736h-.009c-3.518,0-5.092,1.535-5.788,2.825a1.277,1.277,0,0,0,.522,1.741,1.3,1.3,0,0,0,1.753-.522c.664-1.216,2.273-1.473,3.512-1.473h.006c4.5,0,10.623,3.164,12.358,6.381" transform="translate(36.468 -109.405)" fill="#e4716d"/><path d="M237.977,142.72a10.21,10.21,0,0,0-6.334,7.134,1.29,1.29,0,0,0,.912,1.576,1.357,1.357,0,0,0,.339.044,1.292,1.292,0,0,0,1.249-.95,7.706,7.706,0,0,1,4.746-5.4,9.573,9.573,0,0,1,8.557,1.2,1.3,1.3,0,0,0,1.795-.357,1.28,1.28,0,0,0-.36-1.783,12.176,12.176,0,0,0-10.9-1.467" transform="translate(34.109 -104.783)" fill="#e4716d"/><path d="M282.223,194.027a1.435,1.435,0,0,0,.224-.018,1.293,1.293,0,0,0,1.057-1.488c-5.142-29.392-23.846-48.33-38.3-55.617a1.3,1.3,0,0,0-1.741.564,1.283,1.283,0,0,0,.573,1.73c13.92,7.019,31.948,25.31,36.919,53.763a1.29,1.29,0,0,0,1.272,1.066" transform="translate(56.983 -115.054)" fill="#e4716d"/><path d="M245.384,140.32a1.286,1.286,0,1,0,.449,2.532c2.329-.4,14.3,6.588,23.758,25.021a1.287,1.287,0,0,0,1.154.7,1.318,1.318,0,0,0,.587-.139,1.283,1.283,0,0,0,.564-1.73c-9.593-18.693-22.35-27.108-26.511-26.387" transform="translate(58.925 -108.198)" fill="#e4716d"/><path d="M263.916,210.073a1.286,1.286,0,0,0,.909,1.579,1.243,1.243,0,0,0,.342.047,1.291,1.291,0,0,0,1.246-.947l2.842-10.286c3.1-11.237-.032-24.076-8.383-34.348a1.3,1.3,0,0,0-1.821-.192,1.286,1.286,0,0,0-.195,1.809c7.831,9.628,10.782,21.609,7.9,32.049Z" transform="translate(86.748 -58.7)" fill="#e4716d"/><path d="M197.265,233.6a1.289,1.289,0,0,0,1.275,1.3c.623.009,1.231.015,1.833.015,24.7,0,35.588-7.447,45.213-14.038,4.215-2.884,8.194-5.605,13.046-7.538,15.434-6.145,34.637-13.793,31.272-48.356a1.293,1.293,0,0,0-2.574.248c3.179,32.645-14.268,39.593-29.661,45.72-5.121,2.04-9.212,4.844-13.551,7.81-10.009,6.848-20.342,13.958-45.54,13.569a1.252,1.252,0,0,0-1.314,1.266" transform="translate(-32.898 -62.245)" fill="#e4716d"/><path d="M200.27,214.176a1.283,1.283,0,0,0,.189,1.809,1.309,1.309,0,0,0,.818.286,1.3,1.3,0,0,0,1.006-.478c14.454-17.727,36.621-24.333,49.867-28.279,2.264-.676,4.218-1.257,5.921-1.824,12.217-4.067,18.046-12.344,17.562-16.75a1.294,1.294,0,0,0-2.574.277c.274,2.491-3.884,10.062-15.806,14.032-1.668.555-3.6,1.133-5.847,1.8-13.533,4.032-36.181,10.779-51.137,29.126" transform="translate(-27.597 -54.5)" fill="#e4716d"/><path d="M248.536,134.963a1.3,1.3,0,0,0-1.615-.862c-22.016,6.564-37.246,30.868-39.363,45.16-.407,2.745-.729,5.275-1.03,7.636-1.316,10.342-2.187,17.172-7.831,24.569a1.282,1.282,0,0,0,.248,1.8,1.3,1.3,0,0,0,.785.263,1.286,1.286,0,0,0,1.03-.511c6.06-7.943,7.016-15.434,8.338-25.8.3-2.344.617-4.855,1.018-7.583,2.063-13.926,17.341-37.046,37.547-43.07a1.288,1.288,0,0,0,.871-1.6" transform="translate(-30.612 -120.356)" fill="#e4716d"/><path d="M190.437,213.347a1.288,1.288,0,0,0,.98,1.538,45.105,45.105,0,0,0,9.752,1.11c10.7,0,19.829-4.268,25.4-12.181a1.28,1.28,0,0,0-.319-1.792,1.3,1.3,0,0,0-1.8.316c-6.585,9.348-18.722,13.1-32.468,10.035a1.3,1.3,0,0,0-1.547.974" transform="translate(-46.285 11.848)" fill="#e4716d"/><path d="M238.756,196.37a1.3,1.3,0,0,0-1.783-.416,1.279,1.279,0,0,0-.419,1.768,79.861,79.861,0,0,1,11.3,31.423c1.03,9.05.153,21.5-9.873,29.428a1.253,1.253,0,0,0-.333.407c-12.9,2.662-25.139,11.694-28.271,17.494a1.291,1.291,0,0,0,2.279,1.216c2.869-5.313,16.744-15.735,30.806-16.83a1.287,1.287,0,0,0,1.189-1.381,1.306,1.306,0,0,0-1.393-1.184l-.148.021c15.835-15.9,7.01-45.292-3.359-61.945" transform="translate(-9.554 0.083)" fill="#e4716d"/><path d="M188.838,233.2q16.8,4.507,29.814,4.5c11.015,0,19.941-2.426,26.686-7.279,7.969-5.735,12.506-14.731,13.117-26.018a1.295,1.295,0,0,0-2.586-.139c-.4,7.311-2.807,17.423-12.048,24.073-11.381,8.188-29.655,8.988-54.307,2.379a1.286,1.286,0,1,0-.676,2.482" transform="translate(-51.215 14.301)" fill="#e4716d"/><path d="M215.9,161.919a1.284,1.284,0,0,0,.215-1.806,1.3,1.3,0,0,0-1.818-.215c-28.35,22.14-28.87,39.838-26.154,52.781A1.287,1.287,0,0,0,189.4,213.7a1.35,1.35,0,0,0,.266-.027,1.28,1.28,0,0,0,1-1.523c-3.855-18.391,3.69-33.415,25.227-50.233" transform="translate(-52.776 -70.446)" fill="#e4716d"/><path d="M166.118,321.525a1.313,1.313,0,0,0,.26.026,1.3,1.3,0,0,0,1.269-1.03c8.285-40.617,21.922-69.959,40.529-87.211a1.278,1.278,0,0,0,.065-1.815,1.3,1.3,0,0,0-1.833-.065c-19.005,17.624-32.9,47.426-41.3,88.578a1.287,1.287,0,0,0,1.009,1.517" transform="translate(-95.707 69.023)" fill="#e4716d"/><path d="M260.075,229.409c-16.378,12.851-23.542,14.309-34.941,14.419-14.855.139-25.514,3.6-31.677,10.3a20.242,20.242,0,0,0-5.3,15.514,1.289,1.289,0,0,0,1.287,1.184c.035,0,.071,0,.1,0a1.289,1.289,0,0,0,1.19-1.384,17.545,17.545,0,0,1,4.631-13.574c5.581-6.06,15.883-9.333,29.8-9.466,12.45-.118,20.275-2.223,36.523-14.971a1.284,1.284,0,0,0,.213-1.806,1.3,1.3,0,0,0-1.821-.212" transform="translate(-50.816 65.211)" fill="#e4716d"/><path d="M241.641,239.049a1.292,1.292,0,0,0-2.19-1.372c-13.4,21.066-36.216,26.446-36.444,26.5a1.286,1.286,0,0,0,.286,2.541,1.367,1.367,0,0,0,.286-.032c.977-.221,24.067-5.64,38.061-27.636" transform="translate(-23.655 80.713)" fill="#e4716d"/><path d="M218.264,237.375c-5.939,4.935-25.239,23.12-24.327,49.9.723,21.373,15.691,49.442,16.328,50.626a1.3,1.3,0,0,0,1.145.679,1.286,1.286,0,0,0,1.136-1.892c-.151-.283-15.319-28.731-16.027-49.5-.865-25.611,17.7-43.088,23.4-47.837a1.276,1.276,0,0,0,.162-1.809,1.3,1.3,0,0,0-1.821-.162" transform="translate(-39.454 80.716)" fill="#e4716d"/><path d="M200.121,292.675h.018a1.294,1.294,0,0,0,1.278-1.3c-.115-8.633,8.518-16,16.865-23.12,7.612-6.493,14.8-12.627,14.8-19.5a1.294,1.294,0,0,0-2.589,0c0,5.691-6.747,11.449-13.9,17.544-8.8,7.509-17.9,15.272-17.766,25.109a1.283,1.283,0,0,0,1.29,1.269" transform="translate(-29.844 100.99)" fill="#e4716d"/><path d="M198.685,239.324a1.3,1.3,0,0,0-1.809.26c-2.9,3.852-11.945,18.453-6.688,44.6a1.293,1.293,0,0,0,1.269,1.036,1.31,1.31,0,0,0,.257-.026,1.282,1.282,0,0,0,1.012-1.511c-5.05-25.109,3.486-38.926,6.222-42.562a1.281,1.281,0,0,0-.263-1.8" transform="translate(-49.855 84.603)" fill="#e4716d"/><path d="M201.119,292.978a1.288,1.288,0,0,0,1.293,1.263h.024a1.294,1.294,0,0,0,1.272-1.311c-.151-8.3,4.8-15.652,8.781-21.561,3.834-5.7,7.152-10.623,4.454-14.551a1.3,1.3,0,0,0-1.8-.339,1.281,1.281,0,0,0-.339,1.786c1.712,2.5-1.015,6.547-4.472,11.676-4.176,6.2-9.377,13.929-9.215,23.037" transform="translate(-25.383 118.145)" fill="#e4716d"/><path d="M211.182,314.322a1.291,1.291,0,0,0,1.181.759,1.317,1.317,0,0,0,.531-.115,1.282,1.282,0,0,0,.646-1.7c-4.271-9.419-3.784-14.233-3.267-19.327a36.3,36.3,0,0,0-.773-14.274c-2.813-11.045.159-22.577,9.1-35.254a1.283,1.283,0,0,0-.319-1.792,1.3,1.3,0,0,0-1.8.316c-9.392,13.326-12.494,25.546-9.484,37.361a31.609,31.609,0,0,1,1.045,8.545c-17.81,68.746-24.714,112.74-24.307,120.018.233,4.188,4.537,8.8,8.7,13.253a53.9,53.9,0,0,1,5.148,6.009,1.3,1.3,0,0,0,1.792.363,1.278,1.278,0,0,0,.366-1.783,55.956,55.956,0,0,0-5.407-6.34c-3.672-3.929-7.831-8.383-8.016-11.647-.328-5.856,5.4-44.422,21.157-107.188a39.024,39.024,0,0,0,3.713,12.8" transform="translate(-59.347 91.078)" fill="#e4716d"/><path d="M216.45,324.374a1.281,1.281,0,0,0-.151-1.812c-10.08-8.495-13.834-22.958-11.16-42.984a1.3,1.3,0,0,0-2.568-.339c-2.8,20.95,1.26,36.187,12.054,45.287a1.3,1.3,0,0,0,1.824-.151" transform="translate(-24.213 160.816)" fill="#e4716d"/><path d="M206.981,334.3a1.283,1.283,0,0,0-.363,1.783,1.3,1.3,0,0,0,1.08.576,1.284,1.284,0,0,0,.711-.213c.59-.387,14.543-9.643,23.288-24.286,8.76-14.664,4.755-40.328-.708-53.055a1.294,1.294,0,0,0-2.382,1.009c5.257,12.243,9.171,36.833.862,50.735-8.43,14.117-22.344,23.359-22.488,23.45" transform="translate(-15.064 122.185)" fill="#e4716d"/><path d="M243.01,138.926a1.3,1.3,0,0,0-1.8-.351c-16.795,11.2-21.222,28.359-22.364,37.586-.13,1.06-.263,2.228-.407,3.489-1.6,13.994-4.581,40.042-20.517,48.961a1.287,1.287,0,0,0,1.269,2.24c17.09-9.563,20.165-36.461,21.818-50.912.145-1.249.277-2.411.4-3.462,1.092-8.8,5.3-25.133,21.243-35.768a1.281,1.281,0,0,0,.351-1.783" transform="translate(-32.898 -111.949)" fill="#e4716d"/><path d="M176.268,233.7a1.3,1.3,0,0,0,1.821.18c10.581-8.61,22.447-9.779,31.975-10.72,7.648-.753,13.687-1.349,16.119-5.723a1.292,1.292,0,0,0-2.264-1.246c-1.777,3.194-7.22,3.731-14.112,4.413-9.357.921-22.167,2.184-33.356,11.287a1.28,1.28,0,0,0-.183,1.809" transform="translate(-74.446 38.657)" fill="#e4716d"/><path d="M170.174,274.156a1.275,1.275,0,0,0,.472.089,1.291,1.291,0,0,0,1.2-.818C187.1,234.684,201.535,226.549,221.3,225.6c20.106-.971,23.87-2.978,24.419-3.371a1.259,1.259,0,0,0,.31-1.73,1.326,1.326,0,0,0-1.762-.4c-.139.08-3.642,1.989-23.093,2.928-20.83,1.007-35.974,9.425-51.736,49.466a1.279,1.279,0,0,0,.732,1.665" transform="translate(-87.375 47.23)" fill="#e4716d"/><path d="M208.954,248.07a1.285,1.285,0,0,0,.652,2.4,1.3,1.3,0,0,0,.649-.174c15.514-8.964,22.122-34.147,16.452-47.71a1.3,1.3,0,0,0-1.694-.694,1.279,1.279,0,0,0-.7,1.68c5.236,12.527-1.275,36.358-15.363,44.5" transform="translate(-11.34 11.848)" fill="#e4716d"/><path d="M180.61,260.136c-3.35,14.05-.153,24.522,9.5,31.131a1.318,1.318,0,0,0,.735.224,1.3,1.3,0,0,0,1.065-.555,1.28,1.28,0,0,0-.331-1.789c-8.689-5.945-11.529-15.5-8.45-28.418,2.887-12.125,10.162-23.8,14.239-29.687,11.246-16.222,21.426-33.206,22.441-62.45a1.292,1.292,0,0,0-1.252-1.331,1.317,1.317,0,0,0-1.337,1.243c-.992,28.551-10.965,45.183-21.986,61.08-4.179,6.03-11.638,18.02-14.625,30.552" transform="translate(-67.914 -55.539)" fill="#e4716d"/><path d="M217.707,144.181a1.3,1.3,0,0,0-1.824.159c-7.916,9.377-8.648,29.242-8.279,35.461a1.291,1.291,0,0,0,1.293,1.21h.074a1.29,1.29,0,0,0,1.216-1.361c-.286-4.847.18-24.77,7.683-33.657a1.282,1.282,0,0,0-.162-1.812" transform="translate(-12.867 -101.167)" fill="#e4716d"/><path d="M213.746,148.568a1.3,1.3,0,0,0-1.558.953c-1.207,5-1.553,15.148-1.051,20.546a1.294,1.294,0,0,0,1.29,1.166.859.859,0,0,0,.121-.006,1.285,1.285,0,0,0,1.169-1.4c-.475-5.1-.142-15.027.989-19.714a1.288,1.288,0,0,0-.959-1.55" transform="translate(-6.259 -92.086)" fill="#e4716d"/><path d="M216.656,177.183a1.3,1.3,0,0,0,1.818.195c10.339-8.282,20.2-22.618,25.109-36.523a1.292,1.292,0,0,0-2.441-.85c-4.764,13.483-14.3,27.367-24.295,35.369a1.283,1.283,0,0,0-.192,1.809" transform="translate(4.385 -110.412)" fill="#e4716d"/><path d="M218.924,163.327a1.29,1.29,0,0,0,1.2-.809c3.816-9.5,9.327-16.93,14.038-18.934a1.286,1.286,0,0,0,.682-1.691,1.3,1.3,0,0,0-1.7-.673c-6.44,2.742-12.187,12.308-15.419,20.345a1.281,1.281,0,0,0,.723,1.671,1.311,1.311,0,0,0,.481.092" transform="translate(6.84 -106.565)" fill="#e4716d"/><path d="M183.584,279.781a1.291,1.291,0,0,0,1.29,1.16.894.894,0,0,0,.124-.006,1.288,1.288,0,0,0,1.163-1.4c-1.166-11.8,3.607-19.755,8.66-28.173,5.39-8.982,10.962-18.268,9.991-32.851-1.092-16.44,17.285-38.828,27.878-46.742a1.281,1.281,0,0,0,.26-1.8,1.3,1.3,0,0,0-1.812-.254c-6.284,4.69-13.6,12.775-19.109,21.092-4.832,7.3-10.452,18.055-9.8,27.872.918,13.784-4.445,22.721-9.634,31.367-5.044,8.4-10.263,17.1-9.011,29.74" transform="translate(-59.964 -51.263)" fill="#e4716d"/><path d="M205.575,169.4a22.948,22.948,0,0,0,5.044-5.283,1.292,1.292,0,0,0-2.2-1.361,20.763,20.763,0,0,1-4.519,4.681c-3.89,3.267-8.3,6.972-9.029,17.471a1.291,1.291,0,0,0,1.2,1.373l.089,0a1.292,1.292,0,0,0,1.29-1.2c.658-9.416,4.451-12.6,8.117-15.685" transform="translate(-37.568 -65.519)" fill="#e4716d"/><path d="M201.359,266.752c-6.1,4.823-9.6,15.26-8.515,25.384.744,6.936,4.306,19.714,19.814,27.35a1.288,1.288,0,1,0,1.148-2.305c-14.395-7.09-17.7-18.9-18.385-25.319-1-9.295,2.11-18.793,7.553-23.1a1.28,1.28,0,0,0,.207-1.806,1.3,1.3,0,0,0-1.821-.207" transform="translate(-41.909 138.085)" fill="#e4716d"/><path d="M200.755,268.967a1.3,1.3,0,0,0-1.765.49c-5.221,9.227-6.482,24.038,7.155,35.4a1.3,1.3,0,0,0,1.821-.159,1.279,1.279,0,0,0-.159-1.812c-12.42-10.354-11.293-23.8-6.555-32.17a1.286,1.286,0,0,0-.5-1.753" transform="translate(-36.698 142.628)" fill="#e4716d"/><path d="M204.67,289.925a1.307,1.307,0,0,0,1.03-.5,1.285,1.285,0,0,0-.239-1.8c-4.177-3.194-5.67-10-4.168-13.734a1.283,1.283,0,0,0-.723-1.671,1.3,1.3,0,0,0-1.679.714c-1.88,4.67-.3,12.689,4.991,16.73a1.3,1.3,0,0,0,.788.266" transform="translate(-31.209 149.114)" fill="#e4716d"/><path d="M249.4,229.151c-.378.437-9.392,10.652-25.965,5.729-11.119-3.306-20.98-2.485-27.757,2.311-5.649,4-8.828,10.676-9.194,19.312a1.288,1.288,0,0,0,1.237,1.34l.053,0a1.3,1.3,0,0,0,1.3-1.234c.337-7.928,3.067-13.757,8.111-17.326,6.024-4.262,15.319-4.971,25.517-1.942,18.253,5.425,28.262-6.042,28.675-6.532a1.28,1.28,0,0,0-.151-1.809,1.3,1.3,0,0,0-1.821.148" transform="translate(-53.947 64.368)" fill="#e4716d"/><path d="M251.257,200.738a1.279,1.279,0,0,0-.679,1.688c3.365,7.807,8.185,13.876,12.054,18.755,3.347,4.215,5.992,7.547,6.069,9.956a1.292,1.292,0,0,0,1.293,1.243h.044a1.291,1.291,0,0,0,1.251-1.325c-.106-3.256-2.984-6.88-6.623-11.467-3.775-4.758-8.48-10.682-11.712-18.173a1.3,1.3,0,0,0-1.7-.676" transform="translate(70.942 9.593)" fill="#e4716d"/><path d="M267.757,255.853a1.288,1.288,0,0,0,1.29,1.243h.044a1.287,1.287,0,0,0,1.249-1.328c-.086-2.659.67-6.027,1.464-9.59,2.276-10.162,5.109-22.807-8.008-31.6a1.288,1.288,0,1,0-1.446,2.131c11.65,7.816,9.144,19.026,6.93,28.914-.838,3.728-1.623,7.246-1.523,10.233" transform="translate(93.007 36.365)" fill="#e4716d"/><path d="M230.781,187.314c-4.306,3.371-8.025,8.273-11.966,13.465-5.682,7.488-11.559,15.23-19.611,18.8a1.287,1.287,0,0,0,1.054,2.349c8.663-3.84,14.743-11.854,20.623-19.6,3.837-5.053,7.462-9.826,11.5-12.99a1.281,1.281,0,0,0,.212-1.806,1.3,1.3,0,0,0-1.815-.215" transform="translate(-30.614 -16.939)" fill="#e4716d"/><path d="M197.761,222.764a1.281,1.281,0,0,0-.221,1.806,1.3,1.3,0,0,0,1.815.221c8.306-6.449,15.886-11.851,22.574-16.618,9.5-6.771,16.361-11.662,19.177-15.26a1.276,1.276,0,0,0-.23-1.8,1.3,1.3,0,0,0-1.815.224c-2.583,3.3-9.667,8.353-18.639,14.749-6.709,4.782-14.312,10.2-22.66,16.68" transform="translate(-32.898 -9.52)" fill="#e4716d"/><path d="M234.3,188.9a1.3,1.3,0,0,0-1.308,1.272c-.145,14.844-14.044,24.655-27,28.884a1.288,1.288,0,0,0,.812,2.444c17.615-5.753,28.645-17.748,28.778-31.3a1.289,1.289,0,0,0-1.281-1.3" transform="translate(-17.603 -13.296)" fill="#e4716d"/><path d="M216.521,241.015a1.3,1.3,0,0,0,1.83.006c3.232-3.191,5.661-9.23,6.5-16.157a43.206,43.206,0,0,0-3.453-22.969,1.292,1.292,0,0,0-2.352,1.068c6.615,14.377,2.993,30.794-2.515,36.234a1.278,1.278,0,0,0-.006,1.818" transform="translate(3.947 10.585)" fill="#e4716d"/><path d="M205.592,234.7c.044,0,.083,0,.127-.006,7.733-.75,17.028-7.887,25.918-15.487a1.278,1.278,0,0,0,.136-1.812,1.3,1.3,0,0,0-1.824-.136c-8.569,7.326-17.465,14.194-24.481,14.876a1.285,1.285,0,0,0,.124,2.565" transform="translate(-19.17 41.428)" fill="#e4716d"/><path d="M223.84,221.183a1.282,1.282,0,0,0,.706-1.679,1.3,1.3,0,0,0-1.691-.7,94.3,94.3,0,0,1-10.342,3.468c-6.083,1.756-10.481,3.022-15.118,8.436a1.287,1.287,0,0,0,.986,2.119,1.3,1.3,0,0,0,.986-.452c4.132-4.826,8-5.942,13.867-7.633a96.483,96.483,0,0,0,10.608-3.56" transform="translate(-33.248 44.866)" fill="#e4716d"/><path d="M195.825,224.21a1.277,1.277,0,0,0,.313-.038,111.781,111.781,0,0,1,13.557-2.072c7.438-.838,14.46-1.629,19.244-4.153a1.277,1.277,0,0,0,.534-1.738,1.3,1.3,0,0,0-1.747-.534c-4.351,2.3-11.452,3.1-18.318,3.87a113.251,113.251,0,0,0-13.893,2.134,1.284,1.284,0,0,0,.31,2.532" transform="translate(-38.231 38.656)" fill="#e4716d"/><path d="M214.5,168.415a1.3,1.3,0,0,0-1.647.8,130.424,130.424,0,0,1-7.934,17.9c-3.852,7.538-7.178,14.05-7.178,22.2a1.294,1.294,0,0,0,2.589,0c0-7.538,3.043-13.5,6.9-21.042a132.869,132.869,0,0,0,8.079-18.238,1.283,1.283,0,0,0-.806-1.632" transform="translate(-31.965 -53.418)" fill="#e4716d"/><path d="M205.125,187.567h.009a1.289,1.289,0,0,0,1.284-1.3,11.273,11.273,0,0,1,3.713-8.341,19.1,19.1,0,0,1,13.9-4.805,1.285,1.285,0,1,0,.124-2.568,21.742,21.742,0,0,0-15.812,5.517,13.756,13.756,0,0,0-4.507,10.215,1.287,1.287,0,0,0,1.293,1.278" transform="translate(-20.082 -49.154)" fill="#e4716d"/><path d="M203.975,182.112a1.281,1.281,0,0,0-.26-1.8,1.3,1.3,0,0,0-1.809.257c-1.077,1.423-2.107,2.674-3.105,3.881-4,4.846-7.161,8.675-6.591,16.612a1.286,1.286,0,0,0,1.284,1.2.853.853,0,0,0,.092-.006,1.289,1.289,0,0,0,1.2-1.373c-.493-6.916,2.1-10.05,6.015-14.8,1.012-1.228,2.06-2.5,3.17-3.967" transform="translate(-42.893 -30.571)" fill="#e4716d"/><path d="M196.77,170.381a1.282,1.282,0,0,0-.457,1.762,1.3,1.3,0,0,0,1.771.455c7.231-4.238,8.123-15.142,7.42-19.758a1.294,1.294,0,0,0-2.559.387c.593,3.893-.142,13.619-6.175,17.155" transform="translate(-35.107 -85.812)" fill="#e4716d"/><path d="M243.065,178.158c-1.93,1.263-4.622,1.721-8.025,2.3-7.022,1.2-16.638,2.831-30.2,12.453a1.281,1.281,0,0,0-.3,1.792,1.3,1.3,0,0,0,1.806.3c13.079-9.28,22.358-10.859,29.135-12.01,3.7-.629,6.623-1.128,9.008-2.686a1.289,1.289,0,1,0-1.423-2.149" transform="translate(-19.17 -34.687)" fill="#e4716d"/><path d="M230.617,160.29a1.3,1.3,0,0,0-1.759-.511,1.286,1.286,0,0,0-.514,1.747c8.365,15.18,8.383,32.14.041,45.363a1.29,1.29,0,0,0,2.19,1.364c8.849-14.023,8.864-31.954.041-47.964" transform="translate(27.446 -70.446)" fill="#e4716d"/><path d="M251.961,178.1c-3.607,4.587-12.444,7.538-20.239,10.142-6.234,2.081-12.122,4.047-15.142,6.718a1.285,1.285,0,0,0,.862,2.246,1.3,1.3,0,0,0,.859-.325c2.624-2.323,8.267-4.209,14.245-6.2,8.539-2.851,17.37-5.8,21.455-10.995a1.279,1.279,0,0,0-.224-1.806,1.3,1.3,0,0,0-1.815.221" transform="translate(3.948 -35.338)" fill="#e4716d"/><path d="M277.788,223.01l-1.561-1.561c-12.414-12.414-13.993-19.971-15.068-36.866a1.3,1.3,0,0,0-2.586.162c1.1,17.229,2.836,25.537,15.821,38.516l1.558,1.561c11.343,11.334,14.767,14.755,14.894,20.741a1.289,1.289,0,0,0,1.293,1.257h.027a1.292,1.292,0,0,0,1.269-1.313c-.151-7.016-3.743-10.605-15.647-22.5" transform="translate(86.748 -24.081)" fill="#e4716d"/><path d="M265.718,226.225a1.286,1.286,0,0,0,.531,2.462,1.262,1.262,0,0,0,.522-.112c4.581-2.037,7.665-5.4,8.693-9.46,1.063-4.212-.207-8.911-3.574-13.235a1.3,1.3,0,0,0-1.818-.23,1.28,1.28,0,0,0-.233,1.8c2.919,3.74,3.994,7.556,3.114,11.036-.827,3.285-3.394,6.033-7.234,7.736" transform="translate(99.202 18.858)" fill="#e4716d"/><path d="M258.9,206.339a1.347,1.347,0,0,0,.413-.068,23.9,23.9,0,0,0,8.551-5.006,1.276,1.276,0,0,0,.086-1.815,1.3,1.3,0,0,0-1.827-.089,21.382,21.382,0,0,1-7.633,4.472,1.285,1.285,0,0,0,.41,2.506" transform="translate(84.863 6.462)" fill="#e4716d"/><path d="M217.948,310.581a8.331,8.331,0,0,0,4.336-8.406,1.294,1.294,0,0,0-2.553.425,5.72,5.72,0,0,1-3.046,5.735,5.161,5.161,0,0,1-6.148-.711,6.266,6.266,0,0,1-2.547-5.268,7.458,7.458,0,0,1,3.61-5.452c4.144-2.621,9.3-5.88,8.687-12.7a1.295,1.295,0,0,0-2.58.227c.475,5.26-3.577,7.822-7.5,10.3a9.924,9.924,0,0,0-4.8,7.426c-.145,1.895.334,4.717,3.427,7.4a7.732,7.732,0,0,0,9.115,1.018" transform="translate(-17.052 170.407)" fill="#e4716d"/><path d="M217.8,271.072a1.294,1.294,0,0,0-2.574.277c.8,7.367-2.547,15.077-5.788,22.532-3.424,7.881-6.665,15.328-4.9,22a1.294,1.294,0,0,0,1.249.959,1.3,1.3,0,0,0,1.252-1.615c-1.535-5.818,1.529-12.866,4.776-20.331,3.371-7.76,6.862-15.788,5.983-23.828" transform="translate(-19.678 144.824)" fill="#e4716d"/><path d="M224.439,254.4a1.307,1.307,0,0,0-1.408-1.166,1.289,1.289,0,0,0-1.172,1.4c1.488,16.423-5.2,29.079-11.2,38.27-5.965,9.144-7.258,14.1-5.764,22.075a1.293,1.293,0,0,0,1.275,1.051,1.342,1.342,0,0,0,.236-.021,1.289,1.289,0,0,0,1.036-1.5c-1.367-7.285-.207-11.629,5.387-20.207,6.225-9.54,13.164-22.695,11.609-39.9" transform="translate(-19.113 112.242)" fill="#e4716d"/><path d="M219.164,262.3a1.3,1.3,0,0,0-1.585.909c-1.629,6.013-1.181,12.084-.741,17.958a66.413,66.413,0,0,1,.106,13.108,42.412,42.412,0,0,1-8.843,21.588,1.282,1.282,0,0,0,.221,1.806,1.3,1.3,0,0,0,1.815-.218,44.935,44.935,0,0,0,9.374-22.854,68.575,68.575,0,0,0-.092-13.619c-.44-5.918-.853-11.511.658-17.1a1.29,1.29,0,0,0-.915-1.576" transform="translate(-12.287 129.852)" fill="#e4716d"/><path d="M241.993,229.691a1.283,1.283,0,0,0-.77-1.65,1.3,1.3,0,0,0-1.662.764c-3.988,10.794-14.513,19.156-23.8,26.532-2.521,2-4.9,3.893-7.007,5.726a1.285,1.285,0,0,0,.853,2.252,1.3,1.3,0,0,0,.853-.319c2.063-1.792,4.419-3.666,6.916-5.649,9.079-7.211,20.381-16.187,24.619-27.657" transform="translate(-11.341 62.929)" fill="#e4716d"/><path d="M219.282,237.8a1.294,1.294,0,0,0-2.589,0c0,4.032-3.309,8.35-7.137,13.35-4.858,6.343-10.366,13.533-10.531,22.379a34.171,34.171,0,0,0,3,15.738,1.3,1.3,0,0,0,1.736.593,1.284,1.284,0,0,0,.593-1.721c-1.927-3.929-2.845-8.828-2.736-14.56.148-8.008,5.384-14.841,10-20.871,3.94-5.148,7.665-10.009,7.665-14.909" transform="translate(-29.481 79.608)" fill="#e4716d"/><path d="M199.727,275.648a1.272,1.272,0,0,0,.534.115,1.3,1.3,0,0,0,1.181-.756c2.594-5.685.785-18.365-2.462-23.681a1.3,1.3,0,0,0-1.774-.431,1.28,1.28,0,0,0-.437,1.768c2.845,4.655,4.519,16.449,2.311,21.281a1.286,1.286,0,0,0,.646,1.7" transform="translate(-34.233 107.323)" fill="#e4716d"/><path d="M203.306,262.1a1.293,1.293,0,0,0,1.29-1.187c.121-1.579,2.863-3.536,5.286-5.263,2.957-2.113,5.759-4.112,6.272-6.644a1.3,1.3,0,0,0-2.541-.508c-.31,1.544-2.931,3.415-5.242,5.065-3.158,2.252-6.139,4.38-6.355,7.152a1.287,1.287,0,0,0,1.19,1.381c.035,0,.068,0,.1,0" transform="translate(-23.634 100.988)" fill="#e4716d"/><path d="M190.672,212.374a1.3,1.3,0,0,0,2.506-.658c-.856-3.217.15-6.839,2.771-9.929,5.41-6.387,16.219-9.38,29.676-8.214a1.286,1.286,0,1,0,.224-2.562c-14.295-1.243-25.918,2.081-31.88,9.118-3.17,3.746-4.368,8.208-3.3,12.246" transform="translate(-46.512 -9.687)" fill="#e4716d"/><path d="M207.062,194.7c-7.668.888-8.636,8.914-9.41,15.363-.5,4.182-.98,8.135-3.017,8.468a1.285,1.285,0,0,0,.21,2.553,1.306,1.306,0,0,0,.213-.015c3.952-.649,4.542-5.531,5.165-10.7.877-7.293,1.9-12.506,7.14-13.114a1.285,1.285,0,1,0-.3-2.553" transform="translate(-40.142 -2.011)" fill="#e4716d"/><path d="M191.852,202.009a1.294,1.294,0,0,0-1.792.348c-6.629,9.773-4.451,21.55-1.815,25.685a1.294,1.294,0,0,0,2.19-1.378c-2.249-3.524-4.115-14.191,1.768-22.869a1.282,1.282,0,0,0-.351-1.786" transform="translate(-55.513 11.849)" fill="#e4716d"/><path d="M181.2,222.643a1.29,1.29,0,0,0,2.04,1.579c6.558-8.374,17.308-8.976,20.286-7a1.3,1.3,0,0,0,1.795-.354,1.283,1.283,0,0,0-.357-1.786c-4.141-2.742-16.311-1.954-23.763,7.565" transform="translate(-64.793 35.094)" fill="#e4716d"/><path d="M181.942,224.562a1.3,1.3,0,0,0-1.44,1.119c-1.6,12.9.422,19.847,8.02,27.512a1.3,1.3,0,0,0,1.836.012,1.283,1.283,0,0,0,.009-1.818c-7.028-7.09-8.8-13.262-7.3-25.39a1.29,1.29,0,0,0-1.128-1.434" transform="translate(-66.612 56.277)" fill="#e4716d"/><path d="M192.169,225.556c4.832-.614,9.876.552,14.327,1.579,4.058.939,7.261,1.679,9.6.956a1.278,1.278,0,0,0,.853-1.609,1.291,1.291,0,0,0-1.617-.847c-1.668.517-4.867-.224-8.253-1.007-4.43-1.024-9.938-2.3-15.239-1.626-4.41.561-7.748,3.811-9.162,8.914-1.443,5.2-.537,10.859,2.057,12.881a1.3,1.3,0,0,0,1.818-.221,1.282,1.282,0,0,0-.224-1.806c-1.544-1.2-2.367-5.806-1.157-10.171.661-2.382,2.447-6.467,7-7.043" transform="translate(-62.701 52.884)" fill="#e4716d"/><path d="M186.678,249.77a1.324,1.324,0,0,0,.307.035,1.293,1.293,0,0,0,1.254-.986c.906-3.754.685-10.868.032-21.125a1.3,1.3,0,0,0-2.586.159c.623,9.743.865,16.936.035,20.366a1.286,1.286,0,0,0,.956,1.55" transform="translate(-55.499 60.048)" fill="#e4716d"/><path d="M193.432,225.048c-2.217,1.1-2.53,4.082-2.893,7.532-.331,3.143-.705,6.706-2.55,9.029a1.292,1.292,0,0,0,2.037,1.591c2.305-2.907,2.721-6.862,3.09-10.351.257-2.473.525-5.029,1.476-5.5a1.279,1.279,0,0,0,.576-1.724,1.3,1.3,0,0,0-1.736-.576" transform="translate(-51.535 56.975)" fill="#e4716d"/><path d="M219.747,228.288a56.371,56.371,0,0,1-9.292-.171c-6.491-.458-13.194-.933-18.421,2.5a1.283,1.283,0,0,0-.366,1.783,1.3,1.3,0,0,0,1.083.576,1.284,1.284,0,0,0,.711-.212c4.489-2.955,10.753-2.512,16.807-2.081a59.323,59.323,0,0,0,9.737.162,1.286,1.286,0,1,0-.26-2.559" transform="translate(-44.238 62.608)" fill="#e4716d"/><path d="M191.859,232.175a1.3,1.3,0,0,0,1.83-.05c2.435-2.553,7.441-3.681,10.431-4.354l.694-.156a1.287,1.287,0,1,0-.587-2.506l-.676.154c-3.276.738-8.763,1.972-11.741,5.094a1.279,1.279,0,0,0,.05,1.818" transform="translate(-44.239 57.295)" fill="#e4716d"/><path d="M141.732,407.781a1.293,1.293,0,0,0,1.139,1.892,1.294,1.294,0,0,0,1.142-.682c20.88-38.955,60.065-69.079,81.562-83.569a1.281,1.281,0,0,0,.342-1.786,1.3,1.3,0,0,0-1.794-.342c-21.7,14.622-61.252,45.044-82.391,84.487" transform="translate(-141.578 248.547)" fill="#e4716d"/><path d="M239.132,344.892c-21.3-6.417-66.686.906-77.081,12.438a1.291,1.291,0,0,0,1.927,1.718c9.72-10.782,54.218-17.778,74.4-11.694a1.287,1.287,0,1,0,.75-2.462" transform="translate(-102.265 286.471)" fill="#e4716d"/><path d="M235.173,323.108a1.289,1.289,0,0,0,1.1.6,1.3,1.3,0,0,0,.688-.2c9.295-5.806,16.485-11.576,24.1-17.683,3.979-3.2,8.1-6.5,12.574-9.838a1.273,1.273,0,0,0,.257-1.8,1.293,1.293,0,0,0-1.809-.257c-4.513,3.368-8.648,6.682-12.648,9.891-7.553,6.063-14.69,11.786-23.855,17.509a1.281,1.281,0,0,0-.4,1.774" transform="translate(40.694 191.174)" fill="#e4716d"/><path d="M284.3,286.987c-15.065,7.2-27.837,13-38.1,17.651-17.538,7.952-28.123,12.754-33.4,16.871a1.285,1.285,0,0,0,.8,2.3,1.3,1.3,0,0,0,.794-.275c5.033-3.929,16.107-8.949,32.872-16.553,10.277-4.658,23.064-10.458,38.15-17.674a1.287,1.287,0,0,0,.605-1.718,1.3,1.3,0,0,0-1.727-.6" transform="translate(-3.539 177.873)" fill="#e4716d"/><path d="M191.092,303.755a110.969,110.969,0,0,0,16.482,1.154c8.654,0,19.513-.939,29.546-4.5a1.286,1.286,0,1,0-.871-2.42c-20.1,7.143-44.493,3.273-44.735,3.232a1.287,1.287,0,1,0-.422,2.538" transform="translate(-47.058 199.435)" fill="#e4716d"/><path d="M249.931,206.564c.75,11.287,10.809,22.125,16.821,28.6,1.393,1.5,2.594,2.789,3.279,3.678a1.294,1.294,0,0,0,1.812.233,1.279,1.279,0,0,0,.239-1.8c-.756-.977-1.933-2.246-3.427-3.855-5.779-6.225-15.452-16.647-16.139-27.025a1.3,1.3,0,0,0-1.375-1.2,1.29,1.29,0,0,0-1.21,1.367" transform="translate(69.88 18.493)" fill="#e4716d"/><path d="M269.337,233.536a1.239,1.239,0,0,0,.31.038,1.292,1.292,0,0,0,1.254-.977c1.6-6.4-3.565-11.635-8.554-16.694-.847-.856-1.688-1.712-2.5-2.574a1.3,1.3,0,0,0-1.827-.059,1.276,1.276,0,0,0-.059,1.818c.823.877,1.682,1.744,2.538,2.615,4.7,4.764,9.144,9.265,7.9,14.274a1.284,1.284,0,0,0,.945,1.558" transform="translate(84.866 33.578)" fill="#e4716d"/><path d="M276.719,256.174a1.551,1.551,0,0,0,.162.009,1.29,1.29,0,0,0,1.284-1.125c1.1-8.769-9.241-21.765-16.792-31.258-3.049-3.834-5.933-7.456-6.29-8.754a1.3,1.3,0,0,0-1.591-.9,1.285,1.285,0,0,0-.906,1.582c.472,1.718,2.76,4.643,6.756,9.669,6.857,8.619,17.22,21.644,16.252,29.342a1.292,1.292,0,0,0,1.124,1.434" transform="translate(74.978 35.875)" fill="#e4716d"/><path d="M253.625,199.53a1.283,1.283,0,0,0-.767,1.65c2.225,6,7.453,13.421,7.671,13.734a1.3,1.3,0,0,0,1.8.313,1.282,1.282,0,0,0,.316-1.792c-.056-.074-5.254-7.456-7.361-13.144a1.3,1.3,0,0,0-1.662-.762" transform="translate(75.442 7.283)" fill="#e4716d"/><path d="M255.146,208.444l-.139-.3a1.3,1.3,0,0,0-1.724-.62,1.29,1.29,0,0,0-.623,1.712l.142.3c1.331,2.825,4.451,9.445,8.495,12.335a1.288,1.288,0,1,0,1.511-2.087c-3.495-2.5-6.52-8.923-7.662-11.34" transform="translate(74.978 22.814)" fill="#e4716d"/><path d="M280.475,219.108c-1.328-5.508-3.052-10.8-4.687-15.8-3.211-9.832-5.992-18.321-4.5-24.793l.006-.027c5.248-25.015,8.563-38.17,20.939-40.322a1.285,1.285,0,1,0-.443-2.533c-14.687,2.553-18.185,19.238-23.026,42.329l-.151.72c-5.038,24.05-11.922,56.978-58.716,55.039a1.306,1.306,0,0,0-1.349,1.231,1.29,1.29,0,0,0,1.24,1.34c1.352.056,2.677.086,3.967.086,39.318,0,49.977-25.688,55.239-47.441a132.916,132.916,0,0,0,4.336,15.165c1.647,5.047,3.394,10.4,4.708,15.945l-.027.03a1.291,1.291,0,0,0-.094,1.054s.605,1.742.942,2.733a60.917,60.917,0,0,1,1.018,18.114c-2.907,27.122-21.981,42.515-52.294,42.288h-.009a1.285,1.285,0,1,0-.012,2.571c.239,0,.475,0,.711,0,30.948,0,51.181-16.629,54.177-44.59.027-.266.041-.528.068-.791a20.217,20.217,0,0,0,6.55.883c1.8,0,3.539-.127,4.9-.263,4-.4,5.944-3.1,7.107-4.7a7.517,7.517,0,0,1,.829-1.039,1.669,1.669,0,0,0,1.461-1.364c.2-1.367-1.063-2.1-5.08-4.218-3.9-2.048-10.369-.218-15.658,1.992q-.071-1.094-.171-2.181c5.832-3.176,17.143-2.8,20.2.85a1.3,1.3,0,0,0,1.827.165,1.278,1.278,0,0,0,.165-1.809c-3.9-4.655-15.788-4.912-22.506-1.913-.142-1.039-.3-2.072-.481-3.1a189.172,189.172,0,0,1,22.1-3.144c3.766-.31,5.322-.437,5.88-2.68a2.063,2.063,0,0,0-.531-1.989c-2.081-2.125-11.724-1.39-28.631,2.166m2.252,16.4c6.526-2.845,11.863-3.79,14.345-2.485.738.39,2,1.057,2.9,1.588a11.586,11.586,0,0,0-1,1.257c-1.08,1.5-2.426,3.362-5.263,3.648-5.151.517-9.333.195-11.01-.8.038-1.074.053-2.143.033-3.205m20.818-16.458a189.834,189.834,0,0,0-22.373,3.179c-.041-.2-.083-.41-.127-.614,17.376-3.645,24.342-3.63,25.945-3.014a16.622,16.622,0,0,1-3.445.449" transform="translate(-10.886 -117.307)" fill="#e4716d"/><path d="M249.341,173.784c.635,1.523,4.268,1.257,5.366,1.139a7.373,7.373,0,0,1,.962.124,18.859,18.859,0,0,0,3.321.325,16.99,16.99,0,0,0,3.943-.478c4.643-1.1,5.4-4.357,5.679-5.584a2.759,2.759,0,0,1,.08-.325c.756-2.326-1.387-3.12-3.459-3.884-3.421-1.266-9.87,1.653-11.7,2.8-2.553,1.594-4.888,4.2-4.188,5.88m5.567-3.7c2.087-1.308,7.379-3.326,9.425-2.571a13.514,13.514,0,0,1,1.862.8c-.033.121-.071.266-.109.431-.269,1.163-.673,2.928-3.751,3.657a14.433,14.433,0,0,1-6.234.118,8.537,8.537,0,0,0-1.37-.162c-.1,0-.2.006-.3.015a15.415,15.415,0,0,1-2.172.027,9.808,9.808,0,0,1,2.651-2.311" transform="translate(68.489 -60.363)" fill="#e4716d"/><path d="M251.547,171.47c4.02-5.322,9.368-6.316,11.795-5.691.788.2,1.308.564,1.361.945a1.294,1.294,0,0,0,2.565-.351c-.207-1.476-1.4-2.6-3.273-3.084-3.949-1.012-10.216.936-14.522,6.638a1.287,1.287,0,0,0,1.036,2.057,1.3,1.3,0,0,0,1.039-.514" transform="translate(68.488 -63.79)" fill="#e4716d"/><path d="M264.91,186.33a17.229,17.229,0,0,0,5.986-.047c1.263-.248,7.8-.263,9.005.375a1.305,1.305,0,0,0,1.662.307,1.279,1.279,0,0,0,.469-1.756c-1.4-2.406-11.443-1.523-11.839-1.4a15.563,15.563,0,0,1-4.971-.032c-1.266-.154-3.418.39-7.426,1.443-5.313,1.4-12.6,3.312-17.293,2.656a1.285,1.285,0,0,0-.714,2.444c4.534,2.054,14.6,6.618,26.178,6.618,1.16,0,2.338-.044,3.524-.145a19.591,19.591,0,0,0,7.323-2.214,1.278,1.278,0,0,0,.543-1.736,1.3,1.3,0,0,0-1.747-.54,17.067,17.067,0,0,1-6.334,1.927,50.224,50.224,0,0,1-20.159-2.907c3.536.151,7.264.221,10.747.221,6.4,0,11.957-.236,13.914-.646a1.287,1.287,0,1,0-.537-2.518c-2.391.5-10.974.717-19.472.519,1.65-.4,3.241-.812,4.69-1.192,2.766-.729,5.626-1.482,6.452-1.378" transform="translate(48.608 -23.747)" fill="#e4716d"/><path d="M457.189,252.594a37.384,37.384,0,0,0,.059-6.281c-.823-10.632-6.319-20.148-15.9-27.512a1.3,1.3,0,0,0-1.815.227,1.279,1.279,0,0,0,.23,1.806c8.988,6.91,14.141,15.788,14.906,25.676a37.716,37.716,0,0,1-9.973,28.093,1.279,1.279,0,0,0,.047,1.818,1.3,1.3,0,0,0,1.83-.05,40.81,40.81,0,0,0,10.307-21.219c25.431,5.224,41.6,26.437,49.392,64.832,9.061,44.652,21.476,105.8,25.989,119.1,4.463,13.146,11.933,35.154-17.394,47.037-17.571,7.122-34.227,12.412-47.607,16.665-9.909,3.149-17.739,5.637-22.943,7.9-.03.012-.047.035-.077.05a1.409,1.409,0,0,0-.183.121,32.241,32.241,0,0,0-8.855,4.05c-.325.286-.894.906-1.951,2.063a70.765,70.765,0,0,1-7.7,7.63c-3.468,2.553-8.955,9.076-10.458,11.127a83.59,83.59,0,0,1-10.121,10.883c-.032.03-.068.047-.1.074a6.858,6.858,0,0,0,1.16-3.687,3.253,3.253,0,0,0-1.387-2.547c-1.635-1.175-3.675-.77-5.658.381A126.479,126.479,0,0,1,409.1,528.608a30.6,30.6,0,0,0,5.472-8.011c1.4-2.662,4.947-6.857,7.066-9.36.581-.691,1.063-1.26,1.384-1.656,1.219-1.523,2.893-3.607,7.9-5.611a1.288,1.288,0,1,0-.971-2.385c-5.2,2.081-7.273,4.3-8.952,6.39-.31.384-.776.939-1.343,1.606-.844,1-1.907,2.261-2.987,3.6-.986.761-8.07,6.249-9.994,8.486-.983,1.145-2.931,2.987-4.814,4.77-1.789,1.688-3.471,3.282-4.433,4.362-.791.891-3.031,3.185-5.413,5.608-3.524,3.6-7.172,7.323-8.2,8.616-1.086,1.361-4.194,4.451-6.939,7.175-1.473,1.467-2.907,2.893-4.038,4.053a7.4,7.4,0,0,1-1.555,1.284c1.03-1.786,2.045-4.5,1.727-6.712a4.165,4.165,0,0,0-2.1-3.176,5.054,5.054,0,0,0-4.693-.2c1.042-1.172,1.848-2.125,2.252-2.612,5.254-6.328,11.408-13.489,13.312-15.216,2.19-1.989,25.593-24.41,27.025-25.974a1.276,1.276,0,0,0-.08-1.815,1.3,1.3,0,0,0-1.827.083c-1.426,1.547-24.681,23.828-26.866,25.806-2.131,1.939-8.636,9.551-13.56,15.481a77.557,77.557,0,0,1-9.5,9.79c1.461-2.529,2.778-5.965.28-8.164-1.718-1.514-4.472-.582-7.06,1.192,1.083-1.375,2.571-3.43,4.469-6.071,1.724-2.4,3.5-4.882,4.277-5.744.5-.561,1.322-1.426,2.3-2.456a100.3,100.3,0,0,0,8.117-9.2c.756-1.089,1.4-2.128,2.031-3.132a28.752,28.752,0,0,1,4.236-5.7c.617-.614,1.325-1.319,2.1-2.1,2.648-2.656,6.275-6.29,10.272-9.9,5.189-4.69,6.677-6.83,7.571-10.9a1.282,1.282,0,0,0-.989-1.529,1.3,1.3,0,0,0-1.541.983c-.72,3.3-1.7,4.953-6.786,9.545-4.041,3.651-7.7,7.314-10.366,9.988-.773.776-1.476,1.476-2.093,2.084a31.34,31.34,0,0,0-4.61,6.172c-.608.98-1.24,1.989-1.96,3.025a101.017,101.017,0,0,1-7.866,8.893c-1,1.057-1.845,1.945-2.355,2.518-.773.865-2.255,2.907-3.881,5.168a3.649,3.649,0,0,0-2-.44,5.331,5.331,0,0,0-2.727,1.125c1.1-1.9,2.305-3.749,2.937-4.708,1.006-1.535,1.942-2.887,2.822-4.156,1.322-1.907,2.571-3.707,3.7-5.635,1.806-3.076,7.361-12.258,10.281-16.927,1.851-2.955,8.276-11.036,14.1-17.426a1.275,1.275,0,0,0-.086-1.818,1.3,1.3,0,0,0-1.83.092c-3.69,4.047-8.046,9.274-11.119,13.265-.018.018-.044.026-.062.047a4.623,4.623,0,0,1-2.276,1.331c-1.414.257-4.185-.525-5.918-1.656-.413-.732,1.494-4.59,4.014-6.948a18.85,18.85,0,0,0,3.167-3.486,1.283,1.283,0,0,0-.094-1.452,1.307,1.307,0,0,0-1.4-.431c-.056.018-.121.038-.18.059a9.4,9.4,0,0,1,2.158-3.406c1.978-2.016,5.275-2.019,9.088-2.022,1.11,0,2.252,0,3.412-.05,3.926-.165,6.836-1.618,9.649-3.023,1.287-.641,2.615-1.3,4.044-1.851,4.43-1.688,6.691-2.462,8.294-2.22.865.127,4.38.853,8.1,1.623,4.48.924,9.554,1.975,12.311,2.462,4.354.779,9.2-2.406,12.412-4.51a18.935,18.935,0,0,1,2.028-1.243c.493-.207,1.057-.434,1.688-.691,6.827-2.766,21.033-8.521,33.905-22.314,1.721-1.842,3.557-3.778,5.478-5.711.044,0,.092.018.139.018a1.294,1.294,0,0,0,1.284-1.437,108.113,108.113,0,0,1,9.448-8.424,1.276,1.276,0,0,0,.221-1.8,1.3,1.3,0,0,0-1.818-.221,107.873,107.873,0,0,0-9.053,8.008c-6.269-12.1-12.485-31.517-17.529-47.294l-1.37-4.277a93.582,93.582,0,0,1,6.048-21.423c3.548-8.453-1.933-32.659-7.739-58.288-2.612-11.532-5.316-23.456-7.1-33.719a1.3,1.3,0,0,0-2.553.44c1.8,10.325,4.513,22.282,7.131,33.843C461.581,335.074,467.227,360,464,367.7a101.2,101.2,0,0,0-7.034,27.843c-.041.328-4.6,33.176-21.473,46.441-5.788,4.548-12.355,11.573-18.991,20.316a1.287,1.287,0,0,0,1.03,2.06,1.311,1.311,0,0,0,1.039-.511c6.5-8.571,12.91-15.434,18.527-19.85,14.838-11.659,21.184-38.445,22.415-47.987,5.124,16.033,11.414,35.532,17.807,47.571-1.992,2.007-3.9,4.014-5.676,5.921-12.488,13.377-26.334,18.988-32.987,21.682-.646.263-1.222.5-1.718.7a18.472,18.472,0,0,0-2.45,1.467c-2.689,1.765-7.2,4.717-10.528,4.123-2.719-.481-7.778-1.526-12.237-2.45-3.926-.809-7.311-1.508-8.25-1.647-2.22-.331-4.631.466-9.6,2.364a45.939,45.939,0,0,0-4.28,1.951c-2.689,1.343-5.23,2.612-8.6,2.754-1.122.047-2.226.047-3.3.047-4.215,0-8.2.006-10.942,2.8a11.531,11.531,0,0,0-3.288,6.47,11.4,11.4,0,0,0-5.558,6.021c-.894,2.509-1.012,4.377-.354,5.558a2.211,2.211,0,0,0,1.458,1.119,2.47,2.47,0,0,0,.493.419,12.842,12.842,0,0,0,2.305,1.184c-14.457-2.727-46.585-10.328-52.7-13.456-7.633-3.9-52.68-20.883-77.069-28.761a1.288,1.288,0,1,0-.8,2.447c23.758,7.671,69.31,24.829,76.686,28.6,7.158,3.663,45.546,12.414,56.978,14.324-3.058,4.941-7.665,12.574-9.286,15.328-1.083,1.848-2.252,3.527-3.6,5.472-.891,1.29-1.842,2.659-2.863,4.212-1.514,2.314-2.775,4.345-3.728,6.116-13.495-.372-38.309-1.172-83.938-10.888-15.723-3.347-63.569-13.536-75.709-21.532-.992-.652-1.966-1.275-2.91-1.883-10.463-6.712-17.376-11.145-16.024-32.813.094-1.541.215-3.937.375-7.057,1.485-29.43,6-118.985,22.757-165.411a1.294,1.294,0,0,0-2.438-.868c-16.886,46.786-21.417,136.627-22.9,166.149-.156,3.105-.277,5.493-.372,7.028-1.446,23.173,6.783,28.451,17.2,35.133.939.6,1.9,1.219,2.887,1.865,8.445,5.564,33.5,12.727,76.6,21.907,44.614,9.5,69.451,10.52,83.274,10.912a7.753,7.753,0,0,0-.688,3.161,5.949,5.949,0,0,0-.794,4.274,3.584,3.584,0,0,0,1.505,2.066,5.768,5.768,0,0,0-.26,1.992,4.755,4.755,0,0,0-.555,2.217,4.255,4.255,0,0,0,1.694,3.2,6.224,6.224,0,0,0,4.026,1.594,5.669,5.669,0,0,0,.738-.05,6.311,6.311,0,0,0,2.485-.945c.13-.012.26-.032.413-.059,2-.354,4.634-2.264,7.187-4.557a6.6,6.6,0,0,0-.691,3.049,4.132,4.132,0,0,0,2.208,3.424,7.871,7.871,0,0,0,3.917,1.19,5.615,5.615,0,0,0,3.031-.9c.286.026.584.062.856.062a7.057,7.057,0,0,0,5.4-2.574c1.119-1.151,2.541-2.568,4.005-4.02,2.3-2.29,4.655-4.628,6.133-6.246,5.974,5.738,21.618,7.633,28.905,6.676.72-.091,1.408-.192,2.081-.292a51.644,51.644,0,0,1,11.2-.617c3.743.156,9.138.974,13.477,1.629,3.633.549,5.9.882,7.14.924,3.338,1.812,20.089,8.932,25.089,9.543a18.531,18.531,0,0,0,2.255.148c2.925,0,4.28-.871,5.1-1.62.021,0,.038.009.059.009a3.99,3.99,0,0,0,1.927-.537,7.38,7.38,0,0,0,5.015,1.821,11.515,11.515,0,0,0,2.255-.263,2.345,2.345,0,0,0,.956.2,3.27,3.27,0,0,0,.629-.065,6.193,6.193,0,0,0,1.812-.75,5.851,5.851,0,0,0,1.939.331,6.47,6.47,0,0,0,4.784-2.155c2.11-2.293-1.054-6.045-4.717-10.387-.679-.8-1.334-1.585-1.936-2.338a2.777,2.777,0,0,0-.478-1.733c-.8-1.1-13.016-14.628-15.794-17.541l-.726-.768c-2.981-3.146-5.8-6.116-9.625-6.883-2.379-.478-11.827-6.3-18.669-10.95,5.021-1.984,11.99-4.2,20.528-6.913,13.421-4.265,30.13-9.575,47.79-16.733,31.582-12.8,23.315-37.155,18.864-50.266s-16.845-74.18-25.9-118.767c-8.04-39.625-24.938-61.509-51.618-66.88M345.234,547.657c-.1-.369-.242-1.795,2.137-4.681,2.1-2.547,3.3-3.141,3.94-3.188a1.089,1.089,0,0,1,.266.021,70.394,70.394,0,0,1-4.531,5.921,10.378,10.378,0,0,0-1.7,2.178,1.145,1.145,0,0,1-.115-.251m8.185,6.1c-1.237,1.812-2.58,2.866-3.887,3.046a3.491,3.491,0,0,1-2.733-.959,1.726,1.726,0,0,1-.782-1.3c-.032-1.44,2.285-3.58,3.4-4.61,2.609-2.406,4.74-3.3,5.682-3.3a.676.676,0,0,1,.44.118c1.659,1.461-1.187,5.635-2.119,7.007m14.911,3.53a9.069,9.069,0,0,1-1.009.918l-.036.024c-.992.732-2.284,1.08-4.5-.195a1.593,1.593,0,0,1-.924-1.355c-.112-1.839,2.107-4.687,3.749-5.915a4.911,4.911,0,0,1,2.825-1.234,2.319,2.319,0,0,1,1.2.357,1.581,1.581,0,0,1,.8,1.3c.307,2.11-1.34,5.313-2.113,6.1m26.378-7.311c-3.477-1.045-6.449-2.447-8.164-4.165,1.494-1.653,4.554-4.779,7.329-7.609,2.5-2.553,4.666-4.761,5.5-5.7.886-.995,2.606-2.624,4.271-4.2,1.936-1.827,3.932-3.716,5.006-4.962a32.328,32.328,0,0,1,3.043-2.828,25.652,25.652,0,0,1-4.422,6.284c-2.116,2.108-9.082,10.192-11.73,14.554a9.35,9.35,0,0,0-1.523,3.985,3.92,3.92,0,0,0,.691,4.643m4.758-.936a2.061,2.061,0,0,1-2.544-.457c-.67-.635-.968-1.464-.717-1.871a1.238,1.238,0,0,0,.109-.165c2.128-2.515,4.643-4.209,6.089-4.209a1.228,1.228,0,0,1,.723.2v0a.692.692,0,0,1,.31.6c.071,1.219-1.337,3.45-3.321,5.342a1.279,1.279,0,0,0-.649.558m81.571,12.214a2.2,2.2,0,0,1-.357.21,5.59,5.59,0,0,0-2.09-1.184c-.62-.254-1.387-.57-2.261-.995-1.739-.853-1.848-1.874-1.665-3.037,2.4.773,6.55,2.775,7.143,3.784a1.829,1.829,0,0,1-.77,1.222m-6.2-7.609a1.589,1.589,0,0,0-.968-1.045c-.688-.289-4.513-2.426-7.3-3.982-1.966-1.1-3.778-2.108-4.643-2.568a19.067,19.067,0,0,1-2.06-1.4c-2.293-1.691-5.437-4.005-9.445-4.5-2.9-.354-8.362-1.718-12.745-2.813-3.335-.832-5.968-1.491-7.1-1.629a1.286,1.286,0,1,0-.313,2.553c.971.118,3.793.823,6.78,1.57,4.457,1.113,10,2.5,13.064,2.872,3.332.407,6.042,2.4,8.22,4.008a20.324,20.324,0,0,0,2.382,1.609c.859.454,2.648,1.452,4.593,2.538,3.391,1.892,5.847,3.259,7.016,3.852-.021.112-.047.236-.062.342-.3,1.508-.93,4.646,2.934,6.538.939.463,1.756.8,2.415,1.066.038.018.074.032.115.047-.779.4-2.1.7-4.669.381-4.507-.549-22-7.913-24.38-9.368a1.244,1.244,0,0,0-.714-.189c-.962.018-3.92-.422-7.06-.9-4.4-.667-9.876-1.494-13.758-1.659a53.786,53.786,0,0,0-11.688.643c-.658.1-1.334.195-2.043.289a46.156,46.156,0,0,1-12.757-.558,4.571,4.571,0,0,0,.6-.413,9.663,9.663,0,0,0,5.393-2.352,85.857,85.857,0,0,0,10.546-11.334c1.561-2.131,6.812-8.3,9.906-10.576a36.3,36.3,0,0,0,3.876-3.5,1.276,1.276,0,0,0,1.033.862c4.1.584,10.838,2.807,16.252,4.593,3.382,1.119,6.054,2,7.429,2.27A25.617,25.617,0,0,1,467,535.76c2.388,1.907,15.136,14.123,17.417,16.653-.062.1-.127.2-.186.289a5.408,5.408,0,0,0-1.107,4.537,5.463,5.463,0,0,0,.286.767c-2.013-2.048-6.576-3.766-8.571-4.362m9.07,8.155a3.963,3.963,0,0,0,.49-1.883,1.7,1.7,0,0,0-.041-.239,29.05,29.05,0,0,0,2.527,3.2,4.882,4.882,0,0,1-2.975-1.074m8.185-8.577c.224.263.446.528.673.8,1.768,2.1,5.065,6,4.793,7a4,4,0,0,1-2.072,1.216,3.091,3.091,0,0,0,.351-.593c.564-1.423-1.818-3.94-4.3-6.077l-.012-.015a9.977,9.977,0,0,1,.564-2.326m1.136,7.742a6.942,6.942,0,0,1-2.845,1.854c-1.157-1.128-4.292-4.548-4.767-6.26a2.5,2.5,0,0,1,.517-2.025,38.079,38.079,0,0,1,7.1,6.432m-27.553-35.34c3.022.6,5.446,3.164,8.253,6.125l.735.773c3.211,3.371,14.929,16.408,15.549,17.24a1.257,1.257,0,0,1,0,.52v.015a16.365,16.365,0,0,1-.578,2.137c-.136.422-.272.847-.387,1.266-.876-.679-1.629-1.228-2.1-1.561a1.663,1.663,0,0,0-.142-.57c-.658-1.417-16.626-16.414-18.38-17.813a28.126,28.126,0,0,0-12.438-5.387c-1.219-.239-3.952-1.142-7.116-2.187-5.437-1.792-12.164-4.008-16.511-4.661.948-1,1.848-1.983,2.612-2.819.785-.856,1.523-1.665,1.759-1.871.844-.747,6.526-3.4,7.695-3.489a.616.616,0,0,0,.074-.006c4.3,2.966,17.228,11.535,20.983,12.288" transform="translate(-97.629 44.523)" fill="#e4716d"/></g></g></svg>