<svg xmlns="http://www.w3.org/2000/svg" width="149.784" height="48.492" viewBox="0 0 149.784 48.492"><path d="M1839.532,919.994l6.347-6.347a8.077,8.077,0,0,1,5.71-2.365h73.369a16.151,16.151,0,0,0,16.151-16.151V891.9a16.152,16.152,0,0,0-16.151-16.151H1809.476a16.152,16.152,0,0,0-16.151,16.151v3.23a16.151,16.151,0,0,0,16.151,16.151h7.148a8.075,8.075,0,0,1,5.71,2.365l6.348,6.347A7.672,7.672,0,0,0,1839.532,919.994Z" transform="translate(-1792.325 -874.749)" fill="none" stroke="#e78f62" stroke-width="2"/></svg>