<svg xmlns="http://www.w3.org/2000/svg" width="636.853" height="132.407" viewBox="0 0 636.853 132.407"><g transform="translate(-2211.147 -680.025)"><g transform="translate(0 3)"><path d="M68.315,357.624H64.164v42.353h14.02V376.286h2.337v23.691H94.54V357.624H90.382c-5.78,0-10.431,5.485-10.9,11.232l.021.727h-.3l.012-.727C78.758,363.112,74.1,357.624,68.315,357.624Z" transform="translate(2151.547 321.422)" fill="#e4716d"/><path d="M91.03,395.691c.347.035,1.052.035,1.722.028.017,0,3.186.329,4.61-.537s3.242-2.232,3.242-8.492-2.837-8.727-6.344-8.727l0,0V367.208c0-.124.009-.249.023-.373h3.276c1.6,0,2.079.58,2.079.58v-2.539H91.087a8.373,8.373,0,0,1,.445,2.334v26.218S91.406,395.378,91.03,395.691Zm3.229-15.807c2.23,0,3.036,2.542,3.036,8.123a11.159,11.159,0,0,1-.823,5.032h0a2.579,2.579,0,0,1-2.215.83Z" transform="translate(2165.771 325.261)" fill="#e4716d"/><path d="M104.194,378.22a13.02,13.02,0,0,0-5.9,10.749c0,3.776,2.386,5.179,4.345,5.179a2.04,2.04,0,0,0,2-1.113,3.446,3.446,0,0,0,1.288,1.224l1.849-2.3a2.671,2.671,0,0,1-1-2.054V372.624c0-.132-.112-4.2-3.889-4.2-3.84,0-4.345,5.142-4.345,6.583s.437,1.621.437,1.621h2.458a9.849,9.849,0,0,1-.288-2.982c.072-1.8.18-3.674,1.63-3.674,1.268,0,1.424,1.372,1.424,2.658v5.593Zm.012,13.2c-.069.633-.4,1-1.24,1l0,0c-.968,0-1.543-1.24-1.543-4.308,0-5.592,2.635-7.606,2.785-7.71Z" transform="translate(2169.617 327.141)" fill="#e4716d"/><path d="M110.922,393.516h3.614a5.141,5.141,0,0,1-.523-1.939v-22.9h-3.089a5.113,5.113,0,0,1,.523,1.942v9.3h-2.93V368.678h-3.094a5.148,5.148,0,0,1,.517,1.942v20.956a5.2,5.2,0,0,1-.517,1.939h3.613a5.172,5.172,0,0,1-.52-1.939V381.363h2.93v10.214A5.14,5.14,0,0,1,110.922,393.516Z" transform="translate(2173.39 327.274)" fill="#e4716d"/><path d="M112.627,393.515h3.617a5.161,5.161,0,0,1-.517-1.939v-8.625l1.283-3.125,2.664,11.754h-.006a4.91,4.91,0,0,1-.119,1.939h3.065l-3.908-17.781,2.921-7.061h-2.742a5.412,5.412,0,0,1-.032,1.9l-3.126,8.005v-9.9h-3.1a5.136,5.136,0,0,1,.523,1.945v20.953A5.134,5.134,0,0,1,112.627,393.515Z" transform="translate(2177.205 327.274)" fill="#e4716d"/><path d="M137.969,364.875h-3.611l-3.111,12.479-3.115-12.479h-3.547c.375.318.5,2.149.5,2.149V393.2a8.281,8.281,0,0,1-.45,2.337h3.629a8.387,8.387,0,0,1-.447-2.337V373.518l3.424,16.108,3.487-16.468V393.2a8.456,8.456,0,0,1-.442,2.337h3.625a8.462,8.462,0,0,1-.445-2.337V367.022S137.6,365.2,137.969,364.875Z" transform="translate(2183.536 325.261)" fill="#e4716d"/><path d="M133.337,364.875h0Z" transform="translate(2188.169 325.261)" fill="#e4716d"/><path d="M139.208,368.426a1.459,1.459,0,0,0-.182-.012c-3.715,0-4.443,6.072-4.443,11.532s-.05,14.184,4.625,14.2c4.674-.012,4.623-8.727,4.623-14.2s-.733-11.532-4.443-11.532A1.414,1.414,0,0,0,139.208,368.426Zm1.083,2.505a59.436,59.436,0,0,1,.352,8.729h0c0,3.14.012,11.234-.6,12.421a.917.917,0,0,1-1.675,0c-.61-1.187-.593-9.281-.593-12.421a59.43,59.43,0,0,1,.349-8.729c.191-.681.612-.951,1.013-.951h.145C139.676,369.98,140.1,370.251,140.291,370.931Z" transform="translate(2188.829 327.135)" fill="#e4716d"/><path d="M147.69,376.692H150.3s.145-.092.286-.671c.291-1.87-.384-7.606-4.1-7.606s-4.44,6.07-4.44,11.535-.047,14.195,4.633,14.195,4.3-10.36,4.3-11.221-.393-1.011-.393-1.011h-2.75s.242.623.436,1.34a31.6,31.6,0,0,1,.047,5.326c-.095,1.3-.107,4.045-1.652,4.045a.973.973,0,0,1-.832-.541c-.618-1.193-.606-9.281-.606-12.419a59.838,59.838,0,0,1,.349-8.727c.19-.681.609-.953,1.017-.953,1.881,0,1.578,4.694,1.485,5.274A11.883,11.883,0,0,1,147.69,376.692Z" transform="translate(2192.78 327.135)" fill="#e4716d"/><path d="M169.792,393.517h3.614a5.2,5.2,0,0,1-.515-1.941v-22.9h-3.1a5.127,5.127,0,0,1,.526,1.949v20.947A5.132,5.132,0,0,1,169.792,393.517Z" transform="translate(2207.471 327.274)" fill="#e4716d"/><path d="M163.258,393.522h2.654a6.919,6.919,0,0,0,3.278-.541c1.314-.8,2.969-2.046,2.969-7.768s-2.6-7.994-5.807-7.994h0v-8.54h-3.091a5.168,5.168,0,0,1,.52,1.945v20.955A5.153,5.153,0,0,1,163.258,393.522Zm3.089-14.542c2.04,0,2.773,2.32,2.773,7.442a9.992,9.992,0,0,1-.753,4.593h0a2.319,2.319,0,0,1-2.017.76Z" transform="translate(2204.011 327.274)" fill="#e4716d"/><path d="M164.567,374.766c.012-.161.024-.344.024-.566,0-1.436.076-5.772-3.764-5.772s-3.891,4.2-3.891,4.2v19.077a5.167,5.167,0,0,1-.52,1.945h3.1a6.082,6.082,0,0,0,2.823-.552c1.312-.785,2.967-2.036,2.967-7.759,0-3.871-1.176-5.709-2.935-6.5h0A5.055,5.055,0,0,0,164.567,374.766Zm-3.041,16.385a2.336,2.336,0,0,1-2.008.757V380.087c2.04,0,2.762,1.343,2.762,6.46A10.181,10.181,0,0,1,161.527,391.151Zm.56-15.14h.009c-.314,1.107-.993,2.32-2.5,2.32h-.078V376.2h0v-3.571c0-1.288.156-2.658,1.424-2.658,1.447,0,1.36,1.254,1.435,3.05A9.92,9.92,0,0,1,162.087,376.011Z" transform="translate(2200.389 327.142)" fill="#e4716d"/><path d="M149.138,393.517h3.613a5.175,5.175,0,0,1-.522-1.939v-8.626l1.3-3.131,2.652,11.76a5,5,0,0,1-.113,1.935h3.059l-3.9-17.781,2.915-7.057h-2.742a5.411,5.411,0,0,1-.032,1.9l.006-.012-3.137,8.019v-9.9h-3.091a5.1,5.1,0,0,1,.522,1.944v20.955A5.119,5.119,0,0,1,149.138,393.517Z" transform="translate(2196.536 327.274)" fill="#e4716d"/></g><g transform="translate(2211.147 769.23)"><path d="M220.042,437.785v.084a5.021,5.021,0,0,0,4.894,5.146,4.918,4.918,0,0,0,.594-.018,5.7,5.7,0,0,0,5.644-5.719,4.7,4.7,0,0,0-2.594-4.3,4.947,4.947,0,0,0-2.827-9.034c-.075,0-.148,0-.223.006a4.788,4.788,0,0,0-5.218,5.128v.082h2.938v-.078a2.082,2.082,0,0,1,1.884-2.262,2.158,2.158,0,0,1,.392,0,2,2,0,0,1,2.021,1.971,2.269,2.269,0,0,1-.018.284c0,1.006-.466,2.7-3.6,2.7h-.091v2.781h.091c3.721,0,4.008,2.069,4.008,2.7a2.576,2.576,0,0,1-2.251,2.869c-.054.006-.108.012-.162.015a2.3,2.3,0,0,1-2.535-2.04,1.957,1.957,0,0,1-.012-.229v-.082Z" transform="translate(-194.708 -408.447)" fill="#e4716d"/><path d="M208.381,423.953h-5.266V443h3.294v-6.927h1.7a5.794,5.794,0,0,0,6.119-5.447,5.922,5.922,0,0,0,0-.653C214.225,426.084,212.149,423.953,208.381,423.953Zm.051,9.124a2.935,2.935,0,0,1-.325.013v.008h-1.7v-6.324h1.949c1.723,0,2.6,1.088,2.6,3.231A2.808,2.808,0,0,1,208.431,433.077Z" transform="translate(-203.115 -408.438)" fill="#e4716d"/><path d="M217.311,443.36c3.9,0,6.138-3.633,6.138-9.958,0-6.21-2.161-9.633-6.084-9.633s-6.113,3.439-6.113,9.682C211.252,439.75,213.461,443.36,217.311,443.36Zm0-16.635c1.8,0,2.709,2.262,2.709,6.725,0,4.556-.921,6.957-2.655,6.957-1.756,0-2.681-2.422-2.681-7.006C214.684,428.9,215.542,426.725,217.311,426.725Z" transform="translate(-199.073 -408.529)" fill="#e4716d"/><path d="M235.859,423.949h-3.449l-4.64,18.947-.021.1h3.4l.928-4.094h4.11l.87,4.094h3.466l-4.652-18.98Zm-3.217,12.085.542-2.464c.409-1.946.729-3.718.922-5.086.207,1.458.57,3.294.919,5.06l.552,2.489Z" transform="translate(-190.878 -408.44)" fill="#e4716d"/><path d="M281.434,424.013l-.024-.059h-3.661l4.11,9.255-4.055,9.674-.053.12h3.661l2.28-6.043L285.961,443h3.662l-4.1-9.8,4.11-9.255-3.667,0-2.277,5.813Z" transform="translate(-166.041 -408.439)" fill="#e4716d"/><path d="M310.886,443h3.291v-6.928h1.706A5.8,5.8,0,0,0,322,430.621a6.209,6.209,0,0,0,0-.647c0-3.89-2.076-6.021-5.84-6.021h-5.27Zm3.293-16.228h1.95c1.724,0,2.6,1.088,2.6,3.231a2.809,2.809,0,0,1-2.522,3.071,2.923,2.923,0,0,1-.323.013l0,.008h-1.706Z" transform="translate(-149.58 -408.438)" fill="#e4716d"/><path d="M294.356,426.924H298.1V443h3.344V426.924h3.771v-2.976H294.356Z" transform="translate(-157.791 -408.44)" fill="#e4716d"/><path d="M307.62,423.769c-3.944,0-6.108,3.441-6.108,9.687,0,6.294,2.2,9.9,6.044,9.9,3.911,0,6.146-3.633,6.146-9.95C313.7,427.194,311.545,423.769,307.62,423.769Zm0,16.638c-1.754,0-2.684-2.422-2.684-7,0-4.5.858-6.685,2.619-6.685,1.807,0,2.718,2.265,2.718,6.731C310.274,438.006,309.359,440.407,307.62,440.407Z" transform="translate(-154.237 -408.529)" fill="#e4716d"/><path d="M288.085,440.073H288V443h.084a5.08,5.08,0,0,0,5.373-3.829l4.48-15.111.028-.109h-3.549l-2.188,9.1-2.464-9.031-.013-.067h-3.66l4.426,14.432A2.3,2.3,0,0,1,288.085,440.073Z" transform="translate(-161.896 -408.441)" fill="#e4716d"/><path d="M260.052,420.96l-.763,3.622a6.424,6.424,0,0,0-2.814.757l.009-.058-.027.015a16.936,16.936,0,0,0,.126-2.1h0a2.808,2.808,0,0,0-.751-2.194,1.987,1.987,0,0,0-.329-.236,3.421,3.421,0,0,0-.864-.335,16.68,16.68,0,0,0-2.628-.35l-9.751-.849c-3.528-.32-5.821.778-5.767,2.974.028,1.15.7,2.6,2.179,4.306l6.156,7.075c-3.463,2.925-4.2,5.734-3.223,7.931a5.815,5.815,0,0,0,1.711,2.136l11.708,9.34c5.408,4.327,10.968,5.656,10.118-3.634l-.7-7.683,1.97-2.051,1.03,6.063c1.352,8.059,3.112,10.636,8.768,7.151l9.32-5.638a17.194,17.194,0,0,0,3.158-2.324c1.639-1.645,1.289-2.889-.413-4.315,6.544-1.786,6.816-1.825,6.226-7.825l-.609-6.782c-.31-3.649-1.061-6.087-2.149-7.377-2.106-2.5-5.477-.7-9.376,4.965l-6.478,9.284-1.863-1.127.259-.268c2.753-2.862,3.971-4.385,4.092-5.577.006-.063,0-.121,0-.183a1.989,1.989,0,0,0,0-.25c-.127-.983-1.054-1.808-2.491-3.145l-7.08-6.5C263.663,411.053,261.4,414.512,260.052,420.96Zm-1.121,18.272.733-2.386.891,5.331c-1.2.876-2.01.9-2.1-.248A8.065,8.065,0,0,1,258.93,439.232Zm-14.768-11.6c-1.135-1.452-1.66-2.462-1.594-3.131.084-.859,1.144-1.151,3.136-1.085l6.629.254c1.356.03,2.306.346,2.287,1.941a5.347,5.347,0,0,1-.07.765h0l0,.012-.013.009-.012.078q-.512.341-1.049.738l-6.132,4.475Zm9.85,2.152-.537,3.4c-.644,3.908-1.53,4.393-4.32.816l-.32-.407,3.959-3.021a11.087,11.087,0,0,1,1.209-.829l-.007.049Zm2.447,18.7h0l-7.99-5.866a11.089,11.089,0,0,1-2.6-2.485c-1.214-1.756-.753-3.215.632-4.625l2,2.3c2.667,3.04,5.78,3.631,6.47-1.45l.971-7.208.03,0,.01-.078a2.29,2.29,0,0,1,2.06,1.392l-1.832,8.692a19.114,19.114,0,0,0-.488,4.1c.06,3.715,2.155,4.035,5.261,1.672v.009l.024-.021.058.35C262.3,452.43,259.794,450.988,256.459,448.488Zm11.681-14.394-.009.009c-.274-1.269-.289-2.021-.045-2.347.278-.367.892-.19,1.838.385l-1.78,1.974Zm16.2-7.388c1.991-2.869,3-2.88,3.679-1.528a13.893,13.893,0,0,1,.876,3.034l1.214,6.032c.454,2.413.6,3.622-2.886,4.673l-.835.254-.012-.008-.04.012c-.467-.3-.976-.615-1.524-.947l-6.1-3.691Zm-7.589,10.557.159-.219,2.875,2.036a9.458,9.458,0,0,1,1.729,1.579l-2.184.668c-2.494.783-3.679.663-4.065.042C274.765,440.557,275.636,438.886,276.754,437.262Zm-2.441-2.06c-2.86,4.517-3.452,6.946-2.567,8.051,1.025,1.281,4.023.792,7.741-.265l2.806-.775v0l.046-.012a2.984,2.984,0,0,1-1.055,2.922,8.312,8.312,0,0,1-1.438,1.088h0l-3.074,1.913c-3.173,2-4.749,1.054-5.771-2.806l-2.122-8.261,3.264-3.4Zm-10.323-12.42c.8-2.6,1.358-3.392,3.22-1.628l4.426,4.171a3.143,3.143,0,0,1,1.281,2.383,4.43,4.43,0,0,1-1.293,2.538l-1.043-.632c-1.7-1.06-3.724-2.371-4.755-1.371-.706.684-.947,2.447-.3,6.116l.382,2.242-1.742,1.932-.585-6.458a17.16,17.16,0,0,0-.983-4.749Z" transform="translate(-186.536 -413.587)" fill="#e4716d"/></g><g transform="translate(2413.263 770.727)"><path d="M391.9,424.953c-.889.126-1.227.257-1.218,1.214.048,4.571.011,9.142.024,13.713.011,2.264-.3,1.889,1.989,1.965.776.024,1.015-.22,1.007-.991-.033-3.708-.015-7.414-.015-11.12v-.893l.229-.085a2.39,2.39,0,0,1,.287.325c2.172,3.567,4.432,7.085,6.464,10.728a3.268,3.268,0,0,0,3.621,2.061c.906-.105,1.12-.336,1.111-1.2-.035-4.571-.007-9.142-.02-13.715-.009-2.279.29-1.9-1.976-1.978-.854-.03-1.135.237-1.122,1.1.044,3.333.017,6.671.017,10.007,0,.211-.043.421-.091.871-1.978-3.264-3.983-6.22-5.6-9.371C395.531,425.5,394.222,424.629,391.9,424.953Z" transform="translate(-315.77 -411.95)" fill="#e4716d"/><path d="M370.2,431.377c2.795,2.253,3.381,5.453,3.469,9.007l9.612-6.63a26.063,26.063,0,0,0-6.872-7.007,11.284,11.284,0,0,0-14.907,1.732c-.281.294-.556.593-1,1.072C364.124,429.166,367.407,429.122,370.2,431.377Z" transform="translate(-341.372 -412.109)" fill="#e4716d"/><path d="M350.429,432.376c1.712,1.826,3.309,3.78,5.181,5.429a11.287,11.287,0,0,0,7.828,2.987,11.988,11.988,0,0,0,9.07-4.732c-3.392.292-6.676.294-9.46-1.963s-3.366-5.457-3.46-8.791c-.164.015-.246,0-.288.026-2.941,2.02-5.872,4.053-8.819,6.063C349.974,431.74,350.131,432.058,350.429,432.376Z" transform="translate(-350.152 -411.595)" fill="#e4716d"/><path d="M372.676,427.505l-6.693-9.617c-.882.708-1.689,1.322-2.468,1.976a18.779,18.779,0,0,0-6.039,7.981c-1.769,5.024.95,9.832,4.146,12.491.028.022.107-.02.185-.041-.32-3.3-.408-6.565,1.815-9.377C365.881,428.067,369.092,427.544,372.676,427.505Z" transform="translate(-344.412 -417.888)" fill="#e4716d"/><path d="M357.448,441.286l6.645,9.5a27.206,27.206,0,0,0,6.61-6.216c4.035-5.53,2.836-11.138-1.466-15.508-.224-.227-.488-.414-.941-.791.394,3.543.388,6.786-1.8,9.532C364.243,440.632,361.062,441.286,357.448,441.286Z" transform="translate(-343.962 -409.08)" fill="#e4716d"/><path d="M429.2,426.063c.031,4.351.015,8.713.015,13.068,0,2.715,0,2.691,2.769,2.671.717,0,.911-.264.893-.924-.035-1.235-.009-2.473-.009-3.708,0-2.464,0-2.442,2.527-2.456a1.292,1.292,0,0,1,1.36.846c.865,1.848,1.782,3.673,2.7,5.493.144.277.408.678.64.693,1.155.07,2.32.031,3.667.031l-4.159-7.553c.534-.318.965-.549,1.371-.821a4.306,4.306,0,0,0-.553-7.612,12.209,12.209,0,0,0-4.07-.8c-2.005-.131-4.035,0-6.053-.057C429.417,424.913,429.2,425.233,429.2,426.063Zm3.7,1.677c.026-.24.349-.64.538-.64a23.991,23.991,0,0,1,3.8.17l.091.009a2.326,2.326,0,0,1,2.042,2.584,2.623,2.623,0,0,1-2.31,2.627,25.6,25.6,0,0,1-3.63.052c-.194-.007-.512-.4-.538-.638a20.473,20.473,0,0,1-.024-2.127A18.3,18.3,0,0,1,432.905,427.74Z" transform="translate(-283.089 -411.908)" fill="#e4716d"/><path d="M407.5,427.177c1.843-.329,3.632-.072,4.674,1.95.113.209.466.492.645.455.874-.179,1.725-.458,2.712-.736a5.545,5.545,0,0,0-3.1-3.346,9.1,9.1,0,0,0-6.384-.318,7.891,7.891,0,0,0-2.933,1.677,3.686,3.686,0,0,0,.556,5.85,16.584,16.584,0,0,0,3.2,1.458c1.359.519,2.773.891,4.131,1.427a2.033,2.033,0,0,1,1.39,2.015,2.28,2.28,0,0,1-1.532,2.042,4.957,4.957,0,0,1-6.373-2.231c-.115-.216-.442-.5-.627-.471-.909.139-1.8.373-2.778.593a5.637,5.637,0,0,0,3.192,3.813,10.813,10.813,0,0,0,8.957-.063,4.451,4.451,0,0,0,2.8-4.941c-.432-2.089-2.055-2.98-3.878-3.612-1.7-.593-3.434-1.087-5.118-1.719-1.146-.433-1.6-1.157-1.5-1.983A2.38,2.38,0,0,1,407.5,427.177Z" transform="translate(-306.949 -412.065)" fill="#e4716d"/><path d="M427.917,424.989c-.8-.083-1.616.011-2.42-.043a1.128,1.128,0,0,0-1.286.893c-1.791,4.773-3.623,9.53-5.438,14.294-.187.5-.344,1.022-.558,1.662,1.02,0,1.893.054,2.75-.028a1.205,1.205,0,0,0,.839-.614,30.145,30.145,0,0,0,.98-2.9.819.819,0,0,1,.909-.708c1.71.024,3.421-.02,5.129.037a1.173,1.173,0,0,1,.839.614c.4.969.667,1.987,1.05,2.968a1.017,1.017,0,0,0,.665.591c.985.068,1.978.03,3.068.03a2.529,2.529,0,0,0-.043-.514c-1.856-5.242-3.7-10.486-5.6-15.715A1.222,1.222,0,0,0,427.917,424.989Zm-4.15,10.3,2.336-7.277.225.022,2.412,7.255Z" transform="translate(-292.409 -411.912)" fill="#e4716d"/><path d="M381.595,427.137c2.205.039,4.412-.022,6.617.03.843.018,1.066-.273,1.052-1.068-.015-.767-.111-1.176-1.057-1.159-3.42.052-6.837.044-10.255,0-.821-.011-.98.281-.969,1.018.039,2.436.015,4.876.015,7.316l.009,0c0,2.5.03,5-.02,7.5-.017.832.262,1.105,1.07,1.02a8.455,8.455,0,0,1,1.675,0c.723.068.9-.246.885-.913-.035-1.882.007-3.765-.02-5.647-.013-.638.22-.871.865-.861,1.71.026,3.418-.03,5.126.026.861.026.954-.4.956-1.079s-.076-1.109-.939-1.083c-1.708.054-3.419,0-5.127.024-.634,0-.9-.207-.882-.859.041-1.079.052-2.164,0-3.242C380.562,427.4,380.811,427.122,381.595,427.137Z" transform="translate(-327.39 -411.906)" fill="#e4716d"/><path d="M410.679,426.466c-.007.66.227.88.865.859,1.054-.033,2.115.03,3.168-.022.754-.037.965.253.954.967-.037,2.1-.013,4.2-.013,6.3q0,2.642.009,5.272c0,1.939,0,1.95,1.976,1.939,1.776-.013,1.645.261,1.645-1.638,0-3.891.03-7.784-.02-11.674-.013-.952.288-1.255,1.222-1.176.895.078,1.806-.046,2.7.035.965.089,1.126-.342,1.111-1.179-.013-.8-.1-1.233-1.092-1.216-3.667.059-7.334.024-11,.024C410.649,424.957,410.679,424.953,410.679,426.466Z" transform="translate(-298.802 -411.911)" fill="#e4716d"/><path d="M386.291,424.973c-.569.031-.754.259-.754.793q.014,7.641,0,15.284c0,.542.179.8.756.771a16.5,16.5,0,0,1,2.05,0c.726.059.895-.248.887-.913-.031-2.5-.013-5-.013-7.5v-5.732C389.217,424.786,389.219,424.8,386.291,424.973Z" transform="translate(-320.132 -411.931)" fill="#e4716d"/></g><g transform="translate(2611.381 684.046)"><path d="M467.518,406.349H508.05V366.162H467.518Zm14.9-36.057c1.48-.005,2.4,1.063,2.4,2.891.019,4.78.005,9.56.008,14.34,0,.442-.131.99.078,1.3.327.484.891,1.111,1.357,1.116s1.049-.608,1.381-1.087c.214-.308.086-.856.086-1.3.005-4.783-.043-9.563.046-14.34a3.592,3.592,0,0,1,.993-2.409,2.958,2.958,0,0,1,2.326-.238,2.041,2.041,0,0,1,1.376,2.2c.005,2.746,0,5.489,0,8.233h.008c0,2.436.013,4.868,0,7.3-.024,3.908-2.516,6.522-6.188,6.52s-6.231-2.639-6.241-6.49q-.024-7.572,0-15.138C480.052,371.357,480.935,370.294,482.42,370.292Zm-10.042,1.989a2.378,2.378,0,0,1,4.708.136,9.952,9.952,0,0,1,.037,1.325q0,10.1,0,20.2c0,1.946.284,2.23,2.251,2.23q9.362.008,18.724,0c.393,0,.787-.038,1.357-.064-.219-.549-.385-.988-.567-1.416-1.5-3.506-2.971-7.02-4.513-10.5a4.824,4.824,0,0,1,.356-4.8c1.544-2.486,3.054-5,4.59-7.486.961-1.552,2.3-2.013,3.565-1.266s1.467,2.144.506,3.7c-1.258,2.037-2.492,4.092-3.809,6.091a3.2,3.2,0,0,0-.316,3.244c2.109,5.219,4.146,10.465,6.207,15.7.174.442.324.889.554,1.526h-1.491q-13.373,0-26.748,0c-3.629,0-5.457-1.793-5.463-5.361q-.024-10.964-.021-21.928A6.823,6.823,0,0,1,472.378,372.28Z" transform="translate(-467.518 -362.707)" fill="#e4716d"/><path d="M537.119,399.588c11.043-.377,16.84-9.231,15.183-19.083-1.405-8.348-7.387-13.018-16.115-13.058-7.256-.032-12.807,3.367-15.261,9.349-2.628,6.4-1.2,14.193,3.49,18.617C527.974,398.77,532.355,399.749,537.119,399.588Zm-7.911-11.712a28.957,28.957,0,0,1-1.052-4.333,10.779,10.779,0,0,1,2.165-6.247,7.494,7.494,0,0,1,12.365,1.188,10.452,10.452,0,0,1,.024,10.066,7.509,7.509,0,0,1-13.5-.674Z" transform="translate(-380.171 -360.553)" fill="#e4716d"/><path d="M533.619,397.6c2.31,0,4.534-.048,6.753.021a1.933,1.933,0,0,0,1.932-1.012c3.394-5.3,6.838-10.567,10.269-15.839.174-.27.388-.517.816-1.081v17.8H561.3V367.923c-2.331,0-4.593.053-6.852-.027a1.925,1.925,0,0,0-1.9,1.068c-3.356,5.216-6.755,10.409-10.144,15.6-.214.332-.471.634-.707.95l-.276-.137V367.987h-7.807Z" transform="translate(-356.704 -359.803)" fill="#e4716d"/><path d="M491.045,369.434c0,5.275.016,10.548-.013,15.82-.024,4.611-1.258,5.752-5.971,5.489v7.162c1.686,0,3.193.059,4.694-.011,5.958-.284,9.052-3.161,9.389-9.07.244-4.285.128-8.589.179-12.887,0-.332.045-.667.07-.982h6.169V397.43h8.08v-29.5h-22.6Z" transform="translate(-438.11 -359.738)" fill="#e4716d"/><path d="M551.169,369.473c0,5.313.027,10.628-.013,15.941-.038,4.432-1.357,5.621-5.717,5.307a.665.665,0,0,0-.155.046v7.13c1.606,0,3.113.062,4.614-.013,5.95-.289,9.046-3.185,9.37-9.076.227-4.106.1-8.233.142-12.349.005-.511.045-1.02.07-1.515h6.2v22.522h8.091V367.939h-22.6Z" transform="translate(-337.149 -359.728)" fill="#e4716d"/><path d="M509.211,367.981v29.545H517.3V384.679c.487.658.747.988.985,1.336,2.417,3.554,4.82,7.119,7.264,10.658.27.391.768.875,1.17.886,3.145.072,6.295.04,9.726.04l-11.629-15.29c3.792-4.807,7.5-9.509,11.356-14.389-2.971,0-5.645.04-8.316-.021a2.2,2.2,0,0,0-2.1,1.039c-2.478,3.514-5.021,6.985-7.548,10.468-.206.284-.471.522-.969,1.065V367.981Z" transform="translate(-397.623 -359.799)" fill="#e4716d"/><path d="M512.689,380.534c-.321-.621-.53-.993-.712-1.378-1.622-3.445-3.223-6.9-4.885-10.328a1.628,1.628,0,0,0-1.071-.878c-2.936-.072-5.875-.04-9-.04.308.613.5,1.009.7,1.394,3.324,6.362,6.63,12.729,9.991,19.07a2.085,2.085,0,0,1,.011,2.195c-1.183,2.262-2.28,4.563-3.5,7.018,2.666,0,5.107-.048,7.542.024a1.607,1.607,0,0,0,1.785-1.119c3.434-7.679,6.927-15.336,10.4-23,.816-1.8,1.625-3.605,2.516-5.58-2.9,0-5.607-.032-8.31.037-.324.011-.773.506-.926.875-.736,1.753-1.386,3.544-2.074,5.321C514.37,376.2,513.575,378.243,512.689,380.534Z" transform="translate(-418.058 -359.789)" fill="#e4716d"/><path d="M539.985,364.9c-1.445.549-2.891,1.1-4.539,1.724,2.438,4.055,6.164,4.737,10.261,4.518,2.66-.145,6.474-1.635,7.392-4.587-1.477-.559-2.958-1.121-4.429-1.681A5.108,5.108,0,0,1,539.985,364.9Z" transform="translate(-353.641 -364.871)" fill="#e4716d"/></g><g transform="translate(2607.819 769.465)"><path d="M607.693,458.542a1.263,1.263,0,0,0,1.079-1q4.913-16.716,9.872-33.417c.3-1.011.6-2.023.918-3.118-.272.07-.438.1-.6.154q-9.443,2.941-18.877,5.888-6.995,2.183-13.987,4.368c-.227.073-.553.216-.607.4-.469,1.6-.885,3.219-1.354,4.964,7.028-2.135,13.942-4.233,20.967-6.368-3.076,10.394-6.115,20.661-9.191,31.044.331-.073.542-.112.747-.166C600.338,460.367,604.01,459.429,607.693,458.542Z" transform="translate(-584.138 -421.006)" fill="#e4716d"/><path d="M594.245,427.035a1.19,1.19,0,0,0-.933.927q-3.143,10.926-6.34,21.838c-.553,1.9-1.1,3.8-1.677,5.759a3.625,3.625,0,0,0,.444-.042c1.641-.39,3.278-.8,4.924-1.168a.875.875,0,0,0,.719-.714q4.07-13.791,8.163-27.572c.056-.194.1-.391.169-.671C597.81,425.968,596.034,426.524,594.245,427.035Z" transform="translate(-582.045 -413.071)" fill="#e4716d"/><path d="M629.951,428.317a3.772,3.772,0,0,0-3.739-2.927c-2.714-.143-5.439-.037-8.265-.037v19.352a72.2,72.2,0,0,0,8.332-.494c4.028-.7,6.07-4.975,4.039-8.166a14.664,14.664,0,0,0-2.691-2.5l.7-.548A4.245,4.245,0,0,0,629.951,428.317Zm-9.515-1c1.618,0,3.158-.068,4.686.02a2.32,2.32,0,0,1,2.452,2.452c.051,1.537-.5,2.77-2.079,3.059a46.675,46.675,0,0,1-5.059.377Zm7.987,11.023c.115,2.079-.789,3.5-2.756,3.837a50.04,50.04,0,0,1-5.214.36v-7.3c1.685,0,3.292-.1,4.885.025A2.953,2.953,0,0,1,628.423,438.34Z" transform="translate(-522.971 -413.21)" fill="#e4716d"/><path d="M630.876,425.363v19.144c1.671.559,2.553-.006,3.292-1.374,1.882-3.495,3.9-6.913,5.877-10.357.581-1.02,1.194-2.025,1.792-3.039.169.059.34.115.511.174v14.813l2.284-.124V425.447c-1.93-.607-2.826.2-3.613,1.652-2.048,3.776-4.233,7.475-6.374,11.2-.331.576-.716,1.124-1.073,1.683-.143-.048-.286-.093-.427-.14V425.259Z" transform="translate(-499.583 -413.34)" fill="#e4716d"/><path d="M615.332,444.458V425.311H601.415V444.6l2.3-.1V427.544h9.318v16.914Z" transform="translate(-552.882 -413.218)" fill="#e4716d"/><path d="M640.334,425.293v19.228h2.416V435.1a11.724,11.724,0,0,1,2.52,1.61c1.717,2.045,3.4,4.129,4.913,6.323,1.042,1.511,2.272,1.907,4.16,1.379-2.593-3.362-5.115-6.632-7.453-9.661a30.392,30.392,0,0,0,2.385-3.972c.795-1.964,1.43-3.9,4.183-3.34v-2.118c-3.219-.205-4.657.646-5.764,3.362-.391.961-.688,1.966-1.138,2.9a3.648,3.648,0,0,1-3.851,2.323v-8.613Z" transform="translate(-482.472 -413.253)" fill="#e4716d"/><path d="M679.9,444.584V425.291H668.54c-.082.992-.16,1.949-.233,2.9-.267,3.559-.461,7.127-.826,10.678-.2,1.944-1.087,3.489-3.514,3.539.036.786.068,1.455.1,2.1,2.789.169,4.649-.9,5.267-3.579a78.952,78.952,0,0,0,1.219-9.045c.16-1.45.149-2.919.214-4.326h6.894v17.023Z" transform="translate(-439.717 -413.254)" fill="#e4716d"/><path d="M666.073,444.5V425.324H663.66v7.408h-9.194V425.3H652.2v19.226h2.332v-9.416h9.307V444.6C664.767,444.561,665.441,444.53,666.073,444.5Z" transform="translate(-461.012 -413.234)" fill="#e4716d"/><path d="M619.638,427.311V425.3H607.7v19.2H619.59v-2.157h-9.517v-7.4h8.972c-.053-.809-.09-1.36-.143-2.157h-8.776v-5.478Z" transform="translate(-541.513 -413.238)" fill="#e4716d"/><path d="M665.858,425.237a1.716,1.716,0,0,0-2.011,1.553,19.294,19.294,0,0,1-.621,1.846q-2.672,7.922-5.354,15.858c1.685.607,2.461.1,2.955-1.489,1.171-3.77,1.247-3.747,5.231-3.747,3.632,0,3.731-.028,4.764,3.562.478,1.666,1.236,2.287,3.149,1.685-2.039-5.989-4.079-11.872-6.026-17.785A1.871,1.871,0,0,0,665.858,425.237Zm-3.121,11.824c.994-3.028,1.938-5.922,2.888-8.812l.421-.02c.958,2.885,1.913,5.773,2.927,8.832Z" transform="translate(-450.743 -413.355)" fill="#e4716d"/><path d="M655.908,427.028c-.345-1.028-.6-1.784-2.037-1.8-1.475-.017-1.916.638-2.247,1.815-.391,1.371-.894,2.714-1.351,4.068q-2.271,6.7-4.545,13.408c1.728.57,2.511.039,3-1.556,1.141-3.719,1.219-3.7,5.065-3.7,3.75,0,3.837-.025,4.919,3.652.5,1.708,1.365,2.188,3.068,1.615-.163-.542-.309-1.1-.494-1.641C659.49,437.607,657.678,432.323,655.908,427.028Zm-5.284,9.967c1.008-3.059,1.935-5.882,2.862-8.7l.424-.053c.955,2.871,1.908,5.742,2.91,8.756Z" transform="translate(-472.713 -413.364)" fill="#e4716d"/><path d="M623.495,444.9c3.11-.334,6.141-.323,8.975-1.056,2.919-.756,4.1-3.416,3.579-6.514-.421-2.542-2.32-4.174-5.242-4.357-1.554-.1-3.118-.017-5.029-.017V425.3h-2.284Zm2.472-10.051c2.568.413,5.45-.829,7.012,1.778a4.733,4.733,0,0,1-.073,4.146c-1.6,2.523-4.416,1.48-6.938,1.744Z" transform="translate(-512.936 -413.238)" fill="#e4716d"/><path d="M612.862,425.366v19.273c.815-.039,1.45-.067,2.278-.107v-7.059a40.882,40.882,0,0,0,4.829-.438,6.039,6.039,0,0,0,4.969-6.335c-.132-2.874-1.994-4.91-5.276-5.287A61.326,61.326,0,0,0,612.862,425.366Zm8.748,3.492a5.216,5.216,0,0,1,.157,4.34c-1.264,2.719-4.02,1.958-6.573,2.039v-7.924C617.5,427.4,620.115,426.554,621.61,428.857Z" transform="translate(-532.172 -413.258)" fill="#e4716d"/><path d="M628.74,425.288v19.229h2.27V425.288Z" transform="translate(-503.447 -413.259)" fill="#e4716d"/><path d="M636.589,427.422c2.792-.059,4.242-1.348,4.523-4.13h-1.924c-.309,1.54-.907,2.669-2.784,2.66s-2.413-1.225-2.8-2.792l-1.871.138C632.14,426.22,633.7,427.481,636.589,427.422Z" transform="translate(-498.029 -417.107)" fill="#e4716d"/></g><g transform="translate(2412.987 680.025)"><path d="M64.284,427.237q16.154-6.886,32.3-13.776a.722.722,0,0,1,.626,0q15.08,6.434,30.167,12.86l2.682,1.141v-.424c0-2.17-.028-4.341.022-6.508a1.015,1.015,0,0,0-.759-1.133q-16.089-6.823-32.161-13.683a.7.7,0,0,0-.5,0Q80.48,412.6,64.294,419.492a.44.44,0,0,0-.326.479c.012,2.335,0,4.67,0,7v.385C64.1,427.308,64.2,427.276,64.284,427.237Z" transform="translate(-63.968 -405.669)" fill="#e4716d"/><path d="M84.727,422.138c-1.917,0-3.833,0-5.751-.007-.286,0-.284.153-.284.356q0,10.95,0,21.9c0,.281.088.35.359.349q2.775-.016,5.551,0a.584.584,0,0,0,.575-.34q3.408-5.783,6.833-11.556c.257-.433.518-.864.777-1.3l.088.018V444.7h6.194c.006-.117.015-.2.015-.29q0-10.967,0-21.932c0-.25-.06-.349-.329-.346q-2.827.025-5.652.021a.452.452,0,0,0-.434.272q-3.734,6.264-7.476,12.52c-.051.085-.109.168-.165.25l-.064-.028v-13A2.171,2.171,0,0,0,84.727,422.138Z" transform="translate(-56.656 -397.491)" fill="#e4716d"/><path d="M100.15,422.541c0-.31-.072-.415-.4-.412q-2.71.023-5.418,0c-.311,0-.413.07-.413.4q.013,10.918,0,21.833c0,.283.061.379.364.376,1.839-.013,3.679-.006,5.518-.008.106,0,.214-.013.365-.024V433.853a1.822,1.822,0,0,1,.361.422q3.35,5.065,6.69,10.132a.641.641,0,0,0,.614.332c2.317-.013,4.632-.007,6.948-.007h.4c-.112-.151-.181-.244-.251-.337q-4.4-5.743-8.8-11.483a.419.419,0,0,1,0-.636q3.455-4.21,6.887-8.44c.436-.534.867-1.073,1.341-1.663-.2-.016-.325-.034-.452-.034-2.172,0-4.344,0-6.515-.006a.565.565,0,0,0-.516.271q-3.211,4.416-6.435,8.825c-.066.091-.139.18-.21.271l-.084-.025v-.379C100.143,428.243,100.138,425.392,100.15,422.541Z" transform="translate(-49.09 -397.492)" fill="#e4716d"/><path d="M110.389,422.725v22.517h92.448V422.129H111.009C110.39,422.129,110.389,422.131,110.389,422.725ZM184.424,440.9q2.573-6.875,5.14-13.751a.676.676,0,0,1,.793-.542c1.07.057,2.143.031,3.214.034a.526.526,0,0,1,.548.4q2.618,7.007,5.248,14.008c.036.1.054.2.1.389H198.8c-1.087,0-2.176-.012-3.263.007a.494.494,0,0,1-.572-.4c-.171-.56-.389-1.106-.566-1.666a.436.436,0,0,0-.491-.364q-2.052.025-4.1,0a.435.435,0,0,0-.486.37c-.184.573-.364,1.148-.585,1.706a.581.581,0,0,1-.4.329c-1.289.024-2.579.012-3.869.009a.822.822,0,0,1-.18-.057C184.33,441.211,184.367,441.052,184.424,440.9ZM170.6,426.98a3.024,3.024,0,0,1,.04-.349c.213-.01.412-.031.609-.031q5.8,0,11.607,0c.629,0,.63,0,.63.641q0,6.787,0,13.572c0,.624,0,.624-.644.624-1.025,0-2.051-.015-3.076.007-.389.009-.5-.115-.5-.5.012-3.428,0-6.855.018-10.284,0-.467-.118-.614-.593-.6-1.072.033-2.145.011-3.217.011-.675,0-.679,0-.679.7q0,4.793,0,9.588c0,.154,0,.308,0,.462,0,.615,0,.615-.606.615-1.057,0-2.113-.009-3.17.006-.323,0-.428-.1-.428-.425Q170.6,434,170.6,426.98Zm-15.5.055c0-.121.018-.242.03-.406.2-.01.382-.03.563-.03,3.9,0,7.8,0,11.706-.01.452,0,.615.1.612.588q-.027,6.836,0,13.671c0,.461-.115.617-.6.6-1.024-.037-2.052-.03-3.076,0-.421.01-.558-.1-.555-.539.016-3.429,0-6.858.018-10.287,0-.421-.1-.564-.539-.555q-1.7.04-3.405,0c-.44-.01-.546.148-.545.56.015,3.4.009,6.8.007,10.2,0,.617,0,.617-.6.617-1.042,0-2.083-.012-3.125.007-.35.006-.488-.078-.486-.459Q155.113,434.01,155.1,427.035Zm-14.339-.433c1.289,0,2.577.025,3.868.019a.588.588,0,0,1,.626.471c.7,1.862,1.428,3.716,2.146,5.572.039.1.082.2.172.406.087-.235.144-.38.193-.528.617-1.828,1.241-3.651,1.838-5.484a.579.579,0,0,1,.666-.468c1.166.021,2.33.007,3.5.009.153,0,.305.015.56.028-.287.7-.539,1.328-.8,1.95q-1.973,4.771-3.954,9.54c-.159.385-.344.759-.53,1.132a4.284,4.284,0,0,1-4.076,2.437,18.224,18.224,0,0,1-2.494-.239c-.135-.017-.359-.171-.361-.266-.027-1.058-.016-2.116-.016-3.214a10.4,10.4,0,0,0,1.063.124,4.856,4.856,0,0,0,1.152-.072.939.939,0,0,0,.724-1.465q-2.2-4.672-4.414-9.34c-.078-.166-.151-.335-.247-.548A2.332,2.332,0,0,1,140.761,426.6Zm-13.459.347a2.671,2.671,0,0,1,.033-.286,1.442,1.442,0,0,1,.275-.058c2.751.006,5.505-.069,8.252.046a4.43,4.43,0,0,1,4.468,4.757,8.536,8.536,0,0,1-.135,1.658,4.374,4.374,0,0,1-4.246,3.621c-1.331.082-2.669.057-4,.082-.123,0-.245.016-.451.03v4.588c-.162.019-.278.045-.4.046-1.118,0-2.238-.006-3.357.006-.3,0-.448-.06-.446-.4Q127.308,433.993,127.3,426.95Zm-11.169-.361q4.641.025,9.28,0c.428,0,.564.129.548.554-.031.834-.034,1.669,0,2.5.019.466-.159.566-.591.56-1.646-.021-3.294-.008-4.942-.008h-.618c0,.261,0,.443,0,.626,0,3.368-.012,6.735,0,10.1,0,.415-.121.525-.527.516-1.194-.024-2.389-.009-3.692-.009V439.38c0-4.079.006-8.157-.007-12.234C115.584,426.728,115.7,426.588,116.133,426.589Z" transform="translate(-40.909 -397.492)" fill="#e4716d"/><path d="M125.494,430.768a22.012,22.012,0,0,0,2.4-.2,1.474,1.474,0,0,0,1.088-1.667,1.3,1.3,0,0,0-1.223-1.337c-.968-.091-1.944-.1-2.919-.117a.427.427,0,0,0-.316.271c-.022,1-.015,1.994-.015,3.053C124.876,430.771,125.185,430.788,125.494,430.768Z" transform="translate(-33.896 -394.85)" fill="#e4716d"/><path d="M165.383,428.446l-.094.013-1.492,4.472h3.071C166.363,431.408,165.872,429.926,165.383,428.446Z" transform="translate(-14.379 -394.354)" fill="#e4716d"/><path d="M77.749,444.729H83.1c.442,0,.442,0,.442-.456V422.605c0-.47,0-.471-.465-.471h-19v22.593h.353l5.385,0c.452,0,.452,0,.452-.44l.012-15.888v-1.034h7.063v17.362Z" transform="translate(-63.912 -397.489)" fill="#e4716d"/></g></g></svg>