<svg xmlns="http://www.w3.org/2000/svg" width="15.263" height="12.598" viewBox="0 0 15.263 12.598"><g transform="translate(373.734 21.109)"><path d="M-358.7-19.325l-7,5.984a.619.619,0,0,1-.8,0l-7.072-5.984a.445.445,0,0,1,.288-.785h14.3A.445.445,0,0,1-358.7-19.325Z" transform="translate(0 -1)" fill="#c9c9c9"/><path d="M-358.946-1.494l-6.341,5.461a1.246,1.246,0,0,1-1.626,0l-6.343-5.461a.288.288,0,0,0-.477.219l0,8.269a1.154,1.154,0,0,0,1.154,1.153h12.954a1.154,1.154,0,0,0,1.154-1.154V-1.276A.288.288,0,0,0-358.946-1.494Z" transform="translate(-0.002 -16.658)" fill="#c9c9c9"/></g></svg>