<svg xmlns="http://www.w3.org/2000/svg" width="15.4" height="20.913" viewBox="0 0 15.4 20.913">
  <g id="Group_876" data-name="Group 876" transform="translate(-1359.134 -2283.222)">
    <path id="Exclusion_1" data-name="Exclusion 1" d="M7.2,19.913a.68.68,0,0,1-.5-.26c-.53-.606-.956-1.113-1.339-1.6a35.911,35.911,0,0,1-3.689-5.51A14.153,14.153,0,0,1,.086,8.2,6.863,6.863,0,0,1,.955,3.629,7.2,7.2,0,0,1,7.2,0a7.239,7.239,0,0,1,6.752,4.691,7.1,7.1,0,0,1,.254,4.1,14.529,14.529,0,0,1-1.354,3.535,38.063,38.063,0,0,1-4.975,7.147c-.052.06-.107.122-.164.182A.743.743,0,0,1,7.2,19.913ZM7.2,2a5.2,5.2,0,0,0-3.7,1.562A5.127,5.127,0,0,0,1.983,7.222a5.208,5.208,0,0,0,1.547,3.67,5.15,5.15,0,0,0,3.66,1.53h.034A5.212,5.212,0,0,0,7.208,2Z" transform="translate(1359.635 2283.722)" fill="#d0d0d0" stroke="rgba(0,0,0,0)" stroke-miterlimit="10" stroke-width="1"/>
  </g>
</svg>
