<svg xmlns="http://www.w3.org/2000/svg" width="46.003" height="62.995" viewBox="0 0 46.003 62.995">
  <g id="mapIcon" transform="translate(-200 -299)">
    <g id="mapIcon-2" data-name="mapIcon" transform="translate(193.002 293.995)">
      <g id="Group_1" data-name="Group 1" transform="translate(7 5)">
        <path id="Path_1" data-name="Path 1" d="M23.51,51.523a.511.511,0,0,1-1.02,0,6.218,6.218,0,0,0-4.832-6.147,23,23,0,1,1,10.684,0,6.215,6.215,0,0,0-4.83,6.147Z" fill="red"/>
        <path id="Path_2" data-name="Path 2" d="M23.51,51.523a.511.511,0,0,1-1.02,0,6.218,6.218,0,0,0-4.832-6.147,23,23,0,1,1,10.684,0,6.215,6.215,0,0,0-4.83,6.147Z" fill="red"/>
      </g>
      <path id="Path_3" data-name="Path 3" d="M30,68a4,4,0,1,1,4-4A4,4,0,0,1,30,68Z" fill="#fff"/>
      <path id="Path_4" data-name="Path 4" d="M30,66a2,2,0,1,0-1.955-2A2,2,0,0,0,30,66Z" fill="red" fill-rule="evenodd"/>
    </g>
    <g id="Logo" transform="translate(549.626 2384.955)">
      <path id="Path_1381" data-name="Path 1381" d="M-312.411-2055.239l-8.661-15.176a2.5,2.5,0,0,0-2.178-1.271h0a2.494,2.494,0,0,0-2.19,1.25l-3.6,6.166-5.211,8.922a2.565,2.565,0,0,0-.259.615c-.007.026-.013.053-.018.078s-.014.053-.02.083a2.5,2.5,0,0,0,.285,1.748,2.5,2.5,0,0,0,2.178,1.272l7.966.04h.005l9.5.048a2.5,2.5,0,0,0,2.19-1.25,2.51,2.51,0,0,0,.345-1.411,2.528,2.528,0,0,0-.332-1.111Zm-10.847-14.767a.826.826,0,0,1,.726.423l3.423,6a1,1,0,0,1-.006,1l-2.045,3.5a.682.682,0,0,1-.593.338.683.683,0,0,1-.589-.344l-3.557-6.235a1,1,0,0,1,0-1l1.908-3.266a.809.809,0,0,1,.586-.4.841.841,0,0,1,.144-.013Z" transform="translate(-3.331 -2.99)" fill="#fff"/>
    </g>
  </g>
</svg>
