<svg xmlns="http://www.w3.org/2000/svg" width="375" height="342" viewBox="0 0 375 342"><rect width="375" height="342" fill="none"/><g transform="translate(-651.745 5830.459)"><line y1="4.269" x2="7.386" transform="translate(782.632 -5580.244)" fill="none" stroke="#4f4f4f" stroke-linecap="round" stroke-miterlimit="10" stroke-width="1"/><path d="M985.145-5561.283c20.228,1.814,39.857,6.256,57.222,13.329" transform="translate(-125.461 -104.237)" fill="none" stroke="#4f4f4f" stroke-linecap="round" stroke-miterlimit="10" stroke-width="1"/><path d="M1110.955-5597.913c8.506,5.9,5.531,11.576,6.128,20.384,1.295,19.109,5.5,30.584-7.7,38.727s-25.085,13.425-34.119,10.152a52.763,52.763,0,0,1-7.876-3.453" transform="translate(-157.968 -89.758)" fill="none" stroke="#4f4f4f" stroke-linecap="round" stroke-miterlimit="10" stroke-width="1"/><path d="M1064.19-5542.308c3.205-3.03,7.006-4.9,10.482-6.582,4.145-2,6.145-6.88,8.427-13.311" transform="translate(-156.705 -103.874)" fill="none" stroke="#4f4f4f" stroke-linecap="round" stroke-miterlimit="10" stroke-width="1"/><path d="M1103.038-5484.432l-.3,41.6c-.011.5-2.056.5-2.077.006l-.962-40.682" transform="translate(-170.741 -134.615)" fill="none" stroke="#4f4f4f" stroke-linecap="round" stroke-miterlimit="10" stroke-width="1"/><path d="M1129.669-5497.147l14.335,30.5c.367.762,2.169-.066,1.859-.854l-12.932-31.584" transform="translate(-182.587 -128.823)" fill="none" stroke="#4f4f4f" stroke-linecap="round" stroke-miterlimit="10" stroke-width="1"/><path d="M1066.808-5489.42" transform="translate(-157.74 -132.643)" fill="none" stroke="#e4716d" stroke-linecap="round" stroke-linejoin="round" stroke-width="1"/><path d="M1055.029-5462.9l-4.717,9.654c-.553,1.1-2.867.33-2.382-.8l4.959-11.248" transform="translate(-150.252 -142.179)" fill="none" stroke="#4f4f4f" stroke-linecap="round" stroke-miterlimit="10" stroke-width="1"/><line x1="1.058" y2="2.166" transform="translate(911.218 -5620.419)" fill="none" stroke="#4f4f4f" stroke-linecap="round" stroke-miterlimit="10" stroke-width="1"/><path d="M1123.175-5582.339c6.012,4.676,8.316,8.537,6.813,15.385s-5.511,19.205-9.186,21.209-5.792,4.825-7.041,4.63-1.021-.557-1.021-.557,1.737-.273,1.828-.731-.777-6.216-3.7-5.9c.914-1.188,4.616-3.108,8.73-4.936" transform="translate(-175.154 -95.914)" fill="none" stroke="#e4716d" stroke-linecap="round" stroke-linejoin="round" stroke-width="1"/><path d="M1110.056-5615.4c.313,3.854,5.678,7.8,3.018,10.9s7.015.465,8.463-3.138-.835-5.86-1.295-11.05-8.164-13.055-16.8-7.525-9.282,9.675-6.856,14.256c1.775.667,4.079.956,5.548-.132s-.665-1.311,1.809-1.731S1106.418-5613.748,1110.056-5615.4Z" transform="translate(-169.025 -77.827)" fill="none" stroke="#e4716d" stroke-linecap="round" stroke-linejoin="round" stroke-width="1"/><path d="M1102.276-5600.42c4.074,10.88,11.215,10.4,14.107,5.883" transform="translate(-171.76 -88.767)" fill="none" stroke="#e4716d" stroke-linecap="round" stroke-linejoin="round" stroke-width="1"/><path d="M1097.918-5578.9c-.25,1.5-4.3,1.451-3.854,7.306s3.6,6.809,3.854,12.061-1.253,11.46-5.155,11.611c-.2,2.1,4.254,5.154,4.254,5.154" transform="translate(-167.997 -97.275)" fill="none" stroke="#e4716d" stroke-linecap="round" stroke-linejoin="round" stroke-width="1"/><path d="M1128.482-5564.828c-2.2,3.9-4.1,18.767-4.1,18.767" transform="translate(-180.496 -102.836)" fill="none" stroke="#e4716d" stroke-linecap="round" stroke-linejoin="round" stroke-width="1"/><path d="M1097.7-5526.045c-4.183,2.7-10.532,7.108-12.255,7.2s-9.549.626-7.58,2.644,4.183,3,6.2,1.724,1.525-1.083,4.628-1.427,10.881-3.507,10.881-3.507" transform="translate(-161.984 -118.166)" fill="none" stroke="#e4716d" stroke-linecap="round" stroke-linejoin="round" stroke-width="1"/><path d="M1120.822-5523.75c1.005,5.447,1.376,5.7-1.064,6.948s-6.888,1.879-8.889.939a14,14,0,0,0-3.37-1.155" transform="translate(-173.824 -119.073)" fill="none" stroke="#e4716d" stroke-linecap="round" stroke-linejoin="round" stroke-width="1"/><path d="M1104.121-5513.579c2.165,4.68,1.539,7.812-7.794,11.819s-23.861,3.569-23.861,3.569c-6.605-.343-7.768-1.31-7.768-1.31" transform="translate(-156.906 -123.094)" fill="none" stroke="#e4716d" stroke-linecap="round" stroke-linejoin="round" stroke-width="1"/><path d="M1059.481-5515.719l-2.293-18.153a3.483,3.483,0,0,0-1.149-2.176l-18.66-16.464a.568.568,0,0,0-.8.049h0a.569.569,0,0,0-.135.464l2.935,18.906a3.243,3.243,0,0,0,1.051,1.926l18.025,15.994a.623.623,0,0,0,.878-.054A.622.622,0,0,0,1059.481-5515.719Z" transform="translate(-145.734 -107.648)" fill="none" stroke="#e4716d" stroke-linecap="round" stroke-linejoin="round" stroke-width="1"/><line x1="4.069" y1="3.093" transform="translate(915.312 -5639.766)" fill="none" stroke="#e4716d" stroke-linecap="round" stroke-linejoin="round" stroke-width="1"/><path d="M1083.643-5508.381l7.37,5.6a.654.654,0,0,1,.121.917h0a.655.655,0,0,1-.327.228l-15.557,4.7a2.185,2.185,0,0,1-2.085-.458l-.322-.286" transform="translate(-160.125 -125.148)" fill="none" stroke="#e4716d" stroke-linecap="round" stroke-linejoin="round" stroke-width="1"/><path d="M1099.857-5600.686c1.775,4.094,3.423,5.8,2.32,7.337s.071,2.312,1.563,2.178,4.482-.825,4.482-.825c-4.12,5.726-.5,9.664,3.956,9.789s7.755-6.648,6.117-10.746" transform="translate(-170.803 -88.662)" fill="none" stroke="#e4716d" stroke-linecap="round" stroke-linejoin="round" stroke-width="1"/><path d="M1101.7-5588.556c-2.927,3.806-3.05,5.144-3.044,7.378" transform="translate(-170.329 -93.457)" fill="none" stroke="#e4716d" stroke-linecap="round" stroke-linejoin="round" stroke-width="1"/><path d="M1095.393-5545.995c-1.754,2.872-5.166,8.473-5.184,7.755s-.737-4.093-3.9-4.165a15.927,15.927,0,0,1,4.811-5.84" transform="translate(-165.45 -109.391)" fill="none" stroke="#e4716d" stroke-linecap="round" stroke-linejoin="round" stroke-width="1"/><path d="M1094.569-5562.093a39.747,39.747,0,0,1-1.814,9.135" transform="translate(-167.996 -103.917)" fill="none" stroke="#e4716d" stroke-linecap="round" stroke-linejoin="round" stroke-width="1"/><path d="M1070.037-5529.852a14.745,14.745,0,0,1,4.54-1.455c1.784-2.022,5.3-7.279,5.3-7.279" transform="translate(-159.016 -113.209)" fill="none" stroke="#e4716d" stroke-linecap="round" stroke-linejoin="round" stroke-width="1"/><path d="M1084.139-5533.143c-5.065,5.66-9.078,9.822-12.79,9.85" transform="translate(-159.535 -115.36)" fill="none" stroke="#e4716d" stroke-linecap="round" stroke-linejoin="round" stroke-width="1"/><path d="M1054.1-5497.476c2.2,3.86,6.264,14.249,3.68,16.185s-4.065,4.646-9.1-.258-5.162-5.807-8.647-5.938-7.808-5.289-5.937-7.226,1.935-4.194,2.581-8.453,2.211-5.265,7.526-6.795" transform="translate(-144.633 -124.524)" fill="none" stroke="#e4716d" stroke-linecap="round" stroke-linejoin="round" stroke-width="1"/><path d="M1032.826-5475.677c-6.639,7.343-14.167,20.031-14.167,20.031a1.242,1.242,0,0,1-.541.559,2.212,2.212,0,0,1-2.711-1.618,1.231,1.231,0,0,1,.1-.561l11.369-22.819" transform="translate(-137.422 -136.333)" fill="none" stroke="#e4716d" stroke-linecap="round" stroke-linejoin="round" stroke-width="1"/><path d="M1067.612-5462.721q1.127,2.745,2.529,5.657a100.9,100.9,0,0,0,6.505,11.458c.812,1.429-1.465,2.842-2.689,1.6a78.739,78.739,0,0,1-9.7-10.432,78.493,78.493,0,0,1-5.745-8.539" transform="translate(-154.462 -143.094)" fill="none" stroke="#e4716d" stroke-linecap="round" stroke-linejoin="round" stroke-width="1"/><path d="M1014.475-5442.013c.985,1.97.192,4.031-4.165,7.279s-8.629,3.938-5.937-1.081,5.242-7.506,6.776-7.65" transform="translate(-132.729 -150.808)" fill="none" stroke="#e3696f" stroke-linecap="round" stroke-linejoin="round" stroke-width="1"/><path d="M1083.917-5434.249c2.5,1.73,4.463,2.261,4.038,3.643s-5.207,6.217-9.882,7.6,6.481-6.722,3.6-9.325" transform="translate(-161.734 -154.451)" fill="none" stroke="#e4716d" stroke-linecap="round" stroke-linejoin="round" stroke-width="1"/><g transform="translate(842.523 -5733.449)"><path d="M958.678-5659.015c3.387-.43,3.724,2.48,3.08,3.6s-1.525,1.052.168,2.076,7.689,1.96,11-4.564c4.323-8.526,1.875-13.511-4.16-15.172-5.458-1.5-11.024.1-11.853,5.232s2.329,3.99,2.05,6.409Z" transform="translate(-956.768 5673.612)" fill="none" stroke="#e3696f" stroke-linecap="round" stroke-linejoin="round" stroke-width="1"/><path d="M965.111-5652.607a6.571,6.571,0,0,1-3.186-.726c-1.693-1.024-.812-.953-.168-2.074a2.5,2.5,0,0,0-1.048-3.369,2.5,2.5,0,0,0-1.382-.277,5.169,5.169,0,0,0-.65.044l.28-2.418c.279-2.419-2.883-1.279-2.05-6.411.634-3.91,4.016-5.771,8.005-5.771a14.579,14.579,0,0,1,3.85.54c6.036,1.66,8.484,6.647,4.16,15.173C970.807-5653.73,967.6-5652.607,965.111-5652.607Z" transform="translate(-956.766 5673.611)" fill="none" stroke="#e3696f" stroke-linecap="round" stroke-linejoin="round" stroke-width="1"/></g><path d="M943.759-5578.879c.338-1.127.676-2.481,1-4.112,2-9.913,2.63-13.111,2.63-13.111" transform="translate(-109.102 -90.474)" fill="none" stroke="#e3696f" stroke-linecap="round" stroke-linejoin="round" stroke-width="1"/><path d="M969.345-5630.727c2.475,7.533-3.375,11.917-4.228,22.848s3.744,19.25.478,21.34-17.2,9.9-23.8,2.761c-3.711-4.015-4-2.581-2.972-3.378" transform="translate(-106.948 -76.788)" fill="none" stroke="#e3696f" stroke-linecap="round" stroke-linejoin="round" stroke-width="1"/><path d="M957.526-5657.71c-.827,9.5-1.153,12.746,5.335,11.011" transform="translate(-114.37 -66.122)" fill="none" stroke="#e3696f" stroke-linecap="round" stroke-linejoin="round" stroke-width="1"/><path d="M977.725-5639.107c7.11-2.778,20.086,13.2,18.86,15.387s-6.021,13.1-15.613,20.9" transform="translate(-122.528 -73.348)" fill="none" stroke="#e3696f" stroke-linecap="round" stroke-linejoin="round" stroke-width="1"/><path d="M982.638-5601.127c5.359-9.343,4.789-10.377,8.28-12.516" transform="translate(-124.47 -83.541)" fill="none" stroke="#e3696f" stroke-linecap="round" stroke-linejoin="round" stroke-width="1"/><path d="M989.81-5618.962a4.2,4.2,0,0,0,2.342,4.354" transform="translate(-127.289 -81.438)" fill="none" stroke="#e3696f" stroke-linecap="round" stroke-linejoin="round" stroke-width="1"/><path d="M951.637-5611.811c-3.971,5.422-9.175,13.5-13.736,18.185" transform="translate(-106.786 -84.265)" fill="none" stroke="#e3696f" stroke-linecap="round" stroke-linejoin="round" stroke-width="1"/><path d="M935.961-5606.871c-1.607,1.989,1.384,9.879,1.344,12.542s-2.463,4.316-7.026,3.689c0,0-1.633-6.894-2.868-12.289s4.3-13.511,7.446-20.033,7.232-8.046,13.981-12.543c3.305,2.968,7.092,2.222,8.587.43a3.5,3.5,0,0,0,.342-3.819" transform="translate(-102.57 -73.559)" fill="none" stroke="#e3696f" stroke-linecap="round" stroke-linejoin="round" stroke-width="1"/><path d="M967.921-5509.325a103.257,103.257,0,0,1,1.149,11.149c-.218,3.237,1.975,5.124,6.585,4.315s1.327-7.822,0-19.956c-1.569-14.344,5.1-30.107.553-42.74" transform="translate(-118.652 -106.106)" fill="none" stroke="#e3696f" stroke-linecap="round" stroke-linejoin="round" stroke-width="1"/><path d="M943.028-5540.48a51.848,51.848,0,0,1,1.168-11.732" transform="translate(-108.811 -107.823)" fill="none" stroke="#e3696f" stroke-linecap="round" stroke-linejoin="round" stroke-width="1"/><path d="M962.691-5466.569c.423,10.294.726,15.018-1.762,16.34a3.577,3.577,0,0,1-.882.334" transform="translate(-115.54 -141.676)" fill="none" stroke="#e3696f" stroke-linecap="round" stroke-linejoin="round" stroke-width="1"/><path d="M962.436-5442.923c1.008,3.427.931,6.116-2.411,5.8" transform="translate(-115.531 -151.022)" fill="none" stroke="#e3696f" stroke-linecap="round" stroke-linejoin="round" stroke-width="1"/><path d="M980.075-5454.974c.49,2.6.169,4.173-2.74,3.665s-3.227-.98-3.036-2.212" transform="translate(-121.156 -146.259)" fill="none" stroke="#e3696f" stroke-linecap="round" stroke-linejoin="round" stroke-width="1"/><path d="M969.688-5454.431c-2.584.422-3.948.264-4.854-1.189" transform="translate(-117.432 -146.003)" fill="none" stroke="#e3696f" stroke-linecap="round" stroke-linejoin="round" stroke-width="1"/><path d="M967.712-5462.594a6.094,6.094,0,0,0-3.151-.573" transform="translate(-117.324 -143.011)" fill="none" stroke="#e3696f" stroke-linecap="round" stroke-linejoin="round" stroke-width="1"/><path d="M964.625-5640.246c.968,1.8.218,4.869.218,4.869" transform="translate(-117.35 -73.025)" fill="none" stroke="#e3696f" stroke-linecap="round" stroke-linejoin="round" stroke-width="1"/><path d="M940.36-5561.551c2.963,1.266,5.033.43,4.821,1.619s-3.571.653-4.572.284-2.86.172-3.709-.284" transform="translate(-106.39 -104.131)" fill="none" stroke="#e3696f" stroke-linecap="round" stroke-linejoin="round" stroke-width="1"/><path d="M978.038-5641.435c-1.13,1.45-.287,4.6-.287,4.6" transform="translate(-122.418 -72.555)" fill="none" stroke="#e3696f" stroke-linecap="round" stroke-linejoin="round" stroke-width="1"/><path d="M899.464-5495.1c-2.531.287-3.983.525-5.472,1.965-2.832,2.737-11.8,14.914-10.383,18.879s3.209,9.816,9.44,10q.443-.658.855-1.311" transform="translate(-85.266 -130.396)" fill="none" stroke="#e26371" stroke-linecap="round" stroke-linejoin="round" stroke-width="1"/><path d="M908-5514.064c-3.585-.413-3.755-4.635-2.649-15.118" transform="translate(-93.683 -116.926)" fill="none" stroke="#e26371" stroke-linecap="round" stroke-linejoin="round" stroke-width="1"/><path d="M870.4-5488.531c-5.136-7.989-7.1-9.3-13.251-4.876s-22.214,12.705-23.115,13.115a12.217,12.217,0,0,0,1.64,6.886c8.852-2.622,20.223-5.969,23.258-7.363" transform="translate(-65.72 -130.075)" fill="none" stroke="#e26371" stroke-linecap="round" stroke-linejoin="round" stroke-width="1"/><path d="M815.285-5471.22a12.6,12.6,0,0,0-1.9-4.582c-1.625-2.561-4.43.529-3.657,3.9s2.682,2.764,2.233,7.762,2.6,6.057,3.7,6.1,1.991-1.87,4.611-4.395c-3.922-.595-3.205-6.008-1.424-8.383-2.253.056-4-.187-5.1-1.407" transform="translate(-56.072 -137.652)" fill="none" stroke="#e26371" stroke-linecap="round" stroke-linejoin="round" stroke-width="1"/><path d="M810.845-5476.55c-1.851.316-2.249.912-2.588,2.47a9.5,9.5,0,0,0,1.587,6.49c1.474,2.268-.381,1.587-.346,5.159s1.99,5.783,4.145,5.783a2.588,2.588,0,0,0,2.592-1.915" transform="translate(-55.499 -137.73)" fill="none" stroke="#e26371" stroke-linecap="round" stroke-linejoin="round" stroke-width="1"/><line x1="5.853" y2="1.872" transform="translate(762.439 -5609.826)" fill="none" stroke="#e26371" stroke-linecap="round" stroke-linejoin="round" stroke-width="1"/><line x1="6.105" y2="3.546" transform="translate(763.689 -5603.745)" fill="none" stroke="#e26371" stroke-linecap="round" stroke-linejoin="round" stroke-width="1"/><path d="M879.393-5463.273c-6.4,10.043-7.691,13.606-4.991,15.386s7.6,1.1,7.6,1.1a17.636,17.636,0,0,0,6.972-3.345" transform="translate(-81.162 -142.978)" fill="none" stroke="#e26371" stroke-linecap="round" stroke-linejoin="round" stroke-width="1"/><path d="M875.471-5480.691c-.722,6.254-.06,8.632,4.249,11.357" transform="translate(-82.01 -136.093)" fill="none" stroke="#e26371" stroke-linecap="round" stroke-linejoin="round" stroke-width="1"/><path d="M874.355-5460.394c-4.246-8.071-6.545-7.764-6.545-7.764" transform="translate(-79.081 -141.047)" fill="none" stroke="#e26371" stroke-linecap="round" stroke-linejoin="round" stroke-width="1"/><path d="M852.926-5463.656c-1.693,8.417.215,13.217,7.87,23.362,6.991,9.265,8.18,10.114,11.123,11.384a5.708,5.708,0,0,0,5.313-.406" transform="translate(-72.972 -142.827)" fill="none" stroke="#e26371" stroke-linecap="round" stroke-linejoin="round" stroke-width="1"/><path d="M911.55-5527.7c.5-2.271.1-2.581-1.373-3.733-.544-.428-1.286.159-1.423.722-.507,2.069-.685,2.205-2.007,2.021s1.347-5.9-1-5.875-5.357-5.281,1.594-7.386c6.083-1.84,12.3-.653,14.258,3.4a5.718,5.718,0,0,1,.346,4.838" transform="translate(-93.007 -111.547)" fill="none" stroke="#e26371" stroke-linecap="round" stroke-linejoin="round" stroke-width="1"/><path d="M892.481-5445.528a6.972,6.972,0,0,1-1.572,2.408" transform="translate(-88.211 -149.993)" fill="none" stroke="#e26371" stroke-linecap="round" stroke-linejoin="round" stroke-width="1"/><path d="M877.077-5439.072l6.671,4.264a.785.785,0,0,1,.29,1.072l0,.005a.8.8,0,0,1-.288.288l-2.27,1.311a3.156,3.156,0,0,1-3.157,0l-18.3-10.574a1.84,1.84,0,0,1-.672-2.514,1.833,1.833,0,0,1,.672-.672l.431-.25a3.679,3.679,0,0,1,3.683,0l1.806,1.043" transform="translate(-75.64 -149.554)" fill="none" stroke="#4f4f4f" stroke-linecap="round" stroke-miterlimit="10" stroke-width="1"/><path d="M924.766-5464.539l9.625-5.563a5.262,5.262,0,0,0,2.627-4.551v-2.779c0-20.346,10.057-29.562,10.057-58.13v-1.258a2.629,2.629,0,0,0-2.629-2.628,2.627,2.627,0,0,0-1.313.353l-28.634,16.55a5.253,5.253,0,0,0-2.626,4.551v2.778c0,28.569-10.058,37.785-10.058,58.13v1.259a2.629,2.629,0,0,0,2.629,2.627h0a2.633,2.633,0,0,0,1.315-.353l13.909-8.039" transform="translate(-92.522 -112.868)" fill="none" stroke="#4f4f4f" stroke-linecap="round" stroke-miterlimit="10" stroke-width="1"/><path d="M893.825-5418.474a59.053,59.053,0,0,0-.333,6.3v1.259a2.6,2.6,0,0,0,1.27,2.249" transform="translate(-89.232 -160.686)" fill="none" stroke="#4f4f4f" stroke-linecap="round" stroke-miterlimit="10" stroke-width="1"/><path d="M938.621-5543.905a2.6,2.6,0,0,0-2.629,0l-28.635,16.548a5.256,5.256,0,0,0-2.626,4.55v2.778c0,21.845-5.487,32.232-8.254,45.072" transform="translate(-90.413 -110.965)" fill="none" stroke="#4f4f4f" stroke-linecap="round" stroke-miterlimit="10" stroke-width="1"/><line x1="5.361" y1="3.126" transform="translate(848.178 -5654.887)" fill="none" stroke="#4f4f4f" stroke-linecap="round" stroke-miterlimit="10" stroke-width="1"/><line x1="5.066" y1="2.93" transform="translate(805.53 -5569.352)" fill="none" stroke="#4f4f4f" stroke-linecap="round" stroke-miterlimit="10" stroke-width="1"/><path d="M901.724-5408.286l-12.494,7.218a5.261,5.261,0,0,1-5.261,0l-25.181-14.551a1.579,1.579,0,0,0-2.156.583h0a1.581,1.581,0,0,0-.21.783v.349a4.733,4.733,0,0,0,2.363,4.1l25.181,14.552a5.258,5.258,0,0,0,5.261,0l24.008-13.874,3.87-2.229a3.945,3.945,0,0,0,1.97-3.414v-4.539" transform="translate(-74.579 -160.356)" fill="none" stroke="#4f4f4f" stroke-linecap="round" stroke-miterlimit="10" stroke-width="1"/><path d="M948.779-5424.221l2.272,1.313a1.84,1.84,0,0,1,.674,2.513h0a1.842,1.842,0,0,1-.674.673l-11.4,6.588" transform="translate(-107.477 -158.414)" fill="none" stroke="#4f4f4f" stroke-linecap="round" stroke-miterlimit="10" stroke-width="1"/><path d="M864.418-5434.365a2.615,2.615,0,0,0-.279,1.186v8.335a7.887,7.887,0,0,0,3.939,6.827l14.9,8.647a2.628,2.628,0,0,0,3.59-.961,2.629,2.629,0,0,0,.353-1.314v-8.335a7.886,7.886,0,0,0-2.491-5.751" transform="translate(-77.63 -154.405)" fill="none" stroke="#4f4f4f" stroke-linecap="round" stroke-miterlimit="10" stroke-width="1"/><path d="M954.743-5427.412a2.623,2.623,0,0,0,3.13-1.987v0a2.614,2.614,0,0,0,.061-.644v-2.25" transform="translate(-113.443 -155.223)" fill="none" stroke="#4f4f4f" stroke-linecap="round" stroke-miterlimit="10" stroke-width="1"/><path d="M859.107-5439.328a1.823,1.823,0,0,0,.919,1.615l18.3,10.575a3.15,3.15,0,0,0,3.156,0l2.27-1.312a.785.785,0,0,0,.394-.683v-2.1" transform="translate(-75.641 -152.443)" fill="none" stroke="#4f4f4f" stroke-linecap="round" stroke-miterlimit="10" stroke-width="1"/><line x1="0.015" y2="2.313" transform="translate(783.466 -5594.087)" fill="none" stroke="#4f4f4f" stroke-linecap="round" stroke-miterlimit="10" stroke-width="1"/><path d="M935.705-5444.434a5.273,5.273,0,0,0-2.451,3.21,63.625,63.625,0,0,0-2.412,17.042v10.729a1.547,1.547,0,0,1-.752,1.331h0l3.556-2.056,1.391-.813a1.693,1.693,0,0,0,.838-1.46v-7.734a65.3,65.3,0,0,1,2.756-18.3,1.838,1.838,0,0,0-1.283-2.261h0a1.834,1.834,0,0,0-1.411.183Z" transform="translate(-103.699 -150.274)" fill="none" stroke="#4f4f4f" stroke-linecap="round" stroke-miterlimit="10" stroke-width="1"/><path d="M911-5372.781v4.83c0,.8-1.125,1.451-2.515,1.451s-2.515-.651-2.515-1.451v-4.83" transform="translate(-94.163 -178.748)" fill="none" stroke="#4f4f4f" stroke-linecap="round" stroke-miterlimit="10" stroke-width="1"/><ellipse cx="2.515" cy="1.453" rx="2.515" ry="1.453" transform="translate(811.805 -5552.982)" fill="none" stroke="#4f4f4f" stroke-linecap="round" stroke-miterlimit="10" stroke-width="1"/><path d="M909.527-5375.465c-.508,0-.919-.233-.919-.52v-3.4c0-.288.412-.52.919-.52s.92.233.92.52v3.4C910.446-5375.7,910.035-5375.465,909.527-5375.465Z" transform="translate(-95.207 -175.933)" fill="none" stroke="#4f4f4f" stroke-linecap="round" stroke-miterlimit="10" stroke-width="1"/><line x1="1.05" y2="2.734" transform="translate(813.399 -5555.5)" fill="none" stroke="#4f4f4f" stroke-linecap="round" stroke-miterlimit="10" stroke-width="1"/><path d="M895.855-5374.171l1.1-7.015v-2.628l-1.4,8.928c-.113.716.933,1.32,2.177,1.255l22.593-1.179c1.653-.086,2.042,1.308.423,1.513l-22.133,2.832c-1.217.155-1.883.913-1.384,1.572l9.058,12.049c.665.881-1.507,1.517-2.358.691l-11.636-11.29a2.966,2.966,0,0,0-3.031-.283l-16.993,8.625c-1.244.631-2.974-.368-1.881-1.085l14.94-9.812c.821-.541.587-1.38-.49-1.75l-19.561-6.717c-1.431-.49-.331-1.744,1.2-1.363l20.869,5.229a3.06,3.06,0,0,0,2.278-.289" transform="translate(-77.819 -174.386)" fill="none" stroke="#4f4f4f" stroke-linecap="round" stroke-miterlimit="10" stroke-width="1"/><path d="M920-5359.528a3.077,3.077,0,0,1,.51-.11l22.133-2.832c.6-.078.932-.322,1.014-.592" transform="translate(-99.71 -182.589)" fill="none" stroke="#4f4f4f" stroke-linecap="round" stroke-miterlimit="10" stroke-width="1"/><path d="M873.6-5345.1c-.121.615,1.209,1.178,2.219.665l16.993-8.625a2.97,2.97,0,0,1,3.031.283l11.635,11.293c.734.712,2.443.34,2.479-.34" transform="translate(-81.367 -186.43)" fill="none" stroke="#4f4f4f" stroke-linecap="round" stroke-miterlimit="10" stroke-width="1"/><path d="M864.625-5371.868c-.064.272.116.564.654.749l19,6.527" transform="translate(-77.817 -179.108)" fill="none" stroke="#4f4f4f" stroke-linecap="round" stroke-miterlimit="10" stroke-width="1"/><line y2="2.643" transform="translate(828.596 -5530.895)" fill="none" stroke="#4f4f4f" stroke-linecap="round" stroke-miterlimit="10" stroke-width="1"/><line y2="2.595" transform="translate(843.965 -5548.307)" fill="none" stroke="#4f4f4f" stroke-linecap="round" stroke-miterlimit="10" stroke-width="1"/><line y2="2.606" transform="translate(792.227 -5534.07)" fill="none" stroke="#4f4f4f" stroke-linecap="round" stroke-miterlimit="10" stroke-width="1"/><line y1="2.459" transform="translate(786.805 -5553.415)" fill="none" stroke="#4f4f4f" stroke-linecap="round" stroke-miterlimit="10" stroke-width="1"/><path d="M821.374-5623.091a4.3,4.3,0,0,1,2.879.431h0c1.077.621,1.193,1.561.262,2.1l-152.245,87.52a4.039,4.039,0,0,1-3.635-.151h0c-1.076-.62-1.193-1.561-.261-2.1l3.541-2.044" transform="translate(0 -79.773)" fill="none" stroke="#4f4f4f" stroke-linecap="round" stroke-miterlimit="10" stroke-width="1"/><path d="M824.515-5822.378,672.27-5734.859a4.039,4.039,0,0,1-3.635-.151h0c-1.076-.621-1.193-1.561-.261-2.1l3.541-2.043,148.7-85.477a2.61,2.61,0,0,1,.756-.279,4.3,4.3,0,0,1,2.88.43h0C825.33-5823.855,825.446-5822.917,824.515-5822.378Z" transform="translate(0 0)" fill="none" stroke="#4f4f4f" stroke-linecap="round" stroke-miterlimit="10" stroke-width="1"/><path d="M824.1-5817.672v119.351l-149.46,85.913V-5731.8" transform="translate(-2.725 -2.893)" fill="none" stroke="#4f4f4f" stroke-linecap="round" stroke-miterlimit="10" stroke-width="1"/><path d="M701.851-5565.25l-9.263,5.348c-.932.538-1.693-.039-1.693-1.283v-22.133a4.078,4.078,0,0,1,1.693-3.239l9.263-5.348c.932-.539,1.693.04,1.693,1.282v22.133A4.072,4.072,0,0,1,701.851-5565.25Z" transform="translate(-9.151 -92.054)" fill="#4f4f4f"/><path d="M728.342-5599.043l-7.34,4.237c-1.462.846-2.657-.061-2.657-2.008v-48.3A6.4,6.4,0,0,1,721-5650.2l7.34-4.237c1.461-.848,2.656.06,2.656,2.008v48.3A6.374,6.374,0,0,1,728.342-5599.043Z" transform="translate(-20.001 -67.292)" fill="#4f4f4f"/><path d="M755.871-5612.73l-7.479,4.317c-1.423.822-2.587-.059-2.587-1.955v-45.084a6.217,6.217,0,0,1,2.587-4.942l7.479-4.319c1.422-.822,2.586.061,2.586,1.955v45.084A6.213,6.213,0,0,1,755.871-5612.73Z" transform="translate(-30.855 -63.232)" fill="#4f4f4f"/><path d="M782.96-5640.7l-6.74,3.888c-1.626.938-2.957-.067-2.957-2.234v-63.125a7.105,7.105,0,0,1,2.957-5.649l6.74-3.892c1.626-.938,2.958.067,2.958,2.233v63.125A7.11,7.11,0,0,1,782.96-5640.7Z" transform="translate(-41.709 -44.639)" fill="#4f4f4f"/><path d="M811.5-5632.482l-8.9,5.136c-1.035.6-1.878-.042-1.878-1.421v-27.739a4.51,4.51,0,0,1,1.878-3.589l8.9-5.137c1.035-.6,1.879.042,1.879,1.42v27.739A4.516,4.516,0,0,1,811.5-5632.482Z" transform="translate(-52.562 -63.06)" fill="#4f4f4f"/><path d="M838.1-5664.922l-7.184,4.146c-1.5.872-2.735-.061-2.735-2.07v-51.975a6.57,6.57,0,0,1,2.735-5.225l7.184-4.147c1.5-.869,2.735.06,2.735,2.069v51.976A6.567,6.567,0,0,1,838.1-5664.922Z" transform="translate(-63.416 -39.715)" fill="#4f4f4f"/><path d="M865.794-5673.423,858.13-5669c-1.373.792-2.5-.055-2.5-1.888v-41.043a6,6,0,0,1,2.5-4.771l7.661-4.422c1.373-.794,2.5.055,2.5,1.887v41.042A5.994,5.994,0,0,1,865.794-5673.423Z" transform="translate(-74.268 -40.939)" fill="#4f4f4f"/><path d="M893.72-5676.934l-8.587,4.958c-1.118.645-2.032-.045-2.032-1.536v-22.778a4.886,4.886,0,0,1,2.032-3.884l8.587-4.959c1.118-.644,2.032.045,2.032,1.536v22.779A4.887,4.887,0,0,1,893.72-5676.934Z" transform="translate(-85.125 -47.282)" fill="#4f4f4f"/><path d="M735.3-5565.283l-42.958,24.8c-.8.464-1.451-.029-1.451-1.1h0a3.479,3.479,0,0,1,1.451-2.774l42.958-24.8c.8-.464,1.451.027,1.451,1.1h0A3.48,3.48,0,0,1,735.3-5565.283Z" transform="translate(-9.15 -101.057)" fill="#4f4f4f"/><path d="M817.675-5612.843l-42.958,24.8c-.8.464-1.451-.028-1.451-1.1h0a3.483,3.483,0,0,1,1.451-2.776l42.958-24.8c.8-.464,1.451.027,1.451,1.1h0A3.48,3.48,0,0,1,817.675-5612.843Z" transform="translate(-41.71 -82.256)" fill="#4f4f4f"/><path d="M883.445-5644.546l-26.353,15.214c-.8.464-1.451-.028-1.451-1.1h0a3.478,3.478,0,0,1,1.451-2.774l26.353-15.215c.8-.463,1.451.028,1.451,1.1h0A3.479,3.479,0,0,1,883.445-5644.546Z" transform="translate(-74.27 -69.726)" fill="#4f4f4f"/><path d="M811.085-5532.409v-20.907l-2.9,1.669v19.239" transform="translate(-55.511 -107.387)" fill="none" stroke="#4f4f4f" stroke-linecap="round" stroke-miterlimit="10" stroke-width="1"/><line x2="9.148" y2="0.172" transform="translate(758.469 -5639.614)" fill="none" stroke="#4f4f4f" stroke-linecap="round" stroke-miterlimit="10" stroke-width="1"/><line x1="3.788" y1="14.129" transform="translate(754.966 -5636.544)" fill="none" stroke="#4f4f4f" stroke-linecap="round" stroke-miterlimit="10" stroke-width="1"/><line x1="13.384" y2="3.726" transform="translate(736.483 -5638.51)" fill="none" stroke="#4f4f4f" stroke-linecap="round" stroke-miterlimit="10" stroke-width="1"/><path d="M809.171-5521.361a5.5,5.5,0,0,1,1.633.6c1.7.984,1.712,2.572.019,3.55a6.8,6.8,0,0,1-6.149-.011c-1.7-.983-1.712-2.573-.019-3.55a5.4,5.4,0,0,1,1.633-.591" transform="translate(-53.618 -120.015)" fill="none" stroke="#4f4f4f" stroke-linecap="round" stroke-miterlimit="10" stroke-width="1"/><path d="M808.181-5518.723a.744.744,0,0,0,.427.568,2.272,2.272,0,0,0,2.056,0,.716.716,0,0,0,.423-.591" transform="translate(-55.511 -121.052)" fill="none" stroke="#4f4f4f" stroke-linecap="round" stroke-miterlimit="10" stroke-width="1"/><ellipse cx="1.287" cy="2.229" rx="1.287" ry="2.229" transform="translate(756.746 -5620.684) rotate(-89.689)" fill="none" stroke="#4f4f4f" stroke-linecap="round" stroke-miterlimit="10" stroke-width="1"/><ellipse cx="1.287" cy="2.229" rx="1.287" ry="2.229" transform="translate(765.741 -5638.025) rotate(-89.689)" fill="none" stroke="#4f4f4f" stroke-linecap="round" stroke-miterlimit="10" stroke-width="1"/><ellipse cx="1.287" cy="2.229" rx="1.287" ry="2.229" transform="translate(734.247 -5633.51) rotate(-89.689)" fill="none" stroke="#4f4f4f" stroke-linecap="round" stroke-miterlimit="10" stroke-width="1"/><path d="M774.5-5534.826c-31.379,14.479-51.486,36.783-51.486,61.8,0,43.641,61.171,79.02,136.628,79.02s136.628-35.378,136.628-79.02c0-15.5-7.72-29.965-21.058-42.167" transform="translate(-21.845 -114.695)" fill="none" stroke="#4f4f4f" stroke-linecap="round" stroke-miterlimit="10" stroke-width="1"/><path d="M884.548-5562.9c-26.751,1.193-51.342,6.842-71.561,15.666" transform="translate(-57.411 -103.597)" fill="none" stroke="#4f4f4f" stroke-linecap="round" stroke-miterlimit="10" stroke-width="1"/><path d="M1042.437-5548.047a200.108,200.108,0,0,0-57.077-13.56" transform="translate(-125.546 -104.109)" fill="none" stroke="#4f4f4f" stroke-linecap="round" stroke-miterlimit="10" stroke-width="1"/></g></svg>