<svg xmlns="http://www.w3.org/2000/svg" width="375" height="342" viewBox="0 0 375 342"><rect width="375" height="342" fill="none"/><g transform="translate(-1632.745 5784.991)"><line y2="36.22" transform="translate(1955.202 -5579.563)" fill="none" stroke="#4f4f4f" stroke-linecap="round" stroke-miterlimit="10" stroke-width="1"/><path d="M1813.141-5491.314a13.16,13.16,0,0,1-7.9-1.705" transform="translate(-48.831 -85.643)" fill="none" stroke="#4f4f4f" stroke-linecap="round" stroke-miterlimit="10" stroke-width="1"/><path d="M1906.707-5507.827a133.973,133.973,0,0,0-51.661,2.472" transform="translate(-68.431 -79.251)" fill="none" stroke="#4f4f4f" stroke-linecap="round" stroke-miterlimit="10" stroke-width="1"/><path d="M1946.065-5613.761c-39.337-14.832-89.126-16.7-131.334-5.64" transform="translate(-52.565 -33.112)" fill="none" stroke="#4f4f4f" stroke-linecap="round" stroke-miterlimit="10" stroke-width="1"/><path d="M2058.318-5531.716,2095.4-5510.3a5.22,5.22,0,0,0,7.132-1.908,5.234,5.234,0,0,0,.648-1.88c2.054-14.657-2.929-29.556-14.963-42.868" transform="translate(-148.43 -60.479)" fill="none" stroke="#4f4f4f" stroke-linecap="round" stroke-miterlimit="10" stroke-width="1"/><line x2="17.086" y2="9.865" transform="translate(1888.565 -5604.505)" fill="none" stroke="#4f4f4f" stroke-linecap="round" stroke-miterlimit="10" stroke-width="1"/><path d="M1799.039-5563.441l3.656,2.111a13.012,13.012,0,0,0,12.065.545c22.091-10.477,51.632-13.028,77.24-7.652l.034,0,.075.027q3.107.656,6.133,1.467" transform="translate(-46.389 -54.885)" fill="none" stroke="#4f4f4f" stroke-linecap="round" stroke-miterlimit="10" stroke-width="1"/><path d="M2055.84-5509.881l37.409,21.6a6.118,6.118,0,0,0,8.36-2.23h0a6.11,6.11,0,0,0,.788-2.4c.067-.618.121-1.238.161-1.856" transform="translate(-147.455 -79.007)" fill="none" stroke="#4f4f4f" stroke-linecap="round" stroke-miterlimit="10" stroke-width="1"/><line x2="8.012" y2="4.626" transform="translate(1895.238 -5596.478)" fill="none" stroke="#4f4f4f" stroke-linecap="round" stroke-miterlimit="10" stroke-width="1"/><path d="M1797.526-5557.09l2.237,1.291a18.335,18.335,0,0,0,16.573.9c21.832-9.643,50.292-11.86,75.07-6.658l.034,0,.075.027q2.071.437,4.107.942" transform="translate(-45.793 -57.594)" fill="none" stroke="#4f4f4f" stroke-linecap="round" stroke-miterlimit="10" stroke-width="1"/><path d="M2062.971-5456.085l34.264,19.781a5.221,5.221,0,0,0,7.131-1.907h0a5.231,5.231,0,0,0,.649-1.881,46.159,46.159,0,0,0,.45-6.533" transform="translate(-150.262 -100.178)" fill="none" stroke="#4f4f4f" stroke-linecap="round" stroke-miterlimit="10" stroke-width="1"/><path d="M1850.842-5510.031a133.219,133.219,0,0,1,54.211-3.153" transform="translate(-66.776 -77.145)" fill="none" stroke="#4f4f4f" stroke-linecap="round" stroke-miterlimit="10" stroke-width="1"/><path d="M1791.114-5506.54l8.568,4.946a13.031,13.031,0,0,0,11.482.8" transform="translate(-43.27 -80.321)" fill="none" stroke="#4f4f4f" stroke-linecap="round" stroke-miterlimit="10" stroke-width="1"/><path d="M2106.634-5440.377a46.314,46.314,0,0,1-.448,6.3,5.226,5.226,0,0,1-5.892,4.46h0a5.185,5.185,0,0,1-1.892-.648l-10.756-6.21-21.7-12.529" transform="translate(-151.431 -102.964)" fill="none" stroke="#4f4f4f" stroke-linecap="round" stroke-miterlimit="10" stroke-width="1"/><line x1="9.11" y1="5.26" transform="translate(1747.308 -5583.922)" fill="none" stroke="#4f4f4f" stroke-linecap="round" stroke-miterlimit="10" stroke-width="1"/><path d="M2032.139-5628.272l54.832,27.4a1.535,1.535,0,0,0,2.058-.687,1.537,1.537,0,0,0,.149-.485l6.282-48.151a3.069,3.069,0,0,0-1.671-3.141l-54.833-27.4a1.533,1.533,0,0,0-2.058.686,1.539,1.539,0,0,0-.149.488l-6.282,48.152A3.067,3.067,0,0,0,2032.139-5628.272Z" transform="translate(-137.459 -11.702)" fill="none" stroke="#4f4f4f" stroke-linecap="round" stroke-miterlimit="10" stroke-width="1"/><line x1="58.715" y1="29.338" transform="translate(1893.73 -5648.632)" fill="none" stroke="#4f4f4f" stroke-linecap="round" stroke-miterlimit="10" stroke-width="1"/><path d="M2075.981-5569.335l13.624,6.808-9.987,5.054a4.093,4.093,0,0,1-3.677.008l-9.965-4.979a1.022,1.022,0,0,1-.459-1.371h0a1.019,1.019,0,0,1,.454-.456Z" transform="translate(-151.222 -55.608)" fill="none" stroke="#4f4f4f" stroke-linecap="round" stroke-miterlimit="10" stroke-width="1"/><path d="M1948.649-5544.869a1.569,1.569,0,0,1,1.744-.109l2.594,1.5" transform="translate(-105.269 -65.11)" fill="none" stroke="#4f4f4f" stroke-linecap="round" stroke-miterlimit="10" stroke-width="1"/><path d="M1988.991-5523.208l4.473,2.583a7.9,7.9,0,0,1,3.952,6.844v20.068a1.565,1.565,0,0,1-.64,1.273" transform="translate(-121.146 -73.762)" fill="none" stroke="#4f4f4f" stroke-linecap="round" stroke-miterlimit="10" stroke-width="1"/><line x1="24.948" y1="14.404" transform="translate(1883.324 -5613.467)" fill="none" stroke="#4f4f4f" stroke-linecap="round" stroke-miterlimit="10" stroke-width="1"/><path d="M2015.73-5560.692l9.016-5.205a1.581,1.581,0,0,1,1.58,0l35.983,20.774a.789.789,0,0,1,.291,1.077l0,0a.8.8,0,0,1-.289.289l-11.752,6.788a1.578,1.578,0,0,1-1.58,0l-5.541-3.2" transform="translate(-131.669 -56.877)" fill="none" stroke="#4f4f4f" stroke-linecap="round" stroke-miterlimit="10" stroke-width="1"/><path d="M2061.046-5525.451l5.281,3.048a2.547,2.547,0,0,0,2.547,0l11.268-6.505a.787.787,0,0,0,.4-.684v-.8" transform="translate(-149.504 -70.935)" fill="none" stroke="#4f4f4f" stroke-linecap="round" stroke-miterlimit="10" stroke-width="1"/><line x2="23.555" y2="13.599" transform="translate(1884.472 -5612.014)" fill="none" stroke="#4f4f4f" stroke-linecap="round" stroke-miterlimit="10" stroke-width="1"/><path d="M1988.57-5607.208c3.4,2.108,8.325,5.789,6.274,9.653s-4.947,7.484-6.274,5.309-4.224,1.81-2.295,4.344,5.189,8.446,1.328,12.189-5.068,3.5-3.5,6.878-.942,7.844-3.2,8.563-4.812,1.881-5.121,3.375c-5.913-2.982-7.887-.545-14.573-4.967s-6.941-8.844-3.96-15.169,3.5-6.222,7.508-8.844,3.5-4.427,3.551-7.508.206-11.877,7.456-14.191S1986.522-5608.482,1988.57-5607.208Z" transform="translate(-107.935 -40.071)" fill="none" stroke="#f1c354" stroke-linecap="round" stroke-linejoin="round" stroke-width="1"/><path d="M2016.07-5588.4c.15,2.521-1.744,4.713-1.793,5.71s.862,3.532-3.332,8.394" transform="translate(-129.786 -48.106)" fill="none" stroke="#f1c354" stroke-linecap="round" stroke-linejoin="round" stroke-width="1"/><path d="M2024.55-5514c3.97-2.814,4.622-8.685,4.622-9.244s-2.231-4.306-3.108-4.224,1.1,2.189-1.717,7.022-5.291,3.181-3.512,4.67S2023.787-5513.463,2024.55-5514Z" transform="translate(-133.443 -72.083)" fill="none" stroke="#f1c354" stroke-linecap="round" stroke-linejoin="round" stroke-width="1"/><path d="M2015.848-5515.224c-3.12-.874-5.08-2.251-6.162-3.906a7.533,7.533,0,0,1-1.642-4.469" transform="translate(-128.645 -73.608)" fill="none" stroke="#f1c354" stroke-linecap="round" stroke-linejoin="round" stroke-width="1"/><path d="M2009.381-5555.216c4.042,3.383,4.659,4.769,6.083,7.772s5.06,8.708,6.1,9.631" transform="translate(-129.171 -61.165)" fill="none" stroke="#f1c354" stroke-linecap="round" stroke-linejoin="round" stroke-width="1"/><path d="M2034.749-5518.661a46.3,46.3,0,0,0,5.033,5.094" transform="translate(-139.154 -75.551)" fill="none" stroke="#f1c354" stroke-linecap="round" stroke-linejoin="round" stroke-width="1"/><path d="M2036.378-5521.79c2.156-2.1,6.071-6.241,7.374-8.511s1.334-3.232,1.247-4.384-.306-8.669,3.57-6.336c3.143,1.889,3.807,3.578,1.845,6.549a16.678,16.678,0,0,0-2.685,5.543c-.937,2.472-5.5,14.069-9,14.5s-10.709-5.39-10.709-5.39" transform="translate(-136.508 -66.575)" fill="none" stroke="#f1c354" stroke-linecap="round" stroke-linejoin="round" stroke-width="1"/><path d="M2010.43-5558.519c5.943.006,9.244-1.97,11.545-2.426s3.14.064,5.721,2.426,1.715,2.362.887,1.967-3.9-2.563-4.891-2.4a12.75,12.75,0,0,0-3.154,1.427c-1.26.625,1.456,1.292,2.287,1.175s1.341,1.3.08,1.066a26.439,26.439,0,0,0-5.088-.275c-2.682,0-5.518.3-5.518.3" transform="translate(-129.584 -58.851)" fill="none" stroke="#f1c354" stroke-linecap="round" stroke-linejoin="round" stroke-width="1"/><line x1="4.499" y2="2.698" transform="translate(1871.129 -5566.205)" fill="none" stroke="#4f4f4f" stroke-linecap="round" stroke-miterlimit="10" stroke-width="1"/><line x1="4.399" y2="2.627" transform="translate(1838.981 -5609.979)" fill="none" stroke="#4f4f4f" stroke-linecap="round" stroke-miterlimit="10" stroke-width="1"/><path d="M1949.748-5490.884l-.17.1c-3.553,2.052-3.939,5.155-.862,6.932l26.012,14.985c3.078,1.777,8.454,1.553,12.008-.5l16.773-9.684c3.333-1.924,3.881-4.771,1.4-6.583" transform="translate(-104.478 -86.483)" fill="none" stroke="#4f4f4f" stroke-linecap="round" stroke-miterlimit="10" stroke-width="1"/><line y1="5.839" transform="translate(1901.97 -5569.346)" fill="none" stroke="#4f4f4f" stroke-linecap="round" stroke-miterlimit="10" stroke-width="1"/><line y1="5.626" transform="translate(1842.16 -5573.113)" fill="none" stroke="#4f4f4f" stroke-linecap="round" stroke-miterlimit="10" stroke-width="1"/><path d="M1997.127-5435.838v5.512c0,.917-1.285,1.659-2.871,1.659s-2.871-.742-2.871-1.659v-5.512" transform="translate(-122.088 -108.147)" fill="none" stroke="#4f4f4f" stroke-linecap="round" stroke-miterlimit="10" stroke-width="1"/><ellipse cx="2.871" cy="1.659" rx="2.871" ry="1.659" transform="translate(1869.297 -5545.644)" fill="none" stroke="#4f4f4f" stroke-linecap="round" stroke-miterlimit="10" stroke-width="1"/><path d="M1996.489-5443.276v3.878c0,.328-.471.593-1.05.593s-1.05-.266-1.05-.593v-3.878c0-.2.169-.372.431-.479" transform="translate(-123.271 -105.031)" fill="none" stroke="#4f4f4f" stroke-linecap="round" stroke-miterlimit="10" stroke-width="1"/><path d="M2008.146-5433.464l-.192.025-24.827,3.177c-1.389.178-2.149,1.043-1.58,1.8l10.341,13.755c.756,1.007-1.719,1.732-2.692.788l-13.281-12.891a3.384,3.384,0,0,0-3.46-.322l-19.4,9.848c-1.42.721-3.4-.42-2.147-1.241l17.056-11.2c.939-.616.667-1.576-.559-2l-22.333-7.669c-1.634-.561-.377-1.991,1.366-1.554l23.824,5.971a3.514,3.514,0,0,0,2.6-.328" transform="translate(-103.562 -106.102)" fill="none" stroke="#4f4f4f" stroke-linecap="round" stroke-miterlimit="10" stroke-width="1"/><path d="M2002.886-5435.212l1.2-7.687-1.543,6.853c-.128.819,1.065,1.508,2.486,1.435l25.322-1.322" transform="translate(-126.477 -105.367)" fill="none" stroke="#4f4f4f" stroke-linecap="round" stroke-miterlimit="10" stroke-width="1"/><path d="M2034.363-5424.77c-.094.308-.465.587-1.158.676l-25.265,3.232a3.542,3.542,0,0,0-.582.125" transform="translate(-128.375 -112.503)" fill="none" stroke="#4f4f4f" stroke-linecap="round" stroke-miterlimit="10" stroke-width="1"/><path d="M1996.051-5400.552c-.044.776-2,1.2-2.833.387l-13.281-12.891a3.383,3.383,0,0,0-3.461-.322l-19.4,9.844c-1.152.586-2.676-.055-2.534-.759l-.009-2.786" transform="translate(-107.584 -116.858)" fill="none" stroke="#4f4f4f" stroke-linecap="round" stroke-miterlimit="10" stroke-width="1"/><path d="M1966.762-5428.354l-21.7-7.451c-.613-.211-.819-.545-.745-.853l-.014-2.871" transform="translate(-103.56 -106.695)" fill="none" stroke="#4f4f4f" stroke-linecap="round" stroke-miterlimit="10" stroke-width="1"/><line y2="3.018" transform="translate(1888.466 -5520.428)" fill="none" stroke="#4f4f4f" stroke-linecap="round" stroke-miterlimit="10" stroke-width="1"/><line y2="1.34" transform="translate(1908.247 -5578.543)" fill="none" stroke="#4f4f4f" stroke-linecap="round" stroke-miterlimit="10" stroke-width="1"/><line y2="1.34" transform="translate(1881.261 -5566.983)" fill="none" stroke="#4f4f4f" stroke-linecap="round" stroke-miterlimit="10" stroke-width="1"/><path d="M1956.067-5498.446c2.03,6.837,11.273,11.675,17.321,13.4s10.453.667,12.007-1.049,3.416-3.223,3-5.838a55.812,55.812,0,0,1,2.038-21.992" transform="translate(-108.189 -77.416)" fill="none" stroke="#f1c354" stroke-linecap="round" stroke-linejoin="round" stroke-width="1"/><path d="M2032.989-5488.35l2.011-1.84" transform="translate(-138.462 -86.756)" fill="none" stroke="#f1c354" stroke-linecap="round" stroke-linejoin="round" stroke-width="1"/><path d="M1956.354-5487.527c1.893,5.314,3.8,7.66,14.111,13.392s16.01,1.6,18.75-.8c.4-.352,1.027-.909,1.8-1.6" transform="translate(-108.302 -87.804)" fill="none" stroke="#f1c354" stroke-linecap="round" stroke-linejoin="round" stroke-width="1"/><path d="M2017.966-5506.4c-3.344.032-8.49,4.913-8.49,4.913" transform="translate(-129.208 -80.378)" fill="none" stroke="#f1c354" stroke-linecap="round" stroke-linejoin="round" stroke-width="1"/><path d="M2017.408-5508.13a9.97,9.97,0,0,0-5.394-3.418" transform="translate(-130.207 -78.35)" fill="none" stroke="#f1c354" stroke-linecap="round" stroke-linejoin="round" stroke-width="1"/><path d="M1971.373-5496.572l-29.486-17.025a3.321,3.321,0,0,1-1.66-2.875v-22.714a1.581,1.581,0,0,1,1.58-1.58,1.589,1.589,0,0,1,.788.211l29.487,17.024a3.319,3.319,0,0,1,1.659,2.874v22.714a1.58,1.58,0,0,1-1.58,1.581A1.593,1.593,0,0,1,1971.373-5496.572Z" transform="translate(-101.955 -66.851)" fill="none" stroke="#4f4f4f" stroke-linecap="round" stroke-miterlimit="10" stroke-width="1"/><path d="M1771.36-5469.481c-.321,2.13.152,2.365-1.468,3.063a11.913,11.913,0,0,0-5.22,4.933c-1.7,2.762-7.662,5.708-11.468,3.7s-.273-5.715,2.16-7.844,3.3-3.283,4.4-4.135,2.553-2.021,2.553-2.021c-.3,1.313-.556,2.634,2.34,2.545s4.84-1.194,5.674-2.8S1771.545-5470.713,1771.36-5469.481Z" transform="translate(-27.691 -93.712)" fill="none" stroke="#edaf5a" stroke-linecap="round" stroke-linejoin="round" stroke-width="1"/><path d="M1791.56-5598.32c.9,7.489,3.048,16.584,2.237,17.8s-7.559,5.634-14.153,3.616-5.783-8.377-3.674-27.208" transform="translate(-36.713 -41.92)" fill="none" stroke="#edaf5a" stroke-linecap="round" stroke-linejoin="round" stroke-width="1"/><path d="M1785.663-5631.239c-1.038-2.28-12.65-6.671-16.757-8.559a7.781,7.781,0,0,1-2.232,4.657c-1.808,2.013-.761.955-1.389-.219,0,0-1.38,1.517-.312,2.477s16.374,10.64,21.165,10.689,13.407-22.941,15.353-28.877-.243-5.709-2.773-8.743c-3.139-3.76-4.862-5.979-4.862-5.979" transform="translate(-32.822 -17.646)" fill="none" stroke="#edaf5a" stroke-linecap="round" stroke-linejoin="round" stroke-width="1"/><path d="M1805.049-5647.246a28.243,28.243,0,0,0-1.93,4.909c-1.828,6.025-2.526,10.925-5.316,17.379" transform="translate(-45.903 -24.945)" fill="none" stroke="#edaf5a" stroke-linecap="round" stroke-linejoin="round" stroke-width="1"/><path d="M1760.549-5624.044c-2.877-2.048-6.118-1.92-7.67-3.369s-1.625-6.537-2.446-8.551,1.48-3.214,2.412-.651,3.11,6.6,4.39,6.406,1.185-1.819,1-3.217-3.405-4.731-2.479-5.45,3.76,1.909,4.65,3.872,1.236,2.021,1.034,3.871a3.061,3.061,0,0,0,1.689,2.8" transform="translate(-27.191 -28.191)" fill="none" stroke="#edaf5a" stroke-linecap="round" stroke-linejoin="round" stroke-width="1"/><path d="M1791.271-5585.909a38.294,38.294,0,0,0-7.277.441c.078-1.595,0-3.431,0-3.431" transform="translate(-40.468 -47.908)" fill="none" stroke="#edaf5a" stroke-linecap="round" stroke-linejoin="round" stroke-width="1"/><path d="M1789.763-5657.81c1.2-.1,3.8.782,4.358-.055s5.812-10.156,5.812-10.156-.546-1.158-1.9-3.419c-10.071,11.037-15.191,17.881-18.034,31.576" transform="translate(-38.896 -15.424)" fill="none" stroke="#edaf5a" stroke-linecap="round" stroke-linejoin="round" stroke-width="1"/><path d="M1791.824-5648.772c.99,2.009,1.609,2.832.28,4.02a35.967,35.967,0,0,0-10.558,14.211" transform="translate(-39.504 -24.345)" fill="none" stroke="#edaf5a" stroke-linecap="round" stroke-linejoin="round" stroke-width="1"/><path d="M1799.019-5691.916c1.287-2.325,1.388-4.114-.074-3.366s-1.47,1.8-2.633,1.657-1.723-.033-1.273-2.4.364-4.677-.988-4.786-3.275.831-6.877-.182a3.41,3.41,0,0,1-2.106-5.487c.973-1.307,3.386-5.168,10.5-3.9a8.336,8.336,0,0,1,7.145,9.9A24.022,24.022,0,0,1,1799.019-5691.916Z" transform="translate(-40.608)" fill="none" stroke="#edaf5a" stroke-linecap="round" stroke-linejoin="round" stroke-width="1"/><path d="M1784.269-5696.884a59.82,59.82,0,0,0-1.315,7.38c-1.243,7.642-.846,12.827,10.785,7.068" transform="translate(-39.869 -5.41)" fill="none" stroke="#edaf5a" stroke-linecap="round" stroke-linejoin="round" stroke-width="1"/><path d="M1800.308-5679.766c-.808,1.124-.748,3.911-.748,3.911s-3.373,3.9-7.017,5.448-4.37,1.2-4.37,1.2a6.556,6.556,0,0,1-.391-4.042" transform="translate(-41.898 -12.147)" fill="none" stroke="#edaf5a" stroke-linecap="round" stroke-linejoin="round" stroke-width="1"/><path d="M1808.255-5671.632c.055-1.809-.234-1.857-.949-1.717" transform="translate(-49.642 -14.653)" fill="none" stroke="#edaf5a" stroke-linecap="round" stroke-linejoin="round" stroke-width="1"/><path d="M1776.357-5665.478c-1.318-2-2.1-1.889-1.495-2.466.626-.6,4.807-5.075,4.807-5.075" transform="translate(-36.793 -14.802)" fill="none" stroke="#edaf5a" stroke-linecap="round" stroke-linejoin="round" stroke-width="1"/><path d="M1778.606-5669.9c-4.714,7.217-8.653,16.327-9.885,25.185" transform="translate(-34.457 -16.031)" fill="none" stroke="#edaf5a" stroke-linecap="round" stroke-linejoin="round" stroke-width="1"/><path d="M1772.964-5661.989c-2.04.538-2.385.242-2.587,1.838s-2.258,13.842-2.766,16.885" transform="translate(-34.02 -19.143)" fill="none" stroke="#edaf5a" stroke-linecap="round" stroke-linejoin="round" stroke-width="1"/><path d="M1787.867-5569.041c-2.562,10.811-4.824,16.557-4.382,23.145s-3.12,20.51-4.621,26.853c-.584,2.239-9.347,3.444-9.013.673,1.6-13.265,1.548-17.995.879-31.042-.584-11.416-1.6-24.272-1.165-32.2" transform="translate(-34.748 -50.775)" fill="none" stroke="#edaf5a" stroke-linecap="round" stroke-linejoin="round" stroke-width="1"/><path d="M1780.385-5463.871c-.276,2.084-.022,2.168-1.3,3.017s-2.268,1.572-2.836,1.448a3.424,3.424,0,0,1-1.024-.424" transform="translate(-37.018 -97.115)" fill="none" stroke="#edaf5a" stroke-linecap="round" stroke-linejoin="round" stroke-width="1"/><line x1="0.605" y2="4.804" transform="translate(1734.906 -5568.158)" fill="none" stroke="#edaf5a" stroke-linecap="round" stroke-linejoin="round" stroke-width="1"/><line x1="0.68" y2="3.656" transform="translate(1741.991 -5568.498)" fill="none" stroke="#edaf5a" stroke-linecap="round" stroke-linejoin="round" stroke-width="1"/><path d="M1759.443-5613.828c-2.742,13.555-1.516,22.976-3.6,24.376s-5.37-2.336-5.324-4.78,1.819-4.479,3.994-11.737a112.024,112.024,0,0,0,2.892-11.4" transform="translate(-27.294 -36.706)" fill="none" stroke="#edaf5a" stroke-linecap="round" stroke-linejoin="round" stroke-width="1"/><path d="M1757.6-5546.123c3.793-6.148,7.42-13.672,7.42-13.672" transform="translate(-30.082 -59.362)" fill="none" stroke="#edaf5a" stroke-linecap="round" stroke-linejoin="round" stroke-width="1"/><path d="M1767.317-5489.869c-2.9.976-4.329-.243-4.924-1.4-.759-1.475.4-3.731,2.729-6.057a12.674,12.674,0,0,0,3.037-4.488" transform="translate(-31.876 -82.183)" fill="none" stroke="#edaf5a" stroke-linecap="round" stroke-linejoin="round" stroke-width="1"/><path d="M1770.285-5592.011c-4.634-.893-4.73-1.979-5.526-2.434a5.228,5.228,0,0,1-1.873-1.759" transform="translate(-32.161 -45.034)" fill="none" stroke="#edaf5a" stroke-linecap="round" stroke-linejoin="round" stroke-width="1"/><path d="M1786.986-5662.634l1.374,1.311a19.666,19.666,0,0,1-2.753,2.59c-.423.066-2.055-.2-2.218-.753a8.291,8.291,0,0,1,1.031-3.468c.343-.384,1.864-.28,1.864-.28" transform="translate(-40.222 -18.648)" fill="none" stroke="#edaf5a" stroke-linecap="round" stroke-linejoin="round" stroke-width="1"/><path d="M1782.846-5655.808s-4.674,6.156-6.493,21.161" transform="translate(-37.461 -21.576)" fill="none" stroke="#edaf5a" stroke-linecap="round" stroke-linejoin="round" stroke-width="1"/><path d="M1778.67-5656.29c-4.939,8.835-6.712,12.054-8.739,20.414" transform="translate(-34.933 -21.386)" fill="none" stroke="#edaf5a" stroke-linecap="round" stroke-linejoin="round" stroke-width="1"/><path d="M1770.983-5607.5c-.149,1.433.087,1.693-.437,2.168a18.792,18.792,0,0,1-2.879,2.1.618.618,0,0,1-.836-.255h0c-.834-1.573-1.306-2.437-1.1-3.567.223-1.242.631-3.348.631-3.348" transform="translate(-33.261 -39.445)" fill="none" stroke="#edaf5a" stroke-linecap="round" stroke-linejoin="round" stroke-width="1"/><path d="M1768.033-5659.8c-1.921,2.874-2.483,11.452-2.7,15.032" transform="translate(-33.125 -20.004)" fill="none" stroke="#edaf5a" stroke-linecap="round" stroke-linejoin="round" stroke-width="1"/><path d="M1781.231-5694.946l-5.343,6.416a1.551,1.551,0,0,0-.182,1.715l1.458,2.771a.607.607,0,0,0,.819.253.608.608,0,0,0,.182-.145l1.656-1.947" transform="translate(-37.136 -6.173)" fill="none" stroke="#edaf5a" stroke-linecap="round" stroke-linejoin="round" stroke-width="1"/><path d="M1747.385-5669.377c6.472-6.732,7.879-8.315,8.23-9.852s-2.321-4.979-3.618-4.909-10.185,6.45-13.874,10.145-5.507,6.044-4.479,8.107,2.584,4.134,8.123,2.957,10.309-2.534,12.722-4.236" transform="translate(-20.54 -10.426)" fill="none" stroke="#edaf5a" stroke-linecap="round" stroke-linejoin="round" stroke-width="1"/><path d="M1774.875-5676.725a13.3,13.3,0,0,0-5.452,1.4" transform="translate(-34.733 -13.344)" fill="none" stroke="#edaf5a" stroke-linecap="round" stroke-linejoin="round" stroke-width="1"/><path d="M1781.455-5676.4a5.781,5.781,0,0,0-1.584-.3" transform="translate(-38.845 -13.352)" fill="none" stroke="#edaf5a" stroke-linecap="round" stroke-linejoin="round" stroke-width="1"/><path d="M1770.2-5677.693c.995-.906,2.426-1,4.561-.465" transform="translate(-35.038 -12.651)" fill="none" stroke="#edaf5a" stroke-linecap="round" stroke-linejoin="round" stroke-width="1"/><path d="M1776.142-5693.614c-4.112.72-4.93.978-6.186,2.622a22.126,22.126,0,0,1-4.1,3.578" transform="translate(-33.331 -6.697)" fill="none" stroke="#edaf5a" stroke-linecap="round" stroke-linejoin="round" stroke-width="1"/><path d="M1791.86-5455.919c-33.265,29.381-22.09,50.019-10.91,68.786s65.976,20.955,82.855-.436" transform="translate(-34.858 -100.244)" fill="none" stroke="#4f4f4f" stroke-linecap="round" stroke-miterlimit="10" stroke-width="1"/><path d="M1868.5-5350.172a36.334,36.334,0,0,0,8.647-1.5" transform="translate(-73.724 -141.271)" fill="none" stroke="#4f4f4f" stroke-linecap="round" stroke-miterlimit="10" stroke-width="1"/><path d="M1804.884-5432.459c-6.659,12.939-2.729,27.346,6.583,37.454" transform="translate(-47.381 -109.477)" fill="none" stroke="#4f4f4f" stroke-linecap="round" stroke-miterlimit="10" stroke-width="1"/><path d="M1885.249-5449.511l6.593-9.137a1.12,1.12,0,0,0-.253-1.564h0a.875.875,0,0,0-.091-.062l-13.231-7.72a1.118,1.118,0,0,0-1.475.31l-9.784,13.524" transform="translate(-73.138 -95.431)" fill="none" stroke="#4f4f4f" stroke-linecap="round" stroke-miterlimit="10" stroke-width="1"/><path d="M1883.557-5423.153l-1.74,2.677a.933.933,0,0,1-1.289.274l-.007-.006-1.838-1.213" transform="translate(-77.733 -113.139)" fill="none" stroke="#4f4f4f" stroke-linecap="round" stroke-miterlimit="10" stroke-width="1"/><path d="M1866.547-5418.749c10.695,11.365,21.78,7.224,33.2,19.071,5.872,6.091,7.247,12.278,6.405,17.719" transform="translate(-72.957 -114.873)" fill="none" stroke="#4f4f4f" stroke-linecap="round" stroke-miterlimit="10" stroke-width="1"/><path d="M1850.932-5439.012c3.4,8.08,3.827,10.916,5.954,12.049s11.47-1.226,13.042-.833,1.966-5.508,0-6-3.147-1.219-8.163.964" transform="translate(-66.812 -106.897)" fill="none" stroke="#eeb659" stroke-linecap="round" stroke-linejoin="round" stroke-width="1"/><path d="M1856.289-5463.187c3.524.978,6.656,9.4,8.749,20.358" transform="translate(-68.92 -97.384)" fill="none" stroke="#eeb659" stroke-linecap="round" stroke-linejoin="round" stroke-width="1"/><path d="M1823.848-5500.35c-.072-8.116,4.837-9.748,9.856-10.109,5.735-.413,9.132,4.723,9.132,4.723,1.078,1.615-.417,3.4-1.37,4a1.153,1.153,0,0,0-.54.9,9.278,9.278,0,0,1-.382,2.092.265.265,0,0,1-.329.176.271.271,0,0,1-.163-.143c-.751-1.684-2.583-.083-2.436,1.911a4.08,4.08,0,0,0,.375,1.577,1.727,1.727,0,0,1-.182,1.927c-3.019,3.534-7.8,5.829-10.909,2.986" transform="translate(-56.152 -78.77)" fill="none" stroke="#eeb659" stroke-linecap="round" stroke-linejoin="round" stroke-width="1"/><path d="M1816.741-5490.986c-4.334,1.9,1.671,7.041,2.75,11.1s-2.726,2.472-3.014,8.869c-.23,5.119-6.832,12.479-16.038,6.477a.64.64,0,0,1-.187-.885.634.634,0,0,1,.415-.279c2.344-.412,2.769-1.654,2.908-3.241.164-1.906.662-6.054,4.473-7.417s4.142-5.009,2.816-8.985-.371-9.488,5.614-8.347" transform="translate(-46.826 -85.316)" fill="none" stroke="#eeb659" stroke-linecap="round" stroke-linejoin="round" stroke-width="1"/><path d="M1824.423-5487.362" transform="translate(-56.379 -87.869)" fill="none" stroke="#ff5b5a" stroke-linecap="round" stroke-linejoin="round" stroke-width="1"/><path d="M1813.812-5453.585c4.927,6.543,13.333,6.034,18.087-3.732s6.372-9.258,7.672-9.11c1.256.143-3-6.766-7.417-4.56-3.714,1.857-7.1,8.323-10.318,8.521" transform="translate(-52.203 -94.143)" fill="none" stroke="#eeb659" stroke-linecap="round" stroke-linejoin="round" stroke-width="1"/><path d="M1847.986-5496.612c1.311,3.19.2,17.359-8.693,12.339" transform="translate(-62.231 -84.229)" fill="none" stroke="#eeb659" stroke-linecap="round" stroke-linejoin="round" stroke-width="1"/><path d="M1840.312-5475.351a19.332,19.332,0,0,0-1.3,5.237" transform="translate(-62.12 -92.597)" fill="none" stroke="#eeb659" stroke-linecap="round" stroke-linejoin="round" stroke-width="1"/><path d="M1928.028-5346.124c3.441,2.7,11.2,4.223,11.982,1.744s-1.562-6.564-8.308-6.564-12.857-3.718-13.771.826,4.545,3.214,6.243,3.033S1926.329-5347.454,1928.028-5346.124Z" transform="translate(-93.139 -140.993)" fill="none" stroke="#eeb659" stroke-linecap="round" stroke-linejoin="round" stroke-width="1"/><path d="M1938.355-5350.93c-8.075-5.714-10.114-8.03-11.987-5.989s-7.163-.992-8.044,1.488a9.644,9.644,0,0,0-.521,4.5" transform="translate(-93.101 -138.919)" fill="none" stroke="#eeb659" stroke-linecap="round" stroke-linejoin="round" stroke-width="1"/><path d="M1835.658-5438.839c.258,3.379-3.067,4.516-1.526,8.49s5.84,7.217,4.339,8.435-3.448,1.054-5.314,3.324-10.3,10.867-15.489,8.758-3.568-3.73-3.973-9.164,1.293-14.142-2.676-22.236" transform="translate(-51.104 -106.024)" fill="none" stroke="#eeb659" stroke-linecap="round" stroke-linejoin="round" stroke-width="1"/><path d="M1886-5389.253a7.077,7.077,0,0,0,.739,6.894,28.792,28.792,0,0,0,4.555,4.184c1.109-2.646,5.54-3.632,6.773-3.2-1.785-2.771-3.693-6.341-4.184-9.48s-2.77-3.508-7.2-4.861-21.958-7.812-27.37-8.066-6.751-3.683-6.751-3.683" transform="translate(-67.452 -119.313)" fill="none" stroke="#eeb659" stroke-linecap="round" stroke-linejoin="round" stroke-width="1"/><path d="M1881.011-5376.589c-14.433,2.02-36.849,2.189-40.063-2.209" transform="translate(-62.883 -130.595)" fill="none" stroke="#eeb659" stroke-linecap="round" stroke-linejoin="round" stroke-width="1"/><path d="M1822.243-5377.954c-2.355-2.578-3.422-6.605-1.9-12.008" transform="translate(-54.494 -126.202)" fill="none" stroke="#eeb659" stroke-linecap="round" stroke-linejoin="round" stroke-width="1"/><path d="M1850.824-5373.875a13.034,13.034,0,0,1-6.853,5.03" transform="translate(-64.072 -132.533)" fill="none" stroke="#eeb659" stroke-linecap="round" stroke-linejoin="round" stroke-width="1"/><path d="M1863.532-5404.64c-4.354-7.817-5.658-6.129-7.243-5.25" transform="translate(-68.92 -118.05)" fill="none" stroke="#eeb659" stroke-linecap="round" stroke-linejoin="round" stroke-width="1"/><path d="M1925.926-5364.591a50.28,50.28,0,0,0,4.169,4.5" transform="translate(-96.326 -136.187)" fill="none" stroke="#eeb659" stroke-linecap="round" stroke-linejoin="round" stroke-width="1"/><path d="M1916.943-5360.119a12.863,12.863,0,0,1,2.641,2.7" transform="translate(-92.791 -137.947)" fill="none" stroke="#eeb659" stroke-linecap="round" stroke-linejoin="round" stroke-width="1"/><path d="M1902.19-5361.129c-.043,3.509-3.477,5.458-7.3,4.119s-7.149-2.971-10.357-2.467-4.279-.8-4.279-2.231.9-3.4,4.841-1.934,8.161.675,10.357.337a12.958,12.958,0,0,1,4.229.109" transform="translate(-78.35 -136.357)" fill="none" stroke="#eeb659" stroke-linecap="round" stroke-linejoin="round" stroke-width="1"/><path d="M1898.087-5367.72c-3.914.14-6.222-4.138-8.135-3.857s-1.126,2.589-3.264,2.533-3.093-2.477-4.785.169-1.6,3.782-1.6,3.782" transform="translate(-78.37 -133.432)" fill="none" stroke="#eeb659" stroke-linecap="round" stroke-linejoin="round" stroke-width="1"/><path d="M1878.218-5373.084c-1.892,2.92-3.175,2.677-6.989.11" transform="translate(-74.8 -132.844)" fill="none" stroke="#eeb659" stroke-linecap="round" stroke-linejoin="round" stroke-width="1"/><path d="M1893.87-5372.214a18.374,18.374,0,0,0-2.365-1.344" transform="translate(-82.78 -132.658)" fill="none" stroke="#eeb659" stroke-linecap="round" stroke-linejoin="round" stroke-width="1"/><line x1="2.391" y1="1.332" transform="translate(1802.811 -5504.872)" fill="none" stroke="#eeb659" stroke-linecap="round" stroke-linejoin="round" stroke-width="1"/><path d="M1884.318-5429.285c2.505-.143,7.249-5.56,7.634-8.244s-1.152,1.153-3.214,2.349-.335-1.485.765-2.636.719-1.774.192-2.062-2.156,3.069-3.214,3.452-2.53.5-2.348,3.82" transform="translate(-79.872 -106.55)" fill="none" stroke="#eeb659" stroke-linecap="round" stroke-linejoin="round" stroke-width="1"/><path d="M1802.941-5370.458c19.7-1.956,35.246,4.932,43.081,17.174" transform="translate(-47.925 -133.748)" fill="none" stroke="#4f4f4f" stroke-linecap="round" stroke-miterlimit="10" stroke-width="1"/><path d="M2045.229-5486.548c4.576,11.29,13.912,30.789,13.168,33.764s-2.8,5.471-6.563,5.38-5.761.443-8.35-8.284a118.277,118.277,0,0,0-5.442-14.847" transform="translate(-140.45 -88.19)" fill="none" stroke="#f1c354" stroke-linecap="round" stroke-linejoin="round" stroke-width="1"/><path d="M1946.659-5474.977a3.438,3.438,0,0,0,2.057,3.363l26.011,14.983c3.077,1.778,8.454,1.555,12.008-.5l16.773-9.684c1.958-1.131,2.954-2.58,2.94-3.953" transform="translate(-104.477 -92.744)" fill="none" stroke="#4f4f4f" stroke-linecap="round" stroke-miterlimit="10" stroke-width="1"/><path d="M2038.1-5490.614a.8.8,0,0,1-.4.7l-22.014,12.71a2.182,2.182,0,0,1-2.177,0l-1.993-1.153a.8.8,0,0,1-.4-.7" transform="translate(-129.852 -86.589)" fill="none" stroke="#4f4f4f" stroke-linecap="round" stroke-miterlimit="10" stroke-width="1"/><path d="M2037.7-5493.516l-22.014,12.711a2.182,2.182,0,0,1-2.177,0l-1.993-1.153a.8.8,0,0,1-.294-1.095.8.8,0,0,1,.294-.3l22.014-12.71a2.171,2.171,0,0,1,2.177,0l1.993,1.152a.8.8,0,0,1,.293,1.095A.8.8,0,0,1,2037.7-5493.516Z" transform="translate(-129.853 -84.331)" fill="none" stroke="#4f4f4f" stroke-linecap="round" stroke-miterlimit="10" stroke-width="1"/><path d="M1767.825-5538.016q-2.516,1.1-4.94,2.257" transform="translate(-32.16 -67.934)" fill="none" stroke="#4f4f4f" stroke-linecap="round" stroke-miterlimit="10" stroke-width="1"/><path d="M1720.12-5524.99c-24.1,14.243-38.953,33.717-38.953,55.19,0,43.644,61.344,79.023,137.016,79.023s137.016-35.38,137.016-79.023" transform="translate(0 -73.06)" fill="none" stroke="#4f4f4f" stroke-linecap="round" stroke-miterlimit="10" stroke-width="1"/><path d="M1745.085-5577.007c-5.134,9.292-7.6,15.085-8.647,22.512s.227,6.435,2.922,7.926a86.324,86.324,0,0,1,9.857,5.97,77.731,77.731,0,0,1,7.756,7.089s.32.527,1.054-.688" transform="translate(-21.608 -52.589)" fill="none" stroke="#edaf5a" stroke-linecap="round" stroke-linejoin="round" stroke-width="1"/><path d="M1764.322-5530.131c-6.617-7.143-8.915-8.333-11.454-8.654" transform="translate(-28.218 -67.631)" fill="none" stroke="#edaf5a" stroke-linecap="round" stroke-linejoin="round" stroke-width="1"/></g></svg>