<svg xmlns="http://www.w3.org/2000/svg" width="375" height="342" viewBox="0 0 375 342"><rect width="375" height="342" fill="none"/><g transform="translate(-1151.472 5487.991)"><path d="M1580.018-5239.555c-15.424-18.808-43.295-33.539-77.458-40.633" transform="translate(-119.211 -40.528)" fill="none" stroke="#4f4f4f" stroke-linecap="round" stroke-miterlimit="10" stroke-width="1"/><path d="M1245.074-5245.939a94.585,94.585,0,0,0-23.542,20.2" transform="translate(-8.392 -54.034)" fill="none" stroke="#4f4f4f" stroke-linecap="round" stroke-miterlimit="10" stroke-width="1"/><path d="M1379.435-5287.764q-3.017-.075-6.067-.075c-30.375,0-58.438,5.723-81.141,15.408" transform="translate(-36.269 -37.512)" fill="none" stroke="#4f4f4f" stroke-linecap="round" stroke-miterlimit="10" stroke-width="1"/><path d="M1460.68-5286.1q-7.9-.922-16.114-1.31" transform="translate(-96.342 -37.68)" fill="none" stroke="#4f4f4f" stroke-linecap="round" stroke-miterlimit="10" stroke-width="1"/><path d="M1451.106-5337.228c-4.511,2.6-4.067,3.165-4.973,6.033-.251.8-.552,2.146-.894,3.729,3.1,2.035,5.385,1.52,5.385,1.52" transform="translate(-96.607 -18.036)" fill="none" stroke="#e68e61" stroke-linecap="round" stroke-linejoin="round" stroke-width="1"/><path d="M1499.148-5324.4c-.008-.816,0-1.514.031-2.03-.5-7.723-1.465-8.746-4.048-9.85-1.629-.75-1.35-.713-2.587-1.3" transform="translate(-115.261 -17.897)" fill="none" stroke="#e68e61" stroke-linecap="round" stroke-linejoin="round" stroke-width="1"/><path d="M1496.634-5269.089" transform="translate(-116.874 -44.905)" fill="none" stroke="#ff5b5a" stroke-linecap="round" stroke-linejoin="round" stroke-width="1"/><path d="M1481.275-5331.923c0,3.561-1.841,6.438-2.452,5.98s-2.362-2.562-3.777-2.049c-.9.326-1.627.325-4.039,7.813" transform="translate(-106.768 -20.128)" fill="none" stroke="#e68e61" stroke-linecap="round" stroke-linejoin="round" stroke-width="1"/><path d="M1480.414-5336.428c.011,3.171-3.028,6.178-4.229,7.181" transform="translate(-108.81 -18.351)" fill="none" stroke="#e68e61" stroke-linecap="round" stroke-linejoin="round" stroke-width="1"/><path d="M1465.639-5327.266c.076.275,1.523,9.122,1.782,10.626,1.318,7.669,7,8.366,7,17.42" transform="translate(-104.652 -21.964)" fill="none" stroke="#e68e61" stroke-linecap="round" stroke-linejoin="round" stroke-width="1"/><path d="M1474.576-5304.742c.054-10.46-4.944-10.79-6.311-17.019-.285-1.3-1.272-9.729-2.328-10.951a7.986,7.986,0,0,1-2.488-4.73,6.491,6.491,0,0,1,1.563-4.556" transform="translate(-103.773 -16.155)" fill="none" stroke="#e68e61" stroke-linecap="round" stroke-linejoin="round" stroke-width="1"/><path d="M1464.427-5332.358c-1.063-.87-1.7-1.151-2.215-.675a5.137,5.137,0,0,1-2.773.758c-1.54-5.414,2.873-9.545,2.873-9.545" transform="translate(-102.078 -16.225)" fill="none" stroke="#e68e61" stroke-linecap="round" stroke-linejoin="round" stroke-width="1"/><path d="M1466.7-5342.31a5.725,5.725,0,0,1,1.9,6.709" transform="translate(-105.071 -16.032)" fill="none" stroke="#e68e61" stroke-linecap="round" stroke-linejoin="round" stroke-width="1"/><path d="M1466.7-5334.77" transform="translate(-105.071 -19.005)" fill="none" stroke="#e68e61" stroke-linecap="round" stroke-linejoin="round" stroke-width="1"/><path d="M1467.759-5334.77a8.976,8.976,0,0,0-4.017,1.169" transform="translate(-103.904 -19.005)" fill="none" stroke="#e68e61" stroke-linecap="round" stroke-linejoin="round" stroke-width="1"/><path d="M1498.152-5318.175c-.03,2.03-6.072,1.66-8.134.4a19.248,19.248,0,0,0,.357-4.013" transform="translate(-114.265 -24.123)" fill="none" stroke="#e68e61" stroke-linecap="round" stroke-linejoin="round" stroke-width="1"/><path d="M1457.217-5312.351c-.87,6.269,3.77,8.5,5.059,10.228a17.487,17.487,0,0,1,3.662,7.521" transform="translate(-101.288 -27.846)" fill="none" stroke="#e68e61" stroke-linecap="round" stroke-linejoin="round" stroke-width="1"/><path d="M1468.144-5362.425c-.394,1.867-4.244,8.328-8.263,7.314-2.782-.7-6.34-6.853-6.288-8.826.088-3.331-.917-2.839-1.09-3.724-.593-3.073.473-4.554,2.369-5.382,1.792-.681,4.874-.324,6.382,3.316s4.9,4.213,7.543,3.636a8.042,8.042,0,0,0,2.372-1.041" transform="translate(-99.407 -3.801)" fill="none" stroke="#e68e61" stroke-linecap="round" stroke-linejoin="round" stroke-width="1"/><path d="M1475.1-5357.357c-.026-.166,2.317-2.3-1.43-6.952s-.266-6.793-4.92-13.241-9.019-6.675-15.465-3.1c-4.119,1.562-6.078,4.874-4.953,9.707s-1.658,8.273-.338,9.965,2.436,1.85,3.3,2.911a4.481,4.481,0,0,1,.394,4.948c-1.862,3.873-1.34,7.571-.121,9.142s3.113,3.3-.133,3.8c4.514.56,4.514-2.355,3.9-3.74a6.766,6.766,0,0,1-.614-5.306" transform="translate(-97.549)" fill="none" stroke="#e68e61" stroke-linecap="round" stroke-linejoin="round" stroke-width="1"/><path d="M1477.35-5349.068c3.778-.148,5.382.909,5.771,3.624a3.479,3.479,0,0,0-3.656-.968A2.631,2.631,0,0,1,1477.35-5349.068Z" transform="translate(-109.268 -13.362)" fill="none" stroke="#e68e61" stroke-linecap="round" stroke-linejoin="round" stroke-width="1"/><path d="M1477.716-5357.665c.73,1.709-.394,3.734-.363,5.212" transform="translate(-109.271 -9.977)" fill="none" stroke="#e68e61" stroke-linecap="round" stroke-linejoin="round" stroke-width="1"/><path d="M1486.361-5343.319c.628,2.068,3.409,6.643,7.489,5.463-6.69,2.671-9.3,1.319-11.276-1.349a8.715,8.715,0,0,1-1.732-5.464" transform="translate(-110.645 -15.102)" fill="none" stroke="#e68e61" stroke-linecap="round" stroke-linejoin="round" stroke-width="1"/><path d="M1338.95-5144.409a87.9,87.9,0,0,1-15.747-7.037,54.016,54.016,0,0,1-16.5-14.011" transform="translate(-41.977 -85.771)" fill="none" stroke="#4f4f4f" stroke-linecap="round" stroke-miterlimit="10" stroke-width="1"/><path d="M1283.489-5160.7a33.35,33.35,0,0,0,18.245-12.485" transform="translate(-32.823 -82.725)" fill="none" stroke="#e68268" stroke-linecap="round" stroke-linejoin="round" stroke-width="1"/><path d="M1379.8-5287.844c-22.152-.948-44.92,3.491-61.917,13.307-13.877,8.012-21.548,18.243-23.007,28.688" transform="translate(-37.313 -37.46)" fill="none" stroke="#4f4f4f" stroke-linecap="round" stroke-miterlimit="10" stroke-width="1"/><path d="M1474.3-5280.859a118.712,118.712,0,0,0-29.745-6.291" transform="translate(-96.337 -37.783)" fill="none" stroke="#4f4f4f" stroke-linecap="round" stroke-miterlimit="10" stroke-width="1"/><path d="M1461.183-5193.066c12.2-2.1,23.709-5.947,33.359-11.516,30.881-17.83,31.037-46.646.349-64.365a82.637,82.637,0,0,0-8.67-4.328" transform="translate(-102.894 -43.255)" fill="none" stroke="#4f4f4f" stroke-linecap="round" stroke-miterlimit="10" stroke-width="1"/><path d="M1308.843-5178.033a57.439,57.439,0,0,0,14.2,11.2,92.474,92.474,0,0,0,21.818,8.888" transform="translate(-42.821 -80.812)" fill="none" stroke="#4f4f4f" stroke-linecap="round" stroke-miterlimit="10" stroke-width="1"/><path d="M1574.608-5195.62h-31.831a7.766,7.766,0,0,0-7.583,5.92c-2.262,9.558-9.774,18.8-22.531,26.162a83.494,83.494,0,0,1-8.009,4.05" transform="translate(-120.037 -73.877)" fill="none" stroke="#4f4f4f" stroke-linecap="round" stroke-miterlimit="10" stroke-width="1"/><path d="M1398-5181.5c5.033.636,5.046-.307,6.347-2.206,2.54-3.709,6.364-11.054,3.382-14.838s-5.2-4.683-9.354-4.084-7.462,3.989-7.372,7.38,1.7,12.416,3.075,12.827A20.909,20.909,0,0,0,1398-5181.5Z" transform="translate(-75.221 -71.046)" fill="none" stroke="#e78f62" stroke-linecap="round" stroke-linejoin="round" stroke-width="1"/><path d="M1390.886-5188.043c-.606,6.764-.833,11.893,1.2,12.19" transform="translate(-75.006 -76.865)" fill="none" stroke="#e78f62" stroke-linecap="round" stroke-linejoin="round" stroke-width="1"/><path d="M1389.442-5160.447s-3.866.381-1.505,1.895,7.42.03,13.728-4.178c1.216,2.084,2.12,3.077,1.01,3.794-1.079.7-7.708,5.572-16.157,3.433a.715.715,0,0,1-.527-.842,12.148,12.148,0,0,1,1.292-3.373" transform="translate(-73.237 -86.846)" fill="none" stroke="#e78f62" stroke-linecap="round" stroke-linejoin="round" stroke-width="1"/><path d="M1389.214-5160.719c1.995-1.32,2.132-3.21,1.9-7.509" transform="translate(-74.514 -84.679)" fill="none" stroke="#e78f62" stroke-linecap="round" stroke-linejoin="round" stroke-width="1"/><path d="M1413-5173.185c-.848,2.363-1.564,5.309-1.978,6.674" transform="translate(-83.115 -82.723)" fill="none" stroke="#e78f62" stroke-linecap="round" stroke-linejoin="round" stroke-width="1"/><path d="M1445.057-5146.637c-4.624-.893-14.19-8.057-17.815-8.981a10.481,10.481,0,0,0-7.588-.679c-3.071.841-4.832-.254-5.419-.873" transform="translate(-84.381 -89.04)" fill="none" stroke="#e78f62" stroke-linecap="round" stroke-linejoin="round" stroke-width="1"/><path d="M1435.71-5154.608c.73,1.18.606,4.155.4,4.993" transform="translate(-92.849 -90.05)" fill="none" stroke="#e78f62" stroke-linecap="round" stroke-linejoin="round" stroke-width="1"/><path d="M1359.834-5136.717c.01-.739.024-1.523.042-2.35.128-5.653,3.615-7.708,5.615-8.327a78.866,78.866,0,0,1,10.72-3.4" transform="translate(-62.929 -91.552)" fill="none" stroke="#e78f62" stroke-linecap="round" stroke-linejoin="round" stroke-width="1"/><path d="M1489.242-5137.18a42.887,42.887,0,0,0,7.211.318c1.333-.106,2.836.463,5.79,2.665" transform="translate(-113.959 -96.922)" fill="none" stroke="#e78f62" stroke-linecap="round" stroke-linejoin="round" stroke-width="1"/><path d="M1280.567-5263.277a.853.853,0,0,1-.686.562c-1.487.188-4.037-1.519-3.713-.382.374,1.3.518,4.054-1.145,5.837s-1.357,4.524-1.976,4.528-1-.443-.187-2.85-1.708-3.331-3.338-1.848-4.462,6.239-6.714,5.642-2.518-.927-2.442-2.6-1.024-9.186,1.994-12.557,5.9-3.854,9.274-3.153,7.2,3.114,8.176,4.865C1280.627-5263.77,1280.737-5263.75,1280.567-5263.277Z" transform="translate(-23.652 -44.399)" fill="none" stroke="#e68268" stroke-linecap="round" stroke-linejoin="round" stroke-width="1"/><path d="M1271.49-5246.188c1.762,1.807,4.617,4.8,6.171,2.072s5.381-7.128,5-10.94-1.3-3.788-1.3-3.788" transform="translate(-28.091 -48.945)" fill="none" stroke="#e68268" stroke-linecap="round" stroke-linejoin="round" stroke-width="1"/><path d="M1333.778-5223.083l-11.754-12.484a3.127,3.127,0,0,1-.515-3.552l8.385-16.626a1.565,1.565,0,0,1,2.1-.692,1.589,1.589,0,0,1,.434.324l12.287,13.051a3.126,3.126,0,0,1,.457,3.664l-8.892,16a1.563,1.563,0,0,1-2.127.605A1.512,1.512,0,0,1,1333.778-5223.083Z" transform="translate(-47.684 -49.828)" fill="none" stroke="#e68268" stroke-linecap="round" stroke-linejoin="round" stroke-width="1"/><path d="M1256.883-5242.353c-.429.11-.933.254-1.514.445-2.325.752-3,2.986,1.29,3.775s7.84,2.967,11.293,4.607,3.755,2.029,4.482,2.345.945,2.444,2.538,4.81a54.425,54.425,0,0,1,5.205,10.293" transform="translate(-21.008 -55.448)" fill="none" stroke="#e68268" stroke-linecap="round" stroke-linejoin="round" stroke-width="1"/><path d="M1259.591-5238.308a4.341,4.341,0,0,1-.894,1.769" transform="translate(-23.047 -57.043)" fill="none" stroke="#e68268" stroke-linecap="round" stroke-linejoin="round" stroke-width="1"/><path d="M1272.067-5230.718c-.364-.545-.538-.129-1.178,0a6.851,6.851,0,0,1-4.768-.954,11.018,11.018,0,0,0-8.284-1c-3.53.748-6-1-6.469-2.479s-.349-4.889.131-5.745a5.209,5.209,0,0,1,4.353-2.113" transform="translate(-20.039 -55.191)" fill="none" stroke="#e68268" stroke-linecap="round" stroke-linejoin="round" stroke-width="1"/><path d="M1286.43-5213.812a9.727,9.727,0,0,1,2.536,2.967,4.59,4.59,0,0,1,.919,2.438" transform="translate(-33.983 -66.703)" fill="none" stroke="#e68268" stroke-linecap="round" stroke-linejoin="round" stroke-width="1"/><path d="M1249.954-5238.29c-1.9,3.423-2.968,4.758-1.563,8.7a11.65,11.65,0,0,0,4.679,5.8" transform="translate(-18.729 -57.051)" fill="none" stroke="#e68268" stroke-linecap="round" stroke-linejoin="round" stroke-width="1"/><path d="M1312.062-5198.207c2.986-2.231,4.374-2.934,2.042-5.2s-4.6-.746-6.224.216-2.882,1.782-2.025,3.72" transform="translate(-41.534 -70.341)" fill="none" stroke="#e68268" stroke-linecap="round" stroke-linejoin="round" stroke-width="1"/><path d="M1275.476-5233.78a9.508,9.508,0,0,0-.41,2.958" transform="translate(-29.501 -58.829)" fill="none" stroke="#e68268" stroke-linecap="round" stroke-linejoin="round" stroke-width="1"/><path d="M1280.008-5228.495c-2.113-2.995-3.21-4.785-3.21-4.785" transform="translate(-30.185 -59.026)" fill="none" stroke="#e68268" stroke-linecap="round" stroke-linejoin="round" stroke-width="1"/><path d="M1267.96-5205.036c-.331,1.844,2.063,3.9,5.763,7.042,10.623,9.019,12.406,8.986,16.144,8.813s6.125-.716,6.645-4.724l.52-4.008s1.175-3.218-2.21-3.9-3.655,1.258-3.915,2.047c-.378.331-.488,1.388-.853,1.642s-.537.1-1.082-.194c.023-.793-1.086-.833-1.086-.833a7.1,7.1,0,0,0-1.272-2.023c-.985-1.173-1.09-.355-2.334-1.655.158-1.326-.57-1.938-2.782-3.37" transform="translate(-26.688 -69.704)" fill="none" stroke="#e68268" stroke-linecap="round" stroke-linejoin="round" stroke-width="1"/><path d="M1293.46-5208.465c3.779-1.558,5.255-4.686,2.644-5.6s-5.171-1.218-5.564.109" transform="translate(-35.604 -66.294)" fill="none" stroke="#e68268" stroke-linecap="round" stroke-linejoin="round" stroke-width="1"/><path d="M1290.825-5215.61a10.508,10.508,0,0,1-2.5-1.309" transform="translate(-34.731 -65.478)" fill="none" stroke="#e68268" stroke-linecap="round" stroke-linejoin="round" stroke-width="1"/><path d="M1304.939-5203.56l15.248-3.641a1.563,1.563,0,0,0,1.157-1.883,1.567,1.567,0,0,0-.382-.708L1309.28-5222.2a3.127,3.127,0,0,0-2.891-.922l-18.063,3.618" transform="translate(-34.731 -63.008)" fill="none" stroke="#e68268" stroke-linecap="round" stroke-linejoin="round" stroke-width="1"/><path d="M1242.271-5228.9c-4.214,8.3-8.143,19.932-7.874,22.759" transform="translate(-13.459 -60.754)" fill="none" stroke="#e68268" stroke-linecap="round" stroke-linejoin="round" stroke-width="1"/><path d="M1273.975-5192.648c-2.98,9.019,2.177,14.1-5.409,19.025" transform="translate(-26.939 -75.048)" fill="none" stroke="#e68268" stroke-linecap="round" stroke-linejoin="round" stroke-width="1"/><line x2="4.929" y2="5.235" transform="translate(1258.871 -5275.242)" fill="none" stroke="#e68268" stroke-linecap="round" stroke-linejoin="round" stroke-width="1"/><path d="M1282.1-5177.316c1.5-1.973,6.069-4.043,6.069-4.043" transform="translate(-32.274 -79.501)" fill="none" stroke="#e68268" stroke-linecap="round" stroke-linejoin="round" stroke-width="1"/><path d="M1383.212-5174.048c15.984-3.625,30.977-9.171,43.911-16.638,23.852-13.771,36.386-31.586,37.586-49.573a2.592,2.592,0,0,1,2.6-2.4h4.037a2.6,2.6,0,0,1,2.6,2.6h0v49.068c-.218,20.139-13.684,40.282-40.38,55.7-53.611,30.953-140.261,31.11-193.538.35-26.747-15.444-39.992-35.74-39.774-56.044v-49.068a2.6,2.6,0,0,1,2.6-2.6h3.982a2.593,2.593,0,0,1,2.6,2.455c.842,18.118,13.191,36.059,37.072,49.846,30.309,17.5,72.191,24.275,111.607,20.355" transform="translate(0 -55.328)" fill="none" stroke="#4f4f4f" stroke-linecap="round" stroke-miterlimit="10" stroke-width="1"/><path d="M1208.588-5217.261c4.788,15.5,17.005,30.288,36.665,42.254,52.212,31.783,137.129,31.621,189.668-.364,14.379-8.752,24.843-18.982,31.386-29.875a59.974,59.974,0,0,0,5.257-11.143" transform="translate(-3.287 -65.343)" fill="none" stroke="#4f4f4f" stroke-linecap="round" stroke-miterlimit="10" stroke-width="1"/><path d="M1490.26-5127.525a19.122,19.122,0,0,0,8.055-3.641c1.3-.378,3.545-1.052,4.191-1.253" transform="translate(-114.36 -98.799)" fill="none" stroke="#e78f62" stroke-linecap="round" stroke-linejoin="round" stroke-width="1"/><path d="M1458.3-5139.832a31.776,31.776,0,0,1,7.13.545,30.363,30.363,0,0,0,8.226.372c1.873-.063,3.809,1.674,3.135,6.154-.356,2.368-.614,3.153-3.164,4.124-1.605.611-11.177-.793-19.01-1" transform="translate(-100.307 -95.868)" fill="none" stroke="#e78f62" stroke-linecap="round" stroke-linejoin="round" stroke-width="1"/><path d="M1497.62-5314.288a71.051,71.051,0,0,1,.713,12.572c-.011,1.823-.705,12.27-.073,18.715.9,1.692,1.4,2.44,1.272,4.617-.182,3.363-2.354,4.583-5.352,5.1-2.476.436-3.331-6.019-1.463-9.6,1.935-3.378-.445-16.248-.619-17.848-1.049-3.255-1.245-9.684-.9-13.591" transform="translate(-114.67 -27.066)" fill="none" stroke="#e68e61" stroke-linecap="round" stroke-linejoin="round" stroke-width="1"/><path d="M1437.262-5320.554c-2.078,4.208-3.468,11.668-3.65,13.229-.908,2.166-4.091,13.164-5.7,15.193-3.968,1.19-5.486,5.376-3.236,7.74,1.22,1.283,3.187-.05,5.686-2.056a5.46,5.46,0,0,0,2.159-3.276,2.053,2.053,0,0,0,.005-.572c-.158-2.112,5.834-13.987,8.345-22.24.424-1.393,1.495-5.113,1.715-5.882" transform="translate(-88.085 -24.611)" fill="none" stroke="#e68e61" stroke-linecap="round" stroke-linejoin="round" stroke-width="1"/></g></svg>