<svg xmlns="http://www.w3.org/2000/svg" width="1920" height="1080" viewBox="0 0 1920 1080"><rect width="1920" height="1080" fill="none"/><g transform="translate(65.703 5622)"><path d="M1209.1-2295.33q9.558-.091,19.2-.423c2.8-.233,6.46-.568,6.46-.568" transform="translate(-311.296 -2647.657)" fill="none" stroke="#4f4f4f" stroke-linecap="round" stroke-miterlimit="10" stroke-width="2"/><path d="M1219.5-2347.279c-7.448,4.29-6.714,5.226-8.21,9.962-.415,1.313-.911,3.54-1.476,6.155,5.115,3.36,8.891,2.51,8.891,2.51" transform="translate(-311.32 -2645.958)" fill="none" stroke="#e68e61" stroke-linecap="round" stroke-linejoin="round" stroke-width="2"/><path d="M1269.655-2325.882c-.013-1.347,0-2.5.05-3.351-.825-12.752-2.418-14.44-6.683-16.261-2.689-1.24-2.229-1.178-4.272-2.148" transform="translate(-312.952 -2645.946)" fill="none" stroke="#e68e61" stroke-linecap="round" stroke-linejoin="round" stroke-width="2"/><path d="M1262.982-2276.788" transform="translate(-313.093 -2648.309)" fill="none" stroke="#ff5b5a" stroke-linecap="round" stroke-linejoin="round" stroke-width="2"/><path d="M1253.425-2341.79c0,5.879-3.04,10.63-4.048,9.873s-3.9-4.228-6.237-3.383c-1.493.539-2.687.537-6.669,12.9" transform="translate(-312.209 -2646.141)" fill="none" stroke="#e68e61" stroke-linecap="round" stroke-linejoin="round" stroke-width="2"/><path d="M1248.809-2346.451c.018,5.235-5,10.2-6.982,11.856" transform="translate(-312.387 -2645.986)" fill="none" stroke="#e68e61" stroke-linecap="round" stroke-linejoin="round" stroke-width="2"/><path d="M1230.918-2336.973c.125.453,2.515,15.061,2.942,17.544,2.177,12.663,11.552,13.813,11.552,28.764" transform="translate(-312.024 -2646.302)" fill="none" stroke="#e68e61" stroke-linecap="round" stroke-linejoin="round" stroke-width="2"/><path d="M1247.047-2290.7c.089-17.271-8.163-17.815-10.42-28.1-.471-2.15-2.1-16.064-3.844-18.081s-3.577-3.786-4.108-7.809,2.58-7.523,2.58-7.523" transform="translate(-311.947 -2645.794)" fill="none" stroke="#e68e61" stroke-linecap="round" stroke-linejoin="round" stroke-width="2"/><path d="M1232.941-2336.407c-1.755-1.437-2.815-1.9-3.657-1.114a8.482,8.482,0,0,1-4.579,1.252c-2.543-8.938,4.744-15.76,4.744-15.76" transform="translate(-311.799 -2645.8)" fill="none" stroke="#e68e61" stroke-linecap="round" stroke-linejoin="round" stroke-width="2"/><path d="M1232.017-2352.536a9.452,9.452,0,0,1,3.136,11.077" transform="translate(-312.06 -2645.783)" fill="none" stroke="#e68e61" stroke-linecap="round" stroke-linejoin="round" stroke-width="2"/><path d="M1232.017-2344.736" transform="translate(-312.06 -2646.043)" fill="none" stroke="#e68e61" stroke-linecap="round" stroke-linejoin="round" stroke-width="2"/><path d="M1235.587-2344.736a14.828,14.828,0,0,0-6.632,1.932" transform="translate(-311.958 -2646.043)" fill="none" stroke="#e68e61" stroke-linecap="round" stroke-linejoin="round" stroke-width="2"/><path d="M1269.568-2325.337c-.049,3.352-10.026,2.74-13.43.653.6-4.44.708-6,.59-6.627" transform="translate(-312.865 -2646.491)" fill="none" stroke="#e68e61" stroke-linecap="round" stroke-linejoin="round" stroke-width="2"/><path d="M1222.271-2321.543c-1.437,10.35,6.225,14.038,8.353,16.887s5.042,6.829,6.046,12.417" transform="translate(-311.729 -2646.817)" fill="none" stroke="#e68e61" stroke-linecap="round" stroke-linejoin="round" stroke-width="2"/><path d="M1243.254-2366.625c-.651,3.086-7.008,13.752-13.643,12.077-4.594-1.16-10.467-11.314-10.381-14.572.145-5.5-1.514-4.687-1.8-6.149-.98-5.074.781-7.517,3.912-8.886,2.958-1.124,8.048-.534,10.537,5.475s8.089,6.957,12.454,6.005a13.309,13.309,0,0,0,3.917-1.718" transform="translate(-311.565 -2644.714)" fill="none" stroke="#e68e61" stroke-linecap="round" stroke-linejoin="round" stroke-width="2"/><path d="M1257.64-2352.311c-.042-.275,3.826-3.8-2.361-11.479s-.44-11.216-8.124-21.862-14.891-11.022-25.534-5.124c-6.8,2.578-10.036,8.047-8.178,16.025s-2.737,13.66-.558,16.454,4.022,3.054,5.447,4.805a7.4,7.4,0,0,1,.651,8.171c-3.075,6.394-2.212,12.5-.2,15.093s5.14,5.448-.219,6.27c7.452.924,7.452-3.889,6.44-6.174s-2.121-4.29-1.014-8.761" transform="translate(-311.402 -2644.381)" fill="none" stroke="#e68e61" stroke-linecap="round" stroke-linejoin="round" stroke-width="2"/><path d="M1243.036-2359.519c6.238-.244,8.886,1.5,9.528,5.985a5.746,5.746,0,0,0-6.037-1.6C1242.668-2356.415,1243.036-2359.519,1243.036-2359.519Z" transform="translate(-312.427 -2645.55)" fill="none" stroke="#e68e61" stroke-linecap="round" stroke-linejoin="round" stroke-width="2"/><path d="M1243.636-2368.421c1.206,2.822-.651,6.165-.6,8.606" transform="translate(-312.428 -2645.253)" fill="none" stroke="#e68e61" stroke-linecap="round" stroke-linejoin="round" stroke-width="2"/><path d="M1255.759-2352.747c1.037,3.414,5.629,10.967,12.365,9.018-11.046,4.412-15.349,2.18-18.617-2.227a14.382,14.382,0,0,1-2.86-9.021" transform="translate(-312.548 -2645.702)" fill="none" stroke="#e68e61" stroke-linecap="round" stroke-linejoin="round" stroke-width="2"/><line y2="59.726" transform="translate(1586.294 -5150.514)" fill="none" stroke="#4f4f4f" stroke-linecap="round" stroke-miterlimit="10" stroke-width="2"/><line y1="7.059" x2="12.214" transform="translate(310.983 -5076.275)" fill="none" stroke="#4f4f4f" stroke-linecap="round" stroke-miterlimit="10" stroke-width="2"/><path d="M1119.743-2134.83a145.132,145.132,0,0,1-26-11.619c-11.881-6.861-20.964-14.729-27.246-23.134" transform="translate(-306.541 -2651.883)" fill="none" stroke="#4f4f4f" stroke-linecap="round" stroke-miterlimit="10" stroke-width="2"/><path d="M1042.485-2156.96a55.055,55.055,0,0,0,30.124-20.612" transform="translate(-305.741 -2651.617)" fill="none" stroke="#e68268" stroke-linecap="round" stroke-linejoin="round" stroke-width="2"/><path d="M1271.544-2306.655c41.844-4.252,81.483-13.3,111.069-30.383l2.049-1.183c46.577-26.892,64.13-72.037,63.289-109.941-.744-33.454,20.665-67.114,64.187-93.019" transform="translate(-313.378 -2639.493)" fill="none" stroke="#4f4f4f" stroke-linecap="round" stroke-miterlimit="10" stroke-width="2"/><path d="M1001.628-2326.382c41.991,22.084,102.231,29.284,160.337,30.056" transform="translate(-304.379 -2646.655)" fill="none" stroke="#4f4f4f" stroke-linecap="round" stroke-miterlimit="10" stroke-width="2"/><path d="M894.263-2518.224c23.819,21.785,35.307,46.8,34.483,71.745a121.163,121.163,0,0,0,5.352,39.58" transform="translate(-300.799 -2640.259)" fill="none" stroke="#4f4f4f" stroke-linecap="round" stroke-miterlimit="10" stroke-width="2"/><path d="M733.85-2579.062c33.45,3,65.909,10.345,94.624,22.041" transform="translate(-295.45 -2638.23)" fill="none" stroke="#4f4f4f" stroke-linecap="round" stroke-miterlimit="10" stroke-width="2"/><path d="M555.639-2553.9c35.266-15.514,76.6-24.283,118.673-26.3" transform="translate(-289.508 -2638.192)" fill="none" stroke="#4f4f4f" stroke-linecap="round" stroke-miterlimit="10" stroke-width="2"/><path d="M1872.7-2451.625c-.082,33.469-22.314,67-66.653,92.611-44.953,25.969-103.978,38.809-162.707,38.5-65.908-.349-138.1,5.888-184.852,32.9l-3.2,1.85c-46.549,26.891-64.1,72.037-63.254,109.941.758,34.085-21.466,68.382-66.632,94.473-88.365,51.048-231.618,51.306-319.432.577-44.884-25.929-66.735-60.146-65.608-94.234,1.255-37.909-15.9-82.96-62.156-109.683l-3.183-1.839c-46.462-26.841-118.492-32.849-184.4-32.26-58.731.524-117.62-12.1-162.292-37.909-87.865-50.758-87.484-133.289.8-184.412q8.961-5.188,18.644-9.681" transform="translate(-286.408 -2639.173)" fill="none" stroke="#4f4f4f" stroke-linecap="round" stroke-miterlimit="10" stroke-width="2"/><path d="M1194.481-2296.114c-36.575-1.566-74.166,5.764-102.23,21.969-22.913,13.229-35.578,30.12-37.987,47.367" transform="translate(-306.134 -2647.657)" fill="none" stroke="#4f4f4f" stroke-linecap="round" stroke-miterlimit="10" stroke-width="2"/><path d="M1258.217-2285.084a195.935,195.935,0,0,0-49.112-10.389" transform="translate(-311.296 -2647.686)" fill="none" stroke="#4f4f4f" stroke-linecap="round" stroke-miterlimit="10" stroke-width="2"/><path d="M1226.308-2148.7c20.141-3.476,39.145-9.818,55.078-19.014,50.987-29.439,51.245-77.016.577-106.271a136.557,136.557,0,0,0-15.062-7.462" transform="translate(-311.87 -2648.153)" fill="none" stroke="#4f4f4f" stroke-linecap="round" stroke-miterlimit="10" stroke-width="2"/><path d="M1068.713-2182.593a94.781,94.781,0,0,0,23.453,18.5,152.669,152.669,0,0,0,36.023,14.674" transform="translate(-306.615 -2651.449)" fill="none" stroke="#4f4f4f" stroke-linecap="round" stroke-miterlimit="10" stroke-width="2"/><path d="M1595.258-2505.631a21.689,21.689,0,0,1-13.021-2.813" transform="translate(-323.738 -2640.585)" fill="none" stroke="#4f4f4f" stroke-linecap="round" stroke-miterlimit="10" stroke-width="2"/><path d="M1718.943-2522.88a220.9,220.9,0,0,0-85.187,4.076" transform="translate(-325.455 -2640.025)" fill="none" stroke="#4f4f4f" stroke-linecap="round" stroke-miterlimit="10" stroke-width="2"/><path d="M1808.615-2625.525c-64.865-24.456-146.966-27.539-216.564-9.3" transform="translate(-324.065 -2635.981)" fill="none" stroke="#4f4f4f" stroke-linecap="round" stroke-miterlimit="10" stroke-width="2"/><path d="M1844.04-2532.964l61.151,35.308a8.608,8.608,0,0,0,11.76-3.146,8.622,8.622,0,0,0,1.069-3.1c3.388-24.168-4.829-48.737-24.673-70.687" transform="translate(-332.467 -2638.379)" fill="none" stroke="#4f4f4f" stroke-linecap="round" stroke-miterlimit="10" stroke-width="2"/><line x2="28.174" y2="16.267" transform="translate(1476.413 -5191.643)" fill="none" stroke="#4f4f4f" stroke-linecap="round" stroke-miterlimit="10" stroke-width="2"/><path d="M1575.817-2576.546l6.029,3.482a21.454,21.454,0,0,0,19.895.9c36.427-17.276,85.139-21.483,127.366-12.618l.056-.007.123.044q5.124,1.082,10.113,2.418" transform="translate(-323.523 -2637.889)" fill="none" stroke="#4f4f4f" stroke-linecap="round" stroke-miterlimit="10" stroke-width="2"/><path d="M1841.477-2525.887l61.686,35.616a10.088,10.088,0,0,0,13.785-3.677,10.076,10.076,0,0,0,1.3-3.954q.165-1.531.265-3.062" transform="translate(-332.382 -2640.003)" fill="none" stroke="#4f4f4f" stroke-linecap="round" stroke-miterlimit="10" stroke-width="2"/><line x2="13.212" y2="7.628" transform="translate(1487.416 -5178.406)" fill="none" stroke="#4f4f4f" stroke-linecap="round" stroke-miterlimit="10" stroke-width="2"/><path d="M1574.252-2570.3l3.688,2.129a30.23,30.23,0,0,0,27.329,1.488c36-15.9,82.929-19.557,123.788-10.979l.056-.006.124.044q3.416.721,6.772,1.553" transform="translate(-323.471 -2638.127)" fill="none" stroke="#4f4f4f" stroke-linecap="round" stroke-miterlimit="10" stroke-width="2"/><path d="M1848.853-2470.236l56.5,32.618a8.607,8.607,0,0,0,11.759-3.146,8.611,8.611,0,0,0,1.07-3.1,76.231,76.231,0,0,0,.742-10.773" transform="translate(-332.627 -2641.859)" fill="none" stroke="#4f4f4f" stroke-linecap="round" stroke-miterlimit="10" stroke-width="2"/><path d="M1629.407-2523.227c28-7.844,59.8-9.578,89.392-5.2" transform="translate(-325.31 -2639.84)" fill="none" stroke="#4f4f4f" stroke-linecap="round" stroke-miterlimit="10" stroke-width="2"/><path d="M1567.619-2522.43l14.128,8.156a21.49,21.49,0,0,0,18.934,1.326" transform="translate(-323.25 -2640.119)" fill="none" stroke="#4f4f4f" stroke-linecap="round" stroke-miterlimit="10" stroke-width="2"/><path d="M1919.025-2448.684a76.382,76.382,0,0,1-.738,10.388,8.616,8.616,0,0,1-9.717,7.353,8.609,8.609,0,0,1-3.12-1.069l-17.736-10.241-35.786-20.66" transform="translate(-332.73 -2642.103)" fill="none" stroke="#4f4f4f" stroke-linecap="round" stroke-miterlimit="10" stroke-width="2"/><line x1="15.022" y1="8.673" transform="translate(1243.485 -5157.702)" fill="none" stroke="#4f4f4f" stroke-linecap="round" stroke-miterlimit="10" stroke-width="2"/><path d="M1818-2616.025l90.416,45.181a2.53,2.53,0,0,0,3.394-1.132,2.545,2.545,0,0,0,.246-.8l10.359-79.4a5.06,5.06,0,0,0-2.756-5.18l-90.417-45.18a2.529,2.529,0,0,0-3.393,1.131,2.529,2.529,0,0,0-.246.806l-10.359,79.4A5.057,5.057,0,0,0,1818-2616.025Z" transform="translate(-331.505 -2634.104)" fill="none" stroke="#4f4f4f" stroke-linecap="round" stroke-miterlimit="10" stroke-width="2"/><line x1="96.819" y1="48.378" transform="translate(1484.929 -5264.406)" fill="none" stroke="#4f4f4f" stroke-linecap="round" stroke-miterlimit="10" stroke-width="2"/><path d="M1868.808-2587.393l22.466,11.227-16.469,8.334a6.749,6.749,0,0,1-6.062.014l-16.432-8.211a1.685,1.685,0,0,1-.755-2.261,1.679,1.679,0,0,1,.748-.752Z" transform="translate(-332.712 -2637.952)" fill="none" stroke="#4f4f4f" stroke-linecap="round" stroke-miterlimit="10" stroke-width="2"/><path d="M1730.588-2561.884a2.588,2.588,0,0,1,2.875-.18l4.277,2.47" transform="translate(-328.684 -2638.785)" fill="none" stroke="#4f4f4f" stroke-linecap="round" stroke-miterlimit="10" stroke-width="2"/><path d="M1772.322-2539.673l7.376,4.259a13.03,13.03,0,0,1,6.516,11.286v33.091a2.578,2.578,0,0,1-1.056,2.1" transform="translate(-330.076 -2639.544)" fill="none" stroke="#4f4f4f" stroke-linecap="round" stroke-miterlimit="10" stroke-width="2"/><line x1="41.138" y1="23.751" transform="translate(1467.77 -5206.421)" fill="none" stroke="#4f4f4f" stroke-linecap="round" stroke-miterlimit="10" stroke-width="2"/><path d="M1799.983-2575.123l14.867-8.583a2.608,2.608,0,0,1,2.606,0l59.335,34.256a1.3,1.3,0,0,1,.476,1.782,1.312,1.312,0,0,1-.476.475L1857.412-2536a2.6,2.6,0,0,1-2.606,0l-9.137-5.275" transform="translate(-330.998 -2638.063)" fill="none" stroke="#4f4f4f" stroke-linecap="round" stroke-miterlimit="10" stroke-width="2"/><path d="M1846.862-2538.957l8.708,5.027a4.2,4.2,0,0,0,4.2,0l18.58-10.727a1.3,1.3,0,0,0,.652-1.128v-1.321" transform="translate(-332.561 -2639.296)" fill="none" stroke="#4f4f4f" stroke-linecap="round" stroke-miterlimit="10" stroke-width="2"/><line x2="38.841" y2="22.425" transform="translate(1469.664 -5204.024)" fill="none" stroke="#4f4f4f" stroke-linecap="round" stroke-miterlimit="10" stroke-width="2"/><path d="M1792.254-2625.585c5.6,3.477,13.728,9.547,10.346,15.918s-8.158,12.34-10.346,8.755-6.965,2.984-3.784,7.162,8.557,13.928,2.189,20.1-8.357,5.771-5.77,11.341-1.553,12.935-5.283,14.122-7.935,3.1-8.445,5.563c-9.751-4.917-13.006-.9-24.031-8.191s-11.446-14.583-6.529-25.013,5.764-10.259,12.38-14.584,5.765-7.3,5.855-12.38.339-19.585,12.294-23.4S1788.877-2627.683,1792.254-2625.585Z" transform="translate(-328.918 -2636.591)" fill="none" stroke="#f1c354" stroke-linecap="round" stroke-linejoin="round" stroke-width="2"/><path d="M1803.484-2607.112c.248,4.157-2.875,7.772-2.957,9.416s1.422,5.823-5.494,13.84" transform="translate(-330.833 -2637.295)" fill="none" stroke="#f1c354" stroke-linecap="round" stroke-linejoin="round" stroke-width="2"/><path d="M1811.758-2521.873c6.546-4.64,7.622-14.322,7.622-15.243s-3.68-7.1-5.125-6.965,1.816,3.61-2.831,11.579-8.725,5.245-5.79,7.7S1810.5-2520.984,1811.758-2521.873Z" transform="translate(-331.153 -2639.397)" fill="none" stroke="#f1c354" stroke-linecap="round" stroke-linejoin="round" stroke-width="2"/><path d="M1804.9-2526.269c-5.144-1.441-8.376-3.711-10.161-6.439s-2.575-4.222-2.707-7.369" transform="translate(-330.733 -2639.53)" fill="none" stroke="#f1c354" stroke-linecap="round" stroke-linejoin="round" stroke-width="2"/><path d="M1793.415-2572.786c6.665,5.579,7.682,7.863,10.031,12.814s8.343,14.36,10.054,15.883" transform="translate(-330.779 -2638.439)" fill="none" stroke="#f1c354" stroke-linecap="round" stroke-linejoin="round" stroke-width="2"/><path d="M1819.658-2534.97c6.395,7.025,8.3,8.4,8.3,8.4" transform="translate(-331.654 -2639.7)" fill="none" stroke="#f1c354" stroke-linecap="round" stroke-linejoin="round" stroke-width="2"/><path d="M1826.476-2526.115c3.555-3.462,10.01-10.291,12.16-14.034s2.2-5.33,2.057-7.228-.505-14.295,5.887-10.449c5.182,3.115,6.277,5.9,3.043,10.8-3.54,5.366-2.883,5.062-4.428,9.139s-9.071,23.2-14.835,23.905-17.659-8.888-17.659-8.888" transform="translate(-331.422 -2638.914)" fill="none" stroke="#f1c354" stroke-linecap="round" stroke-linejoin="round" stroke-width="2"/><path d="M1794.5-2574.619c9.8.01,15.244-3.249,19.037-4s5.177.105,9.434,4,2.827,3.895,1.462,3.242-6.438-4.226-8.065-3.963-3.121,1.323-5.2,2.354,2.4,2.129,3.771,1.937,2.211,2.149.132,1.758a43.7,43.7,0,0,0-8.39-.454c-4.422,0-9.1.5-9.1.5" transform="translate(-330.815 -2638.237)" fill="none" stroke="#f1c354" stroke-linecap="round" stroke-linejoin="round" stroke-width="2"/><line x1="7.419" y2="4.449" transform="translate(1447.662 -5128.487)" fill="none" stroke="#4f4f4f" stroke-linecap="round" stroke-miterlimit="10" stroke-width="2"/><line x1="7.254" y2="4.332" transform="translate(1394.65 -5200.669)" fill="none" stroke="#4f4f4f" stroke-linecap="round" stroke-miterlimit="10" stroke-width="2"/><path d="M1733.636-2506.236l-.281.162c-5.859,3.383-6.495,8.5-1.421,11.431l42.892,24.709c5.075,2.93,13.94,2.563,19.8-.821l27.658-15.968c5.495-3.172,6.4-7.868,2.307-10.856" transform="translate(-328.615 -2640.658)" fill="none" stroke="#4f4f4f" stroke-linecap="round" stroke-miterlimit="10" stroke-width="2"/><line y1="9.629" transform="translate(1498.517 -5133.666)" fill="none" stroke="#4f4f4f" stroke-linecap="round" stroke-miterlimit="10" stroke-width="2"/><line y1="9.277" transform="translate(1399.893 -5139.879)" fill="none" stroke="#4f4f4f" stroke-linecap="round" stroke-miterlimit="10" stroke-width="2"/><path d="M1784.266-2449.29v9.09c0,1.512-2.118,2.736-4.734,2.736s-4.734-1.225-4.734-2.736v-9.09" transform="translate(-330.158 -2642.557)" fill="none" stroke="#4f4f4f" stroke-linecap="round" stroke-miterlimit="10" stroke-width="2"/><ellipse cx="4.734" cy="2.735" rx="4.734" ry="2.735" transform="translate(1444.64 -5094.583)" fill="none" stroke="#4f4f4f" stroke-linecap="round" stroke-miterlimit="10" stroke-width="2"/><path d="M1781.369-2456.689v6.394c0,.541-.776.979-1.732.979s-1.731-.439-1.731-.979v-6.394c0-.326.278-.613.71-.791" transform="translate(-330.262 -2642.284)" fill="none" stroke="#4f4f4f" stroke-linecap="round" stroke-miterlimit="10" stroke-width="2"/><path d="M1831.361-2442.183l-.316.041-40.939,5.238c-2.291.294-3.543,1.72-2.605,2.967l17.052,22.682c1.247,1.661-2.835,2.856-4.439,1.3l-21.9-21.257c-1.2-1.17-3.947-1.424-5.706-.531l-31.993,16.239c-2.342,1.188-5.6-.693-3.541-2.045l28.125-18.47c1.548-1.017,1.1-2.6-.921-3.3l-36.826-12.647c-2.694-.926-.622-3.283,2.252-2.562l39.285,9.845a5.786,5.786,0,0,0,4.29-.541" transform="translate(-328.534 -2642.378)" fill="none" stroke="#4f4f4f" stroke-linecap="round" stroke-miterlimit="10" stroke-width="2"/><path d="M1786.912-2443.919l1.982-12.677-2.545,11.3c-.211,1.351,1.757,2.486,4.1,2.365l41.754-2.179" transform="translate(-330.543 -2642.313)" fill="none" stroke="#4f4f4f" stroke-linecap="round" stroke-miterlimit="10" stroke-width="2"/><path d="M1835.853-2437.841c-.155.509-.767.969-1.91,1.115l-41.661,5.33a5.838,5.838,0,0,0-.96.206" transform="translate(-330.709 -2642.939)" fill="none" stroke="#4f4f4f" stroke-linecap="round" stroke-miterlimit="10" stroke-width="2"/><path d="M1805.138-2404.706c-.072,1.28-3.292,1.982-4.671.64l-21.9-21.257c-1.206-1.171-3.948-1.425-5.707-.531l-31.994,16.232c-1.9.967-4.413-.09-4.179-1.251l-.015-4.594" transform="translate(-328.887 -2643.321)" fill="none" stroke="#4f4f4f" stroke-linecap="round" stroke-miterlimit="10" stroke-width="2"/><path d="M1763.125-2434.68l-35.778-12.287c-1.011-.348-1.351-.9-1.229-1.407l-.023-4.734" transform="translate(-328.534 -2642.43)" fill="none" stroke="#4f4f4f" stroke-linecap="round" stroke-miterlimit="10" stroke-width="2"/><line y2="4.976" transform="translate(1476.25 -5053.002)" fill="none" stroke="#4f4f4f" stroke-linecap="round" stroke-miterlimit="10" stroke-width="2"/><line y2="2.209" transform="translate(1508.868 -5148.833)" fill="none" stroke="#4f4f4f" stroke-linecap="round" stroke-miterlimit="10" stroke-width="2"/><line y2="2.209" transform="translate(1464.368 -5129.77)" fill="none" stroke="#4f4f4f" stroke-linecap="round" stroke-miterlimit="10" stroke-width="2"/><path d="M1738.262-2504.547c3.347,11.274,18.589,19.251,28.561,22.1s17.237,1.1,19.8-1.729,5.633-5.314,4.954-9.627-1.571-21.208,3.361-36.264" transform="translate(-328.94 -2639.864)" fill="none" stroke="#f1c354" stroke-linecap="round" stroke-linejoin="round" stroke-width="2"/><path d="M1817.837-2502.482l3.316-3.035" transform="translate(-331.593 -2640.682)" fill="none" stroke="#f1c354" stroke-linecap="round" stroke-linejoin="round" stroke-width="2"/><path d="M1738.559-2502.763c3.121,8.763,6.271,12.632,23.269,22.084s26.4,2.638,30.918-1.319c.665-.582,1.694-1.5,2.964-2.646" transform="translate(-328.95 -2640.774)" fill="none" stroke="#f1c354" stroke-linecap="round" stroke-linejoin="round" stroke-width="2"/><path d="M1807.513-2522.281c-5.515.052-14,8.1-14,8.1" transform="translate(-330.782 -2640.123)" fill="none" stroke="#f1c354" stroke-linecap="round" stroke-linejoin="round" stroke-width="2"/><path d="M1805.034-2521.974c-3.034-4.334-8.894-5.638-8.894-5.638" transform="translate(-330.87 -2639.946)" fill="none" stroke="#f1c354" stroke-linecap="round" stroke-linejoin="round" stroke-width="2"/><path d="M1773.235-2484.964l-48.621-28.073a5.473,5.473,0,0,1-2.738-4.74v-37.454a2.606,2.606,0,0,1,2.605-2.605,2.611,2.611,0,0,1,1.3.348l48.623,28.073a5.472,5.472,0,0,1,2.736,4.739v37.455a2.606,2.606,0,0,1-2.605,2.606A2.612,2.612,0,0,1,1773.235-2484.964Z" transform="translate(-328.394 -2638.938)" fill="none" stroke="#4f4f4f" stroke-linecap="round" stroke-miterlimit="10" stroke-width="2"/><path d="M1559.37-2482.229c-.53,3.512.251,3.9-2.421,5.049s-5.8,3.581-8.608,8.135-12.635,9.411-18.91,6.095-.45-9.425,3.562-12.935,5.44-5.412,7.253-6.819,4.21-3.332,4.21-3.332c-.495,2.167-.917,4.344,3.859,4.2s7.981-1.97,9.355-4.622S1559.675-2484.261,1559.37-2482.229Z" transform="translate(-321.885 -2641.292)" fill="none" stroke="#edaf5a" stroke-linecap="round" stroke-linejoin="round" stroke-width="2"/><path d="M1578.594-2613.816c1.485,12.349,5.026,27.346,3.689,29.349s-12.464,9.29-23.338,5.964-9.535-13.815-6.058-44.867" transform="translate(-322.676 -2636.753)" fill="none" stroke="#edaf5a" stroke-linecap="round" stroke-linejoin="round" stroke-width="2"/><path d="M1574.943-2630.2c-1.711-3.76-20.86-11-27.631-14.112-.121,1.569-.7,4.361-3.681,7.68s-1.255,1.576-2.291-.36c0,0-2.276,2.5-.514,4.083s27,17.545,34.9,17.627,22.107-37.83,25.317-47.618-.4-9.414-4.573-14.418c-5.176-6.2-8.017-9.859-8.017-9.859" transform="translate(-322.335 -2634.625)" fill="none" stroke="#edaf5a" stroke-linecap="round" stroke-linejoin="round" stroke-width="2"/><path d="M1586.487-2667.99a46.5,46.5,0,0,0-3.182,8.095c-3.015,9.934-4.165,18.015-8.765,28.658" transform="translate(-323.481 -2635.265)" fill="none" stroke="#edaf5a" stroke-linecap="round" stroke-linejoin="round" stroke-width="2"/><path d="M1542.323-2634.8c-4.744-3.377-10.088-3.165-12.647-5.554s-2.68-10.779-4.034-14.1,2.441-5.3,3.977-1.074,5.129,10.888,7.239,10.563,1.954-3,1.652-5.307-5.615-7.8-4.087-8.985,6.2,3.147,7.667,6.383,2.039,3.333,1.705,6.383,2.786,4.62,2.786,4.62" transform="translate(-321.841 -2635.549)" fill="none" stroke="#edaf5a" stroke-linecap="round" stroke-linejoin="round" stroke-width="2"/><path d="M1572.254-2602.7a63.124,63.124,0,0,0-12,.728c.129-2.63,0-5.658,0-5.658" transform="translate(-323.005 -2637.278)" fill="none" stroke="#edaf5a" stroke-linecap="round" stroke-linejoin="round" stroke-width="2"/><path d="M1572.221-2670.544c1.977-.156,6.267,1.289,7.186-.09s9.583-16.747,9.583-16.747-.9-1.909-3.13-5.638c-16.607,18.2-25.05,29.486-29.738,52.068" transform="translate(-322.867 -2634.43)" fill="none" stroke="#edaf5a" stroke-linecap="round" stroke-linejoin="round" stroke-width="2"/><path d="M1574.669-2669.57c1.633,3.313,2.653,4.669.461,6.628a59.316,59.316,0,0,0-17.41,23.434" transform="translate(-322.92 -2635.212)" fill="none" stroke="#edaf5a" stroke-linecap="round" stroke-linejoin="round" stroke-width="2"/><path d="M1584.81-2702.7c2.123-3.834,2.289-6.784-.122-5.551s-2.424,2.972-4.341,2.733-2.841-.053-2.1-3.956.6-7.713-1.63-7.892-5.4,1.37-11.34-.3-5.077-6.892-3.472-9.048,5.584-8.522,17.313-6.429,12.581,12.411,11.782,16.327A39.617,39.617,0,0,1,1584.81-2702.7Z" transform="translate(-323.017 -2633.079)" fill="none" stroke="#edaf5a" stroke-linecap="round" stroke-linejoin="round" stroke-width="2"/><path d="M1561.641-2719.34c-1.261,4.462-1.546,8.357-2.168,12.171-2.05,12.6-1.394,21.15,17.784,11.654" transform="translate(-322.952 -2633.553)" fill="none" stroke="#edaf5a" stroke-linecap="round" stroke-linejoin="round" stroke-width="2"/><path d="M1584.923-2701.632c-1.332,1.855-1.233,6.45-1.233,6.45s-5.562,6.429-11.571,8.983-7.206,1.98-7.206,1.98a10.813,10.813,0,0,1-.644-6.665" transform="translate(-323.13 -2634.144)" fill="none" stroke="#edaf5a" stroke-linecap="round" stroke-linejoin="round" stroke-width="2"/><path d="M1585.935-2692.132c.09-2.983-.386-3.062-1.565-2.831" transform="translate(-323.809 -2634.363)" fill="none" stroke="#edaf5a" stroke-linecap="round" stroke-linejoin="round" stroke-width="2"/><path d="M1553.4-2682.217c-2.173-3.3-3.46-3.115-2.465-4.067,1.032-.991,7.926-8.367,7.926-8.367" transform="translate(-322.683 -2634.376)" fill="none" stroke="#edaf5a" stroke-linecap="round" stroke-linejoin="round" stroke-width="2"/><path d="M1560.754-2691.42c-7.773,11.9-14.269,26.922-16.3,41.528" transform="translate(-322.478 -2634.484)" fill="none" stroke="#edaf5a" stroke-linecap="round" stroke-linejoin="round" stroke-width="2"/><path d="M1552.133-2683.241c-3.365.887-3.933.4-4.266,3.031s-3.724,22.825-4.561,27.842" transform="translate(-322.44 -2634.757)" fill="none" stroke="#edaf5a" stroke-linecap="round" stroke-linejoin="round" stroke-width="2"/><path d="M1575.572-2579.36c-4.224,17.827-7.955,27.3-7.226,38.163s-5.144,33.82-7.621,44.279c-.962,3.693-15.413,5.68-14.862,1.111,2.638-21.874,2.552-29.672,1.45-51.187-.963-18.824-2.643-40.024-1.921-53.1" transform="translate(-322.503 -2637.529)" fill="none" stroke="#edaf5a" stroke-linecap="round" stroke-linejoin="round" stroke-width="2"/><path d="M1559.689-2478.29c-.456,3.437-.037,3.577-2.139,4.974s-3.739,2.593-4.677,2.389a5.669,5.669,0,0,1-1.689-.7" transform="translate(-322.702 -2641.59)" fill="none" stroke="#edaf5a" stroke-linecap="round" stroke-linejoin="round" stroke-width="2"/><line x1="0.998" y2="7.921" transform="translate(1223.035 -5131.708)" fill="none" stroke="#edaf5a" stroke-linecap="round" stroke-linejoin="round" stroke-width="2"/><line x1="1.121" y2="6.028" transform="translate(1234.717 -5132.268)" fill="none" stroke="#edaf5a" stroke-linecap="round" stroke-linejoin="round" stroke-width="2"/><path d="M1540.339-2631.246c-4.521,22.352-2.5,37.887-5.934,40.195s-8.856-3.853-8.78-7.881,3-7.386,6.586-19.354a184.577,184.577,0,0,0,4.768-18.79" transform="translate(-321.85 -2636.296)" fill="none" stroke="#edaf5a" stroke-linecap="round" stroke-linejoin="round" stroke-width="2"/><path d="M1546.941-2541.517c-10.911-11.778-14.7-13.743-18.887-14.27" transform="translate(-321.931 -2639.006)" fill="none" stroke="#edaf5a" stroke-linecap="round" stroke-linejoin="round" stroke-width="2"/><path d="M1532.953-2554.979c6.255-10.137,12.236-22.544,12.236-22.544" transform="translate(-322.094 -2638.281)" fill="none" stroke="#edaf5a" stroke-linecap="round" stroke-linejoin="round" stroke-width="2"/><path d="M1525.541-2595.328c-8.466,15.323-12.526,24.875-14.258,37.12s.375,10.61,4.819,13.07,10.689,5.721,16.254,9.844a128.263,128.263,0,0,1,12.79,11.689s.527.869,1.738-1.135" transform="translate(-321.352 -2637.688)" fill="none" stroke="#edaf5a" stroke-linecap="round" stroke-linejoin="round" stroke-width="2"/><path d="M1546.17-2497.849c-4.778,1.61-7.138-.4-8.119-2.3-1.252-2.432.655-6.153,4.5-9.987a20.926,20.926,0,0,0,5.008-7.4" transform="translate(-322.252 -2640.281)" fill="none" stroke="#edaf5a" stroke-linecap="round" stroke-linejoin="round" stroke-width="2"/><path d="M1550.619-2608.273c-7.641-1.473-7.8-3.263-9.112-4.014a8.612,8.612,0,0,1-3.089-2.9" transform="translate(-322.277 -2637.026)" fill="none" stroke="#edaf5a" stroke-linecap="round" stroke-linejoin="round" stroke-width="2"/><path d="M1565.572-2683.532l2.266,2.162s-3.843,4.162-4.54,4.27-3.388-.329-3.657-1.242,1.135-5.084,1.7-5.718,3.073-.463,3.073-.463" transform="translate(-322.983 -2634.713)" fill="none" stroke="#edaf5a" stroke-linecap="round" stroke-linejoin="round" stroke-width="2"/><path d="M1563.056-2676.849s-7.707,10.152-10.707,34.894" transform="translate(-322.741 -2634.969)" fill="none" stroke="#edaf5a" stroke-linecap="round" stroke-linejoin="round" stroke-width="2"/><path d="M1560.117-2677.346c-8.145,14.568-11.068,19.876-14.411,33.661" transform="translate(-322.52 -2634.953)" fill="none" stroke="#edaf5a" stroke-linecap="round" stroke-linejoin="round" stroke-width="2"/><path d="M1550.052-2625.083c-.246,2.362.144,2.792-.72,3.574a30.981,30.981,0,0,1-4.747,3.459,1.02,1.02,0,0,1-1.379-.422h0c-1.375-2.593-2.154-4.019-1.819-5.881.368-2.049,1.041-5.521,1.041-5.521" transform="translate(-322.373 -2636.536)" fill="none" stroke="#edaf5a" stroke-linecap="round" stroke-linejoin="round" stroke-width="2"/><path d="M1545.4-2680.98c-3.167,4.739-4.095,18.884-4.448,24.788" transform="translate(-322.361 -2634.832)" fill="none" stroke="#edaf5a" stroke-linecap="round" stroke-linejoin="round" stroke-width="2"/><path d="M1560.9-2717.336l-8.81,10.581a2.557,2.557,0,0,0-.3,2.828l2.405,4.568a1,1,0,0,0,1.35.418.987.987,0,0,0,.3-.239l2.73-3.211" transform="translate(-322.713 -2633.62)" fill="none" stroke="#edaf5a" stroke-linecap="round" stroke-linejoin="round" stroke-width="2"/><path d="M1531-2681.815c10.672-11.1,12.992-13.71,13.572-16.245s-3.827-8.21-5.967-8.093-16.795,10.636-22.878,16.728-9.081,9.966-7.386,13.368,4.261,6.816,13.394,4.875,17-4.177,20.978-6.984" transform="translate(-321.258 -2633.993)" fill="none" stroke="#edaf5a" stroke-linecap="round" stroke-linejoin="round" stroke-width="2"/><path d="M1554.17-2698.485a21.884,21.884,0,0,0-8.99,2.315" transform="translate(-322.502 -2634.248)" fill="none" stroke="#edaf5a" stroke-linecap="round" stroke-linejoin="round" stroke-width="2"/><path d="M1558.6-2697.968a9.5,9.5,0,0,0-2.612-.495" transform="translate(-322.862 -2634.249)" fill="none" stroke="#edaf5a" stroke-linecap="round" stroke-linejoin="round" stroke-width="2"/><path d="M1545.981-2699c1.64-1.494,4-1.651,7.521-.768" transform="translate(-322.529 -2634.187)" fill="none" stroke="#edaf5a" stroke-linecap="round" stroke-linejoin="round" stroke-width="2"/><path d="M1558.449-2715.957c-6.781,1.187-8.129,1.611-10.2,4.324s-6.755,5.9-6.755,5.9" transform="translate(-322.379 -2633.666)" fill="none" stroke="#edaf5a" stroke-linecap="round" stroke-linejoin="round" stroke-width="2"/><path d="M1581.985-2470.063c-54.853,48.449-36.426,82.479-17.99,113.426s108.792,34.554,136.625-.72" transform="translate(-322.513 -2641.865)" fill="none" stroke="#4f4f4f" stroke-linecap="round" stroke-miterlimit="10" stroke-width="2"/><path d="M1647.67-2359.749a59.9,59.9,0,0,0,14.259-2.471" transform="translate(-325.919 -2645.46)" fill="none" stroke="#4f4f4f" stroke-linecap="round" stroke-miterlimit="10" stroke-width="2"/><path d="M1583.908-2445.795c-10.981,21.337-4.5,45.092,10.855,61.761" transform="translate(-323.611 -2642.674)" fill="none" stroke="#4f4f4f" stroke-linecap="round" stroke-miterlimit="10" stroke-width="2"/><path d="M1676.211-2451.982l10.871-15.066a1.848,1.848,0,0,0-.418-2.581,1.644,1.644,0,0,0-.15-.1l-21.818-12.731a1.846,1.846,0,0,0-2.432.512l-16.134,22.3" transform="translate(-325.868 -2641.443)" fill="none" stroke="#4f4f4f" stroke-linecap="round" stroke-miterlimit="10" stroke-width="2"/><path d="M1666.246-2436.167l-2.869,4.414a1.537,1.537,0,0,1-2.126.451l-.012-.008-3.031-2" transform="translate(-326.271 -2642.995)" fill="none" stroke="#4f4f4f" stroke-linecap="round" stroke-miterlimit="10" stroke-width="2"/><path d="M1645.654-2431.612c17.635,18.741,35.915,11.913,54.749,31.447,9.682,10.044,11.95,20.247,10.562,29.218" transform="translate(-325.852 -2643.146)" fill="none" stroke="#4f4f4f" stroke-linecap="round" stroke-miterlimit="10" stroke-width="2"/><path d="M1629.5-2452.573c5.611,13.323,6.31,18,9.818,19.868s18.914-2.022,21.506-1.374,3.242-9.082,0-9.893-5.19-2.01-13.46,1.589" transform="translate(-325.313 -2642.448)" fill="none" stroke="#eeb659" stroke-linecap="round" stroke-linejoin="round" stroke-width="2"/><path d="M1635.042-2477.582c5.811,1.614,10.976,15.493,14.427,33.571" transform="translate(-325.498 -2641.614)" fill="none" stroke="#eeb659" stroke-linecap="round" stroke-linejoin="round" stroke-width="2"/><path d="M1601.482-2509.8c-.119-13.384,7.976-16.074,16.252-16.671,9.457-.681,15.059,7.788,15.059,7.788,1.777,2.664-.687,5.6-2.259,6.6a1.9,1.9,0,0,0-.89,1.49,15.337,15.337,0,0,1-.63,3.45.435.435,0,0,1-.542.289.437.437,0,0,1-.269-.236c-1.238-2.777-4.26-.137-4.016,3.152a6.724,6.724,0,0,0,.618,2.6,2.847,2.847,0,0,1-.3,3.177c-4.978,5.829-12.868,9.613-17.988,4.926" transform="translate(-324.379 -2639.982)" fill="none" stroke="#eeb659" stroke-linecap="round" stroke-linejoin="round" stroke-width="2"/><path d="M1604.326-2504.581c-7.146,3.127,2.756,11.61,4.534,18.3s-4.495,4.076-4.969,14.624c-.38,8.441-11.265,20.577-26.446,10.679a1.054,1.054,0,0,1-.309-1.458,1.052,1.052,0,0,1,.684-.461c3.865-.678,4.566-2.728,4.795-5.345.27-3.142,1.092-9.983,7.376-12.231s6.83-8.26,4.644-14.815-.611-15.646,9.257-13.765" transform="translate(-323.562 -2640.556)" fill="none" stroke="#eeb659" stroke-linecap="round" stroke-linejoin="round" stroke-width="2"/><path d="M1602.077-2502.591" transform="translate(-324.399 -2640.78)" fill="none" stroke="#ff5b5a" stroke-linecap="round" stroke-linejoin="round" stroke-width="2"/><path d="M1591.1-2456.689c8.124,10.789,21.986,9.95,29.825-6.152s10.507-15.266,12.65-15.024c2.071.236-4.949-11.156-12.23-7.517-6.125,3.063-11.709,13.724-17.014,14.05" transform="translate(-324.033 -2641.33)" fill="none" stroke="#eeb659" stroke-linecap="round" stroke-linejoin="round" stroke-width="2"/><path d="M1631.794-2512.161c2.161,5.262.326,28.626-14.334,20.347" transform="translate(-324.912 -2640.461)" fill="none" stroke="#eeb659" stroke-linecap="round" stroke-linejoin="round" stroke-width="2"/><path d="M1619.313-2490.167a31.876,31.876,0,0,0-2.145,8.638" transform="translate(-324.902 -2641.194)" fill="none" stroke="#eeb659" stroke-linecap="round" stroke-linejoin="round" stroke-width="2"/><path d="M1715.524-2352.639c5.674,4.445,18.469,6.963,19.757,2.876s-2.575-10.825-13.7-10.825-21.2-6.131-22.708,1.362,7.494,5.3,10.294,5S1712.722-2354.832,1715.524-2352.639Z" transform="translate(-327.621 -2645.436)" fill="none" stroke="#eeb659" stroke-linecap="round" stroke-linejoin="round" stroke-width="2"/><path d="M1732.613-2357.325c-13.315-9.422-16.677-13.24-19.766-9.876s-11.812-1.636-13.265,2.453a15.913,15.913,0,0,0-.86,7.423" transform="translate(-327.618 -2645.254)" fill="none" stroke="#eeb659" stroke-linecap="round" stroke-linejoin="round" stroke-width="2"/><path d="M1628.84-2450.924c.425,5.573-5.057,7.446-2.516,14s9.63,11.9,7.155,13.908-5.686,1.738-8.762,5.482-16.981,17.919-25.54,14.442-5.884-6.151-6.552-15.111,2.132-23.319-4.413-36.666" transform="translate(-323.937 -2642.371)" fill="none" stroke="#eeb659" stroke-linecap="round" stroke-linejoin="round" stroke-width="2"/><path d="M1686.324-2389.907a11.67,11.67,0,0,0,1.218,11.368c2.432,3.146,7.511,6.9,7.511,6.9,1.828-4.364,9.136-5.989,11.169-5.278-2.943-4.568-6.09-10.455-6.9-15.631s-4.568-5.785-11.876-8.016-36.208-12.88-45.131-13.3-11.133-6.075-11.133-6.075" transform="translate(-325.369 -2643.536)" fill="none" stroke="#eeb659" stroke-linecap="round" stroke-linejoin="round" stroke-width="2"/><path d="M1685.235-2386.641c-23.8,3.332-60.762,3.61-66.063-3.643" transform="translate(-324.969 -2644.524)" fill="none" stroke="#eeb659" stroke-linecap="round" stroke-linejoin="round" stroke-width="2"/><path d="M1601.425-2382.032c-3.884-4.25-5.643-10.892-3.135-19.8" transform="translate(-324.234 -2644.139)" fill="none" stroke="#eeb659" stroke-linecap="round" stroke-linejoin="round" stroke-width="2"/><path d="M1633.6-2385.19a21.49,21.49,0,0,1-11.3,8.295" transform="translate(-325.074 -2644.694)" fill="none" stroke="#eeb659" stroke-linecap="round" stroke-linejoin="round" stroke-width="2"/><path d="M1646.985-2413.306c-7.179-12.89-9.33-10.107-11.943-8.658" transform="translate(-325.498 -2643.425)" fill="none" stroke="#eeb659" stroke-linecap="round" stroke-linejoin="round" stroke-width="2"/><path d="M1707.081-2375.585a83.081,83.081,0,0,0,6.874,7.426" transform="translate(-327.9 -2645.015)" fill="none" stroke="#eeb659" stroke-linecap="round" stroke-linejoin="round" stroke-width="2"/><path d="M1697.788-2370.959a21.23,21.23,0,0,1,4.354,4.451" transform="translate(-327.59 -2645.169)" fill="none" stroke="#eeb659" stroke-linecap="round" stroke-linejoin="round" stroke-width="2"/><path d="M1696.008-2370.143c-.071,5.787-5.733,9-12.044,6.792s-11.788-4.9-17.078-4.068-7.056-1.322-7.056-3.678,1.486-5.6,7.983-3.19,13.458,1.114,17.078.557a21.349,21.349,0,0,1,6.974.179" transform="translate(-326.325 -2645.03)" fill="none" stroke="#eeb659" stroke-linecap="round" stroke-linejoin="round" stroke-width="2"/><path d="M1689.211-2376.444c-6.454.23-10.259-6.824-13.415-6.36s-1.857,4.269-5.383,4.176-5.1-4.083-7.89.278-2.638,6.237-2.638,6.237" transform="translate(-326.327 -2644.773)" fill="none" stroke="#eeb659" stroke-linecap="round" stroke-linejoin="round" stroke-width="2"/><path d="M1662.022-2384.371c-3.119,4.816-5.235,4.414-11.524.181" transform="translate(-326.014 -2644.722)" fill="none" stroke="#eeb659" stroke-linecap="round" stroke-linejoin="round" stroke-width="2"/><path d="M1675.373-2382.645a30.453,30.453,0,0,0-3.9-2.217" transform="translate(-326.713 -2644.706)" fill="none" stroke="#eeb659" stroke-linecap="round" stroke-linejoin="round" stroke-width="2"/><line x1="3.942" y1="2.197" transform="translate(1335.007 -5027.35)" fill="none" stroke="#eeb659" stroke-linecap="round" stroke-linejoin="round" stroke-width="2"/><path d="M1664.163-2435.991c4.131-.236,11.954-9.168,12.588-13.593s-1.9,1.9-5.3,3.872-.552-2.449,1.261-4.347,1.185-2.924.316-3.4-3.556,5.06-5.3,5.691-4.173.83-3.872,6.3" transform="translate(-326.459 -2642.417)" fill="none" stroke="#eeb659" stroke-linecap="round" stroke-linejoin="round" stroke-width="2"/><path d="M1579.854-2381.452c32.492-3.226,58.119,8.131,71.039,28.318" transform="translate(-323.658 -2644.801)" fill="none" stroke="#4f4f4f" stroke-linecap="round" stroke-miterlimit="10" stroke-width="2"/><path d="M1386.777-2200.786h-52.555a12.823,12.823,0,0,0-12.52,9.775c-3.735,15.781-16.137,31.034-37.2,43.194a137.4,137.4,0,0,1-13.223,6.687" transform="translate(-313.369 -2650.843)" fill="none" stroke="#4f4f4f" stroke-linecap="round" stroke-miterlimit="10" stroke-width="2"/><path d="M1165.265-2173.048c8.31,1.05,8.332-.506,10.479-3.641,4.193-6.125,10.508-18.252,5.584-24.5s-8.585-7.731-15.444-6.744-12.32,6.587-12.171,12.184,2.809,20.5,5.077,21.179A34.5,34.5,0,0,0,1165.265-2173.048Z" transform="translate(-309.449 -2650.595)" fill="none" stroke="#e78f62" stroke-linecap="round" stroke-linejoin="round" stroke-width="2"/><path d="M1153.847-2192.948c-1,11.169-1.375,19.636,1.982,20.127" transform="translate(-309.43 -2651.104)" fill="none" stroke="#e78f62" stroke-linecap="round" stroke-linejoin="round" stroke-width="2"/><path d="M1154.23-2162.993s-6.383.63-2.485,3.13,12.25.049,22.666-6.9c2.008,3.441,3.5,5.08,1.668,6.264-1.782,1.153-12.726,9.2-26.677,5.669a1.178,1.178,0,0,1-.87-1.389,20.062,20.062,0,0,1,2.134-5.569" transform="translate(-309.276 -2651.977)" fill="none" stroke="#e78f62" stroke-linecap="round" stroke-linejoin="round" stroke-width="2"/><path d="M1151.857-2160.05c3.293-2.181,3.519-5.3,3.139-12.4" transform="translate(-309.388 -2651.788)" fill="none" stroke="#e78f62" stroke-linecap="round" stroke-linejoin="round" stroke-width="2"/><path d="M1177.685-2177.576c-1.4,3.9-2.582,8.764-3.265,11.017" transform="translate(-310.14 -2651.617)" fill="none" stroke="#e78f62" stroke-linecap="round" stroke-linejoin="round" stroke-width="2"/><path d="M1228.63-2143.62c-7.634-1.473-23.429-13.3-29.414-14.828-2.515-1.493-7.459-2.51-12.529-1.12s-7.978-.419-8.947-1.441" transform="translate(-310.25 -2652.169)" fill="none" stroke="#e78f62" stroke-linecap="round" stroke-linejoin="round" stroke-width="2"/><path d="M1199.956-2158.359c1.205,1.948,1,6.86.655,8.244" transform="translate(-310.991 -2652.258)" fill="none" stroke="#e78f62" stroke-linecap="round" stroke-linejoin="round" stroke-width="2"/><path d="M1121.463-2131.17c.017-1.22.039-2.516.07-3.879.211-9.334,5.969-12.728,9.271-13.75s6.946-3.07,17.7-5.618" transform="translate(-308.374 -2652.389)" fill="none" stroke="#e78f62" stroke-linecap="round" stroke-linejoin="round" stroke-width="2"/><path d="M1255.335-2140.33a70.727,70.727,0,0,0,11.906.525c2.2-.175,4.683.765,9.559,4.4" transform="translate(-312.838 -2652.859)" fill="none" stroke="#e78f62" stroke-linecap="round" stroke-linejoin="round" stroke-width="2"/><path d="M978.52-2417.919s20.412-19.1,20.872-23.551-5.519-30.506-7.052-35.871c-1.447-5.062-5.212-6.713-11.81-6.755a8.1,8.1,0,0,1-2.9-.536,4.152,4.152,0,0,1-.4-.172c-5.116,7.725-17.537,10.231-28.318,8.479-8.742,10.088-10.593,12.942-10.088,18.657s0,34.121-2.522,48.073c-.422,2.342-.9,4.461-1.376,6.375" transform="translate(-302.155 -2641.373)" fill="none" stroke="#e57b6a" stroke-linecap="round" stroke-linejoin="round" stroke-width="2"/><path d="M989.773-2464.079c0,11.805-9.35,20.848-11.65,26.368s1.676,22.583,8.124,43.843c.971,3.2-1.786,6.056-6.035,8.352" transform="translate(-303.573 -2642.064)" fill="none" stroke="#e57b6a" stroke-linecap="round" stroke-linejoin="round" stroke-width="2"/><path d="M932.577-2362.557c.8,8.69,1.866,14.309,1.866,19.1,0,7.734,1.781,43.312,3.17,45.89,6.148,2.38,10.51,0,10.51,0a308.489,308.489,0,0,0,.6-55.41,58.155,58.155,0,0,1,.059-8.839" transform="translate(-302.076 -2645.449)" fill="none" stroke="#e57b6a" stroke-linecap="round" stroke-linejoin="round" stroke-width="2"/><path d="M984.17-2385.427c6.087,26.725,8.27,37.63,8.58,44.8" transform="translate(-303.796 -2644.687)" fill="none" stroke="#e57b6a" stroke-linecap="round" stroke-linejoin="round" stroke-width="2"/><path d="M965.493-2364.905c4.38,21.1,10.193,28.108,12.819,35.626,3.047,8.724,15.294,37.115,17.371,45.425,2.215,1.385,11.3.278,13.241-2.077-3.739-16.2-3.75-38.9-17.526-61.068" transform="translate(-303.174 -2645.371)" fill="none" stroke="#e57b6a" stroke-linecap="round" stroke-linejoin="round" stroke-width="2"/><path d="M949.895-2520.635a2.632,2.632,0,0,0-.374,2.329c.7,2.417-.015,8.538.977,9.531,1.153,1.153,0,6.917,3.747,6.917s3.459,10.088,10.375,10.088,7.677.235,7.871-3.641,5.037-7.556,4.552-16.08-4.455-13.95-15.305-13.755C954.438-2525.114,951.216-2522.4,949.895-2520.635Z" transform="translate(-302.637 -2640.024)" fill="none" stroke="#e57b6a" stroke-linecap="round" stroke-linejoin="round" stroke-width="2"/><path d="M949.358-2516.186c-2.956,13.568-1.307,31.3,9.217,24.719" transform="translate(-302.592 -2640.327)" fill="none" stroke="#e57b6a" stroke-linecap="round" stroke-linejoin="round" stroke-width="2"/><path d="M964.024-2406.04l4.267-.82a4.3,4.3,0,0,1,4.91,2.908l9.453,29.418a4.3,4.3,0,0,1-2.781,5.413,4.372,4.372,0,0,1-.5.129l-16.585,3.19" transform="translate(-303.083 -2643.969)" fill="none" stroke="#e57b6a" stroke-linecap="round" stroke-linejoin="round" stroke-width="2"/><path d="M949.118-2363.3,937.139-2361a4.3,4.3,0,0,1-4.911-2.91l-9.453-29.419a4.3,4.3,0,0,1,2.781-5.412,4.481,4.481,0,0,1,.5-.129l22.014-4.233" transform="translate(-301.742 -2644.097)" fill="none" stroke="#e57b6a" stroke-linecap="round" stroke-linejoin="round" stroke-width="2"/><path d="M951.383-2376.612c-2.131,16.383-2.362,20.045,4.071,18.535s7.94-1.111,6.828-7.146a103.3,103.3,0,0,0-2.466-10.454" transform="translate(-302.658 -2644.98)" fill="none" stroke="#e57b6a" stroke-linecap="round" stroke-linejoin="round" stroke-width="2"/><path d="M944.967-2431.64c4.534,9.5,4.534,51.394,4.534,51.394s3.669,3.005,10.147,1.927,3.886-3.023,4.1-9.5.216-41.883-6.908-68" transform="translate(-302.489 -2642.339)" fill="none" stroke="#e57b6a" stroke-linecap="round" stroke-linejoin="round" stroke-width="2"/><path d="M985.7-2449.114a83.682,83.682,0,0,0,4.344,10.368" transform="translate(-303.848 -2642.563)" fill="none" stroke="#e57b6a" stroke-linecap="round" stroke-linejoin="round" stroke-width="2"/><path d="M987.4-2443.751c-1.457,5.184-9.876,12.55-9.876,12.55" transform="translate(-303.575 -2642.742)" fill="none" stroke="#e57b6a" stroke-linecap="round" stroke-linejoin="round" stroke-width="2"/><path d="M949.4-2476.431s2.545-3.754,9.756-5.89,10.684-3.205,14.157-5.208,4.4,2.621,4.4,2.621" transform="translate(-302.637 -2641.265)" fill="none" stroke="#e57b6a" stroke-linecap="round" stroke-linejoin="round" stroke-width="2"/><path d="M956.46-2489.437a32.989,32.989,0,0,1,0,8.121" transform="translate(-302.872 -2641.219)" fill="none" stroke="#e57b6a" stroke-linecap="round" stroke-linejoin="round" stroke-width="2"/><path d="M972.009-2491.079s.245,3.25,1.037,4.011" transform="translate(-303.391 -2641.164)" fill="none" stroke="#e57b6a" stroke-linecap="round" stroke-linejoin="round" stroke-width="2"/><path d="M997-2271.391c-4.773,0-6.657,1.633-6.406,5.025s2.262,5.9,4.649,5.652,4.648-5.778,11.305-9.8,9.169-.754,7.787-5.025-1.994-5.779-4.577-3.392-8.361,3.266-9.742,3.015c1.129,3.265-3.895,3.392-5.4,7.41" transform="translate(-304.01 -2648.2)" fill="none" stroke="#e57b6a" stroke-linecap="round" stroke-linejoin="round" stroke-width="2"/><path d="M1004.416-2268.513s-.3,5.191,1.242,4.613,9.548-4.406,10.8-4.613c-.483-2.33-1.3-5.315-1.3-5.315" transform="translate(-304.471 -2648.407)" fill="none" stroke="#e57b6a" stroke-linecap="round" stroke-linejoin="round" stroke-width="2"/><line x2="2.006" y2="4.506" transform="translate(695.505 -4928.625)" fill="none" stroke="#e57b6a" stroke-linecap="round" stroke-linejoin="round" stroke-width="2"/><path d="M948.61-2285.251c-7.8,1.464-14.141-1.952-13.981-6.178s2.784-5.3,1.972-5.629c-6.826-3.145-13.191-3.152-13.191,1.4s3.74,6.5,10.4,9.1-.276,6.6,9.066,8.041C949.69-2277.462,947.795-2282.324,948.61-2285.251Z" transform="translate(-301.77 -2647.559)" fill="none" stroke="#e57b6a" stroke-linecap="round" stroke-linejoin="round" stroke-width="2"/><path d="M947.826-2294.977s.6,7.161,0,9.7" transform="translate(-302.585 -2647.702)" fill="none" stroke="#e57b6a" stroke-linecap="round" stroke-linejoin="round" stroke-width="2"/><path d="M938.809-2294.977c-.206,2.792.21,8.852.21,8.852" transform="translate(-302.282 -2647.702)" fill="none" stroke="#e57b6a" stroke-linecap="round" stroke-linejoin="round" stroke-width="2"/><path d="M890.975-2616.955c14.065,9.762,9.146,19.142,10.133,33.708,2.141,31.6,9.1,50.578-12.736,64.04s-41.482,22.2-56.42,16.788a87,87,0,0,1-13.024-5.709" transform="translate(-298.287 -2636.967)" fill="none" stroke="#4f4f4f" stroke-linecap="round" stroke-miterlimit="10" stroke-width="2"/><path d="M815.621-2547.116c5.3-5.01,11.586-8.106,17.334-10.885,6.855-3.308,10.161-11.378,13.936-22.011" transform="translate(-298.176 -2638.198)" fill="none" stroke="#4f4f4f" stroke-linecap="round" stroke-miterlimit="10" stroke-width="2"/><path d="M857.875-2499.558l-.493,68.792c-.018.821-3.4.831-3.435.01l-1.591-67.273" transform="translate(-299.401 -2640.881)" fill="none" stroke="#4f4f4f" stroke-linecap="round" stroke-miterlimit="10" stroke-width="2"/><path d="M883.359-2511.517l23.705,50.44c.606,1.26,3.586-.11,3.073-1.412l-21.384-52.228" transform="translate(-300.435 -2640.375)" fill="none" stroke="#4f4f4f" stroke-linecap="round" stroke-miterlimit="10" stroke-width="2"/><path d="M818.33-2504.72" transform="translate(-298.267 -2640.709)" fill="none" stroke="#e4716d" stroke-linecap="round" stroke-linejoin="round" stroke-width="2"/><path d="M810.581-2475.8l-7.8,15.964c-.914,1.82-4.741.545-3.939-1.327l8.2-18.6" transform="translate(-297.613 -2641.541)" fill="none" stroke="#4f4f4f" stroke-linecap="round" stroke-miterlimit="10" stroke-width="2"/><line x1="1.75" y2="3.581" transform="translate(523.618 -5142.71)" fill="none" stroke="#4f4f4f" stroke-linecap="round" stroke-miterlimit="10" stroke-width="2"/><path d="M884.263-2600.844c9.942,7.731,13.752,14.118,11.266,25.441s-9.114,31.758-15.191,35.072-9.578,7.979-11.643,7.656-1.688-.921-1.688-.921,2.872-.451,3.023-1.209-1.285-10.278-6.125-9.75c1.512-1.965,7.634-5.14,14.436-8.162" transform="translate(-299.786 -2637.504)" fill="none" stroke="#e4716d" stroke-linecap="round" stroke-linejoin="round" stroke-width="2"/><path d="M872.169-2627.179c.518,6.373,9.39,12.9,4.991,18.026s11.6.769,13.994-5.187-1.38-9.692-2.141-18.274-13.5-21.587-27.786-12.443-15.349,16-11.337,23.575c2.935,1.1,6.745,1.579,9.174-.219s-1.1-2.168,2.992-2.863S866.153-2624.452,872.169-2627.179Z" transform="translate(-299.251 -2635.925)" fill="none" stroke="#e4716d" stroke-linecap="round" stroke-linejoin="round" stroke-width="2"/><path d="M855.021-2619.549c6.737,17.992,18.546,17.2,23.328,9.729" transform="translate(-299.49 -2636.88)" fill="none" stroke="#e4716d" stroke-linecap="round" stroke-linejoin="round" stroke-width="2"/><path d="M853.709-2597.283c-.414,2.483-7.116,2.4-6.373,12.082s5.958,11.259,6.373,19.944-2.072,18.951-8.525,19.2c-.331,3.476,7.035,8.523,7.035,8.523" transform="translate(-299.162 -2637.623)" fill="none" stroke="#e4716d" stroke-linecap="round" stroke-linejoin="round" stroke-width="2"/><path d="M884.672-2582.729c-3.641,6.455-6.786,31.033-6.786,31.033" transform="translate(-300.253 -2638.108)" fill="none" stroke="#e4716d" stroke-linecap="round" stroke-linejoin="round" stroke-width="2"/><path d="M862.76-2542.608c-6.918,4.467-17.417,11.755-20.266,11.9s-15.791,1.035-12.535,4.372,6.918,4.965,10.255,2.85,2.522-1.791,7.652-2.36,17.993-5.8,17.993-5.8" transform="translate(-298.637 -2639.446)" fill="none" stroke="#e4716d" stroke-linecap="round" stroke-linejoin="round" stroke-width="2"/><path d="M882.456-2540.234c1.662,9.007,2.276,9.418-1.76,11.49s-11.39,3.107-14.7,1.553a23.154,23.154,0,0,0-5.573-1.911" transform="translate(-299.67 -2639.525)" fill="none" stroke="#e4716d" stroke-linecap="round" stroke-linejoin="round" stroke-width="2"/><path d="M881.339-2529.713c3.58,7.74,2.545,12.918-12.888,19.545s-39.458,5.9-39.458,5.9c-10.923-.566-12.846-2.166-12.846-2.166" transform="translate(-298.194 -2639.875)" fill="none" stroke="#e4716d" stroke-linecap="round" stroke-linejoin="round" stroke-width="2"/><path d="M825.019-2509.056l-3.792-30.019a5.766,5.766,0,0,0-1.9-3.6L788.471-2569.9a.94.94,0,0,0-1.327.083.941.941,0,0,0-.224.767l4.854,31.265a5.366,5.366,0,0,0,1.738,3.185l29.807,26.446a1.028,1.028,0,0,0,1.451-.088A1.028,1.028,0,0,0,825.019-2509.056Z" transform="translate(-297.219 -2638.528)" fill="none" stroke="#e4716d" stroke-linecap="round" stroke-linejoin="round" stroke-width="2"/><line x1="6.729" y1="5.114" transform="translate(530.388 -5174.703)" fill="none" stroke="#e4716d" stroke-linecap="round" stroke-linejoin="round" stroke-width="2"/><path d="M842.433-2524.335l12.187,9.261a1.081,1.081,0,0,1,.2,1.516,1.077,1.077,0,0,1-.541.376l-25.726,7.779a3.613,3.613,0,0,1-3.448-.758l-.533-.471" transform="translate(-298.475 -2640.055)" fill="none" stroke="#e4716d" stroke-linecap="round" stroke-linejoin="round" stroke-width="2"/><path d="M852.519-2619.824c2.936,6.77,5.66,9.592,3.836,12.133s.117,3.822,2.585,3.6,7.412-1.363,7.412-1.363c-6.812,9.469-.822,15.981,6.542,16.186s12.824-10.994,10.115-17.768" transform="translate(-299.407 -2636.871)" fill="none" stroke="#e4716d" stroke-linecap="round" stroke-linejoin="round" stroke-width="2"/><path d="M856.311-2607.276c-4.841,6.293-5.044,8.506-5.034,12.2" transform="translate(-299.365 -2637.289)" fill="none" stroke="#e4716d" stroke-linecap="round" stroke-linejoin="round" stroke-width="2"/><path d="M853.523-2561.853c-2.9,4.749-8.543,14.012-8.572,12.825s-1.218-6.769-6.442-6.887c2.017-3.561,3.205-5.9,7.956-9.658" transform="translate(-298.94 -2638.68)" fill="none" stroke="#e4716d" stroke-linecap="round" stroke-linejoin="round" stroke-width="2"/><path d="M848.172-2579.9a65.673,65.673,0,0,1-3,15.106" transform="translate(-299.162 -2638.202)" fill="none" stroke="#e4716d" stroke-linecap="round" stroke-linejoin="round" stroke-width="2"/><path d="M821.67-2541.138a24.434,24.434,0,0,1,7.507-2.408c2.95-3.343,8.77-12.036,8.77-12.036" transform="translate(-298.378 -2639.013)" fill="none" stroke="#e4716d" stroke-linecap="round" stroke-linejoin="round" stroke-width="2"/><path d="M844.177-2549.951c-8.376,9.36-15.012,16.242-21.15,16.287" transform="translate(-298.423 -2639.201)" fill="none" stroke="#e4716d" stroke-linecap="round" stroke-linejoin="round" stroke-width="2"/><path d="M817.848-2505.324c3.633,6.384,10.358,23.562,6.086,26.763s-6.722,7.683-15.042-.426-8.537-9.6-14.3-9.818-12.911-8.748-9.817-11.949,3.2-6.936,4.268-13.979,3.657-8.706,12.445-11.236" transform="translate(-297.123 -2640)" fill="none" stroke="#e4716d" stroke-linecap="round" stroke-linejoin="round" stroke-width="2"/><path d="M793.962-2487.774c-10.978,12.142-23.427,33.123-23.427,33.123a2.044,2.044,0,0,1-.894.925c-1.575.777-4.351-.911-4.483-2.675a2.024,2.024,0,0,1,.163-.928l18.8-37.734" transform="translate(-296.494 -2641.031)" fill="none" stroke="#e4716d" stroke-linecap="round" stroke-linejoin="round" stroke-width="2"/><path d="M824.793-2476.94q1.863,4.54,4.182,9.354a166.775,166.775,0,0,0,10.757,18.948c1.343,2.364-2.422,4.7-4.447,2.64a130.1,130.1,0,0,1-16.033-17.251,129.552,129.552,0,0,1-9.5-14.119" transform="translate(-297.981 -2641.621)" fill="none" stroke="#e4716d" stroke-linecap="round" stroke-linejoin="round" stroke-width="2"/><path d="M770.966-2454.78c1.629,3.258.318,6.665-6.888,12.037s-14.27,6.512-9.817-1.787,8.668-12.413,11.206-12.65" transform="translate(-296.084 -2642.294)" fill="none" stroke="#e3696f" stroke-linecap="round" stroke-linejoin="round" stroke-width="2"/><path d="M840.366-2447.646c4.129,2.862,7.38,3.74,6.677,6.024s-8.611,10.281-16.342,12.565,10.718-11.116,5.954-15.42" transform="translate(-298.615 -2642.612)" fill="none" stroke="#e4716d" stroke-linecap="round" stroke-linejoin="round" stroke-width="2"/><g transform="translate(410.02 -5329.62)"><path d="M707.651-2671.124c5.6-.712,6.158,4.1,5.093,5.956s-2.522,1.737.278,3.432,12.715,3.242,18.185-7.547c7.149-14.1,3.1-22.343-6.88-25.09-9.026-2.483-18.229.167-19.6,8.652s3.852,6.6,3.39,10.6Z" transform="translate(-704.491 2695.264)" fill="none" stroke="#e3696f" stroke-linecap="round" stroke-linejoin="round" stroke-width="2"/><path d="M718.291-2660.532a10.861,10.861,0,0,1-5.269-1.2c-2.8-1.694-1.343-1.576-.278-3.431a4.125,4.125,0,0,0-4.018-6.027,8.555,8.555,0,0,0-1.075.072l.463-4c.462-4-4.767-2.114-3.39-10.6,1.048-6.466,6.641-9.544,13.238-9.544a24.157,24.157,0,0,1,6.366.891c9.981,2.746,14.029,10.993,6.88,25.091C727.711-2662.389,722.4-2660.532,718.291-2660.532Z" transform="translate(-704.491 2695.264)" fill="none" stroke="#e3696f" stroke-linecap="round" stroke-linejoin="round" stroke-width="2"/></g><path d="M691.036-2586.6c.558-1.866,1.117-4.105,1.66-6.8,3.3-16.393,4.349-21.682,4.349-21.682" transform="translate(-294.022 -2637.029)" fill="none" stroke="#e3696f" stroke-linecap="round" stroke-linejoin="round" stroke-width="2"/><path d="M736.719-2650.9c4.093,12.456-5.581,19.707-6.991,37.78s6.191,31.834.79,35.289-28.444,16.367-39.355,4.565c-6.137-6.638-6.612-4.267-4.915-5.584" transform="translate(-293.834 -2635.835)" fill="none" stroke="#e3696f" stroke-linecap="round" stroke-linejoin="round" stroke-width="2"/><path d="M705.55-2678.815c-1.368,15.706-1.906,21.077,8.823,18.209" transform="translate(-294.482 -2634.904)" fill="none" stroke="#e3696f" stroke-linecap="round" stroke-linejoin="round" stroke-width="2"/><path d="M726.174-2659.371c11.758-4.594,33.215,21.823,31.188,25.445s-9.956,21.659-25.818,34.558" transform="translate(-295.194 -2635.534)" fill="none" stroke="#e3696f" stroke-linecap="round" stroke-linejoin="round" stroke-width="2"/><path d="M731.257-2612.532c8.861-15.449,7.92-17.159,13.692-20.694" transform="translate(-295.364 -2636.424)" fill="none" stroke="#e3696f" stroke-linecap="round" stroke-linejoin="round" stroke-width="2"/><path d="M738.7-2638.731a6.937,6.937,0,0,0,3.873,7.2" transform="translate(-295.609 -2636.24)" fill="none" stroke="#e3696f" stroke-linecap="round" stroke-linejoin="round" stroke-width="2"/><path d="M707.691-2631.332c-6.567,8.966-15.172,22.331-22.715,30.071" transform="translate(-293.82 -2636.488)" fill="none" stroke="#e3696f" stroke-linecap="round" stroke-linejoin="round" stroke-width="2"/><path d="M688.372-2606.394c-2.658,3.289,2.288,16.337,2.223,20.739s-4.073,7.138-11.619,6.1c0,0-2.7-11.4-4.742-20.322s7.107-22.342,12.313-33.127,11.959-13.307,23.119-20.743c5.466,4.908,11.728,3.675,14.2.711a5.783,5.783,0,0,0,.565-6.316" transform="translate(-293.452 -2635.553)" fill="none" stroke="#e3696f" stroke-linecap="round" stroke-linejoin="round" stroke-width="2"/><path d="M716.032-2496.067c1.139,8.523,2.046,16.287,1.9,18.436-.361,5.352,3.266,8.473,10.89,7.136s2.194-12.935,0-33c-2.594-23.719,8.44-49.786.915-70.677" transform="translate(-294.856 -2638.393)" fill="none" stroke="#e3696f" stroke-linecap="round" stroke-linejoin="round" stroke-width="2"/><path d="M690.284-2550.278a85.751,85.751,0,0,1,1.931-19.4" transform="translate(-293.997 -2638.543)" fill="none" stroke="#e3696f" stroke-linecap="round" stroke-linejoin="round" stroke-width="2"/><path d="M712.259-2481.08c.7,17.023,1.2,24.835-2.914,27.021a6.014,6.014,0,0,1-1.459.552" transform="translate(-294.584 -2641.497)" fill="none" stroke="#e3696f" stroke-linecap="round" stroke-linejoin="round" stroke-width="2"/><path d="M711.851-2456.619c1.667,5.668,1.539,10.115-3.987,9.592" transform="translate(-294.584 -2642.313)" fill="none" stroke="#e3696f" stroke-linecap="round" stroke-linejoin="round" stroke-width="2"/><path d="M732.208-2469.086c.811,4.3.279,6.9-4.531,6.06s-5.336-1.621-5.02-3.658" transform="translate(-295.074 -2641.897)" fill="none" stroke="#e3696f" stroke-linecap="round" stroke-linejoin="round" stroke-width="2"/><path d="M720.865-2467.789c-4.273.7-6.529.437-8.027-1.964" transform="translate(-294.749 -2641.875)" fill="none" stroke="#e3696f" stroke-linecap="round" stroke-linejoin="round" stroke-width="2"/><path d="M717.767-2476.6a10.076,10.076,0,0,0-5.211-.947" transform="translate(-294.74 -2641.614)" fill="none" stroke="#e3696f" stroke-linecap="round" stroke-linejoin="round" stroke-width="2"/><path d="M712.622-2660.747c1.6,2.972.361,8.052.361,8.052" transform="translate(-294.742 -2635.507)" fill="none" stroke="#e3696f" stroke-linecap="round" stroke-linejoin="round" stroke-width="2"/><path d="M689.663-2579.339c4.9,2.093,8.323.711,7.972,2.676s-5.905,1.081-7.561.47-4.729.286-6.134-.47" transform="translate(-293.786 -2638.221)" fill="none" stroke="#e3696f" stroke-linecap="round" stroke-linejoin="round" stroke-width="2"/><path d="M726.863-2661.979c-1.869,2.4-.475,7.614-.475,7.614" transform="translate(-295.185 -2635.465)" fill="none" stroke="#e3696f" stroke-linecap="round" stroke-linejoin="round" stroke-width="2"/><path d="M655.124-2510.6c-4.185.475-6.587.869-9.049,3.25-4.683,4.527-19.512,24.663-17.17,31.219s5.307,16.234,15.611,16.545q.732-1.088,1.414-2.168" transform="translate(-291.943 -2640.513)" fill="none" stroke="#e26371" stroke-linecap="round" stroke-linejoin="round" stroke-width="2"/><path d="M656.059-2520.854c-5.928-.683-6.21-7.665-4.381-25" transform="translate(-292.677 -2639.337)" fill="none" stroke="#e26371" stroke-linecap="round" stroke-linejoin="round" stroke-width="2"/><path d="M637.673-2499.227c-8.493-13.213-11.747-15.382-21.912-8.063s-36.734,21.01-38.224,21.687a20.189,20.189,0,0,0,2.712,11.386c14.638-4.336,33.442-9.87,38.46-12.175" transform="translate(-290.237 -2640.485)" fill="none" stroke="#e26371" stroke-linecap="round" stroke-linejoin="round" stroke-width="2"/><path d="M561.651-2482.47a20.866,20.866,0,0,0-3.135-7.577c-2.687-4.233-7.325.875-6.047,6.452s4.435,4.57,3.693,12.835,4.3,10.015,6.115,10.082,3.292-3.092,7.625-7.267c-6.485-.984-5.3-9.935-2.354-13.864-3.725.094-6.616-.308-8.429-2.325" transform="translate(-289.395 -2641.146)" fill="none" stroke="#e26371" stroke-linecap="round" stroke-linejoin="round" stroke-width="2"/><path d="M555.207-2491.406c-3.061.524-3.719,1.507-4.28,4.085s.188,6.984,2.625,10.734-.63,2.624-.573,8.531,3.291,9.563,6.855,9.563a4.282,4.282,0,0,0,4.286-3.167" transform="translate(-289.345 -2641.153)" fill="none" stroke="#e26371" stroke-linecap="round" stroke-linejoin="round" stroke-width="2"/><line x1="9.678" y2="3.095" transform="translate(277.591 -5125.194)" fill="none" stroke="#e26371" stroke-linecap="round" stroke-linejoin="round" stroke-width="2"/><line x1="10.095" y2="5.863" transform="translate(279.657 -5115.137)" fill="none" stroke="#e26371" stroke-linecap="round" stroke-linejoin="round" stroke-width="2"/><path d="M628.363-2477.671c-10.575,16.608-12.718,22.5-8.254,25.443s12.561,1.815,12.561,1.815a29.159,29.159,0,0,0,11.529-5.533" transform="translate(-291.584 -2641.611)" fill="none" stroke="#e26371" stroke-linecap="round" stroke-linejoin="round" stroke-width="2"/><path d="M620.548-2495.69c-1.194,10.341-.1,14.274,7.026,18.781" transform="translate(-291.658 -2641.01)" fill="none" stroke="#e26371" stroke-linecap="round" stroke-linejoin="round" stroke-width="2"/><path d="M623.291-2469.885c-7.021-13.346-10.823-12.839-10.823-12.839" transform="translate(-291.403 -2641.442)" fill="none" stroke="#e26371" stroke-linecap="round" stroke-linejoin="round" stroke-width="2"/><path d="M597.425-2478.067c-2.8,13.92.355,21.856,13.014,38.633,11.56,15.321,13.527,16.724,18.393,18.825a9.436,9.436,0,0,0,8.786-.672" transform="translate(-290.87 -2641.598)" fill="none" stroke="#e26371" stroke-linecap="round" stroke-linejoin="round" stroke-width="2"/><path d="M662.985-2534.971c.824-3.757.158-4.268-2.271-6.173-.9-.708-2.126.263-2.354,1.193-.839,3.422-1.132,3.646-3.319,3.343s2.228-9.762-1.648-9.716-8.859-8.732,2.636-12.212c10.06-3.044,20.345-1.081,23.578,5.625a9.458,9.458,0,0,1,.572,8" transform="translate(-292.618 -2638.868)" fill="none" stroke="#e26371" stroke-linecap="round" stroke-linejoin="round" stroke-width="2"/><path d="M638.964-2459.314a11.521,11.521,0,0,1-2.6,3.982" transform="translate(-292.2 -2642.223)" fill="none" stroke="#e26371" stroke-linecap="round" stroke-linejoin="round" stroke-width="2"/><path d="M633.183-2447.953l11.031,7.051a1.3,1.3,0,0,1,.476,1.782,1.3,1.3,0,0,1-.476.476l-3.754,2.168a5.214,5.214,0,0,1-5.22,0l-30.256-17.486a3.043,3.043,0,0,1-1.112-4.157,3.04,3.04,0,0,1,1.112-1.111l.713-.413a6.087,6.087,0,0,1,6.09,0l2.987,1.725" transform="translate(-291.103 -2642.185)" fill="none" stroke="#4f4f4f" stroke-linecap="round" stroke-miterlimit="10" stroke-width="2"/><path d="M685.6-2432.6l15.916-9.2a8.7,8.7,0,0,0,4.344-7.526v-4.594c0-33.646,16.631-48.886,16.631-96.128v-2.08a4.347,4.347,0,0,0-4.348-4.346,4.349,4.349,0,0,0-2.172.583l-47.351,27.367a8.689,8.689,0,0,0-4.343,7.526v4.594c0,47.243-16.632,62.484-16.632,96.126v2.082a4.346,4.346,0,0,0,4.348,4.345,4.346,4.346,0,0,0,2.174-.583l23-13.293" transform="translate(-292.576 -2638.983)" fill="none" stroke="#4f4f4f" stroke-linecap="round" stroke-miterlimit="10" stroke-width="2"/><path d="M639.587-2431.327a97.684,97.684,0,0,0-.551,10.419v2.082a4.3,4.3,0,0,0,2.1,3.719" transform="translate(-292.289 -2643.156)" fill="none" stroke="#4f4f4f" stroke-linecap="round" stroke-miterlimit="10" stroke-width="2"/><path d="M711.815-2560.863a4.307,4.307,0,0,0-4.347,0L660.116-2533.5a8.694,8.694,0,0,0-4.342,7.526v4.594c0,36.123-9.073,53.3-13.649,74.533" transform="translate(-292.392 -2638.818)" fill="none" stroke="#4f4f4f" stroke-linecap="round" stroke-miterlimit="10" stroke-width="2"/><line x1="8.866" y1="5.17" transform="translate(419.372 -5199.708)" fill="none" stroke="#4f4f4f" stroke-linecap="round" stroke-miterlimit="10" stroke-width="2"/><line x1="8.378" y1="4.845" transform="translate(348.847 -5058.263)" fill="none" stroke="#4f4f4f" stroke-linecap="round" stroke-miterlimit="10" stroke-width="2"/><path d="M675.6-2413.962l-20.66,11.937a8.693,8.693,0,0,1-8.7,0L604.6-2426.087a2.612,2.612,0,0,0-3.566.964,2.612,2.612,0,0,0-.347,1.294v.578a7.824,7.824,0,0,0,3.908,6.774l41.641,24.065a8.692,8.692,0,0,0,8.7,0l39.7-22.942,6.4-3.687a6.521,6.521,0,0,0,3.257-5.645v-7.506" transform="translate(-291.01 -2643.127)" fill="none" stroke="#4f4f4f" stroke-linecap="round" stroke-miterlimit="10" stroke-width="2"/><path d="M701.883-2437.272l3.758,2.172a3.042,3.042,0,0,1,1.114,4.156,3.049,3.049,0,0,1-1.114,1.113l-18.856,10.894" transform="translate(-293.881 -2642.958)" fill="none" stroke="#4f4f4f" stroke-linecap="round" stroke-miterlimit="10" stroke-width="2"/><path d="M609.131-2447.766a4.315,4.315,0,0,0-.461,1.963v13.781a13.042,13.042,0,0,0,6.513,11.289l24.636,14.3a4.346,4.346,0,0,0,5.937-1.589,4.343,4.343,0,0,0,.583-2.173v-13.781a13.038,13.038,0,0,0-4.119-9.511" transform="translate(-291.276 -2642.608)" fill="none" stroke="#4f4f4f" stroke-linecap="round" stroke-miterlimit="10" stroke-width="2"/><path d="M702.4-2437.551a4.335,4.335,0,0,0,5.176-3.288,4.329,4.329,0,0,0,.1-1.065v-3.721" transform="translate(-294.402 -2642.679)" fill="none" stroke="#4f4f4f" stroke-linecap="round" stroke-miterlimit="10" stroke-width="2"/><path d="M603.465-2452.9a3.015,3.015,0,0,0,1.52,2.671l30.257,17.487a5.211,5.211,0,0,0,5.219,0l3.754-2.168a1.3,1.3,0,0,0,.652-1.13v-3.476" transform="translate(-291.103 -2642.437)" fill="none" stroke="#4f4f4f" stroke-linecap="round" stroke-miterlimit="10" stroke-width="2"/><line x1="0.024" y2="3.825" transform="translate(312.362 -5099.167)" fill="none" stroke="#4f4f4f" stroke-linecap="round" stroke-miterlimit="10" stroke-width="2"/><path d="M686.182-2457.947a8.722,8.722,0,0,0-4.053,5.31,105.208,105.208,0,0,0-3.989,28.181v17.743a2.563,2.563,0,0,1-1.244,2.2h0l5.88-3.4,2.3-1.345a2.8,2.8,0,0,0,1.385-2.414v-12.79a107.959,107.959,0,0,1,4.557-30.264,3.04,3.04,0,0,0-2.122-3.74,3.038,3.038,0,0,0-2.333.3Z" transform="translate(-293.551 -2642.247)" fill="none" stroke="#4f4f4f" stroke-linecap="round" stroke-miterlimit="10" stroke-width="2"/><path d="M660.258-2384.058v7.986c0,1.327-1.861,2.4-4.159,2.4s-4.159-1.077-4.159-2.4v-7.986" transform="translate(-292.719 -2644.732)" fill="none" stroke="#4f4f4f" stroke-linecap="round" stroke-miterlimit="10" stroke-width="2"/><ellipse cx="4.159" cy="2.403" rx="4.159" ry="2.403" transform="translate(359.224 -5031.194)" fill="none" stroke="#4f4f4f" stroke-linecap="round" stroke-miterlimit="10" stroke-width="2"/><path d="M656.193-2384.087c-.84,0-1.52-.385-1.52-.859v-5.618c0-.476.681-.86,1.52-.86s1.521.385,1.521.86v5.618C657.712-2384.474,657.032-2384.087,656.193-2384.087Z" transform="translate(-292.81 -2644.487)" fill="none" stroke="#4f4f4f" stroke-linecap="round" stroke-miterlimit="10" stroke-width="2"/><line x1="1.736" y2="4.521" transform="translate(361.861 -5035.357)" fill="none" stroke="#4f4f4f" stroke-linecap="round" stroke-miterlimit="10" stroke-width="2"/><path d="M660.822-2379.526l1.816-11.6v-4.346l-2.31,14.763c-.187,1.186,1.543,2.183,3.6,2.076l37.361-1.949c2.734-.142,3.377,2.162.7,2.5l-36.6,4.683c-2.013.257-3.113,1.509-2.288,2.6l14.979,19.925c1.1,1.458-2.492,2.509-3.9,1.143L654.939-2368.4a4.906,4.906,0,0,0-5.012-.467l-28.1,14.263c-2.058,1.044-4.918-.608-3.11-1.795l24.706-16.226c1.358-.892.97-2.283-.811-2.894l-32.347-11.109c-2.366-.811-.548-2.883,1.983-2.252l34.51,8.647a5.059,5.059,0,0,0,3.767-.477" transform="translate(-291.293 -2644.351)" fill="none" stroke="#4f4f4f" stroke-linecap="round" stroke-miterlimit="10" stroke-width="2"/><path d="M666.457-2368.159a5.016,5.016,0,0,1,.843-.181l36.6-4.684c1-.129,1.542-.533,1.677-.979" transform="translate(-293.203 -2645.068)" fill="none" stroke="#4f4f4f" stroke-linecap="round" stroke-miterlimit="10" stroke-width="2"/><path d="M618.463-2350.311c-.2,1.016,2,1.947,3.669,1.1l28.1-14.263a4.908,4.908,0,0,1,5.012.467l19.241,18.676c1.213,1.177,4.04.563,4.1-.562" transform="translate(-291.602 -2645.403)" fill="none" stroke="#4f4f4f" stroke-linecap="round" stroke-miterlimit="10" stroke-width="2"/><path d="M609.18-2383.113c-.106.45.192.932,1.082,1.237l31.427,10.793" transform="translate(-291.292 -2644.764)" fill="none" stroke="#4f4f4f" stroke-linecap="round" stroke-miterlimit="10" stroke-width="2"/><line y2="4.37" transform="translate(386.991 -4994.669)" fill="none" stroke="#4f4f4f" stroke-linecap="round" stroke-miterlimit="10" stroke-width="2"/><line y2="4.292" transform="translate(412.405 -5023.462)" fill="none" stroke="#4f4f4f" stroke-linecap="round" stroke-miterlimit="10" stroke-width="2"/><line y2="4.309" transform="translate(326.849 -4999.92)" fill="none" stroke="#4f4f4f" stroke-linecap="round" stroke-miterlimit="10" stroke-width="2"/><line y1="4.067" transform="translate(317.883 -5031.909)" fill="none" stroke="#4f4f4f" stroke-linecap="round" stroke-miterlimit="10" stroke-width="2"/><path d="M1052-2266.4a1.41,1.41,0,0,1-1.132.927c-2.455.311-6.665-2.507-6.13-.631.617,2.14.855,6.693-1.891,9.638s-2.24,7.469-3.262,7.476-1.645-.733-.309-4.706-2.821-5.5-5.511-3.05-7.367,10.3-11.086,9.316-4.158-1.531-4.033-4.292-1.69-15.166,3.293-20.732,9.742-6.364,15.312-5.206,11.89,5.141,13.5,8.033C1052.1-2267.215,1052.282-2267.181,1052-2266.4Z" transform="translate(-304.938 -2648.265)" fill="none" stroke="#e68268" stroke-linecap="round" stroke-linejoin="round" stroke-width="2"/><path d="M1030.072-2245.295c2.909,2.984,7.622,7.932,10.188,3.422,2.551-4.489,8.885-11.769,8.25-18.064s-2.145-6.255-2.145-6.255" transform="translate(-305.327 -2648.662)" fill="none" stroke="#e68268" stroke-linecap="round" stroke-linejoin="round" stroke-width="2"/><path d="M1102.28-2208.527l-19.406-20.611a5.162,5.162,0,0,1-.851-5.865l13.844-27.452a2.582,2.582,0,0,1,3.467-1.142,2.608,2.608,0,0,1,.717.535l20.287,21.548a5.161,5.161,0,0,1,.754,6.047l-14.682,26.42a2.582,2.582,0,0,1-3.511,1A2.544,2.544,0,0,1,1102.28-2208.527Z" transform="translate(-307.041 -2648.739)" fill="none" stroke="#e68268" stroke-linecap="round" stroke-linejoin="round" stroke-width="2"/><path d="M1017.031-2249.13c-.709.18-1.54.419-2.5.732-3.839,1.242-4.961,4.932,2.129,6.234s12.944,4.9,18.645,7.606,6.2,3.351,7.4,3.873,1.561,4.036,4.19,7.942c1.665,2.477,6.743,11.2,8.594,16.994" transform="translate(-304.707 -2649.231)" fill="none" stroke="#e68268" stroke-linecap="round" stroke-linejoin="round" stroke-width="2"/><path d="M1018.314-2244.945a7.17,7.17,0,0,1-1.476,2.919" transform="translate(-304.886 -2649.371)" fill="none" stroke="#e68268" stroke-linecap="round" stroke-linejoin="round" stroke-width="2"/><path d="M1043.615-2229.517c-.6-.9-.888-.213-1.945.009s-3.685.615-7.872-1.576-7.848-2.89-13.677-1.655-9.9-1.656-10.68-4.092-.577-8.074.217-9.485,3.324-3.388,7.187-3.489" transform="translate(-304.623 -2649.209)" fill="none" stroke="#e68268" stroke-linecap="round" stroke-linejoin="round" stroke-width="2"/><path d="M1045.527-2219.606c2.823,2.612,3.188,3.14,4.188,4.9s1.513,2.575,1.518,4.024" transform="translate(-305.842 -2650.215)" fill="none" stroke="#e68268" stroke-linecap="round" stroke-linejoin="round" stroke-width="2"/><path d="M1009.153-2244.928c-3.133,5.652-4.9,7.858-2.581,14.37a19.234,19.234,0,0,0,7.726,9.583" transform="translate(-304.508 -2649.371)" fill="none" stroke="#e68268" stroke-linecap="round" stroke-linejoin="round" stroke-width="2"/><path d="M1076.042-2199.527c4.93-3.683,7.222-4.845,3.371-8.585s-7.6-1.233-10.276.356-4.758,2.94-3.344,6.142" transform="translate(-306.503 -2650.534)" fill="none" stroke="#e68268" stroke-linecap="round" stroke-linejoin="round" stroke-width="2"/><path d="M1034.449-2240.262a15.7,15.7,0,0,0-.676,4.883" transform="translate(-305.45 -2649.527)" fill="none" stroke="#e68268" stroke-linecap="round" stroke-linejoin="round" stroke-width="2"/><path d="M1040.863-2231.845c-3.488-4.943-5.3-7.9-5.3-7.9" transform="translate(-305.51 -2649.544)" fill="none" stroke="#e68268" stroke-linecap="round" stroke-linejoin="round" stroke-width="2"/><path d="M1026.439-2209.806c-.546,3.044,3.406,6.439,9.516,11.627,17.539,14.89,20.484,14.836,26.654,14.552s10.113-1.184,10.971-7.8l.858-6.618s1.941-5.314-3.649-6.447-6.035,2.078-6.464,3.382c-.624.546-.806,2.291-1.408,2.709s-.886.17-1.786-.32c.038-1.31-1.793-1.375-1.793-1.375a11.711,11.711,0,0,0-2.1-3.341c-1.626-1.937-1.8-.586-3.853-2.732.261-2.19-.942-3.2-4.594-5.564" transform="translate(-305.204 -2650.478)" fill="none" stroke="#e68268" stroke-linecap="round" stroke-linejoin="round" stroke-width="2"/><path d="M1054.6-2210.138c6.239-2.572,8.676-7.736,4.366-9.24s-8.538-2.011-9.187.181" transform="translate(-305.984 -2650.18)" fill="none" stroke="#e68268" stroke-linecap="round" stroke-linejoin="round" stroke-width="2"/><path d="M1051.615-2220.659a17.367,17.367,0,0,1-4.126-2.162" transform="translate(-305.908 -2650.108)" fill="none" stroke="#e68268" stroke-linecap="round" stroke-linejoin="round" stroke-width="2"/><path d="M1074.918-2196.9l25.176-6.01a2.582,2.582,0,0,0,1.911-3.111,2.586,2.586,0,0,0-.631-1.168l-19.289-20.487a5.164,5.164,0,0,0-4.773-1.522l-29.823,5.973" transform="translate(-305.908 -2649.892)" fill="none" stroke="#e68268" stroke-linecap="round" stroke-linejoin="round" stroke-width="2"/><path d="M1004.708-2235.211c-6.958,13.709-13.445,32.908-13,37.576" transform="translate(-304.047 -2649.695)" fill="none" stroke="#e68268" stroke-linecap="round" stroke-linejoin="round" stroke-width="2"/><path d="M1035.977-2197.712c-4.92,14.89,3.595,23.288-8.93,31.412" transform="translate(-305.226 -2650.945)" fill="none" stroke="#e68268" stroke-linecap="round" stroke-linejoin="round" stroke-width="2"/><line x2="8.139" y2="8.644" transform="translate(750.291 -4861.115)" fill="none" stroke="#e68268" stroke-linecap="round" stroke-linejoin="round" stroke-width="2"/><path d="M1041.044-2179.358c2.479-3.257,10.02-6.675,10.02-6.675" transform="translate(-305.693 -2651.335)" fill="none" stroke="#e68268" stroke-linecap="round" stroke-linejoin="round" stroke-width="2"/><path d="M659.55-2642.95a7.111,7.111,0,0,1,4.761.712h0c1.781,1.028,1.973,2.581.433,3.472L412.985-2494.04a6.675,6.675,0,0,1-6.011-.25h0c-1.78-1.027-1.973-2.581-.432-3.47l5.855-3.38" transform="translate(-284.502 -2636.095)" fill="none" stroke="#4f4f4f" stroke-linecap="round" stroke-miterlimit="10" stroke-width="2"/><path d="M664.744-2847.545,412.985-2702.819a6.678,6.678,0,0,1-6.011-.25h0c-1.78-1.027-1.973-2.581-.432-3.47l5.855-3.379,245.9-141.348a4.337,4.337,0,0,1,1.251-.463,7.116,7.116,0,0,1,4.762.712h0C666.092-2849.988,666.284-2848.437,664.744-2847.545Z" transform="translate(-284.502 -2629.134)" fill="none" stroke="#4f4f4f" stroke-linecap="round" stroke-miterlimit="10" stroke-width="2"/><path d="M659.788-2844.295v197.365L412.634-2504.86v-197.432" transform="translate(-284.74 -2629.386)" fill="none" stroke="#4f4f4f" stroke-linecap="round" stroke-miterlimit="10" stroke-width="2"/><path d="M447.568-2566.539l-15.318,8.844c-1.541.89-2.8-.064-2.8-2.12v-36.6a6.74,6.74,0,0,1,2.8-5.355l15.318-8.843c1.541-.891,2.8.064,2.8,2.119v36.6A6.736,6.736,0,0,1,447.568-2566.539Z" transform="translate(-285.3 -2637.167)" fill="#4f4f4f"/><path d="M474.378-2583.633l-12.137,7.007c-2.418,1.4-4.393-.1-4.393-3.321v-79.875c0-3.223,1.976-7,4.393-8.4l12.137-7.007c2.416-1.4,4.393.1,4.393,3.321v79.875C478.774-2588.807,476.8-2585.029,474.378-2583.633Z" transform="translate(-286.247 -2635.006)" fill="#4f4f4f"/><path d="M502.9-2599.907l-12.368,7.141c-2.353,1.359-4.278-.1-4.278-3.234v-74.554c0-3.138,1.926-6.815,4.278-8.173l12.368-7.142c2.351-1.359,4.276.1,4.276,3.233v74.555C507.179-2604.945,505.256-2601.267,502.9-2599.907Z" transform="translate(-287.194 -2634.652)" fill="#4f4f4f"/><path d="M530.695-2617.029,519.55-2610.6c-2.689,1.553-4.89-.11-4.89-3.693v-104.386c0-3.585,2.2-7.789,4.89-9.342l11.145-6.435c2.689-1.552,4.891.111,4.891,3.693v104.385C535.586-2622.787,533.386-2618.583,530.695-2617.029Z" transform="translate(-288.142 -2633.03)" fill="#4f4f4f"/><path d="M560.882-2632.3l-14.711,8.493c-1.711.991-3.106-.07-3.106-2.349v-45.871a7.461,7.461,0,0,1,3.106-5.935l14.711-8.494c1.711-.991,3.107.07,3.107,2.348v45.872A7.468,7.468,0,0,1,560.882-2632.3Z" transform="translate(-289.089 -2634.637)" fill="#4f4f4f"/><path d="M587.873-2649.377l-11.88,6.858c-2.487,1.441-4.522-.1-4.522-3.423v-85.948c0-3.316,2.035-7.207,4.522-8.64l11.88-6.859c2.486-1.436,4.522.1,4.522,3.422v85.949C592.4-2654.7,590.359-2650.814,587.873-2649.377Z" transform="translate(-290.036 -2632.6)" fill="#4f4f4f"/><path d="M616.673-2665.351,604-2658.037c-2.271,1.31-4.128-.09-4.128-3.12v-67.872c0-3.026,1.858-6.575,4.128-7.887l12.668-7.314c2.271-1.311,4.128.09,4.128,3.12v67.87C620.8-2670.211,618.943-2666.662,616.673-2665.351Z" transform="translate(-290.983 -2632.707)" fill="#4f4f4f"/><path d="M645.846-2681.093l-14.2,8.2c-1.848,1.067-3.361-.076-3.361-2.539V-2713.1a8.079,8.079,0,0,1,3.361-6.422l14.2-8.2c1.848-1.067,3.36.075,3.36,2.54v37.667A8.08,8.08,0,0,1,645.846-2681.093Z" transform="translate(-291.93 -2633.26)" fill="#4f4f4f"/><path d="M502.886-2580.693l-71.038,41.012c-1.327.767-2.4-.047-2.4-1.816h0a5.753,5.753,0,0,1,2.4-4.588l71.038-41.012c1.325-.767,2.4.046,2.4,1.814h0A5.757,5.757,0,0,1,502.886-2580.693Z" transform="translate(-285.3 -2637.953)" fill="#4f4f4f"/><path d="M588.1-2629.893l-71.037,41.012c-1.326.767-2.4-.046-2.4-1.814h0a5.757,5.757,0,0,1,2.4-4.589L588.1-2636.3c1.327-.767,2.4.046,2.4,1.814h0A5.753,5.753,0,0,1,588.1-2629.893Z" transform="translate(-288.142 -2636.312)" fill="#4f4f4f"/><path d="M645.857-2662.691l-43.579,25.159c-1.326.767-2.4-.047-2.4-1.815h0a5.752,5.752,0,0,1,2.4-4.588l43.579-25.16c1.327-.766,2.4.047,2.4,1.815h0A5.754,5.754,0,0,1,645.857-2662.691Z" transform="translate(-290.983 -2635.219)" fill="#4f4f4f"/><path d="M555.583-2536.246v-34.574l-4.8,2.761v31.814" transform="translate(-289.346 -2638.505)" fill="none" stroke="#4f4f4f" stroke-linecap="round" stroke-miterlimit="10" stroke-width="2"/><line x2="15.127" y2="0.284" transform="translate(271.026 -5174.451)" fill="none" stroke="#4f4f4f" stroke-linecap="round" stroke-miterlimit="10" stroke-width="2"/><line x1="6.264" y1="23.365" transform="translate(265.232 -5169.376)" fill="none" stroke="#4f4f4f" stroke-linecap="round" stroke-miterlimit="10" stroke-width="2"/><line x1="22.133" y2="6.162" transform="translate(234.668 -5172.627)" fill="none" stroke="#4f4f4f" stroke-linecap="round" stroke-miterlimit="10" stroke-width="2"/><path d="M555.385-2537.759a9.077,9.077,0,0,1,2.7.986c2.816,1.627,2.831,4.254.032,5.87a11.241,11.241,0,0,1-10.168-.018c-2.816-1.626-2.831-4.255-.032-5.871a8.93,8.93,0,0,1,2.7-.978" transform="translate(-289.181 -2639.607)" fill="none" stroke="#4f4f4f" stroke-linecap="round" stroke-miterlimit="10" stroke-width="2"/><path d="M550.782-2535.021a1.23,1.23,0,0,0,.706.939,3.756,3.756,0,0,0,3.4.006,1.184,1.184,0,0,0,.7-.978" transform="translate(-289.346 -2639.698)" fill="none" stroke="#4f4f4f" stroke-linecap="round" stroke-miterlimit="10" stroke-width="2"/><ellipse cx="2.128" cy="3.686" rx="2.128" ry="3.686" transform="translate(268.176 -5143.148) rotate(-89.689)" fill="none" stroke="#4f4f4f" stroke-linecap="round" stroke-miterlimit="10" stroke-width="2"/><ellipse cx="2.128" cy="3.686" rx="2.128" ry="3.686" transform="translate(283.051 -5171.824) rotate(-89.689)" fill="none" stroke="#4f4f4f" stroke-linecap="round" stroke-miterlimit="10" stroke-width="2"/><ellipse cx="2.128" cy="3.686" rx="2.128" ry="3.686" transform="translate(230.97 -5164.357) rotate(-89.689)" fill="none" stroke="#4f4f4f" stroke-linecap="round" stroke-miterlimit="10" stroke-width="2"/><path d="M1834.916-2501.75c7.545,18.619,22.941,50.772,21.713,55.677s-4.613,9.021-10.822,8.871-9.5.73-13.769-13.66a195.091,195.091,0,0,0-8.974-24.481" transform="translate(-331.768 -2640.808)" fill="none" stroke="#f1c354" stroke-linecap="round" stroke-linejoin="round" stroke-width="2"/><path d="M1728.543-2489.779c-.257,2.072.853,4.082,3.391,5.546l42.892,24.708c5.074,2.931,13.94,2.563,19.8-.821l27.658-15.967c3.229-1.865,4.872-4.255,4.849-6.518" transform="translate(-328.615 -2641.207)" fill="none" stroke="#4f4f4f" stroke-linecap="round" stroke-miterlimit="10" stroke-width="2"/><path d="M1839.706-2505.955a1.31,1.31,0,0,1-.662,1.146l-36.3,20.958a3.591,3.591,0,0,1-3.589,0l-3.286-1.9a1.31,1.31,0,0,1-.662-1.146" transform="translate(-330.839 -2640.668)" fill="none" stroke="#4f4f4f" stroke-linecap="round" stroke-miterlimit="10" stroke-width="2"/><path d="M1839.046-2507.216l-36.3,20.959a3.591,3.591,0,0,1-3.589,0l-3.286-1.9a1.323,1.323,0,0,1-.485-1.806,1.333,1.333,0,0,1,.485-.487l36.3-20.958a3.587,3.587,0,0,1,3.59,0l3.286,1.9a1.323,1.323,0,0,1,.484,1.806A1.322,1.322,0,0,1,1839.046-2507.216Z" transform="translate(-330.839 -2640.47)" fill="none" stroke="#4f4f4f" stroke-linecap="round" stroke-miterlimit="10" stroke-width="2"/><path d="M1258.459-2136.166c26.391-5.984,51.146-15.141,72.5-27.471,39.382-22.737,60.077-52.151,62.058-81.849a4.279,4.279,0,0,1,4.287-3.962h6.665a4.3,4.3,0,0,1,4.3,4.3v81.017c-.36,33.25-22.594,66.508-66.67,91.957-88.516,51.105-231.583,51.364-319.547.578-44.161-25.5-66.03-59.012-65.67-92.534v-81.017a4.3,4.3,0,0,1,4.3-4.3h6.575a4.28,4.28,0,0,1,4.294,4.053c1.391,29.916,21.779,59.536,61.209,82.3,50.043,28.891,119.194,40.081,184.273,33.608" transform="translate(-302.87 -2649.22)" fill="none" stroke="#4f4f4f" stroke-linecap="round" stroke-miterlimit="10" stroke-width="2"/><path d="M965-2223.174c7.906,25.587,28.077,50.006,60.537,69.765,86.206,52.476,226.411,52.209,313.158-.6,31.695-19.293,51.866-42.933,60.5-67.725" transform="translate(-303.157 -2650.096)" fill="none" stroke="#4f4f4f" stroke-linecap="round" stroke-miterlimit="10" stroke-width="2"/><path d="M1256.388-2127.324c3.2-.55,9.553-2.728,13.3-6.01,2.154-.625,5.854-1.737,6.92-2.071" transform="translate(-312.873 -2653.023)" fill="none" stroke="#e78f62" stroke-linecap="round" stroke-linejoin="round" stroke-width="2"/><path d="M1225.6-2143.059a52.38,52.38,0,0,1,11.773.9,50.143,50.143,0,0,0,13.582.615c3.093-.105,6.289,2.763,5.176,10.16-.588,3.91-1.013,5.207-5.224,6.809-2.65,1.01-18.454-1.309-31.386-1.655" transform="translate(-311.644 -2652.767)" fill="none" stroke="#e78f62" stroke-linecap="round" stroke-linejoin="round" stroke-width="2"/><path d="M1268.057-2323.522c1.25,6.4,1.213,15.318,1.178,20.758-.018,3.01-1.165,20.259-.12,30.9,1.494,2.793,2.307,4.028,2.1,7.621-.3,5.554-3.886,7.569-8.837,8.417-4.088.72-5.5-9.939-2.415-15.854,3.195-5.577-.734-26.826-1.023-29.468-1.731-5.375-2.055-15.989-1.479-22.439" transform="translate(-312.9 -2646.749)" fill="none" stroke="#e68e61" stroke-linecap="round" stroke-linejoin="round" stroke-width="2"/><path d="M1209.97-2330.03c-3.431,6.948-5.726,19.266-6.026,21.843-1.5,3.575-6.755,21.734-9.417,25.084-6.552,1.967-9.057,8.877-5.343,12.78,2.015,2.118,5.262-.083,9.388-3.394a9.013,9.013,0,0,0,3.564-5.409,3.391,3.391,0,0,0,.009-.944c-.261-3.485,9.632-23.094,13.779-36.72.7-2.3,2.468-8.443,2.831-9.712" transform="translate(-310.575 -2646.533)" fill="none" stroke="#e68e61" stroke-linecap="round" stroke-linejoin="round" stroke-width="2"/></g></svg>