<svg xmlns="http://www.w3.org/2000/svg" width="28" height="28" viewBox="0 0 28 28"><g transform="translate(-47 -107)"><g transform="translate(47 107)" fill="none" stroke="#e4716d" stroke-width="1"><circle cx="14" cy="14" r="14" stroke="none"/><circle cx="14" cy="14" r="13.5" fill="none"/></g><g transform="matrix(0.966, -0.259, 0.259, 0.966, 50.289, 114.36)"><path d="M6.087,12.937,4.833,10.4a1.455,1.455,0,0,0-1.095-.8l-2.8-.407a1.091,1.091,0,0,1-.6-1.861L2.359,5.356A1.453,1.453,0,0,0,2.777,4.07L2.3,1.277A1.09,1.09,0,0,1,3.881.128L6.388,1.446a1.454,1.454,0,0,0,1.353,0L10.249.128a1.09,1.09,0,0,1,1.582,1.149L11.353,4.07a1.453,1.453,0,0,0,.418,1.287L13.8,7.333a1.091,1.091,0,0,1-.6,1.861l-2.8.407a1.455,1.455,0,0,0-1.095.8L8.043,12.937A1.09,1.09,0,0,1,6.087,12.937Z" transform="translate(1.708 3.051)" fill="none" stroke="#e4716d" stroke-linecap="round" stroke-linejoin="round" stroke-width="1"/><line y1="2.339" transform="translate(8.773)" fill="none" stroke="#e4716d" stroke-linecap="round" stroke-linejoin="round" stroke-width="1"/><line x1="2.225" y1="0.723" transform="translate(0 6.374)" fill="none" stroke="#e4716d" stroke-linecap="round" stroke-linejoin="round" stroke-width="1"/><line x1="1.375" y2="1.893" transform="translate(3.351 14.795)" fill="none" stroke="#e4716d" stroke-linecap="round" stroke-linejoin="round" stroke-width="1"/><line x2="1.375" y2="1.893" transform="translate(12.82 14.795)" fill="none" stroke="#e4716d" stroke-linecap="round" stroke-linejoin="round" stroke-width="1"/><line y1="0.723" x2="2.225" transform="translate(15.321 6.374)" fill="none" stroke="#e4716d" stroke-linecap="round" stroke-linejoin="round" stroke-width="1"/></g></g></svg>