<svg xmlns="http://www.w3.org/2000/svg" width="445.331" height="352.303" viewBox="0 0 445.331 352.303"><g transform="translate(-619.972 -281.955)"><g transform="translate(124.332 -176.708)"><path d="M13.968,0h5.424L12.048-18.624,19.392-33.6h-5.28L7.2-18.96V-33.6H1.92V0H7.2V-10.32l1.632-3.072ZM33.5-33.6H25.776L20.4,0h4.848l.912-6.1h6.48L33.552,0H38.88Zm-4.128,5.952L31.92-10.656H26.832ZM53.376,0H58.8L51.456-18.624,58.8-33.6H53.52L46.608-18.96V-33.6h-5.28V0h5.28V-10.32l1.632-3.072ZM76.608-33.6H68.64V0h8.3c5.28,0,8.016-2.784,8.016-7.968V-10.7c0-3.552-1.1-6.1-3.936-7.2,2.352-1.1,3.408-3.312,3.408-6.768v-1.2C84.432-31.056,82.08-33.6,76.608-33.6Zm-.336,18.48c2.4,0,3.408.96,3.408,4.08v2.928c0,2.5-.96,3.312-2.736,3.312H73.92V-15.12Zm.192-13.68c1.872,0,2.688,1.056,2.688,3.456v1.872c0,2.688-1.2,3.552-3.168,3.552H73.92V-28.8ZM107.616,0h5.424L105.7-18.624,113.04-33.6h-5.28l-6.912,14.64V-33.6h-5.28V0h5.28V-10.32l1.632-3.072ZM125.28-15.408l2.16-8.256V0h4.752V-33.6h-5.808l-4.32,13.872-1.92,7.392V-33.6h-4.7V0h5.424ZM141.216-14.4h6V0h5.376V-33.6h-5.376v14.4h-6V-33.6h-5.28V0h5.28ZM161.28-25.872c0-2.4,1.056-3.312,2.736-3.312s2.736.912,2.736,3.312V-7.728c0,2.4-1.056,3.312-2.736,3.312s-2.736-.912-2.736-3.312ZM156-8.064c0,5.376,2.832,8.448,8.016,8.448s8.016-3.072,8.016-8.448V-25.536c0-5.376-2.832-8.448-8.016-8.448S156-30.912,156-25.536Z" transform="translate(547.905 495.677)" fill="#fab01f"/><g transform="translate(505.668 458.663)"><path d="M510.156,458.947c1.78-.011,4.266-.036,4.42-.038a11.418,11.418,0,0,0,1.421.034,2.2,2.2,0,0,1,1.457.279c1.8,1.19,1.987,1.695,1.987,1.857a1.423,1.423,0,0,1-.031.328,1,1,0,0,0-.44-.175.6.6,0,0,1-.438-.223.616.616,0,0,1-.041-.481.164.164,0,1,0-.285-.162.162.162,0,0,0-.021.085.811.811,0,0,0,.473,1.044.819.819,0,0,0,.269.052.879.879,0,0,1,.462.248,1.235,1.235,0,0,0,.876.358h.1c.62,0,.732,0,1.1.4s.371.431.377.846v.085a.907.907,0,0,1-.305.746l-.112.138H521.2a1.28,1.28,0,0,1-1.032-.53c-.064-.064-.131-.133-.207-.207a.164.164,0,0,0-.22.228c.074.071.139.138.2.2a1.593,1.593,0,0,0,1.243.624h.394a1,1,0,0,1,1.052.476c.394.528.394.532.376.771,0,.056-.01.122-.011.2a1.312,1.312,0,0,1-.523.833l-.094.089a3.1,3.1,0,0,1-1.293.183,3.56,3.56,0,0,0-.737-.246.164.164,0,0,0-.044.313,6.773,6.773,0,0,1,1.2.458,11.76,11.76,0,0,0,1.121.454,19.655,19.655,0,0,0,3.811.328,3.215,3.215,0,0,1,1.24.24,3.232,3.232,0,0,0,.7.193,13.793,13.793,0,0,0,1.536.082c.29,0,.589.011.9.025h.128c.287.013.5.021.674.038a.487.487,0,0,0-.085.061,1.115,1.115,0,0,0-.263.835.758.758,0,0,0,.66.845l.065.005a6.493,6.493,0,0,1-1.626.289,5.593,5.593,0,0,1-.984-.021c-.34-.028-.761-.064-1.536-.071a16.418,16.418,0,0,1-2.83-.257c-.328-.049-.7-.107-1.157-.164a9.7,9.7,0,0,0-2.86.035,28.562,28.562,0,0,1-2.87.216,10.1,10.1,0,0,0-3.813.712,19.616,19.616,0,0,1-2.3.7.164.164,0,0,0,.034.313.14.14,0,0,0,.038,0,19.077,19.077,0,0,0,2.064-.615,6.025,6.025,0,0,0-1.866,3.083,7.152,7.152,0,0,0,.558,2.9c.143.44.3.938.481,1.54a5.529,5.529,0,0,1-.218,3.988,2.457,2.457,0,0,0-.1-1.175.855.855,0,0,0-1.04-.616l-.059.017a.164.164,0,0,0,.066.31.546.546,0,0,1,.708.31.535.535,0,0,1,.023.072,1.827,1.827,0,0,1,.056,1.122,1.2,1.2,0,0,1-1.065.583c-.328-.044-.285-1.276-.274-1.683v-.3a3.38,3.38,0,0,0-.328-1.173c-.051-.131-.107-.277-.164-.441-.12-.328-.217-.614-.328-.95-.164-.492-.344-1.043-.656-1.877A11.154,11.154,0,0,0,509,475.9a5.218,5.218,0,0,1-.686-1.4,8.425,8.425,0,0,0-1.079-2.561c-.2-.374-.413-.7-.619-1.009a4.251,4.251,0,0,1-.942-2.471c-.041-3.877.044-6.963,1.519-8.464A3.971,3.971,0,0,1,510.156,458.947Z" transform="translate(-505.668 -458.909)" fill="#fab01f"/><path d="M611.807,502.339c.013-.345.061-.525.156-.609a.546.546,0,0,1,.366-.085,1.332,1.332,0,0,1,.205.011c.52.048.579.358.564.684a.543.543,0,0,1-.149.4.743.743,0,0,1-.543.134C611.787,502.847,611.8,502.516,611.807,502.339Z" transform="translate(-585.902 -491.211)" fill="#fab01f"/><path d="M581.091,604.541a1.309,1.309,0,0,1-.709-.225c-.087-.056-.164-.1-.238-.141a.768.768,0,0,1-.492-.7,1.18,1.18,0,0,1,.175-1.135c.656-.056,2.144-.3,3.144-.468.348-.062.638-.11.82-.138a11.009,11.009,0,0,0,2.069-.7,1.263,1.263,0,0,0,.052.148,2.988,2.988,0,0,1,.2.846c.028.23.048.394.174.484a.273.273,0,0,0,.164.049.387.387,0,0,0,.089-.01,1.2,1.2,0,0,0,.144-.044,4.384,4.384,0,0,1-.656.473l-.223.14a3.352,3.352,0,0,1-1.432.645,6.413,6.413,0,0,0-1.491.394A5.585,5.585,0,0,1,581.091,604.541Z" transform="translate(-561.54 -566.348)" fill="#fab01f"/><path d="M555.748,539.641c-.007.045-.041.058-.08.083a5.821,5.821,0,0,1-1.127.553.159.159,0,0,0,.1.3,6.044,6.044,0,0,0,1.454-.76c.625-.466.612-.82.6-1.029a.745.745,0,0,0-.463-.732.049.049,0,0,1-.009-.087,2.412,2.412,0,0,0,1.036-1.129c.017-.08.1-.129.143-.2a.881.881,0,0,0,.054-.745,1.031,1.031,0,0,0-.64-.648.912.912,0,0,0,.287-.32,1.065,1.065,0,0,0,.351-1.03.985.985,0,0,0-.536-.656c-.632-.609-1.08-.492-1.941-.212a10.05,10.05,0,0,1-2.574.368.165.165,0,0,0-.031-.1c-.11-.143-.21-.274-.3-.4-.134-.175-.253-.328-.364-.466a.155.155,0,0,0-.028-.034c-.633-.766-1.03-.924-2.523-.9a32.351,32.351,0,0,1-3.257-.125c-.336-.026-.656-.051-.961-.065-1.081-.056-2.414-.067-3.239-.026l-.21.011a2.042,2.042,0,0,1-1.4-.21.853.853,0,0,1-.248-.625c-.039-.774.758-.932,1.508-1.017a2.417,2.417,0,0,0,.323-.049,9.087,9.087,0,0,1,1.8-.164c.448,0,1.02-.054,1.526-.093.476-.038.925-.074,1.18-.072.174,0,.4.025.689.052a19.13,19.13,0,0,0,2.443.113,14.933,14.933,0,0,0,1.664-.128,11.127,11.127,0,0,1,1.8-.1,14.628,14.628,0,0,0,4.43-.666,4.773,4.773,0,0,0-.568,1.395.164.164,0,0,0,.122.189h.033a.164.164,0,0,0,.156-.125,7.749,7.749,0,0,1,1.979-3.178c.164-.186.317-.359.446-.517.719-.871.873-1.282.618-3.014a13.442,13.442,0,0,0-.51-2.033,7.733,7.733,0,0,1-.479-2.407,5.719,5.719,0,0,1,1.547-3.732.768.768,0,0,1,.627-.145.424.424,0,0,1,.223.164,2.214,2.214,0,0,0-.208,1.869,2.069,2.069,0,0,0,.031.345c.118.668.573,2.61.794,3.34l.02.061a9.978,9.978,0,0,0,.8,2.11c.066.1.164.23.262.376a4.08,4.08,0,0,1,.907,1.793,9.237,9.237,0,0,0,1.547,3.632,6.505,6.505,0,0,1,1.391,2.658c.036.41.089.82.138,1.226.271,2.183.535,4.266-1.616,6.185A7.829,7.829,0,0,1,562,540.251a13.594,13.594,0,0,1-3.512.34,17.723,17.723,0,0,0-4.27.345,11.129,11.129,0,0,0-1.18.311,2.091,2.091,0,0,1-.865.085,2.06,2.06,0,0,1-.678-.207.943.943,0,0,1-.4-1.463.106.106,0,0,1,.08-.036c.078,0,.159-.006.246-.011a2.15,2.15,0,0,0,.264-.033,7.306,7.306,0,0,0,1.236-.353,6.812,6.812,0,0,1,1.388-.377,1.787,1.787,0,0,0,.613-.136.069.069,0,0,1,.1.08.631.631,0,0,0,.088.568.784.784,0,0,0,.51.223c.033,0,.06-.015.1,0A.057.057,0,0,1,555.748,539.641Z" transform="translate(-531.502 -501.118)" fill="#fab01f"/><path d="M575.194,589.528a3.143,3.143,0,0,0,1.887-.943c.075.1.154.2.241.315l.241.315c-.377,0-.763,0-1.149-.023a.164.164,0,0,0-.018.317c.258.015.519.023.778.025a11.763,11.763,0,0,0,3.4-.392,1.907,1.907,0,0,1,1.148-.175,1.434,1.434,0,0,0-.374.125c-.725.358-.681.612-.55,1.362.013.081.03.164.044.263a.526.526,0,0,0,.227.387.561.561,0,0,0,.305.079,1.147,1.147,0,0,0,.125,0,9.306,9.306,0,0,1-2.326.842l-.821.135c-1.037.164-2.6.432-3.2.471h0a1.915,1.915,0,0,1-1.536-.732,2.41,2.41,0,0,1,.054-1.385,1.983,1.983,0,0,1,.907-.8A3.029,3.029,0,0,1,575.194,589.528Z" transform="translate(-556.978 -556.936)" fill="#fab01f"/><path d="M628.453,516.466a4.135,4.135,0,0,1-.128.656c-.021.079-.046.164-.072.253A1.434,1.434,0,0,1,628.453,516.466Z" transform="translate(-598.328 -502.419)" fill="#fab01f"/><path d="M604.182,612.237a.431.431,0,0,1-.263.561.576.576,0,0,1-.3.056.306.306,0,0,1-.279-.281.551.551,0,0,1,.048-.258.454.454,0,0,1,.34-.215,1.077,1.077,0,0,1,.164-.013A.276.276,0,0,1,604.182,612.237Z" transform="translate(-579.505 -574.702)" fill="#fab01f"/><path d="M606.795,601.014a3.284,3.284,0,0,0-.223-.93.594.594,0,0,1-.051-.164c.116-.057.228-.115.328-.174a.727.727,0,0,1,.738.492.559.559,0,0,1-.034.492,1.277,1.277,0,0,1-.719.533A1.566,1.566,0,0,1,606.795,601.014Z" transform="translate(-581.907 -565.372)" fill="#fab01f"/><path d="M604.487,592.946c-.015-.01-.06-.039-.083-.164-.017-.1-.031-.184-.044-.264-.128-.727-.134-.771.377-1.024a1.028,1.028,0,0,1,.458-.113.765.765,0,0,1,.328.072.674.674,0,0,1,.374.446.876.876,0,0,1-.712.976C604.917,592.943,604.6,593.02,604.487,592.946Z" transform="translate(-580.218 -559.05)" fill="#fab01f"/></g></g><g transform="translate(621 306)" opacity="0.968"><g transform="translate(21.207 79.839)"><path d="M2784.652,223.508H2754.66c-11.827,0-21.414,10.521-21.414,23.5v61.583" transform="translate(-2733.246 -223.508)" fill="none" stroke="#fab01f" stroke-linecap="round" stroke-linejoin="round" stroke-width="2"/><line x1="25.481" transform="translate(211.718)" fill="none" stroke="#fab01f" stroke-linecap="round" stroke-linejoin="round" stroke-width="2"/><line x1="58.334" transform="translate(271.283)" fill="none" stroke="#fab01f" stroke-linecap="round" stroke-linejoin="round" stroke-width="2"/><path d="M2397.628,303.854V247.008a25.955,25.955,0,0,0-.242-3.551" transform="translate(-2010.361 -223.508)" fill="none" stroke="#fab01f" stroke-linecap="round" stroke-linejoin="round" stroke-width="2"/><line y1="7.416" transform="translate(387.267 103.745)" fill="none" stroke="#fab01f" stroke-linecap="round" stroke-linejoin="round" stroke-width="2"/><path d="M2397.386,421.333v25.675c0,12.979,9.587,23.5,21.414,23.5h344.439c11.826,0,21.413-10.521,21.413-23.5V413.257" transform="translate(-2397.386 -223.508)" fill="none" stroke="#fab01f" stroke-linecap="round" stroke-linejoin="round" stroke-width="2"/><line y2="20.938" transform="translate(0 101.643)" fill="none" stroke="#fab01f" stroke-linecap="round" stroke-linejoin="round" stroke-width="2"/></g><path d="M2780.766,332.907c8.057.323,11.981,1.872,12.662,3.12,1.287,2.358-9.434,11.15-39.453,16.3s-41.812,4.717-44.171,2.358c-2.155-2.154,8.577-12.865,39.025-18.654a171.8,171.8,0,0,1,24.783-3.1" transform="translate(-2697.208 -143.669)" fill="none" stroke="#fab01f" stroke-linecap="round" stroke-linejoin="round" stroke-width="2"/><path d="M2706.176,354.681v5.045a1.791,1.791,0,0,0,1.034,1.631c4.048,1.873,19.737,4.9,47.71-2.125,32.734-8.224,38.8-15.487,38.318-16.777s-3.438-6.428-3.438-6.428" transform="translate(-2693.581 -143.669)" fill="none" stroke="#fab01f" stroke-linecap="round" stroke-linejoin="round" stroke-width="2"/><path d="M2717.131,340.736l6.985-43.269h6.209l-6.06,41.527Z" transform="translate(-2641.596 -143.669)" fill="none" stroke="#fab01f" stroke-linecap="round" stroke-linejoin="round" stroke-width="2"/><path d="M2704.905,359.726c-14.874,9.113-25.092,22.682,48.579,11.112,66.351-10.421,53.408-31.84,37.764-29.89" transform="translate(-2692.31 -143.669)" fill="none" stroke="#fab01f" stroke-linecap="round" stroke-linejoin="round" stroke-width="2"/><path d="M2688.922,370.816s.213,8.583,0,11.162,17.552,7.307,64.4-2.435,51.72-22.064,50.287-24.213-5.827-9.692-5.827-9.692" transform="translate(-2686.879 -143.669)" fill="none" stroke="#fab01f" stroke-linecap="round" stroke-linejoin="round" stroke-width="2"/><path d="M2766.509,384.372s28.986,73.182,32.619,85.863" transform="translate(-2759.778 -143.669)" fill="none" stroke="#fab01f" stroke-linecap="round" stroke-linejoin="round" stroke-width="2"/><path d="M2590.255,470.235s-6.015-40.939-6.332-46.321-1.583-10.13,10.764-11.4,60.783-9.5,65.532-9.5,6.964,2.216,7.914,8.864S2677,470.508,2677,470.508" transform="translate(-2454.869 -143.669)" fill="none" stroke="#fab01f" stroke-linecap="round" stroke-linejoin="round" stroke-width="2"/><path d="M2596.236,470.235c-2.533-18.462-6.015-40.939-6.965-44.421s-1.266-7.6,6.965-9.181,56.351-7.6,59.2-7.914,4.749-.634,5.7,6.964S2670,470.508,2670,470.508" transform="translate(-2452.936 -143.669)" fill="none" stroke="#fab01f" stroke-linecap="round" stroke-linejoin="round" stroke-width="2"/><path d="M2647.614,470.513a26.91,26.91,0,1,0-37.424-.611" transform="translate(-2452.576 -143.669)" fill="none" stroke="#fab01f" stroke-linecap="round" stroke-linejoin="round" stroke-width="2"/><path d="M2686.92,470.513l-7.91-57.383a1.754,1.754,0,0,1,2.308-1.9c7.818,2.7,30.053,10.384,31.937,11.09,2.29.859,2.576.573,3.721,9.733s4.294,38.185,4.294,38.185" transform="translate(-2594.404 -143.669)" fill="none" stroke="#fab01f" stroke-linecap="round" stroke-linejoin="round" stroke-width="2"/><path d="M2696.408,358.6l-109.6,16.2a1.883,1.883,0,0,0-1.159,3.083l21.477,25.254a8.061,8.061,0,0,0,7.544,2.715l62.864-11.122a8.06,8.06,0,0,0,5.756-4.238l15.063-29.167A1.883,1.883,0,0,0,2696.408,358.6Z" transform="translate(-2477.914 -143.669)" fill="none" stroke="#fab01f" stroke-linecap="round" stroke-linejoin="round" stroke-width="2"/><path d="M2570.182,427.3c-16.087,10.053-61.242,5.564-80.433-3.339s-32.738-16.241-35.56-26.683c-5.08,1.411-1.411,15.17,35.56,30.022S2577.8,437.852,2570.182,427.3Z" transform="translate(-2217.454 -143.669)" fill="none" stroke="#fab01f" stroke-linecap="round" stroke-linejoin="round" stroke-width="2"/><line y2="37.09" transform="translate(111.546 238.689)" fill="none" stroke="#fab01f" stroke-linecap="round" stroke-linejoin="round" stroke-width="2"/><line y2="11.13" transform="translate(111.546 219.609)" fill="none" stroke="#fab01f" stroke-linecap="round" stroke-linejoin="round" stroke-width="2"/><path d="M2694.313,408.592c6.792,17.478,95.3,3.4,95.3-18.98" transform="translate(-2678.064 -143.669)" fill="none" stroke="#fab01f" stroke-linecap="round" stroke-linejoin="round" stroke-width="2"/><line x1="2.503" y2="67.215" transform="translate(233.264 259.352)" fill="none" stroke="#fab01f" stroke-linecap="round" stroke-linejoin="round" stroke-width="2"/><line x1="18.443" y2="37.723" transform="translate(332.382 289.116)" fill="none" stroke="#fab01f" stroke-linecap="round" stroke-linejoin="round" stroke-width="2"/><line x1="14.257" y2="33.88" transform="translate(318.962 292.959)" fill="none" stroke="#fab01f" stroke-linecap="round" stroke-linejoin="round" stroke-width="2"/><line x1="11.301" y2="33.612" transform="translate(302.246 293.227)" fill="none" stroke="#fab01f" stroke-linecap="round" stroke-linejoin="round" stroke-width="2"/><line x1="8.302" y2="36.465" transform="translate(287.461 290.379)" fill="none" stroke="#fab01f" stroke-linecap="round" stroke-linejoin="round" stroke-width="2"/><line y1="40.591" x2="8.096" transform="translate(271.434 286.248)" fill="none" stroke="#fab01f" stroke-linecap="round" stroke-linejoin="round" stroke-width="2"/><line x1="7.531" y2="46.76" transform="translate(255.891 279.807)" fill="none" stroke="#fab01f" stroke-linecap="round" stroke-linejoin="round" stroke-width="2"/><line x1="3.825" y2="56.932" transform="translate(242.163 269.907)" fill="none" stroke="#fab01f" stroke-linecap="round" stroke-linejoin="round" stroke-width="2"/><path d="M2408.4,470.508s74.3-100.1,75.984-103.74,1.683-4.52-4.486-8.709-74.582-59.985-78.227-61.948-5.416-4.2-8.876,0-30.306,40.483-30.306,40.483" transform="translate(-2041.971 -143.669)" fill="none" stroke="#fab01f" stroke-linecap="round" stroke-linejoin="round" stroke-width="2"/><path d="M2567.408,397.282c.9-4.091.166-6.612-.968-7.572s-.535-7.744,4.146-7.593" transform="translate(-2330.672 -143.669)" fill="none" stroke="#fab01f" stroke-linecap="round" stroke-linejoin="round" stroke-width="2"/><path d="M2501.416,382.749c-1.161-2.761-1.4-13.083,10.122-12-1.921-6.6,4.081-9.6,9.242-7.322-.24-8.162,5.641-12.122,11.042-7.8,3.6-12.363,9.962-8.042,9.962-8.042s4.2-7.8,10.2-1.8c7.922-10.082,17.044-6.721,16.8-1.2" transform="translate(-2263.823 -143.669)" fill="none" stroke="#fab01f" stroke-linecap="round" stroke-linejoin="round" stroke-width="2"/><path d="M2492.751,341.2c4.929-2.35,8.368-2.673,9.228.551a4.16,4.16,0,0,1-2.042,4.729s3.009,4.622-1.4,6.664" transform="translate(-2189.029 -143.669)" fill="none" stroke="#fab01f" stroke-linecap="round" stroke-linejoin="round" stroke-width="2"/><path d="M2497.393,348.092c5.051-.215,6.264,3.977,5.281,8.383,5.574,1.72,4.694,5.374,4.694,5.374" transform="translate(-2198.953 -143.669)" fill="none" stroke="#fab01f" stroke-linecap="round" stroke-linejoin="round" stroke-width="2"/><path d="M2496.007,363.784c7.293.537,7.4,6.878,3.854,10.425" transform="translate(-2192.286 -143.669)" fill="none" stroke="#fab01f" stroke-linecap="round" stroke-linejoin="round" stroke-width="2"/><path d="M2509.615,364.644c-5.589-.753-3.332-7.516.86-6.069,3.439-4.679,8.061-1.24,8.168,1.017,4.514,0,6.234,5.267,3.762,7.738" transform="translate(-2223.965 -143.669)" fill="none" stroke="#fab01f" stroke-linecap="round" stroke-linejoin="round" stroke-width="2"/><path d="M2529.237,354.218c-4.3-1.827-6.986,1.513-7.094,4.357" transform="translate(-2245.521 -143.669)" fill="none" stroke="#fab01f" stroke-linecap="round" stroke-linejoin="round" stroke-width="2"/><path d="M2516.093,372.233c-2.022-5.71,5.234-9.992,8.922-4.044,5.947-1.666,9.634,2.141,8.8,5.114,7.375.238,5.709,5.948,2.736,7.018" transform="translate(-2248.961 -143.669)" fill="none" stroke="#fab01f" stroke-linecap="round" stroke-linejoin="round" stroke-width="2"/><path d="M2549.06,382.749c2.022,4.828-3.651,6.731-5.334,3.758-3.587.475-4.063-3.825-2.278-4.232" transform="translate(-2284.068 -143.669)" fill="none" stroke="#fab01f" stroke-linecap="round" stroke-linejoin="round" stroke-width="2"/><path d="M2546.346,382.275c-.987-4.585,4.372-8.463,8.108-5.784,2.468-4.089,9.237-2.355,9.166,1.713" transform="translate(-2303.987 -143.669)" fill="none" stroke="#fab01f" stroke-linecap="round" stroke-linejoin="round" stroke-width="2"/><path d="M2556.2,402.121c-6.024-2.6-2.305-10.591,1.912-9.723.311-5.99,6.909-5.035,6.822-1.736" transform="translate(-2312.128 -143.669)" fill="none" stroke="#fab01f" stroke-linecap="round" stroke-linejoin="round" stroke-width="2"/><path d="M2544.36,405.974c-2.762-1.1-.614-5.89,2.863-3.853,2.557-5.531,10.9-1.235,7.5,4.594,3.446-.1,4.5,4.092.8,5.933" transform="translate(-2295.087 -143.669)" fill="none" stroke="#fab01f" stroke-linecap="round" stroke-linejoin="round" stroke-width="2"/><path d="M2534.688,378.2c-4.425-2.563-9.554,4.776-4.267,8.115" transform="translate(-2257.004 -143.669)" fill="none" stroke="#fab01f" stroke-linecap="round" stroke-linejoin="round" stroke-width="2"/><path d="M2509.83,385.1c-3.825,4.6,4.564,15.989,15.409,7.466,3.994,3.677,8.673,3.858,9.508,2.514" transform="translate(-2237.777 -143.669)" fill="none" stroke="#fab01f" stroke-linecap="round" stroke-linejoin="round" stroke-width="2"/><path d="M2534.37,408.592c-7.113-.627-6.836-12.055.986-13.511" transform="translate(-2258.75 -143.669)" fill="none" stroke="#fab01f" stroke-linecap="round" stroke-linejoin="round" stroke-width="2"/><path d="M2526.181,403.02c1.581,5.848-5.645,5.932-7.565,2.954-2.258,3.91-14.026,1.171-7.352-10.5" transform="translate(-2229.784 -143.669)" fill="none" stroke="#fab01f" stroke-linecap="round" stroke-linejoin="round" stroke-width="2"/><path d="M2499.949,381.321c.889-5.035,7.436-5.134,7.273,0,5.266,2.764,2.4,7.5-.855,7.6-.593,3.258-7.01,4.822-8.392-.995" transform="translate(-2202.25 -143.669)" fill="none" stroke="#fab01f" stroke-linecap="round" stroke-linejoin="round" stroke-width="2"/><path d="M2476.645,339.578c-.493-5.964,13.372-8.1,10.569,2.959,10.989,2.286,8.591,10.2,2.111,12.43s-7.129,5.732-4.926,8.065" transform="translate(-2165.594 -143.669)" fill="none" stroke="#fab01f" stroke-linecap="round" stroke-linejoin="round" stroke-width="2"/><path d="M2458.095,353.7c9.045.143,13.427,9.412,13.427,12.783,5.729-1.854,8.426,2.4,8.089,6.343" transform="translate(-2131.875 -143.669)" fill="none" stroke="#fab01f" stroke-linecap="round" stroke-linejoin="round" stroke-width="2"/><path d="M2452.877,372.823c4.411-1.807,13.444,6.614,5.393,13.5" transform="translate(-2108.512 -143.669)" fill="none" stroke="#fab01f" stroke-linecap="round" stroke-linejoin="round" stroke-width="2"/><path d="M2449.715,384.669c6.08,2.72,8.234,11.641-.518,15.97" transform="translate(-2098.373 -143.669)" fill="none" stroke="#fab01f" stroke-linecap="round" stroke-linejoin="round" stroke-width="2"/><path d="M2463.356,399.325c4.308,4.2,3.737,11.941-4.308,12.466.089,4.461-8.833,4.461-8.833,4.461" transform="translate(-2110.374 -143.669)" fill="none" stroke="#fab01f" stroke-linecap="round" stroke-linejoin="round" stroke-width="2"/><path d="M2450.787,410.815c5.8,8.323.32,16.489.32,16.489" transform="translate(-2098.378 -143.669)" fill="none" stroke="#fab01f" stroke-linecap="round" stroke-linejoin="round" stroke-width="2"/><path d="M2488.846,413.576" transform="translate(-2171.833 -143.669)" fill="none" stroke="#fab01f" stroke-linecap="round" stroke-linejoin="round" stroke-width="2"/><path d="M2525.906,416.643c-4.928-3.091-7.056,1.253-6.034,5.429s6.619,4.427,7.788,1.838" transform="translate(-2241.423 -143.669)" fill="none" stroke="#fab01f" stroke-linecap="round" stroke-linejoin="round" stroke-width="2"/><path d="M2494.638,420.593c-.584-5.036,8.823-7.47,10.05-1.534,6.824-1.665,9.914,6.02,5.4,10.113" transform="translate(-2200.967 -143.669)" fill="none" stroke="#fab01f" stroke-linecap="round" stroke-linejoin="round" stroke-width="2"/><path d="M2504.055,400.268c-2.03-2.745-5.965-1.893-6.08,2.367" transform="translate(-2196.17 -143.669)" fill="none" stroke="#fab01f" stroke-linecap="round" stroke-linejoin="round" stroke-width="2"/><path d="M2480.029,391.37c.852-5.963,10.98-6.247,10.791,0" transform="translate(-2164.993 -143.669)" fill="none" stroke="#fab01f" stroke-linecap="round" stroke-linejoin="round" stroke-width="2"/><path d="M2481.606,363.784c-7.1-.338-12.021,16.038,1.231,15.092,3.029,3.029,8.614-1.694,4.543-6.053" transform="translate(-2157.482 -143.669)" fill="none" stroke="#fab01f" stroke-linecap="round" stroke-linejoin="round" stroke-width="2"/><path d="M2470.273,370.735c-5.3,1.136-6.436,6.653-2.366,9.1" transform="translate(-2129.869 -143.669)" fill="none" stroke="#fab01f" stroke-linecap="round" stroke-linejoin="round" stroke-width="2"/><path d="M2462.424,390.9c-4.917-2.082-1.131-6.979,2.277-4.578,5.3-5.266,9.371,3.253,3.975,5.051" transform="translate(-2125.432 -143.669)" fill="none" stroke="#fab01f" stroke-linecap="round" stroke-linejoin="round" stroke-width="2"/><path d="M2494.846,403.02c-.095-5.4-8.33-5.672-8.141,0-6.626.372-5.206,6.9-1.23,7" transform="translate(-2171.101 -143.669)" fill="none" stroke="#fab01f" stroke-linecap="round" stroke-linejoin="round" stroke-width="2"/><path d="M2471.524,425.589c-.744-9.471,11.9-9.807,11.19-2.114,7.48-.767,6.768,7.6,3.206,8.228" transform="translate(-2154.145 -143.669)" fill="none" stroke="#fab01f" stroke-linecap="round" stroke-linejoin="round" stroke-width="2"/><path d="M2469.73,408.592c-.236,6.368,10.629,6.539,12.232,2.223,6.947-7.967,2.494-18.565-4.9-13.533" transform="translate(-2149.297 -143.669)" fill="none" stroke="#fab01f" stroke-linecap="round" stroke-linejoin="round" stroke-width="2"/><path d="M2630.961,401.455l1.3,7.782,11.991-1.859-1.477-8.012Z" transform="translate(-2469.352 -143.669)" fill="none" stroke="#fab01f" stroke-linecap="round" stroke-linejoin="round" stroke-width="2"/><path d="M2579.39,470.235,2568.849,410a5.737,5.737,0,0,1,.723-3.924l15.349-25.758" transform="translate(-2347.826 -143.669)" fill="none" stroke="#fab01f" stroke-linecap="round" stroke-linejoin="round" stroke-width="2"/><line x1="7.862" transform="translate(124.767 307.475)" fill="none" stroke="#fab01f" stroke-linecap="round" stroke-linejoin="round" stroke-width="2"/><line x2="8.086" transform="translate(125.535 314.407)" fill="none" stroke="#fab01f" stroke-linecap="round" stroke-linejoin="round" stroke-width="2"/><line x1="8.855" transform="translate(217.979 299.536)" fill="none" stroke="#fab01f" stroke-linecap="round" stroke-linejoin="round" stroke-width="2"/><line x2="8.64" transform="translate(216.591 290.379)" fill="none" stroke="#fab01f" stroke-linecap="round" stroke-linejoin="round" stroke-width="2"/><path d="M2743.975,464.969c-10.841,5.539-29.868,5.544-29.868,5.544" transform="translate(-2652.223 -143.669)" fill="none" stroke="#fab01f" stroke-linecap="round" stroke-linejoin="round" stroke-width="2"/><path d="M2500.417,341.6l-1.344-7.648s15.878-1.3,13.934-22.2c26.734-4.375,159.882-37.8,159.882-37.8s.35,19.854,23.6,15.883c2.078,16.214,4.982,50.11,4.982,50.11" transform="translate(-2394.69 -143.669)" fill="none" stroke="#fab01f" stroke-linecap="round" stroke-linejoin="round" stroke-width="2"/><path d="M2690.356,339.86l-5.183-43.492s-17.664,1.516-22.194-14.316c-16.487,3.7-149.66,34.912-149.66,34.912s.875,15.565-9.264,19.063c3.4,13.889,9.264,36.426,9.264,36.426" transform="translate(-2388.552 -143.669)" fill="none" stroke="#fab01f" stroke-linecap="round" stroke-linejoin="round" stroke-width="2"/><line y1="9.832" x2="55.327" transform="translate(174.097 249.527)" fill="none" stroke="#fab01f" stroke-linecap="round" stroke-linejoin="round" stroke-width="2"/><line y1="4.791" x2="28.944" transform="translate(203.551 244.372)" fill="none" stroke="#fab01f" stroke-linecap="round" stroke-linejoin="round" stroke-width="2"/><line x1="14.477" y1="3.223" transform="matrix(0.914, -0.407, 0.407, 0.914, 167.307, 191.635)" fill="none" stroke="#fab01f" stroke-linecap="round" stroke-linejoin="round" stroke-width="2"/><line y1="18.963" x2="3.764" transform="matrix(0.914, -0.407, 0.407, 0.914, 171.137, 191.694)" fill="none" stroke="#fab01f" stroke-linecap="round" stroke-linejoin="round" stroke-width="2"/><line y1="18.916" x2="4.054" transform="matrix(0.914, -0.407, 0.407, 0.914, 186.782, 188.394)" fill="none" stroke="#fab01f" stroke-linecap="round" stroke-linejoin="round" stroke-width="2"/><line x1="3.465" y2="20.268" transform="matrix(0.914, -0.407, 0.407, 0.914, 199.01, 185.485)" fill="none" stroke="#fab01f" stroke-linecap="round" stroke-linejoin="round" stroke-width="2"/><path d="M2608.161,324.131l-9.419,9.272,8.454,12.686" transform="matrix(0.914, -0.407, 0.407, 0.914, -2304.742, 947.324)" fill="none" stroke="#fab01f" stroke-linecap="round" stroke-linejoin="round" stroke-width="2"/><path d="M2621.094,347.68l-6.563-1.591,1.861-8.908,2.193-10.5,7.914,1.695" transform="matrix(0.914, -0.407, 0.407, 0.914, -2304.741, 947.324)" fill="none" stroke="#fab01f" stroke-linecap="round" stroke-linejoin="round" stroke-width="2"/><line x1="7.791" y1="1.812" transform="matrix(0.914, -0.407, 0.407, 0.914, 222.595, 191.172)" fill="none" stroke="#fab01f" stroke-linecap="round" stroke-linejoin="round" stroke-width="2"/><line y1="20.268" x2="4.633" transform="matrix(0.914, -0.407, 0.407, 0.914, 235.38, 177.955)" fill="none" stroke="#fab01f" stroke-linecap="round" stroke-linejoin="round" stroke-width="2"/><line x2="8.063" y2="1.792" transform="matrix(0.914, -0.407, 0.407, 0.914, 236.124, 176.779)" fill="none" stroke="#fab01f" stroke-linecap="round" stroke-linejoin="round" stroke-width="2"/><path d="M2696.737,315.757a80.072,80.072,0,0,0,23.106,16.747" transform="translate(-2610.721 -143.669)" fill="none" stroke="#fab01f" stroke-linecap="round" stroke-linejoin="round" stroke-width="2"/><path d="M2736.912,288.772a79.852,79.852,0,1,0-137.744,20.694" transform="translate(-2518.592 -143.669)" fill="none" stroke="#fab01f" stroke-linecap="round" stroke-linejoin="round" stroke-width="2"/><path d="M2641.887,310.57s.976-12.858,11.364-29.45a5.915,5.915,0,0,1,8.694-1.51c8.624,6.845,18,19.463,19.211,22.206" transform="translate(-2517.184 -143.669)" fill="none" stroke="#fab01f" stroke-linecap="round" stroke-linejoin="round" stroke-width="2"/><g transform="translate(75.106 52.578)"><path d="M2596,259.842a62.288,62.288,0,0,1,37.139-10.335,9.021,9.021,0,0,1,8.712,8.615q.041,1.178.04,2.363a68.672,68.672,0,0,1-4.627,24.863,9.026,9.026,0,0,1-11.927,5.127c-9.531-4.085-21.765-11.393-30.554-21.831A5.962,5.962,0,0,1,2596,259.842Z" transform="translate(-2504.499 -196.247)" fill="none" stroke="#fab01f" stroke-linecap="round" stroke-linejoin="round" stroke-width="2"/><path d="M2657.537,221.284c-5.338,12.627-17.449,19.186-36.415,22.1a5.935,5.935,0,0,1-6.8-5.564c-.872-17.058,1.056-28.258,9.587-37.643a12.087,12.087,0,0,1,13.712-2.946,68.824,68.824,0,0,1,16.476,10.06A12.071,12.071,0,0,1,2657.537,221.284Z" transform="translate(-2541.857 -196.247)" fill="none" stroke="#fab01f" stroke-linecap="round" stroke-linejoin="round" stroke-width="2"/><path d="M2675.461,218.074a69.208,69.208,0,0,1,17.85-16.044,9,9,0,0,1,12.272,2.769,80.3,80.3,0,0,1,12.9,35.8,5.957,5.957,0,0,1-6.562,6.621c-14.825-1.7-27.084-5.374-36.425-17.188A9.653,9.653,0,0,1,2675.461,218.074Z" transform="translate(-2661.167 -196.247)" fill="none" stroke="#fab01f" stroke-linecap="round" stroke-linejoin="round" stroke-width="2"/><path d="M2697.087,291.748a68.363,68.363,0,0,1-7.124-24.029,7.1,7.1,0,0,1,7.047-7.916c13.141-.283,23.8.982,31.119,2.791a5.837,5.837,0,0,1,2.624,1.424" transform="translate(-2689.921 -196.247)" fill="none" stroke="#fab01f" stroke-linecap="round" stroke-linejoin="round" stroke-width="2"/><path d="M2716.727,271.979a112.618,112.618,0,0,1-23.777,22.378,7.145,7.145,0,0,1-3.66,1.286" transform="translate(-2675.264 -196.247)" fill="none" stroke="#fab01f" stroke-linecap="round" stroke-linejoin="round" stroke-width="2"/></g><path d="M2709.266,284.824a53.892,53.892,0,0,0,3.6,6.748" transform="translate(-2616.276 -143.669)" fill="none" stroke="#fab01f" stroke-linecap="round" stroke-linejoin="round" stroke-width="2"/><path d="M2715.109,259.788q-.087,1.537-.088,3.1a53.92,53.92,0,0,0,2.5,16.27" transform="translate(-2626.68 -143.669)" fill="none" stroke="#fab01f" stroke-linecap="round" stroke-linejoin="round" stroke-width="2"/><path d="M2710.466,212.178a54.126,54.126,0,0,0-28.434,24.021" transform="translate(-2586.639 -143.669)" fill="none" stroke="#fab01f" stroke-linecap="round" stroke-linejoin="round" stroke-width="2"/><path d="M2654.884,230.079a53.914,53.914,0,0,0-34.143-20.447" transform="translate(-2469.766 -143.669)" fill="none" stroke="#fab01f" stroke-linecap="round" stroke-linejoin="round" stroke-width="2"/><path d="M2609.623,287.755a54.155,54.155,0,0,0,4.462-37.969" transform="translate(-2419.45 -143.669)" fill="none" stroke="#fab01f" stroke-linecap="round" stroke-linejoin="round" stroke-width="2"/><path d="M2666.49,304.422a44.438,44.438,0,0,0,13.519,3.028" transform="translate(-2540.64 -143.669)" fill="none" stroke="#fab01f" stroke-linecap="round" stroke-linejoin="round" stroke-width="2"/><path d="M2702.045,280.134a44.488,44.488,0,0,0,2.733,5.442" transform="translate(-2600.964 -143.669)" fill="none" stroke="#fab01f" stroke-linecap="round" stroke-linejoin="round" stroke-width="2"/><path d="M2706.837,260.216q-.078,1.324-.078,2.668a44.7,44.7,0,0,0,1.472,11.414" transform="translate(-2609.131 -143.669)" fill="none" stroke="#fab01f" stroke-linecap="round" stroke-linejoin="round" stroke-width="2"/><path d="M2702.679,220.677a44.8,44.8,0,0,0-24.471,20.624" transform="translate(-2575.028 -143.669)" fill="none" stroke="#fab01f" stroke-linecap="round" stroke-linejoin="round" stroke-width="2"/><path d="M2657.539,235.874A44.631,44.631,0,0,0,2628,218.627" transform="translate(-2479.68 -143.669)" fill="none" stroke="#fab01f" stroke-linecap="round" stroke-linejoin="round" stroke-width="2"/><path d="M2618.91,283.1a44.841,44.841,0,0,0,3.452-31.24" transform="translate(-2436.784 -143.669)" fill="none" stroke="#fab01f" stroke-linecap="round" stroke-linejoin="round" stroke-width="2"/><path d="M2694.881,275.567q.593,1.523,1.321,2.975" transform="translate(-2585.224 -143.669)" fill="none" stroke="#fab01f" stroke-linecap="round" stroke-linejoin="round" stroke-width="2"/><path d="M2698.042,261.37q-.033.753-.032,1.514a35.23,35.23,0,0,0,.56,6.272" transform="translate(-2590.721 -143.669)" fill="none" stroke="#fab01f" stroke-linecap="round" stroke-linejoin="round" stroke-width="2"/><path d="M2693.516,229.76a35.1,35.1,0,0,0-18.611,15" transform="translate(-2562.562 -143.669)" fill="none" stroke="#fab01f" stroke-linecap="round" stroke-linejoin="round" stroke-width="2"/><path d="M2658.483,240a34.949,34.949,0,0,0-21.4-11.748" transform="translate(-2489.712 -143.669)" fill="none" stroke="#fab01f" stroke-linecap="round" stroke-linejoin="round" stroke-width="2"/><path d="M2628.571,277.3a35.162,35.162,0,0,0,2.1-22.72" transform="translate(-2454.379 -143.669)" fill="none" stroke="#fab01f" stroke-linecap="round" stroke-linejoin="round" stroke-width="2"/><path d="M2647.369,295.216a35.084,35.084,0,0,0,29.627-1.3" transform="translate(-2518.506 -143.669)" fill="none" stroke="#fab01f" stroke-linecap="round" stroke-linejoin="round" stroke-width="2"/><path d="M2388.549,355.428s23.1-30.763,26.757-35.351,7.957-5.73,12.573-1.737,39.467,32.824,42.809,35.357,3.5,6.819,1.432,10.087-31.669,42.413-34.852,46.234-6.843,4.14-10.344,1.593-17-12.925-17-12.925" transform="translate(-2056.168 -143.669)" fill="none" stroke="#fab01f" stroke-linecap="round" stroke-linejoin="round" stroke-width="2"/><path d="M2436.571,470.235c23.286-31.7,26.931-36.789,29.361-40.318s-.767-5.284-4.192-8.3S2451,412.648,2451,412.648" transform="translate(-2097.495 -143.669)" fill="none" stroke="#fab01f" stroke-linecap="round" stroke-linejoin="round" stroke-width="2"/><path d="M2805.859,286.6c-12.033,16.291-25.624,20.64-38.068,20.846-19.7.327-47.681,28.166-15.28,42.883" transform="translate(-2737.693 -143.669)" fill="none" stroke="#fab01f" stroke-linecap="round" stroke-linejoin="round" stroke-width="2"/><line x2="7.134" y2="27.586" transform="translate(0.278 192.023)" fill="none" stroke="#fab01f" stroke-linecap="round" stroke-linejoin="round" stroke-width="2"/><path d="M2798.659,304.422c-16.843,19.348-43.58,19.709-48.741,19.709-13.369,0-27.944,11.561-17.416,24.137" transform="translate(-2721.696 -143.669)" fill="none" stroke="#fab01f" stroke-linecap="round" stroke-linejoin="round" stroke-width="2"/><path d="M2742.073,300.058a66.013,66.013,0,0,0,.1,9.03" transform="translate(-2678.281 -143.669)" fill="none" stroke="#fab01f" stroke-linecap="round" stroke-linejoin="round" stroke-width="2"/><path d="M2749.719,304.422c.89,5.334,1.35,8.338,1.35,8.338" transform="translate(-2694.929 -143.669)" fill="none" stroke="#fab01f" stroke-linecap="round" stroke-linejoin="round" stroke-width="2"/><path d="M2760.86,309.088c.779,5.118,1.335,8.122,1.335,8.122" transform="translate(-2717.196 -143.669)" fill="none" stroke="#fab01f" stroke-linecap="round" stroke-linejoin="round" stroke-width="2"/><path d="M2773.538,312.2a31.512,31.512,0,0,1,.779,7.009" transform="translate(-2742 -143.669)" fill="none" stroke="#fab01f" stroke-linecap="round" stroke-linejoin="round" stroke-width="2"/><path d="M2795.767,322.438a16.056,16.056,0,0,1,0,5.563" transform="translate(-2785.923 -143.669)" fill="none" stroke="#fab01f" stroke-linecap="round" stroke-linejoin="round" stroke-width="2"/><path d="M2786.67,314.54c.223,3.226.89,7.9.89,7.9" transform="translate(-2768.371 -143.669)" fill="none" stroke="#fab01f" stroke-linecap="round" stroke-linejoin="round" stroke-width="2"/><line x1="5.232" y1="33.825" transform="translate(135.86 65.964)" fill="none" stroke="#fab01f" stroke-linecap="round" stroke-linejoin="round" stroke-width="2"/><line x1="28.435" y1="4.719" transform="translate(95.393 108.186)" fill="none" stroke="#fab01f" stroke-linecap="round" stroke-linejoin="round" stroke-width="2"/><line x1="16.105" y2="17.616" transform="translate(111.546 130.288)" fill="none" stroke="#fab01f" stroke-linecap="round" stroke-linejoin="round" stroke-width="2"/><line x2="13.426" y2="17.432" transform="translate(155.935 126.654)" fill="none" stroke="#fab01f" stroke-linecap="round" stroke-linejoin="round" stroke-width="2"/><line y1="7.098" x2="24.345" transform="translate(157.779 101.088)" fill="none" stroke="#fab01f" stroke-linecap="round" stroke-linejoin="round" stroke-width="2"/><ellipse cx="4.511" cy="4.511" rx="4.511" ry="4.511" transform="translate(136.781 110.612)" fill="none" stroke="#fab01f" stroke-linecap="round" stroke-linejoin="round" stroke-width="2"/><path d="M2716.307,297.467l-.248-5.718,7.528.871-1.071,4.848Z" transform="translate(-2633.787 -143.669)" fill="none" stroke="#fab01f" stroke-linecap="round" stroke-linejoin="round" stroke-width="2"/><path d="M2685.957,280.394l26.978-15.856a2.087,2.087,0,0,1,3,1.033l1.052,2.664a2.086,2.086,0,0,1-.947,2.6l-27.207,14.74Z" transform="translate(-2597.229 -143.669)" fill="none" stroke="#fab01f" stroke-linecap="round" stroke-linejoin="round" stroke-width="2"/><path d="M2718.472,280.394l-4.215,3.455,5.286,4.926,1.8-3.2Z" transform="translate(-2629.743 -143.669)" fill="none" stroke="#fab01f" stroke-linecap="round" stroke-linejoin="round" stroke-width="2"/><path d="M2716.059,291.748l2.242-7.9,5.286,4.926v3.844Z" transform="translate(-2633.787 -143.669)" fill="none" stroke="#fab01f" stroke-linecap="round" stroke-linejoin="round" stroke-width="2"/><path d="M2471.957,328.271c-2.593-1.506-3.469-2.007-6.3,2.48s-1.771,4.723,0,6.258,2.952.633,5.432-2.34S2474.6,329.806,2471.957,328.271Z" transform="translate(-2131.553 -143.669)" fill="none" stroke="#fab01f" stroke-linecap="round" stroke-linejoin="round" stroke-width="2"/><path d="M2454.718,314.457c-3.24,4.01-3.272,4.605-1.265,6.494s3.188,1.181,5.668-2.126,1.771-4.368,0-5.667S2456.934,311.713,2454.718,314.457Z" transform="translate(-2106.953 -143.669)" fill="none" stroke="#fab01f" stroke-linecap="round" stroke-linejoin="round" stroke-width="2"/><path d="M2451.324,300.974c-5.633,7.579-6.932,8.861-10,6.8s-1.818-4.978,3.519-11.666" transform="translate(-2085.141 -143.669)" fill="none" stroke="#fab01f" stroke-linecap="round" stroke-linejoin="round" stroke-width="2"/><path d="M2374.4,351.877c-5.017,8.384-6.708,9.619-3.325,12.7s3.469,1,9.98-7.523" transform="translate(-1944.501 -143.669)" fill="none" stroke="#fab01f" stroke-linecap="round" stroke-linejoin="round" stroke-width="2"/><path d="M2403.913,388.834c-2.593-1.506-3.47-2.007-6.3,2.48s-1.771,4.723,0,6.258,2.952.633,5.431-2.34S2406.556,390.369,2403.913,388.834Z" transform="translate(-1995.465 -143.669)" fill="none" stroke="#fab01f" stroke-linecap="round" stroke-linejoin="round" stroke-width="2"/><path d="M2386.674,375.019c-3.239,4.011-3.272,4.6-1.264,6.495s3.188,1.18,5.667-2.126,1.771-4.369,0-5.667S2388.891,372.276,2386.674,375.019Z" transform="translate(-1970.866 -143.669)" fill="none" stroke="#fab01f" stroke-linecap="round" stroke-linejoin="round" stroke-width="2"/><path d="M2428.407,423.31c-2.593-1.506-3.47-2.007-6.3,2.48s-1.771,4.723,0,6.258,2.952.632,5.432-2.341S2431.051,424.845,2428.407,423.31Z" transform="translate(-2044.453 -143.669)" fill="none" stroke="#fab01f" stroke-linecap="round" stroke-linejoin="round" stroke-width="2"/><path d="M2411.168,409.495c-3.24,4.011-3.272,4.605-1.265,6.494s3.189,1.181,5.668-2.125,1.771-4.369,0-5.668S2413.385,406.751,2411.168,409.495Z" transform="translate(-2019.855 -143.669)" fill="none" stroke="#fab01f" stroke-linecap="round" stroke-linejoin="round" stroke-width="2"/><path d="M2453.485,456.971c-2.593-1.507-3.469-2.008-6.3,2.479s-1.771,4.723,0,6.258,2.952.633,5.432-2.34S2456.128,458.505,2453.485,456.971Z" transform="translate(-2094.609 -143.669)" fill="none" stroke="#fab01f" stroke-linecap="round" stroke-linejoin="round" stroke-width="2"/><path d="M2436.246,443.156c-3.24,4.01-3.272,4.6-1.265,6.494s3.188,1.181,5.668-2.126,1.771-4.368,0-5.667S2438.462,440.412,2436.246,443.156Z" transform="translate(-2070.009 -143.669)" fill="none" stroke="#fab01f" stroke-linecap="round" stroke-linejoin="round" stroke-width="2"/><g transform="translate(203.599 0)"><g transform="translate(33.935)"><path d="M2402.673,281.434l25.117-69.011,140.535,52.208-12.949,30.935" transform="translate(-2402.673 -143.669)" fill="none" stroke="#fab01f" stroke-linecap="round" stroke-linejoin="round" stroke-width="2"/><path d="M2386.974,337.146l-12.548-15.191,6.274-18.1,20.737-2.212Z" transform="translate(-2207.537 -143.669)" fill="none" stroke="#fab01f" stroke-linecap="round" stroke-linejoin="round" stroke-width="2"/><path d="M2395.163,309.709l6.569-16.756,26.909,10.9-6.274,18.1-23.966-9.8" transform="translate(-2255.478 -143.669)" fill="none" stroke="#fab01f" stroke-linecap="round" stroke-linejoin="round" stroke-width="2"/><line x1="16.742" y1="5.982" transform="translate(68.494 183.903)" fill="none" stroke="#fab01f" stroke-linecap="round" stroke-linejoin="round" stroke-width="2"/><ellipse cx="38.719" cy="38.719" rx="38.719" ry="38.719" transform="translate(112.173 28.331)" fill="none" stroke="#fab01f" stroke-linecap="round" stroke-linejoin="round" stroke-width="2"/><ellipse cx="38.719" cy="38.719" rx="38.719" ry="38.719" transform="translate(33.86)" fill="none" stroke="#fab01f" stroke-linecap="round" stroke-linejoin="round" stroke-width="2"/><path d="M2419.79,280.554l19.69-56.079L2554.155,270l-13.479,36.029" transform="translate(-2405.619 -143.669)" fill="none" stroke="#fab01f" stroke-linecap="round" stroke-linejoin="round" stroke-width="2"/><line x1="24.49" y1="8.218" transform="translate(67.092 172.575)" fill="none" stroke="#fab01f" stroke-linecap="round" stroke-linejoin="round" stroke-width="2"/></g><ellipse cx="9.706" cy="9.706" rx="9.706" ry="9.706" transform="translate(96.808 29.013)" fill="none" stroke="#fab01f" stroke-linecap="round" stroke-linejoin="round" stroke-width="2"/><ellipse cx="9.706" cy="9.706" rx="9.706" ry="9.706" transform="translate(175.12 57.344)" fill="none" stroke="#fab01f" stroke-linecap="round" stroke-linejoin="round" stroke-width="2"/><path d="M2602.26,246.012l-40.742-52.682-6.085,14.413" transform="translate(-2555.434 -143.669)" fill="none" stroke="#fab01f" stroke-linecap="round" stroke-linejoin="round" stroke-width="2"/><line x1="6.14" y2="14.467" transform="translate(4.803 55.943)" fill="none" stroke="#fab01f" stroke-linecap="round" stroke-linejoin="round" stroke-width="2"/><path d="M2522.462,284.685l-4.345,13.064-84.3-28.792,6.518-14.963Z" transform="translate(-2354.024 -143.669)" fill="none" stroke="#fab01f" stroke-linecap="round" stroke-linejoin="round" stroke-width="2"/><path d="M2523.5,290.216a6.373,6.373,0,0,0-11.029-5.591" transform="translate(-2433.865 -143.669)" fill="none" stroke="#fab01f" stroke-linecap="round" stroke-linejoin="round" stroke-width="2"/><line y2="6.031" transform="translate(83.419 138.758)" fill="none" stroke="#fab01f" stroke-linecap="round" stroke-linejoin="round" stroke-width="2"/><path d="M2469.773,302.845a6.375,6.375,0,0,0-7.894,9.822" transform="translate(-2327.715 -143.669)" fill="none" stroke="#fab01f" stroke-linecap="round" stroke-linejoin="round" stroke-width="2"/><line x2="2.732" y2="4.563" transform="translate(135.587 159.222)" fill="none" stroke="#fab01f" stroke-linecap="round" stroke-linejoin="round" stroke-width="2"/></g></g></g></svg>