<svg xmlns="http://www.w3.org/2000/svg" width="854" height="561" viewBox="0 0 854 561"><g transform="translate(-5054.689 -351.752)"><g transform="translate(17 46)"><path d="M3022.689,363.751a38,38,0,0,1-38-38v-481a38,38,0,0,1,38-38h774a38,38,0,0,1,38,38v481a38,38,0,0,1-38,38Zm54-525v492a5,5,0,0,0,5,5h656a5.006,5.006,0,0,0,5-5v-492a5.007,5.007,0,0,0-5-5h-656A5.006,5.006,0,0,0,3076.69-161.248Z" transform="translate(2055 501.001)" stroke="rgba(0,0,0,0)" stroke-miterlimit="10" stroke-width="1"/><rect width="666" height="502" rx="5" transform="translate(5131.689 334.752)" stroke-width="4" stroke="#e79121" stroke-linecap="round" stroke-linejoin="round" fill="none"/><rect width="850" height="557" rx="38" transform="translate(5039.689 307.752)" stroke-width="4" stroke="#e79121" stroke-linecap="round" stroke-linejoin="round" fill="none"/><circle cx="21" cy="21" r="21" transform="translate(5059.689 565.752)" fill="none" stroke="#e79121" stroke-linecap="round" stroke-linejoin="round" stroke-width="4"/></g></g></svg>