<svg xmlns="http://www.w3.org/2000/svg" width="53.58" height="51.226" viewBox="0 0 53.58 51.226"><g transform="translate(-2658.03 -205.982)"><path d="M-19,0h-1.08l-1.764-6.456L-23.61,0h-1.08l-2.28-8h1.1l1.776,6.672L-22.254-8h.828l1.836,6.672L-17.826-8h1.1Zm8.184,0h-.9V-3.816a1.314,1.314,0,0,0-.336-1.02,1.414,1.414,0,0,0-.972-.3,1.964,1.964,0,0,0-.966.264,2.32,2.32,0,0,0-.75.636V0h-.9V-8h.9v3.048a2.947,2.947,0,0,1,.9-.69,2.512,2.512,0,0,1,1.176-.294,1.633,1.633,0,0,1,1.848,1.848Zm6.324,0h-.9V-.66a2.474,2.474,0,0,1-1.92.8A2.132,2.132,0,0,1-8.73-.372a1.74,1.74,0,0,1-.612-1.4,1.722,1.722,0,0,1,.606-1.41,2.171,2.171,0,0,1,1.422-.5,2.4,2.4,0,0,1,1.92.792V-3.936a1.085,1.085,0,0,0-.408-.9A1.647,1.647,0,0,0-6.858-5.16a2.363,2.363,0,0,0-1.776.8l-.42-.624a3.081,3.081,0,0,1,2.316-.96,2.583,2.583,0,0,1,1.62.48,1.745,1.745,0,0,1,.624,1.476Zm-2.5-.5a1.831,1.831,0,0,0,1.6-.72V-2.316a1.831,1.831,0,0,0-1.6-.72,1.5,1.5,0,0,0-1.026.354,1.166,1.166,0,0,0-.4.918,1.153,1.153,0,0,0,.4.906A1.5,1.5,0,0,0-6.99-.5Zm5.76.648A1.249,1.249,0,0,1-2.19-.2a1.427,1.427,0,0,1-.324-1.008V-5h-.96V-5.8h.96V-7.38h.9V-5.8H-.438V-5H-1.614v3.6a.891.891,0,0,0,.15.54.51.51,0,0,0,.438.2A.781.781,0,0,0-.414-.9l.264.672A1.514,1.514,0,0,1-1.23.144Zm3.9,0A3.07,3.07,0,0,1,.33-.768L.8-1.416a2.373,2.373,0,0,0,.822.588,2.571,2.571,0,0,0,1.086.24A1.624,1.624,0,0,0,3.714-.864a.865.865,0,0,0,.36-.72A.679.679,0,0,0,3.7-2.19a2.975,2.975,0,0,0-.894-.336q-.522-.114-1.05-.264a2.064,2.064,0,0,1-.9-.516,1.294,1.294,0,0,1-.372-.966A1.482,1.482,0,0,1,1.068-5.46a2.406,2.406,0,0,1,1.578-.48,2.909,2.909,0,0,1,2.148.84l-.42.624a2.127,2.127,0,0,0-1.728-.732,1.537,1.537,0,0,0-.936.258.784.784,0,0,0-.348.654.6.6,0,0,0,.372.546,3.486,3.486,0,0,0,.894.312q.522.114,1.05.27a2.007,2.007,0,0,1,.9.546A1.408,1.408,0,0,1,4.95-1.608a1.557,1.557,0,0,1-.6,1.26A2.58,2.58,0,0,1,2.67.144ZM13.3,0h-1.14l-.708-1.776H7.47L6.762,0H5.622L8.838-8h1.236ZM11.154-2.664,9.462-6.972l-1.7,4.308ZM17.166.144A2.291,2.291,0,0,1,15.21-.876V2.208h-.9v-8h.9v.864a2.4,2.4,0,0,1,.84-.732,2.33,2.33,0,0,1,1.116-.276,2.354,2.354,0,0,1,1.866.822A3.259,3.259,0,0,1,19.746-2.9a3.283,3.283,0,0,1-.714,2.22A2.346,2.346,0,0,1,17.166.144Zm-.228-.8a1.646,1.646,0,0,0,1.356-.63A2.5,2.5,0,0,0,18.8-2.9a2.478,2.478,0,0,0-.5-1.608,1.653,1.653,0,0,0-1.356-.624,2.038,2.038,0,0,0-1,.27,1.94,1.94,0,0,0-.726.654V-1.6a1.9,1.9,0,0,0,.726.666A2.038,2.038,0,0,0,16.938-.66Zm7.092.8a2.291,2.291,0,0,1-1.956-1.02V2.208h-.9v-8h.9v.864a2.4,2.4,0,0,1,.84-.732A2.33,2.33,0,0,1,24.03-5.94a2.354,2.354,0,0,1,1.866.822A3.259,3.259,0,0,1,26.61-2.9,3.283,3.283,0,0,1,25.9-.684,2.346,2.346,0,0,1,24.03.144ZM23.8-.66a1.646,1.646,0,0,0,1.356-.63,2.5,2.5,0,0,0,.5-1.614,2.478,2.478,0,0,0-.5-1.608A1.653,1.653,0,0,0,23.8-5.136a2.038,2.038,0,0,0-1,.27,1.94,1.94,0,0,0-.726.654V-1.6A1.9,1.9,0,0,0,22.8-.93,2.038,2.038,0,0,0,23.8-.66Z" transform="translate(2685 255)" fill="#ff3d00"/><g transform="translate(1232.539 904.734)"><g transform="translate(1444.785 -691.334)"><path d="M1448.791-690.719c.9-.233,1.294.32,1.589,1.11.365.982.772,1.951,1.224,2.9a1.446,1.446,0,0,1-.157,1.619,6.462,6.462,0,0,1-.78.938.94.94,0,0,0-.217,1.31,1.017,1.017,0,0,0,.07.086,13.04,13.04,0,0,0,6.29,5.287.816.816,0,0,0,1.074-.257c.44-.554.914-1.08,1.337-1.647a.791.791,0,0,1,1.054-.339c1.322.61,2.649,1.212,3.933,1.894a1.143,1.143,0,0,1,.356.921,3.926,3.926,0,0,1-3.18,3.711,5.68,5.68,0,0,1-2.911-.007,18,18,0,0,1-10.5-7.164,13.356,13.356,0,0,1-2.468-4.471,5.32,5.32,0,0,1,1.195-5.086A2.035,2.035,0,0,1,1448.791-690.719Z" transform="translate(-1445.299 690.773)" fill="none" stroke="#ff3d00" stroke-miterlimit="10" stroke-width="1"/></g><path d="M1452.182-698.107a15.785,15.785,0,0,0-13.582,13.513,15.665,15.665,0,0,0,2.392,10.644,1.694,1.694,0,0,1,.131,1.658l-2.045,4.268a.53.53,0,0,0,.692.714l4.5-1.976a1.694,1.694,0,0,1,1.585.14,15.686,15.686,0,0,0,10.589,2.257,15.774,15.774,0,0,0,13.386-13.535A15.761,15.761,0,0,0,1452.182-698.107Z" transform="translate(0 0)" fill="none" stroke="#ff3d00" stroke-miterlimit="10" stroke-width="1"/></g></g></svg>